<?xml version="1.0" encoding="UTF-8"?>
<svg width="20px" height="20px" viewBox="0 0 20 20" version="1.1" xmlns="http://www.w3.org/2000/svg" xmlns:xlink="http://www.w3.org/1999/xlink">
    <title>AK-MN_空间_fill备份 2</title>
    <g id="页面-1" stroke="none" stroke-width="1" fill="none" fill-rule="evenodd">
        <g id="AK-MN_空间_fill备份-2">
            <rect id="矩形" fill="#52C41A" opacity="0" x="0" y="0" width="20" height="20" rx="4"></rect>
            <g id="节能" transform="translate(2.000000, 2.000000)" fill-rule="nonzero">
                <rect id="矩形" fill="#000000" opacity="0" x="0" y="0" width="16" height="16"></rect>
                <path d="M8,0.890625 C8.6334375,3.73515625 13.1251563,7.55 13.1251563,10.5073438 C13.1251563,13.4646875 10.830625,15.109375 8,15.109375 C5.169375,15.109375 2.87484375,13.4645313 2.87484375,10.5073438 C2.87484375,9.07644657 3.94581068,7.45133032 5.11374022,5.82950772 L5.58377463,5.18142251 C6.68181387,3.67181842 7.75118952,2.18802419 8,0.890625 Z M7.8496875,4.13125 C7.42546875,6.34328125 3.90328125,9.2590625 3.90328125,11.5360937 C3.90328125,13.8132812 5.67015625,15.0796875 7.8496875,15.0796875 C10.0292188,15.0796875 11.7960938,13.8132813 11.7960938,11.5360938 C11.7960938,9.25890625 8.3375,6.32140625 7.8496875,4.13125 Z" id="形状结合" fill="#FFFFFF"></path>
                <path d="M7.8496875,15.0796875 C9.3753125,15.0796875 10.6121875,14.1932813 10.6121875,12.5992188 C10.6121875,11.0051563 8.19109375,8.94890625 7.8496875,7.41578125 C7.55265625,8.96421875 5.0871875,11.0051563 5.0871875,12.5992188 C5.0871875,14.1932813 6.32390625,15.0796875 7.8496875,15.0796875 Z" id="路径" fill="#FFFFFF"></path>
            </g>
        </g>
    </g>
</svg>