<?xml version="1.0" encoding="UTF-8"?>
<svg width="20px" height="20px" viewBox="0 0 20 20" version="1.1" xmlns="http://www.w3.org/2000/svg" xmlns:xlink="http://www.w3.org/1999/xlink">
    <title>AK-MN_空间_fill备份 3</title>
    <g id="页面-1" stroke="none" stroke-width="1" fill="none" fill-rule="evenodd">
        <g id="AK-MN_空间_fill备份-3">
            <rect id="矩形" fill="#F9DB15" opacity="0" x="0" y="0" width="20" height="20" rx="4"></rect>
            <g id="钱包" transform="translate(3.000000, 3.000000)" fill-rule="nonzero">
                <rect id="矩形" fill="#000000" opacity="0" x="0" y="0" width="14" height="14"></rect>
                <path d="M7,0.839998514 C7.64376932,0.839258362 8.25657693,1.11622087 8.6814,1.59992 L10.01308,1.53664 C10.4740093,1.51462726 10.9012592,1.77756677 11.0892996,2.19897055 C11.2773401,2.62037433 11.1876757,3.11397333 10.86344,3.44232 L9.89884,4.41868 C11.13252,5.12792 12.11924,6.27564 12.68148,7.67032 C13.17344,8.88944 13.286,10.25668 13.01944,11.7712 C12.8780723,12.5744375 12.1802228,13.16 11.36464,13.16 L2.63536,13.16 C1.81977718,13.16 1.12192768,12.5744375 0.98056,11.7712 C0.71428,10.25668 0.82684,8.89 1.31852,7.67032 C1.88132,6.27508 2.8686,5.1268 4.10312,4.41784 L3.13936,3.4426 C2.81500499,3.11435166 2.72518127,2.62076409 2.91310104,2.1992913 C3.10102082,1.77781852 3.52821104,1.51474914 3.98916,1.53664 L5.31916,1.59992 C5.74385424,1.11636788 6.35642599,0.839419739 7,0.839998514 Z M8.45772858,5 L6.99584693,6.64095401 L5.52528299,5.01302344 L4.72,5.74016576 L6.35921755,7.5547657 L4.90558408,7.5547657 L4.90558408,8.64005274 L6.37397745,8.64005274 L6.37397745,9.30316313 L4.90558408,9.30316313 L4.90558408,10.3884502 L6.37397745,10.3884502 L6.37397745,11.4585432 L7.5677932,11.4585432 L7.5677932,10.3884502 L9.10998609,10.3884502 L9.10998609,9.30316313 L7.5677932,9.30316313 L7.5677932,8.64005274 L9.10998609,8.64005274 L9.10998609,7.5547657 L7.63628567,7.5547657 L9.268438,5.72171588 L8.45772858,5 Z" id="形状结合" fill="#FFFFFF"></path>
            </g>
        </g>
    </g>
</svg>