<?xml version="1.0" encoding="UTF-8"?>
<svg width="293px" height="293px" viewBox="0 0 293 293" version="1.1" xmlns="http://www.w3.org/2000/svg" xmlns:xlink="http://www.w3.org/1999/xlink">
    <title>后勤办公类</title>
    <g id="页面-1" stroke="none" stroke-width="1" fill="none" fill-rule="evenodd">
        <g id="画板" transform="translate(-948.000000, -148.000000)">
            <g id="后勤办公类" transform="translate(948.000000, 148.000000)">
                <rect id="矩形" fill="#D7D7D7" opacity="0" x="0" y="0" width="293" height="293"></rect>
                <g id="编组-4" transform="translate(146.500000, 152.500000) rotate(1.000000) translate(-146.500000, -152.500000) translate(17.000000, 50.000000)" fill-rule="nonzero">
                    <g id="编组-7">
                        <polygon id="路径" fill-opacity="0.196078431" fill="#747D84" points="41.9500874 101.348955 3.69371838 123.581493 51.8879487 151.438072 90.1443177 129.117658"></polygon>
                        <polygon id="路径" fill="#008BFF" points="97.1799718 145.726155 97.3558631 79.9951733 33.010835 42.0782502 32.8349436 107.721356"></polygon>
                        <polygon id="路径" fill="#1152FE" points="103.336169 83.510199 129.895763 68.1319613 32.6278457 34.9149679 32.6278457 42.6480245"></polygon>
                        <polygon id="路径" fill="#682D14" points="129.895763 68.1319613 103.336169 83.510199 103.160278 149.153305 129.719872 133.775067"></polygon>
                        <polygon id="路径" fill="#461C0A" points="103.336169 83.510199 97.3558631 79.9951733 97.1799718 145.726155 103.160278 149.153305"></polygon>
                        <polygon id="路径" fill="#253237" points="45.8196971 146.956414 52.2397314 146.956414 52.2397314 144.232269 45.8196971 144.232269"></polygon>
                        <path d="M51.272329,145.286777 C49.6893068,144.40802 48.1649151,144.40802 46.6991538,145.286777 C45.9955884,145.696863 45.7024362,146.165533 45.8196971,146.692787 C45.7024362,147.278625 45.9955884,147.776587 46.6991538,148.186673 C47.3440888,148.538176 48.1062847,148.713927 48.9857414,148.713927 C49.9238286,148.713927 50.6860245,148.538176 51.272329,148.186673 C51.9172639,147.893754 52.2397314,147.425084 52.2397314,146.780663 C52.3569923,146.253409 52.0345248,145.755447 51.272329,145.286777 Z" id="路径" fill="#253237"></path>
                        <path d="M52.2397314,144.232269 L52.2397314,143.968642 C52.2397314,143.675723 52.0638401,143.382805 51.7120574,143.089886 L50.5687636,142.474756 L49.6893068,142.299005 C48.5753283,142.181837 47.6372411,142.299005 46.8750452,142.650508 L46.6991538,142.826259 L46.1714798,143.177761 C45.936958,143.529264 45.8196971,143.763599 45.8196971,143.880767 C45.7610666,144.056518 45.7610666,144.173685 45.8196971,144.232269 C45.8196971,144.642355 46.0835341,145.02315 46.6112082,145.374652 L46.6991538,145.462528 C47.5199802,145.814031 48.4287521,145.989782 49.4254698,145.989782 C50.1290352,145.931198 50.7446549,145.755447 51.272329,145.462528 L51.4482203,145.374652 C51.9172639,145.02315 52.181101,144.642355 52.2397314,144.232269 M49.6893068,143.265637 L50.1290352,143.441388 C50.4221875,143.61714 50.5687636,143.763599 50.5687636,143.880767 L50.6567093,144.232269 L50.5687636,144.320145 C50.5687636,144.495896 50.4221875,144.642355 50.1290352,144.759523 L50.0410895,144.847399 L49.6893068,145.02315 C48.9857414,145.140317 48.3994369,145.081734 47.9303933,144.847399 L47.8424476,144.759523 C47.5492954,144.642355 47.4027193,144.466604 47.4027193,144.232269 C47.2854584,143.880767 47.4320345,143.61714 47.8424476,143.441388 C48.4287521,143.14847 49.0443719,143.089886 49.6893068,143.265637 Z" id="形状" fill="#253237"></path>
                        <path d="M51.272329,142.562632 C50.6860245,142.152546 49.9238286,141.947502 48.9857414,141.947502 C48.1062847,141.947502 47.3440888,142.123254 46.6991538,142.474756 C46.1128493,142.884843 45.8196971,143.324221 45.8196971,143.792891 C45.8196971,144.320145 46.1128493,144.759523 46.6991538,145.111026 C47.3440888,145.521112 48.1062847,145.726155 48.9857414,145.726155 C49.8651982,145.726155 50.627394,145.550404 51.272329,145.198901 C51.9172639,144.788815 52.2397314,144.349437 52.2397314,143.880767 C52.2397314,143.353513 51.9172639,142.914134 51.272329,142.562632 Z" id="路径" fill="#37444B"></path>
                        <path d="M50.9205463,144.671647 C51.4482203,144.437312 51.7120574,144.056518 51.7120574,143.529264 L51.800003,113.036415 C51.790842,113.509662 51.4976898,113.890457 50.9205463,114.178799 L50.6567093,114.35455 L50.5687636,144.847399 L50.9205463,144.671647 Z" id="路径" fill="#59626B"></path>
                        <polygon id="路径" fill="#59626B" points="50.5687636 144.847399 50.6567093 114.35455 49.6893068 114.618177 49.6893068 145.111026"></polygon>
                        <path d="M49.6893068,145.111026 L49.6893068,114.618177 C48.6925892,114.793928 47.8131324,114.647469 47.0509365,114.178799 L46.9629909,114.178799 L46.8750452,144.671647 L46.9629909,144.671647 C47.7838172,145.140317 48.6925892,145.286777 49.6893068,145.111026 Z" id="路径" fill="#747D84"></path>
                        <polygon id="路径" fill="#59626B" points="46.3473711 113.651545 46.1714798 113.036415 46.1714798 143.529264 46.3473711 144.144393 46.8750452 144.671647 46.9629909 114.178799"></polygon>
                        <path d="M51.800003,113.036415 C51.800003,112.626329 51.5068508,112.245535 50.9205463,111.894032 C49.6306764,111.132443 48.3408065,111.132443 47.0509365,111.894032 C46.464632,112.245535 46.1714798,112.626329 46.1714798,113.036415 C46.1714798,113.505086 46.464632,113.88588 47.0509365,114.178799 C48.3408065,114.940388 49.6306764,114.940388 50.9205463,114.178799 C51.5068508,113.88588 51.800003,113.505086 51.800003,113.036415 Z" id="路径" fill="#00394E"></path>
                        <polygon id="路径" fill="#253237" points="13.6491689 124.934778 13.6491689 122.210633 7.22913455 122.210633 7.22913455 124.934778"></polygon>
                        <path d="M13.6491689,124.759026 C13.7664298,124.231773 13.4439623,123.733811 12.6817664,123.26514 C11.0987443,122.386384 9.57435257,122.386384 8.10859131,123.26514 C7.4050259,123.675227 7.11187365,124.143897 7.22913455,124.671151 C7.11187365,125.256988 7.4050259,125.75495 8.10859131,126.165037 C8.75352626,126.516539 9.51572212,126.692291 10.3951789,126.692291 C11.3332661,126.692291 12.0954619,126.516539 12.6817664,126.165037 C13.3267014,125.872118 13.6491689,125.403448 13.6491689,124.759026 Z" id="路径" fill="#253237"></path>
                        <path d="M11.978201,120.45312 L11.0987443,120.277369 C9.98476572,120.160201 9.04667852,120.277369 8.28448266,120.628871 L8.10859131,120.804622 L7.58091725,121.156125 C7.34639545,121.507628 7.22913455,121.741963 7.22913455,121.85913 C7.1705041,122.034881 7.1705041,122.152049 7.22913455,122.210633 C7.22913455,122.620719 7.49297158,123.001513 8.02064563,123.353016 L8.10859131,123.440892 C8.92941762,123.792394 9.8381896,123.968146 10.8349073,123.968146 C11.5384727,123.909562 12.1540924,123.733811 12.6817664,123.440892 L12.8576578,123.353016 C13.3267014,123.001513 13.5905384,122.620719 13.6491689,122.210633 L13.6491689,121.947006 C13.6491689,121.654087 13.4732775,121.361168 13.1214948,121.068249 L11.978201,120.45312 M12.0661467,122.210633 L11.978201,122.298508 C11.978201,122.47426 11.8316249,122.620719 11.5384727,122.737887 L11.450527,122.825762 L11.0987443,123.001513 C10.3951789,123.118681 9.80887437,123.060097 9.33983077,122.825762 L9.25188509,122.737887 C8.95873284,122.620719 8.81215671,122.444968 8.81215671,122.210633 C8.69489581,121.85913 8.84147194,121.595503 9.25188509,121.419752 C9.8381896,121.126833 10.4538093,121.068249 11.0987443,121.244001 L11.5384727,121.419752 C11.8316249,121.595503 11.978201,121.741963 11.978201,121.85913 L12.0661467,122.210633 Z" id="形状" fill="#253237"></path>
                        <path d="M13.6491689,121.85913 C13.6491689,121.331876 13.3267014,120.892498 12.6817664,120.540995 C12.0954619,120.130909 11.3332661,119.925866 10.3951789,119.925866 C9.51572212,119.925866 8.75352626,120.101617 8.10859131,120.45312 C7.5222868,120.863206 7.22913455,121.302584 7.22913455,121.771254 C7.22913455,122.298508 7.5222868,122.737887 8.10859131,123.089389 C8.75352626,123.499475 9.51572212,123.704519 10.3951789,123.704519 C11.2746356,123.704519 12.0368315,123.528767 12.6817664,123.177265 C13.3267014,122.767178 13.6491689,122.3278 13.6491689,121.85913 Z" id="路径" fill="#37444B"></path>
                        <path d="M13.1214948,121.507628 L13.2094405,91.014779 C13.2002795,91.488026 12.9071272,91.8688205 12.3299837,92.1571624 L12.0661467,92.3329137 L11.978201,122.825762 L12.3299837,122.650011 C12.8576578,122.415676 13.1214948,122.034881 13.1214948,121.507628 Z" id="路径" fill="#59626B"></path>
                        <polygon id="路径" fill="#59626B" points="12.0661467 92.3329137 11.0987443 92.5965406 11.0987443 123.089389 11.978201 122.825762"></polygon>
                        <path d="M11.0987443,92.5965406 C10.1020266,92.7722919 9.22256987,92.6258325 8.46037401,92.1571624 L8.37242834,92.1571624 L8.28448266,122.650011 L8.37242834,122.650011 C9.19325464,123.118681 10.1020266,123.26514 11.0987443,123.089389 L11.0987443,92.5965406 Z" id="路径" fill="#747D84"></path>
                        <polygon id="路径" fill="#59626B" points="8.37242834 92.1571624 7.7568086 91.6299086 7.58091725 91.014779 7.58091725 121.507628 7.7568086 122.122757 8.28448266 122.650011"></polygon>
                        <path d="M8.46037401,89.8723957 C7.87406951,90.2238983 7.58091725,90.6046927 7.58091725,91.014779 C7.58091725,91.4834491 7.87406951,91.8642436 8.46037401,92.1571624 C9.75024392,92.9187513 11.0401138,92.9187513 12.3299837,92.1571624 C12.9162883,91.8642436 13.2094405,91.4834491 13.2094405,91.014779 C13.2094405,90.6046927 12.9162883,90.2238983 12.3299837,89.8723957 C11.0401138,89.1108068 9.75024392,89.1108068 8.46037401,89.8723957 Z" id="路径" fill="#00394E"></path>
                        <polygon id="路径" fill="#13171F" points="38.3443146 73.6681269 2.27373675e-13 95.9006649 2.27373675e-13 96.3400431 38.3443146 74.1075051"></polygon>
                        <polygon id="路径" fill="#64A6B7" points="86.4505993 108.554758 86.538545 101.43683 48.1942303 123.757244 48.1942303 130.787296"></polygon>
                        <polygon id="路径" fill="#BADDE6" points="48.1942303 130.787296 48.1942303 123.757244 0 95.9006649 0 103.018592"></polygon>
                        <polygon id="路径" fill="#743417" points="38.3443146 73.6681269 2.27373675e-13 95.9006649 48.1942303 123.757244 86.538545 101.43683"></polygon>
                        <polygon id="路径" fill="#D0EAFC" points="38.3443146 70.0652255 1.13686838e-12 92.2977635 48.1942303 120.154343 86.538545 97.833929"></polygon>
                        <polygon id="路径" fill="#0090FF" points="86.538545 101.43683 86.538545 97.833929 48.1942303 120.154343 48.1942303 123.757244"></polygon>
                        <polygon id="路径" fill="#1152FE" points="48.1942303 123.757244 48.1942303 120.154343 1.13686838e-12 92.2977635 1.13686838e-12 95.9006649"></polygon>
                        <polygon id="路径" fill="#0090FF" points="259 92.7283541 259 85.004085 103.336169 83.510199 73.2587479 86.234344 73.2587479 94.0552763 164.546359 146.780663"></polygon>
                        <polygon id="路径" fill="#00CCFF" points="164.546359 138.95973 259 85.004085 90.8483481 -4.93684135e-13 32.6278457 34.9149679 97.3558631 72.2621166 73.2587479 86.234344"></polygon>
                        <polygon id="路径" fill="#157DBB" points="164.546359 132.808435 249.221411 85.004085 90.8483481 4.50640005 43.0933811 34.8270922 107.909344 72.2621166 83.7242834 86.234344"></polygon>
                        <polygon id="路径" fill="#D0EAFC" points="164.502387 132.808435 242.547744 89.301204 90.8483481 10.9341479 48.0623118 37.7269885 107.865371 72.2621166 83.6803105 86.234344"></polygon>
                        <polygon id="路径" fill="#02A5FF" points="86.1867623 100.149081 73.1708023 92.5917761 73.1708023 155.119393 164.546359 205 164.546359 145.379428 86.4505993 100.236957"></polygon>
                        <polygon id="路径" fill="#008AFF" points="259 151.719274 259 91.014779 164.546359 145.379428 164.546359 205"></polygon>
                        <polygon id="路径" fill="#818181" points="154.344661 119.714964 154.432607 123.84512 162.259772 128.326778 162.171826 124.284498"></polygon>
                        <polygon id="路径" fill="#9A9A9A" points="162.171826 124.284498 162.259772 128.326778 172.637362 122.439109 172.637362 118.308954"></polygon>
                        <polygon id="路径" fill="#CACACA" points="154.344661 119.714964 162.171826 124.284498 172.637362 118.308954 164.810196 113.827296"></polygon>
                        <path d="M163.227174,116.639317 C162.054565,116.639317 161.028532,116.902944 160.149076,117.430198 C159.328249,117.898868 158.917836,118.484705 158.917836,119.187711 C158.917836,119.890716 159.328249,120.476553 160.149076,120.945223 C161.028532,121.413894 162.054565,121.648229 163.227174,121.648229 C164.458414,121.648229 165.484447,121.413894 166.305273,120.945223 C167.126099,120.476553 167.536512,119.890716 167.536512,119.187711 C167.536512,118.484705 167.126099,117.898868 166.305273,117.430198 C165.484447,116.902944 164.458414,116.639317 163.227174,116.639317 Z" id="路径" fill="#59626B"></path>
                        <polygon id="路径" fill="#BADDE6" points="166.129382 117.254446 159.973184 120.769472 160.412913 121.033099 166.481164 117.518073"></polygon>
                        <polygon id="路径" fill="#BADDE6" points="160.412913 117.254446 159.973184 117.518073 166.129382 121.033099 166.481164 120.769472"></polygon>
                        <polygon id="路径" fill="#BADDE6" points="158.917836 119.011959 158.917836 119.363462 167.624458 119.363462 167.624458 119.011959"></polygon>
                        <polygon id="路径" fill="#BADDE6" points="162.963337 116.639317 162.963337 121.648229 163.578957 121.648229 163.578957 116.639317"></polygon>
                        <polygon id="路径" fill="#818181" points="173.868601 109.433514 173.868601 113.563669 181.695766 118.045327 181.695766 114.003048"></polygon>
                        <polygon id="路径" fill="#9A9A9A" points="181.695766 114.003048 181.695766 118.045327 192.161302 112.069783 192.161302 108.027504"></polygon>
                        <polygon id="路径" fill="#CACACA" points="173.868601 109.433514 181.695766 114.003048 192.161302 108.027504 184.334136 103.45797"></polygon>
                        <path d="M182.751114,106.357867 C181.519875,106.357867 180.493842,106.592202 179.673016,107.060872 C178.852189,107.529542 178.441776,108.115379 178.441776,108.818385 C178.441776,109.52139 178.852189,110.136519 179.673016,110.663773 C180.493842,111.132443 181.519875,111.366778 182.751114,111.366778 C183.923723,111.366778 184.949756,111.132443 185.829213,110.663773 C186.650039,110.136519 187.060452,109.52139 187.060452,108.818385 C187.060452,108.115379 186.650039,107.529542 185.829213,107.060872 C184.949756,106.592202 183.923723,106.357867 182.751114,106.357867 Z" id="路径" fill="#59626B"></path>
                        <polygon id="路径" fill="#BADDE6" points="185.565376 106.972996 179.497124 110.488022 179.848907 110.751649 186.005104 107.236623"></polygon>
                        <polygon id="路径" fill="#BADDE6" points="179.848907 106.972996 179.497124 107.236623 185.565376 110.751649 186.005104 110.488022"></polygon>
                        <polygon id="路径" fill="#BADDE6" points="178.441776 108.730509 178.441776 108.994136 187.060452 108.994136 187.060452 108.730509"></polygon>
                        <polygon id="路径" fill="#BADDE6" points="182.399332 106.357867 182.399332 111.366778 183.014951 111.366778 183.014951 106.357867"></polygon>
                    </g>
                    <path d="M133.3215,171.235256 C133.735498,171.919434 133.735498,172.609784 133.30908,172.819696 C132.907962,172.992148 132.255226,172.603012 131.828348,171.910183 L125.329041,161.17583 C124.927923,160.499331 124.927923,159.808981 125.354341,159.612205 C125.755919,159.426891 126.433495,159.830836 126.859913,160.509769 L133.3215,171.235256 Z M130.448355,130.800993 C131.125931,131.204938 131.816388,131.669591 132.493504,132.245484 C133.208801,132.804732 133.861077,133.419332 134.488514,134.072153 C135.36665,134.993624 135.793528,136.349559 135.40437,137.073053 C135.317514,137.237575 135.194226,137.361889 135.040511,137.439941 C133.697778,138.059077 132.355505,138.665838 131.025192,139.292377 L131.251051,140.276463 L131.45207,141.258876 L132.280066,141.991369 L133.083221,142.695917 C134.413075,142.069103 135.755808,141.475752 137.098081,140.84272 C137.776117,140.517182 138.904952,141.190149 139.607368,142.33866 C139.808387,142.684238 139.958806,143.052679 140.034246,143.389557 C140.274861,144.139796 140.455676,144.879008 140.573823,145.595465 L140.573823,145.622222 L140.586243,145.629627 C140.711362,146.380946 140.787262,147.155952 140.787262,147.925603 C140.787262,150.911283 139.620248,152.96236 137.750818,153.838656 C135.893807,154.708734 133.28378,154.373864 130.448355,152.683494 C130.247336,152.563654 130.046777,152.430953 129.845758,152.311113 L127.888468,153.187573 L138.654253,170.990902 L138.741653,171.149065 C140.055281,173.365426 140.788931,175.721147 140.786802,177.715965 C140.786802,179.679985 140.084386,181.238387 138.653793,181.884931 L138.628493,181.896606 C137.19836,182.530775 135.36619,182.181398 133.509179,181.074321 C131.652169,179.967243 129.757898,178.09506 128.365025,175.751166 L117.574401,157.919406 L106.571717,163.024472 C104.275408,164.083648 101.502543,162.643175 99.2315341,160.254492 C98.3533986,159.346157 97.5631227,158.291219 96.910386,157.211732 L96.8979661,157.204328 C96.2456894,156.112467 95.7061121,154.967625 95.342254,153.835105 C94.363839,150.849938 94.5643979,148.023717 96.8731262,146.985081 L96.8731262,146.958323 L109.144024,141.295754 L104.652146,133.867151 L100.662127,130.227922 C100.155531,129.774309 99.7406207,129.14176 99.5328326,128.506263 L95.7061121,116.737103 C95.3546739,115.837726 95.4678333,115.002721 96.0198305,114.747994 L97.6256823,114.020088 L99.2066943,113.290509 C99.6961318,113.065138 100.461568,113.321994 101.139144,114.0446 L110.223178,123.560411 C110.712359,124.067596 111.081893,124.727624 111.226893,125.353156 L112.406327,130.276232 L116.898204,137.704835 L120.122788,136.243079 C120.110368,135.996801 120.097488,135.763384 120.097488,135.591161 L120.109908,135.598565 C120.109908,132.559856 121.264502,130.501374 123.133932,129.651836 L123.133932,129.638214 C125.002903,128.788889 127.600509,129.103218 130.448355,130.800993 Z M120.084608,156.788768 L130.849473,174.591549 C131.564769,175.787632 132.555604,176.77629 133.509179,177.344775 C134.462754,177.913259 135.429209,178.091461 136.144506,177.761378 L136.169346,177.763051 C136.897062,177.453995 137.23608,176.607686 137.23608,175.599162 C137.23608,174.616909 136.897062,173.419897 136.219485,172.272572 L136.144506,172.148572 L125.379181,154.34503 L120.084608,156.788768 Z M111.628011,140.148998 L114.400877,138.883044 L109.595281,130.922483 C109.355985,130.524607 109.19064,130.103802 109.118724,129.70964 L108.077289,125.359718 L100.850266,117.826693 L100.11013,118.155103 L99.3699934,118.509784 L102.444158,127.985959 L106.082739,131.283345 C106.384038,131.55589 106.634736,131.864434 106.835755,132.223147 L111.628011,140.148998 Z M130.197656,134.393732 C128.475146,133.433646 126.84163,133.219143 125.630339,133.793981 C124.340948,134.369538 123.617432,135.774777 123.62291,137.692881 L123.64821,137.707964 L123.64821,138.225605 L123.698349,138.693351 C123.823469,139.351748 123.64821,139.8841 123.221332,140.094224 L99.3699934,151.087607 L99.3575735,151.080202 C98.2535791,151.629549 98.1279998,152.921762 98.5797175,154.318776 C98.7678565,154.868306 99.0567351,155.478865 99.3952933,156.051903 C99.7591514,156.640511 100.160729,157.171819 100.600027,157.632692 C101.666302,158.759247 102.946475,159.389621 104.075309,158.894976 L116.296067,153.256031 L116.346207,153.232893 L124.125227,149.630025 L124.175367,149.593752 L127.914228,147.894676 L127.926648,147.90208 C128.290506,147.694279 128.855383,147.818921 129.4198,148.248327 C129.595519,148.379355 129.758358,148.503192 129.946957,148.615627 C130.072077,148.703354 130.247796,148.821733 130.448815,148.941573 C132.331125,150.063733 134.037257,150.271319 135.26683,149.730673 L135.26683,149.703915 C136.433844,149.179003 137.17398,147.908233 137.237,146.047948 C136.471564,146.414304 135.706128,146.754389 134.940692,147.133881 C134.501854,147.389418 133.836698,147.20548 133.159121,146.642448 L131.37755,145.062703 L129.570679,143.468362 C128.968082,142.936408 128.479105,142.180287 128.315806,141.39307 L127.839248,139.197974 L127.349811,136.9952 C127.211811,136.329124 127.337391,135.687368 127.814408,135.507135 C128.603764,135.128768 129.3945,134.764359 130.197656,134.393732 Z" id="形状" fill="#FFFFFF"></path>
                </g>
            </g>
        </g>
    </g>
</svg>