<?xml version="1.0" encoding="UTF-8"?>
<svg width="293px" height="293px" viewBox="0 0 293 293" version="1.1" xmlns="http://www.w3.org/2000/svg" xmlns:xlink="http://www.w3.org/1999/xlink">
    <title>液氧站</title>
    <g id="页面-1" stroke="none" stroke-width="1" fill="none" fill-rule="evenodd">
        <g id="画板" transform="translate(-1301.000000, -148.000000)">
            <g id="液氧站" transform="translate(1301.000000, 148.000000)">
                <g id="编组-14备份" fill="#D7D7D7" opacity="0">
                    <rect id="矩形" x="0" y="0" width="293" height="293"></rect>
                </g>
                <g id="编组-10" transform="translate(19.000000, 44.000000)" fill-rule="nonzero">
                    <g id="编组-6备份" transform="translate(127.000000, 3.000000)">
                        <g id="编组">
                            <polygon id="路径" fill="#008AFF" points="128 38.2462753 127.555911 193.449046 66.3400053 229 66.7840939 73.7972288"></polygon>
                            <polygon id="路径" fill="#02A5FF" points="66.7840939 73.7972288 66.3400053 229 0 190.753725 0.444088604 35.5509535"></polygon>
                            <polygon id="路径" fill="#0061FF" points="128 38.2462753 66.7840939 73.7972288 0.444088604 35.5509535 61.6599947 0"></polygon>
                        </g>
                        <g id="编组" transform="translate(74.709367, 58.785310)" fill="#FFFFFF">
                            <polygon id="路径" points="0.102481986 66.2912694 0.0683213237 56.0899881 8.98425407 50.9381704 9.01841473 61.1735697"></polygon>
                            <polygon id="路径" points="0.0683213237 51.7228844 0.0341606619 41.5216031 8.95009341 36.4039035 8.98425407 46.6051847"></polygon>
                            <polygon id="路径" points="0.0341606619 37.4615614 0 27.2261621 8.91593275 22.1084625 8.95009341 32.3097437"></polygon>
                            <polygon id="路径" points="12.8444089 44.3533969 12.8102482 34.1521156 21.7261809 29.034416 21.7603416 39.2356973"></polygon>
                            <polygon id="路径" points="12.8102482 30.0920739 12.7760875 19.8566746 21.6920203 14.738975 21.7261809 24.9402563"></polygon>
                            <polygon id="路径" points="25.6204964 36.9839094 25.5863357 26.7826281 34.5022685 21.6649285 34.5364291 31.8662098"></polygon>
                            <polygon id="路径" points="25.5863357 22.7225864 25.5521751 12.4871871 34.4681078 7.36948749 34.5022685 17.5707688"></polygon>
                            <polygon id="路径" points="38.3965839 29.6144219 38.3965839 19.4131406 47.278356 14.295441 47.3125167 24.4967223"></polygon>
                            <polygon id="路径" points="38.3624233 15.3530989 38.3282626 5.11769964 47.2441954 0 47.278356 10.2012813"></polygon>
                            <polygon id="路径" points="12.8785695 58.9217819 12.8444089 48.7205006 21.7603416 43.568683 21.7945023 53.8040822"></polygon>
                            <g transform="translate(0.204964, 94.063319)">
                                <polygon id="路径" points="0.0341606619 15.3530989 0 5.11769964 8.91593275 0 8.91593275 10.2012813"></polygon>
                                <g id="SVGID_19_-link">
                                    <polygon id="SVGID_19_" points="0.0341606619 15.3530989 0 5.11769964 8.91593275 0 8.91593275 10.2012813"></polygon>
                                </g>
                            </g>
                            <polygon id="路径" points="0.204963971 95.1209774 0.170803309 84.9196961 9.05257539 79.7678784 9.08673606 90.0032777"></polygon>
                            <polygon id="路径" points="0.136642647 80.5867104 0.136642647 70.3513111 9.01841473 65.2336114 9.05257539 75.4348927"></polygon>
                            <polygon id="路径" points="12.9810515 87.7514899 12.9468908 77.5502086 21.8628236 72.3983909 21.8628236 82.6337902"></polygon>
                            <polygon id="路径" points="12.9468908 73.2172229 12.9127302 62.9818236 21.7945023 57.864124 21.8286629 68.0654052"></polygon>
                            <polygon id="路径" points="25.7229784 65.8477354 25.6888177 55.6123361 34.6047505 50.4946365 34.6047505 60.6959178"></polygon>
                            <polygon id="路径" points="25.6546571 51.5522944 25.6546571 41.3510131 34.5364291 36.1991955 34.5705898 46.4345948"></polygon>
                            <polygon id="路径" points="38.4990659 58.4782479 38.4649053 48.2428486 47.380838 43.125149 47.4149987 53.3264303"></polygon>
                            <polygon id="路径" points="38.4649053 44.1828069 38.4307446 33.9815256 47.3125167 28.829708 47.3466773 39.0651073"></polygon>
                            <polygon id="路径" points="13.0152122 102.046931 12.9810515 91.8115316 21.8969843 86.6938319 21.9311449 96.8951132"></polygon>
                            <polygon id="路径" points="25.757139 80.3820024 25.7229784 70.1807211 34.6389111 65.0289035 34.6730718 75.2643027"></polygon>
                            <g transform="translate(38.635709, 101.671633)">
                                <polygon id="路径" points="0.0341606619 15.3530989 0 5.15181764 8.91593275 0 8.91593275 10.2012813"></polygon>
                                <g id="SVGID_21_-link">
                                    <polygon id="SVGID_21_" points="0.0341606619 15.3530989 0 5.15181764 8.91593275 0 8.91593275 10.2012813"></polygon>
                                </g>
                            </g>
                            <g transform="translate(38.601548, 86.830304)">
                                <polygon id="路径" points="0 15.3530989 0 5.11769964 8.88177208 0 8.91593275 10.2012813"></polygon>
                                <g id="SVGID_23_-link">
                                    <polygon id="SVGID_23_" points="0 15.3530989 0 5.11769964 8.88177208 0 8.91593275 10.2012813"></polygon>
                                </g>
                            </g>
                            <polygon id="路径" points="38.5673872 87.3079559 38.5332266 77.0725566 47.4491593 71.954857 47.48332 82.1561383"></polygon>
                            <polygon id="路径" points="38.5332266 73.0125149 38.4990659 62.8112336 47.4149987 57.659416 47.4491593 67.8948153"></polygon>
                            <g transform="translate(25.791300, 94.199791)">
                                <polygon id="路径" points="0.0341606619 15.3530989 0 5.11769964 8.91593275 0 8.95009341 10.2012813"></polygon>
                                <g id="SVGID_25_-link">
                                    <polygon id="SVGID_25_" points="0.0341606619 15.3530989 0 5.11769964 8.91593275 0 8.95009341 10.2012813"></polygon>
                                </g>
                            </g>
                            <g transform="translate(25.757139, 79.324344)">
                                <polygon id="路径" points="0.0341606619 15.3530989 0 5.11769964 8.91593275 0 8.95009341 10.2012813"></polygon>
                                <g id="SVGID_27_-link">
                                    <polygon id="SVGID_27_" points="0.0341606619 15.3530989 0 5.11769964 8.91593275 0 8.95009341 10.2012813"></polygon>
                                </g>
                            </g>
                            <polygon id="路径" points="0.307445957 139.133194 0.273285295 128.931913 9.18921804 123.780095 9.2233787 134.015495"></polygon>
                            <g transform="translate(0.239125, 108.938766)">
                                <polygon id="路径" points="0.0341606619 15.3530989 0 5.11769964 8.91593275 0 8.95009341 10.2012813"></polygon>
                                <g id="SVGID_29_-link">
                                    <polygon id="SVGID_29_" points="0.0341606619 15.3530989 0 5.11769964 8.91593275 0 8.95009341 10.2012813"></polygon>
                                </g>
                            </g>
                            <g transform="translate(13.015212, 101.569279)">
                                <polygon id="路径" points="0.0341606619 15.3530989 0 5.11769964 8.91593275 0 8.95009341 10.2012813"></polygon>
                                <g id="SVGID_31_-link">
                                    <polygon id="SVGID_31_" points="0.0341606619 15.3530989 0 5.11769964 8.91593275 0 8.95009341 10.2012813"></polygon>
                                </g>
                            </g>
                            <g transform="translate(13.083533, 116.410608)">
                                <polygon id="路径" points="0 15.3530989 0 5.15181764 8.88177208 0 8.91593275 10.2353993"></polygon>
                                <g id="SVGID_33_-link">
                                    <polygon id="SVGID_33_" points="0 15.3530989 0 5.15181764 8.88177208 0 8.91593275 10.2353993"></polygon>
                                </g>
                            </g>
                            <polygon id="路径" points="25.8937817 124.394219 25.859621 114.192938 34.7413931 109.04112 34.7755538 119.27652"></polygon>
                            <polygon id="路径" points="0.37576728 154.998063 0.341606619 144.796782 9.2233787 139.644964 9.25753936 149.846246"></polygon>
                            <polygon id="路径" points="13.1518548 147.628576 13.1176942 137.427294 22.0336269 132.275477 22.0336269 142.476758"></polygon>
                            <polygon id="路径" points="25.9279424 140.259088 25.8937817 130.057807 34.8097144 124.905989 34.8438751 135.107271"></polygon>
                            <polygon id="路径" points="38.7040299 132.889601 38.6698692 122.654201 47.585802 117.536502 47.6199626 127.737783"></polygon>
                        </g>
                    </g>
                    <g id="编组-8" transform="translate(158.000000, 2.000000)">
                        <g id="Layer0_0_MEMBER_1_MEMBER_0_MEMBER_2_MEMBER_0_MEMBER_0_MEMBER_1_MEMBER_0_FILL" transform="translate(0.000000, 26.110865)" fill="#99A3AC">
                            <polygon id="路径" points="0 0 0.141342756 18.0221729 34.3462898 37.8891353 34.204947 19.8669623"></polygon>
                        </g>
                        <g id="Layer0_0_MEMBER_1_MEMBER_0_MEMBER_2_MEMBER_0_MEMBER_0_MEMBER_1_MEMBER_1_FILL" transform="translate(34.204947, 19.725055)" fill="#ABC0D2">
                            <polygon id="路径" points="0 26.2527716 0.141342756 44.2749446 45.795053 18.0221729 45.6537102 0"></polygon>
                        </g>
                        <g id="Layer0_0_MEMBER_1_MEMBER_0_MEMBER_2_MEMBER_0_MEMBER_0_MEMBER_1_MEMBER_2_FILL" fill="#C9D6E3">
                            <polygon id="路径" points="0 26.1108647 34.204947 45.9778271 79.8586572 19.7250554 45.6537102 0"></polygon>
                        </g>
                        <g id="Layer0_0_MEMBER_1_MEMBER_0_MEMBER_2_MEMBER_0_MEMBER_0_MEMBER_3_MEMBER_0_MEMBER_0_FILL" transform="translate(19.787986, 12.629712)" fill="#4F4E59">
                            <path d="M18.9399293,0 C13.7573616,0 9.28150766,1.04065041 5.51236749,3.12195122 C1.83745583,5.29785661 0,7.89948263 0,10.9268293 C0,13.9541759 1.83745583,16.5084996 5.51236749,18.5898004 C9.28150766,20.7657058 13.7573616,21.8536585 18.9399293,21.8536585 C24.2167256,21.8536585 28.6925795,20.7657058 32.3674912,18.5898004 C36.1366313,16.5084996 38.0212014,13.9541759 38.0212014,10.9268293 C38.0212014,7.89948263 36.1366313,5.29785661 32.3674912,3.12195122 C28.6925795,1.04065041 24.2167256,0 18.9399293,0 Z" id="路径"></path>
                        </g>
                        <g id="Layer0_0_MEMBER_1_MEMBER_0_MEMBER_2_MEMBER_0_MEMBER_0_MEMBER_3_MEMBER_1_MEMBER_0_FILL" transform="translate(24.452297, 15.184035)" fill="#C9D6E3">
                            <polygon id="路径" points="26.8551237 0 0 15.6097561 1.83745583 16.6031042 28.6925795 1.13525499"></polygon>
                        </g>
                        <g id="Layer0_0_MEMBER_1_MEMBER_0_MEMBER_2_MEMBER_0_MEMBER_0_MEMBER_3_MEMBER_2_MEMBER_0_FILL" transform="translate(24.452297, 15.184035)" fill="#C9D6E3">
                            <polygon id="路径" points="1.83745583 0 0 1.13525499 26.8551237 16.6031042 28.6925795 15.6097561"></polygon>
                        </g>
                        <g id="Layer0_0_MEMBER_1_MEMBER_0_MEMBER_2_MEMBER_0_MEMBER_0_MEMBER_3_MEMBER_3_MEMBER_0_FILL" transform="translate(19.787986, 22.066519)" fill="#C9D6E3">
                            <polygon id="路径" points="0 0.638580931 0 2.19955654 37.8798587 2.19955654 37.8798587 0.638580931"></polygon>
                        </g>
                        <g id="Layer0_0_MEMBER_1_MEMBER_0_MEMBER_2_MEMBER_0_MEMBER_0_MEMBER_3_MEMBER_4_MEMBER_0_FILL" transform="translate(37.314488, 12.487805)" fill="#C9D6E3">
                            <polygon id="路径" points="0.141342756 0 0.141342756 21.9955654 2.68551237 21.9955654 2.68551237 0"></polygon>
                        </g>
                    </g>
                    <g id="编组-6">
                        <g id="编组">
                            <polygon id="路径" fill="#008AFF" points="128 38.2462753 127.555911 193.449046 66.3400053 229 66.7840939 73.7972288"></polygon>
                            <polygon id="路径" fill="#02A5FF" points="66.7840939 73.7972288 66.3400053 229 0 190.753725 0.43887468 35.5509535"></polygon>
                            <polygon id="路径" fill="#0061FF" points="128 38.2462753 66.7840939 73.7972288 0.444088604 35.5509535 61.6599947 0"></polygon>
                            <g id="编组-8备份" transform="translate(26.149716, 0.000000)">
                                <g id="Layer0_0_MEMBER_1_MEMBER_0_MEMBER_2_MEMBER_0_MEMBER_0_MEMBER_1_MEMBER_0_FILL" transform="translate(0.000000, 26.098153)" fill="#99A3AC">
                                    <polygon id="路径" points="0 0 0.142015156 18.0133992 34.5096829 37.8706897 34.3676677 19.8572905"></polygon>
                                </g>
                                <g id="Layer0_0_MEMBER_1_MEMBER_0_MEMBER_2_MEMBER_0_MEMBER_0_MEMBER_1_MEMBER_1_FILL" transform="translate(34.367668, 19.715453)" fill="#ABC0D2">
                                    <polygon id="路径" points="0 26.239991 0.142015156 44.2533902 46.0129105 18.0133992 45.8708954 0"></polygon>
                                </g>
                                <g id="Layer0_0_MEMBER_1_MEMBER_0_MEMBER_2_MEMBER_0_MEMBER_0_MEMBER_1_MEMBER_2_FILL" fill="#C9D6E3">
                                    <polygon id="路径" points="0 26.0981532 34.3676677 45.9554436 80.2385631 19.7154527 45.8708954 0"></polygon>
                                </g>
                                <g id="Layer0_0_MEMBER_1_MEMBER_0_MEMBER_2_MEMBER_0_MEMBER_0_MEMBER_3_MEMBER_0_MEMBER_0_FILL" transform="translate(19.882122, 12.623563)" fill="#4F4E59">
                                    <path d="M19.0300309,0 C13.8228085,0 9.3256619,1.04014379 5.53859108,3.12043136 C1.84619703,5.29527746 0,7.89563692 0,10.9215098 C0,13.9473826 1.84619703,16.5004628 5.53859108,18.5807504 C9.3256619,20.7555965 13.8228085,21.8430195 19.0300309,21.8430195 C24.33193,21.8430195 28.8290766,20.7555965 32.5214707,18.5807504 C36.3085415,16.5004628 38.2020769,13.9473826 38.2020769,10.9215098 C38.2020769,7.89563692 36.3085415,5.29527746 32.5214707,3.12043136 C28.8290766,1.04014379 24.33193,0 19.0300309,0 Z" id="路径"></path>
                                </g>
                                <g id="Layer0_0_MEMBER_1_MEMBER_0_MEMBER_2_MEMBER_0_MEMBER_0_MEMBER_3_MEMBER_1_MEMBER_0_FILL" transform="translate(24.568622, 15.176643)" fill="#C9D6E3">
                                    <polygon id="路径" points="26.9828796 0 0 15.6021568 1.84619703 16.5950213 28.8290766 1.13470231"></polygon>
                                </g>
                                <g id="Layer0_0_MEMBER_1_MEMBER_0_MEMBER_2_MEMBER_0_MEMBER_0_MEMBER_3_MEMBER_2_MEMBER_0_FILL" transform="translate(24.568622, 15.176643)" fill="#C9D6E3">
                                    <polygon id="路径" points="1.84619703 0 0 1.13470231 26.9828796 16.5950213 28.8290766 15.6021568"></polygon>
                                </g>
                                <g id="Layer0_0_MEMBER_1_MEMBER_0_MEMBER_2_MEMBER_0_MEMBER_0_MEMBER_3_MEMBER_3_MEMBER_0_FILL" transform="translate(19.882122, 22.055776)" fill="#C9D6E3">
                                    <polygon id="路径" points="0 0.638270051 0 2.19848573 38.0600618 2.19848573 38.0600618 0.638270051"></polygon>
                                </g>
                                <g id="Layer0_0_MEMBER_1_MEMBER_0_MEMBER_2_MEMBER_0_MEMBER_0_MEMBER_3_MEMBER_4_MEMBER_0_FILL" transform="translate(37.492001, 12.481725)" fill="#C9D6E3">
                                    <polygon id="路径" points="0.142015156 0 0.142015156 21.9848573 2.69828796 21.9848573 2.69828796 0"></polygon>
                                </g>
                            </g>
                        </g>
                        <g id="编组" transform="translate(74.709367, 58.785310)" fill="#FFFFFF">
                            <polygon id="路径" points="0.102481986 66.2912694 0.0683213237 56.0899881 8.98425407 50.9381704 9.01841473 61.1735697"></polygon>
                            <polygon id="路径" points="0.0683213237 51.7228844 0.0341606619 41.5216031 8.95009341 36.4039035 8.98425407 46.6051847"></polygon>
                            <polygon id="路径" points="0.0341606619 37.4615614 0 27.2261621 8.91593275 22.1084625 8.95009341 32.3097437"></polygon>
                            <polygon id="路径" points="12.8444089 44.3533969 12.8102482 34.1521156 21.7261809 29.034416 21.7603416 39.2356973"></polygon>
                            <polygon id="路径" points="12.8102482 30.0920739 12.7760875 19.8566746 21.6920203 14.738975 21.7261809 24.9402563"></polygon>
                            <polygon id="路径" points="25.6204964 36.9839094 25.5863357 26.7826281 34.5022685 21.6649285 34.5364291 31.8662098"></polygon>
                            <polygon id="路径" points="25.5863357 22.7225864 25.5521751 12.4871871 34.4681078 7.36948749 34.5022685 17.5707688"></polygon>
                            <polygon id="路径" points="38.3965839 29.6144219 38.3965839 19.4131406 47.278356 14.295441 47.3125167 24.4967223"></polygon>
                            <polygon id="路径" points="38.3624233 15.3530989 38.3282626 5.11769964 47.2441954 0 47.278356 10.2012813"></polygon>
                            <polygon id="路径" points="12.8785695 58.9217819 12.8444089 48.7205006 21.7603416 43.568683 21.7945023 53.8040822"></polygon>
                            <g transform="translate(0.204964, 94.063319)">
                                <polygon id="路径" points="0.0341606619 15.3530989 0 5.11769964 8.91593275 0 8.91593275 10.2012813"></polygon>
                                <g id="SVGID_19_-link">
                                    <polygon id="SVGID_19_" points="0.0341606619 15.3530989 0 5.11769964 8.91593275 0 8.91593275 10.2012813"></polygon>
                                </g>
                            </g>
                            <polygon id="路径" points="0.204963971 95.1209774 0.170803309 84.9196961 9.05257539 79.7678784 9.08673606 90.0032777"></polygon>
                            <polygon id="路径" points="0.136642647 80.5867104 0.136642647 70.3513111 9.01841473 65.2336114 9.05257539 75.4348927"></polygon>
                            <polygon id="路径" points="12.9810515 87.7514899 12.9468908 77.5502086 21.8628236 72.3983909 21.8628236 82.6337902"></polygon>
                            <polygon id="路径" points="12.9468908 73.2172229 12.9127302 62.9818236 21.7945023 57.864124 21.8286629 68.0654052"></polygon>
                            <polygon id="路径" points="25.7229784 65.8477354 25.6888177 55.6123361 34.6047505 50.4946365 34.6047505 60.6959178"></polygon>
                            <polygon id="路径" points="25.6546571 51.5522944 25.6546571 41.3510131 34.5364291 36.1991955 34.5705898 46.4345948"></polygon>
                            <polygon id="路径" points="38.4990659 58.4782479 38.4649053 48.2428486 47.380838 43.125149 47.4149987 53.3264303"></polygon>
                            <polygon id="路径" points="38.4649053 44.1828069 38.4307446 33.9815256 47.3125167 28.829708 47.3466773 39.0651073"></polygon>
                            <polygon id="路径" points="13.0152122 102.046931 12.9810515 91.8115316 21.8969843 86.6938319 21.9311449 96.8951132"></polygon>
                            <polygon id="路径" points="25.757139 80.3820024 25.7229784 70.1807211 34.6389111 65.0289035 34.6730718 75.2643027"></polygon>
                            <g transform="translate(38.635709, 101.671633)">
                                <polygon id="路径" points="0.0341606619 15.3530989 0 5.15181764 8.91593275 0 8.91593275 10.2012813"></polygon>
                                <g id="SVGID_21_-link">
                                    <polygon id="SVGID_21_" points="0.0341606619 15.3530989 0 5.15181764 8.91593275 0 8.91593275 10.2012813"></polygon>
                                </g>
                            </g>
                            <g transform="translate(38.601548, 86.830304)">
                                <polygon id="路径" points="0 15.3530989 0 5.11769964 8.88177208 0 8.91593275 10.2012813"></polygon>
                                <g id="SVGID_23_-link">
                                    <polygon id="SVGID_23_" points="0 15.3530989 0 5.11769964 8.88177208 0 8.91593275 10.2012813"></polygon>
                                </g>
                            </g>
                            <polygon id="路径" points="38.5673872 87.3079559 38.5332266 77.0725566 47.4491593 71.954857 47.48332 82.1561383"></polygon>
                            <polygon id="路径" points="38.5332266 73.0125149 38.4990659 62.8112336 47.4149987 57.659416 47.4491593 67.8948153"></polygon>
                            <g transform="translate(25.791300, 94.199791)">
                                <polygon id="路径" points="0.0341606619 15.3530989 0 5.11769964 8.91593275 0 8.95009341 10.2012813"></polygon>
                                <g id="SVGID_25_-link">
                                    <polygon id="SVGID_25_" points="0.0341606619 15.3530989 0 5.11769964 8.91593275 0 8.95009341 10.2012813"></polygon>
                                </g>
                            </g>
                            <g transform="translate(25.757139, 79.324344)">
                                <polygon id="路径" points="0.0341606619 15.3530989 0 5.11769964 8.91593275 0 8.95009341 10.2012813"></polygon>
                                <g id="SVGID_27_-link">
                                    <polygon id="SVGID_27_" points="0.0341606619 15.3530989 0 5.11769964 8.91593275 0 8.95009341 10.2012813"></polygon>
                                </g>
                            </g>
                            <polygon id="路径" points="0.307445957 139.133194 0.273285295 128.931913 9.18921804 123.780095 9.2233787 134.015495"></polygon>
                            <g transform="translate(0.239125, 108.938766)">
                                <polygon id="路径" points="0.0341606619 15.3530989 0 5.11769964 8.91593275 0 8.95009341 10.2012813"></polygon>
                                <g id="SVGID_29_-link">
                                    <polygon id="SVGID_29_" points="0.0341606619 15.3530989 0 5.11769964 8.91593275 0 8.95009341 10.2012813"></polygon>
                                </g>
                            </g>
                            <g transform="translate(13.015212, 101.569279)">
                                <polygon id="路径" points="0.0341606619 15.3530989 0 5.11769964 8.91593275 0 8.95009341 10.2012813"></polygon>
                                <g id="SVGID_31_-link">
                                    <polygon id="SVGID_31_" points="0.0341606619 15.3530989 0 5.11769964 8.91593275 0 8.95009341 10.2012813"></polygon>
                                </g>
                            </g>
                            <g transform="translate(13.083533, 116.410608)">
                                <polygon id="路径" points="0 15.3530989 0 5.15181764 8.88177208 0 8.91593275 10.2353993"></polygon>
                                <g id="SVGID_33_-link">
                                    <polygon id="SVGID_33_" points="0 15.3530989 0 5.15181764 8.88177208 0 8.91593275 10.2353993"></polygon>
                                </g>
                            </g>
                            <polygon id="路径" points="25.8937817 124.394219 25.859621 114.192938 34.7413931 109.04112 34.7755538 119.27652"></polygon>
                            <polygon id="路径" points="0.37576728 154.998063 0.341606619 144.796782 9.2233787 139.644964 9.25753936 149.846246"></polygon>
                            <polygon id="路径" points="13.1518548 147.628576 13.1176942 137.427294 22.0336269 132.275477 22.0336269 142.476758"></polygon>
                            <polygon id="路径" points="25.9279424 140.259088 25.8937817 130.057807 34.8097144 124.905989 34.8438751 135.107271"></polygon>
                            <polygon id="路径" points="38.7040299 132.889601 38.6698692 122.654201 47.585802 117.536502 47.6199626 127.737783"></polygon>
                        </g>
                    </g>
                </g>
            </g>
        </g>
    </g>
</svg>