<?xml version="1.0" encoding="UTF-8"?>
<svg width="293px" height="293px" viewBox="0 0 293 293" version="1.1" xmlns="http://www.w3.org/2000/svg" xmlns:xlink="http://www.w3.org/1999/xlink">
    <title>门诊急症类</title>
    <defs>
        <linearGradient x1="50%" y1="8.57932762%" x2="50%" y2="88.8608289%" id="linearGradient-1">
            <stop stop-color="#2D7DFF" offset="0%"></stop>
            <stop stop-color="#00A7FF" offset="100%"></stop>
        </linearGradient>
        <linearGradient x1="50%" y1="8.57932762%" x2="50%" y2="88.8608289%" id="linearGradient-2">
            <stop stop-color="#0086FF" offset="0%"></stop>
            <stop stop-color="#008DFF" offset="100%"></stop>
        </linearGradient>
        <linearGradient x1="50%" y1="15.8973825%" x2="50%" y2="100%" id="linearGradient-3">
            <stop stop-color="#0063FF" offset="0%"></stop>
            <stop stop-color="#00A2FF" offset="100%"></stop>
        </linearGradient>
        <linearGradient x1="50%" y1="15.8973825%" x2="50%" y2="100%" id="linearGradient-4">
            <stop stop-color="#FFFFFF" offset="0%"></stop>
            <stop stop-color="#00A2FF" offset="100%"></stop>
        </linearGradient>
        <linearGradient x1="50%" y1="28.05591%" x2="20.2070385%" y2="59.7550578%" id="linearGradient-5">
            <stop stop-color="#00D4FF" offset="0%"></stop>
            <stop stop-color="#00CBFF" offset="61.0992219%"></stop>
            <stop stop-color="#0049FF" offset="100%"></stop>
        </linearGradient>
        <linearGradient x1="50%" y1="8.57932762%" x2="50%" y2="88.8608289%" id="linearGradient-6">
            <stop stop-color="#0086FF" offset="0%"></stop>
            <stop stop-color="#008DFF" offset="100%"></stop>
        </linearGradient>
        <linearGradient x1="50%" y1="14.4673986%" x2="50%" y2="100%" id="linearGradient-7">
            <stop stop-color="#056FFF" offset="0%"></stop>
            <stop stop-color="#0FA2FC" offset="100%"></stop>
        </linearGradient>
        <linearGradient x1="50%" y1="0%" x2="50%" y2="99.4591346%" id="linearGradient-8">
            <stop stop-color="#00D6FF" offset="0%"></stop>
            <stop stop-color="#0F9FFC" offset="100%"></stop>
        </linearGradient>
        <linearGradient x1="50%" y1="0%" x2="50%" y2="100%" id="linearGradient-9">
            <stop stop-color="#00D6FF" offset="0%"></stop>
            <stop stop-color="#0F9FFC" offset="99.4591346%"></stop>
        </linearGradient>
        <linearGradient x1="50%" y1="8.57932762%" x2="50%" y2="88.8608289%" id="linearGradient-10">
            <stop stop-color="#2D7DFF" offset="0%"></stop>
            <stop stop-color="#00A7FF" offset="100%"></stop>
        </linearGradient>
        <linearGradient x1="50%" y1="8.57932762%" x2="50%" y2="88.8608289%" id="linearGradient-11">
            <stop stop-color="#0086FF" offset="0%"></stop>
            <stop stop-color="#008DFF" offset="100%"></stop>
        </linearGradient>
    </defs>
    <g id="页面-1" stroke="none" stroke-width="1" fill="none" fill-rule="evenodd">
        <g id="画板" transform="translate(-595.000000, -148.000000)">
            <g id="门诊急症类" transform="translate(595.000000, 148.000000)">
                <rect id="矩形" fill="#FFFFFF" opacity="0" x="0" y="0" width="293" height="293"></rect>
                <g id="编组-12" transform="translate(42.477112, 9.823010)">
                    <g id="编组-2备份" transform="translate(0.000000, 85.927135)">
                        <polygon id="路径-8备份-11" fill="#1152FE" points="4.54747351e-13 27.0890041 39.7058901 49.8073826 39.7058901 59.0289934 4.54747351e-13 35.6890046"></polygon>
                        <polygon id="路径-8备份-12" fill="url(#linearGradient-1)" points="0 35.5890041 39.8806033 58.7204272 40.5622591 121.743249 0 97.1890046"></polygon>
                        <polygon id="路径-8备份-13" fill="url(#linearGradient-2)" transform="translate(59.820905, 78.666127) scale(-1, 1) translate(-59.820905, -78.666127) " points="40.2300297 35.5890041 79.7612066 58.7204272 79.0795508 121.743249 39.8806033 99.3792255"></polygon>
                        <polygon id="路径-8备份-15" fill="#0063FF" transform="translate(59.558835, 43.058999) scale(-1, 1) translate(-59.558835, -43.058999) " points="39.7058901 27.0890041 79.4117802 49.8073826 79.4117802 59.0289934 39.7058901 35.6890046"></polygon>
                        <path d="M25.2605982,96.4229425 L30.2605982,99.4229425 L30.2605982,107.422943 L25.2605982,104.422943 L25.2605982,96.4229425 Z M14.6972099,90.9229425 L19.6972099,93.9229425 L19.6972099,101.922943 L14.6972099,98.9229425 L14.6972099,90.9229425 Z M5.00755096,86.3975704 L10.007551,89.3975704 L10.007551,97.3975704 L5.00755096,94.3975704 L5.00755096,86.3975704 Z M25.2605982,83.8554374 L30.2605982,86.8554374 L30.2605982,94.8554374 L25.2605982,91.8554374 L25.2605982,83.8554374 Z M14.6972099,78.3554374 L19.6972099,81.3554374 L19.6972099,89.3554374 L14.6972099,86.3554374 L14.6972099,78.3554374 Z M5.00755096,73.8300652 L10.007551,76.8300652 L10.007551,84.8300652 L5.00755096,81.8300652 L5.00755096,73.8300652 Z M25.2605982,71.2879323 L30.2605982,74.2879323 L30.2605982,82.2879323 L25.2605982,79.2879323 L25.2605982,71.2879323 Z M14.6972099,65.7879323 L19.6972099,68.7879323 L19.6972099,76.7879323 L14.6972099,73.7879323 L14.6972099,65.7879323 Z M5.00755096,61.2625601 L10.007551,64.2625601 L10.007551,72.2625601 L5.00755096,69.2625601 L5.00755096,61.2625601 Z M25.2605982,58.7204272 L30.2605982,61.7204272 L30.2605982,69.7204272 L25.2605982,66.7204272 L25.2605982,58.7204272 Z M14.6972099,53.2204272 L19.6972099,56.2204272 L19.6972099,64.2204272 L14.6972099,61.2204272 L14.6972099,53.2204272 Z M5.00755096,48.695055 L10.007551,51.695055 L10.007551,59.695055 L5.00755096,56.695055 L5.00755096,48.695055 Z" id="形状结合备份-2" fill="#FFFFFF"></path>
                        <polygon id="矩形备份-76" fill="#00CCFF" points="38.9358852 3.58900413 79.7612066 27.2847921 39.8806033 50.5890041 4.54747351e-13 27.2847921"></polygon>
                        <path d="M38.9540421,1.7448955 L76.7806305,23.7001622 L39.8806033,45.2626759 L2.92829998,23.6696146 L38.9540421,1.7448955 Z" id="矩形备份-77" stroke="#ECF5F5" stroke-width="3"></path>
                        <polygon id="矩形备份-76" fill="#81E6FF" points="39.8806033 46.0768995 79.7612066 23.5 79.7612066 27.2847921 39.8806033 50.5890041 4.54747351e-13 27.2847921 4.54747351e-13 23.5"></polygon>
                        <polygon id="矩形备份-78" fill="#81E6FF" transform="translate(39.488904, 14.610431) scale(1, -1) translate(-39.488904, -14.610431) " points="39.3894392 22.3354826 70.66608 3.58900413 73.970258 5.72086287 38.9358852 25.6318587 5.00755096 5.72086287 8.48600694 4.33898078"></polygon>
                    </g>
                    <g id="编组-11" transform="translate(40.129460, 0.000000)">
                        <polygon id="矩形" fill="url(#linearGradient-3)" points="1.08078364 175.955884 67.5807836 211.955884 66.3350617 254.187808 1.08078364 219.476191"></polygon>
                        <polygon id="矩形" fill="url(#linearGradient-4)" points="18.1205396 185.685666 42.8856415 200.057441 42.8856415 241.38756 18.1205396 228.877194"></polygon>
                        <polygon id="路径-10备份-2" fill="#0090FF" points="66.3350617 210.957063 66.3350617 254.187808 133.295487 215.071846 133.410403 170.650077"></polygon>
                        <polygon id="矩形" fill="#004AFE" points="51.970949 163.320986 133.295487 163.320986 133.295487 174.082877 65.1320345 212.941742"></polygon>
                        <path d="M133.295487,163.800904 L77.3252272,194.227723 C72.9882664,196.777948 70.3023895,198.847156 69.2675966,200.435348 C64.7800661,207.322776 65.1320345,212.941742 65.1320345,212.941742 C65.1320345,212.941742 43.4213564,201.103304 0,177.426427 C0.262818855,169.035313 2.62171182,163.706328 7.0766789,161.439473 C11.531646,159.172618 30.2110427,147.881392 63.1148692,127.565796 L133.295487,163.800904 Z" id="路径-11" fill="url(#linearGradient-5)"></path>
                        <polygon id="路径-8" fill="#1152FE" points="29.8705396 25.3161386 69.5764297 48.0345171 69.5764297 57.2561279 29.8705396 33.9161391"></polygon>
                        <polygon id="路径-8备份-2" fill="url(#linearGradient-1)" points="29.8705396 33.8161386 69.5764297 56.5345171 70.4327987 119.970384 29.8705396 95.4161391"></polygon>
                        <polygon id="路径-8备份-4" fill="url(#linearGradient-6)" transform="translate(89.429375, 111.315670) scale(-1, 1) translate(-89.429375, -111.315670) " points="69.5764297 33.8161386 109.28232 56.5345171 108.425951 188.815202 69.5764297 165.416139"></polygon>
                        <polygon id="路径-8备份-3" fill="url(#linearGradient-7)" points="24.5764297 97.6703836 70.4327987 122.27706 70.4327987 189.670384 24.5764297 164.39043"></polygon>
                        <polygon id="路径-8备份" fill="#0063FF" transform="translate(89.429375, 41.286133) scale(-1, 1) translate(-89.429375, -41.286133) " points="69.5764297 25.3161386 109.28232 48.0345171 109.28232 57.2561279 69.5764297 33.9161391"></polygon>
                        <polygon id="路径-9" fill="#00ABFF" points="30.0155049 95.0833165 24.1280834 97.7631084 70.2900607 124.186677 109.28232 103.901093 109.28232 97.6703836 70.2900607 118.239891"></polygon>
                        <path d="M34.393428,65.5731401 C34.393428,63.849322 35.0298629,62.6610263 36.3027327,62.0082532 C36.5754905,61.8878148 36.8482483,61.6766491 37.0300868,61.5056295 C38.7575529,60.2892166 40.7577769,59.4967289 42.8489201,58.8455496 C43.485355,58.6552539 44.0308706,58.4143771 44.6673055,58.3148087 C45.5764982,58.0948019 46.6675294,58.2481392 47.9403992,58.7748205 C50.1224617,59.7165859 52.0317664,61.4138807 53.6683132,63.8667047 C54.3047481,64.7651363 54.941183,65.6635678 55.6685372,66.6125805 C57.7596804,69.5904921 59.668985,72.5579686 61.3055319,75.6458835 C61.5782897,76.160536 61.9419668,76.7257696 62.2147246,77.3311494 C63.2148366,79.3391782 63.5785136,81.2653209 63.3057558,82.8373956 C63.1239173,84.1878697 62.4874824,85.0132563 61.4873704,85.545591 L59.8508236,86.5404033 C58.6688731,87.2437576 57.4869226,87.8563846 56.1231335,88.2771221 C55.3957794,88.5075639 54.6684252,88.6472785 53.941071,88.8777203 C53.4864747,88.9877237 53.1227976,89.1483082 52.6682013,89.1675844 C51.1225737,89.305705 49.4860268,88.7581537 47.6676414,87.4743492 C46.2129331,86.4835965 45.0309826,85.1909508 43.9399513,83.5859772 C43.6671935,83.162052 43.3944357,82.8288541 43.0307586,82.3543477 C41.2123732,79.8910887 39.4849071,77.2969562 37.9392795,74.6225315 C37.3937639,73.5932265 36.757329,72.6040677 36.2118134,71.5747627 C36.1208941,71.2519998 35.757217,70.5960389 35.4844592,69.9906591 C34.7571051,68.4972828 34.393428,67.0247765 34.393428,65.5731401 Z M46.4856909,74.931522 L46.4856909,80.64734 C46.4856909,81.2824309 46.849368,81.8476645 47.4858029,82.2017325 L50.3952195,83.8203288 C50.577058,83.9214911 50.7588966,83.9319261 50.8498159,83.8917799 C51.2134929,83.7311954 51.3953315,83.3787213 51.3953315,82.8343577 L51.3953315,77.8443578 C51.3953315,77.6629033 51.3953315,77.6629033 51.57717,77.7640655 L57.305084,80.950677 C57.7596804,81.2035827 58.1233575,81.0429982 58.2142767,80.639943 L58.2142767,77.645943 C58.2142767,77.4644885 58.1233575,77.2324528 58.0324382,77.0004171 C57.8505996,76.627073 57.4869226,76.3340212 57.1232455,76.1316967 L51.3953315,72.9450852 L51.3953315,72.7636306 L51.3953315,67.2292671 C51.3953315,66.503449 51.0316544,65.9382153 50.3043002,65.5335663 L47.5767221,64.0161322 C47.3948836,63.9149699 47.2130451,63.8138077 47.0312065,63.8033727 C46.6675294,63.7825027 46.4856909,64.0442495 46.4856909,64.4071586 L46.4856909,70.1229766 L40.7577769,66.9363651 C40.121342,66.5822972 39.7576649,66.7428817 39.7576649,67.3779726 L39.7576649,70.190518 C39.7576649,70.4626998 39.8485842,70.6947355 39.9395035,70.9267711 C40.121342,71.3001152 40.4850191,71.593167 40.8486962,71.7954916 L46.4856909,74.931522 Z" id="形状" fill="#FFFFFF" fill-rule="nonzero"></path>
                        <polygon id="矩形" fill="url(#linearGradient-8)" points="28.3705396 105.650077 31.3705396 107.528686 31.3705396 165.650077 28.3705396 165.650077"></polygon>
                        <polygon id="矩形备份-63" fill="url(#linearGradient-9)" points="34.8780905 109.634997 37.8780905 111.513606 37.8780905 169.634997 34.8780905 169.634997"></polygon>
                        <polygon id="矩形备份-64" fill="url(#linearGradient-9)" points="41.3856415 113.670384 44.3856415 115.548993 44.3856415 173.670384 41.3856415 173.670384"></polygon>
                        <polygon id="矩形备份-65" fill="url(#linearGradient-9)" points="47.8931925 117.070384 50.8931925 118.948993 50.8931925 177.070384 47.8931925 177.070384"></polygon>
                        <polygon id="矩形备份-66" fill="url(#linearGradient-9)" points="54.4007434 119.970384 57.4007434 121.848993 57.4007434 179.970384 54.4007434 179.970384"></polygon>
                        <polygon id="矩形备份-67" fill="url(#linearGradient-9)" points="60.9082944 124.186677 63.9082944 126.065287 63.9082944 184.186677 60.9082944 184.186677"></polygon>
                        <polygon id="矩形" fill="#00CCFF" points="66.9994461 -2.63279043e-13 99.1067599 18.6356916 67.7424252 36.963426 36.3780905 18.6356916"></polygon>
                        <polygon id="矩形备份-68" fill="#00CCFF" points="68.8064247 1.81613863 109.631746 25.5119266 69.7511429 48.8161386 29.8705396 25.5119266"></polygon>
                        <polygon id="路径-10" fill="#0090FF" points="67.7424252 36.963426 67.7424252 42.3474247 99.1067599 23.4022661 99.1067599 18.5266156"></polygon>
                        <polygon id="路径-10备份" fill="#004FEC" transform="translate(52.060258, 30.437020) scale(-1, 1) translate(-52.060258, -30.437020) " points="36.3780905 36.963426 36.3780905 42.3474247 67.7424252 23.4022661 67.7424252 18.5266156"></polygon>
                        <polygon id="矩形" fill="#00CCFF" points="67.2144631 1.13702013 89.4293747 14.0309746 67.7285272 26.7118548 46.0276796 14.0309746"></polygon>
                        <polygon id="路径-10" fill="#0090FF" points="67.7285272 26.7118548 67.7285272 30.4370201 89.4293747 17.3289469 89.4293747 13.9555054"></polygon>
                        <polygon id="路径-10备份" fill="#004FEC" transform="translate(56.878103, 22.196263) scale(-1, 1) translate(-56.878103, -22.196263) " points="46.0276796 26.7118548 46.0276796 30.4370201 67.7285272 17.3289469 67.7285272 13.9555054"></polygon>
                        <polygon id="路径-3" fill="#B5E2FF" points="18.1205396 228.877194 42.8856415 215.071846 42.8856415 241.38756"></polygon>
                    </g>
                    <g id="编组-2备份-2" transform="translate(128.554053, 143.634997)">
                        <polygon id="路径-8备份-11" fill="#1152FE" points="9.09494702e-13 36.514374 39.7058901 59.2327525 39.7058901 68.4543632 9.09494702e-13 45.1143744"></polygon>
                        <polygon id="路径-8备份-12" fill="url(#linearGradient-10)" points="4.54747351e-13 45.014374 39.7058901 67.7327525 40.5622591 128.910917 4.54747351e-13 106.614374"></polygon>
                        <polygon id="矩形备份-76" fill="#85E7FF" points="38.7653107 13.3352555 79.4117802 36.9272344 39.7058901 60.1293529 0 36.9272344"></polygon>
                        <polygon id="路径-8备份-13" fill="url(#linearGradient-11)" transform="translate(59.558835, 86.962645) scale(-1, 1) translate(-59.558835, -86.962645) " points="39.7058901 45.014374 79.4117802 67.7327525 78.5554112 128.910917 39.7058901 107.614374"></polygon>
                        <polygon id="路径-8备份-15" fill="#0063FF" transform="translate(59.558835, 52.484369) scale(-1, 1) translate(-59.558835, -52.484369) " points="39.7058901 36.514374 79.4117802 59.2327525 79.4117802 68.4543632 39.7058901 45.1143744"></polygon>
                        <path d="M27.4794687,104.248312 L32.4794687,107.248312 L32.4794687,115.248312 L27.4794687,112.248312 L27.4794687,104.248312 Z M16.9160804,98.7483124 L21.9160804,101.748312 L21.9160804,109.748312 L16.9160804,106.748312 L16.9160804,98.7483124 Z M7.22642142,94.2229402 L12.2264214,97.2229402 L12.2264214,105.22294 L7.22642142,102.22294 L7.22642142,94.2229402 Z M27.4794687,91.6808072 L32.4794687,94.6808072 L32.4794687,102.680807 L27.4794687,99.6808072 L27.4794687,91.6808072 Z M16.9160804,86.1808072 L21.9160804,89.1808072 L21.9160804,97.1808072 L16.9160804,94.1808072 L16.9160804,86.1808072 Z M7.22642142,81.6554351 L12.2264214,84.6554351 L12.2264214,92.6554351 L7.22642142,89.6554351 L7.22642142,81.6554351 Z M27.4794687,79.1133021 L32.4794687,82.1133021 L32.4794687,90.1133021 L27.4794687,87.1133021 L27.4794687,79.1133021 Z M16.9160804,73.6133021 L21.9160804,76.6133021 L21.9160804,84.6133021 L16.9160804,81.6133021 L16.9160804,73.6133021 Z M7.22642142,69.08793 L12.2264214,72.08793 L12.2264214,80.08793 L7.22642142,77.08793 L7.22642142,69.08793 Z M27.4794687,66.545797 L32.4794687,69.545797 L32.4794687,77.545797 L27.4794687,74.545797 L27.4794687,66.545797 Z M16.9160804,61.045797 L21.9160804,64.045797 L21.9160804,72.045797 L16.9160804,69.045797 L16.9160804,61.045797 Z M7.22642142,56.5204249 L12.2264214,59.5204249 L12.2264214,67.5204249 L7.22642142,64.5204249 L7.22642142,56.5204249 Z" id="形状结合备份-2" fill="#FFFFFF"></path>
                        <polygon id="矩形备份-4" fill="#00CCFF" points="37.1289065 11.1982353 69.2362203 29.8339269 37.8718856 48.1616614 6.50755096 29.8339269"></polygon>
                        <polygon id="路径-10备份-8" fill="#0090FF" points="37.8718856 48.1616614 37.8718856 53.54566 69.2362203 34.6005015 69.2362203 29.7248509"></polygon>
                        <polygon id="路径-10备份-9" fill="#004FEC" transform="translate(22.189718, 41.635255) scale(-1, 1) translate(-22.189718, -41.635255) " points="6.50755096 48.1616614 6.50755096 53.54566 37.8718856 34.6005015 37.8718856 29.7248509"></polygon>
                        <polygon id="矩形备份-5" fill="#00CCFF" points="37.3439236 12.3352555 59.5588351 25.2292099 37.8579876 37.9100901 16.1571401 25.2292099"></polygon>
                        <polygon id="路径-10备份-10" fill="#FFFFFF" points="37.8579876 37.9100901 37.8579876 41.6352555 59.5588351 28.5271822 59.5588351 25.1537407"></polygon>
                        <polygon id="路径-10备份-11" fill="#FFFFFF" transform="translate(27.007564, 33.394498) scale(-1, 1) translate(-27.007564, -33.394498) " points="16.1571401 37.9100901 16.1571401 41.6352555 37.8579876 28.5271822 37.8579876 25.1537407"></polygon>
                        <polygon id="矩形备份-76" fill="#85E7FF" points="37.1745745 -2.42171476e-13 66.7077857 17.1416338 37.8579876 34 9.00818948 17.1416338"></polygon>
                        <polygon id="路径-10备份-12" fill="#004FEC" points="38.0046401 33.9000333 38.0046401 38.8352555 66.7546401 21.4692468 66.7546401 17"></polygon>
                        <polygon id="路径-10备份-13" fill="#004FEC" transform="translate(23.629640, 27.917628) scale(-1, 1) translate(-23.629640, -27.917628) " points="9.25464013 33.9000333 9.25464013 38.8352555 38.0046401 21.4692468 38.0046401 17"></polygon>
                    </g>
                </g>
            </g>
        </g>
    </g>
</svg>