<?xml version="1.0" encoding="UTF-8"?>
<svg width="293px" height="293px" viewBox="0 0 293 293" version="1.1" xmlns="http://www.w3.org/2000/svg" xmlns:xlink="http://www.w3.org/1999/xlink">
    <title>污水处理站</title>
    <defs>
        <path d="M40.8383596,84.0528873 C40.8383596,90.6803043 35.4657766,96.0528873 28.8383596,96.0528873 L12,96.0528873 C5.372583,96.0528873 8.11624501e-16,90.6803043 0,84.0528873 L0,20.4191798 C2.17165479e-15,9.1419782 9.1419782,2.07158833e-15 20.4191798,0 C31.6963814,-2.07158833e-15 40.8383596,9.1419782 40.8383596,20.4191798 L40.8383596,84.0528873 Z" id="path-1"></path>
        <path d="M40.8383596,84.0528873 C40.8383596,90.6803043 35.4657766,96.0528873 28.8383596,96.0528873 L12,96.0528873 C5.372583,96.0528873 8.11624501e-16,90.6803043 0,84.0528873 L0,20.4191798 C-1.38105889e-15,9.1419782 9.1419782,2.07158833e-15 20.4191798,0 C31.6963814,-2.07158833e-15 40.8383596,9.1419782 40.8383596,20.4191798 L40.8383596,84.0528873 Z" id="path-3"></path>
        <path d="M20.4191798,0 C31.6963814,-2.07158833e-15 40.8383596,9.1419782 40.8383596,20.4191798 L40.8383596,71.6490766 C40.8383596,72.5822691 40.7757588,73.5008405 40.6545275,74.4008204 C40.7756605,75.2676327 40.8383596,76.1538321 40.8383596,77.0546757 C40.8383596,87.5470982 32.3325706,96.0528873 21.840148,96.0528873 L18.9982116,96.0528873 C8.50578907,96.0528873 1.28495117e-15,87.5470982 0,77.0546757 C-1.10321522e-16,76.1538321 0.0626991781,75.2676327 0.183971696,74.4002033 C0.0626008242,73.5008405 -1.87632661e-15,72.5822691 0,71.6490766 L0,20.4191798 C-1.38105889e-15,9.1419782 9.1419782,2.07158833e-15 20.4191798,0 Z" id="path-5"></path>
    </defs>
    <g id="页面-1" stroke="none" stroke-width="1" fill="none" fill-rule="evenodd">
        <g id="画板" transform="translate(-979.000000, -726.000000)">
            <g id="污水处理站" transform="translate(979.000000, 726.000000)">
                <g id="编组-15备份" fill="#D7D7D7" opacity="0">
                    <g id="编组-14备份">
                        <rect id="矩形" x="0" y="0" width="293" height="293"></rect>
                    </g>
                </g>
                <g id="编组-16" transform="translate(14.903780, 23.000000)">
                    <g id="编组-5" transform="translate(88.096220, 0.000000)">
                        <g id="编组-3备份-2" transform="translate(32.179215, 7.946194)">
                            <path d="M22.6069491,103.844128 C35.0924223,103.844128 45.2138982,95.7797321 45.2138982,88.5157473 C45.2138982,81.2517624 35.0924223,75.3631392 22.6069491,75.3631392 C10.1214759,75.3631392 0,81.2517624 0,88.5157473 C0,95.7797321 10.1214759,103.844128 22.6069491,103.844128 Z" id="椭圆形备份" fill="#0A86EA"></path>
                            <path d="M22.6069491,100.792828 C35.0924223,100.792828 45.2138982,92.7284325 45.2138982,85.4644477 C45.2138982,78.2004628 35.0924223,72.3118396 22.6069491,72.3118396 C10.1214759,72.3118396 0,78.2004628 0,85.4644477 C0,92.7284325 10.1214759,100.792828 22.6069491,100.792828 Z" id="椭圆形" fill="#60B8FF"></path>
                            <g id="矩形" transform="translate(2.187769, 0.000000)">
                                <mask id="mask-2" fill="white">
                                    <use xlink:href="#path-1"></use>
                                </mask>
                                <use id="蒙版" fill="#2387FF" xlink:href="#path-1"></use>
                                <path d="M13.855872,43.5695052 C18.3529533,44.8977155 22.8500346,45.5618207 27.3471158,45.5618207 C31.8441971,45.5618207 36.3412784,43.2106715 40.8383596,38.5083732 L40.8383596,100.792828 L13.855872,100.792828 L13.855872,43.5695052 Z" fill="#1152FE" mask="url(#mask-2)"></path>
                            </g>
                            <ellipse id="椭圆形" fill="#F6F6F6" transform="translate(32.700968, 17.087559) rotate(34.000000) translate(-32.700968, -17.087559) " cx="32.7009683" cy="17.0875595" rx="3.94041761" ry="5.33081487"></ellipse>
                            <ellipse id="椭圆形" fill="#D8D8D8" transform="translate(35.971637, 80.557271) rotate(-169.000000) translate(-35.971637, -80.557271) " cx="35.9716371" cy="80.5572705" rx="3.84136793" ry="5.12824517"></ellipse>
                            <ellipse id="椭圆形备份-4" fill="#FFFFFF" transform="translate(37.133599, 80.783580) rotate(-169.000000) translate(-37.133599, -80.783580) " cx="37.1335988" cy="80.7835802" rx="3.84136793" ry="5.12824517"></ellipse>
                            <ellipse id="椭圆形备份-3" fill="#D8D8D8" cx="47.7195953" cy="100.947471" rx="4.69346641" ry="2.8966563"></ellipse>
                            <ellipse id="椭圆形备份-2" fill="#EFEFEF" cx="47.7195953" cy="99.5724902" rx="4.69346641" ry="2.8966563"></ellipse>
                            <polyline id="路径-14" stroke="#27B1EC" stroke-width="3" stroke-linecap="round" stroke-linejoin="round" transform="translate(43.026129, 89.621101) scale(-1, 1) translate(-43.026129, -89.621101) " points="47.7195953 81.1913874 38.3326625 85.7371834 38.3326625 98.0508149"></polyline>
                        </g>
                        <g id="编组-3备份" transform="translate(81.562671, 38.773629)">
                            <path d="M22.6069491,103.844128 C35.0924223,103.844128 45.2138982,95.7797321 45.2138982,88.5157473 C45.2138982,81.2517624 35.0924223,75.3631392 22.6069491,75.3631392 C10.1214759,75.3631392 0,81.2517624 0,88.5157473 C0,95.7797321 10.1214759,103.844128 22.6069491,103.844128 Z" id="椭圆形备份" fill="#0A86EA"></path>
                            <path d="M22.6069491,100.792828 C35.0924223,100.792828 45.2138982,92.7284325 45.2138982,85.4644477 C45.2138982,78.2004628 35.0924223,72.3118396 22.6069491,72.3118396 C10.1214759,72.3118396 0,78.2004628 0,85.4644477 C0,92.7284325 10.1214759,100.792828 22.6069491,100.792828 Z" id="椭圆形" fill="#60B8FF"></path>
                            <g id="矩形" transform="translate(2.187769, 0.000000)">
                                <mask id="mask-4" fill="white">
                                    <use xlink:href="#path-3"></use>
                                </mask>
                                <use id="蒙版" fill="#2387FF" xlink:href="#path-3"></use>
                                <path d="M13.855872,43.5695052 C18.3529533,44.8977155 22.8500346,45.5618207 27.3471158,45.5618207 C31.8441971,45.5618207 36.3412784,43.2106715 40.8383596,38.5083732 L40.8383596,100.792828 L13.855872,100.792828 L13.855872,43.5695052 Z" fill="#1152FE" mask="url(#mask-4)"></path>
                            </g>
                            <ellipse id="椭圆形" fill="#F6F6F6" transform="translate(32.700968, 17.087559) rotate(34.000000) translate(-32.700968, -17.087559) " cx="32.7009683" cy="17.0875595" rx="3.94041761" ry="5.33081487"></ellipse>
                            <ellipse id="椭圆形" fill="#D8D8D8" transform="translate(35.971637, 80.557271) rotate(-169.000000) translate(-35.971637, -80.557271) " cx="35.9716371" cy="80.5572705" rx="3.84136793" ry="5.12824517"></ellipse>
                            <ellipse id="椭圆形备份-4" fill="#FFFFFF" transform="translate(37.133599, 80.783580) rotate(-169.000000) translate(-37.133599, -80.783580) " cx="37.1335988" cy="80.7835802" rx="3.84136793" ry="5.12824517"></ellipse>
                            <ellipse id="椭圆形备份-3" fill="#D8D8D8" cx="47.7195953" cy="100.947471" rx="4.69346641" ry="2.8966563"></ellipse>
                            <ellipse id="椭圆形备份-2" fill="#EFEFEF" cx="47.7195953" cy="99.5724902" rx="4.69346641" ry="2.8966563"></ellipse>
                            <polyline id="路径-14" stroke="#27B1EC" stroke-width="3" stroke-linecap="round" stroke-linejoin="round" transform="translate(43.026129, 89.621101) scale(-1, 1) translate(-43.026129, -89.621101) " points="47.7195953 81.1913874 38.3326625 85.7371834 38.3326625 98.0508149"></polyline>
                        </g>
                        <g id="编组-3" transform="translate(129.586938, 68.783938)">
                            <path d="M22.6069491,103.844128 C35.0924223,103.844128 45.2138982,95.7797321 45.2138982,88.5157473 C45.2138982,81.2517624 35.0924223,75.3631392 22.6069491,75.3631392 C10.1214759,75.3631392 0,81.2517624 0,88.5157473 C0,95.7797321 10.1214759,103.844128 22.6069491,103.844128 Z" id="椭圆形备份" fill="#0A86EA"></path>
                            <path d="M22.6069491,100.792828 C35.0924223,100.792828 45.2138982,92.7284325 45.2138982,85.4644477 C45.2138982,78.2004628 35.0924223,72.3118396 22.6069491,72.3118396 C10.1214759,72.3118396 0,78.2004628 0,85.4644477 C0,92.7284325 10.1214759,100.792828 22.6069491,100.792828 Z" id="椭圆形" fill="#60B8FF"></path>
                            <g id="矩形" transform="translate(2.187769, 0.000000)">
                                <mask id="mask-6" fill="white">
                                    <use xlink:href="#path-5"></use>
                                </mask>
                                <use id="蒙版" fill="#2387FF" xlink:href="#path-5"></use>
                                <path d="M13.855872,43.5695052 C18.3529533,44.8977155 22.8500346,45.5618207 27.3471158,45.5618207 C31.8441971,45.5618207 36.3412784,43.2106715 40.8383596,38.5083732 L40.8383596,100.792828 L13.855872,100.792828 L13.855872,43.5695052 Z" fill="#1152FE" mask="url(#mask-6)"></path>
                            </g>
                            <ellipse id="椭圆形" fill="#F6F6F6" transform="translate(32.700968, 17.087559) rotate(34.000000) translate(-32.700968, -17.087559) " cx="32.7009683" cy="17.0875595" rx="3.94041761" ry="5.33081487"></ellipse>
                            <ellipse id="椭圆形" fill="#D8D8D8" transform="translate(35.971637, 80.557271) rotate(-169.000000) translate(-35.971637, -80.557271) " cx="35.9716371" cy="80.5572705" rx="3.84136793" ry="5.12824517"></ellipse>
                            <ellipse id="椭圆形备份-4" fill="#FFFFFF" transform="translate(37.133599, 80.783580) rotate(-169.000000) translate(-37.133599, -80.783580) " cx="37.1335988" cy="80.7835802" rx="3.84136793" ry="5.12824517"></ellipse>
                            <ellipse id="椭圆形备份-3" fill="#D8D8D8" cx="47.7195953" cy="100.947471" rx="4.69346641" ry="2.8966563"></ellipse>
                            <ellipse id="椭圆形备份-2" fill="#EFEFEF" cx="47.7195953" cy="99.5724902" rx="4.69346641" ry="2.8966563"></ellipse>
                            <polyline id="路径-14" stroke="#27B1EC" stroke-width="3" stroke-linecap="round" stroke-linejoin="round" transform="translate(43.026129, 89.621101) scale(-1, 1) translate(-43.026129, -89.621101) " points="47.7195953 81.1913874 38.3326625 85.7371834 38.3326625 98.0508149"></polyline>
                        </g>
                        <polyline id="路径-5" stroke="#0097EE" stroke-width="3" stroke-linecap="round" stroke-linejoin="round" points="152.031916 72.9109464 152.031916 57.3804367 115.919549 78.9608124 115.919549 155.718933"></polyline>
                        <polyline id="路径-5备份" stroke="#0097EE" stroke-width="3" stroke-linecap="round" stroke-linejoin="round" points="105.208831 43.2971266 105.208831 27.766617 69.0964642 49.3469927 69.0964642 126.105114"></polyline>
                        <polyline id="路径-5备份-2" stroke="#0097EE" stroke-width="3" stroke-linecap="round" stroke-linejoin="round" points="58.3857463 15.5305096 58.3857463 0 22.2733793 21.5803757 22.2733793 98.3384967"></polyline>
                        <polyline id="路径-7" stroke="#0097EE" stroke-width="3" stroke-linecap="round" stroke-linejoin="round" points="133.967288 178 133.967288 162.851797 0 86.3518763 0 100.704081"></polyline>
                        <polyline id="路径-12" stroke="#0097EE" stroke-width="3" stroke-linecap="round" stroke-linejoin="round" points="105.208831 148.494585 105.208831 126.105114 77.5705396 142.543466 77.5705396 162.924843 62.5986332 172.249249"></polyline>
                        <polyline id="路径-13" stroke="#0097EE" stroke-width="3" stroke-linecap="round" stroke-linejoin="round" points="48.3367154 116.804829 48.3367154 96.395746 21.796809 111.808258 21.796809 130.208004 2.68322672e-15 142.099346 0 158.123626"></polyline>
                    </g>
                    <g id="编组-4备份" transform="translate(112.191979, 158.409068) rotate(1.000000) translate(-112.191979, -158.409068) translate(1.513242, 70.736392)" fill-rule="nonzero">
                        <g id="编组-7">
                            <polygon id="路径" fill-opacity="0.196078431" fill="#747D84" points="35.853148 86.6881365 3.15688095 105.704586 44.346661 129.531521 77.042928 110.439907"></polygon>
                            <polygon id="路径" fill="#008BFF" points="83.0560346 124.645872 83.2063622 68.4233253 28.2131081 35.991344 28.0627804 92.1387266"></polygon>
                            <polygon id="路径" fill="#1152FE" points="88.3175028 71.4298786 111.01698 58.2762079 27.8857817 29.8642794 27.8857817 36.4786966"></polygon>
                            <polygon id="路径" fill="#682D14" points="111.01698 58.2762079 88.3175028 71.4298786 88.1671751 127.577261 110.866652 114.423591"></polygon>
                            <polygon id="路径" fill="#461C0A" points="88.3175028 71.4298786 83.2063622 68.4233253 83.0560346 124.645872 88.1671751 127.577261"></polygon>
                            <polygon id="路径" fill="#253237" points="39.1603566 125.698165 44.6473163 125.698165 44.6473163 123.368087 39.1603566 123.368087"></polygon>
                            <path d="M43.8205142,124.270053 C42.4675652,123.518414 41.1647254,123.518414 39.9119949,124.270053 C39.3106842,124.620817 39.0601381,125.021691 39.1603566,125.472674 C39.0601381,125.973766 39.3106842,126.399694 39.9119949,126.750459 C40.4631963,127.051114 41.1146162,127.201442 41.8662545,127.201442 C42.6680021,127.201442 43.3194219,127.051114 43.8205142,126.750459 C44.3717156,126.499913 44.6473163,126.099039 44.6473163,125.547838 C44.7475348,125.096855 44.471934,124.670926 43.8205142,124.270053 Z" id="路径" fill="#253237"></path>
                            <path d="M44.6473163,123.368087 L44.6473163,123.142595 C44.6473163,122.892049 44.4969887,122.641503 44.1963333,122.390957 L43.2192035,121.86481 L42.4675652,121.714482 C41.51549,121.614264 40.7137424,121.714482 40.0623226,122.015138 L39.9119949,122.165465 L39.4610119,122.466121 C39.260575,122.766776 39.1603566,122.967213 39.1603566,123.067431 C39.1102473,123.217759 39.1102473,123.317977 39.1603566,123.368087 C39.1603566,123.718851 39.3858481,124.044561 39.8368311,124.345216 L39.9119949,124.42038 C40.613524,124.721036 41.3902169,124.871363 42.2420737,124.871363 C42.8433843,124.821254 43.3695312,124.670926 43.8205142,124.42038 L43.9708418,124.345216 C44.3717156,124.044561 44.5972071,123.718851 44.6473163,123.368087 M42.4675652,122.541284 L42.8433843,122.691612 C43.0939305,122.84194 43.2192035,122.967213 43.2192035,123.067431 L43.2943673,123.368087 L43.2192035,123.44325 C43.2192035,123.593578 43.0939305,123.718851 42.8433843,123.81907 L42.7682205,123.894233 L42.4675652,124.044561 C41.8662545,124.14478 41.3651623,124.09467 40.9642885,123.894233 L40.8891247,123.81907 C40.6385786,123.718851 40.5133055,123.568523 40.5133055,123.368087 C40.4130871,123.067431 40.5383602,122.84194 40.8891247,122.691612 C41.3902169,122.441066 41.9163637,122.390957 42.4675652,122.541284 Z" id="形状" fill="#253237"></path>
                            <path d="M43.8205142,121.939974 C43.3194219,121.589209 42.6680021,121.413827 41.8662545,121.413827 C41.1146162,121.413827 40.4631963,121.564155 39.9119949,121.86481 C39.4109027,122.215575 39.1603566,122.591394 39.1603566,122.992267 C39.1603566,123.44325 39.4109027,123.81907 39.9119949,124.119725 C40.4631963,124.470489 41.1146162,124.645872 41.8662545,124.645872 C42.6178928,124.645872 43.2693127,124.495544 43.8205142,124.194889 C44.3717156,123.844124 44.6473163,123.468305 44.6473163,123.067431 C44.6473163,122.616448 44.3717156,122.240629 43.8205142,121.939974 Z" id="路径" fill="#37444B"></path>
                            <path d="M43.5198588,123.743906 C43.9708418,123.543469 44.1963333,123.217759 44.1963333,122.766776 L44.2714972,96.6849262 C44.2636676,97.0897147 44.0131215,97.4154247 43.5198588,97.662056 L43.2943673,97.8123837 L43.2192035,123.894233 L43.5198588,123.743906 Z" id="路径" fill="#59626B"></path>
                            <polygon id="路径" fill="#59626B" points="43.2192035 123.894233 43.2943673 97.8123837 42.4675652 98.0378752 42.4675652 124.119725"></polygon>
                            <path d="M42.4675652,124.119725 L42.4675652,98.0378752 C41.6157084,98.1882028 40.8640701,98.0629298 40.2126502,97.662056 L40.1374864,97.662056 L40.0623226,123.743906 L40.1374864,123.743906 C40.8390155,124.14478 41.6157084,124.270053 42.4675652,124.119725 Z" id="路径" fill="#747D84"></path>
                            <polygon id="路径" fill="#59626B" points="39.6113396 97.211073 39.4610119 96.6849262 39.4610119 122.766776 39.6113396 123.292923 40.0623226 123.743906 40.1374864 97.662056"></polygon>
                            <path d="M44.2714972,96.6849262 C44.2714972,96.3341616 44.020951,96.0084517 43.5198588,95.7077964 C42.417456,95.0563765 41.3150531,95.0563765 40.2126502,95.7077964 C39.711558,96.0084517 39.4610119,96.3341616 39.4610119,96.6849262 C39.4610119,97.0857999 39.711558,97.4115099 40.2126502,97.662056 C41.3150531,98.3134759 42.417456,98.3134759 43.5198588,97.662056 C44.020951,97.4115099 44.2714972,97.0857999 44.2714972,96.6849262 Z" id="路径" fill="#00394E"></path>
                            <polygon id="路径" fill="#253237" points="11.6654268 106.862109 11.6654268 104.53203 6.17846701 104.53203 6.17846701 106.862109"></polygon>
                            <path d="M11.6654268,106.711781 C11.7656452,106.260798 11.4900445,105.83487 10.8386246,105.433996 C9.48567562,104.682358 8.18283586,104.682358 6.93010533,105.433996 C6.32879467,105.784761 6.07824856,106.185635 6.17846701,106.636618 C6.07824856,107.13771 6.32879467,107.563638 6.93010533,107.914403 C7.48130676,108.215058 8.13272664,108.365386 8.88436496,108.365386 C9.68611251,108.365386 10.3375324,108.215058 10.8386246,107.914403 C11.389826,107.663857 11.6654268,107.262983 11.6654268,106.711781 Z" id="路径" fill="#253237"></path>
                            <path d="M10.2373139,103.028754 L9.48567562,102.878426 C8.53360041,102.778208 7.73185287,102.878426 7.08043299,103.179081 L6.93010533,103.329409 L6.47912233,103.630064 C6.27868545,103.93072 6.17846701,104.131156 6.17846701,104.231375 C6.12835778,104.381703 6.12835778,104.481921 6.17846701,104.53203 C6.17846701,104.882795 6.4039585,105.208505 6.85494149,105.50916 L6.93010533,105.584324 C7.63163443,105.884979 8.40832736,106.035307 9.26018412,106.035307 C9.86149478,105.985198 10.3876416,105.83487 10.8386246,105.584324 L10.9889523,105.50916 C11.389826,105.208505 11.6153175,104.882795 11.6654268,104.53203 L11.6654268,104.306539 C11.6654268,104.055993 11.5150991,103.805447 11.2144438,103.5549 L10.2373139,103.028754 M10.3124778,104.53203 L10.2373139,104.607194 C10.2373139,104.757522 10.1120409,104.882795 9.86149478,104.983013 L9.78633095,105.058177 L9.48567562,105.208505 C8.88436496,105.308723 8.38327275,105.258614 7.98239898,105.058177 L7.90723515,104.983013 C7.65668904,104.882795 7.53141598,104.732467 7.53141598,104.53203 C7.43119754,104.231375 7.5564706,104.005883 7.90723515,103.855556 C8.40832736,103.60501 8.93447419,103.5549 9.48567562,103.705228 L9.86149478,103.855556 C10.1120409,104.005883 10.2373139,104.131156 10.2373139,104.231375 L10.3124778,104.53203 Z" id="形状" fill="#253237"></path>
                            <path d="M11.6654268,104.231375 C11.6654268,103.780392 11.389826,103.404573 10.8386246,103.103917 C10.3375324,102.753153 9.68611251,102.577771 8.88436496,102.577771 C8.13272664,102.577771 7.48130676,102.728098 6.93010533,103.028754 C6.42901311,103.379518 6.17846701,103.755337 6.17846701,104.156211 C6.17846701,104.607194 6.42901311,104.983013 6.93010533,105.283669 C7.48130676,105.634433 8.13272664,105.809815 8.88436496,105.809815 C9.63600329,105.809815 10.2874232,105.659488 10.8386246,105.358832 C11.389826,105.008068 11.6654268,104.632249 11.6654268,104.231375 Z" id="路径" fill="#37444B"></path>
                            <path d="M11.2144438,103.93072 L11.2896076,77.8488698 C11.281778,78.2536584 11.0312319,78.5793683 10.5379693,78.8259996 L10.3124778,78.9763273 L10.2373139,105.058177 L10.5379693,104.907849 C10.9889523,104.707413 11.2144438,104.381703 11.2144438,103.93072 Z" id="路径" fill="#59626B"></path>
                            <polygon id="路径" fill="#59626B" points="10.3124778 78.9763273 9.48567562 79.2018188 9.48567562 105.283669 10.2373139 105.058177"></polygon>
                            <path d="M9.48567562,79.2018188 C8.63381886,79.3521465 7.88218053,79.2268734 7.23076066,78.8259996 L7.15559682,78.8259996 L7.08043299,104.907849 L7.15559682,104.907849 C7.85712592,105.308723 8.63381886,105.433996 9.48567562,105.283669 L9.48567562,79.2018188 Z" id="路径" fill="#747D84"></path>
                            <polygon id="路径" fill="#59626B" points="7.15559682 78.8259996 6.62945 78.3750167 6.47912233 77.8488698 6.47912233 103.93072 6.62945 104.456866 7.08043299 104.907849"></polygon>
                            <path d="M7.23076066,76.87174 C6.72966844,77.1723953 6.47912233,77.4981053 6.47912233,77.8488698 C6.47912233,78.2497436 6.72966844,78.5754535 7.23076066,78.8259996 C8.33316353,79.4774195 9.4355664,79.4774195 10.5379693,78.8259996 C11.0390615,78.5754535 11.2896076,78.2497436 11.2896076,77.8488698 C11.2896076,77.4981053 11.0390615,77.1723953 10.5379693,76.87174 C9.4355664,76.2203201 8.33316353,76.2203201 7.23076066,76.87174 Z" id="路径" fill="#00394E"></path>
                            <polygon id="路径" fill="#13171F" points="32.7714308 63.0115294 0 82.0279789 0 82.4037981 32.7714308 63.3873485"></polygon>
                            <polygon id="路径" fill="#64A6B7" points="73.886047 92.8515707 73.9612109 86.7633003 41.18978 105.854914 41.18978 111.86802"></polygon>
                            <polygon id="路径" fill="#BADDE6" points="41.18978 111.86802 41.18978 105.854914 0 82.0279789 0 88.1162493"></polygon>
                            <polygon id="路径" fill="#743417" points="32.7714308 63.0115294 0 82.0279789 41.18978 105.854914 73.9612109 86.7633003"></polygon>
                            <polygon id="路径" fill="#D0EAFC" points="32.7714308 59.9298122 2.27373675e-13 78.9462618 41.18978 102.773197 73.9612109 83.6815832"></polygon>
                            <polygon id="路径" fill="#0090FF" points="73.9612109 86.7633003 73.9612109 83.6815832 41.18978 102.773197 41.18978 105.854914"></polygon>
                            <polygon id="路径" fill="#1152FE" points="41.18978 105.854914 41.18978 102.773197 3.41060513e-13 78.9462618 3.41060513e-13 82.0279789"></polygon>
                            <polygon id="路径" fill="#0090FF" points="221.357473 79.3145646 221.357473 72.7076637 88.3175028 71.4298786 62.6114722 73.7599574 62.6114722 80.4495384 140.63153 125.547838"></polygon>
                            <polygon id="路径" fill="#00CCFF" points="140.63153 118.858257 221.357473 72.7076637 77.644636 -4.22269354e-13 27.8857817 29.8642794 83.2063622 61.808908 62.6114722 73.7599574"></polygon>
                            <polygon id="路径" fill="#157DBB" points="140.63153 113.596788 213.000084 72.7076637 77.644636 3.85451852 36.8302778 29.7891155 92.2260221 61.808908 71.5559682 73.7599574"></polygon>
                            <polygon id="路径" fill="#D0EAFC" points="140.593948 113.596788 207.296354 76.3831751 77.644636 9.35244878 41.0770343 32.269522 92.1884402 61.808908 71.5183863 73.7599574"></polygon>
                            <polygon id="路径" fill="#02A5FF" points="73.6605555 85.6618331 62.5363084 79.1977435 62.5363084 132.680314 140.63153 175.34535 140.63153 124.349301 73.886047 85.7369969"></polygon>
                            <polygon id="路径" fill="#008AFF" points="221.357473 129.772045 221.357473 77.8488698 140.63153 124.349301 140.63153 175.34535"></polygon>
                            <polygon id="路径" fill="#818181" points="131.912525 102.397377 131.987689 105.930078 138.67727 109.763433 138.602107 106.305897"></polygon>
                            <polygon id="路径" fill="#9A9A9A" points="138.602107 106.305897 138.67727 109.763433 147.546603 104.727456 147.546603 101.194756"></polygon>
                            <polygon id="路径" fill="#CACACA" points="131.912525 102.397377 138.602107 106.305897 147.546603 101.194756 140.857022 97.3614007"></polygon>
                            <path d="M139.504073,99.7666433 C138.501888,99.7666433 137.624977,99.9921348 136.873338,100.443118 C136.171809,100.843992 135.821045,101.345084 135.821045,101.946394 C135.821045,102.547705 136.171809,103.048797 136.873338,103.449671 C137.624977,103.850545 138.501888,104.050982 139.504073,104.050982 C140.556366,104.050982 141.433278,103.850545 142.134807,103.449671 C142.836336,103.048797 143.1871,102.547705 143.1871,101.946394 C143.1871,101.345084 142.836336,100.843992 142.134807,100.443118 C141.433278,99.9921348 140.556366,99.7666433 139.504073,99.7666433 Z" id="路径" fill="#59626B"></path>
                            <polygon id="路径" fill="#BADDE6" points="141.984479 100.29279 136.723011 103.299343 137.09883 103.524835 142.285134 100.518282"></polygon>
                            <polygon id="路径" fill="#BADDE6" points="137.09883 100.29279 136.723011 100.518282 141.984479 103.524835 142.285134 103.299343"></polygon>
                            <polygon id="路径" fill="#BADDE6" points="135.821045 101.796067 135.821045 102.096722 143.262264 102.096722 143.262264 101.796067"></polygon>
                            <polygon id="路径" fill="#BADDE6" points="139.278581 99.7666433 139.278581 104.050982 139.804728 104.050982 139.804728 99.7666433"></polygon>
                            <polygon id="路径" fill="#818181" points="148.598896 93.6032091 148.598896 97.1359092 155.288477 100.969265 155.288477 97.5117283"></polygon>
                            <polygon id="路径" fill="#9A9A9A" points="155.288477 97.5117283 155.288477 100.969265 164.232973 95.858124 164.232973 92.4005877"></polygon>
                            <polygon id="路径" fill="#CACACA" points="148.598896 93.6032091 155.288477 97.5117283 164.232973 92.4005877 157.543392 88.4920685"></polygon>
                            <path d="M156.190443,90.9724749 C155.13815,90.9724749 154.261238,91.1729118 153.559709,91.5737856 C152.85818,91.9746594 152.507415,92.4757516 152.507415,93.0770622 C152.507415,93.6783729 152.85818,94.2045197 153.559709,94.6555027 C154.261238,95.0563765 155.13815,95.2568134 156.190443,95.2568134 C157.192628,95.2568134 158.069539,95.0563765 158.821177,94.6555027 C159.522707,94.2045197 159.873471,93.6783729 159.873471,93.0770622 C159.873471,92.4757516 159.522707,91.9746594 158.821177,91.5737856 C158.069539,91.1729118 157.192628,90.9724749 156.190443,90.9724749 Z" id="路径" fill="#59626B"></path>
                            <polygon id="路径" fill="#BADDE6" points="158.595686 91.4986218 153.409381 94.505175 153.710037 94.7306665 158.971505 91.7241132"></polygon>
                            <polygon id="路径" fill="#BADDE6" points="153.710037 91.4986218 153.409381 91.7241132 158.595686 94.7306665 158.971505 94.505175"></polygon>
                            <polygon id="路径" fill="#BADDE6" points="152.507415 93.0018984 152.507415 93.2273899 159.873471 93.2273899 159.873471 93.0018984"></polygon>
                            <polygon id="路径" fill="#BADDE6" points="155.889788 90.9724749 155.889788 95.2568134 156.415935 95.2568134 156.415935 90.9724749"></polygon>
                        </g>
                        <path d="M114.364409,146.559895 C114.724704,147.143678 114.724704,147.732728 114.3536,147.911837 C114.004515,148.058984 113.43645,147.726949 113.064946,147.135784 L107.408721,137.976568 C107.059635,137.399337 107.059635,136.810287 107.430739,136.642386 C107.780225,136.484265 108.369907,136.828936 108.74101,137.408243 L114.364409,146.559895 Z M111.863964,112.058871 C112.453647,112.403542 113.054538,112.800012 113.64382,113.2914 C114.266329,113.768585 114.833993,114.293 115.38004,114.850027 C116.144265,115.636284 116.515768,116.793252 116.177092,117.410582 C116.101503,117.550962 115.994208,117.657035 115.860433,117.723633 C114.691877,118.251918 113.523722,118.769644 112.365975,119.304247 L112.562536,120.14393 L112.737479,120.982186 L113.458068,121.607194 L114.15704,122.208359 C115.314386,121.673522 116.482942,121.167238 117.651097,120.627096 C118.24118,120.349327 119.223583,120.923544 119.834883,121.903525 C120.009826,122.198393 120.140733,122.51277 120.206387,122.800215 C120.41579,123.440365 120.57315,124.071107 120.675971,124.682433 L120.675971,124.705264 L120.68678,124.711582 C120.795669,125.352654 120.861723,126.013937 120.861723,126.670651 C120.861723,129.218219 119.846092,130.968325 118.219162,131.716035 C116.60304,132.45844 114.331582,132.172708 111.863964,130.730379 C111.689021,130.628124 111.514478,130.514895 111.339535,130.412641 L109.636142,131.160491 L119.005405,146.351397 L119.081467,146.486351 C120.224693,148.377488 120.863175,150.387536 120.861322,152.089638 C120.861322,153.765462 120.250022,155.095187 119.005004,155.646859 L118.982986,155.65682 C117.738368,156.197933 116.143864,155.899823 114.527743,154.955196 C112.911621,154.010568 111.263073,152.413105 110.050882,150.41315 L100.660002,135.197985 L91.084571,139.553944 C89.0861367,140.457699 86.6729632,139.228598 84.6965469,137.190425 C83.9323219,136.415377 83.2445595,135.515239 82.6764949,134.594154 L82.6656861,134.587836 C82.0980218,133.656192 81.6284378,132.679342 81.3117788,131.713006 C80.4602825,129.165875 80.6348252,126.754368 82.6440684,125.868139 L82.6440684,125.845308 L93.3232018,121.013652 L89.4140048,114.675107 L85.9415651,111.569891 C85.5006838,111.18284 85.1395954,110.64311 84.9587613,110.100864 L81.6284378,100.058687 C81.3225877,99.2912817 81.4210682,98.5788034 81.9014611,98.361455 L83.299004,97.7403603 L84.6749292,97.1178381 C85.1008776,96.9255376 85.7670223,97.1447034 86.3567046,97.7612753 L94.2623698,105.880756 C94.6880946,106.313518 95.0096931,106.876695 95.1358841,107.410438 L96.1623236,111.611112 L100.07152,117.949657 L102.877815,116.702396 C102.867007,116.492256 102.855797,116.293091 102.855797,116.14614 L102.866606,116.152457 C102.866606,113.559642 103.871428,111.803217 105.498359,111.078339 L105.498359,111.066716 C107.124889,110.342018 109.385537,110.610224 111.863964,112.058871 Z M102.844588,134.233254 L112.21305,149.423693 C112.835559,150.444265 113.697864,151.287849 114.527743,151.772916 C115.357621,152.257982 116.198709,152.410035 116.821218,152.128388 L116.842836,152.129815 C117.476154,151.866109 117.771195,151.143986 117.771195,150.28345 C117.771195,149.445331 117.476154,148.423966 116.886472,147.444998 L116.821218,147.339193 L107.452356,132.148105 L102.844588,134.233254 Z M95.4849696,120.035169 L97.8981431,118.954979 L93.7159229,112.162533 C93.5076682,111.823041 93.3637713,111.463984 93.3011837,111.127661 L92.3948425,107.416037 L86.105299,100.988392 L85.4611722,101.268612 L84.8170454,101.571248 L87.4924334,109.656909 L90.659023,112.470443 C90.9212374,112.702995 91.1394158,112.966264 91.3143589,113.272341 L95.4849696,120.035169 Z M111.645786,115.124418 C110.146718,114.305213 108.725099,114.122186 107.670935,114.612674 C106.548802,115.103775 105.919139,116.302812 105.923907,117.939457 L105.945925,117.952327 L105.945925,118.394011 L105.98956,118.79312 C106.098449,119.354906 105.945925,119.809141 105.574421,119.988432 L84.8170454,129.368669 L84.8062366,129.362351 C83.8454509,129.831088 83.7361615,130.933684 84.129283,132.125704 C84.2930169,132.594596 84.5444225,133.115563 84.8390635,133.604515 C85.1557224,134.106752 85.5052082,134.560097 85.8875209,134.953342 C86.8154797,135.914589 87.9295909,136.452463 88.9119943,136.030402 L99.5474919,131.218904 L99.5911276,131.199161 L106.361064,128.12497 L106.4047,128.094019 L109.658561,126.644262 L109.66937,126.65058 C109.986028,126.473272 110.477631,126.579624 110.968832,126.94602 C111.121757,127.057821 111.263473,127.163486 111.427607,127.259423 C111.536496,127.334277 111.689422,127.435285 111.864365,127.53754 C113.502504,128.495037 114.987319,128.672162 116.057394,128.210849 L116.057394,128.188018 C117.073024,127.74013 117.717151,126.65583 117.771996,125.068519 C117.105851,125.381117 116.439706,125.671299 115.773562,125.995105 C115.391649,126.213145 114.812776,126.056197 114.223094,125.575784 L112.672626,124.227847 L111.10014,122.867457 C110.575711,122.413561 110.150163,121.768391 110.008047,121.096689 L109.593307,119.223696 L109.167359,117.344152 C109.047261,116.775815 109.15655,116.228229 109.57169,116.074443 C110.258651,115.751597 110.946814,115.44066 111.645786,115.124418 Z" id="形状" fill="#FFFFFF"></path>
                    </g>
                </g>
            </g>
        </g>
    </g>
</svg>