<?xml version="1.0" encoding="UTF-8"?>
<svg width="160px" height="163px" viewBox="0 0 160 163" version="1.1" xmlns="http://www.w3.org/2000/svg" xmlns:xlink="http://www.w3.org/1999/xlink">
    <title>编组 39备份 2</title>
    <defs>
        <polygon id="path-1" points="0 0.0193151721 17.8716543 0.0193151721 17.8716543 16.9082734 0 16.9082734"></polygon>
        <polygon id="path-3" points="0 0.00673130559 28.3064482 0.00673130559 28.3064482 17.7521314 0 17.7521314"></polygon>
        <polygon id="path-5" points="0 0.0257302343 28.3064482 0.0257302343 28.3064482 5.04160629 0 5.04160629"></polygon>
        <polygon id="path-7" points="3.68223785 0.00177513048 5.24102582 0.00177513048 5.24102582 5.26712739 3.68223785 5.26712739"></polygon>
        <polygon id="path-9" points="23.0337329 0.00177513048 24.5925209 0.00177513048 24.5925209 5.26712739 23.0337329 5.26712739"></polygon>
    </defs>
    <g id="web-能源经理工具" stroke="none" stroke-width="1" fill="none" fill-rule="evenodd">
        <g id="编组-39备份-2">
            <g id="编组-22" transform="translate(59.354839, 18.924731)">
                <rect id="矩形备份-10" fill="#E4EBF7" x="0" y="137.393548" width="99.3548387" height="5.67741935" rx="2.83870968"></rect>
                <g id="2.通用组件/彩色版/长脚椅子" transform="translate(39.458065, 72.954839)">
                    <g id="编组" transform="translate(0.167870, 0.083935)">
                        <polygon id="Fill-1" fill="#253369" points="5.82941243 49.7733445 25.6886004 49.7733445 25.6886004 45.7142898 5.82941243 45.7142898"></polygon>
                        <polygon id="Fill-2" fill="#597EF7" points="20.747181 4.26557506 26.0653005 69.7963306 30.6317925 69.7963306 25.313673 4.26557506"></polygon>
                        <polygon id="Fill-3" fill="#597EF7" points="6.20433986 4.26557506 0.886220306 69.7963306 5.4527123 69.7963306 10.7708319 4.26557506"></polygon>
                        <path d="M4.26557506,8.53070694 C1.9096481,8.53070694 7.41256519e-14,6.62105885 7.41256519e-14,4.26557506 C7.41256519e-14,1.91009127 1.9096481,-1.1345763e-14 4.26557506,-1.1345763e-14 L27.6697329,-1.1345763e-14 C30.0252167,-1.1345763e-14 31.9353079,1.91009127 31.9353079,4.26557506 C31.9353079,6.62105885 30.0252167,8.53070694 27.6697329,8.53070694 L4.26557506,8.53070694 Z" id="Fill-4" fill="#CCD7EE"></path>
                    </g>
                </g>
                <g id="1.人物组件/3.商务经理/坐姿/讨论" transform="translate(16.748387, 0.000000)">
                    <g id="分组" transform="translate(0.000000, 0.113548)">
                        <path d="M16.6175566,26.1525894 C16.6175566,26.1525894 16.727585,24.7191546 16.2384186,22.9314488 C15.7492521,21.143743 14.4217579,19.0031288 14.4077915,16.8539985 C14.393825,14.7052088 12.5550225,16.507903 13.5960341,20.5605585 C10.845665,19.8622359 7.95665342,18.5527959 7.09243665,16.454081 C6.77665858,15.6872888 6.036096,15.8116243 6.01838245,16.5504836 C6.0006689,17.289343 6.2963489,17.9815339 6.2963489,17.9815339 C6.2963489,17.9815339 5.76289858,18.5817507 6.12670761,19.4153094 C5.41850632,20.6736526 6.58760052,21.4717843 6.58760052,21.4717843 C6.58760052,21.4717843 5.87428955,21.924161 7.31930632,23.7953249 C8.81644181,25.7342772 12.8023308,27.0130591 12.8023308,27.0130591 L15.4750328,34.0402281 L19.2796986,31.6274385 L16.6175566,26.1525894 Z" id="Fill-1" fill="#A08889"></path>
                        <path d="M13.5961703,20.5606266 C13.5961703,20.5606266 12.6852852,22.7755014 13.7668335,23.8427427" id="Stroke-3" stroke="#7C5B4D" stroke-width="0.567741935" stroke-linecap="round" stroke-linejoin="round"></path>
                        <path d="M6.58766865,21.4718183 C6.58766865,21.4718183 7.29586994,20.2134751 7.65593187,20.4798596 C8.01565316,20.7462441 7.66649187,22.0917925 7.66649187,22.0917925 C7.66649187,22.0917925 8.66219768,23.7865022 10.0053615,23.7779861 C11.3485254,23.7691293 13.5000403,24.1131809 13.8645306,25.0959422" id="Stroke-5" stroke="#7C5B4D" stroke-width="0.567741935" stroke-linecap="round" stroke-linejoin="round"></path>
                        <path d="M6.12657135,19.4152754 C6.12657135,19.4152754 7.01258942,17.9767308 7.37435458,18.5115437 C7.73611974,19.0466973 7.02791845,20.3050405 7.02791845,20.3050405" id="Stroke-7" stroke="#7C5B4D" stroke-width="0.567741935" stroke-linecap="round" stroke-linejoin="round"></path>
                        <path d="M7.89336155,21.3362075 C8.42783381,21.9691262 8.92687897,22.3489455 9.72466994,22.7151391" id="Stroke-9" stroke="#7C5B4D" stroke-width="0.567741935" stroke-linecap="round" stroke-linejoin="round"></path>
                        <path d="M7.4537249,20.0922054 C7.4537249,20.0922054 8.62792877,21.0988119 9.95678555,21.5147396" id="Stroke-11" stroke="#7C5B4D" stroke-width="0.567741935" stroke-linecap="round" stroke-linejoin="round"></path>
                        <path d="M7.54123665,18.7968 C7.54123665,18.7968 8.79515148,19.8916335 10.1897528,20.4581265" id="Stroke-13" stroke="#7C5B4D" stroke-width="0.567741935" stroke-linecap="round" stroke-linejoin="round"></path>
                        <path d="M10.5607835,19.9906932 C10.5607835,19.9906932 9.52590348,22.896737 10.0055319,23.7779861" id="Stroke-15" stroke="#7C5B4D" stroke-width="0.567741935" stroke-linecap="round" stroke-linejoin="round"></path>
                        <path d="M6.29641703,17.9814317 C6.29641703,17.9814317 6.78251768,16.9932201 7.051968,17.1257311 C7.50127897,17.3468098 7.28292542,18.2437285 7.28292542,18.2437285" id="Stroke-17" stroke="#7C5B4D" stroke-width="0.567741935" stroke-linecap="round" stroke-linejoin="round"></path>
                        <path d="M20.3129435,112.085271 C20.3129435,112.085271 17.9056041,117.869085 12.2747396,119.246995 C8.58827768,120.149023 12.469248,123.448171 18.9404841,121.883929 C22.6296712,120.99246 21.7375215,119.125725 23.8055783,119.031366 C25.0046493,118.976863 27.3884841,118.252651 27.4664919,117.340404 C27.6024093,115.746525 27.638177,115.299598 27.6763293,113.44172 C27.902177,102.433431 23.5902906,102.238582 20.3129435,112.085271" id="Fill-19" fill="#253368"></path>
                        <path d="M3.73009858,69.8995355 L3.73009858,69.8995355 C3.53899665,66.9611303 5.70073084,64.395391 8.62891665,64.0850632 L38.2020263,60.9521497 C41.9859128,60.5512103 45.3422895,63.3792465 45.5895979,67.1760774 C45.8365657,70.9729084 42.8743154,74.2121032 39.0710121,74.3047587 L9.34086503,75.0299923 C6.39735019,75.1018684 3.92154116,72.8379406 3.73009858,69.8995355" id="Fill-21" fill="#4E5C93"></path>
                        <g transform="translate(0.000000, 100.497476)">
                            <mask id="mask-2" fill="white">
                                <use xlink:href="#path-1"></use>
                            </mask>
                            <g id="Clip-24"></g>
                            <path d="M9.93539303,6.96578477 C9.93539303,6.96578477 7.19388077,12.5986932 1.49216206,13.6448145 C-2.24096826,14.3295112 1.440384,17.850079 7.99201239,16.667359 C11.7268459,15.9932222 10.9457466,14.0774338 13.0158472,14.1043448 C14.2159401,14.1200145 17.6738292,13.0602674 17.8049775,12.1544919 C18.0338911,10.5708325 17.6237543,10.1123241 17.3243272,8.45712929 C15.3662988,-2.37845265 13.7836614,-2.67208877 9.93539303,6.96578477" id="Fill-23" fill="#253368" mask="url(#mask-2)"></path>
                        </g>
                        <path d="M17.274559,105.996068 L14.306177,69.1076036 C14.0588686,66.0312372 11.3016867,63.7785507 8.23792413,64.1484914 C5.20754477,64.5146849 3.07340284,67.3038875 3.51181316,70.3243881 L9.18014865,107.012894 C9.18014865,107.012894 12.8403809,108.3363 17.274559,105.996068" id="Fill-25" fill="#4E5C93"></path>
                        <path d="M62.6673662,52.9184083 L62.6673662,52.9184083 C65.062783,52.3076315 66.5422049,49.907105 66.0111391,47.4926121 L61.5401714,27.1588212 C60.9000991,24.2449425 57.9732759,22.4412263 55.0822204,23.1787231 C52.1918462,23.9158792 50.4865765,26.9009528 51.3194539,29.7654379 L57.1332449,49.7568805 C57.823392,52.130496 60.2719494,53.5295257 62.6673662,52.9184083" id="Fill-27" fill="#ADC6FF"></path>
                        <path d="M21.9526049,51.0740191 L21.9526049,51.0740191 C24.131712,52.2414101 26.8439288,51.4705301 28.0831959,49.3312785 L38.5198823,31.3165997 C40.0153146,28.7351907 39.0754746,25.4285481 36.4456939,24.0196397 C33.8159133,22.611072 30.5423133,23.6605997 29.2219726,26.3356862 L20.0068397,45.0047443 C18.9126875,47.2213223 19.7734978,49.9066281 21.9526049,51.0740191" id="Fill-29" fill="#ADC6FF"></path>
                        <path d="M16.7714261,24.5466178 L10.7072609,27.6686307 L19.3276274,49.5717739 C20.4418777,51.9280165 23.3002312,52.8991959 25.6138932,51.7079597 C27.9278957,50.5167236 28.7658828,47.6427004 27.4571241,45.3866075 L16.7714261,24.5466178 Z" id="Fill-31" fill="#ADC6FF"></path>
                        <line x1="12.4506488" y1="30.5667716" x2="17.8457868" y2="28.0722271" id="Stroke-33" stroke="#597EF7" stroke-width="0.567741935" stroke-linecap="round" stroke-linejoin="round"></line>
                        <polyline id="Stroke-35" stroke="#597EF7" stroke-width="0.567741935" stroke-linecap="round" stroke-linejoin="round" points="11.004576 27.7901729 16.7393373 24.683489 25.1628108 41.0562581"></polyline>
                        <path d="M13.4627737,27.9826374 C13.3374163,27.7172748 13.0202756,27.6021368 12.7545724,27.724769 C12.4888692,27.8477419 12.3750937,28.1624981 12.5001105,28.42752 C12.6254679,28.6928826 12.9426085,28.8083613 13.2083117,28.6853884 C13.474015,28.5624155 13.5881311,28.248 13.4627737,27.9826374" id="Fill-37" fill="#FFFFFF"></path>
                        <path d="M48.3266818,20.1190483 L47.1320392,12.5706921 L38.9092057,13.073825 L39.3711205,20.7911412 C39.4000754,22.6238121 40.5558844,24.289567 42.3033941,24.8420934 C42.4852986,24.8996625 42.6719721,24.9493966 42.8644366,24.9889115 C45.7636676,25.5887876 48.7082044,23.0550689 48.3266818,20.1190483" id="Fill-39" fill="#A08889"></path>
                        <path d="M49.2980315,8.78993961 C48.9171902,14.755999 45.0512083,17.7536764 41.1525244,18.2779293 C36.5044212,18.9026725 35.124127,14.976737 34.8972573,9.13841961 C34.6669812,3.21017187 37.0334431,0.983715097 41.4103928,0.478538323 C45.9729941,-0.0480990968 49.6839825,2.74689445 49.2980315,8.78993961" id="Fill-41" fill="#A08889"></path>
                        <path d="M46.1457352,9.92755819 C46.2435004,9.45610529 46.3089043,8.673984 47.020512,8.30404335 C48.0002075,7.79443819 48.9948914,8.86678916 48.9567391,10.1132098 C48.9104114,11.6236305 47.6677378,12.6425001 46.9210436,12.712673 C47.088641,13.9185569 47.4357585,14.8580563 47.4357585,14.8580563 C47.4357585,14.8580563 48.8092397,13.1732253 49.5058591,10.5662679 C50.5925172,6.49896465 49.2251675,1.05545497 44.6836862,0.174546581 C37.6061017,-0.990800516 35.705983,4.0630111 35.705983,4.0630111 L44.0514488,3.54523045 L44.0814255,6.43253884 C44.0814255,6.43253884 45.6184165,6.38450787 45.6024062,9.80560723 L46.1457352,9.92755819 Z" id="Fill-43" fill="#604346"></path>
                        <polyline id="Stroke-45" stroke="#604346" stroke-width="0.567741935" stroke-linecap="round" stroke-linejoin="round" points="39.5507427 7.64871019 42.281695 7.35268955 43.1602188 7.54276955"></polyline>
                        <path d="M43.780193,14.799295 C42.6765027,13.4939427 42.8641982,12.4542937 39.0677079,12.5387737 C36.6065466,12.5936175 36.4566627,13.4585156 35.8884666,15.1014472 C36.642655,17.4869853 38.7648743,18.8471814 41.3851169,18.4128588 C46.8892614,17.5002705 46.6552382,11.9348098 46.6552382,11.9348098 C46.6552382,11.9348098 45.8918524,12.2028975 45.6758834,12.6406266 C45.0794137,13.8509388 44.1841982,14.3118317 43.780193,14.799295" id="Fill-47" fill="#7F6567"></path>
                        <path d="M37.7370457,13.4492501 C37.7370457,13.4492501 39.4661605,13.4366462 41.4098818,13.3736268 C41.4098818,13.3736268 41.2102637,14.3349275 39.6283076,14.4837894 C38.386656,14.6002901 37.7370457,13.4492501 37.7370457,13.4492501" id="Fill-49" fill="#FFFFFF"></path>
                        <path d="M37.7370457,13.4492501 C37.7370457,13.4492501 39.4661605,13.4366462 41.4098818,13.3736268 C41.4098818,13.3736268 41.2102637,14.3349275 39.6283076,14.4837894 C38.386656,14.6002901 37.7370457,13.4492501 37.7370457,13.4492501 Z" id="Stroke-51" stroke="#604346" stroke-width="0.567741935" stroke-linecap="round" stroke-linejoin="round"></path>
                        <path d="M40.0703628,12.4446875 L37.9004532,12.2672114 C37.6497383,12.2862875 37.4429667,12.0730436 37.4691964,11.8230101 L37.8663886,8.61787974 L37.522337,7.68689652" id="Stroke-53" stroke="#604346" stroke-width="0.567741935" stroke-linecap="round" stroke-linejoin="round"></path>
                        <line x1="39.2519969" y1="15.5690849" x2="40.2807453" y2="15.4958462" id="Stroke-55" stroke="#604346" stroke-width="0.567741935" stroke-linecap="round" stroke-linejoin="round"></line>
                        <line x1="35.1296454" y1="7.67194219" x2="37.3945951" y2="7.69885316" id="Stroke-57" stroke="#604346" stroke-width="0.567741935" stroke-linecap="round" stroke-linejoin="round"></line>
                        <path d="M39.4615618,18.4227035 C39.4615618,18.4227035 41.9206792,18.9622854 44.3934225,17.252928" id="Stroke-59" stroke="#604346" stroke-width="0.567741935" stroke-linecap="round" stroke-linejoin="round"></path>
                        <path d="M47.7292243,9.0081569 C47.7292243,9.0081569 46.7185301,8.84635045 46.7573636,10.2876201 C47.5970539,10.3370137 47.5296062,10.9856021 47.1773791,11.339873" id="Stroke-61" stroke="#7C5B4D" stroke-width="0.567741935" stroke-linecap="round" stroke-linejoin="round"></path>
                        <path d="M35.7254679,9.89141574 C35.6777775,9.38215123 35.9138446,8.9437409 36.2527866,8.91172026 C36.5913879,8.88004026 36.9051221,9.26701316 36.953153,9.77627768" id="Stroke-63" stroke="#604346" stroke-width="0.567741935" stroke-linecap="round" stroke-linejoin="round"></path>
                        <path d="M40.7176908,9.86958039 C40.6717037,9.37905135 40.8989141,8.95665135 41.2252521,8.92599329 C41.5515902,8.89533523 41.8537425,9.26800103 41.8997295,9.75853006" id="Stroke-65" stroke="#604346" stroke-width="0.567741935" stroke-linecap="round" stroke-linejoin="round"></path>
                        <path d="M35.5830782,50.4841239 C35.5830782,50.4841239 30.5006524,28.3466168 30.9056795,24.425791 C33.6301595,22.5042116 34.8694266,22.5369135 39.6994343,21.2717574 C40.591584,21.0380748 41.9558679,22.7719587 43.0336692,22.60368 C44.6275479,22.355009 45.8388821,20.3792671 47.3751917,20.4770323 C53.3463608,20.8568516 58.813375,23.9567226 58.813375,23.9567226 L56.6209827,50.1271277 C56.6209827,50.1271277 58.8259788,55.3206039 53.2625621,55.3567123 C49.5222782,55.3808981 42.0158214,56.1718761 36.8604975,55.175489 C35.4199092,54.8971819 35.1075375,52.3208826 35.5830782,50.4841239" id="Fill-67" fill="#ADC6FF"></path>
                        <polygon id="Fill-69" fill="#ADC6FF" points="39.0417507 20.3091623 37.4396965 21.9333585 39.3854617 26.1406668 42.2414307 22.8612759"></polygon>
                        <polygon id="Fill-71" fill="#ADC6FF" points="42.336096 22.6687432 47.9594663 19.2343587 49.5165554 20.7039019 46.385345 25.9035097"></polygon>
                        <polygon id="Fill-73" fill="#4E5C93" points="40.2423205 25.176096 42.4319876 22.6682663 44.8764573 24.8902947 44.2558018 27.8355128 41.1242508 28.0477347"></polygon>
                        <path d="M44.3893006,27.5710018 L41.1248981,27.5887154 C41.1248981,27.5887154 39.7323406,39.6189399 39.5695123,44.0319979 C39.5487329,44.595425 43.4446916,49.9534328 43.4446916,49.9534328 C43.4446916,49.9534328 47.5576413,44.0449425 47.43024,43.4052108 C46.4389626,38.4242973 45.4371252,31.9087773 44.3893006,27.5710018" id="Fill-75" fill="#4E5C93"></path>
                        <polyline id="Stroke-77" stroke="#597EF7" stroke-width="0.567741935" stroke-linecap="round" stroke-linejoin="round" points="37.4403097 22.0291479 39.2593548 26.4612821 42.3026787 22.4770963 46.3866735 26.0954292 49.5172026 20.7997595"></polyline>
                        <path d="M31.824161,32.9563293 C33.6067572,41.5770364 35.5824991,50.3881641 35.5824991,50.3881641 C35.5824991,50.3881641 34.2710152,54.2742441 37.0520423,55.1742286" id="Stroke-79" stroke="#597EF7" stroke-width="0.567741935" stroke-linecap="round" stroke-linejoin="round"></path>
                        <path d="M57.2938932,55.7460697 C57.2938932,55.7460697 38.3386932,58.2821729 36.937279,56.4832258 C36.3207112,55.6912258 35.4343525,62.3426632 33.9719628,68.2385497 C34.7516996,69.75408 40.6373667,72.2608877 44.0209951,73.7556387 C45.3004583,74.320769 46.461377,73.9842116 46.461377,73.9842116 C48.1387138,74.3997987 58.3393332,69.0394065 58.3393332,69.0394065 C58.3393332,69.0394065 59.6497951,64.0431639 57.2938932,55.7460697" id="Fill-81" fill="#4E5C93"></path>
                        <path d="M36.5447876,54.763104 L36.4889218,57.0641621 C36.4889218,57.0641621 38.3416908,57.2760434 44.7703463,57.234144 C51.2926792,57.191904 57.2958689,56.0923014 57.2958689,56.0923014 L57.2042354,54.0058498 C57.2042354,54.0058498 43.8563954,54.2988046 36.5447876,54.763104" id="Fill-83" fill="#12183F"></path>
                        <path d="M39.5636872,56.9047401 L39.492833,55.2338756 C39.472735,54.763104 39.8382472,54.3754498 40.2889208,54.3918008 C41.3697879,54.430975 43.2784227,54.4677646 44.6580356,54.3134524 C45.1090498,54.2633775 45.5018137,54.6333182 45.5076046,55.1071556 L45.5294059,56.8158317 C45.534175,57.2154085 45.2599556,57.5560537 44.8828614,57.6228201 C43.9869646,57.7812201 42.2571685,57.9808382 40.2313517,57.671873 C39.8620924,57.6156666 39.5803788,57.2940975 39.5636872,56.9047401" id="Fill-85" fill="#F1F2F6"></path>
                        <path d="M40.2526421,56.6671742 L40.1995014,55.4854761 C40.1841724,55.1523252 40.4665672,54.8774245 40.8140253,54.8886658 C41.6479246,54.9155768 43.1205337,54.9401032 44.1850498,54.8300748 C44.5328485,54.7939665 44.8356821,55.0555819 44.8401105,55.3907768 L44.8551393,56.5993858 C44.8585053,56.8821213 44.646624,57.1232981 44.355713,57.1706477 C43.664544,57.2834013 42.3298963,57.4261316 40.7670163,57.2091406 C40.4822369,57.1696258 40.2652459,56.9424155 40.2526421,56.6671742" id="Fill-87" fill="#12183F"></path>
                        <path d="M52.9263794,33.1068263 C52.9263794,33.1068263 54.1016052,36.8399566 56.078369,45.8428676" id="Stroke-89" stroke="#597EF7" stroke-width="0.567741935" stroke-linecap="round" stroke-linejoin="round"></path>
                        <path d="M40.1887711,53.8111711 L26.1017311,53.9028214 C25.7065827,53.9051892 25.3553775,53.6520898 25.2327453,53.2763582 L20.3352898,38.2423246 C20.1448692,37.6584588 20.5778292,37.0579014 21.1920124,37.0538137 L35.279393,36.9621634 C35.6742008,36.9597956 36.0254059,37.212895 36.1480382,37.5886266 L41.0458343,52.6226601 C41.2359143,53.2068666 40.803295,53.8070834 40.1887711,53.8111711" id="Fill-91" fill="#4E5C93"></path>
                        <path d="M39.1658477,53.8178137 L25.0788077,53.9094639 C24.6836594,53.9118317 24.3324542,53.6587324 24.2098219,53.2830008 L19.3120258,38.2489672 C19.1219458,37.6651014 19.5549058,37.064544 20.169089,37.0604563 L34.2564697,36.968806 C34.6512774,36.9664382 35.0024826,37.2195375 35.1251148,37.5952692 L40.022911,52.6293027 C40.212991,53.2135092 39.7803716,53.8137259 39.1658477,53.8178137" id="Fill-93" fill="#253368"></path>
                        <path d="M28.9283706,54.9409889 C28.9283706,54.9409889 34.0625745,55.2053295 35.2299654,53.0797037 C36.2869874,51.1547179 34.0240815,49.4940728 34.0240815,49.4940728 C34.0240815,49.4940728 32.1062493,48.3982173 29.7152609,47.7830121 C28.1482932,47.3800289 25.2878957,46.1686947 24.8593641,46.9167515 C24.3003654,47.8923592 27.4308945,48.6519979 27.5477357,49.4576237 C27.7841435,51.0899954 22.728288,50.414496 21.8456764,50.7452625 C20.1213306,51.3921476 22.7674622,54.6708573 28.9283706,54.9409889" id="Fill-95" fill="#A08889"></path>
                        <path d="M26.7291314,51.8033404 C26.7291314,51.8033404 24.1872372,52.3255494 21.8739159,51.6159855" id="Stroke-97" stroke="#7C5B4D" stroke-width="0.567741935" stroke-linecap="round" stroke-linejoin="round"></path>
                        <path d="M22.4155076,52.7681837 C22.4155076,52.7681837 24.2931437,53.4365295 27.2870741,53.1262018" id="Stroke-99" stroke="#7C5B4D" stroke-width="0.567741935" stroke-linecap="round" stroke-linejoin="round"></path>
                        <path d="M28.1627365,54.1573688 C28.1627365,54.1573688 26.8877017,54.3757223 24.5212397,54.017023" id="Stroke-101" stroke="#7C5B4D" stroke-width="0.567741935" stroke-linecap="round" stroke-linejoin="round"></path>
                        <path d="M22.254655,50.7137187 C22.254655,50.7137187 26.4452717,51.0778684 27.2539634,50.0848877 C28.0623143,49.0922477 26.637055,48.6681445 25.791233,48.0784877 C24.9457517,47.4884903 24.6912898,47.3907252 24.8592279,46.9168877" id="Stroke-103" stroke="#7C5B4D" stroke-width="0.567741935" stroke-linecap="round" stroke-linejoin="round"></path>
                        <path d="M33.7694152,49.2045585 L34.6343133,55.8178436 L62.0381946,53.8271133 C64.6356139,53.6118255 66.5493585,51.2770436 66.2472062,48.6922281 C65.9450539,46.107072 63.5486152,44.3128939 60.9764036,44.7451726 L33.7694152,49.2045585 Z" id="Fill-105" fill="#ADC6FF"></path>
                        <line x1="38.457953" y1="54.5825961" x2="37.8120898" y2="48.6737652" id="Stroke-107" stroke="#597EF7" stroke-width="0.567741935" stroke-linecap="round" stroke-linejoin="round"></line>
                        <polyline id="Stroke-109" stroke="#597EF7" stroke-width="0.567741935" stroke-linecap="round" stroke-linejoin="round" points="34.7184867 55.1692212 34.0130106 49.2661812 59.370977 45.0323025"></polyline>
                        <path d="M36.3431938,53.3381853 C36.0519422,53.3725905 35.8414235,53.6362498 35.8731035,53.9271608 C35.9051241,54.2184124 36.1667396,54.4265466 36.4583319,54.3921414 C36.7495835,54.3580769 36.9601022,54.0940769 36.9284222,53.8031659 C36.8964015,53.5119143 36.6344454,53.3037801 36.3431938,53.3381853" id="Fill-111" fill="#FFFFFF"></path>
                        <path d="M20.7304041,72.4290983 L20.7304041,72.4290983 C20.8469048,69.9543112 22.6053151,67.8641125 25.0235551,67.3255525 L49.4573512,61.8851086 C53.0487732,60.6288093 56.963808,62.6137486 58.0732893,66.2528609 L58.0732893,66.2528609 C59.1831112,69.8923138 57.0411345,73.7235499 53.3594415,74.6845099 L26.9281022,78.1342235 C23.536639,78.5767215 20.5696196,75.8457693 20.7304041,72.4290983" id="Fill-113" fill="#4E5C93"></path>
                        <path d="M27.8631732,109.97511 L31.9171912,73.1902018 C32.2551112,70.1226921 29.9734699,67.3893554 26.894719,67.1740676 C23.8500325,66.9611644 21.2270648,69.2969683 21.0870596,72.3457425 L19.3875809,109.382388 C19.3875809,109.382388 23.0668893,111.435456 27.8631732,109.97511" id="Fill-115" fill="#4E5C93"></path>
                        <path d="M21.0655649,76.3981254 C21.0655649,76.3981254 21.0631804,69.4097899 23.7396294,67.9855525 C27.325601,66.0772583 45.1927804,63.1143267 45.1927804,63.1143267" id="Stroke-117" stroke="#090D33" stroke-width="0.567741935" stroke-linecap="round" stroke-linejoin="round"></path>
                    </g>
                </g>
                <g id="分组" transform="translate(76.645161, 74.374194)">
                    <g transform="translate(9.487599, 0.000000)" fill="#BAE637" id="Fill-1">
                        <path d="M7.55096184,46.5548387 L0.0030318894,46.5548387 L0.0030318894,3.77253275 C0.0030318894,1.71418074 1.68384295,0.045528397 3.75726599,0.045528397 L3.79666876,0.045528397 C5.8700918,0.045528397 7.55096184,1.71418074 7.55096184,3.77253275 C7.55096184,13.5645343 7.55096184,20.9085355 7.55096184,25.8045363 C7.55096184,30.4157146 7.55096184,37.3324821 7.55096184,46.5548387 Z"></path>
                    </g>
                    <path d="M20.7919713,48.4379247 L13.2220789,48.4379247 L13.2220789,22.4589221 C13.2220789,20.4549269 14.86581,18.830385 16.8934767,18.830385 L17.1206326,18.830385 C19.1482401,18.830385 20.7919713,20.4549269 20.7919713,22.4589221 L20.7919713,48.4379247 Z" id="Fill-3" fill="#389E0D"></path>
                    <path d="M10.5978495,46.4083973 L2.97749104,46.4083973 L2.97749104,14.9373743 C2.97749104,12.9220408 4.62553033,11.2882414 6.65842906,11.2882414 L6.91691144,11.2882414 C8.94981017,11.2882414 10.5978495,12.9220408 10.5978495,14.9373743 L10.5978495,46.4083973 Z" id="Fill-5" fill="#7CB305"></path>
                    <g transform="translate(0.000000, 44.616857)" fill="#253369" id="Fill-7">
                        <path d="M21.242248,22.3474462 L1.41873907,22.3474462 C0.635181303,22.3474462 0,21.7188513 0,20.9434186 L0,1.44276128 C0,0.6673285 0.635181303,0.0387336133 1.41873907,0.0387336133 L21.242248,0.0387336133 C22.0258058,0.0387336133 22.6609871,0.6673285 22.6609871,1.44276128 L22.6609871,20.9434186 C22.6609871,21.7188513 22.0258058,22.3474462 21.242248,22.3474462"></path>
                    </g>
                </g>
            </g>
            <g id="编组" transform="translate(28.387097, 100.645161)">
                <g id="分组" transform="translate(2.620968, 4.291835)">
                    <g transform="translate(0.000000, 7.238637)">
                        <mask id="mask-4" fill="white">
                            <use xlink:href="#path-3"></use>
                        </mask>
                        <g id="Clip-2"></g>
                        <path d="M0.828478059,17.7521314 C0.372813228,17.7521314 -3.45200629e-06,17.3791293 -3.45200629e-06,16.9232379 L-3.45200629e-06,0.00673130559 L28.3064482,0.00673130559 L28.3064482,16.9232379 C28.3064482,17.3791293 27.9336315,17.7521314 27.4779667,17.7521314 L0.828478059,17.7521314 Z" id="Fill-1" fill="#E4EBF7" mask="url(#mask-4)"></path>
                    </g>
                    <g transform="translate(0.000000, 2.368888)">
                        <mask id="mask-6" fill="white">
                            <use xlink:href="#path-5"></use>
                        </mask>
                        <g id="Clip-4"></g>
                        <path d="M28.3064482,5.04160629 L-3.45200629e-06,5.04160629 L-3.45200629e-06,0.853794795 C-3.45200629e-06,0.396452832 0.370569424,0.0257302343 0.827649577,0.0257302343 L27.4787951,0.0257302343 C27.9359098,0.0257302343 28.3064482,0.396452832 28.3064482,0.853794795 L28.3064482,5.04160629 Z" id="Fill-3" fill="#253369" mask="url(#mask-6)"></path>
                    </g>
                    <path d="M6.42079039,13.2807242 C6.42079039,13.921597 5.9015396,14.441106 5.26098532,14.441106 C4.62046555,14.441106 4.10121476,13.921597 4.10121476,13.2807242 C4.10121476,12.6398515 4.62046555,12.1203425 5.26098532,12.1203425 C5.9015396,12.1203425 6.42079039,12.6398515 6.42079039,13.2807242" id="Fill-5" fill="#597EF7"></path>
                    <path d="M12.5979762,13.2807242 C12.5979762,13.921597 12.0787254,14.441106 11.4381711,14.441106 C10.7976513,14.441106 10.2784005,13.921597 10.2784005,13.2807242 C10.2784005,12.6398515 10.7976513,12.1203425 11.4381711,12.1203425 C12.0787254,12.1203425 12.5979762,12.6398515 12.5979762,13.2807242" id="Fill-7" fill="#597EF7"></path>
                    <path d="M19.3996678,13.2807242 C19.3996678,14.2666585 18.6008045,15.0658844 17.6153603,15.0658844 C16.6299161,15.0658844 15.8310873,14.2666585 15.8310873,13.2807242 C15.8310873,12.29479 16.6299161,11.495564 17.6153603,11.495564 C18.6008045,11.495564 19.3996678,12.29479 19.3996678,13.2807242" id="Fill-9" fill="#FFFFFF"></path>
                    <path d="M18.7751619,13.2807242 C18.7751619,13.921597 18.2559111,14.441106 17.6153568,14.441106 C16.9748371,14.441106 16.4555863,13.921597 16.4555863,13.2807242 C16.4555863,12.6398515 16.9748371,12.1203425 17.6153568,12.1203425 C18.2559111,12.1203425 18.7751619,12.6398515 18.7751619,13.2807242" id="Fill-11" fill="#FF7946"></path>
                    <path d="M24.952358,13.2807242 C24.952358,13.921597 24.4331072,14.441106 23.792553,14.441106 C23.1520332,14.441106 22.6327824,13.921597 22.6327824,13.2807242 C22.6327824,12.6398515 23.1520332,12.1203425 23.792553,12.1203425 C24.4331072,12.1203425 24.952358,12.6398515 24.952358,13.2807242" id="Fill-13" fill="#597EF7"></path>
                    <path d="M6.42079039,19.2170139 C6.42079039,19.8578867 5.9015396,20.3773957 5.26098532,20.3773957 C4.62046555,20.3773957 4.10121476,19.8578867 4.10121476,19.2170139 C4.10121476,18.5761412 4.62046555,18.0566322 5.26098532,18.0566322 C5.9015396,18.0566322 6.42079039,18.5761412 6.42079039,19.2170139" id="Fill-15" fill="#597EF7"></path>
                    <path d="M12.5979762,19.2170139 C12.5979762,19.8578867 12.0787254,20.3773957 11.4381711,20.3773957 C10.7976513,20.3773957 10.2784005,19.8578867 10.2784005,19.2170139 C10.2784005,18.5761412 10.7976513,18.0566322 11.4381711,18.0566322 C12.0787254,18.0566322 12.5979762,18.5761412 12.5979762,19.2170139" id="Fill-17" fill="#597EF7"></path>
                    <path d="M18.7751619,19.2170139 C18.7751619,19.8578867 18.2559111,20.3773957 17.6153568,20.3773957 C16.9748371,20.3773957 16.4555863,19.8578867 16.4555863,19.2170139 C16.4555863,18.5761412 16.9748371,18.0566322 17.6153568,18.0566322 C18.2559111,18.0566322 18.7751619,18.5761412 18.7751619,19.2170139" id="Fill-19" fill="#597EF7"></path>
                    <path d="M24.952358,19.2170139 C24.952358,19.8578867 24.4331072,20.3773957 23.792553,20.3773957 C23.1520332,20.3773957 22.6327824,19.8578867 22.6327824,19.2170139 C22.6327824,18.5761412 23.1520332,18.0566322 23.792553,18.0566322 C24.4331072,18.0566322 24.952358,18.5761412 24.952358,19.2170139" id="Fill-21" fill="#597EF7"></path>
                    <mask id="mask-8" fill="white">
                        <use xlink:href="#path-7"></use>
                    </mask>
                    <g id="Clip-24"></g>
                    <path d="M4.46163184,5.26712739 L4.46163184,5.26712739 C4.03296169,5.26712739 3.68223785,4.91622916 3.68223785,4.48734587 L3.68223785,0.781535925 C3.68223785,0.352687174 4.03296169,0.00175440814 4.46163184,0.00175440814 C4.89030198,0.00175440814 5.24102582,0.352687174 5.24102582,0.781535925 L5.24102582,4.48734587 C5.24102582,4.91622916 4.89030198,5.26712739 4.46163184,5.26712739" id="Fill-23" fill="#E4EBF7" mask="url(#mask-8)"></path>
                    <mask id="mask-10" fill="white">
                        <use xlink:href="#path-9"></use>
                    </mask>
                    <g id="Clip-26"></g>
                    <path d="M23.8131269,5.26712739 L23.8131269,5.26712739 C23.3844568,5.26712739 23.0337329,4.91622916 23.0337329,4.48734587 L23.0337329,0.781535925 C23.0337329,0.352687174 23.3844568,0.00175440814 23.8131269,0.00175440814 C24.241797,0.00175440814 24.5925209,0.352687174 24.5925209,0.781535925 L24.5925209,4.48734587 C24.5925209,4.91622916 24.241797,5.26712739 23.8131269,5.26712739" id="Fill-25" fill="#E4EBF7" mask="url(#mask-10)"></path>
                </g>
            </g>
            <g id="编组" fill-rule="nonzero">
                <g id="资源-19" transform="translate(15.966062, 3.756720)">
                    <path d="M42.1096573,21.1471573 C42.1096573,9.52241935 32.6834677,0 21.0552621,0 C9.42705645,0 0,9.52241935 0,21.1471573 C0,25.7479839 2.44302419,31.6908266 6.36590726,36.0723185 C10.2558468,40.4139315 11.3637903,47.7230645 11.3637903,53.5514718 L11.3637903,55.8367137 L30.7467339,55.8367137 L30.7467339,53.5705444 C30.7467339,47.7421371 31.8546774,40.446875 35.7246774,36.0913911 C39.6605645,31.6648185 42.1096573,25.1940121 42.1096573,21.1471573 Z" id="路径" fill="#FFE58F"></path>
                    <path d="M38.6445161,21.0899395 C38.6445161,11.3802621 30.771875,3.42439516 21.0552621,3.42439516 C11.3386492,3.42439516 3.46774194,11.3793952 3.46774194,21.0899395 C3.46774194,24.9365323 5.50764113,29.898871 8.78552419,33.5590726 C12.0347984,37.1863306 14.4474798,43.2921573 14.4474798,48.1608669 L14.4474798,50.068125 L27.6639113,50.068125 L27.6639113,48.1773387 C27.6639113,43.3077621 30.0765927,37.2132056 33.3102621,33.5746774 C36.5985484,29.8771976 38.6445161,24.4718548 38.6445161,21.0908065 L38.6445161,21.0899395 Z" id="路径" fill="#FFC53D"></path>
                    <path d="M26.3990524,66.5000202 L15.7114718,66.5000202 C15.3378226,66.5000202 14.9971169,66.2572782 14.794254,65.8584879 L13.3404032,62.0968548 L28.7718548,62.0968548 L27.318004,65.8584879 C27.1142742,66.2572782 26.7744355,66.5000202 26.4007863,66.5000202 L26.3990524,66.5000202 Z" id="路径" fill="#253369"></path>
                    <rect id="矩形" fill="#597EF7" x="10.9797379" y="47.1430847" width="20.1510484" height="16.5732056" rx="5.08696774"></rect>
                    <path d="M22.3582661,51.5839617 C22.5548116,51.5839617 22.7141431,51.8078193 22.7141431,52.0839617 C22.7141431,52.3528372 22.5630871,52.5721435 22.3737033,52.5834997 L22.3582661,52.5839617 L11.005746,52.5839617 C10.8092005,52.5839617 10.649869,52.3601041 10.649869,52.0839617 C10.649869,51.8150862 10.800925,51.5957799 10.9903088,51.5844236 L11.005746,51.5839617 L22.3582661,51.5839617 Z" id="路径" fill="#FFFFFF"></path>
                    <path d="M22.3582661,58.9520464 C22.5548116,58.9520464 22.7141431,59.175904 22.7141431,59.4520464 C22.7141431,59.7209218 22.5630871,59.9402282 22.3737033,59.9515844 L22.3582661,59.9520464 L11.005746,59.9520464 C10.8092005,59.9520464 10.649869,59.7281887 10.649869,59.4520464 C10.649869,59.1831709 10.800925,58.9638646 10.9903088,58.9525083 L11.005746,58.9520464 L22.3582661,58.9520464 Z" id="路径" fill="#FFFFFF"></path>
                    <path d="M31.0657661,55.2675706 C31.2623116,55.2675706 31.4216431,55.4914282 31.4216431,55.7675706 C31.4216431,56.036446 31.2705871,56.2557524 31.0812033,56.2671086 L31.0657661,56.2675706 L19.713246,56.2675706 C19.5167005,56.2675706 19.357369,56.0437129 19.357369,55.7675706 C19.357369,55.4986951 19.508425,55.2793888 19.6978088,55.2680325 L19.713246,55.2675706 L31.0657661,55.2675706 Z" id="路径" fill="#FFFFFF"></path>
                    <path d="M22.4913418,12.6479503 L14.5546091,24.7374239 C14.1275944,25.3928556 14.5869043,26.1988205 15.3562485,26.1988205 L18.9115947,26.1988205 L14.5402557,34.4558193 C14.2144326,35.1234953 15.0548264,35.7429143 15.5701147,35.2149677 L27.4583485,23.2717058 C28.0647811,22.6501261 27.634178,21.5884708 26.7758426,21.5884708 L21.3997629,21.5884708 L23.6489464,13.1751767 C23.824776,12.4570829 22.891085,12.0357339 22.4913418,12.6479503 Z" id="路径" fill="#FFFFFF"></path>
                </g>
            </g>
        </g>
    </g>
</svg>