<?xml version="1.0" encoding="UTF-8"?>
<svg width="952px" height="200px" viewBox="0 0 952 200" version="1.1" xmlns="http://www.w3.org/2000/svg" xmlns:xlink="http://www.w3.org/1999/xlink">
    <title>形状结合备份 2 + 形状结合备份 3 + 形状结合备份 4 + 形状结合 蒙版</title>
    <defs>
        <linearGradient x1="50%" y1="0%" x2="50%" y2="100%" id="linearGradient-1">
            <stop stop-color="#35C3FF" offset="0%"></stop>
            <stop stop-color="#1890FF" offset="100%"></stop>
        </linearGradient>
        <rect id="path-2" x="0" y="0" width="952" height="200" rx="16"></rect>
    </defs>
    <g id="web-能源经理工具" stroke="none" stroke-width="1" fill="none" fill-rule="evenodd">
        <g id="形状结合备份-2-+-形状结合备份-3-+-形状结合备份-4-+-形状结合-蒙版">
            <mask id="mask-3" fill="white">
                <use xlink:href="#path-2"></use>
            </mask>
            <use id="蒙版" fill="url(#linearGradient-1)" opacity="0.249325707" xlink:href="#path-2"></use>
            <path d="M658.916333,12.8672632 C663.334618,12.8672632 666.916333,16.6728347 666.916333,21.3672632 C666.916333,21.6605795 666.90235,21.9504256 666.875053,22.2360902 L667.822083,21.3672632 C668.372596,35.9631693 681.44598,40.5450838 687.450197,41.8824854 C687.604302,41.8720403 687.759792,41.8672632 687.916333,41.8672632 C692.334618,41.8672632 695.916333,45.6728347 695.916333,50.3672632 C695.916333,55.0616918 692.334618,58.8672632 687.916333,58.8672632 C684.454496,58.8672632 681.506239,56.53098 680.392018,53.2613963 L680.294927,53.3672632 C675.786301,31.2134171 661.67154,29.9949556 658.893674,29.9728017 L658.725509,29.9728805 C658.524294,29.9747709 658.416333,29.9826479 658.416333,29.9826479 L658.416333,29.9826479 L658.553147,29.85866 C654.303425,29.6569153 650.916333,25.9323687 650.916333,21.3672632 C650.916333,16.6728347 654.498047,12.8672632 658.916333,12.8672632 Z" id="形状结合备份-2" fill="#597EF7" opacity="0.203706287" mask="url(#mask-3)" transform="translate(673.391798, 35.975465) rotate(90.000000) translate(-673.391798, -35.975465) "></path>
            <path d="M574.369963,-11.912481 C578.512106,-11.912481 581.869963,-8.55462386 581.869963,-4.412481 C581.869963,-3.81210822 581.79942,-3.22821198 581.66617,-2.66862882 C583.902036,12.3967642 601.929026,14.0869295 601.929026,14.0869295 L601.929026,14.0869295 L601.796869,14.2302431 C604.88257,15.1598985 607.130037,18.0237223 607.130037,21.412481 C607.130037,25.5546239 603.77218,28.912481 599.630037,28.912481 C595.487894,28.912481 592.130037,25.5546239 592.130037,21.412481 L592.131762,21.3522736 C588.316094,6.92918705 579.667919,3.71247394 575.402464,3.01666218 C575.065247,3.06348301 574.720412,3.087519 574.369963,3.087519 C570.22782,3.087519 566.869963,-0.270338142 566.869963,-4.412481 C566.869963,-8.55462386 570.22782,-11.912481 574.369963,-11.912481 Z" id="形状结合备份-3" fill="#597EF7" opacity="0.106119792" mask="url(#mask-3)" transform="translate(587.000000, 8.500000) rotate(176.000000) translate(-587.000000, -8.500000) "></path>
            <path d="M514.315711,160.124237 L514.364,160.305 L514.392212,160.259838 C517.680845,170.151591 528.09471,170.133938 531.78015,169.799167 L531.639477,169.835865 C534.702102,168.969471 537.896744,170.716575 538.774971,173.738167 C539.653126,176.759779 537.882307,179.911639 534.819702,180.778106 C531.904694,181.60274 528.87009,180.059743 527.827069,177.303691 C520.023053,163.8669 509.86221,167.549921 509.86221,167.549921 L509.86221,167.549921 L510.054431,167.242017 C507.087821,167.912914 504.073957,166.182943 503.224948,163.261874 C502.346793,160.240262 504.117612,157.088401 507.180217,156.221935 C510.242842,155.355541 513.437484,157.102645 514.315711,160.124237 Z" id="形状结合备份-4" fill="#597EF7" opacity="0.106119792" mask="url(#mask-3)"></path>
            <path d="M968.849839,-18.7522456 C973.683879,-12.7176554 972.71028,-3.90721247 966.675728,0.926532475 C963.249694,3.67064006 958.929044,4.54310615 954.949339,3.68033296 C927.539681,8.11180564 921.351234,24.581576 919.96628,31.1356016 C920.023671,31.95686 920.007817,32.7955381 919.914146,33.6435552 C919.064988,41.3281499 912.147338,46.869429 904.462801,46.0202646 C896.777938,45.1714267 891.237027,38.2533979 892.085858,30.5688032 C892.935016,22.884535 899.852666,17.3429295 907.537203,18.1920939 C907.786772,18.219672 908.03408,18.2536508 908.278982,18.2938487 L907.548488,17.2883112 C932.202311,19.0798252 941.484082,-3.59336087 944.074711,-12.044494 C944.571255,-15.4196698 946.297294,-18.6240879 949.171513,-20.9263697 C955.206064,-25.7601147 964.016451,-24.7865093 968.849839,-18.7522456 Z" id="形状结合" fill="#597EF7" opacity="0.297688802" mask="url(#mask-3)" transform="translate(931.961845, 11.053091) rotate(331.000000) translate(-931.961845, -11.053091) "></path>
        </g>
    </g>
</svg>