<?xml version="1.0" standalone="no"?><!DOCTYPE svg PUBLIC "-//W3C//DTD SVG 1.1//EN" "http://www.w3.org/Graphics/SVG/1.1/DTD/svg11.dtd"><svg t="1681804910370" class="icon" viewBox="0 0 1024 1024" version="1.1" xmlns="http://www.w3.org/2000/svg" p-id="4320" xmlns:xlink="http://www.w3.org/1999/xlink" width="200" height="200"><path d="M85.333333 853.333333m21.333334 0l810.666666 0q21.333333 0 21.333334 21.333334l0 42.666666q0 21.333333-21.333334 21.333334l-810.666666 0q-21.333333 0-21.333334-21.333334l0-42.666666q0-21.333333 21.333334-21.333334Z" fill="#1890FF" p-id="4321"></path><path d="M85.333333 106.666667a21.333333 21.333333 0 0 1 21.333334-21.333334h213.333333a21.333333 21.333333 0 0 1 21.333333 21.333334V170.666667h341.333334V106.666667a21.333333 21.333333 0 0 1 21.333333-21.333334h213.333333a21.333333 21.333333 0 0 1 21.333334 21.333334v213.333333a21.333333 21.333333 0 0 1-21.333334 21.333333h-213.333333a21.333333 21.333333 0 0 1-21.333333-21.333333V256H341.333333v64a21.333333 21.333333 0 0 1-21.333333 21.333333h-213.333333a21.333333 21.333333 0 0 1-21.333334-21.333333v-213.333333z" fill="#1890FF" p-id="4322"></path><path d="M682.666667 554.666667h-128v85.333333h128v-85.333333zM768 640h128v-85.333333h-128v85.333333zM341.333333 554.666667h128v85.333333H341.333333v-85.333333zM256 554.666667H128v85.333333h128v-85.333333z" fill="#45BFBB" p-id="4323"></path></svg>