<?xml version="1.0" standalone="no"?><!DOCTYPE svg PUBLIC "-//W3C//DTD SVG 1.1//EN" "http://www.w3.org/Graphics/SVG/1.1/DTD/svg11.dtd"><svg t="1681804925330" class="icon" viewBox="0 0 1024 1024" version="1.1" xmlns="http://www.w3.org/2000/svg" p-id="4604" xmlns:xlink="http://www.w3.org/1999/xlink" width="200" height="200"><path d="M512 512m-426.666667 0a426.666667 426.666667 0 1 0 853.333334 0 426.666667 426.666667 0 1 0-853.333334 0Z" fill="#1890FF" p-id="4605"></path><path d="M768 847.274667C694.954667 904.96 606.848 938.666667 512 938.666667s-182.954667-33.706667-256-91.392C321.962667 771.84 412.330667 725.333333 512 725.333333s190.037333 46.506667 256 121.941334z" fill="#45BFBB" p-id="4606"></path><path d="M510.421333 721.834667c72.021333-13.013333 198.912-54.570667 274.986667-145.834667 85.333333-102.4 35.584-256 0-320-35.541333 49.792-106.666667 106.666667-234.666667 170.666667-90.368 45.226667-88.832 161.877333-73.301333 252.672 29.056-55.466667 70.656-123.306667 115.968-146.005334 78.72-39.338667 113.792-85.333333 128-106.666666-21.333333 42.666667-61.738667 98.048-106.666667 128-45.610667 30.421333-80.341333 104.106667-104.32 167.168z" fill="#FFFFFF" p-id="4607"></path><path d="M402.517333 640c-42.282667-8.32-116.821333-34.986667-161.493333-93.482667-50.133333-65.706667-20.906667-164.138667 0-205.184 20.906667 31.914667 62.634667 68.394667 137.813333 109.44 53.12 28.970667 52.181333 103.765333 43.093334 162.005334-17.066667-35.584-41.514667-79.104-68.138667-93.610667-46.250667-25.258667-66.858667-54.741333-75.178667-68.394667 12.501333 27.306667 36.266667 62.848 62.634667 82.048 26.794667 19.498667 47.232 66.773333 61.269333 107.178667z" fill="#FFFFFF" fill-opacity=".4" p-id="4608"></path></svg>