<?xml version="1.0" standalone="no"?><!DOCTYPE svg PUBLIC "-//W3C//DTD SVG 1.1//EN" "http://www.w3.org/Graphics/SVG/1.1/DTD/svg11.dtd"><svg t="1681804943289" class="icon" viewBox="0 0 1024 1024" version="1.1" xmlns="http://www.w3.org/2000/svg" p-id="4892" xmlns:xlink="http://www.w3.org/1999/xlink" width="200" height="200"><path d="M85.333333 768m21.333334 0l810.666666 0q21.333333 0 21.333334 21.333333l0 42.666667q0 21.333333-21.333334 21.333333l-810.666666 0q-21.333333 0-21.333334-21.333333l0-42.666667q0-21.333333 21.333334-21.333333Z" fill="#1890FF" p-id="4893"></path><path d="M85.333333 170.666667m21.333334 0l810.666666 0q21.333333 0 21.333334 21.333333l0 42.666667q0 21.333333-21.333334 21.333333l-810.666666 0q-21.333333 0-21.333334-21.333333l0-42.666667q0-21.333333 21.333334-21.333333Z" fill="#1890FF" p-id="4894"></path><path d="M85.333333 469.333333m21.333334 0l810.666666 0q21.333333 0 21.333334 21.333334l0 42.666666q0 21.333333-21.333334 21.333334l-810.666666 0q-21.333333 0-21.333334-21.333334l0-42.666666q0-21.333333 21.333334-21.333334Z" fill="#45BFBB" p-id="4895"></path><path d="M469.333333 426.666667m21.333334 0l42.666666 0q21.333333 0 21.333334 21.333333l0 128q0 21.333333-21.333334 21.333333l-42.666666 0q-21.333333 0-21.333334-21.333333l0-128q0-21.333333 21.333334-21.333333Z" fill="#FFFFFF" p-id="4896"></path><path d="M426.666667 384m21.333333 0l128 0q21.333333 0 21.333333 21.333333l0 213.333334q0 21.333333-21.333333 21.333333l-128 0q-21.333333 0-21.333333-21.333333l0-213.333334q0-21.333333 21.333333-21.333333Z" fill="#1890FF" p-id="4897"></path><path d="M170.666667 85.333333m21.333333 0l128 0q21.333333 0 21.333333 21.333334l0 213.333333q0 21.333333-21.333333 21.333333l-128 0q-21.333333 0-21.333333-21.333333l0-213.333333q0-21.333333 21.333333-21.333334Z" fill="#45BFBB" p-id="4898"></path><path d="M682.666667 682.666667m21.333333 0l128 0q21.333333 0 21.333333 21.333333l0 213.333333q0 21.333333-21.333333 21.333334l-128 0q-21.333333 0-21.333333-21.333334l0-213.333333q0-21.333333 21.333333-21.333333Z" fill="#74BCFF" p-id="4899"></path></svg>