<?xml version="1.0" standalone="no"?><!DOCTYPE svg PUBLIC "-//W3C//DTD SVG 1.1//EN" "http://www.w3.org/Graphics/SVG/1.1/DTD/svg11.dtd"><svg t="1681804931978" class="icon" viewBox="0 0 1024 1024" version="1.1" xmlns="http://www.w3.org/2000/svg" p-id="4747" xmlns:xlink="http://www.w3.org/1999/xlink" width="200" height="200"><path d="M128 320a234.752 234.752 0 0 1 144.042667-216.533333c13.056-5.461333 26.624 4.736 26.624 18.901333V277.333333a21.333333 21.333333 0 0 0 21.333333 21.333334h85.333333a21.333333 21.333333 0 0 0 21.333334-21.333334V122.368c0-14.165333 13.568-24.362667 26.624-18.901333a234.752 234.752 0 0 1-11.264 437.461333 22.698667 22.698667 0 0 0-15.36 21.034667V917.333333a21.333333 21.333333 0 0 1-21.333334 21.333334h-85.333333a21.333333 21.333333 0 0 1-21.333333-21.333334v-355.370666a22.698667 22.698667 0 0 0-15.36-21.034667A234.752 234.752 0 0 1 128 320z" fill="#1890FF" p-id="4748"></path><path d="M298.666667 768h128v149.333333a21.333333 21.333333 0 0 1-21.333334 21.333334h-85.333333a21.333333 21.333333 0 0 1-21.333333-21.333334V768z" fill="#45BFBB" p-id="4749"></path><path d="M640 554.666667m21.333333 0l213.333334 0q21.333333 0 21.333333 21.333333l0 341.333333q0 21.333333-21.333333 21.333334l-213.333334 0q-21.333333 0-21.333333-21.333334l0-341.333333q0-21.333333 21.333333-21.333333Z" fill="#45BFBB" p-id="4750"></path><path d="M725.333333 554.666667h85.333334v384h-85.333334z" fill="#FFFFFF" fill-opacity=".4" p-id="4751"></path><path d="M725.333333 256h85.333334v298.666667h-85.333334zM682.666667 106.666667a21.333333 21.333333 0 0 1 21.333333-21.333334h128a21.333333 21.333333 0 0 1 21.333333 21.333334v128a21.333333 21.333333 0 0 1-21.333333 21.333333h-128a21.333333 21.333333 0 0 1-21.333333-21.333333v-128z" fill="#1890FF" p-id="4752"></path><path d="M405.333333 426.666667a42.666667 42.666667 0 1 1-85.333333 0 42.666667 42.666667 0 0 1 85.333333 0z" fill="#FFFFFF" p-id="4753"></path></svg>