<?xml version="1.0" standalone="no"?><!DOCTYPE svg PUBLIC "-//W3C//DTD SVG 1.1//EN" "http://www.w3.org/Graphics/SVG/1.1/DTD/svg11.dtd"><svg t="1681804918490" class="icon" viewBox="0 0 1024 1024" version="1.1" xmlns="http://www.w3.org/2000/svg" p-id="4462" xmlns:xlink="http://www.w3.org/1999/xlink" width="200" height="200"><path d="M106.666667 128a21.333333 21.333333 0 0 0-21.333334 21.333333v725.333334a21.333333 21.333333 0 0 0 21.333334 21.333333h810.666666c11.776 0 21.333333-8.96 21.333334-20.053333V148.053333c0-11.093333-9.557333-20.053333-21.333334-20.053333h-810.666666zM554.666667 208.298667v309.930666L726.485333 341.333333l61.226667 59.434667L554.666667 640.725333v174.933334h298.666666V208.341333h-298.666666z" fill="#1890FF" p-id="4463"></path><path d="M469.333333 519.509333L355.413333 392.490667 170.666667 598.570667l63.573333 56.96 121.173333-135.253334L469.333333 647.381333v-127.829333z" fill="#FFFFFF" p-id="4464"></path><path d="M469.333333 42.666667m21.333334 0l42.666666 0q21.333333 0 21.333334 21.333333l0 896q0 21.333333-21.333334 21.333333l-42.666666 0q-21.333333 0-21.333334-21.333333l0-896q0-21.333333 21.333334-21.333333Z" fill="#45BFBB" p-id="4465"></path></svg>