<?xml version="1.0" encoding="UTF-8"?>
<svg width="12px" height="16px" viewBox="0 0 12 16" version="1.1" xmlns="http://www.w3.org/2000/svg" xmlns:xlink="http://www.w3.org/1999/xlink">
    <!-- Generator: Sketch 59 (86127) - https://sketch.com -->
    <title>箭头</title>
    <desc>Created with Sketch.</desc>
    <g id="定稿" stroke="none" stroke-width="1" fill="none" fill-rule="evenodd">
        <g id="对标库" transform="translate(-839.000000, -940.000000)">
            <g id="分组-16备份" transform="translate(669.000000, 885.000000)">
                <g id="箭头" transform="translate(166.000000, 53.000000)">
                    <rect id="矩形" fill="#000000" fill-rule="nonzero" opacity="0" x="0" y="0" width="20" height="20"></rect>
                    <path d="M15.8914,10.2392 L10.2378,17.5932 C10.1812,17.667 10.0928,17.7104 10,17.7104 C9.9066,17.7104 9.8188,17.667 9.7622,17.5932 L4.1082,10.2392 C4.0668,10.1852 4.046,10.1208 4.046,10.0562 C4.046,9.9928 4.066,9.9292 4.1066,9.8756 C4.1874,9.768 4.3308,9.7278 4.4562,9.7772 L8.2,11.256 L8.1996,2.5896 C8.2,2.4238 8.334,2.2896 8.5,2.2896 L11.4996,2.2896 C11.6656,2.2896 11.7996,2.4238 11.8,2.5896 L11.7996,11.256 L15.5434,9.777 C15.6688,9.7276 15.8122,9.7678 15.8934,9.8756 C15.9746,9.9834 15.9742,10.1322 15.8914,10.2392 Z" id="路径" fill="#FA8C16"></path>
                </g>
            </g>
        </g>
    </g>
</svg>