<?xml version="1.0" encoding="UTF-8"?>
<svg width="18px" height="18px" viewBox="0 0 18 18" version="1.1" xmlns="http://www.w3.org/2000/svg" xmlns:xlink="http://www.w3.org/1999/xlink">
    <!-- Generator: Sketch 59 (86127) - https://sketch.com -->
    <title>分组 31</title>
    <desc>Created with Sketch.</desc>
    <g id="定稿" stroke="none" stroke-width="1" fill="none" fill-rule="evenodd">
        <g id="对标库" transform="translate(-253.000000, -219.000000)">
            <g id="分组-31" transform="translate(252.000000, 218.000000)">
                <rect id="矩形" fill="#000000" opacity="0" x="0" y="0" width="20" height="20"></rect>
                <path d="M10,1.25 C14.826875,1.25 18.75,5.173125 18.75,10 C18.75,14.826875 14.826875,18.75 10,18.75 C5.173125,18.75 1.25,14.826875 1.25,10 C1.25,5.173125 5.173125,1.25 10,1.25 Z M10,17.5 C14.14,17.5 17.5,14.14 17.5,10 C17.5,5.86 14.14,2.5 10,2.5 C5.86,2.5 2.5,5.86 2.5,10 C2.5,14.14 5.86,17.5 10,17.5 Z M11.875,8.125 C11.875,7.43464406 12.4346441,6.875 13.125,6.875 C13.8153559,6.875 14.375,7.43464406 14.375,8.125 C14.375,8.81535594 13.8153559,9.375 13.125,9.375 C12.4346441,9.375 11.875,8.81535594 11.875,8.125 Z M5.625,8.125 C5.625,7.43464406 6.18464406,6.875 6.875,6.875 C7.56535594,6.875 8.125,7.43464406 8.125,8.125 C8.125,8.81535594 7.56535594,9.375 6.875,9.375 C6.18464406,9.375 5.625,8.81535594 5.625,8.125 Z M13.5875,14.4375 C13.251875,14.65625 12.8,14.554375 12.58125,14.21875 C12.0208175,13.3353769 11.0461457,12.8015494 10,12.805 C8.95,12.805 7.9875,13.33 7.41875,14.22 C7.2,14.555 6.748125,14.6575 6.4125,14.43875 C6.07543667,14.2204488 5.97773802,13.771035 6.19375,13.4325 C7.01858896,12.1280347 8.45664404,11.33982 10,11.34625 C11.5432333,11.3396847 12.9812616,12.1276487 13.80625,13.431875 C14.025,13.766875 13.923125,14.219375 13.5875,14.438125 L13.5875,14.4375 Z" id="形状" fill="#FA8C16"></path>
            </g>
        </g>
    </g>
</svg>