<?xml version="1.0" encoding="UTF-8"?>
<svg width="351px" height="102px" viewBox="0 0 351 102" version="1.1" xmlns="http://www.w3.org/2000/svg" xmlns:xlink="http://www.w3.org/1999/xlink">
    <title>切片</title>
    <defs>
        <linearGradient x1="50%" y1="0%" x2="50%" y2="100%" id="linearGradient-1">
            <stop stop-color="#228BB0" offset="0%"></stop>
            <stop stop-color="#154DFF" offset="100%"></stop>
        </linearGradient>
        <linearGradient x1="50%" y1="0%" x2="50%" y2="100%" id="linearGradient-2">
            <stop stop-color="#00DAFF" stop-opacity="0.280571357" offset="0%"></stop>
            <stop stop-color="#007DFF" stop-opacity="0.280571357" offset="100%"></stop>
        </linearGradient>
        <linearGradient x1="50%" y1="0%" x2="50%" y2="100%" id="linearGradient-3">
            <stop stop-color="#021B7C" offset="0%"></stop>
            <stop stop-color="#17213A" stop-opacity="0" offset="100%"></stop>
        </linearGradient>
        <linearGradient x1="50%" y1="0%" x2="50%" y2="100%" id="linearGradient-4">
            <stop stop-color="#72E8F3" stop-opacity="0.626792214" offset="0%"></stop>
            <stop stop-color="#21ACFF" stop-opacity="0.586449683" offset="100%"></stop>
        </linearGradient>
        <linearGradient x1="50%" y1="0%" x2="50%" y2="100%" id="linearGradient-5">
            <stop stop-color="#00DAFF" stop-opacity="0.280571357" offset="0%"></stop>
            <stop stop-color="#007DFF" stop-opacity="0.280571357" offset="100%"></stop>
        </linearGradient>
        <rect id="path-6" x="5" y="13" width="69" height="27"></rect>
        <filter x="-15.2%" y="-38.9%" width="130.4%" height="177.8%" filterUnits="objectBoundingBox" id="filter-7">
            <feOffset dx="0" dy="0" in="SourceAlpha" result="shadowOffsetOuter1"></feOffset>
            <feGaussianBlur stdDeviation="3.5" in="shadowOffsetOuter1" result="shadowBlurOuter1"></feGaussianBlur>
            <feComposite in="shadowBlurOuter1" in2="SourceAlpha" operator="out" result="shadowBlurOuter1"></feComposite>
            <feColorMatrix values="0 0 0 0 0   0 0 0 0 0   0 0 0 0 0  0 0 0 0.5 0" type="matrix" in="shadowBlurOuter1"></feColorMatrix>
        </filter>
        <linearGradient x1="50%" y1="0%" x2="50%" y2="100%" id="linearGradient-8">
            <stop stop-color="#CA9561" stop-opacity="0.500664131" offset="0%"></stop>
            <stop stop-color="#E7C79A" stop-opacity="0.503446139" offset="100%"></stop>
        </linearGradient>
        <rect id="path-9" x="5" y="13" width="69" height="38"></rect>
        <filter x="-13.0%" y="-23.7%" width="126.1%" height="147.4%" filterUnits="objectBoundingBox" id="filter-10">
            <feOffset dx="0" dy="0" in="SourceAlpha" result="shadowOffsetOuter1"></feOffset>
            <feGaussianBlur stdDeviation="3" in="shadowOffsetOuter1" result="shadowBlurOuter1"></feGaussianBlur>
            <feColorMatrix values="0 0 0 0 0   0 0 0 0 0   0 0 0 0 0  0 0 0 0.5 0" type="matrix" in="shadowBlurOuter1"></feColorMatrix>
        </filter>
        <linearGradient x1="50%" y1="0%" x2="50%" y2="100%" id="linearGradient-11">
            <stop stop-color="#7B5613" stop-opacity="0.675979294" offset="0%"></stop>
            <stop stop-color="#AD8538" stop-opacity="0" offset="100%"></stop>
        </linearGradient>
        <linearGradient x1="50%" y1="0%" x2="50%" y2="100%" id="linearGradient-12">
            <stop stop-color="#D2A270" offset="0%"></stop>
            <stop stop-color="#FEC277" offset="100%"></stop>
        </linearGradient>
        <filter x="-32.3%" y="-39.8%" width="164.6%" height="179.7%" filterUnits="objectBoundingBox" id="filter-13">
            <feOffset dx="0" dy="0" in="SourceAlpha" result="shadowOffsetOuter1"></feOffset>
            <feGaussianBlur stdDeviation="6.5" in="shadowOffsetOuter1" result="shadowBlurOuter1"></feGaussianBlur>
            <feColorMatrix values="0 0 0 0 0.390514982   0 0 0 0 0.317682336   0 0 0 0 0.0693043406  0 0 0 0.645833902 0" type="matrix" in="shadowBlurOuter1" result="shadowMatrixOuter1"></feColorMatrix>
            <feMerge>
                <feMergeNode in="shadowMatrixOuter1"></feMergeNode>
                <feMergeNode in="SourceGraphic"></feMergeNode>
            </feMerge>
        </filter>
        <linearGradient x1="50%" y1="0%" x2="50%" y2="100%" id="linearGradient-14">
            <stop stop-color="#BCBCBC" stop-opacity="0.497441645" offset="0%"></stop>
            <stop stop-color="#D8D8D8" stop-opacity="0.500135729" offset="100%"></stop>
        </linearGradient>
        <linearGradient x1="50%" y1="0%" x2="50%" y2="100%" id="linearGradient-15">
            <stop stop-color="#9F9F9F" stop-opacity="0.84819575" offset="0%"></stop>
            <stop stop-color="#BCBCBC" stop-opacity="0" offset="100%"></stop>
        </linearGradient>
        <linearGradient x1="50%" y1="0%" x2="50%" y2="100%" id="linearGradient-16">
            <stop stop-color="#A3A3A3" offset="0%"></stop>
            <stop stop-color="#C6C6C6" offset="100%"></stop>
        </linearGradient>
        <filter x="-42.4%" y="-34.3%" width="184.8%" height="168.6%" filterUnits="objectBoundingBox" id="filter-17">
            <feOffset dx="0" dy="0" in="SourceAlpha" result="shadowOffsetOuter1"></feOffset>
            <feGaussianBlur stdDeviation="7.5" in="shadowOffsetOuter1" result="shadowBlurOuter1"></feGaussianBlur>
            <feColorMatrix values="0 0 0 0 0.549800707   0 0 0 0 0.436051096   0 0 0 0 0.0530660842  0 0 0 0.601290189 0" type="matrix" in="shadowBlurOuter1" result="shadowMatrixOuter1"></feColorMatrix>
            <feMerge>
                <feMergeNode in="shadowMatrixOuter1"></feMergeNode>
                <feMergeNode in="SourceGraphic"></feMergeNode>
            </feMerge>
        </filter>
        <linearGradient x1="50%" y1="0%" x2="50%" y2="100%" id="linearGradient-18">
            <stop stop-color="#F7DA82" stop-opacity="0.503445285" offset="0%"></stop>
            <stop stop-color="#FCEFB8" stop-opacity="0.498146217" offset="100%"></stop>
        </linearGradient>
        <linearGradient x1="50%" y1="0%" x2="50%" y2="100%" id="linearGradient-19">
            <stop stop-color="#CE9837" stop-opacity="0.675979294" offset="0%"></stop>
            <stop stop-color="#DAA641" stop-opacity="0" offset="100%"></stop>
        </linearGradient>
        <filter x="-13.0%" y="-112.5%" width="126.1%" height="325.0%" filterUnits="objectBoundingBox" id="filter-20">
            <feGaussianBlur stdDeviation="3" in="SourceGraphic"></feGaussianBlur>
        </filter>
        <linearGradient x1="50%" y1="0%" x2="50%" y2="100%" id="linearGradient-21">
            <stop stop-color="#F3CA72" offset="0%"></stop>
            <stop stop-color="#FED777" offset="100%"></stop>
        </linearGradient>
    </defs>
    <g id="定稿修改" stroke="none" stroke-width="1" fill="none" fill-rule="evenodd">
        <g id="编组-15" transform="translate(0.000000, 8.000000)">
            <g id="编组-57">
                <rect id="矩形" fill="url(#linearGradient-1)" opacity="0.618180048" x="0" y="89" width="351" height="5"></rect>
                <polygon id="矩形" fill="#1672A8" points="43.5435823 81 307.456418 81 351 89 0 89"></polygon>
                <g id="编组-25" transform="translate(26.000000, 0.000000)">
                    <g id="编组-22" transform="translate(230.000000, 61.000000)">
                        <rect id="矩形" fill="url(#linearGradient-2)" x="5" y="13" width="69" height="12"></rect>
                        <rect id="矩形" fill="url(#linearGradient-3)" x="5" y="13" width="69" height="5"></rect>
                        <rect id="矩形" fill="url(#linearGradient-4)" x="0" y="8" width="79" height="5"></rect>
                        <polygon id="矩形" fill="#8B9EBE" points="9.80040741 0 69.1995926 0 79 8 0 8"></polygon>
                    </g>
                    <g id="编组-22" transform="translate(0.000000, 46.000000)">
                        <g id="矩形">
                            <use fill="black" fill-opacity="1" filter="url(#filter-7)" xlink:href="#path-6"></use>
                            <use fill="url(#linearGradient-5)" fill-rule="evenodd" xlink:href="#path-6"></use>
                        </g>
                        <rect id="矩形" fill="url(#linearGradient-3)" x="5" y="13" width="69" height="5"></rect>
                        <rect id="矩形" fill="url(#linearGradient-4)" x="0" y="8" width="79" height="5"></rect>
                        <polygon id="矩形" fill="#8B9EBE" points="9.80040741 0 69.1995926 0 79 8 0 8"></polygon>
                    </g>
                    <g id="编组-22" transform="translate(175.000000, 35.000000)">
                        <g id="矩形">
                            <use fill="black" fill-opacity="1" filter="url(#filter-10)" xlink:href="#path-9"></use>
                            <use fill="url(#linearGradient-8)" fill-rule="evenodd" xlink:href="#path-9"></use>
                        </g>
                        <rect id="矩形" fill="url(#linearGradient-11)" x="5" y="13" width="69" height="8"></rect>
                        <rect id="矩形" fill="url(#linearGradient-12)" x="0" y="8" width="79" height="5"></rect>
                        <polygon id="矩形" fill="#F8D5A6" points="9.80040741 0 69.1995926 0 79 8 0 8"></polygon>
                    </g>
                    <g id="编组-22" filter="url(#filter-13)" transform="translate(54.000000, 22.000000)">
                        <rect id="矩形" fill="url(#linearGradient-14)" x="5" y="13" width="69" height="51"></rect>
                        <rect id="矩形" fill="url(#linearGradient-15)" x="5" y="13" width="69" height="12"></rect>
                        <rect id="矩形" fill="url(#linearGradient-16)" x="0" y="8" width="79" height="5"></rect>
                        <polygon id="矩形" fill="#CECECE" points="9.80040741 0 69.1995926 0 79 8 0 8"></polygon>
                    </g>
                    <g id="编组-22" filter="url(#filter-17)" transform="translate(115.000000, 0.000000)">
                        <rect id="矩形" fill="url(#linearGradient-18)" x="5" y="13" width="69" height="73"></rect>
                        <rect id="矩形" fill="url(#linearGradient-19)" filter="url(#filter-20)" x="5" y="13" width="69" height="8"></rect>
                        <rect id="矩形" fill="url(#linearGradient-21)" x="0" y="8" width="79" height="5"></rect>
                        <polygon id="矩形" fill="#FFEDC2" points="9.80040741 0 69.1995926 0 79 8 0 8"></polygon>
                    </g>
                </g>
            </g>
            <text id="02" font-family="PingFangSC-Medium, PingFang SC" font-size="16" font-weight="400" fill="#E8E8E8">
                <tspan x="105.9" y="80">02</tspan>
            </text>
            <text id="04" font-family="PingFangSC-Medium, PingFang SC" font-size="12" font-weight="400" fill="#E8E8E8">
                <tspan x="53.3" y="78">04</tspan>
            </text>
            <g id="guanjun-2" transform="translate(179.179249, 38.000000) rotate(31.000000) translate(-179.179249, -38.000000) translate(163.179249, 24.000000)" fill-rule="nonzero">
                <path d="M11.942312,12.2787777 L6.36492036,9.5304133 C5.75065358,9.22629101 5.21552547,9.5341679 5.17030337,10.2175044 L4.77084154,16.4050789 C4.72561945,17.0884154 5.18914591,17.8881444 5.8071812,18.1922667 L11.3808043,20.9406311 C11.9950711,21.2447534 12.5339677,20.9368765 12.5754213,20.25354 L12.9748831,14.0659655 C13.0238737,13.382629 12.5565787,12.5829 11.942312,12.2787777 L11.942312,12.2787777 Z M24.7288591,4.92352379 L19.1514675,2.17515939 C18.5372007,1.8710371 17.9983041,2.17891398 17.9568505,2.86225049 L17.5573887,9.04607039 C17.5121666,9.7294069 17.975693,10.5291359 18.5937283,10.8332582 L24.1711199,13.5816226 C24.7853867,13.8857449 25.3242833,13.577868 25.3657369,12.8945315 L25.7651987,6.70695698 C25.8066523,6.02737507 25.3468944,5.22764608 24.7288591,4.92352379 L24.7288591,4.92352379 Z" id="形状" fill="#FEAE30"></path>
                <path d="M17.7959761,21.793695 C18.0256147,22.1564962 18.464748,22.2114661 18.8837376,21.9915866 L22.1832808,20.2545381 C22.5055806,20.0859638 22.6183854,19.7194979 22.4370919,19.4263252 C22.2517695,19.1331525 21.8408374,19.0342067 21.5185377,19.1991163 L19.3994172,20.3131727 L19.9473266,19.0965059 C20.5435811,17.7698993 20.7732196,17.0406321 20.1850227,16.1134734 L20.1769652,16.0988147 C19.5202795,15.0653809 18.2592819,14.8308427 16.9982844,15.494146 C16.0757015,15.977881 15.6969993,16.5788851 15.5358494,17.3484635 C15.5036195,17.5023792 15.5358494,17.6782828 15.6204531,17.8065459 C15.8178617,18.1143772 16.2449088,18.2169877 16.5792947,18.0410841 C16.7887895,17.9311443 16.8895082,17.76257 16.9177094,17.6306422 C17.0426006,17.1212546 17.2198654,16.8317466 17.6025963,16.6265256 C18.0820171,16.3773288 18.5775529,16.450622 18.8756801,16.9160337 C19.1657499,17.3741161 19.06906,17.8395278 18.6661853,18.7996685 L17.7556887,20.9984639 C17.638855,21.287972 17.6469125,21.5591568 17.7959761,21.793695 Z" id="路径" fill="#E5E5E5"></path>
                <path d="M31.7715277,14.3058421 C32.1918084,15.2558406 32.0156908,16.333798 31.3792657,17.1325721 C29.9022792,18.8697121 26.6360976,21.339708 22.5253519,23.6895001 C18.5066676,25.9811289 14.7841812,27.5243917 12.5146653,27.9625542 C11.4579595,28.1292886 10.3652296,27.7337791 9.70478852,26.8845968 C9.71679654,26.900107 9.72079921,26.9233723 9.7368099,26.9388824 L0.122388066,14.8874738 C0.12639074,14.8758412 0.146404108,14.8797187 0.130393413,14.8486984 C-0.141788387,14.3950257 0.0263239015,13.8095164 0.502642052,13.5458434 C0.682762362,13.4411497 0.886898712,13.421762 1.08302972,13.4372721 L9.98897834,15.2170651 L9.33654255,3.80545136 C9.32053186,3.32851337 9.57270029,2.85545293 10.0370104,2.59953499 C10.4692992,2.35524968 10.9776387,2.38239249 11.3819087,2.5917799 L21.3125418,8.88115724 L24.1184159,0.676272869 C24.1224186,0.676272869 24.1264213,0.707293226 24.1264213,0.695660592 C24.1944667,0.466885461 24.3545737,0.261375597 24.5867287,0.129539081 C25.0630469,-0.134133952 25.6634479,0.0170902876 25.9356297,0.470763006 C25.9476377,0.494028273 25.9516404,0.47464055 25.9676511,0.478518095 L31.8916079,14.4842092 C31.8515812,14.4221685 31.8035491,14.3795155 31.7715277,14.3058421 Z" id="路径" fill="#FED530"></path>
                <path d="M13.5147177,10.7955749 C16.1442614,9.27988958 19.5033431,10.1780734 21.0265544,12.8084691 C22.5417488,15.4388647 21.6438558,18.7990347 19.0143121,20.3227395 C16.3847684,21.8384248 13.0256867,20.9402409 11.5024754,18.3098453 C9.97926411,15.6794497 10.885174,12.3192796 13.5147177,10.7955749 L13.5147177,10.7955749 Z" id="路径" fill="#FEAE30"></path>
                <path d="M17.7456385,18.5655058 C17.9653794,18.9262117 18.4516911,19.0487156 18.8335359,18.8411396 C19.2153807,18.6335635 19.3450638,18.1741739 19.125323,17.8134679 L16.8810843,14.3187037 C16.6613434,13.9579978 16.1750317,13.8354939 15.7931869,14.0430699 L15.7751753,14.0532786 C15.584253,14.1553652 15.4113421,14.3084951 15.1916012,14.519474 L14.4459232,15.2579003 C14.2117731,15.4892966 14.1649431,15.8091679 14.3306493,16.074593 C14.5179694,16.3842557 14.9574511,16.4863423 15.281659,16.3059893 C15.3573075,16.2651547 15.4401606,16.197097 15.5050021,16.135845 L15.92287,15.747916 L17.7456385,18.5655058 L17.7456385,18.5655058 Z" id="路径" fill="#FED530"></path>
            </g>
            <g id="yajun" transform="translate(115.679249, 51.000000) rotate(-330.000000) translate(-115.679249, -51.000000) translate(107.179249, 43.000000)" fill-rule="nonzero">
                <path d="M6.5580902,6.6183149 L3.1048773,5.02715656 C2.72455723,4.85108576 2.39323545,5.02933028 2.36523643,5.42494615 L2.11791172,9.00722612 C2.0899127,9.40284199 2.37690269,9.86584298 2.75955601,10.0419138 L6.21043566,11.6330721 C6.59075573,11.8091429 6.92441076,11.6308984 6.95007653,11.2352825 L7.19740124,7.65300256 C7.22773352,7.25738669 6.93841027,6.7943857 6.5580902,6.6183149 L6.5580902,6.6183149 Z M14.4748141,2.36001 L11.0216012,0.768851667 C10.6412811,0.592780867 10.3076261,0.77102538 10.2819603,1.16664125 L10.0346356,4.74674751 C10.0066366,5.14236338 10.2936266,5.60536437 10.6762799,5.78143517 L14.1294928,7.37259351 C14.5098129,7.54866431 14.8434679,7.3704198 14.8691337,6.97480393 L15.1141251,3.39469767 C15.1421242,2.9990818 14.8574674,2.5360808 14.4748141,2.36001 L14.4748141,2.36001 Z" id="形状" fill="#C6C6C6"></path>
                <path d="M9.36550657,13.5267982 C9.4967286,13.7341132 9.74766194,13.7655245 9.98708457,13.6398791 L11.8725378,12.64728 C12.0567091,12.5509518 12.121169,12.3415427 12.0175727,12.1740155 C11.9116742,12.0064882 11.6768559,11.9499477 11.4926846,12.0441818 L10.2817586,12.6807855 L10.5948497,11.9855473 C10.9355666,11.2274864 11.0667886,10.8107623 10.730676,10.2809573 L10.7260718,10.2725809 C10.3508228,9.68204727 9.63025276,9.54802545 8.90968271,9.9270559 C8.38249247,10.2034759 8.16609124,10.5469068 8.07400562,10.9866659 C8.05558849,11.0746177 8.07400562,11.1751341 8.12235057,11.2484273 C8.23515547,11.4243309 8.47918239,11.4829655 8.67026007,11.3824491 C8.78997139,11.3196264 8.84752491,11.2232982 8.86363989,11.1479109 C8.93500625,10.8568323 9.03630045,10.6913991 9.25500382,10.57413 C9.52895857,10.4317318 9.81212188,10.4736136 9.98248029,10.7395632 C10.1482344,11.0013245 10.092983,11.2672741 9.86276897,11.8159259 L9.34248517,13.0723805 C9.27572308,13.2378136 9.28032737,13.3927764 9.36550657,13.5267982 Z" id="路径" fill="#E8E8E8"></path>
                <path d="M16.8786241,8.17476693 C17.1018982,8.71762318 17.0083357,9.33359883 16.6702349,9.79004122 C15.8855858,10.7826926 14.1504268,12.1941189 11.9665932,13.5368572 C9.83166718,14.8463594 7.85409628,15.7282238 6.64841596,15.9786024 C6.087041,16.0738792 5.50652825,15.8478738 5.1556689,15.3626267 C5.16204816,15.3714897 5.16417458,15.3847841 5.17268026,15.3936471 L0.0650186603,8.5071279 C0.0671450806,8.50048068 0.0777771822,8.50269642 0.0692715009,8.4849705 C-0.0753250806,8.22572895 0.0139845727,7.89115224 0.26702859,7.74048194 C0.362717505,7.68065696 0.471164941,7.66957826 0.575359536,7.67844122 L5.30664474,8.69546578 L4.96003823,2.17454363 C4.95153255,1.90200764 5.08549703,1.63168739 5.33216179,1.48544857 C5.56181518,1.34585696 5.83187056,1.36136714 6.04663901,1.48101709 L11.3222878,5.07494699 L12.8129085,0.38644164 C12.8150349,0.38644164 12.8171613,0.404167558 12.8171613,0.397520338 C12.8533104,0.266791692 12.9383673,0.149357484 13.0616996,0.074022332 C13.3147437,-0.0766479724 13.6337067,0.00976587865 13.7783033,0.269007432 C13.7846825,0.28230187 13.786809,0.271223172 13.7953146,0.273438911 L16.9424167,8.27669096 C16.9211525,8.24123912 16.8956355,8.21686599 16.8786241,8.17476693 Z" id="路径" fill="#E8E8E8"></path>
                <path d="M8.43409495,6.88373318 C9.86839151,6.05699576 11.7006179,6.54691423 12.5314604,7.98167548 C13.3579301,9.41643673 12.8681703,11.2492567 11.4338737,12.0803684 C9.99957717,12.9071059 8.16735077,12.4171874 7.33650825,10.9824261 C6.50566573,9.54766489 6.99979839,7.71484488 8.43409495,6.88373318 L8.43409495,6.88373318 Z" id="路径" fill="#C6C6C6"></path>
                <path d="M9.8420744,11.0449233 C9.94094575,11.2519889 10.1295337,11.2831601 10.3071359,11.1584754 L11.7206301,10.1676777 C11.8597823,10.0719376 11.9073871,9.86264553 11.8268252,9.69343063 C11.7480943,9.52421573 11.572323,9.46855294 11.4331708,9.56651946 L10.5250191,10.2033018 L10.7612118,9.50863015 C11.0157139,8.74938962 11.1164162,8.33080539 10.863745,7.80089558 L10.8600831,7.79198953 C10.5781167,7.19973738 10.0379861,7.06614667 9.49968657,7.44465368 C9.10603212,7.72074115 8.94124654,8.06585048 8.8716704,8.50669983 C8.85702279,8.59353379 8.8716704,8.69372682 8.90645847,8.77165473 C8.98885126,8.94754917 9.17194636,9.00766499 9.31842243,8.90747196 C9.40813903,8.84512962 9.4502509,8.74938962 9.4648985,8.6714617 C9.51982703,8.37978865 9.59306507,8.21280026 9.75785065,8.09924816 C9.96108621,7.95452489 10.1753075,7.99905513 10.3016431,8.26623655 C10.4261477,8.52896494 10.3822049,8.79391985 10.2119265,9.34164176 L9.82376489,10.5951679 C9.77432921,10.7532503 9.77616016,10.9068796 9.8420744,11.0449233 Z" id="路径" fill="#E8E8E8"></path>
            </g>
            <text id="01" font-family="PingFangSC-Medium, PingFang SC" font-size="16" font-weight="400" fill="#FED530">
                <tspan x="171.436" y="67">01</tspan>
            </text>
            <text id="05" font-family="PingFangSC-Medium, PingFang SC" font-size="12" font-weight="400" fill="#E8E8E8">
                <tspan x="294.3" y="85">05</tspan>
            </text>
            <text id="03" font-family="PingFangSC-Medium, PingFang SC" font-size="16" font-weight="400" fill="#D39357">
                <tspan x="234.9" y="84">03</tspan>
            </text>
            <g id="jijun" transform="translate(243.679249, 60.000000) rotate(-330.000000) translate(-243.679249, -60.000000) translate(235.179249, 52.000000)" fill-rule="nonzero">
                <path d="M5.6920648,7.1183149 L2.2388519,5.52715656 C1.85853183,5.35108576 1.52721005,5.52933028 1.49921103,5.92494615 L1.25188632,9.50722612 C1.22388729,9.90284199 1.51087729,10.365843 1.89353061,10.5419138 L5.34441026,12.1330721 C5.72473033,12.3091429 6.05838536,12.1308984 6.08405113,11.7352825 L6.33137584,8.15300256 C6.36170811,7.75738669 6.07238487,7.2943857 5.6920648,7.1183149 L5.6920648,7.1183149 Z M13.6087887,2.86001 L10.1555758,1.26885167 C9.77525573,1.09278087 9.4416007,1.27102538 9.41593493,1.66664125 L9.16861022,5.24674751 C9.1406112,5.64236338 9.42760119,6.10536437 9.81025451,6.28143517 L13.2634674,7.87259351 C13.6437875,8.04866431 13.9774425,7.8704198 14.0031083,7.47480393 L14.2480997,3.89469767 C14.2760988,3.4990818 13.991442,3.0360808 13.6087887,2.86001 L13.6087887,2.86001 Z" id="形状" fill="#AA733D"></path>
                <path d="M10.5899149,12.7969596 C10.6883314,13.0561034 10.8765314,13.0953676 11.0560984,12.9383108 L12.4701883,11.6975619 C12.6083168,11.5771517 12.6566617,11.3153903 12.5789645,11.1059812 C12.4995406,10.8965721 12.3234268,10.8258965 12.1852984,10.9436892 L11.2771039,11.7394437 L11.5119222,10.870396 C11.7674599,9.92281984 11.8658764,9.40191473 11.613792,8.73965848 L11.6103387,8.72918802 C11.328902,7.99102098 10.7884745,7.82349371 10.248047,8.29728177 C9.85265429,8.64280677 9.69035336,9.07209541 9.62128914,9.62179428 C9.6074763,9.73173405 9.62128914,9.8573795 9.65754786,9.94899598 C9.74215153,10.1688755 9.92517172,10.2421687 10.06848,10.1165233 C10.1582635,10.0379948 10.2014286,9.91758462 10.2135148,9.82335053 C10.2670396,9.45950223 10.3430103,9.25271075 10.5070378,9.10612439 C10.7125039,8.92812666 10.9248763,8.98047893 11.0526451,9.31291587 C11.1769607,9.64011757 11.1355222,9.9725545 10.9628617,10.6583693 L10.5726488,12.2289375 C10.5225772,12.4357289 10.5260305,12.6294323 10.5899149,12.7969596 Z" id="路径" fill="#E5E5E5"></path>
                <path d="M16.8786241,8.17476693 C17.1018982,8.71762318 17.0083357,9.33359883 16.6702349,9.79004122 C15.8855858,10.7826926 14.1504268,12.1941189 11.9665932,13.5368572 C9.83166718,14.8463594 7.85409628,15.7282238 6.64841596,15.9786024 C6.087041,16.0738792 5.50652825,15.8478738 5.1556689,15.3626267 C5.16204816,15.3714897 5.16417458,15.3847841 5.17268026,15.3936471 L0.0650186603,8.5071279 C0.0671450806,8.50048068 0.0777771822,8.50269642 0.0692715009,8.4849705 C-0.0753250806,8.22572895 0.0139845727,7.89115224 0.26702859,7.74048194 C0.362717505,7.68065696 0.471164941,7.66957826 0.575359536,7.67844122 L5.30664474,8.69546578 L4.96003823,2.17454363 C4.95153255,1.90200764 5.08549703,1.63168739 5.33216179,1.48544857 C5.56181518,1.34585696 5.83187056,1.36136714 6.04663901,1.48101709 L11.3222878,5.07494699 L12.8129085,0.38644164 C12.8150349,0.38644164 12.8171613,0.404167558 12.8171613,0.397520338 C12.8533104,0.266791692 12.9383673,0.149357484 13.0616996,0.074022332 C13.3147437,-0.0766479724 13.6337067,0.00976587865 13.7783033,0.269007432 C13.7846825,0.28230187 13.786809,0.271223172 13.7953146,0.273438911 L16.9424167,8.27669096 C16.9211525,8.24123912 16.8956355,8.21686599 16.8786241,8.17476693 Z" id="路径" fill="#CA9561"></path>
                <path d="M8.43409495,6.88373318 C9.86839151,6.05699576 11.7006179,6.54691423 12.5314604,7.98167548 C13.3579301,9.41643673 12.8681703,11.2492567 11.4338737,12.0803684 C9.99957717,12.9071059 8.16735077,12.4171874 7.33650825,10.9824261 C6.50566573,9.54766489 6.99979839,7.71484488 8.43409495,6.88373318 L8.43409495,6.88373318 Z" id="路径" fill="#AA733D"></path>
                <path d="M11.0102236,10.093682 C11.6122111,9.78794089 11.7642079,9.2731009 11.472214,8.82503196 L11.4682141,8.81800343 C11.1782201,8.37696303 10.7102299,8.39102009 10.3062383,8.52104794 L10.5422334,7.80940904 C10.5902324,7.66356699 10.6142319,7.55638188 10.5262337,7.42811116 C10.4342356,7.28578338 10.2482395,7.26294065 10.0742431,7.35079731 L8.76227042,8.02202214 C8.62427329,8.09230747 8.57427433,8.25220658 8.65427266,8.37520589 C8.734271,8.49644808 8.91626721,8.5403764 9.0562643,8.47009108 L9.88424706,8.05013627 L9.66825155,8.77758937 C9.63025235,8.90410295 9.63425226,8.98493107 9.6802513,9.0552164 C9.76024964,9.17645858 9.94224585,9.22038691 10.0822429,9.15010158 L10.174241,9.10265899 C10.5042342,8.93397421 10.7722286,8.94275988 10.9002259,9.13604452 L10.9042258,9.14307305 C11.0202234,9.32054349 10.9342252,9.512071 10.7122298,9.62452752 C10.5002342,9.73346977 10.3002384,9.75455536 10.0682432,9.71589844 C9.99824468,9.70711277 9.92024631,9.70535564 9.83624806,9.74752683 C9.68225126,9.82484069 9.62625243,10.0075825 9.7142506,10.1428818 C9.76424956,10.2166814 9.85624764,10.264124 9.93624598,10.278181 C10.2662391,10.330895 10.6262316,10.2887238 11.0102236,10.093682 L11.0102236,10.093682 Z" id="路径" fill="#CA9561"></path>
            </g>
        </g>
    </g>
</svg>