<?xml version="1.0" standalone="no"?><!DOCTYPE svg PUBLIC "-//W3C//DTD SVG 1.1//EN" "http://www.w3.org/Graphics/SVG/1.1/DTD/svg11.dtd"><svg t="1599795754365" class="icon" viewBox="0 0 1024 1024" version="1.1" xmlns="http://www.w3.org/2000/svg" p-id="3620" width="26" height="26" xmlns:xlink="http://www.w3.org/1999/xlink"><defs><style type="text/css"></style></defs><path d="M696.027429 480.036571H327.972571a8.045714 8.045714 0 0 0-7.972571 7.972572v47.981714c0 4.388571 3.657143 8.045714 8.045714 8.045714h367.908572c4.388571 0 8.045714-3.657143 8.045714-8.045714v-47.981714a8.045714 8.045714 0 0 0-8.045714-8.045714zM512 64a448 448 0 1 0 0 896A448 448 0 0 0 512 64.073143z m0 819.931429a372.077714 372.077714 0 1 1 0.146286-744.082286A372.077714 372.077714 0 0 1 512 884.004571z" fill="#000000" opacity=".65" p-id="3621"></path></svg>