<?xml version="1.0" standalone="no"?><!DOCTYPE svg PUBLIC "-//W3C//DTD SVG 1.1//EN" "http://www.w3.org/Graphics/SVG/1.1/DTD/svg11.dtd"><svg t="1599795694168" class="icon" viewBox="0 0 1024 1024" version="1.1" xmlns="http://www.w3.org/2000/svg" p-id="3465" width="26" height="26" xmlns:xlink="http://www.w3.org/1999/xlink"><defs><style type="text/css"></style></defs><path d="M512 64a448 448 0 1 1 0 896A448 448 0 0 1 512 64.073143z m0 76.068571a372.077714 372.077714 0 1 0 0.146286 744.082286A372.077714 372.077714 0 0 0 512 139.995429z m23.990857 179.931429c4.388571 0 8.045714 3.657143 8.045714 8.045714v151.917715h151.990858c4.388571 0 7.972571 3.657143 7.972571 8.045714v47.981714c0 4.388571-3.657143 8.045714-8.045714 8.045714H544.036571v151.990858c0 4.388571-3.584 7.972571-7.972571 7.972571h-47.981714a8.045714 8.045714 0 0 1-8.045715-8.045714V544.036571H328.045714a8.045714 8.045714 0 0 1-7.972571-7.972571v-47.981714c0-4.388571 3.657143-8.045714 8.045714-8.045715h151.917714V328.045714c0-4.388571 3.657143-7.972571 8.045715-7.972571z" fill="#000000" opacity=".65" p-id="3466"></path></svg>