<?xml version="1.0" encoding="UTF-8"?>
<svg width="16px" height="16px" viewBox="0 0 16 16" version="1.1" xmlns="http://www.w3.org/2000/svg" xmlns:xlink="http://www.w3.org/1999/xlink">
    <title>yonghuming</title>
    <g id="后台" stroke="none" stroke-width="1" fill="none" fill-rule="evenodd">
        <g id="经营分析" transform="translate(-1818.000000, -21.000000)" fill="#FFFFFF" fill-rule="nonzero">
            <g id="yonghuming" transform="translate(1818.000000, 21.000000)">
                <path d="M3.42857142,4.57142858 C3.42857142,7.096 5.47542858,9.14285714 8,9.14285714 C10.5245714,9.14285714 12.5714286,7.096 12.5714286,4.57142858 C12.5714286,2.04685714 10.5245714,0 8,0 C5.47542858,0 3.42857142,2.04685714 3.42857142,4.57142858 L3.42857142,4.57142858 L3.42857142,4.57142858 Z M4.57142858,10.2857143 C2.04685714,10.2857143 0,12.3325714 0,14.8571429 L0,14.8571429 C0,15.4883251 0.514227141,16 1.13785389,16 L14.8621461,16 C15.4905655,16 16,15.48874 16,14.8571429 L16,14.8571429 C16,12.3325714 13.9531429,10.2857143 11.4285714,10.2857143 L4.57142858,10.2857143 L4.57142858,10.2857143 Z" id="形状"></path>
            </g>
        </g>
    </g>
</svg>