<?xml version="1.0" encoding="UTF-8"?>
<svg width="32px" height="32px" viewBox="0 0 32 32" version="1.1" xmlns="http://www.w3.org/2000/svg" xmlns:xlink="http://www.w3.org/1999/xlink">
    <title>完成率-蓝色 copy</title>
    <g id="Page-1" stroke="none" stroke-width="1" fill="none" fill-rule="evenodd">
        <g id="完成率-蓝色-copy" fill-rule="nonzero">
            <rect id="Rectangle" fill="#000000" opacity="0" x="0" y="0" width="32" height="32"></rect>
            <path d="M2.90964625,0 L29.0912264,0 C30.690921,0 32,1.30907902 32,2.90877356 L32,29.0903537 C32,30.690921 30.690921,32 29.0903537,32 L2.90877356,32 C1.3039521,31.9952052 0.00431334365,30.6951765 0,29.0903537 L0,2.90877356 C0,1.30907899 1.30907902,0 2.90877356,0 L2.90964625,0 Z M5.52780427,10.6183762 C5.52780427,12.3638149 5.96416394,13.5271498 6.69113916,14.3998691 C7.41811437,15.2725884 8.43657783,15.563204 9.74565685,15.563204 C11.0547359,15.563204 12.0723266,15.1268443 12.8001745,14.3998691 C13.5271498,13.6728939 13.9635094,12.3638149 13.9635094,10.6183762 C13.9635094,8.87293753 13.5271497,7.70872991 12.8001745,6.83601056 C12.0723266,5.96329121 10.9089917,5.67267567 9.59991271,5.67267567 C8.29083369,5.67267567 7.27237024,6.10903535 6.54539502,6.83601056 C5.81841981,7.56385851 5.52693157,8.8729375 5.52693157,10.6183762 L5.52780427,10.6183762 Z M8.29083369,10.6183762 C8.29083369,9.45416861 8.43657783,8.58144926 8.72719337,8.14508959 C8.8729375,7.85447405 9.16355304,7.70872991 9.59991271,7.70872991 C10.0362724,7.70872991 10.3268879,7.85447405 10.4726321,8.14508959 C10.7632476,8.58144926 10.9089917,9.30929717 10.9089917,10.6183762 C10.9089917,11.7817111 10.7632476,12.6544304 10.4726321,13.0907901 C10.3268879,13.3814056 9.89052825,13.5271498 9.59991271,13.5271498 C9.16355304,13.5271498 8.8729375,13.3814056 8.72719337,13.0907901 C8.43657783,12.6544304 8.29083369,11.7817111 8.29083369,10.6183762 Z M12.3638149,25.4546049 L22.2543431,5.67267567 L19.6361851,5.67267567 L9.74565685,25.4546049 L12.3638149,25.4546049 Z M18.181362,20.5089045 C18.181362,22.2543431 18.6177217,23.417678 19.3455696,24.2903974 C20.0725448,25.1631167 21.0910082,25.4546049 22.4000873,25.4546049 C23.7091663,25.4546049 24.726757,25.0182453 25.4546049,24.2903974 C26.1815802,23.5634221 26.6179398,22.2543432 26.6179398,20.5089045 C26.6179398,18.7634658 26.1815802,17.6001309 25.4546049,16.7274115 C24.726757,15.8546922 23.7091663,15.563204 22.4000873,15.563204 C21.0910082,15.563204 20.0725448,15.9995636 19.3455696,16.7274115 C18.6177216,17.4543868 18.181362,18.9092099 18.181362,20.5089045 Z M20.9452641,20.5089045 C20.9452641,19.3455696 21.0910083,18.4728502 21.3816238,18.0364906 C21.5273679,17.7450023 21.8179835,17.6001309 22.2543431,17.6001309 C22.6907028,17.6001309 22.9813183,17.7450023 23.1270625,18.0364906 C23.417678,18.4728502 23.5634221,19.1998255 23.5634221,20.5089045 C23.5634221,21.8179835 23.417678,22.5449587 23.1270625,22.9813183 C22.9813183,23.2728066 22.6907028,23.417678 22.2543431,23.417678 C21.8179834,23.417678 21.5273679,23.2728066 21.3816238,22.9813183 C21.0910083,22.5449587 20.9452641,21.6722393 20.9452641,20.5089045 Z" id="Shape" fill="#1EFF91"></path>
        </g>
    </g>
</svg>