<?xml version="1.0" encoding="UTF-8"?>
<svg width="32px" height="32px" viewBox="0 0 32 32" version="1.1" xmlns="http://www.w3.org/2000/svg" xmlns:xlink="http://www.w3.org/1999/xlink">
    <title>时间 copy</title>
    <g id="Page-1" stroke="none" stroke-width="1" fill="none" fill-rule="evenodd">
        <g id="首页交互" transform="translate(-1717.000000, -977.000000)" fill-rule="nonzero">
            <g id="Group-19" transform="translate(1717.000000, 956.000000)">
                <g id="时间-copy" transform="translate(0.000000, 21.000000)">
                    <rect id="Rectangle" fill="#000000" opacity="0" x="0" y="0" width="32" height="32"></rect>
                    <path d="M16,1.88235294 C8.20378151,1.88235294 1.88235294,8.20378151 1.88235294,16 C1.88235294,23.7962185 8.20378151,30.1176471 16,30.1176471 C23.7962185,30.1176471 30.1176471,23.7962185 30.1176471,16 C30.1176471,8.20378151 23.7962185,1.88235294 16,1.88235294 Z M21.8897059,16.677521 C21.8897059,17.3266807 21.3571429,17.8592437 20.7079832,17.8592437 L15.1995798,17.8592437 C14.6228992,17.8592437 14.1407563,17.4432773 14.039916,16.894958 C14.0052521,16.7815126 13.9863445,16.664916 13.9863445,16.5420168 L13.9863445,9.05147059 C13.9863445,8.40231092 14.5189076,7.8697479 15.1680672,7.8697479 L15.3445378,7.8697479 C15.9936975,7.8697479 16.5262605,8.40231092 16.5262605,9.05147059 L16.5262605,15.3193277 L20.7111345,15.3193277 C21.3602941,15.3193277 21.8928571,15.8518908 21.8928571,16.5010504 L21.8928571,16.677521 L21.8897059,16.677521 Z" id="Shape" fill="#FF9400"></path>
                </g>
            </g>
        </g>
    </g>
</svg>