<?xml version="1.0" encoding="UTF-8"?>
<svg width="32px" height="32px" viewBox="0 0 32 32" version="1.1" xmlns="http://www.w3.org/2000/svg" xmlns:xlink="http://www.w3.org/1999/xlink">
    <title>总数</title>
    <g id="Page-1" stroke="none" stroke-width="1" fill="none" fill-rule="evenodd">
        <g id="首页交互" transform="translate(-1486.000000, -851.000000)" fill-rule="nonzero">
            <g id="Group-25-Copy-4" transform="translate(1486.000000, 830.000000)">
                <g id="总数" transform="translate(0.000000, 21.000000)">
                    <rect id="Rectangle" fill="#000000" opacity="0" x="0" y="0" width="32" height="32"></rect>
                    <path d="M25.8693871,20.7236916 C26.160383,20.5875803 26.2356577,20.5817764 26.5121739,20.7179131 L28.8820033,21.8619406 C29.4828267,22.1530004 29.4828267,22.6265263 28.8748016,22.9176116 L17.4222079,28.4494537 C17.1254098,28.5913689 16.7244283,28.6666667 16.3335496,28.6666667 C15.9412204,28.6666667 15.541664,28.5971727 15.2434408,28.4494537 L3.79082173,22.9176116 C3.18859877,22.6265263 3.18859877,22.1515495 3.79082173,21.8619406 L6.05211617,20.7714973 C6.41691086,20.5948096 6.53274938,20.5948096 6.93808248,20.79176 C7.10794178,20.8750597 8.85515555,21.7189114 10.7041298,22.6115375 L11.4984756,22.9950025 C13.434407,23.9295158 15.250668,24.8059621 15.250668,24.8059621 C15.5474406,24.9478773 15.9484476,25.0231751 16.3393263,25.0231751 C16.7331061,25.0231751 17.1254099,24.9478773 17.4294351,24.807413 C17.4294351,24.807413 19.2152246,23.9424883 21.1446937,23.008391 L21.673241,22.75252 C23.7035361,21.7696906 25.7277071,20.7903242 25.8693871,20.7236916 Z M26.5121739,13.9942633 L28.8820033,15.1382908 C29.4842517,15.4293507 29.4842517,15.902902 28.8675489,16.1867324 L17.4163804,21.7185744 C17.1181572,21.8619406 16.7186008,21.9357875 16.3262716,21.9357875 C15.9339423,21.9357875 15.5344113,21.8619406 15.2361627,21.72 L3.78501964,16.1881834 C3.18277123,15.8970981 3.18277123,15.4221212 3.78501964,15.131036 L6.0448381,14.0420436 C6.41110874,13.8653814 6.52692182,13.8653814 6.93228037,14.0623317 C7.3043277,14.2447978 15.2434154,18.0765338 15.2434154,18.0765338 C15.5416385,18.218449 15.9412204,18.2937469 16.3335242,18.2937468 C16.725828,18.2937468 17.1181572,18.218449 17.4221825,18.0765338 C17.4221825,18.0765338 19.375743,17.1329177 21.4047974,16.1532738 L21.9345936,15.897494 C23.8744033,14.9610144 25.7338671,14.0637789 25.8693871,14.0000672 C26.160383,13.8653814 26.2356577,13.8581266 26.5121739,13.9942633 Z M16.3393263,2.66703691 C16.7144854,2.66074108 17.0866499,2.73480276 17.4308348,2.8842499 L28.8805782,8.41464102 C29.4842517,8.70570083 29.4842517,9.18070314 28.8805782,9.47176295 L17.4294097,15.003605 C17.1311865,15.1455202 16.7330806,15.220818 16.3393008,15.220818 C15.9469716,15.220818 15.5474406,15.1455202 15.249192,15.003605 L3.79804893,9.47176295 C3.19580051,9.18070314 3.19580051,8.70570083 3.79804893,8.41609199 L15.250668,2.8842499 C15.5474406,2.74085829 15.9484476,2.66703691 16.3393263,2.66703691 Z" id="Combined-Shape" fill="#FF3B3F"></path>
                </g>
            </g>
        </g>
    </g>
</svg>