<?xml version="1.0" encoding="UTF-8"?>
<svg width="32px" height="32px" viewBox="0 0 32 32" version="1.1" xmlns="http://www.w3.org/2000/svg" xmlns:xlink="http://www.w3.org/1999/xlink">
    <title>时间-绿色</title>
    <g id="Page-1" stroke="none" stroke-width="1" fill="none" fill-rule="evenodd">
        <g id="首页交互" transform="translate(-1486.000000, -977.000000)" fill-rule="nonzero">
            <g id="Group-13" transform="translate(1486.000000, 956.000000)">
                <g id="时间-绿色" transform="translate(0.000000, 21.000000)">
                    <rect id="Rectangle" fill="#000000" opacity="0" x="0" y="0" width="32" height="32"></rect>
                    <path d="M16,2.125 C8.26875,2.125 2,8.39375 2,16.125 C2,23.85625 8.26875,30.125 16,30.125 C23.73125,30.125 30,23.85625 30,16.125 C30,8.39375 23.73125,2.125 16,2.125 Z M21.840625,16.796875 C21.840625,17.440625 21.3125,17.96875 20.66875,17.96875 L15.20625,17.96875 C14.634375,17.96875 14.15625,17.55625 14.05625,17.0125 C14.021875,16.9 14.003125,16.784375 14.003125,16.6625 L14.003125,9.234375 C14.003125,8.590625 14.53125,8.0625 15.175,8.0625 L15.35,8.0625 C15.99375,8.0625 16.521875,8.590625 16.521875,9.234375 L16.521875,15.45 L20.671875,15.45 C21.315625,15.45 21.84375,15.978125 21.84375,16.621875 L21.84375,16.796875 L21.840625,16.796875 Z" id="Shape" fill="#1EFF91"></path>
                </g>
            </g>
        </g>
    </g>
</svg>