<?xml version="1.0" encoding="UTF-8"?>
<svg width="33px" height="33px" viewBox="0 0 33 33" version="1.1" xmlns="http://www.w3.org/2000/svg" xmlns:xlink="http://www.w3.org/1999/xlink">
    <title>编组 8</title>
    <g id="定稿修改" stroke="none" stroke-width="1" fill="none" fill-rule="evenodd">
        <g id="整体" transform="translate(-1699.000000, -857.000000)" fill="#FE4B4E" fill-rule="nonzero">
            <g id="编组-8" transform="translate(1699.000000, 857.000000)">
                <circle id="椭圆形备份-20" fill-opacity="0.2" cx="16.5" cy="16.5" r="16.5"></circle>
                <path d="M20.5384615,8 C20.8570874,8 21.1153846,8.26862915 21.1153846,8.6 C21.1153846,8.93137085 20.8570874,9.20000001 20.5384615,9.20000001 L19.9615385,9.20000001 L19.9615385,10.4 L21.6923077,10.4 C22.3043458,10.4 22.8913163,10.6528564 23.3240926,11.1029437 C23.7568688,11.553031 24,12.1634804 24,12.8 L24,22.4 C24,23.7254834 22.966811,24.8 21.6923077,24.8 L21.6923077,25.4 C21.6923077,25.7313708 21.4340104,26 21.1153846,26 C20.7967588,26 20.5384615,25.7313708 20.5384615,25.4 L20.5384615,24.8 L14.7692308,24.8 L14.7692308,25.4 C14.7692308,25.7313708 14.5109335,26 14.1923077,26 C13.8736819,26 13.6153846,25.7313708 13.6153846,25.4 L13.6153846,24.8 C12.3408813,24.8 11.3076923,23.7254834 11.3076923,22.4 L11.3076923,21.8 L10.1538461,21.8 C9.51659451,21.8 9,21.2627417 9,20.6 L9,19.4 C9,18.7372583 9.51659452,18.2 10.1538461,18.2 L11.3076923,18.2 L11.3076923,12.8 C11.3076923,12.1634804 11.5508235,11.553031 11.9835997,11.1029437 C12.416376,10.6528564 13.0033466,10.4 13.6153846,10.4 L15.3461538,10.4 L15.3461538,9.20000001 L14.7692308,9.20000001 C14.4506049,9.20000001 14.1923077,8.93137085 14.1923077,8.6 C14.1923077,8.26862915 14.4506049,8 14.7692308,8 L20.5384615,8 Z M20.5,21 L14.5,21 C14.2238576,21 14,21.2238576 14,21.5 C14,21.7761424 14.2238576,22 14.5,22 L14.5,22 L20.5,22 C20.7761424,22 21,21.7761424 21,21.5 C21,21.2238576 20.7761424,21 20.5,21 L20.5,21 Z M16.3333333,19 L13.6666666,19 C13.2984768,19 13,19.2238576 13,19.5 C13,19.7761424 13.2984768,20 13.6666666,20 L13.6666666,20 L16.3333333,20 C16.7015232,20 17,19.7761424 17,19.5 C17,19.2238576 16.7015232,19 16.3333333,19 L16.3333333,19 Z M21.5,19 L19.5,19 C19.2238576,19 19,19.2238576 19,19.5 C19,19.7761424 19.2238576,20 19.5,20 L19.5,20 L21.5,20 C21.7761424,20 22,19.7761424 22,19.5 C22,19.2238576 21.7761424,19 21.5,19 L21.5,19 Z" id="形状结合"></path>
            </g>
        </g>
    </g>
</svg>