<?xml version="1.0" encoding="UTF-8"?>
<svg width="33px" height="33px" viewBox="0 0 33 33" version="1.1" xmlns="http://www.w3.org/2000/svg" xmlns:xlink="http://www.w3.org/1999/xlink">
    <title>编组 42</title>
    <g id="定稿修改" stroke="none" stroke-width="1" fill="none" fill-rule="evenodd">
        <g id="整体" transform="translate(-1481.000000, -991.000000)" fill="#FFCB20" fill-rule="nonzero">
            <g id="编组-42" transform="translate(1481.000000, 991.000000)">
                <circle id="椭圆形备份-22" fill-opacity="0.15" cx="16.5" cy="16.5" r="16.5"></circle>
                <g id="zhaoming" transform="translate(9.000000, 8.000000)">
                    <path d="M8.00201138,4 C11.3163144,4 14.002008,6.39210998 14,9.34190078 C14,11.7214585 12.2531843,13.733413 9.83948516,14.4255828 L9.83948516,14.4255828 L9.83948516,15.5732218 C9.83948516,15.8081291 9.62390436,16 9.35996898,16 L9.35996898,16 L6.64002424,16 C6.37608886,16 6.16050806,15.8081291 6.16050806,15.5732218 L6.16050806,15.5732218 L6.16050806,14.4255828 C3.74680895,13.733413 2,11.7196653 2,9.34190078 C2,6.39210998 4.68770835,4 8.00201138,4 Z M7.99999962,6.52631579 C6.89499463,6.52631579 5.99999962,7.43397416 5.99999962,8.55461376 C5.99999962,9.46848216 6.59519013,10.2407135 7.41409224,10.4945728 L7.41409224,10.4945728 L7.40726151,10.5809213 L7.40726151,12.2409806 C7.40726151,12.5733906 7.67222714,12.8421053 7.99999944,12.8421053 C8.32580902,12.8421053 8.59077465,12.5733906 8.59273736,12.2409806 L8.59273736,12.2409806 L8.59273736,10.5809213 C8.59273736,10.5514114 8.59064914,10.5224035 8.58590688,10.4945728 C9.40480887,10.2407135 9.99999962,9.46848216 9.99999962,8.55461376 C9.99999962,7.43397416 9.10304153,6.52631579 7.99999962,6.52631579 Z" id="形状结合"></path>
                    <path d="M7.5,8 C7.77524038,8 8,8.22355769 8,8.5 C8,8.77524038 7.77644231,9 7.5,9 C7.22475962,9 7,8.77644231 7,8.5 C7,8.22475962 7.22355769,8 7.5,8" id="路径"></path>
                    <path d="M9.41811175,18 L6.58188825,18 C6.26011561,18 6,17.7764901 6,17.5 C6,17.2235099 6.26011561,17 6.58188825,17 L9.41811175,17 C9.73988439,17 10,17.2235099 10,17.5 C10,17.7764901 9.73795761,18 9.41811175,18 L9.41811175,18 Z" id="路径"></path>
                    <path d="M7.5,2 C7.22350993,2 7,1.79529947 7,1.54207733 L7,0.457922669 C7,0.204700531 7.22350993,0 7.5,0 C7.77649007,0 8,0.204700531 8,0.457922669 L8,1.54359363 C7.99834437,1.79529947 7.77483444,2 7.5,2 Z" id="路径"></path>
                    <path d="M12.5672625,5 C12.4223895,5 12.2775165,4.94597112 12.1665099,4.8360503 C11.9444967,4.61620866 11.9444967,4.2603633 12.1665099,4.04238472 L13.0319849,3.16488123 C13.2539981,2.94503959 13.6133584,2.94503959 13.8334901,3.16488123 C14.0555033,3.38472287 14.0555033,3.74056823 13.8334901,3.95854681 L12.9680151,4.8360503 C12.8570085,4.94597112 12.7121355,5 12.5672625,5 L12.5672625,5 Z" id="路径"></path>
                    <path d="M2.45870736,5 C2.32046679,5 2.18222621,4.94777127 2.07630162,4.84151283 L1.15888689,3.92660964 C0.947037702,3.71409275 0.947037702,3.37010356 1.15888689,3.15938766 C1.37073609,2.94687078 1.71364452,2.94687078 1.92369838,3.15938766 L2.84111311,4.07429086 C3.0529623,4.28680774 3.0529623,4.63079694 2.84111311,4.84151283 C2.73698384,4.94777127 2.59874327,5 2.45870736,5 Z" id="路径"></path>
                    <path d="M1.52139461,10 L0.478605388,10 C0.213946117,10 0,9.77649007 0,9.5 C0,9.22350993 0.213946117,9 0.478605388,9 L1.52139461,9 C1.78605388,9 2,9.22350993 2,9.5 C2,9.77649007 1.78605388,10 1.52139461,10 Z" id="路径"></path>
                    <path d="M15.5065359,10 L14.4934641,10 C14.2205882,10 14,9.77649007 14,9.5 C14,9.22350993 14.2205882,9 14.4934641,9 L15.5065359,9 C15.7794118,9 16,9.22350993 16,9.5 C16,9.77649007 15.7794118,10 15.5065359,10 Z" id="路径"></path>
                </g>
            </g>
        </g>
    </g>
</svg>