<?xml version="1.0" encoding="UTF-8"?>
<svg width="33px" height="33px" viewBox="0 0 33 33" version="1.1" xmlns="http://www.w3.org/2000/svg" xmlns:xlink="http://www.w3.org/1999/xlink">
    <title>编组 49</title>
    <g id="定稿修改" stroke="none" stroke-width="1" fill="none" fill-rule="evenodd">
        <g id="整体" transform="translate(-1699.000000, -991.000000)">
            <g id="编组-49" transform="translate(1699.000000, 991.000000)">
                <circle id="椭圆形" fill-opacity="0.15" fill="#46C668" cx="16.5" cy="16.5" r="16.5"></circle>
                <g id="编组-14" transform="translate(9.000000, 9.000000)" fill="#00B261" fill-rule="nonzero">
                    <path d="M1.3125,0 L5.6875,0 C6.41237374,0 7,0.587626265 7,1.3125 L7,5.6875 C7,6.41237374 6.41237374,7 5.6875,7 L1.3125,7 C0.587626265,7 0,6.41237374 0,5.6875 L0,1.3125 C0,0.587626265 0.587626265,0 1.3125,0 Z" id="路径"></path>
                    <path d="M1.3125,8 L5.6875,8 C6.41237374,8 7,8.58762626 7,9.3125 L7,13.6875 C7,14.4123737 6.41237374,15 5.6875,15 L1.3125,15 C0.587626265,15 0,14.4123737 0,13.6875 L0,9.3125 C0,8.58762626 0.587626265,8 1.3125,8 Z" id="路径"></path>
                    <path d="M11.5,0 C13.4329966,0 15,1.56700338 15,3.5 C15,5.43299662 13.4329966,7 11.5,7 C9.56700338,7 8,5.43299662 8,3.5 C8,1.56700338 9.56700338,0 11.5,0 Z M11.5,1.3125 C10.7184815,1.3125 9.99632865,1.72943513 9.6055694,2.40624999 C9.21481015,3.08306485 9.21481015,3.91693515 9.6055694,4.59375001 C9.99632865,5.27056487 10.7184815,5.6875 11.5,5.6875 C12.7081229,5.6875 13.6875,4.70812288 13.6875,3.5 C13.6875,2.29187712 12.7081229,1.3125 11.5,1.3125 Z" id="形状结合"></path>
                    <path d="M9.3125,8 L13.6875,8 C14.4123737,8 15,8.58762626 15,9.3125 L15,13.6875 C15,14.4123737 14.4123737,15 13.6875,15 L9.3125,15 C8.58762626,15 8,14.4123737 8,13.6875 L8,9.3125 C8,8.58762626 8.58762626,8 9.3125,8 Z" id="路径"></path>
                </g>
            </g>
        </g>
    </g>
</svg>