<?xml version="1.0" encoding="UTF-8"?>
<svg width="896px" height="455px" viewBox="0 0 896 455" version="1.1" xmlns="http://www.w3.org/2000/svg" xmlns:xlink="http://www.w3.org/1999/xlink">
    <title>编组 34</title>
    <defs>
        <path d="M767.457396,0.00124430364 L859.751833,0.00124430364 C867.678514,2.03042577 871.641855,5.98461233 871.641855,11.863804 L871.641,40.43 L872,40.4309895 L872,422.430989 C872,426.849267 868.418278,430.430989 864,430.430989 L8,430.430989 C3.581722,430.430989 5.41083001e-16,426.849267 0,422.430989 L0,48.4309895 C-5.41083001e-16,44.0127115 3.581722,40.4309895 8,40.4309895 L718.291279,40.4312194 C726.859664,38.1307836 733.395701,34.3487217 737.89939,29.0850338 C745.244871,20.5 745.244871,15.5885574 747.708225,11.863804 C748.838562,10.1546588 750.6274,3.75112238 756.732848,1.14668336 C758.583953,0.357045585 762.158803,-0.0247674329 767.457396,0.00124430364 Z" id="path-1"></path>
        <filter x="-2.4%" y="-4.4%" width="104.4%" height="108.8%" filterUnits="objectBoundingBox" id="filter-2">
            <feOffset dx="-2" dy="0" in="SourceAlpha" result="shadowOffsetOuter1"></feOffset>
            <feGaussianBlur stdDeviation="6" in="shadowOffsetOuter1" result="shadowBlurOuter1"></feGaussianBlur>
            <feColorMatrix values="0 0 0 0 0.552440995   0 0 0 0 0.598138284   0 0 0 0 0.66627812  0 0 0 0.353096488 0" type="matrix" in="shadowBlurOuter1"></feColorMatrix>
        </filter>
    </defs>
    <g id="后台" stroke="none" stroke-width="1" fill="none" fill-rule="evenodd">
        <g id="经营分析——弹框" transform="translate(-67.000000, -678.000000)">
            <g id="编组-24" transform="translate(54.000000, 628.000000)">
                <g id="编组-34" transform="translate(27.000000, 62.000000)">
                    <path d="M679.747212,1.0012443 L772.041649,1.0012443 C779.96833,3.03042577 783.931671,6.98461233 783.931671,12.863804 C783.931671,18.7429956 783.931671,28.455061 783.931671,42 L628.289816,42 C637.992422,39.780045 645.292218,35.8083896 650.189206,30.0850338 C657.534688,21.5 657.534688,16.5885574 659.998041,12.863804 C661.128379,11.1546588 662.917217,4.75112238 669.022664,2.14668336 C670.87377,1.35704558 674.448619,0.975232567 679.747212,1.0012443 Z" id="路径-43" fill="#EDF5FC" transform="translate(706.110744, 21.500000) scale(-1, 1) translate(-706.110744, -21.500000) "></path>
                    <g id="形状结合">
                        <use fill="black" fill-opacity="1" filter="url(#filter-2)" xlink:href="#path-1"></use>
                        <use fill="#FFFFFF" fill-rule="evenodd" xlink:href="#path-1"></use>
                    </g>
                    <g id="表格选中" transform="translate(683.000000, 11.000000)" fill="#95CAFB">
                        <rect id="矩形" fill-rule="nonzero" opacity="0" x="0" y="0" width="20" height="20"></rect>
                        <path d="M17.6532596,7.81253859 L17.6532596,4.53021978 C17.6532596,3.32210766 16.6738795,2.3427275 15.4657674,2.3427275 L4.53021978,2.3427275 C3.32210766,2.3427275 2.3427275,3.32210766 2.3427275,4.53021978 L2.3427275,15.4657674 C2.3427275,16.6738795 3.32210766,17.6532596 4.53021978,17.6532596 L15.4657674,17.6532596 C16.6738795,17.6532596 17.6532596,16.6738795 17.6532596,15.4657674 L17.6532596,7.81253859 Z M3.75648228,3.75648228 C3.96154799,3.55035532 4.24051201,3.43476864 4.5312693,3.43544894 L15.4687307,3.43544894 C15.7588849,3.43579824 16.0369977,3.55148823 16.2417911,3.75703433 C16.4465845,3.96258044 16.5612534,4.24111585 16.5605389,4.5312693 L16.5605389,6.71981109 L3.43544894,6.71981109 L3.43544894,4.5312693 C3.43476864,4.24051201 3.55035532,3.96154799 3.75648228,3.75648228 Z M8.35581553,11.6401716 L8.35581553,7.81253859 L11.6401716,7.81253859 L11.6401716,11.6401716 L8.35581553,11.6401716 Z M11.6401716,12.7328991 L11.6401716,16.5605321 L8.35581553,16.5605321 L8.35581553,12.7328991 L11.6401716,12.7328991 Z M7.26308803,11.6401716 L3.435455,11.6401716 L3.435455,7.81253859 L7.26308803,7.81253859 L7.26308803,11.6401716 Z M3.75648227,16.241357 C3.55045121,16.037112 3.43482955,15.7588418 3.43544997,15.4687308 L3.43544997,12.7328991 L7.26308802,12.7328991 L7.26308802,16.5605569 L4.5312693,16.5605569 C4.2407375,16.5619221 3.96173237,16.4469854 3.75648227,16.241357 Z M16.5605363,15.4687308 C16.5610909,15.7584654 16.4462415,16.036494 16.2413678,16.2413678 C16.036494,16.4462415 15.7584654,16.5610909 15.4687308,16.5605363 L12.7328991,16.5605363 L12.7328991,12.7328991 L16.5605363,12.7328991 L16.5605363,15.4687308 L16.5605363,15.4687308 Z M16.5605321,11.6401716 L12.7328991,11.6401716 L12.7328991,7.81253859 L16.5605321,7.81253859 L16.5605321,11.6401716 Z" id="形状"></path>
                    </g>
                    <g id="编组-11" transform="translate(797.000000, 11.000000)">
                        <rect id="矩形" x="0" y="0" width="20" height="20"></rect>
                        <g id="tubiao-zhuzhuangtu" transform="translate(1.000000, 3.000000)" fill="#1890FF" fill-rule="nonzero">
                            <path d="M17.3333333,15 L0.666666667,15 C0.298476833,15 0,14.7150903 0,14.3636364 L0,1.63636364 C0,1.2849097 0.298476833,1 0.666666667,1 C1.0348565,1 1.33333333,1.2849097 1.33333333,1.63636364 L1.33333333,13.7272727 L17.3333333,13.7272727 C17.7015232,13.7272727 18,14.0121824 18,14.3636364 C18,14.7150903 17.7015232,15 17.3333333,15 Z" id="路径"></path>
                            <path d="M9.55,12.9879468 C9.19101491,12.9879468 8.9,12.6881478 8.9,12.318327 L8.9,4.58555681 C8.9,4.21573598 9.19101491,3.91593695 9.55,3.91593695 C9.90898509,3.91593695 10.2,4.21573598 10.2,4.58555681 L10.2,12.318327 C10.2,12.6881478 9.90898509,12.9879468 9.55,12.9879468 Z M5.65,12.9966519 C5.29101491,12.9966519 5,12.6968529 5,12.327032 L5,7.96244978 C5,7.59262894 5.29101491,7.29282992 5.65,7.29282992 C6.00898509,7.29282992 6.3,7.59262894 6.3,7.96244978 L6.3,12.327032 C6.3,12.6968529 6.00898509,12.9966519 5.65,12.9966519 Z M17.35,12.9986608 C16.9910149,12.9986608 16.7,12.6988617 16.7,12.3290409 L16.7,0.669619862 C16.7,0.299799024 16.9910149,0 17.35,0 C17.7089851,0 18,0.299799024 18,0.669619862 L18,12.3290409 C18,12.6988617 17.7089851,12.9986608 17.35,12.9986608 Z M13.45,13 C13.0910149,13 12.8,12.700201 12.8,12.3303801 L12.8,1.93587102 C12.8,1.56605018 13.0910149,1.26625116 13.45,1.26625116 C13.8089851,1.26625116 14.1,1.56605018 14.1,1.93587102 L14.1,12.3303801 C14.1,12.700201 13.8089851,13 13.45,13 Z" id="形状"></path>
                        </g>
                    </g>
                </g>
            </g>
        </g>
    </g>
</svg>