<?xml version="1.0" encoding="UTF-8"?>
<svg width="1031px" height="430px" viewBox="0 0 1031 430" version="1.1" xmlns="http://www.w3.org/2000/svg" xmlns:xlink="http://www.w3.org/1999/xlink">
    <title>编组 29</title>
    <defs>
        <path d="M902.457396,0.00117367776 L994.751833,0.00117367776 C1002.67851,1.9151801 1006.64185,5.64492954 1006.64185,11.190422 L1006.641,38.136 L1007,38.1361522 L1007,398 C1007,402.418278 1003.41828,406 999,406 L8,406 C3.581722,406 5.41083001e-16,402.418278 0,398 L0,46.1361522 C-5.41083001e-16,41.7178742 3.581722,38.1361522 8,38.1361522 L853.289282,38.1368748 C861.858648,35.9670589 868.395351,32.3994959 872.89939,27.4341857 C880.244871,19.336433 880.244871,14.7037608 882.708225,11.190422 C883.838562,9.57828685 885.6274,3.53821106 891.732848,1.08159834 C893.583953,0.336779904 897.158803,-0.0233616491 902.457396,0.00117367776 Z" id="path-1"></path>
        <filter x="-2.1%" y="-4.7%" width="103.8%" height="109.4%" filterUnits="objectBoundingBox" id="filter-2">
            <feOffset dx="-2" dy="0" in="SourceAlpha" result="shadowOffsetOuter1"></feOffset>
            <feGaussianBlur stdDeviation="6" in="shadowOffsetOuter1" result="shadowBlurOuter1"></feGaussianBlur>
            <feColorMatrix values="0 0 0 0 0.552440995   0 0 0 0 0.598138284   0 0 0 0 0.66627812  0 0 0 0.353096488 0" type="matrix" in="shadowBlurOuter1"></feColorMatrix>
        </filter>
    </defs>
    <g id="后台" stroke="none" stroke-width="1" fill="none" fill-rule="evenodd">
        <g id="经营分析——弹框" transform="translate(-66.000000, -1265.000000)">
            <g id="编组-18" transform="translate(57.000000, 1215.000000)">
                <g id="编组-29" transform="translate(23.000000, 62.000000)">
                    <path d="M814.747212,0.944414313 L907.041649,0.944414313 C914.96833,2.85842073 918.931671,6.58817017 918.931671,12.1336626 C918.931671,17.6791551 918.931671,26.8399698 918.931671,39.6161067 L763.289816,39.6161067 C772.992422,37.5221549 780.292218,33.7759282 785.189206,28.3774264 C792.534688,20.2796737 792.534688,15.6470014 794.998041,12.1336626 C796.128379,10.5215275 797.917217,4.48145169 804.022664,2.02483897 C805.87377,1.28002054 809.448619,0.919878986 814.747212,0.944414313 Z" id="路径-43" fill="#EDF5FC" transform="translate(841.110744, 20.279674) scale(-1, 1) translate(-841.110744, -20.279674) "></path>
                    <g id="形状结合">
                        <use fill="black" fill-opacity="1" filter="url(#filter-2)" xlink:href="#path-1"></use>
                        <use fill="#FFFFFF" fill-rule="evenodd" xlink:href="#path-1"></use>
                    </g>
                    <g id="表格选中" transform="translate(818.000000, 10.000000)">
                        <rect id="矩形" fill="#000000" fill-rule="nonzero" opacity="0" x="0" y="0" width="20" height="20"></rect>
                        <path d="M17.3105321,8.46981109 L17.3105321,5.18749228 C17.3105321,3.97938016 16.331152,3 15.1230399,3 L4.18749228,3 C2.97938016,3 2,3.97938016 2,5.18749228 L2,16.1230399 C2,17.331152 2.97938016,18.3105321 4.18749228,18.3105321 L15.1230399,18.3105321 C16.331152,18.3105321 17.3105321,17.331152 17.3105321,16.1230399 L17.3105321,8.46981109 Z M3.41375478,4.41375478 C3.61882049,4.20762782 3.89778451,4.09204114 4.1885418,4.09272144 L15.1260032,4.09272144 C15.4161574,4.09307074 15.6942702,4.20876073 15.8990636,4.41430683 C16.103857,4.61985294 16.2185259,4.89838835 16.2178114,5.1885418 L16.2178114,7.37708359 L3.09272144,7.37708359 L3.09272144,5.1885418 C3.09204114,4.89778451 3.20762783,4.61882049 3.41375478,4.41375478 Z M8.01308803,12.2974441 L8.01308803,8.46981109 L11.2974441,8.46981109 L11.2974441,12.2974441 L8.01308803,12.2974441 Z M11.2974441,13.3901716 L11.2974441,17.2178046 L8.01308803,17.2178046 L8.01308803,13.3901716 L11.2974441,13.3901716 Z M6.92036052,12.2974441 L3.0927275,12.2974441 L3.0927275,8.46981109 L6.92036052,8.46981109 L6.92036052,12.2974441 Z M3.41375477,16.8986295 C3.20772371,16.6943845 3.09210205,16.4161142 3.09272247,16.1260033 L3.09272247,13.3901716 L6.92036052,13.3901716 L6.92036052,17.2178294 L4.1885418,17.2178294 C3.89801,17.2191946 3.61900487,17.1042579 3.41375477,16.8986295 Z M16.2178088,16.1260033 C16.2183634,16.4157379 16.103514,16.6937665 15.8986403,16.8986402 C15.6937665,17.103514 15.4157379,17.2183634 15.1260033,17.2178088 L12.3901716,17.2178088 L12.3901716,13.3901716 L16.2178088,13.3901716 L16.2178088,16.1260033 L16.2178088,16.1260033 Z M16.2178046,12.2974441 L12.3901716,12.2974441 L12.3901716,8.46981109 L16.2178046,8.46981109 L16.2178046,12.2974441 Z" id="形状" fill="#95CAFB"></path>
                    </g>
                    <g id="编组-11" transform="translate(932.000000, 10.000000)">
                        <rect id="矩形" x="0" y="0" width="20" height="20"></rect>
                        <g id="tubiao-zhuzhuangtu" transform="translate(1.000000, 3.000000)" fill="#1890FF" fill-rule="nonzero">
                            <path d="M17.3333333,15 L0.666666667,15 C0.298476833,15 0,14.7150903 0,14.3636364 L0,1.63636364 C0,1.2849097 0.298476833,1 0.666666667,1 C1.0348565,1 1.33333333,1.2849097 1.33333333,1.63636364 L1.33333333,13.7272727 L17.3333333,13.7272727 C17.7015232,13.7272727 18,14.0121824 18,14.3636364 C18,14.7150903 17.7015232,15 17.3333333,15 Z" id="路径"></path>
                            <path d="M9.55,12.9879468 C9.19101491,12.9879468 8.9,12.6881478 8.9,12.318327 L8.9,4.58555681 C8.9,4.21573598 9.19101491,3.91593695 9.55,3.91593695 C9.90898509,3.91593695 10.2,4.21573598 10.2,4.58555681 L10.2,12.318327 C10.2,12.6881478 9.90898509,12.9879468 9.55,12.9879468 Z M5.65,12.9966519 C5.29101491,12.9966519 5,12.6968529 5,12.327032 L5,7.96244978 C5,7.59262894 5.29101491,7.29282992 5.65,7.29282992 C6.00898509,7.29282992 6.3,7.59262894 6.3,7.96244978 L6.3,12.327032 C6.3,12.6968529 6.00898509,12.9966519 5.65,12.9966519 Z M17.35,12.9986608 C16.9910149,12.9986608 16.7,12.6988617 16.7,12.3290409 L16.7,0.669619862 C16.7,0.299799024 16.9910149,0 17.35,0 C17.7089851,0 18,0.299799024 18,0.669619862 L18,12.3290409 C18,12.6988617 17.7089851,12.9986608 17.35,12.9986608 Z M13.45,13 C13.0910149,13 12.8,12.700201 12.8,12.3303801 L12.8,1.93587102 C12.8,1.56605018 13.0910149,1.26625116 13.45,1.26625116 C13.8089851,1.26625116 14.1,1.56605018 14.1,1.93587102 L14.1,12.3303801 C14.1,12.700201 13.8089851,13 13.45,13 Z" id="形状"></path>
                        </g>
                    </g>
                </g>
            </g>
        </g>
    </g>
</svg>