<?xml version="1.0" encoding="UTF-8"?>
<svg width="20px" height="16px" viewBox="0 0 20 16" version="1.1" xmlns="http://www.w3.org/2000/svg" xmlns:xlink="http://www.w3.org/1999/xlink">
    <title>文件-默认</title>
    <g id="后台" stroke="none" stroke-width="1" fill="none" fill-rule="evenodd">
        <g id="经营分析——弹框" transform="translate(-2053.000000, -2240.000000)" fill="#BFBFBF" fill-rule="nonzero">
            <g id="编组-33" transform="translate(2053.000000, 2176.000000)">
                <path d="M18.6618028,68.5714286 C18.9536335,68.6958212 19.2070654,68.8707483 19.4220985,69.0962099 C19.6371316,69.3216715 19.7984065,69.6054422 19.905923,69.9475219 C20.0134396,70.2896016 20.0287991,70.7016521 19.9520015,71.1836735 C19.9212825,71.3080661 19.8598445,71.6151603 19.7676874,72.1049563 C19.6755304,72.5947522 19.5680138,73.1584062 19.4451378,73.7959184 C19.3222617,74.4334305 19.1840261,75.090379 19.030431,75.7667638 C18.8768359,76.4431487 18.7309206,77.0223518 18.592685,77.5043732 C18.5158875,77.7842566 18.4045311,78.0719145 18.2586157,78.3673469 C18.1127004,78.6627794 17.9245464,78.931001 17.6941538,79.1720117 C17.4637612,79.4130224 17.18729,79.6112731 16.8647403,79.7667638 C16.5421906,79.9222546 16.1582029,80 15.7127772,80 L2.94902563,80 C2.62647595,80 2.29240664,79.9300292 1.9468177,79.7900875 C1.60122876,79.6501458 1.28251896,79.451895 0.990688298,79.1953353 C0.698857637,78.9387755 0.460785255,78.627794 0.276471153,78.2623907 C0.092157051,77.8969874 0,77.4888241 0,77.0379009 L0,67.03207 C0,66.0835763 0.25343189,65.3411079 0.760295671,64.8046647 C1.26715945,64.2682216 1.9813766,64 2.90294711,64 L14.2382644,64 C14.5761736,64 14.9256024,64.0660836 15.2865508,64.1982507 C15.6474993,64.3304179 15.9738888,64.5131195 16.2657195,64.7463557 C16.5575502,64.9795918 16.7956225,65.2517007 16.9799366,65.5626822 C17.1642507,65.8736638 17.2564078,66.2079689 17.2564078,66.5655977 L17.2564078,66.8221574 L16.0583661,66.8221574 C15.4439858,66.8221574 14.7259288,66.8182702 13.9041951,66.8104956 C13.0824614,66.8027211 12.2069694,66.7988338 11.2777191,66.7988338 C10.3484688,66.7988338 9.48065662,66.7949466 8.67428242,66.787172 C7.86790823,66.7793975 7.17289047,66.7755102 6.58922914,66.7755102 L5.52942306,66.7755102 C5.13007584,66.7755102 4.81904579,66.9037901 4.59633292,67.1603499 C4.37362004,67.4169096 4.20082557,67.755102 4.07794951,68.1749271 C3.95507344,68.6258503 3.81683786,69.1039845 3.66324278,69.6093294 C3.50964769,70.1146744 3.37141211,70.585034 3.24853605,71.0204082 C3.09494096,71.5335277 2.94134588,72.0310982 2.78775079,72.5131195 C2.75703177,72.6375121 2.74167227,72.7385811 2.74167227,72.8163265 C2.74167227,73.0806608 2.82998944,73.3022352 3.00662379,73.4810496 C3.18325814,73.6598639 3.40213113,73.7492711 3.66324278,73.7492711 C4.13938754,73.7492711 4.46193722,73.4460641 4.63089181,72.8396501 L5.85197274,68.3148688 C7.84870884,68.3304179 9.67649035,68.3381924 11.3353173,68.3381924 L17.7863108,68.3381924 C18.0781415,68.3692906 18.3699722,68.447036 18.6618028,68.5714286 Z" id="文件-默认"></path>
            </g>
        </g>
    </g>
</svg>