<?xml version="1.0" encoding="UTF-8"?>
<svg width="1031px" height="430px" viewBox="0 0 1031 430" version="1.1" xmlns="http://www.w3.org/2000/svg" xmlns:xlink="http://www.w3.org/1999/xlink">
    <title>编组 32</title>
    <defs>
        <path d="M867.474275,0.938657292 C872.772868,0.914271529 876.347718,1.27221771 878.198823,2.01249583 C884.304271,4.45413338 886.093109,10.4573897 887.223446,12.0596975 C889.6868,15.5516194 889.6868,20.1560515 897.032281,28.2044414 C900.822786,32.3576691 906.052935,35.5269699 912.722728,37.7123439 L1007,37.7119438 L1007,397.571944 C1007,401.990222 1003.41828,405.571944 999,405.571944 L8,405.571944 C3.581722,405.571944 5.41083001e-16,401.990222 0,397.571944 L0,45.7119438 C-5.41083001e-16,41.2936658 3.581722,37.7119438 8,37.7119438 L763.289,37.7114908 L763.289816,12.0596975 C763.289816,6.64470587 767.115312,2.97162229 774.766304,1.04044676 L775.179839,0.938657292 Z" id="path-1"></path>
        <filter x="-2.1%" y="-4.7%" width="103.8%" height="109.4%" filterUnits="objectBoundingBox" id="filter-3">
            <feOffset dx="-2" dy="0" in="SourceAlpha" result="shadowOffsetOuter1"></feOffset>
            <feGaussianBlur stdDeviation="6" in="shadowOffsetOuter1" result="shadowBlurOuter1"></feGaussianBlur>
            <feColorMatrix values="0 0 0 0 0.552440995   0 0 0 0 0.598138284   0 0 0 0 0.66627812  0 0 0 0.353096488 0" type="matrix" in="shadowBlurOuter1"></feColorMatrix>
        </filter>
    </defs>
    <g id="后台" stroke="none" stroke-width="1" fill="none" fill-rule="evenodd">
        <g id="经营分析——弹框" transform="translate(-2299.000000, -1265.000000)">
            <g id="编组-25" transform="translate(2290.000000, 1215.000000)">
                <g id="编组-32" transform="translate(23.000000, 62.000000)">
                    <g id="编组-17">
                        <g id="编组-31">
                            <path d="M902.457396,0.00116652318 L994.751833,0.00116652318 C1002.67851,1.90350542 1006.64185,5.61051882 1006.64185,11.1222067 C1006.64185,16.6338946 1006.64185,25.7388662 1006.64185,38.4371215 L851,38.4371215 C860.702605,36.3559342 868.002402,32.632544 872.89939,27.2669507 C880.244871,19.2185608 880.244871,14.6141287 882.708225,11.1222067 C883.838562,9.51989892 885.6274,3.51664261 891.732848,1.07500506 C893.583953,0.33472694 897.158803,-0.0232192397 902.457396,0.00116652318 Z" id="路径-43" fill="#EDF5FC"></path>
                            <mask id="mask-2" fill="white">
                                <use xlink:href="#path-1"></use>
                            </mask>
                            <g id="蒙版">
                                <use fill="black" fill-opacity="1" filter="url(#filter-3)" xlink:href="#path-1"></use>
                                <use fill="#FFFFFF" fill-rule="evenodd" xlink:href="#path-1"></use>
                            </g>
                            <g id="编组-11" mask="url(#mask-2)">
                                <g transform="translate(932.000000, 11.000000)">
                                    <rect id="矩形" x="0" y="0" width="20" height="20"></rect>
                                    <g id="tubiao-zhuzhuangtu" stroke-width="1" fill-rule="evenodd" transform="translate(1.000000, 3.000000)">
                                        <path d="M17.3333333,15 L0.666666667,15 C0.298476833,15 0,14.7150903 0,14.3636364 L0,1.63636364 C0,1.2849097 0.298476833,1 0.666666667,1 C1.0348565,1 1.33333333,1.2849097 1.33333333,1.63636364 L1.33333333,13.7272727 L17.3333333,13.7272727 C17.7015232,13.7272727 18,14.0121824 18,14.3636364 C18,14.7150903 17.7015232,15 17.3333333,15 Z" id="路径" fill="#95CAFB" fill-rule="nonzero"></path>
                                        <path d="M9.55,12.9879468 C9.19101491,12.9879468 8.9,12.6881478 8.9,12.318327 L8.9,4.58555681 C8.9,4.21573598 9.19101491,3.91593695 9.55,3.91593695 C9.90898509,3.91593695 10.2,4.21573598 10.2,4.58555681 L10.2,12.318327 C10.2,12.6881478 9.90898509,12.9879468 9.55,12.9879468 Z M5.65,12.9966519 C5.29101491,12.9966519 5,12.6968529 5,12.327032 L5,7.96244978 C5,7.59262894 5.29101491,7.29282992 5.65,7.29282992 C6.00898509,7.29282992 6.3,7.59262894 6.3,7.96244978 L6.3,12.327032 C6.3,12.6968529 6.00898509,12.9966519 5.65,12.9966519 Z M17.35,12.9986608 C16.9910149,12.9986608 16.7,12.6988617 16.7,12.3290409 L16.7,0.669619862 C16.7,0.299799024 16.9910149,0 17.35,0 C17.7089851,0 18,0.299799024 18,0.669619862 L18,12.3290409 C18,12.6988617 17.7089851,12.9986608 17.35,12.9986608 Z M13.45,13 C13.0910149,13 12.8,12.700201 12.8,12.3303801 L12.8,1.93587102 C12.8,1.56605018 13.0910149,1.26625116 13.45,1.26625116 C13.8089851,1.26625116 14.1,1.56605018 14.1,1.93587102 L14.1,12.3303801 C14.1,12.700201 13.8089851,13 13.45,13 Z" id="形状" fill="#95CAFB" fill-rule="nonzero"></path>
                                    </g>
                                </g>
                            </g>
                        </g>
                        <g id="编组-11" transform="translate(0.000000, 0.937491)"></g>
                    </g>
                    <g id="编组-11" transform="translate(932.000000, 10.000000)">
                        <rect id="矩形" x="0" y="0" width="20" height="20"></rect>
                        <g id="tubiao-zhuzhuangtu" transform="translate(1.000000, 3.000000)" fill="#1890FF" fill-rule="nonzero">
                            <path d="M17.3333333,15 L0.666666667,15 C0.298476833,15 0,14.7150903 0,14.3636364 L0,1.63636364 C0,1.2849097 0.298476833,1 0.666666667,1 C1.0348565,1 1.33333333,1.2849097 1.33333333,1.63636364 L1.33333333,13.7272727 L17.3333333,13.7272727 C17.7015232,13.7272727 18,14.0121824 18,14.3636364 C18,14.7150903 17.7015232,15 17.3333333,15 Z" id="路径"></path>
                            <path d="M9.55,12.9879468 C9.19101491,12.9879468 8.9,12.6881478 8.9,12.318327 L8.9,4.58555681 C8.9,4.21573598 9.19101491,3.91593695 9.55,3.91593695 C9.90898509,3.91593695 10.2,4.21573598 10.2,4.58555681 L10.2,12.318327 C10.2,12.6881478 9.90898509,12.9879468 9.55,12.9879468 Z M5.65,12.9966519 C5.29101491,12.9966519 5,12.6968529 5,12.327032 L5,7.96244978 C5,7.59262894 5.29101491,7.29282992 5.65,7.29282992 C6.00898509,7.29282992 6.3,7.59262894 6.3,7.96244978 L6.3,12.327032 C6.3,12.6968529 6.00898509,12.9966519 5.65,12.9966519 Z M17.35,12.9986608 C16.9910149,12.9986608 16.7,12.6988617 16.7,12.3290409 L16.7,0.669619862 C16.7,0.299799024 16.9910149,0 17.35,0 C17.7089851,0 18,0.299799024 18,0.669619862 L18,12.3290409 C18,12.6988617 17.7089851,12.9986608 17.35,12.9986608 Z M13.45,13 C13.0910149,13 12.8,12.700201 12.8,12.3303801 L12.8,1.93587102 C12.8,1.56605018 13.0910149,1.26625116 13.45,1.26625116 C13.8089851,1.26625116 14.1,1.56605018 14.1,1.93587102 L14.1,12.3303801 C14.1,12.700201 13.8089851,13 13.45,13 Z" id="形状"></path>
                        </g>
                    </g>
                    <g id="表格选中" transform="translate(818.000000, 11.000000)">
                        <rect id="矩形" fill="#000000" fill-rule="nonzero" opacity="0" x="0" y="0" width="20" height="20"></rect>
                        <path d="M17.3105321,8.46981109 L17.3105321,5.18749228 C17.3105321,3.97938016 16.331152,3 15.1230399,3 L4.18749228,3 C2.97938016,3 2,3.97938016 2,5.18749228 L2,16.1230399 C2,17.331152 2.97938016,18.3105321 4.18749228,18.3105321 L15.1230399,18.3105321 C16.331152,18.3105321 17.3105321,17.331152 17.3105321,16.1230399 L17.3105321,8.46981109 Z M3.41375478,4.41375478 C3.61882049,4.20762782 3.89778451,4.09204114 4.1885418,4.09272144 L15.1260032,4.09272144 C15.4161574,4.09307074 15.6942702,4.20876073 15.8990636,4.41430683 C16.103857,4.61985294 16.2185259,4.89838835 16.2178114,5.1885418 L16.2178114,7.37708359 L3.09272144,7.37708359 L3.09272144,5.1885418 C3.09204114,4.89778451 3.20762783,4.61882049 3.41375478,4.41375478 Z M8.01308803,12.2974441 L8.01308803,8.46981109 L11.2974441,8.46981109 L11.2974441,12.2974441 L8.01308803,12.2974441 Z M11.2974441,13.3901716 L11.2974441,17.2178046 L8.01308803,17.2178046 L8.01308803,13.3901716 L11.2974441,13.3901716 Z M6.92036052,12.2974441 L3.0927275,12.2974441 L3.0927275,8.46981109 L6.92036052,8.46981109 L6.92036052,12.2974441 Z M3.41375477,16.8986295 C3.20772371,16.6943845 3.09210205,16.4161142 3.09272247,16.1260033 L3.09272247,13.3901716 L6.92036052,13.3901716 L6.92036052,17.2178294 L4.1885418,17.2178294 C3.89801,17.2191946 3.61900487,17.1042579 3.41375477,16.8986295 Z M16.2178088,16.1260033 C16.2183634,16.4157379 16.103514,16.6937665 15.8986403,16.8986402 C15.6937665,17.103514 15.4157379,17.2183634 15.1260033,17.2178088 L12.3901716,17.2178088 L12.3901716,13.3901716 L16.2178088,13.3901716 L16.2178088,16.1260033 L16.2178088,16.1260033 Z M16.2178046,12.2974441 L12.3901716,12.2974441 L12.3901716,8.46981109 L16.2178046,8.46981109 L16.2178046,12.2974441 Z" id="形状" fill="#1890FF"></path>
                    </g>
                </g>
            </g>
        </g>
    </g>
</svg>