<?xml version="1.0" encoding="UTF-8"?>
<svg width="18px" height="18px" viewBox="0 0 18 18" version="1.1" xmlns="http://www.w3.org/2000/svg" xmlns:xlink="http://www.w3.org/1999/xlink">
    <title>fanhui-4</title>
    <g id="后台" stroke="none" stroke-width="1" fill="none" fill-rule="evenodd">
        <g id="经营分析——弹框" transform="translate(-1185.000000, -1286.000000)" fill="#3681FF" fill-rule="nonzero">
            <g id="编组-21" transform="translate(1163.000000, 1215.000000)">
                <g id="fanhui-4" transform="translate(22.961060, 71.834714)">
                    <path d="M11.1013395,0.772497341 C10.1304994,0.370359421 9.08976967,0.16400799 8.03893952,0.165291786 C3.62053952,0.165291786 0.0389395195,3.74689512 0.0389395195,8.16529179 C0.0389395195,12.5836885 3.62053952,16.1652918 8.03893952,16.1652918 C12.4573395,16.1652918 16.0389395,12.5836885 16.0389395,8.16529179 C16.0389395,7.1012926 15.8309395,6.06529339 15.4317395,5.10289411 C15.3441037,4.90374854 15.1133633,4.81117252 14.9123863,4.89452295 C14.7114093,4.97787338 14.6139126,5.20657799 14.6929395,5.40929387 C15.0547374,6.28301525 15.2402924,7.21962551 15.2389395,8.16529179 C15.2389395,12.1416888 12.0153395,15.3652864 8.03893952,15.3652864 C4.06253952,15.3652864 0.838939525,12.1416888 0.838939525,8.16529179 C0.838939525,4.18889478 4.06253952,0.965297203 8.03893952,0.965297203 C8.99733952,0.965297203 9.92893952,1.15249706 10.7949395,1.51129679 C10.9976556,1.59032368 11.2263603,1.49282701 11.3097108,1.29185018 C11.3930613,1.09087336 11.3004852,0.860133078 11.1013395,0.772497341 Z M5.01333953,7.76649212 L8.28453953,4.49489455 C8.35883533,4.42002089 8.40022609,4.31862384 8.39955043,4.21314651 C8.39887478,4.10766919 8.35618843,4.00681071 8.28093953,3.93289498 C8.20702374,3.85764613 8.10616519,3.81495981 8.00068777,3.81427601 C7.89521036,3.8136085 7.79381323,3.85499923 7.71893951,3.92929498 L3.81413952,7.83409206 C3.73958459,7.90838951 3.6981887,8.0096435 3.69931616,8.11489185 C3.70013954,8.21649178 3.73933952,8.31809169 3.81773952,8.39609164 L7.77733952,12.3560887 C7.85120183,12.4313909 7.95203055,12.4741496 8.05750811,12.4749103 C8.16298568,12.475651 8.26441282,12.4343319 8.33933951,12.3600887 C8.41358284,12.285162 8.45490196,12.183735 8.45415123,12.0782575 C8.4534005,11.97278 8.41064184,11.8719513 8.33533952,11.7980891 L5.09853953,8.56129152 L12.1297395,8.61009149 C12.2348673,8.61184034 12.3362038,8.57084947 12.4105506,8.49650268 C12.4848975,8.4221559 12.5258884,8.32081946 12.5241933,8.21569178 C12.5226135,7.99541322 12.3444182,7.81721806 12.1241395,7.81569208 L5.01333953,7.76649212 L5.01333953,7.76649212 Z" id="形状"></path>
                </g>
            </g>
        </g>
    </g>
</svg>