<?xml version="1.0" encoding="UTF-8"?>
<svg width="14px" height="15px" viewBox="0 0 14 15" version="1.1" xmlns="http://www.w3.org/2000/svg" xmlns:xlink="http://www.w3.org/1999/xlink">
    <title>最多</title>
    <g id="后台" stroke="none" stroke-width="1" fill="none" fill-rule="evenodd">
        <g id="经营分析——弹框" transform="translate(-539.000000, -245.000000)" fill="#009CFF" fill-rule="nonzero">
            <g id="编组-22" transform="translate(54.000000, 57.000000)">
                <g id="最多" transform="translate(485.000000, 188.000000)">
                    <path d="M13.032806,5.78973683 L9.18371537,5.78973683 C10.6751931,0.281338727 8.15607487,0 8.15607487,0 C7.08836847,0 7.3097077,0.844264529 7.22896334,0.985008397 C7.22896334,3.67886028 4.36769564,5.78973683 4.36769564,5.78973683 L4.36769564,13.4290444 C4.36769564,14.183111 5.39533614,14.4546982 5.79846193,14.4546982 L11.5817087,14.4546982 C12.1259923,14.4546982 12.5692171,13.0273094 12.5692171,13.0273094 C14,8.1621675 14,6.71459671 14,6.71459671 C14,5.70942293 13.032806,5.78973683 13.032806,5.78973683 L13.032806,5.78973683 L13.032806,5.78973683 Z M2.78813918,5.7922676 L0.483323816,5.7922676 C0.0073343821,5.7922676 0,6.2597826 0,6.2597826 L0.475989434,13.9643049 C0.475989434,14.4546816 0.967210534,14.4546816 0.967210534,14.4546816 L2.96204502,14.4546816 C3.37762105,14.4546816 3.37394615,14.1302969 3.37394615,14.1302969 L3.37394615,6.37652005 C3.37394615,5.78478653 2.78813918,5.7922676 2.78813918,5.7922676 L2.78813918,5.7922676 L2.78813918,5.7922676 Z" id="形状"></path>
                </g>
            </g>
        </g>
    </g>
</svg>