<?xml version="1.0" encoding="UTF-8"?>
<svg width="220px" height="117px" viewBox="0 0 220 117" version="1.1" xmlns="http://www.w3.org/2000/svg" xmlns:xlink="http://www.w3.org/1999/xlink">
    <title>其他</title>
    <defs>
        <rect id="path-1" x="0" y="0" width="220" height="117" rx="4"></rect>
    </defs>
    <g id="后台" stroke="none" stroke-width="1" fill="none" fill-rule="evenodd">
        <g id="能源事件" transform="translate(-1669.000000, -182.000000)">
            <g id="其他" transform="translate(1669.000000, 182.000000)">
                <mask id="mask-2" fill="white">
                    <use xlink:href="#path-1"></use>
                </mask>
                <use id="蒙版" fill="#FFFFFF" xlink:href="#path-1"></use>
                <g id="eec-card-other" opacity="0.1" mask="url(#mask-2)" fill-rule="nonzero">
                    <g transform="translate(102.737328, 14.371770)" id="路径">
                        <path d="M1.31195217,85.5493168 C1.31195217,131.06395 38.2088525,167.96085 83.7234857,167.96085 C129.238118,167.96085 166.135019,131.06395 166.135019,85.5493168 C166.135019,40.0346836 129.238118,3.13778323 83.7234857,3.13778323 C38.2088525,3.13778323 1.31195217,40.0346836 1.31195217,85.5493168 Z" fill="#85A0D7"></path>
                        <path d="M120.670525,64.3684177 L120.670525,66.6070054 C120.670535,67.3194981 120.086263,67.8981525 119.363016,67.9019424 L38.0806948,67.9019424 C37.3601666,67.8981767 36.7770081,67.3236976 36.7731856,66.6138935 L36.7731856,64.3684177 C36.775058,64.0244169 36.6371676,63.6939718 36.3902438,63.450723 C36.1433199,63.2074742 35.8078824,63.0716361 35.4586844,63.073444 L27.5926533,63.073444 C26.8694064,63.0772706 26.2851442,63.6559251 26.2851442,64.3684177 L26.2851442,101.735614 C26.2889666,102.445418 26.8721253,103.019898 27.5926533,103.023663 L35.4586844,103.023663 C36.1819415,103.023673 36.7693384,102.448096 36.7731856,101.735614 L36.7731856,99.4970259 C36.7731754,98.784534 37.3574478,98.2058788 38.0806948,98.2020898 L119.363016,98.2020898 C120.088995,98.2020898 120.677517,98.7818521 120.677517,99.4970259 L120.677517,101.735614 C120.677517,102.450788 121.266039,103.030551 121.992018,103.030551 L129.858049,103.030551 C130.581307,103.030551 131.168703,102.454985 131.17255,101.742502 L131.17255,64.3684177 C131.17255,64.0237823 131.033104,63.6933619 130.785073,63.4503151 C130.537042,63.2072683 130.200895,63.0716476 129.851057,63.073444 L121.985026,63.073444 C121.259048,63.073444 120.670525,63.6532437 120.670525,64.3684177 L120.670525,64.3684177 Z" fill="#FFFFFF"></path>
                    </g>
                </g>
            </g>
        </g>
    </g>
</svg>