<?xml version="1.0" encoding="UTF-8"?>
<svg width="18px" height="18px" viewBox="0 0 18 18" version="1.1" xmlns="http://www.w3.org/2000/svg" xmlns:xlink="http://www.w3.org/1999/xlink">
    <title>编组 18</title>
    <g id="EMS-icon" stroke="none" stroke-width="1" fill="none" fill-rule="evenodd">
        <g id="编组-18">
            <circle id="椭圆形" fill="#1890FF" cx="9" cy="9" r="9"></circle>
            <g id="编组-19" transform="translate(3.500000, 3.500000)">
                <path d="M2.8,0.55 C4.04264069,0.55 5.05,1.55735931 5.05,2.8 L5.05,4.15 C5.05,4.64705627 4.64705627,5.05 4.15,5.05 L2.8,5.05 C1.55735931,5.05 0.55,4.04264069 0.55,2.8 C0.55,1.55735931 1.55735931,0.55 2.8,0.55 Z" id="矩形" fill="#FFFFFF"></path>
                <path d="M8.3125,0.775 C8.84062229,0.775 9.31874729,0.989063854 9.66484172,1.33515828 C10.0109361,1.68125271 10.225,2.15937771 10.225,2.6875 L10.225,2.6875 L10.225,4.105 L8.3125,4.6 C7.78437771,4.6 7.30625271,4.38593615 6.96015828,4.03984172 C6.61406385,3.69374729 6.4,3.21562229 6.4,2.6875 C6.4,2.15937771 6.61406385,1.68125271 6.96015828,1.33515828 C7.30625271,0.989063854 7.78437771,0.775 8.3125,0.775 Z" id="矩形" stroke="#FFFFFF" stroke-width="0.9" transform="translate(8.312500, 2.687500) scale(-1, 1) translate(-8.312500, -2.687500) "></path>
                <path d="M2.8,5.95 L4.15,5.95 C4.64705627,5.95 5.05,6.35294373 5.05,6.85 L5.05,8.2 C5.05,9.44264069 4.04264069,10.45 2.8,10.45 C1.55735931,10.45 0.55,9.44264069 0.55,8.2 C0.55,6.95735931 1.55735931,5.95 2.8,5.95 Z" id="矩形" fill="#FFFFFF"></path>
                <path d="M6.85,5.95 L8.2,5.95 C9.44264069,5.95 10.45,6.95735931 10.45,8.2 C10.45,9.44264069 9.44264069,10.45 8.2,10.45 C6.95735931,10.45 5.95,9.44264069 5.95,8.2 L5.95,6.85 C5.95,6.35294373 6.35294373,5.95 6.85,5.95 Z" id="矩形" fill="#FFFFFF"></path>
            </g>
        </g>
    </g>
</svg>