<?xml version="1.0" encoding="UTF-8"?>
<svg width="220px" height="117px" viewBox="0 0 220 117" version="1.1" xmlns="http://www.w3.org/2000/svg" xmlns:xlink="http://www.w3.org/1999/xlink">
    <title>全年</title>
    <defs>
        <rect id="path-1" x="0" y="0" width="220" height="117" rx="4"></rect>
    </defs>
    <g id="后台" stroke="none" stroke-width="1" fill="none" fill-rule="evenodd">
        <g id="全年">
            <mask id="mask-2" fill="white">
                <use xlink:href="#path-1"></use>
            </mask>
            <use id="蒙版" fill="#FFFFFF" xlink:href="#path-1"></use>
            <g id="eec-card-annual" opacity="0.0559401739" mask="url(#mask-2)">
                <g transform="translate(81.000000, 20.000000)">
                    <circle id="椭圆形" fill="#1890FF" fill-rule="nonzero" cx="83" cy="83" r="83"></circle>
                    <g id="编组-19" stroke-width="1" fill="none" fill-rule="evenodd" transform="translate(35.000000, 35.000000)">
                        <path d="M20.6818182,0 C32.104071,0 41.3636364,9.25956537 41.3636364,20.6818182 L41.3636364,33.0909091 C41.3636364,37.6598102 37.6598102,41.3636364 33.0909091,41.3636364 L20.6818182,41.3636364 C9.25956537,41.3636364 0,32.104071 0,20.6818182 C0,9.25956537 9.25956537,0 20.6818182,0 Z" id="矩形" fill="#FFFFFF" fill-rule="nonzero"></path>
                        <path d="M71.3522727,2.06818182 C76.2067301,2.06818182 80.6016165,4.03583947 83.7828885,7.21711146 C86.9641601,10.3983835 88.9318182,14.7932699 88.9318182,19.6477273 L88.9318182,19.6477273 L88.9318182,32.6772727 L71.3522727,37.2272727 C66.4978153,37.2272727 62.102929,35.2596151 58.9216569,32.0783431 C55.7403849,28.897071 53.7727273,24.5021847 53.7727273,19.6477273 C53.7727273,14.7932699 55.7403849,10.3983835 58.9216569,7.21711146 C62.102929,4.03583947 66.4978153,2.06818182 71.3522727,2.06818182 Z" id="矩形" stroke="#FFFFFF" stroke-width="0.9" transform="translate(71.352273, 19.647727) scale(-1, 1) translate(-71.352273, -19.647727) "></path>
                        <path d="M20.6818182,49.6363636 L33.0909091,49.6363636 C37.6598102,49.6363636 41.3636364,53.3401898 41.3636364,57.9090909 L41.3636364,70.3181818 C41.3636364,81.7404346 32.104071,91 20.6818182,91 C9.25956537,91 0,81.7404346 0,70.3181818 C0,58.895929 9.25956537,49.6363636 20.6818182,49.6363636 Z" id="矩形" fill="#FFFFFF" fill-rule="nonzero"></path>
                        <path d="M57.9090909,49.6363636 L70.3181818,49.6363636 C81.7404346,49.6363636 91,58.895929 91,70.3181818 C91,81.7404346 81.7404346,91 70.3181818,91 C58.895929,91 49.6363636,81.7404346 49.6363636,70.3181818 L49.6363636,57.9090909 C49.6363636,53.3401898 53.3401898,49.6363636 57.9090909,49.6363636 Z" id="矩形" fill="#FFFFFF" fill-rule="nonzero"></path>
                    </g>
                </g>
            </g>
        </g>
    </g>
</svg>