<?xml version="1.0" encoding="UTF-8"?>
<svg width="18px" height="18px" viewBox="0 0 18 18" version="1.1" xmlns="http://www.w3.org/2000/svg" xmlns:xlink="http://www.w3.org/1999/xlink">
    <!-- Generator: Sketch 59.1 (86144) - https://sketch.com -->
    <title>GIS-TL_其他备份</title>
    <desc>Created with Sketch.</desc>
    <g id="能源事件" stroke="none" stroke-width="1" fill="none" fill-rule="evenodd">
        <g id="GIS-TL_其他备份">
            <path d="M0,9 C0,13.9705627 4.02943725,18 9,18 C13.9705627,18 18,13.9705627 18,9 C18,4.02943725 13.9705627,0 9,0 C4.02943725,0 0,4.02943725 0,9 Z" id="路径" fill="#85A0D7"></path>
            <path d="M13.4391067,7.14538708 L13.4391067,7.39671752 C13.4391078,7.4767104 13.3744868,7.54167702 13.294495,7.54210252 L4.30459834,7.54210252 C4.22490729,7.54167974 4.16040944,7.47718189 4.15998667,7.39749085 L4.15998667,7.14538708 C4.16019376,7.10676547 4.14494296,7.06966578 4.11763297,7.04235578 C4.09032297,7.01504578 4.05322328,6.99979499 4.01460167,7 L3.14461167,7 C3.06461992,7.00042758 3,7.0653942 3,7.14538708 L3,11.3406722 C3.00042277,11.4203632 3.06492063,11.4848611 3.14461167,11.4852839 L4.01460167,11.4852839 C4.09459455,11.485285 4.15956117,11.4206639 4.15998667,11.3406722 L4.15998667,11.0893417 C4.15998554,11.0093489 4.22460659,10.9443822 4.30459834,10.9439568 L13.294495,10.9439568 C13.3747889,10.9439568 13.43988,11.0090478 13.43988,11.0893417 L13.43988,11.3406722 C13.43988,11.4209661 13.5049711,11.4860572 13.585265,11.4860572 L14.455255,11.4860572 C14.5352479,11.4860572 14.6002145,11.4214373 14.60064,11.3414455 L14.60064,7.14538708 C14.60064,7.10669422 14.5852171,7.0695973 14.5577847,7.04230998 C14.5303522,7.01502267 14.493174,6.99979627 14.4544817,7 L13.5844917,7 C13.5041978,7 13.4391067,7.06509316 13.4391067,7.14538708 L13.4391067,7.14538708 Z" id="路径" fill="#FFFFFF" fill-rule="nonzero"></path>
        </g>
    </g>
</svg>