<?xml version="1.0" encoding="UTF-8"?>
<svg width="220px" height="117px" viewBox="0 0 220 117" version="1.1" xmlns="http://www.w3.org/2000/svg" xmlns:xlink="http://www.w3.org/1999/xlink">
    <title>综合业务量变化</title>
    <defs>
        <rect id="path-1" x="0" y="0" width="220" height="117" rx="4"></rect>
    </defs>
    <g id="后台" stroke="none" stroke-width="1" fill="none" fill-rule="evenodd">
        <g id="能源事件" transform="translate(-1201.000000, -181.000000)">
            <g id="综合业务量变化" transform="translate(1201.000000, 181.000000)">
                <mask id="mask-2" fill="white">
                    <use xlink:href="#path-1"></use>
                </mask>
                <use id="蒙版" fill="#FFFFFF" xlink:href="#path-1"></use>
                <g id="eec-card-hospital" opacity="0.1" mask="url(#mask-2)" fill-rule="nonzero">
                    <g transform="translate(104.000000, 20.000000)">
                        <circle id="椭圆形" fill="#F196FD" cx="83.3346757" cy="83.0289211" r="83.0950305"></circle>
                        <path d="M50.8131211,36.3186969 L97.1721406,36.3186969 C102.292816,36.3186969 106.443945,40.4572457 106.443945,45.5624044 L106.443945,128.755772 L106.443945,128.755772 L41.5413172,128.755772 L41.5413172,45.5624044 C41.5413172,40.4572457 45.6924452,36.3186969 50.8131211,36.3186969 Z" id="矩形" fill="#FFFFFF"></path>
                        <path d="M114.966512,73.6868763 L119.555586,73.6868763 C122.090063,73.6868763 124.144661,75.741475 124.144661,78.2759509 L124.144661,128.755772 L124.144661,128.755772 L110.377437,128.755772 L110.377437,78.2759509 C110.377437,75.741475 112.432036,73.6868763 114.966512,73.6868763 Z" id="矩形" fill="#FFFFFF"></path>
                        <rect id="矩形" fill="#F196FD" x="57.2752875" y="74.6702494" width="33.4346868" height="8.85035827" rx="0.45"></rect>
                        <path d="M57.1666667,73.7777778 L89.4666667,73.7777778 C89.7151948,73.7777778 89.9166667,73.9792496 89.9166667,74.2277778 L89.9166667,82.55 C89.9166667,82.7985281 89.7151948,83 89.4666667,83 L57.1666667,83 C56.9181385,83 56.7166667,82.7985281 56.7166667,82.55 L56.7166667,74.2277778 C56.7166667,73.9792496 56.9181385,73.7777778 57.1666667,73.7777778 Z" id="矩形" fill="#F196FD" transform="translate(73.316667, 78.388889) rotate(90.000000) translate(-73.316667, -78.388889) "></path>
                    </g>
                </g>
            </g>
        </g>
    </g>
</svg>