<?xml version="1.0" encoding="UTF-8"?>
<svg width="220px" height="117px" viewBox="0 0 220 117" version="1.1" xmlns="http://www.w3.org/2000/svg" xmlns:xlink="http://www.w3.org/1999/xlink">
    <title>能源单价调整</title>
    <defs>
        <rect id="path-1" x="0" y="0" width="220" height="117" rx="4"></rect>
    </defs>
    <g id="后台" stroke="none" stroke-width="1" fill="none" fill-rule="evenodd">
        <g id="能源事件" transform="translate(-1437.000000, -182.000000)">
            <g id="能源单价调整" transform="translate(1437.000000, 182.000000)">
                <mask id="mask-2" fill="white">
                    <use xlink:href="#path-1"></use>
                </mask>
                <use id="蒙版" fill="#FFFFFF" xlink:href="#path-1"></use>
                <g id="eec-card-price" opacity="0.1" mask="url(#mask-2)">
                    <g transform="translate(103.000000, 16.730504)">
                        <circle id="椭圆形" fill="#F2D159" fill-rule="nonzero" cx="83.7234857" cy="83.7575691" r="82.4115335"></circle>
                        <g id="编组-23" stroke-width="1" fill="none" fill-rule="evenodd" transform="translate(36.274421, 36.308504)">
                            <path d="M33.1960322,24.5191339 L56.7102468,24.5191339 C66.6080953,24.5191339 75.5489052,30.3915564 79.4243576,39.437943 C81.9891322,45.4248419 84.0829858,51.3492984 85.7059184,57.2113125 C87.8814666,65.0693677 89.2729223,73.0396288 89.8802856,81.122096 C90.2185418,85.6234226 86.8190165,89.5448364 82.287234,89.8808188 C82.0834329,89.8959284 81.8791359,89.9034911 81.6747679,89.9034911 L8.2283545,89.9034911 C3.68395979,89.9034911 2.53758232e-16,86.2443004 2.53758232e-16,81.7304465 C2.53758232e-16,81.5317919 0.0072917623,81.3332034 0.0218607575,81.1350765 C0.600169006,73.2705417 2.00846306,65.2959536 4.24674291,57.2113125 C5.89913755,51.242882 7.97066564,45.3344308 10.4613271,39.4859588 C14.3248802,30.4139337 23.2790693,24.5191339 33.1960322,24.5191339 Z" id="矩形" fill="#FFFFFF" fill-rule="nonzero"></path>
                            <path d="M32.6330241,61.2978349 C30.3608298,61.2978349 28.5188524,59.4682365 28.5188524,57.2113125 C28.5188524,54.9543886 30.3608298,53.1247902 32.6330241,53.1247902 L38.4751479,53.1237965 L31.1271328,40.4644326 C29.9910356,38.5098791 30.6652461,36.0106013 32.6330241,34.8821393 C34.6008021,33.7536773 37.11699,34.4233568 38.2530872,36.3779102 L44.9755393,47.9339131 L51.6979913,36.3779102 C52.7078555,34.6405295 54.8081617,33.9183576 56.6444624,34.5718791 L57.3180544,34.8821393 C59.0671904,35.8852166 59.7942484,37.9714077 59.1363052,39.7953674 L58.8239458,40.4644326 L51.4677022,53.1237965 L57.3180544,53.1247902 C59.5902487,53.1247902 61.4322261,54.9543886 61.4322261,57.2113125 C61.4322261,59.4682365 59.5902487,61.2978349 57.3180544,61.2978349 L49.089711,61.2978349 L49.0814826,65.3833634 L57.3180544,65.3843572 C59.5902487,65.3843572 61.4322261,67.2139555 61.4322261,69.4708795 C61.4322261,71.7278035 59.5902487,73.5574018 57.3180544,73.5574018 L49.0814826,73.5564081 L49.089711,77.6439242 C49.089711,79.9008481 47.2477336,81.7304465 44.9755393,81.7304465 C42.7033449,81.7304465 40.8613675,79.9008481 40.8613675,77.6439242 L40.8531392,73.5564081 L32.6330241,73.5574018 C30.3608298,73.5574018 28.5188524,71.7278035 28.5188524,69.4708795 C28.5188524,67.2139555 30.3608298,65.3843572 32.6330241,65.3843572 L40.8531392,65.3833634 L40.8613675,61.2978349 L32.6330241,61.2978349 Z" id="路径" fill="#F2D159" fill-rule="nonzero"></path>
                            <path d="M31.3673188,0 L35.8537663,0 C37.357962,0 38.8333797,0.409553922 40.1196414,1.18414326 L41.5462691,2.04326116 C43.6315973,3.2990499 46.2469075,3.2990499 48.3322358,2.04326116 L49.7588635,1.18414326 C51.0451252,0.409553922 52.5205429,0 54.0247386,0 L58.5111861,0 C61.9805029,0 64.7929398,2.79353591 64.7929398,6.2395371 C64.7929398,7.01658715 64.646812,7.78680059 64.361682,8.51040054 C64.1393123,9.07562405 63.8856386,9.64425916 63.6006611,10.2163058 C62.2607697,12.9059233 60.3040035,15.5201231 57.7303628,18.0589054 C56.188788,19.579266 54.1045378,20.4326116 51.9321348,20.4326116 L38.0171025,20.4326116 C35.8246314,20.4326116 33.7228234,19.5634961 32.1780556,18.0181175 C29.5020266,15.3410304 27.5352893,12.7404265 26.2778438,10.2163058 C25.9775786,9.61357174 25.7134126,9.00647661 25.4853455,8.39502034 C24.2818475,5.16833185 25.9396418,1.58350196 29.1881541,0.38807077 C29.8856327,0.131403185 30.6235115,0 31.3673188,0 Z" id="矩形" fill="#FFFFFF" fill-rule="nonzero"></path>
                        </g>
                    </g>
                </g>
            </g>
        </g>
    </g>
</svg>