<?xml version="1.0" encoding="UTF-8"?>
<svg width="220px" height="117px" viewBox="0 0 220 117" version="1.1" xmlns="http://www.w3.org/2000/svg" xmlns:xlink="http://www.w3.org/1999/xlink">
    <title>新增用能区域</title>
    <defs>
        <rect id="path-1" x="0" y="0" width="220" height="117" rx="4"></rect>
    </defs>
    <g id="后台" stroke="none" stroke-width="1" fill="none" fill-rule="evenodd">
        <g id="能源事件" transform="translate(-493.000000, -183.000000)">
            <g id="新增用能区域" transform="translate(493.000000, 183.000000)">
                <mask id="mask-2" fill="white">
                    <use xlink:href="#path-1"></use>
                </mask>
                <use id="蒙版" fill="#FFFFFF" xlink:href="#path-1"></use>
                <g id="eec-card-area" opacity="0.0777859352" mask="url(#mask-2)">
                    <g transform="translate(104.000000, 13.112069)">
                        <ellipse id="椭圆形" fill="#71CEDA" fill-rule="nonzero" cx="82.3591795" cy="85.7907158" rx="82.4115335" ry="83.1219778"></ellipse>
                        <g id="编组-24" stroke-width="1" fill="none" fill-rule="evenodd" transform="translate(34.910115, 42.970303)">
                            <path d="M28.5135934,77.4503608 L5.35819765,84.7251192 L5.35819765,84.7251192 C3.15642432,85.4168529 0.836067376,84.1084106 0.175535383,81.8026314 C0.0591352977,81.396303 3.33736635e-15,80.9743558 3.33736635e-15,80.5501366 L3.33736635e-15,12.9365466 C3.33736635e-15,11.0116603 1.2056564,9.31467602 2.96619967,8.76156403 L28.5135934,0.735308799 C31.6342223,-0.245102933 34.9609563,-0.245102933 38.0815852,0.735308799 L61.8111827,8.1904648 C64.9318116,9.17087656 68.2585456,9.17087656 71.3791745,8.1904648 L94.5345707,0.915706443 L94.5345707,0.915706443 C96.7363433,0.223972679 99.0567006,1.53241504 99.7172323,3.83819423 C99.8336323,4.2445226 99.8927679,4.66646975 99.8927679,5.09068901 L99.8927679,72.704279 C99.8927679,74.6291653 98.6871112,76.3261496 96.9265678,76.8792616 L71.3791745,84.9055168 C68.2585456,85.8859286 64.9318116,85.8859286 61.8111827,84.9055168 L38.0815852,77.4503608 C34.9609563,76.469949 31.6342223,76.469949 28.5135934,77.4503608 Z" id="路径" fill="#FFFFFF" fill-rule="nonzero"></path>
                            <path d="M36.263789,17.4791835 L61.236981,9.63332594 C63.4387543,8.94159222 65.7591112,10.2500346 66.4196433,12.5558137 C66.5360433,12.9621422 66.5951786,13.3840893 66.5951786,13.8083085 L66.5951786,63.9866595 C66.5951786,65.9115457 65.3895222,67.60853 63.628979,68.1616421 L38.655787,76.0074997 C36.4540137,76.6992334 34.1336567,75.390791 33.4731247,73.0850119 C33.3567246,72.6786834 33.2975893,72.2567363 33.2975893,71.8325171 L33.2975893,21.6541661 C33.2975893,19.7292799 34.5032457,18.0322956 36.263789,17.4791835 Z" id="矩形" fill="#71CEDA" fill-rule="nonzero" transform="translate(49.946384, 42.820413) scale(-1, 1) translate(-49.946384, -42.820413) "></path>
                            <path d="M54.305312,28.1969752 L51.9419255,39.0898886 C51.7381974,40.0288771 52.2999084,40.9630333 53.1965423,41.1763849 C53.3175762,41.2051846 53.4413058,41.2197199 53.5654247,41.2197199 L58.9046312,41.2197199 C59.8241187,41.2197199 60.5695107,42.0003222 60.5695107,42.9632438 C60.5695107,43.3677009 60.4352379,43.7595764 60.189687,44.071761 L48.4960107,58.9386749 C47.9114086,59.6819167 46.862156,59.7881332 46.1524393,59.1759161 C45.6666054,58.7568251 45.4479946,58.0866315 45.5874559,57.4438504 L47.9508424,46.5509369 C48.1545705,45.6119485 47.5928595,44.6777923 46.6962256,44.4644407 C46.5751917,44.435641 46.4514621,44.4211057 46.3273433,44.4211057 L40.9881367,44.4211057 C40.0686492,44.4211057 39.3232572,43.6405034 39.3232572,42.6775818 C39.3232572,42.2731247 39.45753,41.8812492 39.703081,41.5690646 L51.3967572,26.7021507 C51.9813593,25.9589089 53.0306119,25.8526924 53.7403286,26.4649095 C54.2261625,26.8840005 54.4447733,27.5541941 54.305312,28.1969752 Z" id="矩形" fill="#FFFFFF" fill-rule="nonzero"></path>
                        </g>
                    </g>
                </g>
            </g>
        </g>
    </g>
</svg>