<?xml version="1.0" encoding="UTF-8"?>
<svg width="18px" height="19px" viewBox="0 0 18 19" version="1.1" xmlns="http://www.w3.org/2000/svg" xmlns:xlink="http://www.w3.org/1999/xlink">
    <title>编组 31</title>
    <g id="EMS-icon" stroke="none" stroke-width="1" fill="none" fill-rule="evenodd">
        <g id="编组-31" transform="translate(0.000000, 0.500000)">
            <circle id="椭圆形" fill="#F196FD" cx="9" cy="9" r="9"></circle>
            <path d="M5.5,4 L10.5,4 C11.0522847,4 11.5,4.44771525 11.5,5 L11.5,14 L11.5,14 L4.5,14 L4.5,5 C4.5,4.44771525 4.94771525,4 5.5,4 Z" id="矩形" fill="#FFFFFF"></path>
            <path d="M12.5,8 L13,8 C13.2761424,8 13.5,8.22385763 13.5,8.5 L13.5,14 L13.5,14 L12,14 L12,8.5 C12,8.22385763 12.2238576,8 12.5,8 Z" id="矩形" fill="#FFFFFF"></path>
            <path d="M3.5,13 L14.5,13 C14.7761424,13 15,13.2238576 15,13.5 L15,14 L15,14 L3,14 L3,13.5 C3,13.2238576 3.22385763,13 3.5,13 Z" id="矩形" fill="#FFFFFF"></path>
            <rect id="矩形" fill="#F196FD" x="6.2" y="8.05" width="3.6" height="1" rx="0.45"></rect>
            <rect id="矩形" fill="#F196FD" transform="translate(8.000000, 8.500000) rotate(-270.000000) translate(-8.000000, -8.500000) " x="6.2" y="8.05" width="3.6" height="1" rx="0.45"></rect>
        </g>
    </g>
</svg>