<svg width="144" height="144" viewBox="0 0 144 144" fill="none" xmlns="http://www.w3.org/2000/svg">
<g clip-path="url(#clip0_327_18819)">
<path d="M28.3177 83.5312L28.9688 90.2812L24.8906 89.8327L28.3177 83.5312Z" fill="#E4EFFF"/>
<path d="M28.125 83.5312L32.3438 88.8595L28.7648 90.2812L28.125 83.5312Z" fill="#F3F8FF"/>
<path d="M14.1103 85.2188L14.9062 93.7969L9.98438 93.2245L14.1103 85.2188Z" fill="#E4EFFF"/>
<path d="M14.2031 85.2188L19.4062 91.9983L15.0005 93.7969L14.2031 85.2188Z" fill="#F3F8FF"/>
<path d="M20.88 79.3125L22.2188 93.5156L13.2188 92.6311L20.88 79.3125Z" fill="#E4EFFF"/>
<path d="M20.6719 79.3125L30.0938 90.4739L22.012 93.5156L20.6719 79.3125Z" fill="#F3F8FF"/>
<path d="M23.5167 48.0975C22.9908 45.2822 20.5327 43.2615 17.6977 43.3135C16.1803 43.3065 14.7164 43.8746 13.5956 44.9082C12.9684 44.6213 12.2878 44.4736 11.5988 44.4736C9.41625 44.4385 7.50516 45.946 7.01156 48.0933C5.33391 48.4674 4.12453 49.9468 4.07812 51.6807C4.14281 53.7915 5.88094 55.4536 7.97062 55.4044H22.545C24.6361 55.4564 26.3756 53.7929 26.4375 51.6807C26.3925 49.951 25.1887 48.4744 23.5167 48.0975Z" fill="url(#paint0_linear_327_18819)"/>
<path d="M108.1 28.5616C107.343 27.3733 106.062 26.6364 104.669 26.5858C103.857 25.33 102.466 24.5847 100.986 24.61C99.8002 24.5987 98.6583 25.0712 97.8187 25.9234C97.4348 25.7997 97.0341 25.735 96.6319 25.735C94.7672 25.735 93.2273 27.0428 93.0684 28.698C91.6467 29.0411 90.623 30.2997 90.5625 31.7805C90.5625 33.5636 92.1741 35.0162 94.1259 35.0162H107.812C109.792 35.0162 111.375 33.5636 111.375 31.7805C111.406 30.0859 109.942 28.6937 108.1 28.5616Z" fill="url(#paint1_linear_327_18819)"/>
<path d="M133.541 24.1511C132.205 21.3991 129.416 19.6469 126.353 19.637C124.647 19.6413 122.988 20.1939 121.621 21.2135C119.996 18.0438 116.463 16.3366 112.967 17.027C109.47 17.7189 106.856 20.6425 106.56 24.1905C102.799 25.3774 100.464 29.125 101.062 33.0203C101.661 36.9156 105.012 39.7928 108.956 39.797H131.21C135.177 39.8041 138.551 36.903 139.132 32.9838C139.714 29.0631 137.328 25.3099 133.529 24.1666L133.541 24.1511Z" fill="url(#paint2_linear_327_18819)"/>
<path d="M144 104.344C144 110.386 136.415 116.18 122.912 120.452C109.409 124.725 91.0955 127.125 72 127.125C52.9045 127.125 34.5909 124.725 21.0881 120.452C7.58531 116.18 0 110.386 0 104.344C0 98.3011 7.58531 92.5073 21.0881 88.2352C34.5909 83.963 52.9045 81.5625 72 81.5625C91.0955 81.5625 109.409 83.963 122.912 88.2352C136.415 92.5073 144 98.3011 144 104.344Z" fill="url(#paint3_linear_327_18819)"/>
<g filter="url(#filter0_f_327_18819)">
<path fill-rule="evenodd" clip-rule="evenodd" d="M96.8735 106.132L96.8284 106.304L96.6849 106.49L96.4019 106.701L95.911 106.937L95.263 107.165L94.3757 107.407L93.1972 107.66L91.346 107.971L88.9876 108.273L86.4692 108.523L83.538 108.747L80.4823 108.92L77.1067 109.052L73.6409 109.133L69.9495 109.16L66.2581 109.133L62.7923 109.052L59.4181 108.92L56.361 108.747L53.4312 108.523L50.9128 108.273L48.5544 107.971L46.7032 107.66L45.5233 107.407L44.6374 107.165L43.9894 106.937L43.4985 106.701L43.2142 106.49L43.072 106.304L43.0269 106.132L43.072 105.96L43.2142 105.772L43.4985 105.563L43.9894 105.327L44.6374 105.098L45.5233 104.856L46.7032 104.603L48.5544 104.293L50.9128 103.989L53.4312 103.739L56.361 103.516L59.4181 103.344L62.7923 103.212L66.2581 103.131L69.9495 103.104L73.6409 103.131L77.1067 103.212L80.4823 103.344L83.538 103.516L86.4692 103.739L88.9876 103.989L91.346 104.293L93.1972 104.603L94.3757 104.856L95.263 105.098L95.911 105.327L96.4019 105.563L96.6849 105.772L96.8284 105.96L96.8735 106.132Z" fill="#C2D5FF"/>
</g>
<path d="M127.406 85.2188L126.721 94.2188L121.641 92.745L127.406 85.2188Z" fill="#E4EFFF"/>
<path d="M127.245 85.2188L131.484 93.1486L126.562 94.2188L127.245 85.2188Z" fill="#F3F8FF"/>
<path fill-rule="evenodd" clip-rule="evenodd" d="M58.2233 58.5L58.205 58.5703L58.3358 58.5225L58.4792 58.5056L58.5594 58.5112L87.3875 62.2912L87.6012 62.3616L87.77 62.4966L87.8825 62.6808L87.9233 62.903V103.455L87.8909 103.648L87.8136 103.807L87.687 103.94L87.6884 103.942L86.2836 105.003V103.919L58.3836 99.5625L58.174 99.4894L58.0109 99.3544L57.9026 99.1716L57.8633 98.9536L57.8619 59.8275L56.644 59.5913L58.2233 58.5Z" fill="url(#paint4_linear_327_18819)"/>
<path fill-rule="evenodd" clip-rule="evenodd" d="M57.1218 59.5427L86.0005 63.334L86.2157 63.4043L86.3844 63.5393L86.4969 63.7249L86.5377 63.9471V104.612L86.5152 104.78L86.4547 104.924L86.3577 105.049L86.2325 105.146L86.0877 105.206L85.9204 105.23L85.8247 105.222L56.946 100.709L56.735 100.636L56.5719 100.501L56.4622 100.317L56.4229 100.099V60.1559L56.4468 59.9885L56.5072 59.8437L56.6043 59.7185L56.7294 59.6215L56.8728 59.561L57.0402 59.5371L57.1218 59.5427Z" fill="url(#paint5_linear_327_18819)"/>
<path d="M59.192 63.6914L83.769 66.5602V100.037L58.5381 97.7508L59.192 63.6914Z" fill="white"/>
<path fill-rule="evenodd" clip-rule="evenodd" d="M61.269 69.5688L61.307 69.8584L61.404 70.113L61.5629 70.3394L61.7683 70.5222L62.0101 70.6487L62.2928 70.7205L72.1112 71.8891L72.3376 71.8834L72.5401 71.8258L72.7215 71.7161L72.872 71.5642L72.9747 71.3828L73.0323 71.162L73.038 71.065L73.0042 70.8006L72.917 70.5686L72.775 70.3605L72.588 70.1917L72.37 70.0736L72.1126 70.0047L62.2914 68.6758L62.0439 68.6772L61.8245 68.7362L61.6248 68.8516L61.4589 69.0133L61.345 69.2102L61.2775 69.4478L61.269 69.5688Z" fill="url(#paint6_linear_327_18819)" fill-opacity="0.3"/>
<path fill-rule="evenodd" clip-rule="evenodd" d="M61.269 75.588L61.3098 75.9114L61.4237 76.2025L61.6009 76.457L61.8344 76.6623L62.1114 76.8058L62.4292 76.8817L79.923 78.8041L80.1845 78.797L80.425 78.7253L80.6359 78.5959L80.8089 78.4173L80.9312 78.1994L80.9945 77.9448L81.0001 77.838L80.9622 77.537L80.8581 77.2656L80.6922 77.028L80.4756 76.8367L80.2183 76.7003L79.9244 76.6272L62.4278 74.5586L62.1479 74.5642L61.892 74.6388L61.6642 74.7752L61.4786 74.9636L61.3464 75.1956L61.2761 75.467L61.269 75.588Z" fill="url(#paint7_linear_327_18819)" fill-opacity="0.3"/>
<path fill-rule="evenodd" clip-rule="evenodd" d="M61.269 82.8575L61.3098 83.1795L61.4237 83.4706L61.6009 83.7252L61.8344 83.9305L62.1114 84.0753L62.4292 84.1498L79.923 86.0722L80.1845 86.0652L80.425 85.9934L80.6359 85.8641L80.8089 85.6855L80.9312 85.4675L80.9945 85.213L81.0001 85.1075L80.9622 84.8052L80.8581 84.5338L80.6922 84.2961L80.4756 84.1048L80.2183 83.9684L79.9244 83.8953L62.4278 81.8281L62.1479 81.8323L61.892 81.9069L61.6642 82.0433L61.4786 82.2317L61.3464 82.4637L61.2761 82.7351L61.269 82.8575Z" fill="url(#paint8_linear_327_18819)" fill-opacity="0.3"/>
<path d="M58.7701 86.8848L58.5634 88.7987L58.3145 90.3779L58.0361 91.666L57.7337 92.701L57.4159 93.5195L57.0897 94.1565L56.7564 94.6416L56.4203 95.0002L56.0771 95.2548L56.1953 95.2913L57.7407 95.5599L64.0914 96.5373L80.7639 98.9996L83.0772 86.8848H58.7701Z" fill="#9AC7FF"/>
<path d="M58.7896 86.8848L58.6841 88.6088L58.5308 90.0615L58.3382 91.2709L58.1132 92.2707L57.8657 93.0849L57.5999 93.7416L57.32 94.2634L57.0303 94.6712L56.7322 94.9806L56.4229 95.2084L56.541 95.2463L58.0583 95.5177L64.2894 96.5077L80.6329 98.9996L83.4229 86.8848H58.7896Z" fill="white"/>
<path fill-rule="evenodd" clip-rule="evenodd" d="M72.4851 55.7305L72.9491 55.7741L73.3738 55.8894L73.7676 56.0778L74.1247 56.3309L74.4271 56.6347L74.6802 56.9933L74.8687 57.3884L74.984 57.8145L75.0276 58.28L75.0163 58.5092L78.5769 58.9789V62.9811L77.8851 63.6913L77.5279 62.8433L66.8418 61.4314V58.28H66.1147L66.8418 57.4278L69.9791 57.8427L70.0804 57.4503L70.2351 57.0917L70.4418 56.7627L70.6977 56.4673L70.9902 56.217L71.3235 56.0117L71.6835 55.8584L72.0688 55.7642L72.4851 55.7305ZM72.4851 57.1873L72.2291 57.2183L72.0041 57.2984L71.8016 57.4292L71.6315 57.5994L71.5063 57.7991L71.4233 58.0339L73.5735 58.318L73.5749 58.28L73.5355 57.9875L73.4258 57.7287L73.2557 57.5066L73.0349 57.3364L72.7762 57.2267L72.4851 57.1873Z" fill="url(#paint9_linear_327_18819)"/>
<path fill-rule="evenodd" clip-rule="evenodd" d="M61.269 89.088L61.3098 89.4114L61.4237 89.7025L61.6009 89.957L61.8344 90.1623L62.1114 90.3058L62.4292 90.3817L79.923 92.3041L80.1845 92.297L80.425 92.2253L80.6359 92.0959L80.8089 91.9173L80.9312 91.6994L80.9945 91.4448L81.0001 91.338L80.9622 91.037L80.8581 90.7656L80.6922 90.528L80.4756 90.3367L80.2183 90.2003L79.9244 90.1272L62.4278 88.0586L62.1479 88.0642L61.892 88.1388L61.6642 88.2752L61.4786 88.4636L61.3464 88.6956L61.2761 88.967L61.269 89.088Z" fill="url(#paint10_linear_327_18819)" fill-opacity="0.3"/>
<path fill-rule="evenodd" clip-rule="evenodd" d="M71.7749 56.4219L72.2404 56.4655L72.6665 56.5822L73.0616 56.7706L73.4188 57.0252L73.7226 57.3289L73.9771 57.6875L74.1655 58.0841L74.2808 58.5116L74.3244 58.9784L74.3146 59.2077L77.8851 59.6802V63.6908L66.1147 62.1369V58.1248L69.2619 58.5411L69.3632 58.1473L69.5179 57.7873L69.726 57.4569L69.9819 57.1602L70.2758 56.9112L70.6105 56.7045L70.9719 56.5512L71.3587 56.457L71.7749 56.4219ZM71.7749 57.883L71.519 57.9139L71.2926 57.9941L71.0901 58.1248L70.9199 58.2964L70.7933 58.4975L70.7104 58.7309L72.8676 59.0164V58.9784L72.8282 58.6845L72.7185 58.4258L72.5469 58.2036L72.3262 58.032L72.0674 57.9223L71.7749 57.883Z" fill="url(#paint11_linear_327_18819)"/>
</g>
<defs>
<filter id="filter0_f_327_18819" x="15.0269" y="75.1035" width="109.847" height="62.0566" filterUnits="userSpaceOnUse" color-interpolation-filters="sRGB">
<feFlood flood-opacity="0" result="BackgroundImageFix"/>
<feBlend mode="normal" in="SourceGraphic" in2="BackgroundImageFix" result="shape"/>
<feGaussianBlur stdDeviation="14" result="effect1_foregroundBlur_327_18819"/>
</filter>
<linearGradient id="paint0_linear_327_18819" x1="15.2578" y1="55.4204" x2="15.2578" y2="43.3055" gradientUnits="userSpaceOnUse">
<stop stop-color="white" stop-opacity="0.1"/>
<stop offset="1" stop-color="#D9E9FF"/>
</linearGradient>
<linearGradient id="paint1_linear_327_18819" x1="100.987" y1="35.0162" x2="100.987" y2="24.6101" gradientUnits="userSpaceOnUse">
<stop stop-color="white" stop-opacity="0.1"/>
<stop offset="0.14" stop-color="#F8FBFF" stop-opacity="0.27"/>
<stop offset="0.37" stop-color="#EDF5FF" stop-opacity="0.52"/>
<stop offset="0.58" stop-color="#E4F0FF" stop-opacity="0.73"/>
<stop offset="0.76" stop-color="#DEECFF" stop-opacity="0.88"/>
<stop offset="0.91" stop-color="#DAEAFF" stop-opacity="0.97"/>
<stop offset="1" stop-color="#D9E9FF"/>
</linearGradient>
<linearGradient id="paint2_linear_327_18819" x1="120.096" y1="39.7813" x2="120.096" y2="16.8564" gradientUnits="userSpaceOnUse">
<stop stop-color="white" stop-opacity="0.1"/>
<stop offset="0.09" stop-color="#FEFEFF" stop-opacity="0.13"/>
<stop offset="0.23" stop-color="#FBFCFF" stop-opacity="0.21"/>
<stop offset="0.4" stop-color="#F5F9FF" stop-opacity="0.33"/>
<stop offset="0.59" stop-color="#EEF5FF" stop-opacity="0.51"/>
<stop offset="0.79" stop-color="#E4EFFF" stop-opacity="0.74"/>
<stop offset="1" stop-color="#D9E9FF"/>
</linearGradient>
<linearGradient id="paint3_linear_327_18819" x1="72" y1="127.125" x2="72" y2="81.5625" gradientUnits="userSpaceOnUse">
<stop stop-color="white" stop-opacity="0.1"/>
<stop offset="0.13" stop-color="#FBFDFF" stop-opacity="0.19"/>
<stop offset="0.41" stop-color="#F1F7FF" stop-opacity="0.43"/>
<stop offset="0.81" stop-color="#E1EEFF" stop-opacity="0.82"/>
<stop offset="1" stop-color="#D9E9FF"/>
</linearGradient>
<linearGradient id="paint4_linear_327_18819" x1="72.2837" y1="58.5" x2="72.2837" y2="105.003" gradientUnits="userSpaceOnUse">
<stop stop-color="#67AFFF"/>
<stop offset="1" stop-color="#2563EB"/>
</linearGradient>
<linearGradient id="paint5_linear_327_18819" x1="71.4803" y1="59.5371" x2="71.4803" y2="105.23" gradientUnits="userSpaceOnUse">
<stop stop-color="#A0CDFF"/>
<stop offset="1" stop-color="#568BFF"/>
</linearGradient>
<linearGradient id="paint6_linear_327_18819" x1="73.038" y1="70.3584" x2="60.394" y2="69.3449" gradientUnits="userSpaceOnUse">
<stop stop-color="#DCEDFF"/>
<stop offset="1" stop-color="#568BFF"/>
</linearGradient>
<linearGradient id="paint7_linear_327_18819" x1="81.0001" y1="76.7417" x2="59.7517" y2="75.4422" gradientUnits="userSpaceOnUse">
<stop stop-color="#DCEDFF"/>
<stop offset="1" stop-color="#568BFF"/>
</linearGradient>
<linearGradient id="paint8_linear_327_18819" x1="81.0001" y1="84.0105" x2="59.7518" y2="82.7105" gradientUnits="userSpaceOnUse">
<stop stop-color="#DCEDFF"/>
<stop offset="1" stop-color="#568BFF"/>
</linearGradient>
<linearGradient id="paint9_linear_327_18819" x1="72.3458" y1="55.7305" x2="72.3458" y2="63.6913" gradientUnits="userSpaceOnUse">
<stop stop-color="#67AFFF"/>
<stop offset="1" stop-color="#2563EB"/>
</linearGradient>
<linearGradient id="paint10_linear_327_18819" x1="81.0001" y1="90.2417" x2="59.7517" y2="88.9422" gradientUnits="userSpaceOnUse">
<stop stop-color="#DCEDFF"/>
<stop offset="1" stop-color="#568BFF"/>
</linearGradient>
<linearGradient id="paint11_linear_327_18819" x1="71.9999" y1="56.4219" x2="71.9999" y2="63.6908" gradientUnits="userSpaceOnUse">
<stop stop-color="#A0CDFF"/>
<stop offset="1" stop-color="#568BFF"/>
</linearGradient>
<clipPath id="clip0_327_18819">
<rect width="144" height="144" fill="white"/>
</clipPath>
</defs>
</svg>
