<svg width="144" height="144" viewBox="0 0 144 144" fill="none" xmlns="http://www.w3.org/2000/svg">
<g clip-path="url(#clip0_327_26057)">
<path d="M28.3177 83.5312L28.9688 90.2812L24.8906 89.8327L28.3177 83.5312Z" fill="#E4EFFF"/>
<path d="M28.125 83.5312L32.3438 88.8595L28.7648 90.2812L28.125 83.5312Z" fill="#F3F8FF"/>
<path d="M14.1103 85.2188L14.9062 93.7969L9.98438 93.2245L14.1103 85.2188Z" fill="#E4EFFF"/>
<path d="M14.2031 85.2188L19.4062 91.9983L15.0005 93.7969L14.2031 85.2188Z" fill="#F3F8FF"/>
<path d="M20.88 79.3125L22.2188 93.5156L13.2188 92.6311L20.88 79.3125Z" fill="#E4EFFF"/>
<path d="M20.6719 79.3125L30.0938 90.4739L22.012 93.5156L20.6719 79.3125Z" fill="#F3F8FF"/>
<path d="M23.5167 48.0975C22.9908 45.2822 20.5327 43.2615 17.6977 43.3135C16.1803 43.3065 14.7164 43.8746 13.5956 44.9082C12.9684 44.6213 12.2878 44.4736 11.5988 44.4736C9.41625 44.4385 7.50516 45.946 7.01156 48.0933C5.33391 48.4674 4.12453 49.9468 4.07812 51.6807C4.14281 53.7915 5.88094 55.4536 7.97062 55.4044H22.545C24.6361 55.4564 26.3756 53.7929 26.4375 51.6807C26.3925 49.951 25.1887 48.4744 23.5167 48.0975Z" fill="url(#paint0_linear_327_26057)"/>
<path d="M108.1 28.5616C107.343 27.3733 106.062 26.6364 104.669 26.5858C103.857 25.33 102.466 24.5847 100.986 24.61C99.8002 24.5987 98.6583 25.0712 97.8187 25.9234C97.4348 25.7997 97.0341 25.735 96.6319 25.735C94.7672 25.735 93.2273 27.0428 93.0684 28.698C91.6467 29.0411 90.623 30.2997 90.5625 31.7805C90.5625 33.5636 92.1741 35.0162 94.1259 35.0162H107.812C109.792 35.0162 111.375 33.5636 111.375 31.7805C111.406 30.0859 109.942 28.6937 108.1 28.5616Z" fill="url(#paint1_linear_327_26057)"/>
<path d="M133.541 24.1511C132.205 21.3991 129.416 19.6469 126.353 19.637C124.647 19.6413 122.988 20.1939 121.621 21.2135C119.996 18.0438 116.463 16.3366 112.967 17.027C109.47 17.7189 106.856 20.6425 106.56 24.1905C102.799 25.3774 100.464 29.125 101.062 33.0203C101.661 36.9156 105.012 39.7928 108.956 39.797H131.21C135.177 39.8041 138.551 36.903 139.132 32.9838C139.714 29.0631 137.328 25.3099 133.529 24.1666L133.541 24.1511Z" fill="url(#paint2_linear_327_26057)"/>
<path d="M144 104.344C144 110.386 136.415 116.18 122.912 120.452C109.409 124.725 91.0955 127.125 72 127.125C52.9045 127.125 34.5909 124.725 21.0881 120.452C7.58531 116.18 0 110.386 0 104.344C0 98.3011 7.58531 92.5073 21.0881 88.2352C34.5909 83.963 52.9045 81.5625 72 81.5625C91.0955 81.5625 109.409 83.963 122.912 88.2352C136.415 92.5073 144 98.3011 144 104.344Z" fill="url(#paint3_linear_327_26057)"/>
<g filter="url(#filter0_f_327_26057)">
<path fill-rule="evenodd" clip-rule="evenodd" d="M96.8735 106.132L96.8284 106.304L96.6849 106.49L96.4019 106.701L95.911 106.937L95.263 107.165L94.3757 107.407L93.1972 107.66L91.346 107.971L88.9876 108.273L86.4692 108.523L83.538 108.747L80.4823 108.92L77.1067 109.052L73.6409 109.133L69.9495 109.16L66.2581 109.133L62.7923 109.052L59.4181 108.92L56.361 108.747L53.4312 108.523L50.9128 108.273L48.5544 107.971L46.7032 107.66L45.5233 107.407L44.6374 107.165L43.9894 106.937L43.4985 106.701L43.2142 106.49L43.072 106.304L43.0269 106.132L43.072 105.96L43.2142 105.772L43.4985 105.563L43.9894 105.327L44.6374 105.098L45.5233 104.856L46.7032 104.603L48.5544 104.293L50.9128 103.989L53.4312 103.739L56.361 103.516L59.4181 103.344L62.7923 103.212L66.2581 103.131L69.9495 103.104L73.6409 103.131L77.1067 103.212L80.4823 103.344L83.538 103.516L86.4692 103.739L88.9876 103.989L91.346 104.293L93.1972 104.603L94.3757 104.856L95.263 105.098L95.911 105.327L96.4019 105.563L96.6849 105.772L96.8284 105.96L96.8735 106.132Z" fill="#C2D5FF"/>
</g>
<path d="M127.406 85.2188L126.721 94.2188L121.641 92.745L127.406 85.2188Z" fill="#E4EFFF"/>
<path d="M127.245 85.2188L131.484 93.1486L126.562 94.2188L127.245 85.2188Z" fill="#F3F8FF"/>
<path fill-rule="evenodd" clip-rule="evenodd" d="M59.1129 96.9234L58.9104 96.9038L58.7107 96.8503L58.4801 96.7406L58.2874 96.5958L58.1285 96.4172L58.0076 96.2105L57.9345 95.9869L57.9078 95.7422V90.6614L65.2779 90.6741L61.0957 95.3597V96.9234H59.1129ZM84.9303 62.3086L85.3803 62.348L85.7909 62.4563L86.1706 62.6306L86.5165 62.8669L86.809 63.1481L87.0523 63.4786L87.2337 63.8456L87.3462 64.2408L87.387 64.6711V76.485H70.1913L69.7413 76.5258L69.3307 76.6327L68.951 76.807L68.6051 77.0433L68.3126 77.3245L68.0693 77.655L67.8879 78.022L67.7754 78.4172L67.7346 78.8475V90.6614H52.9943L52.5457 90.622L52.1351 90.5138L51.7554 90.3394L51.4095 90.1045L51.117 89.8219L50.8737 89.4914L50.6923 89.1244L50.5798 88.7292L50.5376 88.2989V64.6711L50.5798 64.2408L50.6923 63.8456L50.8737 63.4786L51.117 63.1481L51.4095 62.8669L51.7554 62.6306L52.1351 62.4563L52.5457 62.348L52.9943 62.3086H84.9303Z" fill="url(#paint4_linear_327_26057)"/>
<path fill-rule="evenodd" clip-rule="evenodd" d="M90.3456 78.8477L90.6761 78.8912L90.9658 79.0094L91.2147 79.195L91.4074 79.4327L91.5297 79.7139L91.5747 80.0289V91.8442L91.5508 92.0762L91.4805 92.2956L91.3694 92.4981L91.2147 92.6795L91.0277 92.8272L90.8167 92.9355L90.5875 93.0016L90.3456 93.0255H73.15L72.9081 93.0016L72.6803 92.9355L72.4694 92.8272L72.281 92.6795L72.1277 92.4981L72.0152 92.2956L71.9463 92.0762L71.9224 91.8442V80.0289L71.966 79.7139L72.0897 79.4327L72.281 79.195L72.5299 79.0094L72.821 78.8912L73.15 78.8477H90.3456ZM78.678 84.7553L78.3405 84.7848L78.0325 84.8664L77.747 84.9972L77.4883 85.1744L77.2689 85.3853L77.0861 85.6328L76.9497 85.9084L76.8667 86.2037L76.8344 86.5272L76.8667 86.8506L76.9497 87.1473L77.0861 87.4216L77.2689 87.6691L77.4883 87.8814L77.747 88.0572L78.0325 88.188L78.3405 88.2695L78.678 88.2991L79.0141 88.2695L79.3221 88.188L79.6075 88.0572L79.8663 87.8814L80.0856 87.6691L80.2685 87.4216L80.4049 87.1473L80.4892 86.8506L80.5202 86.5272L80.4892 86.2037L80.4049 85.9084L80.2685 85.6328L80.0856 85.3853L79.8663 85.1744L79.6075 84.9972L79.3221 84.8664L79.0141 84.7848L78.678 84.7553ZM84.8191 84.7553L84.4816 84.7848L84.1736 84.8664L83.8895 84.9972L83.6294 85.1744L83.41 85.3853L83.2286 85.6328L83.0922 85.9084L83.0078 86.2037L82.9769 86.5272L83.0078 86.8506L83.0922 87.1473L83.2286 87.4216L83.41 87.6691L83.6294 87.8814L83.8895 88.0572L84.1736 88.188L84.4816 88.2695L84.8191 88.2991L85.1552 88.2695L85.4645 88.188L85.7486 88.0572L86.0088 87.8814L86.2267 87.6691L86.4095 87.4216L86.546 87.1473L86.6303 86.8506L86.6613 86.5272L86.6303 86.2037L86.546 85.9084L86.4095 85.6328L86.2267 85.3853L86.0088 85.1744L85.7486 84.9972L85.4645 84.8664L85.1552 84.7848L84.8191 84.7553Z" fill="url(#paint5_linear_327_26057)"/>
<path fill-rule="evenodd" clip-rule="evenodd" d="M89.2742 76.485H72.0771L71.6286 76.5258L71.2179 76.6327L70.8382 76.807L70.4923 77.0433L70.1998 77.3245L69.9565 77.655L69.7751 78.022L69.6626 78.4172L69.6218 78.8475V90.6614H54.8815L54.4329 90.622L54.0209 90.5138L53.6412 90.3394L53.2953 90.1045L53.0042 89.8219L52.7609 89.4914L52.5781 89.1244L52.467 88.7292L52.4248 88.2989V64.6711L52.467 64.2408L52.5781 63.8456L52.7609 63.4786L53.0042 63.1481L53.2953 62.8669L53.6412 62.6306L54.0209 62.4563L54.4329 62.348L54.8815 62.3086H86.8175L87.2661 62.348L87.6781 62.4563L88.0578 62.6306L88.4023 62.8669L88.6948 63.1481L88.9381 63.4786L89.1209 63.8456L89.232 64.2408L89.2742 64.6711V76.485ZM59.795 90.6614L67.1651 90.6741L61.955 96.5114L61.7693 96.6802L61.5626 96.8039L61.3306 96.8855L61.0887 96.922L60.8454 96.9108L60.5965 96.8503L60.3659 96.7406L60.1747 96.5958L60.0143 96.4172L59.8948 96.2105L59.8217 95.9869L59.795 95.7422V90.6614Z" fill="url(#paint6_linear_327_26057)"/>
<path fill-rule="evenodd" clip-rule="evenodd" d="M92.2328 78.8477L92.5618 78.8912L92.8529 79.0094L93.1019 79.195L93.2931 79.4327L93.4169 79.7139L93.4619 80.0289V91.8442L93.4379 92.0762L93.3676 92.2956L93.2551 92.4981L93.1019 92.6795L92.9148 92.8272L92.7025 92.9355L92.4747 93.0016L92.2328 93.0255H75.0372L74.7953 93.0016L74.5661 92.9355L74.3551 92.8272L74.1681 92.6795L74.0148 92.4981L73.9023 92.2956L73.832 92.0762L73.8081 91.8442V80.0289L73.8531 79.7139L73.9754 79.4327L74.1681 79.195L74.417 79.0094L74.7067 78.8912L75.0372 78.8477H92.2328ZM80.5637 84.7553L80.2276 84.7848L79.9197 84.8664L79.6342 84.9972L79.3755 85.1744L79.1561 85.3853L78.9733 85.6328L78.8369 85.9084L78.7525 86.2037L78.7215 86.5272L78.7525 86.8506L78.8369 87.1473L78.9733 87.4216L79.1561 87.6691L79.3755 87.8814L79.6342 88.0572L79.9197 88.188L80.2276 88.2695L80.5637 88.2991L80.9012 88.2695L81.2092 88.188L81.4933 88.0572L81.7534 87.8814L81.9728 87.6691L82.1556 87.4216L82.292 87.1473L82.375 86.8506L82.4059 86.5272L82.375 86.2037L82.292 85.9084L82.1556 85.6328L81.9728 85.3853L81.7534 85.1744L81.4933 84.9972L81.2092 84.8664L80.9012 84.7848L80.5637 84.7553ZM86.7062 84.7553L86.3687 84.7848L86.0608 84.8664L85.7753 84.9972L85.5165 85.1744L85.2972 85.3853L85.1144 85.6328L84.9779 85.9084L84.895 86.2037L84.8626 86.5272L84.895 86.8506L84.9779 87.1473L85.1144 87.4216L85.2972 87.6691L85.5165 87.8814L85.7753 88.0572L86.0608 88.188L86.3687 88.2695L86.7062 88.2991L87.0423 88.2695L87.3503 88.188L87.6358 88.0572L87.8945 87.8814L88.1139 87.6691L88.2967 87.4216L88.4331 87.1473L88.5175 86.8506L88.5484 86.5272L88.5175 86.2037L88.4331 85.9084L88.2967 85.6328L88.1139 85.3853L87.8945 85.1744L87.6358 84.9972L87.3503 84.8664L87.0423 84.7848L86.7062 84.7553Z" fill="url(#paint7_linear_327_26057)"/>
</g>
<defs>
<filter id="filter0_f_327_26057" x="15.0269" y="75.1035" width="109.847" height="62.0566" filterUnits="userSpaceOnUse" color-interpolation-filters="sRGB">
<feFlood flood-opacity="0" result="BackgroundImageFix"/>
<feBlend mode="normal" in="SourceGraphic" in2="BackgroundImageFix" result="shape"/>
<feGaussianBlur stdDeviation="14" result="effect1_foregroundBlur_327_26057"/>
</filter>
<linearGradient id="paint0_linear_327_26057" x1="15.2578" y1="55.4204" x2="15.2578" y2="43.3055" gradientUnits="userSpaceOnUse">
<stop stop-color="white" stop-opacity="0.1"/>
<stop offset="1" stop-color="#D9E9FF"/>
</linearGradient>
<linearGradient id="paint1_linear_327_26057" x1="100.987" y1="35.0162" x2="100.987" y2="24.6101" gradientUnits="userSpaceOnUse">
<stop stop-color="white" stop-opacity="0.1"/>
<stop offset="0.14" stop-color="#F8FBFF" stop-opacity="0.27"/>
<stop offset="0.37" stop-color="#EDF5FF" stop-opacity="0.52"/>
<stop offset="0.58" stop-color="#E4F0FF" stop-opacity="0.73"/>
<stop offset="0.76" stop-color="#DEECFF" stop-opacity="0.88"/>
<stop offset="0.91" stop-color="#DAEAFF" stop-opacity="0.97"/>
<stop offset="1" stop-color="#D9E9FF"/>
</linearGradient>
<linearGradient id="paint2_linear_327_26057" x1="120.096" y1="39.7813" x2="120.096" y2="16.8564" gradientUnits="userSpaceOnUse">
<stop stop-color="white" stop-opacity="0.1"/>
<stop offset="0.09" stop-color="#FEFEFF" stop-opacity="0.13"/>
<stop offset="0.23" stop-color="#FBFCFF" stop-opacity="0.21"/>
<stop offset="0.4" stop-color="#F5F9FF" stop-opacity="0.33"/>
<stop offset="0.59" stop-color="#EEF5FF" stop-opacity="0.51"/>
<stop offset="0.79" stop-color="#E4EFFF" stop-opacity="0.74"/>
<stop offset="1" stop-color="#D9E9FF"/>
</linearGradient>
<linearGradient id="paint3_linear_327_26057" x1="72" y1="127.125" x2="72" y2="81.5625" gradientUnits="userSpaceOnUse">
<stop stop-color="white" stop-opacity="0.1"/>
<stop offset="0.13" stop-color="#FBFDFF" stop-opacity="0.19"/>
<stop offset="0.41" stop-color="#F1F7FF" stop-opacity="0.43"/>
<stop offset="0.81" stop-color="#E1EEFF" stop-opacity="0.82"/>
<stop offset="1" stop-color="#D9E9FF"/>
</linearGradient>
<linearGradient id="paint4_linear_327_26057" x1="68.9623" y1="62.3086" x2="68.9623" y2="96.9234" gradientUnits="userSpaceOnUse">
<stop stop-color="#67AFFF"/>
<stop offset="1" stop-color="#2563EB"/>
</linearGradient>
<linearGradient id="paint5_linear_327_26057" x1="81.7485" y1="78.8477" x2="81.7485" y2="93.0255" gradientUnits="userSpaceOnUse">
<stop stop-color="#67AFFF"/>
<stop offset="1" stop-color="#2563EB"/>
</linearGradient>
<linearGradient id="paint6_linear_327_26057" x1="70.8495" y1="62.3086" x2="70.8495" y2="96.922" gradientUnits="userSpaceOnUse">
<stop stop-color="#A0CDFF"/>
<stop offset="1" stop-color="#568BFF"/>
</linearGradient>
<linearGradient id="paint7_linear_327_26057" x1="83.635" y1="78.8477" x2="83.635" y2="93.0255" gradientUnits="userSpaceOnUse">
<stop stop-color="#A0CDFF"/>
<stop offset="1" stop-color="#568BFF"/>
</linearGradient>
<clipPath id="clip0_327_26057">
<rect width="144" height="144" fill="white"/>
</clipPath>
</defs>
</svg>
