<?xml version="1.0" encoding="UTF-8"?>
<svg width="587px" height="308px" viewBox="0 0 587 308" version="1.1" xmlns="http://www.w3.org/2000/svg" xmlns:xlink="http://www.w3.org/1999/xlink">
    <title>编组 2</title>
    <defs>
        <rect id="path-1" x="0" y="0" width="587" height="308" rx="4"></rect>
        <linearGradient x1="50%" y1="0%" x2="50%" y2="100%" id="linearGradient-3">
            <stop stop-color="#81CFFF" offset="0%"></stop>
            <stop stop-color="#5ECFFF" stop-opacity="0" offset="100%"></stop>
        </linearGradient>
        <linearGradient x1="50%" y1="0%" x2="50%" y2="100%" id="linearGradient-4">
            <stop stop-color="#81CFFF" offset="0%"></stop>
            <stop stop-color="#5ECFFF" stop-opacity="0" offset="100%"></stop>
        </linearGradient>
        <linearGradient x1="50%" y1="0%" x2="50%" y2="100%" id="linearGradient-5">
            <stop stop-color="#81CFFF" offset="0%"></stop>
            <stop stop-color="#5ECFFF" stop-opacity="0" offset="100%"></stop>
        </linearGradient>
        <linearGradient x1="49.9926718%" y1="0.00134322903%" x2="49.9926718%" y2="99.9986568%" id="linearGradient-6">
            <stop stop-color="#81CFFF" offset="0%"></stop>
            <stop stop-color="#5ECFFF" stop-opacity="0" offset="100%"></stop>
        </linearGradient>
        <linearGradient x1="49.9845964%" y1="0.00160536707%" x2="49.9845964%" y2="100.018611%" id="linearGradient-7">
            <stop stop-color="#81CFFF" offset="0%"></stop>
            <stop stop-color="#5ECFFF" stop-opacity="0" offset="100%"></stop>
        </linearGradient>
        <linearGradient x1="50.0061013%" y1="0.0015646865%" x2="50.0061013%" y2="100.015288%" id="linearGradient-8">
            <stop stop-color="#81CFFF" offset="0%"></stop>
            <stop stop-color="#5ECFFF" stop-opacity="0" offset="100%"></stop>
        </linearGradient>
        <linearGradient x1="49.9999688%" y1="5.31957582e-16%" x2="49.9999688%" y2="100%" id="linearGradient-9">
            <stop stop-color="#81CFFF" offset="0%"></stop>
            <stop stop-color="#5ECFFF" stop-opacity="0" offset="100%"></stop>
        </linearGradient>
    </defs>
    <g id="定稿修改" stroke="none" stroke-width="1" fill="none" fill-rule="evenodd">
        <g id="编组-2">
            <mask id="mask-2" fill="white">
                <use xlink:href="#path-1"></use>
            </mask>
            <g id="矩形" opacity="0.695838565"></g>
            <g id="开发中" opacity="0.300561814" mask="url(#mask-2)">
                <g transform="translate(25.500000, 122.000000)">
                    <polygon id="路径" fill="url(#linearGradient-3)" fill-rule="nonzero" points="2 108 2 213 0 213 0 108"></polygon>
                    <polygon id="路径" fill="url(#linearGradient-3)" fill-rule="nonzero" points="536 85 536 190 534 190 534 85"></polygon>
                    <polygon id="路径" fill="url(#linearGradient-4)" fill-rule="nonzero" points="49 169 49 234 47 234 47 169"></polygon>
                    <polygon id="路径" fill="url(#linearGradient-5)" fill-rule="nonzero" points="77 112 77 145 75 145 75 112"></polygon>
                    <polygon id="路径" fill="url(#linearGradient-5)" fill-rule="nonzero" points="468 122 468 155 466 155 466 122"></polygon>
                    <polygon id="路径" fill="url(#linearGradient-4)" fill-rule="nonzero" points="500 157 500 222 498 222 498 157"></polygon>
                    <g id="编组" opacity="0.7" stroke-width="1" fill="none" fill-rule="evenodd" transform="translate(96.500000, 0.000000)">
                        <path d="M350.688736,31.3223251 L277.195104,31.3223251 C275.441535,31.2494434 273.960041,32.6098667 273.88384,34.3629856 L273.88384,236.490598 C273.960041,238.243717 275.441535,239.604141 277.195104,239.531259 L350.688736,239.531259 C352.439911,239.597618 353.917501,238.24078 354,236.490598 L354,34.3629856 C353.917501,32.6128045 352.439911,31.2559662 350.688736,31.3223251 Z M289.207244,172.578028 C289.198201,172.862568 289.0747,173.13142 288.864716,173.323687 C288.654732,173.515955 288.376033,173.615368 288.091747,173.599408 L283.864601,173.599408 C283.580316,173.615368 283.301617,173.515955 283.091633,173.323687 C282.881648,173.13142 282.758148,172.862568 282.749104,172.578028 L282.749104,149.415004 C282.761291,149.131567 282.885733,148.864615 283.094992,148.673012 C283.30425,148.48141 283.581138,148.380892 283.864601,148.393624 L288.091747,148.393624 C288.375211,148.380892 288.652099,148.48141 288.861357,148.673012 C289.070615,148.864615 289.195058,149.131567 289.207244,149.415004 L289.207244,172.578028 Z M289.207244,137.088002 C289.195058,137.37144 289.070615,137.638392 288.861357,137.829994 C288.652099,138.021597 288.375211,138.122115 288.091747,138.109382 L283.864601,138.109382 C283.581138,138.122115 283.30425,138.021597 283.094992,137.829994 C282.885733,137.638392 282.761291,137.37144 282.749104,137.088002 L282.749104,113.878019 C282.761291,113.594581 282.885733,113.327629 283.094992,113.136027 C283.30425,112.944424 283.581138,112.843906 283.864601,112.856638 L288.091747,112.856638 C288.375211,112.843906 288.652099,112.944424 288.861357,113.136027 C289.070615,113.327629 289.195058,113.594581 289.207244,113.878019 L289.207244,137.088002 Z M289.207244,101.586237 C289.195058,101.869674 289.070615,102.136626 288.861357,102.328228 C288.652099,102.519831 288.375211,102.620349 288.091747,102.607617 L283.864601,102.607617 C283.581138,102.620349 283.30425,102.519831 283.094992,102.328228 C282.885733,102.136626 282.761291,101.869674 282.749104,101.586237 L282.749104,78.4232128 C282.761291,78.1397754 282.885733,77.8728235 283.094992,77.6812208 C283.30425,77.4896181 283.581138,77.3891005 283.864601,77.4018326 L288.091747,77.4018326 C288.375211,77.3891005 288.652099,77.4896181 288.861357,77.6812208 C289.070615,77.8728235 289.195058,78.1397754 289.207244,78.4232128 L289.207244,101.586237 Z M289.207244,66.0844707 C289.195058,66.3679081 289.070615,66.63486 288.861357,66.8264627 C288.652099,67.0180654 288.375211,67.118583 288.091747,67.1058509 L283.864601,67.1058509 C283.581138,67.118583 283.30425,67.0180654 283.094992,66.8264627 C282.885733,66.63486 282.761291,66.3679081 282.749104,66.0844707 L282.749104,42.921447 C282.761291,42.6380097 282.885733,42.3710577 283.094992,42.179455 C283.30425,41.9878523 283.581138,41.8873348 283.864601,41.9000668 L288.091747,41.9000668 C288.375211,41.8873348 288.652099,41.9878523 288.861357,42.179455 C289.070615,42.3710577 289.195058,42.6380097 289.207244,42.921447 L289.207244,66.0844707 Z M302.945469,172.578028 C302.936335,172.860426 302.814457,173.127401 302.607059,173.319321 C302.399662,173.51124 302.124023,173.612113 301.841714,173.599408 L297.602826,173.599408 C297.319363,173.61214 297.042475,173.511623 296.833216,173.32002 C296.623958,173.128417 296.499516,172.861465 296.487329,172.578028 L296.487329,149.415004 C296.518961,148.827649 297.014858,148.373593 297.602826,148.393624 L301.841714,148.393624 C302.427557,148.373751 302.92004,148.829479 302.945469,149.415004 L302.945469,172.578028 Z M302.945469,137.088002 C302.92004,137.673527 302.427557,138.129255 301.841714,138.109382 L297.602826,138.109382 C297.014858,138.129414 296.518961,137.675357 296.487329,137.088002 L296.487329,113.878019 C296.518961,113.290664 297.014858,112.836607 297.602826,112.856638 L301.841714,112.856638 C302.427557,112.836765 302.92004,113.292493 302.945469,113.878019 L302.945469,137.088002 Z M302.945469,101.586237 C302.92004,102.171762 302.427557,102.62749 301.841714,102.607617 L297.602826,102.607617 C297.014858,102.627648 296.518961,102.173592 296.487329,101.586237 L296.487329,78.4232128 C296.518961,77.8358578 297.014858,77.3818011 297.602826,77.4018326 L301.841714,77.4018326 C302.427557,77.3819596 302.92004,77.8376877 302.945469,78.4232128 L302.945469,101.586237 Z M302.945469,66.0844707 C302.92004,66.6699958 302.427557,67.1257239 301.841714,67.1058509 L297.602826,67.1058509 C297.014858,67.1258824 296.518961,66.6718257 296.487329,66.0844707 L296.487329,42.921447 C296.518961,42.334092 297.014858,41.8800353 297.602826,41.9000668 L301.841714,41.9000668 C302.427557,41.8801939 302.92004,42.3359219 302.945469,42.921447 L302.945469,66.0844707 Z M316.683694,172.578028 C316.67456,172.860426 316.552682,173.127401 316.345284,173.319321 C316.137886,173.51124 315.862248,173.612113 315.579939,173.599408 L311.341051,173.599408 C311.058742,173.612113 310.783104,173.51124 310.575706,173.319321 C310.368308,173.127401 310.24643,172.860426 310.237296,172.578028 L310.237296,149.415004 C310.262725,148.829479 310.755208,148.373751 311.341051,148.393624 L315.579939,148.393624 C316.165782,148.373751 316.658265,148.829479 316.683694,149.415004 L316.683694,172.578028 Z M316.683694,137.088002 C316.658265,137.673527 316.165782,138.129255 315.579939,138.109382 L311.341051,138.109382 C310.755208,138.129255 310.262725,137.673527 310.237296,137.088002 L310.237296,113.878019 C310.262725,113.292493 310.755208,112.836765 311.341051,112.856638 L315.579939,112.856638 C316.165782,112.836765 316.658265,113.292493 316.683694,113.878019 L316.683694,137.088002 Z M316.683694,101.586237 C316.658265,102.171762 316.165782,102.62749 315.579939,102.607617 L311.341051,102.607617 C310.755208,102.62749 310.262725,102.171762 310.237296,101.586237 L310.237296,78.4232128 C310.262725,77.8376877 310.755208,77.3819596 311.341051,77.4018326 L315.579939,77.4018326 C316.165782,77.3819596 316.658265,77.8376877 316.683694,78.4232128 L316.683694,101.586237 Z M316.683694,66.0844707 C316.658265,66.6699958 316.165782,67.1257239 315.579939,67.1058509 L311.341051,67.1058509 C310.755208,67.1257239 310.262725,66.6699958 310.237296,66.0844707 L310.237296,42.921447 C310.262725,42.3359219 310.755208,41.8801939 311.341051,41.9000668 L315.579939,41.9000668 C316.165782,41.8801939 316.658265,42.3359219 316.683694,42.921447 L316.683694,66.0844707 Z M330.421919,172.578028 C330.412785,172.860426 330.290907,173.127401 330.083509,173.319321 C329.876111,173.51124 329.600473,173.612113 329.318164,173.599408 L325.079276,173.599408 C324.796966,173.612113 324.521328,173.51124 324.31393,173.319321 C324.106533,173.127401 323.984655,172.860426 323.975521,172.578028 L323.975521,149.415004 C324.00095,148.829479 324.493432,148.373751 325.079276,148.393624 L329.318164,148.393624 C329.904007,148.373751 330.396489,148.829479 330.421919,149.415004 L330.421919,172.578028 Z M330.421919,137.088002 C330.396489,137.673527 329.904007,138.129255 329.318164,138.109382 L325.079276,138.109382 C324.493432,138.129255 324.00095,137.673527 323.975521,137.088002 L323.975521,113.878019 C324.00095,113.292493 324.493432,112.836765 325.079276,112.856638 L329.318164,112.856638 C329.904007,112.836765 330.396489,113.292493 330.421919,113.878019 L330.421919,137.088002 Z M330.421919,101.586237 C330.396489,102.171762 329.904007,102.62749 329.318164,102.607617 L325.079276,102.607617 C324.493432,102.62749 324.00095,102.171762 323.975521,101.586237 L323.975521,78.4232128 C324.00095,77.8376877 324.493432,77.3819596 325.079276,77.4018326 L329.318164,77.4018326 C329.904007,77.3819596 330.396489,77.8376877 330.421919,78.4232128 L330.421919,101.586237 Z M330.421919,66.0844707 C330.396489,66.6699958 329.904007,67.1257239 329.318164,67.1058509 L325.079276,67.1058509 C324.493432,67.1257239 324.00095,66.6699958 323.975521,66.0844707 L323.975521,42.921447 C324.00095,42.3359219 324.493432,41.8801939 325.079276,41.9000668 L329.318164,41.9000668 C329.904007,41.8801939 330.396489,42.3359219 330.421919,42.921447 L330.421919,66.0844707 Z M344.171885,172.578028 C344.159699,172.861465 344.035256,173.128417 343.825998,173.32002 C343.61674,173.511623 343.339852,173.61214 343.056388,173.599408 L338.8175,173.599408 C338.535191,173.612113 338.259553,173.51124 338.052155,173.319321 C337.844757,173.127401 337.72288,172.860426 337.713746,172.578028 L337.713746,149.415004 C337.739175,148.829479 338.231657,148.373751 338.8175,148.393624 L343.056388,148.393624 C343.644357,148.373593 344.140253,148.827649 344.171885,149.415004 L344.171885,172.578028 Z M344.171885,137.088002 C344.140253,137.675357 343.644357,138.129414 343.056388,138.109382 L338.8175,138.109382 C338.231657,138.129255 337.739175,137.673527 337.713746,137.088002 L337.713746,113.878019 C337.739175,113.292493 338.231657,112.836765 338.8175,112.856638 L343.056388,112.856638 C343.644357,112.836607 344.140253,113.290664 344.171885,113.878019 L344.171885,137.088002 Z M344.171885,101.586237 C344.140253,102.173592 343.644357,102.627648 343.056388,102.607617 L338.8175,102.607617 C338.231657,102.62749 337.739175,102.171762 337.713746,101.586237 L337.713746,78.4232128 C337.739175,77.8376877 338.231657,77.3819596 338.8175,77.4018326 L343.056388,77.4018326 C343.644357,77.3818011 344.140253,77.8358578 344.171885,78.4232128 L344.171885,101.586237 Z M344.171885,66.0844707 C344.140253,66.6718257 343.644357,67.1258824 343.056388,67.1058509 L338.8175,67.1058509 C338.231657,67.1257239 337.739175,66.6699958 337.713746,66.0844707 L337.713746,42.921447 C337.739175,42.3359219 338.231657,41.8801939 338.8175,41.9000668 L343.056388,41.9000668 C343.644357,41.8800353 344.140253,42.334092 344.171885,42.921447 L344.171885,66.0844707 Z" id="形状" fill="url(#linearGradient-6)" fill-rule="nonzero" opacity="0.4"></path>
                        <path d="M175.0743,65.2861506 L105.443811,65.2861506 C103.699245,65.2265224 102.232306,66.5832013 102.15603,68.3268111 L102.15603,236.490598 C102.250884,238.220246 103.712303,239.556165 105.443811,239.496039 L175.0743,239.496039 C176.827869,239.568921 178.309363,238.208497 178.385565,236.455378 L178.385565,68.3268111 C178.309363,66.5736922 176.827869,65.2132689 175.0743,65.2861506 L175.0743,65.2861506 Z M117.972602,187.10041 C117.940808,187.848087 117.311568,188.430031 116.563553,188.403551 L110.222834,188.403551 C109.474819,188.430031 108.845579,187.848087 108.813785,187.10041 L108.813785,180.972129 C108.829022,180.613942 108.986123,180.276522 109.250447,180.034267 C109.514772,179.792012 109.864613,179.664818 110.222834,179.680729 L116.563553,179.680729 C116.921774,179.664818 117.271616,179.792012 117.53594,180.034267 C117.800265,180.276522 117.957365,180.613942 117.972602,180.972129 L117.972602,187.10041 Z M117.972602,171.979288 C117.957365,172.337475 117.800265,172.674895 117.53594,172.91715 C117.271616,173.159405 116.921774,173.286599 116.563553,173.270688 L110.222834,173.270688 C109.864613,173.286599 109.514772,173.159405 109.250447,172.91715 C108.986123,172.674895 108.829022,172.337475 108.813785,171.979288 L108.813785,165.851007 C108.845579,165.103331 109.474819,164.521386 110.222834,164.547867 L116.563553,164.547867 C117.311568,164.521386 117.940808,165.103331 117.972602,165.851007 L117.972602,171.979288 Z M117.972602,156.846426 C117.940808,157.594102 117.311568,158.176046 116.563553,158.149566 L110.222834,158.149566 C109.474819,158.176046 108.845579,157.594102 108.813785,156.846426 L108.813785,150.718145 C108.829022,150.359957 108.986123,150.022537 109.250447,149.780282 C109.514772,149.538027 109.864613,149.410833 110.222834,149.426744 L116.563553,149.426744 C116.921774,149.410833 117.271616,149.538027 117.53594,149.780282 C117.800265,150.022537 117.957365,150.359957 117.972602,150.718145 L117.972602,156.846426 Z M117.972602,141.725303 C117.957365,142.08349 117.800265,142.420911 117.53594,142.663165 C117.271616,142.90542 116.921774,143.032615 116.563553,143.016703 L110.222834,143.016703 C109.864613,143.032615 109.514772,142.90542 109.250447,142.663165 C108.986123,142.420911 108.829022,142.08349 108.813785,141.725303 L108.813785,135.597022 C108.845579,134.849346 109.474819,134.267401 110.222834,134.293882 L116.563553,134.293882 C117.311568,134.267401 117.940808,134.849346 117.972602,135.597022 L117.972602,141.725303 Z M117.972602,126.592441 C117.940808,127.340117 117.311568,127.922061 116.563553,127.895581 L110.222834,127.895581 C109.474819,127.922061 108.845579,127.340117 108.813785,126.592441 L108.813785,120.4759 C108.825976,120.11564 108.98175,119.775213 109.246415,119.530441 C109.51108,119.28567 109.862654,119.156881 110.222834,119.172759 L116.563553,119.172759 C116.923733,119.156881 117.275307,119.28567 117.539972,119.530441 C117.804637,119.775213 117.960412,120.11564 117.972602,120.4759 L117.972602,126.592441 Z M117.972602,111.471318 C117.957365,111.829505 117.800265,112.166926 117.53594,112.40918 C117.271616,112.651435 116.921774,112.77863 116.563553,112.762718 L110.222834,112.762718 C109.864613,112.77863 109.514772,112.651435 109.250447,112.40918 C108.986123,112.166926 108.829022,111.829505 108.813785,111.471318 L108.813785,105.343037 C108.845579,104.595361 109.474819,104.013416 110.222834,104.039897 L116.563553,104.039897 C117.311568,104.013416 117.940808,104.595361 117.972602,105.343037 L117.972602,111.471318 Z M117.972602,96.3384557 C117.940808,97.086132 117.311568,97.6680765 116.563553,97.6415959 L110.222834,97.6415959 C109.474819,97.6680765 108.845579,97.086132 108.813785,96.3384557 L108.813785,90.2219147 C108.825976,89.8616546 108.98175,89.521228 109.246415,89.2764564 C109.51108,89.0316847 109.862654,88.9028959 110.222834,88.9187745 L116.563553,88.9187745 C116.923733,88.9028959 117.275307,89.0316847 117.539972,89.2764564 C117.804637,89.521228 117.960412,89.8616546 117.972602,90.2219147 L117.972602,96.3384557 Z M117.972602,81.2173332 C117.957365,81.5755204 117.800265,81.9129407 117.53594,82.1551955 C117.271616,82.3974502 116.921774,82.5246447 116.563553,82.5087334 L110.222834,82.5087334 C109.864613,82.5246447 109.514772,82.3974502 109.250447,82.1551955 C108.986123,81.9129407 108.829022,81.5755204 108.813785,81.2173332 L108.813785,75.1360122 C108.845579,74.3883358 109.474819,73.8063913 110.222834,73.832872 L116.563553,73.832872 C117.311568,73.8063913 117.940808,74.3883358 117.972602,75.1360122 L117.972602,81.2173332 Z M129.808611,187.10041 C129.776817,187.848087 129.147577,188.430031 128.399562,188.403551 L122.117553,188.403551 C121.756219,188.419459 121.403392,188.291026 121.136867,188.046571 C120.870341,187.802115 120.712002,187.46171 120.696763,187.10041 L120.696763,180.972129 C120.73476,180.224347 121.369413,179.647491 122.117553,179.680729 L128.458273,179.680729 C128.816493,179.664818 129.166335,179.792012 129.430659,180.034267 C129.694984,180.276522 129.852084,180.613942 129.867321,180.972129 L129.808611,187.10041 Z M129.808611,171.979288 C129.793374,172.337475 129.636274,172.674895 129.371949,172.91715 C129.107625,173.159405 128.757783,173.286599 128.399562,173.270688 L122.117553,173.270688 C121.369413,173.303926 120.73476,172.72707 120.696763,171.979288 L120.696763,165.851007 C120.712002,165.489707 120.870341,165.149303 121.136867,164.904847 C121.403392,164.660391 121.756219,164.531958 122.117553,164.547867 L128.458273,164.547867 C129.206288,164.521386 129.835528,165.103331 129.867321,165.851007 L129.808611,171.979288 Z M129.808611,156.846426 C129.776817,157.594102 129.147577,158.176046 128.399562,158.149566 L122.117553,158.149566 C121.756219,158.165474 121.403392,158.037042 121.136867,157.792586 C120.870341,157.54813 120.712002,157.207725 120.696763,156.846426 L120.696763,150.718145 C120.73476,149.970362 121.369413,149.393506 122.117553,149.426744 L128.458273,149.426744 C128.816493,149.410833 129.166335,149.538027 129.430659,149.780282 C129.694984,150.022537 129.852084,150.359957 129.867321,150.718145 L129.808611,156.846426 Z M129.808611,141.725303 C129.793374,142.08349 129.636274,142.420911 129.371949,142.663165 C129.107625,142.90542 128.757783,143.032615 128.399562,143.016703 L122.117553,143.016703 C121.369413,143.049941 120.73476,142.473085 120.696763,141.725303 L120.696763,135.597022 C120.712002,135.235722 120.870341,134.895318 121.136867,134.650862 C121.403392,134.406406 121.756219,134.277974 122.117553,134.293882 L128.458273,134.293882 C129.206288,134.267401 129.835528,134.849346 129.867321,135.597022 L129.808611,141.725303 Z M129.808611,126.592441 C129.776817,127.340117 129.147577,127.922061 128.399562,127.895581 L122.117553,127.895581 C121.756219,127.911489 121.403392,127.783057 121.136867,127.538601 C120.870341,127.294145 120.712002,126.95374 120.696763,126.592441 L120.696763,120.4759 C120.712002,120.1146 120.870341,119.774195 121.136867,119.529739 C121.403392,119.285284 121.756219,119.156851 122.117553,119.172759 L128.458273,119.172759 C128.818452,119.156881 129.170027,119.28567 129.434691,119.530441 C129.699356,119.775213 129.855131,120.11564 129.867321,120.4759 L129.808611,126.592441 Z M129.808611,111.471318 C129.793374,111.829505 129.636274,112.166926 129.371949,112.40918 C129.107625,112.651435 128.757783,112.77863 128.399562,112.762718 L122.117553,112.762718 C121.369413,112.795956 120.73476,112.2191 120.696763,111.471318 L120.696763,105.343037 C120.712002,104.981737 120.870341,104.641333 121.136867,104.396877 C121.403392,104.152421 121.756219,104.023989 122.117553,104.039897 L128.458273,104.039897 C129.206288,104.013416 129.835528,104.595361 129.867321,105.343037 L129.808611,111.471318 Z M129.808611,96.3384557 C129.776817,97.086132 129.147577,97.6680765 128.399562,97.6415959 L122.117553,97.6415959 C121.756219,97.6575041 121.403392,97.5290717 121.136867,97.2846159 C120.870341,97.04016 120.712002,96.6997554 120.696763,96.3384557 L120.696763,90.2219147 C120.712002,89.8606149 120.870341,89.5202103 121.136867,89.2757545 C121.403392,89.0312986 121.756219,88.9028662 122.117553,88.9187745 L128.458273,88.9187745 C128.818452,88.9028959 129.170027,89.0316847 129.434691,89.2764564 C129.699356,89.521228 129.855131,89.8616546 129.867321,90.2219147 L129.808611,96.3384557 Z M129.808611,81.2173332 C129.793374,81.5755204 129.636274,81.9129407 129.371949,82.1551955 C129.107625,82.3974502 128.757783,82.5246447 128.399562,82.5087334 L122.117553,82.5087334 C121.369413,82.5419714 120.73476,81.9651153 120.696763,81.2173332 L120.696763,75.1360122 C120.699605,74.7664672 120.852536,74.4139448 121.120456,74.1593551 C121.388376,73.9047655 121.748276,73.7699719 122.117553,73.785912 L128.458273,73.785912 C129.206288,73.7594313 129.835528,74.3413758 129.867321,75.0890522 L129.808611,81.2173332 Z M141.64462,187.10041 C141.62938,187.46171 141.471042,187.802115 141.204516,188.046571 C140.93799,188.291026 140.585164,188.419459 140.223829,188.403551 L133.859626,188.403551 C133.111611,188.430031 132.482371,187.848087 132.450577,187.10041 L132.450577,180.972129 C132.465814,180.613942 132.622914,180.276522 132.887239,180.034267 C133.151563,179.792012 133.501405,179.664818 133.859626,179.680729 L140.200345,179.680729 C140.948485,179.647491 141.583139,180.224347 141.621136,180.972129 L141.64462,187.10041 Z M141.64462,171.979288 C141.606623,172.72707 140.971969,173.303926 140.223829,173.270688 L133.859626,173.270688 C133.501405,173.286599 133.151563,173.159405 132.887239,172.91715 C132.622914,172.674895 132.465814,172.337475 132.450577,171.979288 L132.450577,165.851007 C132.482371,165.103331 133.111611,164.521386 133.859626,164.547867 L140.200345,164.547867 C140.561679,164.531958 140.914506,164.660391 141.181032,164.904847 C141.447558,165.149303 141.605896,165.489707 141.621136,165.851007 L141.64462,171.979288 Z M141.64462,156.846426 C141.62938,157.207725 141.471042,157.54813 141.204516,157.792586 C140.93799,158.037042 140.585164,158.165474 140.223829,158.149566 L133.859626,158.149566 C133.111611,158.176046 132.482371,157.594102 132.450577,156.846426 L132.450577,150.718145 C132.465814,150.359957 132.622914,150.022537 132.887239,149.780282 C133.151563,149.538027 133.501405,149.410833 133.859626,149.426744 L140.200345,149.426744 C140.948485,149.393506 141.583139,149.970362 141.621136,150.718145 L141.64462,156.846426 Z M141.64462,141.725303 C141.606623,142.473085 140.971969,143.049941 140.223829,143.016703 L133.859626,143.016703 C133.501405,143.032615 133.151563,142.90542 132.887239,142.663165 C132.622914,142.420911 132.465814,142.08349 132.450577,141.725303 L132.450577,135.597022 C132.482371,134.849346 133.111611,134.267401 133.859626,134.293882 L140.200345,134.293882 C140.561679,134.277974 140.914506,134.406406 141.181032,134.650862 C141.447558,134.895318 141.605896,135.235722 141.621136,135.597022 L141.64462,141.725303 Z M141.64462,126.592441 C141.62938,126.95374 141.471042,127.294145 141.204516,127.538601 C140.93799,127.783057 140.585164,127.911489 140.223829,127.895581 L133.859626,127.895581 C133.111611,127.922061 132.482371,127.340117 132.450577,126.592441 L132.450577,120.4759 C132.462767,120.11564 132.618542,119.775213 132.883207,119.530441 C133.147872,119.28567 133.499446,119.156881 133.859626,119.172759 L140.200345,119.172759 C140.561679,119.156851 140.914506,119.285284 141.181032,119.529739 C141.447558,119.774195 141.605896,120.1146 141.621136,120.4759 L141.64462,126.592441 Z M141.64462,111.471318 C141.606623,112.2191 140.971969,112.795956 140.223829,112.762718 L133.859626,112.762718 C133.501405,112.77863 133.151563,112.651435 132.887239,112.40918 C132.622914,112.166926 132.465814,111.829505 132.450577,111.471318 L132.450577,105.343037 C132.482371,104.595361 133.111611,104.013416 133.859626,104.039897 L140.200345,104.039897 C140.561679,104.023989 140.914506,104.152421 141.181032,104.396877 C141.447558,104.641333 141.605896,104.981737 141.621136,105.343037 L141.64462,111.471318 Z M141.64462,96.3384557 C141.62938,96.6997554 141.471042,97.04016 141.204516,97.2846159 C140.93799,97.5290717 140.585164,97.6575041 140.223829,97.6415959 L133.859626,97.6415959 C133.111611,97.6680765 132.482371,97.086132 132.450577,96.3384557 L132.450577,90.2219147 C132.462767,89.8616546 132.618542,89.521228 132.883207,89.2764564 C133.147872,89.0316847 133.499446,88.9028959 133.859626,88.9187745 L140.200345,88.9187745 C140.561679,88.9028662 140.914506,89.0312986 141.181032,89.2757545 C141.447558,89.5202103 141.605896,89.8606149 141.621136,90.2219147 L141.64462,96.3384557 Z M141.64462,81.2173332 C141.606623,81.9651153 140.971969,82.5419714 140.223829,82.5087334 L133.859626,82.5087334 C133.501405,82.5246447 133.151563,82.3974502 132.887239,82.1551955 C132.622914,81.9129407 132.465814,81.5755204 132.450577,81.2173332 L132.450577,75.1360122 C132.482371,74.3883358 133.111611,73.8063913 133.859626,73.832872 L140.200345,73.832872 C140.565626,73.8104806 140.924552,73.9359976 141.196243,74.1811391 C141.467934,74.4262805 141.629531,74.7704212 141.64462,75.1360122 L141.64462,81.2173332 Z M171.246385,187.10041 C171.214591,187.848087 170.585351,188.430031 169.837336,188.403551 L145.719119,188.403551 C144.971104,188.430031 144.341864,187.848087 144.31007,187.10041 L144.31007,180.972129 C144.325307,180.613942 144.482408,180.276522 144.746732,180.034267 C145.011057,179.792012 145.360898,179.664818 145.719119,179.680729 L169.837336,179.680729 C170.195557,179.664818 170.545398,179.792012 170.809723,180.034267 C171.074047,180.276522 171.231148,180.613942 171.246385,180.972129 L171.246385,187.10041 Z M171.246385,171.979288 C171.231148,172.337475 171.074047,172.674895 170.809723,172.91715 C170.545398,173.159405 170.195557,173.286599 169.837336,173.270688 L145.719119,173.270688 C145.360898,173.286599 145.011057,173.159405 144.746732,172.91715 C144.482408,172.674895 144.325307,172.337475 144.31007,171.979288 L144.31007,165.851007 C144.341864,165.103331 144.971104,164.521386 145.719119,164.547867 L169.837336,164.547867 C170.585351,164.521386 171.214591,165.103331 171.246385,165.851007 L171.246385,171.979288 Z M171.246385,156.846426 C171.214591,157.594102 170.585351,158.176046 169.837336,158.149566 L145.719119,158.149566 C144.971104,158.176046 144.341864,157.594102 144.31007,156.846426 L144.31007,150.718145 C144.325307,150.359957 144.482408,150.022537 144.746732,149.780282 C145.011057,149.538027 145.360898,149.410833 145.719119,149.426744 L169.837336,149.426744 C170.195557,149.410833 170.545398,149.538027 170.809723,149.780282 C171.074047,150.022537 171.231148,150.359957 171.246385,150.718145 L171.246385,156.846426 Z M171.246385,141.725303 C171.231148,142.08349 171.074047,142.420911 170.809723,142.663165 C170.545398,142.90542 170.195557,143.032615 169.837336,143.016703 L145.719119,143.016703 C145.360898,143.032615 145.011057,142.90542 144.746732,142.663165 C144.482408,142.420911 144.325307,142.08349 144.31007,141.725303 L144.31007,135.597022 C144.341864,134.849346 144.971104,134.267401 145.719119,134.293882 L169.837336,134.293882 C170.585351,134.267401 171.214591,134.849346 171.246385,135.597022 L171.246385,141.725303 Z M171.246385,126.592441 C171.214591,127.340117 170.585351,127.922061 169.837336,127.895581 L145.719119,127.895581 C144.971104,127.922061 144.341864,127.340117 144.31007,126.592441 L144.31007,120.4759 C144.322261,120.11564 144.478035,119.775213 144.7427,119.530441 C145.007365,119.28567 145.358939,119.156881 145.719119,119.172759 L169.837336,119.172759 C170.197516,119.156881 170.54909,119.28567 170.813755,119.530441 C171.078419,119.775213 171.234194,120.11564 171.246385,120.4759 L171.246385,126.592441 Z M171.246385,111.471318 C171.231148,111.829505 171.074047,112.166926 170.809723,112.40918 C170.545398,112.651435 170.195557,112.77863 169.837336,112.762718 L145.719119,112.762718 C145.360898,112.77863 145.011057,112.651435 144.746732,112.40918 C144.482408,112.166926 144.325307,111.829505 144.31007,111.471318 L144.31007,105.343037 C144.341864,104.595361 144.971104,104.013416 145.719119,104.039897 L169.837336,104.039897 C170.585351,104.013416 171.214591,104.595361 171.246385,105.343037 L171.246385,111.471318 Z M171.246385,96.3384557 C171.214591,97.086132 170.585351,97.6680765 169.837336,97.6415959 L145.719119,97.6415959 C144.971104,97.6680765 144.341864,97.086132 144.31007,96.3384557 L144.31007,90.2219147 C144.322261,89.8616546 144.478035,89.521228 144.7427,89.2764564 C145.007365,89.0316847 145.358939,88.9028959 145.719119,88.9187745 L169.837336,88.9187745 C170.197516,88.9028959 170.54909,89.0316847 170.813755,89.2764564 C171.078419,89.521228 171.234194,89.8616546 171.246385,90.2219147 L171.246385,96.3384557 Z M171.246385,81.2173332 C171.231148,81.5755204 171.074047,81.9129407 170.809723,82.1551955 C170.545398,82.3974502 170.195557,82.5246447 169.837336,82.5087334 L145.719119,82.5087334 C145.360898,82.5246447 145.011057,82.3974502 144.746732,82.1551955 C144.482408,81.9129407 144.325307,81.5755204 144.31007,81.2173332 L144.31007,75.1360122 C144.341864,74.3883358 144.971104,73.8063913 145.719119,73.832872 L169.837336,73.832872 C170.585351,73.8063913 171.214591,74.3883358 171.246385,75.1360122 L171.246385,81.2173332 Z" id="形状" fill="url(#linearGradient-7)" fill-rule="nonzero" opacity="0.4"></path>
                        <path d="M92.9150192,31.3223251 L3.3230065,31.3223251 C2.47884387,31.2841227 1.65414939,31.5831993 1.03077733,32.1536053 C0.407405275,32.7240113 0.0365538819,33.5188985 0,34.3629856 L0,236.490598 C0.0948568698,238.234514 1.57803533,239.575951 3.3230065,239.496039 L92.9150192,239.496039 C94.6685879,239.568921 96.1500822,238.208497 96.2262837,236.455378 L96.2262837,34.3629856 C96.1500822,32.6098667 94.6685879,31.2494434 92.9150192,31.3223251 Z M84.942152,189.014031 C84.9103586,189.761707 84.2811184,190.343652 83.5331034,190.317171 L12.7166645,190.317171 C12.3553299,190.333079 12.0025035,190.204647 11.7359776,189.960191 C11.4694517,189.715735 11.3111134,189.37533 11.2958737,189.014031 L11.2958737,182.89749 C11.3111134,182.53619 11.4694517,182.195785 11.7359776,181.95133 C12.0025035,181.706874 12.3553299,181.578441 12.7166645,181.59435 L83.5331034,181.59435 C83.8932832,181.578471 84.2448576,181.70726 84.5095222,181.952031 C84.7741869,182.196803 84.9299618,182.53723 84.942152,182.89749 L84.942152,189.014031 Z M84.942152,171.791448 C84.9269152,172.149635 84.7698148,172.487055 84.5054903,172.72931 C84.2411657,172.971565 83.8913243,173.098759 83.5331034,173.082848 L12.7166645,173.082848 C11.9685241,173.116086 11.3338706,172.53923 11.2958737,171.791448 L11.2958737,165.663167 C11.3111134,165.301867 11.4694517,164.961463 11.7359776,164.717007 C12.0025035,164.472551 12.3553299,164.344118 12.7166645,164.360027 L83.5331034,164.360027 C84.2811184,164.333546 84.9103586,164.915491 84.942152,165.663167 L84.942152,171.791448 Z M84.942152,154.557125 C84.9103586,155.304801 84.2811184,155.886746 83.5331034,155.860265 L12.7166645,155.860265 C12.3553299,155.876174 12.0025035,155.747741 11.7359776,155.503285 C11.4694517,155.258829 11.3111134,154.918425 11.2958737,154.557125 L11.2958737,148.428844 C11.3338706,147.681062 11.9685241,147.104206 12.7166645,147.137444 L83.5331034,147.137444 C83.8913243,147.121533 84.2411657,147.248727 84.5054903,147.490982 C84.7698148,147.733237 84.9269152,148.070657 84.942152,148.428844 L84.942152,154.557125 Z M84.942152,137.322802 C84.9103586,138.070479 84.2811184,138.652423 83.5331034,138.625943 L12.7166645,138.625943 C12.3553299,138.641851 12.0025035,138.513418 11.7359776,138.268963 C11.4694517,138.024507 11.3111134,137.684102 11.2958737,137.322802 L11.2958737,131.206261 C11.3111134,130.844962 11.4694517,130.504557 11.7359776,130.260101 C12.0025035,130.015645 12.3553299,129.887213 12.7166645,129.903121 L83.5331034,129.903121 C83.8932832,129.887243 84.2448576,130.016031 84.5095222,130.260803 C84.7741869,130.505575 84.9299618,130.846001 84.942152,131.206261 L84.942152,137.322802 Z M84.942152,120.10022 C84.9269152,120.458407 84.7698148,120.795827 84.5054903,121.038082 C84.2411657,121.280337 83.8913243,121.407531 83.5331034,121.39162 L12.7166645,121.39162 C11.9685241,121.424858 11.3338706,120.848002 11.2958737,120.10022 L11.2958737,113.878019 C11.3111134,113.516719 11.4694517,113.176314 11.7359776,112.931858 C12.0025035,112.687402 12.3553299,112.55897 12.7166645,112.574878 L83.5331034,112.574878 C84.2811184,112.548398 84.9103586,113.130342 84.942152,113.878019 L84.942152,120.10022 Z M84.942152,102.865897 C84.9103586,103.613573 84.2811184,104.195518 83.5331034,104.169037 L12.7166645,104.169037 C12.3553299,104.184945 12.0025035,104.056513 11.7359776,103.812057 C11.4694517,103.567601 11.3111134,103.227196 11.2958737,102.865897 L11.2958737,96.6789157 C11.3338706,95.9311336 11.9685241,95.3542776 12.7166645,95.3875155 L83.5331034,95.3875155 C83.8913243,95.3716043 84.2411657,95.4987987 84.5054903,95.7410535 C84.7698148,95.9833082 84.9269152,96.3207285 84.942152,96.6789157 L84.942152,102.865897 Z M84.942152,85.6315739 C84.9103586,86.3792503 84.2811184,86.9611948 83.5331034,86.9347141 L12.7166645,86.9347141 C12.3553299,86.9506224 12.0025035,86.82219 11.7359776,86.5777341 C11.4694517,86.3332783 11.3111134,85.9928737 11.2958737,85.6315739 L11.2958737,79.4563329 C11.3111134,79.0950332 11.4694517,78.7546286 11.7359776,78.5101727 C12.0025035,78.2657169 12.3553299,78.1372844 12.7166645,78.1531927 L83.5331034,78.1531927 C83.8932832,78.1373142 84.2448576,78.2661029 84.5095222,78.5108746 C84.7741869,78.7556463 84.9299618,79.0960729 84.942152,79.4563329 L84.942152,85.6315739 Z M84.942152,68.4089911 C84.9269152,68.7671784 84.7698148,69.1045986 84.5054903,69.3468534 C84.2411657,69.5891081 83.8913243,69.7163026 83.5331034,69.7003913 L12.7166645,69.7003913 C11.9685241,69.7336293 11.3338706,69.1567732 11.2958737,68.4089911 L11.2958737,62.2220101 C11.3111134,61.8607104 11.4694517,61.5203058 11.7359776,61.2758499 C12.0025035,61.0313941 12.3553299,60.9029616 12.7166645,60.9188699 L83.5331034,60.9188699 C84.2811184,60.8923892 84.9103586,61.4743337 84.942152,62.2220101 L84.942152,68.4089911 Z M84.942152,51.1746683 C84.9103586,51.9223447 84.2811184,52.5042892 83.5331034,52.4778085 L12.7166645,52.4778085 C12.3553299,52.4937168 12.0025035,52.3652844 11.7359776,52.1208285 C11.4694517,51.8763727 11.3111134,51.5359681 11.2958737,51.1746683 L11.2958737,44.9876873 C11.3338706,44.2399052 11.9685241,43.6630491 12.7166645,43.6962871 L83.5331034,43.6962871 C83.8913243,43.6803758 84.2411657,43.8075703 84.5054903,44.049825 C84.7698148,44.2920798 84.9269152,44.6295001 84.942152,44.9876873 L84.942152,51.1746683 Z" id="形状" fill="url(#linearGradient-8)" fill-rule="nonzero" opacity="0.4"></path>
                        <path d="M263.269006,0 L186.487595,0 C184.864142,0.0573797155 183.593223,1.41733801 183.646013,3.04066049 L183.646013,242.9476 C183.617477,243.72926 183.90094,244.490193 184.433945,245.062742 C184.96695,245.635291 185.705761,245.972474 186.487595,246 L263.269006,246 C264.892555,245.936368 266.158352,244.571019 266.098846,242.9476 L266.098846,3.04066049 C266.151733,1.42175048 264.887813,0.0636694611 263.269006,0 Z M256.43512,157.644746 C256.461816,158.323475 255.939227,158.898222 255.260913,158.936146 L194.530914,158.936146 C193.8526,158.898222 193.33001,158.323475 193.356707,157.644746 L193.356707,151.516465 C193.329803,150.835558 193.850781,150.257373 194.530914,150.213324 L255.225687,150.213324 C255.90582,150.257373 256.426798,150.835558 256.399894,151.516465 L256.43512,157.644746 Z M256.43512,140.410423 C256.462024,141.09133 255.941046,141.669514 255.260913,141.713563 L194.530914,141.713563 C193.850781,141.669514 193.329803,141.09133 193.356707,140.410423 L193.356707,134.282142 C193.33001,133.603413 193.8526,133.028665 194.530914,132.990742 L255.225687,132.990742 C255.904,133.028665 256.42659,133.603413 256.399894,134.282142 L256.43512,140.410423 Z M256.43512,123.1761 C256.462024,123.857007 255.941046,124.435191 255.260913,124.47924 L194.530914,124.47924 C193.850781,124.435191 193.329803,123.857007 193.356707,123.1761 L193.356707,117.059559 C193.329803,116.378652 193.850781,115.800468 194.530914,115.756419 L255.225687,115.756419 C255.90582,115.800468 256.426798,116.378652 256.399894,117.059559 L256.43512,123.1761 Z M256.43512,105.953517 C256.461816,106.632246 255.939227,107.206994 255.260913,107.244917 L194.530914,107.244917 C193.8526,107.206994 193.33001,106.632246 193.356707,105.953517 L193.356707,99.7900162 C193.329803,99.1091092 193.850781,98.530925 194.530914,98.486876 L255.225687,98.486876 C255.90582,98.530925 256.426798,99.1091092 256.399894,99.7900162 L256.43512,105.953517 Z M256.43512,88.7191944 C256.462024,89.4001015 255.941046,89.9782857 255.260913,90.0223346 L194.530914,90.0223346 C193.850781,89.9782857 193.329803,89.4001015 193.356707,88.7191944 L193.356707,82.5909134 C193.33001,81.9121843 193.8526,81.3374369 194.530914,81.2995132 L255.225687,81.2995132 C255.904,81.3374369 256.42659,81.9121843 256.399894,82.5909134 L256.43512,88.7191944 Z M256.43512,71.4848716 C256.462024,72.1657787 255.941046,72.7439629 255.260913,72.7880118 L194.530914,72.7880118 C193.850781,72.7439629 193.329803,72.1657787 193.356707,71.4848716 L193.356707,65.3683306 C193.329803,64.6874236 193.850781,64.1092394 194.530914,64.0651904 L255.225687,64.0651904 C255.90582,64.1092394 256.426798,64.6874236 256.399894,65.3683306 L256.43512,71.4848716 Z M256.43512,54.2622888 C256.461816,54.9410179 255.939227,55.5157653 255.260913,55.553689 L194.530914,55.553689 C193.8526,55.5157653 193.33001,54.9410179 193.356707,54.2622888 L193.356707,48.1340078 C193.329803,47.4531008 193.850781,46.8749166 194.530914,46.8308676 L255.225687,46.8308676 C255.90582,46.8749166 256.426798,47.4531008 256.399894,48.1340078 L256.43512,54.2622888 Z M256.43512,37.027966 C256.462024,37.7088731 255.941046,38.2870573 255.260913,38.3311062 L194.530914,38.3311062 C193.850781,38.2870573 193.329803,37.7088731 193.356707,37.027966 L193.356707,30.899685 C193.33001,30.2209559 193.8526,29.6462085 194.530914,29.6082848 L255.225687,29.6082848 C255.904,29.6462085 256.42659,30.2209559 256.399894,30.899685 L256.43512,37.027966 Z M256.43512,19.7936432 C256.462024,20.4745503 255.941046,21.0527345 255.260913,21.0967834 L194.530914,21.0967834 C193.850781,21.0527345 193.329803,20.4745503 193.356707,19.7936432 L193.356707,13.6771022 C193.329803,12.9961952 193.850781,12.4180109 194.530914,12.373962 L255.225687,12.373962 C255.90582,12.4180109 256.426798,12.9961952 256.399894,13.6771022 L256.43512,19.7936432 Z" id="形状" fill="url(#linearGradient-9)" fill-rule="nonzero" opacity="0.4"></path>
                    </g>
                    <path d="M364.36,173.332655 C364.120434,173.312241 363.879566,173.312241 363.64,173.332655 L363.97,173.682655 L364.36,173.332655 Z" id="路径" fill="#E49056" fill-rule="nonzero"></path>
                </g>
            </g>
        </g>
    </g>
</svg>