<?xml version="1.0" standalone="no"?><!DOCTYPE svg PUBLIC "-//W3C//DTD SVG 1.1//EN" "http://www.w3.org/Graphics/SVG/1.1/DTD/svg11.dtd"><svg t="1673231097544" class="icon" viewBox="0 0 1024 1024" version="1.1" xmlns="http://www.w3.org/2000/svg" p-id="3868" xmlns:xlink="http://www.w3.org/1999/xlink" width="200" height="200"><path d="M880.037647 836.005647H143.962353a31.924706 31.924706 0 0 0-31.924706 31.984941v36.020706c0 4.397176 3.614118 8.011294 7.951059 8.011294h784.022588c4.397176 0 8.011294-3.614118 8.011294-8.011294v-36.020706a31.924706 31.924706 0 0 0-32.045176-31.984941zM257.626353 751.977412a40.478118 40.478118 0 0 0 6.023529-0.481883l168.176942-29.515294a9.818353 9.818353 0 0 0 5.300705-2.770823l423.936-423.936a9.938824 9.938824 0 0 0 0-14.095059l-166.249411-166.249412a9.878588 9.878588 0 0 0-7.04753-2.951529 9.878588 9.878588 0 0 0-7.107764 2.951529L256.783059 538.804706a10.179765 10.179765 0 0 0-2.770824 5.300706l-29.515294 168.176941a33.852235 33.852235 0 0 0 33.189647 39.755294z" fill="#1890FF" p-id="3869"></path></svg>