<?xml version="1.0" standalone="no"?><!DOCTYPE svg PUBLIC "-//W3C//DTD SVG 1.1//EN" "http://www.w3.org/Graphics/SVG/1.1/DTD/svg11.dtd"><svg t="1652698842370" class="icon" viewBox="0 0 1024 1024" version="1.1" xmlns="http://www.w3.org/2000/svg" p-id="1747" xmlns:xlink="http://www.w3.org/1999/xlink" width="16" height="16"><defs><style type="text/css">@font-face { font-family: feedback-iconfont; src: url("//at.alicdn.com/t/font_1031158_u69w8yhxdu.woff2?t=1630033759944") format("woff2"), url("//at.alicdn.com/t/font_1031158_u69w8yhxdu.woff?t=1630033759944") format("woff"), url("//at.alicdn.com/t/font_1031158_u69w8yhxdu.ttf?t=1630033759944") format("truetype"); }
</style></defs><path d="M359.9872 184.0128h-7.9872c4.4032 0 7.9872-3.584 7.9872-7.9872v7.9872h304.0256v-7.9872c0 4.352 3.584 7.9872 7.9872 7.9872h-7.9872V256h71.9872V175.9744c0-35.2768-28.672-64-64-64h-320c-35.328 0-64 28.7232-64 64V256h71.9872V184.0128zM864 256H160a31.9488 31.9488 0 0 0-32 32v32c0 4.4032 3.584 7.9872 7.9872 7.9872h60.416l24.6784 523.008a64.0512 64.0512 0 0 0 63.8976 61.0304h454.0416c34.2016 0 62.2592-26.8288 63.8976-61.0304l24.6784-523.008h60.416c4.4032 0 7.9872-3.584 7.9872-7.9872v-32A31.9488 31.9488 0 0 0 864 256z m-132.7104 583.9872H292.7104l-24.2176-512h487.0144l-24.2176 512z" p-id="1748" fill="#8a8a8a"></path></svg>