<?xml version="1.0" encoding="UTF-8"?>
<svg width="300px" height="300px" viewBox="0 0 300 300" version="1.1" xmlns="http://www.w3.org/2000/svg" xmlns:xlink="http://www.w3.org/1999/xlink">
    <title>编组 4@3x</title>
    <defs>
        <linearGradient x1="50%" y1="100.122278%" x2="50%" y2="-0.0579832828%" id="linearGradient-1">
            <stop stop-color="#FFFFFF" stop-opacity="0.1" offset="0%"></stop>
            <stop stop-color="#D9E9FF" offset="100%"></stop>
        </linearGradient>
        <linearGradient x1="50.0843871%" y1="100%" x2="50.0843871%" y2="0.00649473815%" id="linearGradient-2">
            <stop stop-color="#FFFFFF" stop-opacity="0.1" offset="0%"></stop>
            <stop stop-color="#F8FBFF" stop-opacity="0.27" offset="14%"></stop>
            <stop stop-color="#EDF5FF" stop-opacity="0.52" offset="37%"></stop>
            <stop stop-color="#E4F0FF" stop-opacity="0.73" offset="58%"></stop>
            <stop stop-color="#DEECFF" stop-opacity="0.88" offset="76%"></stop>
            <stop stop-color="#DAEAFF" stop-opacity="0.97" offset="91%"></stop>
            <stop stop-color="#D9E9FF" offset="100%"></stop>
        </linearGradient>
        <linearGradient x1="50.0045895%" y1="99.9311993%" x2="50.0045895%" y2="-0.0811277354%" id="linearGradient-3">
            <stop stop-color="#FFFFFF" stop-opacity="0.1" offset="0%"></stop>
            <stop stop-color="#FEFEFF" stop-opacity="0.13" offset="9%"></stop>
            <stop stop-color="#FBFCFF" stop-opacity="0.21" offset="23%"></stop>
            <stop stop-color="#F5F9FF" stop-opacity="0.33" offset="40%"></stop>
            <stop stop-color="#EEF5FF" stop-opacity="0.51" offset="59%"></stop>
            <stop stop-color="#E4EFFF" stop-opacity="0.74" offset="79%"></stop>
            <stop stop-color="#D9E9FF" offset="100%"></stop>
        </linearGradient>
        <linearGradient x1="50%" y1="100%" x2="50%" y2="0%" id="linearGradient-4">
            <stop stop-color="#FFFFFF" stop-opacity="0.1" offset="0%"></stop>
            <stop stop-color="#FBFDFF" stop-opacity="0.19" offset="13%"></stop>
            <stop stop-color="#F1F7FF" stop-opacity="0.43" offset="41%"></stop>
            <stop stop-color="#E1EEFF" stop-opacity="0.82" offset="81%"></stop>
            <stop stop-color="#D9E9FF" offset="100%"></stop>
        </linearGradient>
        <linearGradient x1="50%" y1="100%" x2="50%" y2="0%" id="linearGradient-5">
            <stop stop-color="#FFFFFF" offset="0%"></stop>
            <stop stop-color="#D9E9FF" offset="100%"></stop>
        </linearGradient>
        <linearGradient x1="0%" y1="50.0060613%" x2="100%" y2="50.0060613%" id="linearGradient-6">
            <stop stop-color="#E0E7FF" offset="0%"></stop>
            <stop stop-color="#CCDFFB" offset="33%"></stop>
            <stop stop-color="#BBD9F7" offset="71%"></stop>
            <stop stop-color="#B5D7F6" offset="100%"></stop>
        </linearGradient>
        <linearGradient x1="0%" y1="50%" x2="100%" y2="50%" id="linearGradient-7">
            <stop stop-color="#EEF6FF" offset="0%"></stop>
            <stop stop-color="#D2E6FE" offset="100%"></stop>
        </linearGradient>
        <linearGradient x1="-1198.12563%" y1="-1361.69233%" x2="-1298.12563%" y2="-1361.69233%" id="linearGradient-8">
            <stop stop-color="#ECF5FF" offset="0%"></stop>
            <stop stop-color="#F9FCFF" offset="24.839494%"></stop>
            <stop stop-color="#DAEAFF" offset="45%"></stop>
            <stop stop-color="#C7DFFF" offset="74.7030722%"></stop>
            <stop stop-color="#C0DBFF" offset="100%"></stop>
        </linearGradient>
        <linearGradient x1="100%" y1="50%" x2="-14.8903051%" y2="50%" id="linearGradient-9">
            <stop stop-color="#FFFFFF" offset="0%"></stop>
            <stop stop-color="#F9FCFF" offset="6%"></stop>
            <stop stop-color="#DAEAFF" offset="67.4804304%"></stop>
            <stop stop-color="#C7DFFF" offset="84.9696706%"></stop>
            <stop stop-color="#C0DBFF" offset="100%"></stop>
        </linearGradient>
        <linearGradient x1="28.6970471%" y1="56.9855846%" x2="106.883829%" y2="45.8848302%" id="linearGradient-10">
            <stop stop-color="#D7E8FF" offset="0%"></stop>
            <stop stop-color="#EAF3FF" offset="100%"></stop>
        </linearGradient>
        <linearGradient x1="-1416.74401%" y1="-4054.70568%" x2="-1316.74401%" y2="-4054.70568%" id="linearGradient-11">
            <stop stop-color="#CBE2FC" offset="0%"></stop>
            <stop stop-color="#FCFDFF" offset="4%"></stop>
            <stop stop-color="#E9F3FF" offset="35%"></stop>
            <stop stop-color="#DEECFF" offset="66%"></stop>
            <stop stop-color="#DAEAFF" offset="100%"></stop>
        </linearGradient>
    </defs>
    <g id="页面-1" stroke="none" stroke-width="1" fill="none" fill-rule="evenodd">
        <g id="分摊规则-空" transform="translate(-909.000000, -378.000000)">
            <g id="编组-4" transform="translate(909.000000, 378.000000)">
                <g id="编组" fill-rule="nonzero">
                    <rect id="矩形" fill="#FFFFFF" x="0" y="0" width="300" height="300"></rect>
                    <g>
                        <rect id="矩形" fill="#F4F7F9" opacity="0" x="0" y="0" width="300" height="300"></rect>
                        <polygon id="路径" fill="#E4EFFF" points="58.9952584 174.023438 60.3515625 188.085938 51.8554688 187.150645"></polygon>
                        <polygon id="路径" fill="#F3F8FF" points="58.59375 174.023438 67.3828125 185.122798 59.925934 188.085938"></polygon>
                        <polygon id="路径" fill="#E4EFFF" points="29.3960874 177.539062 31.0546875 195.410156 20.8007812 194.218202"></polygon>
                        <polygon id="路径" fill="#F3F8FF" points="29.5898438 177.539062 40.4296875 191.661666 31.2505896 195.410156"></polygon>
                        <polygon id="路径" fill="#E4EFFF" points="43.500218 165.234375 46.2890625 194.824219 27.5390625 192.981025"></polygon>
                        <polygon id="路径" fill="#F3F8FF" points="43.0664062 165.234375 62.6953125 188.48824 45.8574823 194.824219"></polygon>
                        <path d="M48.9921958,100.203101 C47.8982552,94.3402075 42.7763487,90.1291474 36.8696827,90.2363771 C33.7094511,90.2215966 30.6592673,91.4074919 28.3247091,93.5586187 C27.0165286,92.9631354 25.5981781,92.6545784 24.1632494,92.6533081 C19.6167326,92.5809542 15.6363899,95.7220146 14.6066957,100.194796 C11.1125233,100.974974 8.59290472,104.0572 8.49609375,107.669839 C8.63044781,112.066068 12.251136,115.529743 16.6051832,115.427273 L46.9690356,115.427273 C51.3248273,115.534322 54.9482045,112.068075 55.078125,107.669839 C54.983245,104.066652 52.4753142,100.989708 48.9921958,100.203101 L48.9921958,100.203101 Z" id="路径" fill="url(#linearGradient-1)"></path>
                        <path d="M225.209326,59.5006564 C223.630875,57.0277816 220.961563,55.4917491 218.058542,55.3857979 C216.368109,52.7696335 213.4721,51.2160401 210.388152,51.2709393 C207.915615,51.2459848 205.537338,52.2317546 203.789967,54.0058148 C202.989945,53.7469263 202.155417,53.6143479 201.315647,53.6127287 C197.430966,53.6127287 194.222598,56.3392409 193.892689,59.7850166 C190.931401,60.5007384 188.799252,63.1239319 188.671875,66.2082108 C188.671875,69.9216196 192.028702,72.9492188 196.094834,72.9492188 L224.607241,72.9492188 C228.731107,72.9492188 232.0302,69.9216196 232.0302,66.2082108 C232.096182,62.6787996 229.044521,59.7766532 225.209326,59.5006564 Z" id="路径" fill="url(#linearGradient-2)"></path>
                        <path d="M278.210128,50.3152887 C275.426532,44.5802704 269.615278,40.9307968 263.235248,40.9110466 C259.681783,40.9186857 256.225309,42.0696838 253.377949,44.1935045 C249.989805,37.5917033 242.63154,34.0333034 235.346451,35.4736128 C228.061362,36.9139222 222.614506,43.0039775 221.99888,50.3973501 C214.162109,52.8677156 209.299293,60.6779484 210.545767,68.7923496 C211.792241,76.9067511 218.775586,82.9009277 226.993245,82.9101864 L273.355409,82.9101864 C281.620597,82.9257691 288.646225,76.8822319 289.857779,68.7145406 C291.069332,60.5468493 286.100034,52.7276273 278.185485,50.3481132 L278.210128,50.3152887 Z" id="路径" fill="url(#linearGradient-3)"></path>
                        <ellipse id="椭圆形" fill="url(#linearGradient-4)" cx="150" cy="217.382812" rx="150" ry="47.4609375"></ellipse>
                        <polygon id="路径" fill="#E4EFFF" points="265.429688 177.539062 264.001895 196.289062 253.417969 193.219519"></polygon>
                        <polygon id="路径" fill="#F3F8FF" points="265.091901 177.539062 273.925781 194.059693 263.671875 196.289062"></polygon>
                        <polygon id="路径" fill="url(#linearGradient-5)" points="207.128906 180.175781 151.171875 171.498553 151.171875 112.5 207.128906 121.177229"></polygon>
                        <polygon id="路径" fill="url(#linearGradient-6)" points="102.246094 181.054688 150.878906 171.927196 150.878906 112.792969 102.246094 121.928735"></polygon>
                        <polygon id="路径" fill="url(#linearGradient-7)" points="157.910156 189.550781 101.953125 180.872494 101.953125 121.875 157.910156 130.54503"></polygon>
                        <polygon id="路径" fill="url(#linearGradient-8)" points="158.496094 189.550781 207.128906 180.42329 207.128906 121.289062 158.496094 130.416553"></polygon>
                        <polygon id="路径" fill="url(#linearGradient-9)" points="142.826781 144.726562 87.0117188 135.98917 102.095094 121.582031 157.910156 130.31111"></polygon>
                        <g id="_人物" transform="translate(104.614238, 118.359784)">
                            <path d="M35.3267697,7.41280502 L39.8193559,9.97126484 C39.8193559,9.97126484 30.7000159,9.87213875 26.7969547,13.1823128 C22.8938935,16.4924869 19.4787149,23.6962684 6.95232779,19.4015505 C-5.5740593,15.1068326 3.94371811,10.4960883 8.74936224,11.3023608 C13.5550064,12.1086334 20.1088967,10.4069526 23.3858418,7.00764298 C26.662787,3.60833322 34.2046397,6.51739687 35.3267697,7.41280502 Z" id="路径" fill="url(#linearGradient-10)"></path>
                            <path d="M22.3897481,2.777751 C22.3897481,2.777751 18.4175701,2.84662855 15.7220185,6.49308714 C14.957669,7.56676663 14.5104433,8.25959372 14.148597,8.81871737 C13.7867506,9.37784103 12.7784599,10.3623849 11.2985491,9.15500193 C9.81863836,7.94761895 6.11479591,4.8359743 6.11479591,4.8359743 L4.16326529,7.45737283 C4.16326529,7.45737283 10.6033163,14.5193477 13.2297513,14.1871148 C15.8561862,13.8508302 18.7956792,14.1182372 22.1864636,9.93696468 C25.5772481,5.75164057 26.4513712,4.74683864 26.4513712,4.74683864 L22.3897481,2.777751 Z" id="路径" fill="#143E81"></path>
                            <path d="M5.15935904,2.91145448 L0.398437501,9.29680862 C0.398437501,9.29680862 2.08163265,11.0309023 3.8786671,8.45812312 C5.67570152,5.88534403 6.65146684,4.35383144 6.65146684,4.35383144 L5.15935904,2.91145448 Z" id="路径" fill="#003A8C"></path>
                            <polygon id="路径" fill="#001529" points="4.83410396 2.47387945 2.48820153 5.10338126 2.92729591 5.58552412 -1.41488384e-15 9.02535005 0.382174744 9.41430559 5.70009565 3.29230684"></polygon>
                            <path d="M22.5767698,2.98438364 C22.5767698,2.98438364 19.5397003,3.87979183 17.6816805,7.54650852 C15.8277264,11.2172768 15.5431282,12.5867246 13.4899554,11.5738195 C11.4408482,10.5609143 7.66788905,8.68096227 7.66788905,8.68096227 L6.00502233,11.6021808 C6.00502233,11.6021808 13.42897,17.5823728 16.315609,16.2696478 C19.2022481,14.9569227 28.1101722,8.96052412 28.1101722,8.96052412 C28.1101722,8.96052412 28.7403539,6.72402951 28.634646,6.61868738 C28.5330038,6.52144848 22.5767698,2.98438364 22.5767698,2.98438364 Z" id="路径" fill="#3E65A3"></path>
                            <path d="M6.49697065,7.19806909 L1.73604911,13.5834233 C1.73604911,13.5834233 3.41924426,15.3175169 5.21627871,12.7447378 C7.01331313,10.1719587 7.98907843,8.64044606 7.98907843,8.64044606 L6.49697065,7.19806909 Z" id="路径" fill="#003A8C"></path>
                            <polygon id="路径" fill="#001529" points="6.17171557 6.76049407 3.82581313 9.38999592 4.26490752 9.87213875 1.34167729 13.3119647 1.72385204 13.7009203 7.03770729 7.57892146"></polygon>
                            <path d="M39.8193559,9.97126484 C39.8193559,9.97126484 38.3520377,-0.293377451 30.0576371,0.00644247661 C21.7632367,0.306262405 19.9950574,1.43261295 19.8242985,2.34422759 C19.7063935,2.96007392 20.4219547,3.1707582 20.4219547,3.1707582 C20.4219547,3.1707582 26.2277583,5.39104631 27.1547354,9.53990586 C27.3051658,10.2246298 27.8133769,10.0179971 29.2485651,9.45077018 C30.6837532,8.8835433 32.8588968,8.20287107 35.6560906,8.69311716 C37.4227508,8.91816192 39.8193559,9.97126484 39.8193559,9.97126484 Z" id="路径" fill="#53A4FC"></path>
                        </g>
                        <polygon id="路径" fill="url(#linearGradient-11)" points="173.610834 144.726562 222.363281 135.614274 207.24854 121.289062 158.496094 130.401351"></polygon>
                    </g>
                </g>
                <text id="暂无数据" font-family="PingFangSC-Regular, PingFang SC" font-size="14" font-weight="normal" line-spacing="22" fill="#BFBFBF">
                    <tspan x="122" y="275">暂无数据</tspan>
                </text>
            </g>
        </g>
    </g>
</svg>