<?xml version="1.0" encoding="UTF-8"?>
<svg width="146px" height="146px" viewBox="0 0 146 146" version="1.1" xmlns="http://www.w3.org/2000/svg" xmlns:xlink="http://www.w3.org/1999/xlink">
    <title>编组</title>
    <g id="页面-1" stroke="none" stroke-width="1" fill="none" fill-rule="evenodd">
        <g id="编组" transform="translate(72.832127, 72.833093) scale(-1, 1) translate(-72.832127, -72.833093) " fill="#59AAFF" fill-rule="nonzero">
            <path d="M58.3111235,0.168054938 C61.1769197,-0.401905078 64.1379859,0.497718719 66.2023735,2.56555494 L143.101123,79.4630549 C144.74226,81.1040239 145.664255,83.329756 145.664255,85.6505549 C145.664255,87.9713539 144.74226,90.197086 143.101123,91.8380549 L91.8348735,143.103055 C90.1939045,144.744191 87.9681724,145.666186 85.6473735,145.666186 C83.3265745,145.666186 81.1008424,144.744191 79.4598735,143.103055 L2.56487346,66.2043049 C0.659989726,64.303352 -0.262328489,61.6304738 0.0648734638,58.9593049 L0.0648734638,10.1693049 C0.0648734638,4.64645744 4.54202597,0.169304938 10.0648735,0.169304938 L58.3123735,0.169304938 L58.3111235,0.168054938 Z M42.3373735,38.8055549 C47.2198735,33.9230549 47.2198735,26.0080549 42.3373735,21.1268049 C37.4561235,16.2455549 29.5411235,16.2455549 24.6598735,21.1268049 C19.7786235,26.0080549 19.7786235,33.9230549 24.6598735,38.8043049 C29.5411235,43.6855549 37.4561235,43.6855549 42.3373735,38.8043049 L42.3373735,38.8055549 Z" id="形状"></path>
        </g>
    </g>
</svg>