<?xml version="1.0" encoding="UTF-8"?>
<svg width="22px" height="22px" viewBox="0 0 22 22" version="1.1" xmlns="http://www.w3.org/2000/svg" xmlns:xlink="http://www.w3.org/1999/xlink">
    <title>arrowleft-outlined</title>
    <g id="控件" stroke="none" stroke-width="1" fill="none" fill-rule="evenodd">
        <g id="编组-6" transform="translate(-240.000000, -217.000000)" fill-rule="nonzero">
            <g id="arrowleft-outlined" transform="translate(240.000000, 217.000000)">
                <rect id="矩形" fill="#000000" opacity="0" x="0" y="0" width="22" height="22"></rect>
                <path d="M18.734375,10.1835938 L6.16386719,10.1835938 L13.6876953,3.65234375 C13.8080078,3.54707031 13.7349609,3.3515625 13.5759766,3.3515625 L11.6746094,3.3515625 C11.5908203,3.3515625 11.5113281,3.38164063 11.4490234,3.43535156 L3.33007813,10.4800781 C3.01425781,10.7550781 3.01425781,11.2449219 3.33007813,11.5177734 L11.4962891,18.6054688 C11.5285156,18.6333984 11.5671875,18.6484375 11.6080078,18.6484375 L13.5738281,18.6484375 C13.7328125,18.6484375 13.8058594,18.4507812 13.6855469,18.3476562 L6.16386719,11.8164062 L18.734375,11.8164062 C18.8289063,11.8164062 18.90625,11.7390625 18.90625,11.6445312 L18.90625,10.3554688 C18.90625,10.2609375 18.8289063,10.1835938 18.734375,10.1835938 Z" id="路径" fill="#1890FF"></path>
            </g>
        </g>
    </g>
</svg>