<?xml version="1.0" encoding="UTF-8"?>
<svg width="589px" height="265px" viewBox="0 0 589 265" version="1.1" xmlns="http://www.w3.org/2000/svg" xmlns:xlink="http://www.w3.org/1999/xlink">
    <title>编组 20</title>
    <defs>
        <path d="M62.0244935,50.2807187 C52.8089771,55.8619272 69.3632427,71.4020653 69.3632427,71.4020653 L54.682939,81.4044774 C51.6994682,79.994798 49.6557836,78.3789266 48.2699495,76.7476259 L42.2931891,83.4762153 C37.0949084,83.2461781 31.6174972,81.523704 29.0997115,76.6017486 C28.3114131,75.0475945 28.2440852,73.0221446 28.1795625,71.0275534 C28.0939999,68.4129837 28.0098399,65.8517154 26.3041979,64.4686866 C24.9239744,63.3465537 22.9153565,62.8738552 21.2069092,62.5750873 C20.3176189,62.4165861 15.2006928,61.5301011 14.5232051,62.4165861 C17.9737638,57.9112224 11.8665554,60.7684533 11.8665554,60.7684533 C9.82988423,60.0811469 8.96023123,56.1214205 8.29677015,53.0930643 C8.03306892,51.8895768 7.80022634,50.8319665 7.53933044,50.1867401 C6.96423733,48.763034 1.68039402,39.0720137 0,39.6821734 C7.26581054,37.0353425 15.0814662,38.8616138 21.2714318,43.2267107 C23.9252761,45.0852434 25.6365288,47.6409011 27.1093283,50.4714813 C27.2608162,50.7646385 27.5385441,51.4561529 27.8836,52.3145846 C28.8191783,54.644413 30.2470924,58.194561 30.9722708,58.287137 C31.8896144,58.4035583 39.7852221,62.8219566 45.9962277,66.3622859 C46.4226382,64.1601 43.9581538,60.9437866 43.9581538,60.9437866 C36.1130421,53.842088 42.7280156,47.0700159 42.7280156,47.0700159 C45.5754278,44.1580811 43.9090605,38.9920617 41.7952426,36.2666814 C40.9985283,35.2413325 39.7164914,34.4698661 38.4218306,33.6885811 C36.2785567,32.3967256 34.0960082,31.0824274 34.0118483,28.554823 C33.9655603,27.1563649 34.7173893,25.950072 35.4762317,24.7325578 C35.8816022,24.0845261 36.2869727,23.4322863 36.5773246,22.7463826 C37.9224814,19.5525118 36.36973,16.0921345 33.9823923,13.8703114 C33.4749892,13.4106548 32.9519542,12.9685546 32.4142116,12.5447919 C30.8853055,11.3118483 29.3549967,10.0746968 28.7939303,8.24421751 C28.0350879,5.76991446 29.500874,3.01367552 31.6637852,1.60820406 C33.8266963,0.204135263 36.5282313,-0.0876192912 39.1231636,0.0203860007 C43.7435459,0.208343262 48.4368667,1.62784138 51.8874254,4.70669354 C56.8262129,9.10685718 58.5164255,16.2155691 58.2232683,22.8249319 L58.2232683,22.8361532 C58.0100631,27.7721353 57.8571725,31.3012433 61.4998964,34.9313433 C61.9206962,35.3507404 62.3653414,35.7631243 62.8113892,36.1755081 C65.0795004,38.2781046 67.3812755,40.4115598 66.9352276,43.8621185 C66.5845611,46.5678615 64.2757727,48.9187299 62.0258962,50.2807187 L62.0244935,50.2807187 Z" id="path-1"></path>
        <path d="M6.08616833,41.7248823 C13.7461281,46.3424592 0,59.2371689 0,59.2371689 L12.1807527,67.5395497 C22.1424875,62.8279942 19.4605899,55.3461731 19.4605899,55.3461731 C18.8125581,53.5325258 21.0820719,50.5658869 21.0820719,50.5658869 C27.5918454,44.6760918 22.1004075,39.0556087 22.1004075,39.0556087 C19.7397204,36.6402176 21.1115279,32.3592806 22.8760819,30.0953774 C23.539543,29.2425564 24.6041666,28.6029407 25.6800115,27.9549089 C27.4599948,26.883272 29.2708368,25.7934004 29.3395674,23.6964146 C29.3802447,22.526591 28.7476423,21.5124634 28.1122345,20.4941278 C27.7812053,19.96392 27.4487735,19.4323095 27.2117229,18.8782564 C26.0923953,16.2286201 27.3842508,13.3573625 29.3648154,11.5128566 C29.7757966,11.1313314 30.2218444,10.7708462 30.6692949,10.410361 C31.9330971,9.39062273 33.2011073,8.36807912 33.6653897,6.84618637 C34.2951868,4.78707249 33.088894,2.49651871 31.2850653,1.33230582 C29.4826394,0.168092933 27.2313602,-0.0717629753 25.0880864,0.0166049908 C21.2545998,0.175106263 17.3622013,1.35474848 14.4993598,3.90760083 C10.3993667,7.55874076 9.00231121,13.4555492 9.23936179,18.9385711 L9.23936179,18.9399737 C9.42030572,23.0483828 9.549351,25.9771497 6.52380016,28.9928819 C6.17313363,29.3421457 5.80282977,29.6857989 5.43252591,30.0294521 C3.5529533,31.7715635 1.64532737,33.5403255 2.01282589,36.403167 C2.30458045,38.6474328 4.22202505,40.5957361 6.08616833,41.7248823 L6.08616833,41.7248823 Z M39.0390037,43.1850578 C37.4960709,43.8401028 19.0748567,62.6975463 19.0748567,62.6975463 L34.5378481,72.6831264 C39.882006,70.9382098 45.0873,67.5465631 46.2809689,61.7086666 C46.6596888,59.85855 46.1407023,57.7264975 45.6315345,55.6267063 C44.9652681,52.8872994 44.3130283,50.2025964 45.6848358,48.2725278 C46.7999554,46.7057497 48.7496613,45.6327101 50.4412766,44.8247745 L50.4496926,44.8219691 C51.3544123,44.3927533 56.3857757,42.0068182 57.3564207,42.7305939 C52.4456865,39.0359713 59.6259344,40.2492775 59.6259344,40.2492775 C61.547587,38.9433954 61.3091338,34.5726877 61.1253845,31.227329 C61.0524459,29.8976015 60.9893259,28.7305833 61.0720832,27.9815596 C61.2572352,26.3236082 63.9587701,14.716546 65.8818254,14.8666313 C57.5570019,14.2115862 49.9559542,18.3718939 44.7660895,24.7049315 C42.558293,27.4036611 41.5105014,30.5596599 40.7965443,33.9316693 C40.722203,34.2837385 40.6324324,35.0944795 40.5202191,36.0973858 C40.2200486,38.7933101 39.7641821,42.8792765 39.0390037,43.1850578 Z" id="path-3"></path>
        <path d="M58.2128274,0.854719312 C53.8252878,0.585407415 46.0446988,1.10860188 41.7707751,0.774767342 C20.9608204,-1.17213324 1.95609701,-0.75694407 0.26027366,17.9462061 C-1.74133091,40.1055256 8.45885718,65.079996 8.45885718,65.079996 L23.3762115,62.2171544 C23.3762115,62.2171544 21.6256841,28.4886447 21.0281484,21.4612874 L43.6840117,29.335855 C51.555774,32.0696513 59.0179578,29.7734869 67.4002906,28.0383889 C70.1284762,27.4871411 71.9407208,24.1011051 74.5847465,23.265116 C71.7653875,18.9000191 58.2128274,0.849108647 58.2128274,0.849108647" id="path-5"></path>
        <path d="M29.3755861,13.8223359 C24.0889375,15.8660205 18.6732436,17.8409744 13.5913842,20.3573574 C3.53707338,25.3256009 -2.66271091,31.7918917 1.12168231,42.9809594 C7.93162636,63.1456877 27.065395,80.9244808 27.065395,80.9244808 L39.6262702,72.4916521 C39.6262702,72.4916521 24.8449745,43.7201645 21.5459038,37.7910947 L45.3982413,35.6927062 C53.6851928,34.9577092 73.4613825,32.2940462 80.4662972,27.446432 C81.6010541,26.6707577 86.5721028,21.7389836 86.5721028,15.6415939 C86.5721028,1.26146076 85.15541,1.40172737 84.2015971,0.334298448 C83.677,-1.50459685 50.7985059,4.84246738 50.7985059,4.84246738" id="path-7"></path>
    </defs>
    <g id="控件" stroke="none" stroke-width="1" fill="none" fill-rule="evenodd">
        <g id="编组-6" transform="translate(-1268.000000, -703.000000)">
            <g id="编组-20" transform="translate(1268.322793, 704.000000)">
                <polygon id="路径" fill="#EFD1D8" fill-rule="nonzero" points="363.734512 159.950227 369.286264 167.315626 374.964257 164.016556 369.347982 153.603162"></polygon>
                <path d="M458.300859,47.3455925 C450.243467,61.3995855 435.957925,102.828231 416.563827,110.133153 C384.421333,122.239847 365.026233,100.090307 333.77128,97.5760441 C308.309356,95.5277934 323.020694,127.450318 306.926979,135.207588 C295.034674,140.939753 282.264704,144.685978 269.667174,148.634001 C211.00587,167.018256 204.982706,151.126342 200.200414,207.361515 C199.514669,215.425216 199.678195,220.381893 206.452964,226.971809 C213.227733,233.561725 238.057231,239.394177 241.95203,240.236969 C265.773457,245.391665 289.801174,249.561941 313.819086,253.705752 C337.545865,257.799334 353.78363,259.327554 377.890328,259.888652 C406.699712,260.559209 435.556838,262.339805 464.336353,260.866784 C507.300017,258.667778 548.731012,217.83186 571.959167,185.913628 C597.311938,151.075922 590.766818,102.203192 561.608965,72.1038004 C545.821325,55.8063595 530.919624,27.8714279 503.907146,25.5162841 C476.894668,23.1611403 466.358252,33.2915995 458.300859,47.3455925 Z" id="路径-8" fill="#F4F7FC"></path>
                <path d="M368.559683,167.756064 C369.531731,171.972478 364.689727,173.435459 366.938201,177.353105 L376.167744,171.823795 L380.604377,169.160132 L375.486049,162.4091 L368.559683,167.756064 L368.559683,167.756064 Z" id="路径" fill="#000000" fill-rule="nonzero"></path>
                <path d="M370.233064,172.997827 C369.251198,172.679422 368.242681,172.450787 367.220137,172.313326 C366.992905,172.281065 367.012542,172.617704 367.239774,172.637342 C368.230057,172.7734 369.206312,172.996424 370.158723,173.305011 C370.381746,173.379352 370.453282,173.055336 370.233064,172.980995 M370.412605,171.923385 L367.817673,171.446478 C367.593246,171.408606 367.60026,171.745246 367.817673,171.787326 L370.412605,172.261427 C370.635629,172.303507 370.630018,171.962659 370.412605,171.936009" id="形状" fill="#FFFFFF" fill-rule="nonzero"></path>
                <g id="编组" transform="translate(0.000000, 171.943022)">
                    <path d="M62.0244935,50.2807187 C52.8089771,55.8619272 69.3632427,71.4020653 69.3632427,71.4020653 L54.682939,81.4044774 C51.6994682,79.994798 49.6557836,78.3789266 48.2699495,76.7476259 L42.2931891,83.4762153 C37.0949084,83.2461781 31.6174972,81.523704 29.0997115,76.6017486 C28.3114131,75.0475945 28.2440852,73.0221446 28.1795625,71.0275534 C28.0939999,68.4129837 28.0098399,65.8517154 26.3041979,64.4686866 C24.9239744,63.3465537 22.9153565,62.8738552 21.2069092,62.5750873 C20.3176189,62.4165861 15.2006928,61.5301011 14.5232051,62.4165861 C17.9737638,57.9112224 11.8665554,60.7684533 11.8665554,60.7684533 C9.82988423,60.0811469 8.96023123,56.1214205 8.29677015,53.0930643 C8.03306892,51.8895768 7.80022634,50.8319665 7.53933044,50.1867401 C6.96423733,48.763034 1.68039402,39.0720137 0,39.6821734 C7.26581054,37.0353425 15.0814662,38.8616138 21.2714318,43.2267107 C23.9252761,45.0852434 25.6365288,47.6409011 27.1093283,50.4714813 C27.2608162,50.7646385 27.5385441,51.4561529 27.8836,52.3145846 C28.8191783,54.644413 30.2470924,58.194561 30.9722708,58.287137 C31.8896144,58.4035583 39.7852221,62.8219566 45.9962277,66.3622859 C46.4226382,64.1601 43.9581538,60.9437866 43.9581538,60.9437866 C36.1130421,53.842088 42.7280156,47.0700159 42.7280156,47.0700159 C45.5754278,44.1580811 43.9090605,38.9920617 41.7952426,36.2666814 C40.9985283,35.2413325 39.7164914,34.4698661 38.4218306,33.6885811 C36.2785567,32.3967256 34.0960082,31.0824274 34.0118483,28.554823 C33.9655603,27.1563649 34.7173893,25.950072 35.4762317,24.7325578 C35.8816022,24.0845261 36.2869727,23.4322863 36.5773246,22.7463826 C37.9224814,19.5525118 36.36973,16.0921345 33.9823923,13.8703114 C33.4749892,13.4106548 32.9519542,12.9685546 32.4142116,12.5447919 C30.8853055,11.3118483 29.3549967,10.0746968 28.7939303,8.24421751 C28.0350879,5.76991446 29.500874,3.01367552 31.6637852,1.60820406 C33.8266963,0.204135263 36.5282313,-0.0876192912 39.1231636,0.0203860007 C43.7435459,0.208343262 48.4368667,1.62784138 51.8874254,4.70669354 C56.8262129,9.10685718 58.5164255,16.2155691 58.2232683,22.8249319 L58.2232683,22.8361532 C58.0100631,27.7721353 57.8571725,31.3012433 61.4998964,34.9313433 C61.9206962,35.3507404 62.3653414,35.7631243 62.8113892,36.1755081 C65.0795004,38.2781046 67.3812755,40.4115598 66.9352276,43.8621185 C66.5845611,46.5678615 64.2757727,48.9187299 62.0258962,50.2807187 L62.0244935,50.2807187 Z" id="路径" fill="#CDE5F9"></path>
                    <g id="Clipped">
                        <mask id="mask-2" fill="white">
                            <use xlink:href="#path-1"></use>
                        </mask>
                        <g id="路径"></g>
                        <g id="编组" mask="url(#mask-2)" stroke="#FFFFFF" stroke-width="0.173">
                            <g transform="translate(0.012624, -2.831234)" id="形状">
                                <path d="M30.5248203,0 C31.5361426,3.92185449 34.1633362,6.41158687 37.3347643,8.69512733 C39.3405769,10.1314574 41.8134773,11.3966623 43.2890821,13.4361388 C45.4141212,16.384543 43.9707778,19.1057153 44.2821697,22.4622954 C44.4561003,24.333452 45.1279773,26.2242459 46.4927715,27.5146988 C52.006652,32.7298114 55.1009335,36.9195752 54.2775685,44.9259934 C53.1063423,56.2188584 52.4218412,69.1388161 63.1269891,76.5238533 M0,42.507797 C7.23200534,43.9852775 13.5604133,48.3217368 17.5487559,54.5328537 C19.3203233,57.333978 19.8743764,60.8111873 22.644642,62.8408452 C25.4682089,64.9139858 29.2021061,65.3053296 32.3931716,66.5635211 C38.2591213,68.8765176 42.2511091,74.7719233 44.268143,80.5607264"></path>
                            </g>
                        </g>
                    </g>
                </g>
                <g id="编组" transform="translate(484.832289, 191.316874)">
                    <path d="M6.08616833,41.7248823 C13.7461281,46.3424592 0,59.2371689 0,59.2371689 L12.1807527,67.5395497 C22.1424875,62.8279942 19.4605899,55.3461731 19.4605899,55.3461731 C18.8125581,53.5325258 21.0820719,50.5658869 21.0820719,50.5658869 C27.5918454,44.6760918 22.1004075,39.0556087 22.1004075,39.0556087 C19.7397204,36.6402176 21.1115279,32.3592806 22.8760819,30.0953774 C23.539543,29.2425564 24.6041666,28.6029407 25.6800115,27.9549089 C27.4599948,26.883272 29.2708368,25.7934004 29.3395674,23.6964146 C29.3802447,22.526591 28.7476423,21.5124634 28.1122345,20.4941278 C27.7812053,19.96392 27.4487735,19.4323095 27.2117229,18.8782564 C26.0923953,16.2286201 27.3842508,13.3573625 29.3648154,11.5128566 C29.7757966,11.1313314 30.2218444,10.7708462 30.6692949,10.410361 C31.9330971,9.39062273 33.2011073,8.36807912 33.6653897,6.84618637 C34.2951868,4.78707249 33.088894,2.49651871 31.2850653,1.33230582 C29.4826394,0.168092933 27.2313602,-0.0717629753 25.0880864,0.0166049908 C21.2545998,0.175106263 17.3622013,1.35474848 14.4993598,3.90760083 C10.3993667,7.55874076 9.00231121,13.4555492 9.23936179,18.9385711 L9.23936179,18.9399737 C9.42030572,23.0483828 9.549351,25.9771497 6.52380016,28.9928819 C6.17313363,29.3421457 5.80282977,29.6857989 5.43252591,30.0294521 C3.5529533,31.7715635 1.64532737,33.5403255 2.01282589,36.403167 C2.30458045,38.6474328 4.22202505,40.5957361 6.08616833,41.7248823 L6.08616833,41.7248823 Z M39.0390037,43.1850578 C37.4960709,43.8401028 19.0748567,62.6975463 19.0748567,62.6975463 L34.5378481,72.6831264 C39.882006,70.9382098 45.0873,67.5465631 46.2809689,61.7086666 C46.6596888,59.85855 46.1407023,57.7264975 45.6315345,55.6267063 C44.9652681,52.8872994 44.3130283,50.2025964 45.6848358,48.2725278 C46.7999554,46.7057497 48.7496613,45.6327101 50.4412766,44.8247745 L50.4496926,44.8219691 C51.3544123,44.3927533 56.3857757,42.0068182 57.3564207,42.7305939 C52.4456865,39.0359713 59.6259344,40.2492775 59.6259344,40.2492775 C61.547587,38.9433954 61.3091338,34.5726877 61.1253845,31.227329 C61.0524459,29.8976015 60.9893259,28.7305833 61.0720832,27.9815596 C61.2572352,26.3236082 63.9587701,14.716546 65.8818254,14.8666313 C57.5570019,14.2115862 49.9559542,18.3718939 44.7660895,24.7049315 C42.558293,27.4036611 41.5105014,30.5596599 40.7965443,33.9316693 C40.722203,34.2837385 40.6324324,35.0944795 40.5202191,36.0973858 C40.2200486,38.7933101 39.7641821,42.8792765 39.0390037,43.1850578 Z" id="形状" fill="#CDE5F9"></path>
                    <g id="Clipped">
                        <mask id="mask-4" fill="white">
                            <use xlink:href="#path-3"></use>
                        </mask>
                        <g id="形状"></g>
                        <g id="编组" mask="url(#mask-4)" stroke="#FFFFFF" stroke-width="0.173">
                            <g transform="translate(6.223630, -16.701773)" id="形状">
                                <path d="M32.6021688,0 C31.5894439,3.92045183 28.9636529,6.41158687 25.7908221,8.69512733 C23.7906202,10.1314574 21.3121092,11.3966623 19.8407124,13.4361388 C17.7128679,16.3831404 19.1562113,19.1043127 18.8448194,22.4608927 C18.6694862,24.3320493 17.9990118,26.2228433 16.6328149,27.5132961 C11.1203371,32.7284088 8.02605559,36.9181725 8.8494206,44.9259934 C10.0206468,56.2188584 10.7079532,69.1388161 0,76.5224506 M59.6581958,31.5684039 C52.5574392,35.1981622 47.2244179,41.5428541 44.8698868,49.1620451 C43.8361218,52.5887585 44.263935,56.367541 41.9705759,59.2794759 C39.6253181,62.2531281 35.8577569,63.7427595 32.8897154,65.9772067 C27.4543841,70.0786024 24.9997184,77.369661 24.5789186,83.9818291"></path>
                            </g>
                        </g>
                    </g>
                </g>
                <path d="M394.668911,69.420752 L385.993421,67.0053609 C384.570498,63.494317 383.175269,59.9721129 381.807865,56.439077 C380.666095,53.4976861 379.501882,50.5661139 378.41201,47.6050857 C377.114544,44.0900044 376.041504,40.5833391 374.279756,37.256215 C373.66118,36.0849888 372.81397,35.0021306 371.461799,34.6837254 C369.763171,34.2853682 367.894819,34.1002162 366.16954,33.8729843 C365.245183,33.7537577 364.029072,33.4325472 363.159419,33.8505417 C362.472112,34.1759602 361.62911,34.9109573 361.767974,35.7637783 C361.995206,37.1776657 364.16513,38.0150574 365.26482,38.4891586 C365.912852,38.7640811 366.562287,39.008145 367.210318,39.2381823 C367.467006,39.3251476 369.580824,39.8539527 369.597656,39.9928166 L371.426733,54.3238565 C372.51941,62.8829252 371.841922,71.4307726 376.939211,78.8677084 C381.921481,86.1391296 389.703472,90.4719653 398.55149,87.590889 C415.66542,82.0166939 394.659092,69.4305707 394.659092,69.4305707" id="路径" fill="#EFD1D8" fill-rule="nonzero"></path>
                <path d="M412.025501,97.9622024 C407.637962,97.6928905 399.857373,98.216085 395.583449,97.8822504 C374.773494,95.9353498 355.768771,96.350539 354.072947,115.053689 C352.071343,137.213009 362.271531,162.187479 362.271531,162.187479 L377.188885,159.324638 C377.188885,159.324638 375.438358,125.596128 374.840822,118.56877 L397.496685,126.443338 C405.368448,129.177134 412.830632,126.88097 421.212964,125.145872 C423.94115,124.594624 425.753395,121.208588 428.39742,120.372599 C425.578061,116.007502 412.025501,97.9565917 412.025501,97.9565917" id="路径" fill="#1AB7B7" fill-rule="nonzero"></path>
                <g id="Clipped" transform="translate(353.812674, 97.107483)">
                    <mask id="mask-6" fill="white">
                        <use xlink:href="#path-5"></use>
                    </mask>
                    <g id="路径"></g>
                    <g id="编组" mask="url(#mask-6)" stroke="#FFFFFF" stroke-width="0.116">
                        <g transform="translate(-64.411051, -66.302130)" id="形状">
                            <path d="M63.6782369,0 L168.899237,70.7967675 M60.3272675,4.98227009 L165.545462,75.7776349 M56.9748955,9.96033218 L162.194492,80.7585023 M53.6239261,14.9411996 L158.844926,85.7407724 M50.2701514,19.922067 L155.491151,90.7216398 M46.9205847,24.9043371 L152.141584,95.6997019 M43.5710179,29.8852045 L148.789212,100.680569 M40.2172432,34.866072 L145.438243,105.661437 M36.8662738,39.844134 L142.084468,110.643707 M33.5139018,44.8264041 L138.734901,115.624574 M30.1629324,49.8072715 L135.383932,120.606844 M26.8147684,54.788139 L132.03156,125.587712 M23.4609937,59.7704091 L128.681993,130.565774 M20.1100243,64.7512765 L125.331024,135.546641 M16.7576522,69.7293386 L121.977249,140.527509 M13.4080855,74.710206 L118.627682,145.509779 M10.0557135,79.6924761 L115.273908,150.490646 M6.70334143,84.6733435 L111.924341,155.471514 M3.35377471,89.6542109 L108.574774,160.449576 M0,94.6350783 L105.221,165.431846"></path>
                        </g>
                    </g>
                </g>
                <path d="M346.951611,201.111464 L356.829186,187.665507 C356.829186,187.665507 362.019051,192.925505 359.728497,198.545988 C356.829186,205.657505 346.957222,201.111464 346.957222,201.111464 M333.777771,192.111958 C333.778108,192.958012 333.267994,193.720691 332.485916,194.04343 C331.704708,194.370064 330.803493,194.19093 330.206583,193.590368 C329.761864,193.148532 329.539459,192.5301 329.600922,191.906227 C329.662385,191.282354 330.001195,190.719211 330.523586,190.372652 C331.165489,189.944427 331.990955,189.904169 332.671482,190.267899 C333.352009,190.631629 333.777171,191.340327 333.777771,192.111958 L333.777771,192.111958 Z" id="形状" fill="#CBE1F8" fill-rule="nonzero"></path>
                <polygon id="路径" fill="#EFD1D8" fill-rule="nonzero" points="391.707882 171.433854 397.261038 178.799254 402.93903 175.500183 397.322755 165.08679"></polygon>
                <path d="M393.10634,110.876549 C387.819692,112.920234 382.403998,114.895188 377.322138,117.411571 C367.267828,122.379814 361.068043,128.846105 364.852437,140.035173 C371.662381,160.199901 390.796149,177.978694 390.796149,177.978694 L403.357025,169.545866 C403.357025,169.545866 388.575729,140.774378 385.276658,134.845308 L409.128996,132.74692 C417.415947,132.011923 437.192137,129.34826 444.197051,124.500646 C445.331808,123.724971 450.302857,118.793197 450.302857,112.695807 C450.302857,98.3156743 448.886164,98.4559409 447.932351,97.388512 C447.407754,95.5496167 414.52926,101.896681 414.52926,101.896681" id="路径" fill="#58C1CC" fill-rule="nonzero"></path>
                <g id="Clipped" transform="translate(363.730754, 97.054214)">
                    <mask id="mask-8" fill="white">
                        <use xlink:href="#path-7"></use>
                    </mask>
                    <g id="路径"></g>
                    <g id="编组" mask="url(#mask-8)" stroke="#FFFFFF" stroke-width="0.116">
                        <g transform="translate(-53.398547, -69.634896)" id="形状">
                            <path d="M63.6768342,0 L168.893626,70.7995728 M60.3244622,4.98227009 L165.544059,75.7804402 M56.9720901,9.96173484 L162.19309,80.7613077 M53.6225234,14.9440049 L158.840718,85.7435778 M50.2701514,19.926275 L155.489748,90.7216398 M46.919182,24.9071424 L152.137376,95.7025073 M43.5668099,29.8852045 L148.78781,100.684777 M40.2158406,34.866072 L145.43684,105.665645 M36.8634685,39.848342 L142.084468,110.646512 M33.5124991,44.8292095 L138.733499,115.628782 M30.1629324,49.8100769 L135.379724,120.606844 M26.8105604,54.7909443 L132.030157,125.587712 M23.459591,59.7732144 L128.680591,130.568579 M20.1058163,64.7512765 L125.326816,135.550849 M16.7562496,69.7321439 L121.975847,140.531717 M13.4066829,74.714414 L118.623474,145.512584 M10.0529081,79.6952814 L115.273908,150.494854 M6.70334143,84.6761488 L111.922938,155.471514 M3.34956671,89.6570163 L108.570566,160.453784 M0,94.6392863 L105.221,165.434651"></path>
                        </g>
                    </g>
                </g>
                <path d="M396.534456,179.239691 C397.506504,183.456106 392.664501,184.919086 394.911572,188.839538 L404.142518,183.30602 L408.577748,180.647968 L403.460822,173.892728 L396.534456,179.239691 Z" id="路径" fill="#000000" fill-rule="nonzero"></path>
                <path d="M398.20924,184.494079 C397.227147,184.17727 396.218887,183.948205 395.196313,183.809577 C394.969081,183.780121 394.988718,184.118164 395.21595,184.133593 C396.206233,184.271055 397.182488,184.495481 398.133496,184.80547 C398.355117,184.877006 398.42525,184.551588 398.205032,184.481455 M398.385976,183.407012 L395.792446,182.934314 C395.565214,182.890831 395.570825,183.231679 395.792446,183.25833 L398.385976,183.731028 C398.613208,183.773108 398.603389,183.436468 398.385976,183.407012 Z" id="形状" fill="#FFFFFF" fill-rule="nonzero"></path>
                <polygon id="路径" fill="#000000" fill-rule="nonzero" points="403.557606 184.970985 404.145323 183.307423 394.91578 188.839538 395.537161 189.80317"></polygon>
                <path d="M383.510701,114.635695 C383.510701,114.635695 355.113726,122.116113 366.322431,143.943001" id="路径" stroke="#000000" stroke-width="0.231"></path>
                <path d="M355.360595,7.84090366 L313.349342,7.84090366 C311.352789,7.8470558 309.735357,9.46323457 309.727655,11.4597823 L309.727655,65.4063216 C309.72533,67.4095307 311.346137,69.0359866 313.349342,69.0406295 L344.554455,69.0406295 L358.982279,54.615611 L358.982279,11.4836276 C358.976878,9.48612307 357.358103,7.86860235 355.360595,7.86474898" id="路径" fill="#A5C3EF" fill-rule="nonzero" opacity="0.48"></path>
                <path d="M366.090991,50.0134635 L352.753039,50.0134635 C352.250884,50.0134635 352.103604,50.1368981 352.103604,50.6432606 C352.123242,55.0897122 352.103604,59.5361638 352.103604,63.9826154 C352.103604,64.1663647 352.04329,64.3683486 352.182153,64.5338632 L366.609977,50.1046368 C366.441657,49.9685782 366.243881,50.0274901 366.058729,50.0274901" id="路径" fill="#58C1CC" fill-rule="nonzero"></path>
                <path d="M366.090991,50.0148661 L352.753039,50.0148661 C352.250884,50.0148661 352.103604,50.1368981 352.103604,50.6432606 C352.123242,55.0897122 352.103604,59.5361638 352.103604,63.9826154 C352.103604,64.1663647 352.04329,64.3683486 352.182153,64.5338632 L366.609977,50.1046368 C366.473919,49.9559542 366.276143,50.0148661 366.090991,50.0148661 Z" id="路径" stroke="#221715" stroke-width="0.231"></path>
                <path d="M363.020555,3.33413739 L321.010704,3.33413739 C319.013149,3.34105856 317.395312,4.95826947 317.387618,6.95582133 L317.387618,60.8981526 C317.393778,62.8965706 319.012286,64.5150784 321.010704,64.5212392 L352.214415,64.5212392 C352.075551,64.3557246 352.137268,64.1537407 352.137268,63.9685888 L352.137268,50.6306366 C352.137268,50.1256768 352.266313,49.9826048 352.7853,50.0008395 C357.231752,50.0204768 361.678203,50.0008395 366.124655,50.0008395 C366.309807,50.0008395 366.507583,49.9391222 366.675903,50.0765834 L366.675903,6.94319733 C366.66745,4.94573349 365.05028,3.32856327 363.052816,3.32011073" id="路径" fill="#3458DF" fill-rule="nonzero"></path>
                <path d="M363.020555,3.33406609 L321.010704,3.33406609 C319.013149,3.34105856 317.395312,4.95826947 317.387618,6.95582133 L317.387618,60.8981526 C317.396075,62.8953864 319.013467,64.512152 321.010704,64.5198366 L352.214415,64.5198366 C352.075551,64.354322 352.137268,64.1537407 352.137268,63.9685888 L352.137268,50.6292339 C352.137268,50.1242741 352.266313,49.9812021 352.7853,50.0008395 C357.231752,50.0204768 361.678203,50.0008395 366.124655,50.0008395 C366.309807,50.0008395 366.507583,49.9391222 366.675903,50.0751808 L366.675903,6.94319733 C366.662775,4.93733224 365.026424,3.32170272 363.020555,3.33406609 L363.020555,3.33406609 Z" id="路径" stroke="#221715" stroke-width="0.231"></path>
                <path d="M328.144664,27.1121336 C328.167125,26.7880388 328.167125,26.462778 328.144664,26.1386833 C328.066115,25.6000595 328.315789,25.5495635 328.792696,25.5215102 C330.495532,25.4261289 330.690503,26.6520591 330.359474,27.913056 C330.200973,28.5260211 328.867037,28.9889009 328.296152,28.706965 C328.13204,28.6298183 328.164301,28.4937597 328.164301,28.3843518 L328.164301,27.1247576" id="路径" fill="#EA706A" fill-rule="nonzero"></path>
                <path d="M337.887583,6.32602424 L353.934083,6.32602424 M356.792717,6.32602424 L360.24047,6.32602424 M361.752544,51.351607 L354.678899,58.5627135" id="形状" stroke="#FFFFFF" stroke-width="0.231"></path>
                <path d="M327.966525,0 L316.290733,0.0490933145 C316.290733,0.0490933145 314.248451,-0.0252479903 314.345235,2.66927364 L314.387315,12.8750724" id="路径" stroke="#221715" stroke-width="0.231"></path>
                <path d="M376.877493,14.6157811 C376.673842,15.6562626 375.866254,16.4732472 374.828198,16.6889216 C373.696395,16.9207174 372.546198,16.3847026 371.995774,15.3689553 C371.445351,14.3532079 371.624322,13.0969302 372.436501,12.2753011 C373.248679,11.453672 374.502803,11.2601801 375.524849,11.7988164 C376.546896,12.3374527 377.096181,13.4813717 376.877493,14.6157811 L376.877493,14.6157811 Z M302.543202,24.9351958 C302.437205,25.4462473 302.036496,25.8447485 301.524866,25.9479207 C301.145779,26.0241754 300.752451,25.9269915 300.452501,25.6829596 C300.152551,25.4389278 299.977381,25.0735963 299.97492,24.6869239 C299.970284,24.3001011 300.13887,23.9314724 300.434516,23.681979 C300.730162,23.4324855 301.121886,23.3282715 301.502424,23.3978737 C302.214296,23.5350675 302.680228,24.2232916 302.543202,24.9351958 L302.543202,24.9351958 Z M304.917916,41.1191576 C304.737638,42.070558 304.000829,42.8190003 303.05237,43.0141595 C302.019559,43.228365 300.96823,42.7414688 300.463587,41.8152305 C299.958943,40.8889922 300.119872,39.7416205 300.859857,38.9899521 C301.599841,38.2382838 302.744551,38.0594012 303.678581,38.5494733 C304.612611,39.0395453 305.115916,40.0831179 304.917916,41.1191576 L304.917916,41.1191576 Z M287.64268,49.0610532 L282.573444,49.4299544 L285.42787,53.6379527 L287.64268,49.0610532 Z M387.042615,29.1894821 L387.408711,34.2629255 L391.615306,31.4084999 L387.042615,29.1908848 L387.042615,29.1894821 Z" id="形状" fill="#3458DD" fill-rule="nonzero"></path>
                <path d="M430.923622,40.5538831 C432.93785,42.3605171 434.947871,42.0000319 436.112084,40.5538831 C437.196345,39.2073236 437.023817,36.7568659 434.945066,36.2533088 C434.094925,36.0746711 433.214419,36.1016009 432.376784,36.3318581 C431.925705,36.6603808 431.512225,37.0376398 431.143841,37.4567963 C430.399025,38.319436 429.78606,39.5355475 430.918011,40.5538831" id="路径" fill="#EFD1D8" fill-rule="nonzero"></path>
                <path d="M429.448017,42.7462503 C424.420862,43.415322 422.075604,39.9381127 422.63667,35.8395222 C422.880734,34.0230696 423.308548,32.0775717 424.492398,30.6342282 C425.572451,29.3073061 427.057874,28.3899624 428.763516,28.3086078 C432.330496,28.1332745 435.395322,31.2261533 435.57346,35.2125305 C435.794952,38.93221 433.13474,42.2034128 429.448017,42.7448476 L429.448017,42.7462503 Z" id="路径" fill="#EFD1D8" fill-rule="nonzero"></path>
                <path d="M432.345925,38.7416385 C433.066704,37.8090061 434.332975,37.4922933 435.407946,37.9757828 C435.6997,38.109036 435.534185,38.5789292 435.242431,38.4470786 C434.381804,38.0367149 433.351838,38.2745782 432.758309,39.020769 C432.560533,39.2732489 432.148149,38.9941184 432.345925,38.7416385 Z" id="路径" fill="#000000" fill-rule="nonzero"></path>
                <polygon id="路径" fill="#EFD1D8" fill-rule="nonzero" points="426.136322 40.075574 426.025512 45.9387184 430.312059 46.0186703 430.42287 40.1569286"></polygon>
                <path d="M426.136322,35.3920717 C426.231255,35.5601071 426.419281,35.6530074 426.610424,35.626317 C426.802099,35.6003034 426.957212,35.4575108 426.998962,35.2686371 C427.031896,35.1291323 426.998547,34.9822366 426.908602,34.8706289 C426.818658,34.7590212 426.682205,34.6952163 426.538888,34.697752 C426.444954,34.6986241 426.353495,34.7279694 426.276589,34.781912 C426.226938,34.8121975 426.183983,34.8522887 426.150349,34.8997359 C426.048256,35.0459622 426.042745,35.2388522 426.136322,35.3906691 L426.136322,35.3920717 Z M423.636771,37.7359268 C423.601927,36.7528146 423.711088,35.7698927 423.960787,34.8183813 C424.032323,34.5420561 424.474163,34.5967601 424.402627,34.8730853 C424.157139,35.7823697 424.047945,36.7230503 424.078611,37.6643909 C424.078611,37.9449241 423.636771,37.9884068 423.626953,37.7233029" id="形状" fill="#010344" fill-rule="nonzero"></path>
                <path d="M423.921513,32.7185901 C425.542995,32.8939234 431.504326,31.4056946 431.704907,34.8169786 C431.756806,35.6866316 431.48048,36.7217992 432.352939,36.9027432 C432.848795,36.9584735 433.311993,36.6467051 433.447018,36.1663435 C434.177415,36.1364548 434.906793,36.2464329 435.595903,36.4903593 C436.96771,30.9778814 434.597205,28.8822982 433.066896,28.9580422 C433.066896,28.9580422 429.697692,22.5198047 426.966701,25.7136755 C426.966701,25.7136755 421.778239,21.669789 419.52696,27.0111416 C417.277083,32.3524942 423.921513,32.7199928 423.921513,32.7199928 L423.921513,32.7185901 Z" id="路径" fill="#000000" fill-rule="nonzero"></path>
                <path d="M424.931432,42.1234665 C426.72957,43.114439 428.861769,43.3028137 430.805798,42.642453" id="路径" stroke="#000000" stroke-width="0.231"></path>
                <path d="M414.140722,50.6081939 C414.074796,53.7782194 419.912693,56.4713383 427.177101,56.6200209 C434.441509,56.7701062 440.386008,54.3210511 440.45053,51.149623 C440.515053,47.9781949 434.678559,45.2864786 427.414151,45.1363933 C420.149743,44.9877107 414.205244,47.4367658 414.140722,50.6067912 L414.140722,50.6081939 Z" id="路径" fill="#EFD1D8" fill-rule="nonzero"></path>
                <path d="M426.820823,53.5678194 C425.80092,53.4477353 424.831036,53.0595882 424.009881,52.4428812 C421.931129,50.7316285 422.206052,47.3932831 422.74187,45.1910973 C422.74187,45.1910973 407.096532,47.020174 395.417934,62.8366372 C393.595871,65.3081349 391.801861,65.3207589 386.7719,65.1847003 C386.074775,65.165063 385.799853,68.635259 385.565607,70.9735034 C385.174263,74.710206 386.059346,87.2318065 386.269746,89.2025524 C386.269746,89.2025524 398.025491,92.2575593 404.554901,85.3410126 L406.671525,98.3745862 C410.143327,100.962475 414.121803,102.789209 418.347317,103.735576 C420.215669,104.160584 422.120489,104.418675 424.035129,104.507043 C428.785959,104.731469 433.764021,104.390621 438.437704,102.947278 C442.144951,101.805508 447.066906,100.851695 450.222905,98.5134502 L450.440318,86.1517536 C460.305269,86.2232896 468.494034,78.7372604 468.494034,78.7372604 C464.638105,47.1211659 433.793477,45.9008464 433.793477,45.9008464 C433.793477,45.9667717 433.793477,46.028489 433.820127,46.0902063 C434.144143,48.4256454 434.17921,50.9546524 431.815718,52.7907424 C430.446715,53.851158 428.452124,53.8245073 426.820823,53.5692221 L426.820823,53.5678194 Z" id="路径" fill="#3458DF" fill-rule="nonzero"></path>
                <line x1="402.420044" y1="74.2403128" x2="406.713605" y2="98.6929915" id="路径" stroke="#000000" stroke-width="0.231"></line>
                <path d="M448.357359,119.077938 C471.561665,100.356553 467.453256,78.7611058 467.453256,78.7611058 L447.427392,77.8227221 L451.023828,90.6977945 L444.602422,118.425699 L442.964108,122.642113 L439.604723,125.113611 C439.261069,125.366091 439.345229,126.329722 439.500925,126.638309 C440.259768,128.139161 441.94998,127.914735 443.2755,127.390138 C443.982444,127.096981 444.662737,126.744911 445.309366,126.336736 C445.815728,126.028149 446.95329,125.577893 447.086544,124.967733 L448.357359,119.080744" id="路径" fill="#EFD1D8" fill-rule="nonzero"></path>
                <path d="M468.503853,78.7372604 C468.503853,78.7372604 457.652828,89.7215389 448.134335,87.4941051 L437.649406,72.7506814 L456.783175,64.7498738 L466.427907,69.6339573 L468.503853,78.7372604 Z" id="路径" fill="#3458DF" fill-rule="nonzero"></path>
                <path d="M439.646803,68.4318724 C439.646803,68.4318724 448.079631,80.8749236 448.134335,87.5067291 C448.134335,87.5067291 456.011708,90.0048775 468.503853,78.7512871" id="路径" stroke="#000000" stroke-width="0.231"></path>
                <path d="M450.008297,52.9366197 C450.008297,52.9366197 458.804417,58.6637055 460.282827,62.9698905 M391.108944,87.7437797 C391.108944,87.7437797 397.520531,87.9163076 400.973895,84.9286287" id="形状" stroke="#FFFFFF" stroke-width="0.231"></path>
                <path d="M385.404301,74.1140729 C385.404301,74.1140729 393.262036,76.4972026 397.00435,73.8545797 M385.485655,79.9183053 C385.485655,79.9183053 393.343391,82.3014351 397.085704,79.6588121 M400.973895,165.08679 L387.015964,174.105933" id="形状" stroke="#000000" stroke-width="0.231"></path>
                <path d="M443.160481,122.405062 C443.160481,122.405062 439.106776,123.932566 439.268083,121.811735 C439.268083,121.811735 439.216184,120.071026 444.456545,120.190253" id="路径" fill="#EFD1D8" fill-rule="nonzero"></path>
                <path d="M443.160481,122.405062 C443.160481,122.405062 439.106776,123.932566 439.268083,121.811735 C439.268083,121.811735 439.216184,120.071026 444.456545,120.190253" id="路径" stroke="#000000" stroke-width="0.231"></path>
                <path d="M367.330948,38.2717453 C367.330948,38.2717453 363.007931,38.5242252 364.022058,40.3953818 C364.022058,40.3953818 364.671493,42.0168639 369.41531,39.7725981" id="路径" fill="#EFD1D8" fill-rule="nonzero"></path>
                <path d="M367.330948,38.2717453 C367.330948,38.2717453 363.007931,38.5242252 364.022058,40.3953818 C364.022058,40.3953818 364.671493,42.0168639 369.41531,39.7725981 M459.059702,85.5542178 C459.059702,85.5542178 458.016118,77.411741 454.076029,75.0763018 M464.040569,82.4809763 C464.040569,82.4809763 462.999791,74.3370968 459.059702,72.0016577 M367.489449,94.1946412 C367.489449,94.1946412 355.815059,94.6098304 353.820468,104.571565 M466.363384,101.342628 C466.363384,101.342628 464.997188,108.736081 459.059702,113.590708 M51.3537516,249.674571 L571.742885,249.674571" id="形状" stroke="#000000" stroke-width="0.231"></path>
                <path d="M307.953285,190.218359 L317.224908,190.693863 M307.00368,190.218359 L304.63598,190.090716" id="形状" stroke="#FEFEFE" stroke-width="0.231"></path>
                <polygon id="路径" fill="#EBF4FD" fill-rule="nonzero" points="329.595021 197.040927 329.595021 207.797974 321.574576 201.824019 329.595021 197.040927"></polygon>
                <g id="编组-18" transform="translate(74.163166, 34.127389)">
                    <path d="M176.650044,109.551244 C175.514207,109.551941 174.514574,108.801981 174.197539,107.711286 C173.880503,106.620591 174.322357,105.45163 175.281586,104.843348 C180.325388,101.628322 182.643065,95.4709474 180.971081,89.7280557 C179.296347,83.98567 174.03294,80.0374355 168.051325,80.0365709 C163.634563,80.0355659 159.498593,82.2023883 156.985035,85.834167 C154.471478,89.4659458 153.900489,94.1000948 155.457286,98.2333953 C156.483214,100.958866 158.365264,103.278175 160.821063,104.843348 C161.784679,105.449861 162.230028,106.621283 161.912717,107.714776 C161.596138,108.808064 160.595253,109.560654 159.457052,109.561249 L127.700153,109.561249 L127.700153,109.587929 L127.700153,28.851124 L159.493737,28.851124 C160.579894,28.7241639 161.398641,27.8036115 161.398017,26.7100596 C161.402637,25.9707469 161.02295,25.2820897 160.395296,24.8913777 C156.177577,22.2914638 153.731491,17.5826386 154.029505,12.6369444 C154.327519,7.6912502 157.321334,3.31021806 161.820728,1.23557274 C166.320122,-0.839072566 171.595895,-0.271100654 175.550608,2.71368536 C180.350262,6.34229413 182.154262,12.7182733 179.967249,18.3236681 C178.902859,21.0514169 176.977469,23.357358 174.483411,24.8913777 C173.713612,25.3801288 173.33439,26.3002068 173.536238,27.1894345 C173.738086,28.0786622 174.477377,28.7448467 175.382747,28.8533474 L208.410278,28.8533474 L208.410278,109.551244 L176.650044,109.551244 L176.650044,109.551244 Z" id="路径" fill="#F4F7FC" fill-rule="nonzero"></path>
                    <path d="M46.9911395,77.7865634 C46.9069417,77.0741876 46.4742248,76.4502306 45.8365466,76.1216959 C45.1988683,75.7931612 44.4396126,75.8030086 43.8106694,76.147971 C43.4926987,76.3237082 43.2245608,76.5773108 43.0313931,76.8850041 C41.497996,79.3796002 39.1918512,81.3051608 36.4636835,82.3688415 C30.8589035,84.5495667 24.4876064,82.7444731 20.859597,77.9479464 C17.2315875,73.1514198 17.2287261,66.529352 20.8525891,61.7296919 C23.5327046,58.1884807 27.7882286,56.1986827 32.2241553,56.4125748 C36.660082,56.6264669 40.7044203,59.0164688 43.0313931,62.7991124 C43.4231761,63.4256355 44.1111465,63.8049444 44.850075,63.8018332 C45.9430548,63.8009533 46.8627527,62.9829666 46.9911395,61.8975531 L46.9911395,28.8589057 L127.716828,28.8589057 L127.716828,60.6558247 C127.801391,61.3682569 128.23435,61.9921373 128.872163,62.3206266 C129.509976,62.6491158 130.269307,62.6392939 130.89841,62.2944171 C131.216345,62.1198859 131.484256,61.8653149 131.676574,61.557384 C134.003934,57.775018 138.048486,55.3854548 142.484401,55.172008 C146.920316,54.9585611 151.175612,56.9487531 153.855378,60.4901868 C157.485536,65.2885656 157.485891,71.9145535 153.856249,76.713322 C150.226607,81.5120906 143.850692,83.3152619 138.245395,81.1282248 C135.517399,80.0643311 133.211063,78.1393275 131.676574,75.645499 C131.315659,75.0749605 130.708513,74.7062293 130.035829,74.6490446 C129.363145,74.59186 128.702469,74.8528138 128.250426,75.3542431 C127.952287,75.6859274 127.76431,76.1018847 127.712381,76.544835 L127.712381,109.569031 L46.9911395,109.569031 L46.9911395,77.7865634 L46.9911395,77.7865634 Z" id="路径" fill="#CCDBF7" fill-rule="nonzero"></path>
                    <path d="M201.32898,167.650128 L206.005749,134.274647 L174.565674,129.856895 C173.893617,129.765002 173.286312,129.407905 172.87928,128.865291 C172.471501,128.323683 172.295194,127.642445 172.389037,126.971016 C172.513548,126.103155 173.071686,125.358552 173.869773,124.995589 C177.88356,123.161758 180.741635,119.474688 181.516854,115.130444 C182.292073,110.7862 180.885689,106.338148 177.753926,103.229212 C174.624514,100.117674 170.167266,98.7401907 165.827973,99.5435745 C161.488679,100.346958 157.820025,103.228885 156.012006,107.254547 C153.563811,112.705763 155.005125,119.118548 159.550432,122.997929 C160.213627,123.565878 160.543118,124.431682 160.425311,125.29685 C160.228441,126.693124 158.938324,127.666432 157.541655,127.472376 L126.08824,123.054624 L121.699392,154.310163 C121.620578,154.877277 121.319371,155.389732 120.862222,155.73447 C120.405073,156.079209 119.82955,156.227901 119.262625,156.147743 C118.530241,156.0483 117.901264,155.577409 117.599576,154.90268 C115.820287,150.832948 112.145779,147.90465 107.781597,147.078514 C103.417416,146.252377 98.9268474,147.63503 95.7831742,150.772849 C91.5222517,155.021705 90.6040824,161.584663 93.5353901,166.839725 C95.699109,170.7181 99.6379897,173.278244 104.060809,173.680905 C108.483629,174.083565 112.820079,172.276821 115.648606,168.852948 C116.124609,168.286421 116.859284,168.005665 117.591794,168.110357 C118.771549,168.276791 119.593742,169.367079 119.429374,170.547124 L114.873776,203.003259 L194.804625,214.199937 L199.650367,179.612742 L201.32898,167.650128 L201.32898,167.650128 Z" id="路径" fill="#58BFCA" fill-rule="nonzero"></path>
                    <path d="M49.4846033,163.550312 C49.4857318,164.338916 49.0106731,165.050187 48.2817811,165.351207 C47.7424528,165.573126 47.1321731,165.54243 46.6178346,165.267514 C46.1034962,164.992598 45.7389151,164.502226 45.623793,163.930501 C45.5112067,163.358286 45.6603558,162.765703 46.0304123,162.314965 C46.4004689,161.864228 46.9526694,161.602551 47.5358547,161.601565 C48.6116098,161.602791 49.4833761,162.474557 49.4846033,163.550312 L49.4846033,163.550312 Z M61.7695985,163.550312 C61.7689247,164.338369 61.2944738,165.04873 60.5667775,165.351207 C60.0275962,165.573143 59.4174346,165.542437 58.9032583,165.267492 C58.3890821,164.992548 58.0247289,164.502153 57.9099011,163.930501 C57.7643914,163.202481 58.0451857,162.455028 58.6340441,162.002887 C59.2229026,161.550746 60.017513,161.472475 60.6832721,161.801033 C61.3490313,162.129591 61.7702658,162.807893 61.7695985,163.550312 L61.7695985,163.550312 Z M74.0545961,163.550312 C74.0557245,164.338916 73.5806658,165.050187 72.8517739,165.351207 C72.3124456,165.573126 71.7021658,165.54243 71.1878274,165.267514 C70.6734889,164.992598 70.3089078,164.502226 70.1937858,163.930501 C70.0811995,163.358286 70.2303486,162.765703 70.6004051,162.314965 C70.9704616,161.864228 71.5226622,161.602551 72.1058475,161.601565 C73.1821105,161.601565 74.0545961,162.474049 74.0545961,163.550312 L74.0545961,163.550312 Z M86.3373691,163.550312 C86.3384976,164.338916 85.8634389,165.050187 85.1345469,165.351207 C84.5952186,165.573126 83.9849389,165.54243 83.4706005,165.267514 C82.956262,164.992598 82.5916809,164.502226 82.4765588,163.930501 C82.4021512,163.552361 82.4408168,163.160678 82.5877252,162.804386 C82.8380248,162.204321 83.3706553,161.76826 84.0083244,161.64135 C84.6459936,161.514441 85.3049948,161.713343 85.765972,162.171849 C86.1317093,162.537586 86.3373691,163.033388 86.3373691,163.550312 L86.3373691,163.550312 Z M49.4846042,175.518484 C49.4856383,176.30731 49.01076,177.018865 48.2819153,177.320582 C47.5530706,177.622299 46.7142065,177.454589 46.1573916,176.895836 C45.6007964,176.338285 45.4341546,175.500691 45.7349594,174.772558 C46.0374367,174.044862 46.7477977,173.570411 47.5358547,173.569735 C48.0529659,173.56885 48.5491529,173.773879 48.9148063,174.139533 C49.2804597,174.505186 49.4854885,175.001373 49.4846042,175.518484 L49.4846042,175.518484 Z M61.7695977,175.518484 C61.793024,176.230016 61.4265814,176.897698 60.8137781,177.260049 C60.2009749,177.6224 59.4393457,177.621748 58.8271638,177.258348 C58.214982,176.894948 57.8496832,176.22664 57.8743278,175.515149 C57.9106985,174.465126 58.7729218,173.632964 59.8235749,173.633863 C60.8742279,173.634763 61.735025,174.4684 61.7695977,175.518484 L61.7695977,175.518484 Z M74.0545958,175.518484 C74.055631,176.30731 73.5807527,177.018865 72.8519081,177.320582 C72.1230634,177.622299 71.2841992,177.454589 70.7273844,176.895836 C70.1707891,176.338285 70.0041474,175.500691 70.3049522,174.772558 C70.5552518,174.172493 71.0878822,173.736432 71.7255514,173.609522 C72.3632206,173.482613 73.0222217,173.681515 73.4831989,174.140021 C73.8489363,174.505759 74.0545958,175.001561 74.0545958,175.518484 L74.0545958,175.518484 Z M86.3373688,175.518484 C86.3384041,176.30731 85.8635258,177.018865 85.1346811,177.320582 C84.4058364,177.622299 83.5669723,177.454589 83.0101575,176.895836 C82.4535622,176.338285 82.2869204,175.500691 82.5877252,174.772558 C82.8380248,174.172493 83.3706553,173.736432 84.0083244,173.609522 C84.6459936,173.482613 85.3049948,173.681515 85.765972,174.140021 C86.1317093,174.505759 86.3373688,175.001561 86.3373688,175.518484 L86.3373688,175.518484 Z M98.621264,175.518484 C98.6240279,176.307882 98.1495025,177.020698 97.4201614,177.322721 C96.6908204,177.624744 95.8512748,177.456091 95.2951538,176.895836 C94.8833265,176.482986 94.6777641,175.907564 94.7347868,175.327224 C94.7918095,174.746884 95.1054381,174.222476 95.5897447,173.897678 C96.1876917,173.498092 96.9571121,173.460313 97.5913284,173.799399 C98.2255446,174.138485 98.6214532,174.799311 98.621264,175.518484 Z M49.4846033,187.483322 C49.4857318,188.271925 49.0106731,188.983196 48.2817811,189.284217 C47.7424292,189.505711 47.1323491,189.474814 46.6181339,189.199964 C46.1039187,188.925113 45.7392816,188.435019 45.623793,187.863511 C45.4716771,187.090647 45.7986893,186.302047 46.4530942,185.863627 C47.2256577,185.346057 48.2564829,185.447602 48.9132061,186.10597 C49.2789435,186.470596 49.4846033,186.966398 49.4846033,187.483322 L49.4846033,187.483322 Z M61.7695983,187.483322 C61.7689247,188.271379 61.2944738,188.98174 60.5667775,189.284217 C59.6431952,189.655059 58.5885225,189.271254 58.119295,188.393556 C57.6500675,187.515858 57.9167198,186.425658 58.7380906,185.863627 C59.3357243,185.463326 60.1053382,185.425015 60.7397723,185.763985 C61.3742064,186.102955 61.7701574,186.764012 61.7695983,187.483322 L61.7695983,187.483322 Z M74.0545961,187.483322 C74.0557245,188.271925 73.5806658,188.983196 72.8517739,189.284217 C72.312422,189.505711 71.7023419,189.474814 71.1881267,189.199964 C70.6739115,188.925113 70.3092743,188.435019 70.1937858,187.863511 C70.0416699,187.090647 70.368682,186.302047 71.023087,185.863627 C71.7956505,185.346057 72.8264756,185.447602 73.4831989,186.10597 C73.8489363,186.470596 74.0545961,186.966398 74.0545961,187.483322 L74.0545961,187.483322 Z M86.337381,187.483322 C86.3384976,188.271925 85.8634389,188.983196 85.1345469,189.284217 C84.595195,189.505711 83.985115,189.474814 83.4708998,189.199964 C82.9566846,188.925113 82.5920474,188.435019 82.4765588,187.863511 C82.3286645,187.134187 82.6087936,186.384278 83.1986244,185.930533 C83.7884552,185.476787 84.5851239,185.398336 85.2521313,185.728316 C85.9191386,186.058295 86.3401615,186.739159 86.337381,187.483322 L86.337381,187.483322 Z M98.6212566,187.483322 C98.6229874,188.272108 98.1477243,188.983685 97.4184316,189.284217 C96.4948493,189.655059 95.4401767,189.271254 94.9709492,188.393556 C94.5017217,187.515858 94.7683739,186.425658 95.5897447,185.863627 C96.1876721,185.464975 96.9564107,185.42753 97.5902521,185.766183 C98.2240935,186.104836 98.6202776,186.764684 98.6212566,187.483322 L98.6212566,187.483322 Z M110.906248,187.483322 C110.905575,188.271379 110.431124,188.98174 109.703428,189.284217 C108.779846,189.655059 107.725173,189.271254 107.255946,188.393556 C106.786718,187.515858 107.05337,186.425658 107.874741,185.863627 C108.647539,185.345438 109.679074,185.447008 110.335965,186.10597 C110.70059,186.470596 110.906248,186.966398 110.906248,187.483322 L110.906248,187.483322 Z M49.4846033,199.451494 C49.4857318,200.240097 49.0106731,200.951368 48.2817811,201.252389 C47.7424528,201.474308 47.1321731,201.443612 46.6178346,201.168696 C46.1034962,200.89378 45.7389151,200.403408 45.623793,199.831683 C45.5112067,199.259467 45.6603558,198.666884 46.0304123,198.216147 C46.4004689,197.765409 46.9526694,197.503732 47.5358547,197.502747 C48.6116098,197.503972 49.4833761,198.375739 49.4846033,199.451494 Z M61.7695985,199.451494 C61.7689247,200.239551 61.2944738,200.949912 60.5667775,201.252389 C60.0275962,201.474324 59.4174346,201.443618 58.9032583,201.168674 C58.3890821,200.893729 58.0247289,200.403335 57.9099011,199.831683 C57.7643914,199.103663 58.0451857,198.35621 58.6340441,197.904068 C59.2229026,197.451927 60.017513,197.373656 60.6832721,197.702215 C61.3490313,198.030773 61.7702658,198.709075 61.7695985,199.451494 L61.7695985,199.451494 Z M74.0545961,199.451494 C74.0557245,200.240097 73.5806658,200.951368 72.8517739,201.252389 C72.3124456,201.474308 71.7021658,201.443612 71.1878274,201.168696 C70.6734889,200.89378 70.3089078,200.403408 70.1937858,199.831683 C70.0811995,199.259467 70.2303486,198.666884 70.6004051,198.216147 C70.9704616,197.765409 71.5226622,197.503732 72.1058475,197.502747 C73.1821105,197.502747 74.0545961,198.375231 74.0545961,199.451494 L74.0545961,199.451494 Z M86.3373691,199.451494 C86.3384976,200.240097 85.8634389,200.951368 85.1345469,201.252389 C84.5952186,201.474308 83.9849389,201.443612 83.4706005,201.168696 C82.956262,200.89378 82.5916809,200.403408 82.4765588,199.831683 C82.4021512,199.453543 82.4408168,199.06186 82.5877252,198.705567 C82.8380248,198.105502 83.3706553,197.669441 84.0083244,197.542532 C84.6459936,197.415622 85.3049948,197.614524 85.765972,198.073031 C86.1317093,198.438768 86.3373691,198.93457 86.3373691,199.451494 L86.3373691,199.451494 Z M98.6212566,199.451494 C98.6229874,200.24028 98.1477243,200.951857 97.4184316,201.252389 C96.8792504,201.474324 96.2690888,201.443618 95.7549125,201.168674 C95.2407362,200.893729 94.8763831,200.403335 94.7615552,199.831683 C94.6160455,199.103663 94.8968399,198.35621 95.4856983,197.904068 C96.0745567,197.451927 96.8691672,197.373656 97.5349263,197.702215 C98.2006855,198.030773 98.62192,198.709075 98.6212566,199.451494 L98.6212566,199.451494 Z M110.906249,199.451494 C110.905575,200.239551 110.431124,200.949912 109.703428,201.252389 C109.164247,201.474324 108.554085,201.443618 108.039909,201.168674 C107.525733,200.893729 107.161379,200.403335 107.046552,199.831683 C106.901042,199.103663 107.181836,198.35621 107.770695,197.904068 C108.359553,197.451927 109.154164,197.373656 109.819923,197.702215 C110.485682,198.030773 110.906916,198.709075 110.906249,199.451494 L110.906249,199.451494 Z M49.4846033,211.419666 C49.4857318,212.20827 49.0106731,212.91954 48.2817811,213.220561 C47.7424528,213.44248 47.1321731,213.411784 46.6178346,213.136868 C46.1034962,212.861952 45.7389151,212.37158 45.623793,211.799855 C45.4711941,211.026629 45.798264,210.237452 46.4530942,209.79886 C47.226331,209.283978 48.2552979,209.385341 48.9132061,210.041203 C49.2789435,210.40694 49.4846033,210.902742 49.4846033,211.419666 L49.4846033,211.419666 Z M61.7695977,211.419666 C61.7689247,212.207723 61.2944738,212.918084 60.5667775,213.220561 C60.0275962,213.442496 59.4174346,213.411791 58.9032583,213.136846 C58.3890821,212.861902 58.0247289,212.371507 57.9099011,211.799855 C57.7545723,211.026618 58.0817378,210.236151 58.7380906,209.79886 C59.5118964,209.284699 60.5406495,209.385995 61.1993142,210.041203 C61.5650516,210.40694 61.7695977,210.902742 61.7695977,211.419666 L61.7695977,211.419666 Z M74.0545961,211.419666 C74.0557245,212.20827 73.5806658,212.91954 72.8517739,213.220561 C72.3124456,213.44248 71.7021658,213.411784 71.1878274,213.136868 C70.6734889,212.861952 70.3089078,212.37158 70.1937858,211.799855 C70.0411869,211.026629 70.3682568,210.237452 71.023087,209.79886 C71.7963237,209.283978 72.8252907,209.385341 73.4831989,210.041203 C73.8489363,210.40694 74.0545961,210.902742 74.0545961,211.419666 L74.0545961,211.419666 Z M86.3373691,211.419666 C86.3384976,212.20827 85.8634389,212.91954 85.1345469,213.220561 C84.5952186,213.44248 83.9849389,213.411784 83.4706005,213.136868 C82.956262,212.861952 82.5916809,212.37158 82.4765588,211.799855 C82.4022176,211.421712 82.4408813,211.030048 82.5877252,210.67374 C82.8380248,210.073674 83.3706553,209.637613 84.0083244,209.510704 C84.6459936,209.383795 85.3049948,209.582697 85.765972,210.041203 C86.1317093,210.40694 86.3373691,210.902742 86.3373691,211.419666 L86.3373691,211.419666 Z M98.6212566,211.419666 C98.6229874,212.208452 98.1477243,212.920029 97.4184316,213.220561 C96.8792504,213.442496 96.2690888,213.411791 95.7549125,213.136846 C95.2407362,212.861902 94.8763831,212.371507 94.7615552,211.799855 C94.6062264,211.026618 94.9333919,210.236151 95.5897447,209.79886 C96.3633287,209.283809 97.3926948,209.385165 98.0509683,210.041203 C98.4167057,210.40694 98.6212566,210.902742 98.6212566,211.419666 L98.6212566,211.419666 Z M110.906248,211.419666 C110.905575,212.207723 110.431124,212.918084 109.703428,213.220561 C109.164247,213.442496 108.554085,213.411791 108.039909,213.136846 C107.525733,212.861902 107.161379,212.371507 107.046552,211.799855 C106.891223,211.026618 107.218388,210.236151 107.874741,209.79886 C108.648214,209.283363 109.677887,209.384749 110.335965,210.041203 C110.70059,210.40694 110.906248,210.902742 110.906248,211.419666 L110.906248,211.419666 Z M12.3739295,196.97026 C12.2694832,197.223758 12.182569,197.484129 12.1138002,197.749536 C11.6435664,199.488179 11.0743945,203.858129 15.3131685,208.295891 L2.76248448,202.319586 L7.18023633,192.498037 L12.9453247,194.761384 L12.2549815,197.234836" id="形状" fill="#FFFFFF" fill-rule="nonzero"></path>
                    <path d="M2.75803783,202.338485 L1.73641882,204.292789 L18.449172,211.780957 C18.449172,211.780957 19.9121215,210.180161 17.9455883,208.995127 L2.75803783,202.338485 Z" id="路径" fill="#060000" fill-rule="nonzero"></path>
                    <path d="M11.790306,199.789439 C11.790306,199.789439 11.5535216,203.476828 13.4266751,205.89025" id="路径" stroke="#060000" stroke-width="0.234"></path>
                    <polygon id="路径" fill="#060000" fill-rule="nonzero" points="2.12327781 203.493503 1.33399653 205.19546 6.69999758 207.686699 7.49039052 205.984742"></polygon>
                    <path d="M71.6322787,201.530305 C71.5867461,201.804594 71.5600039,202.081672 71.5522389,202.359606 C71.4822041,204.157166 71.905748,208.543792 77.027183,211.921026 L63.4604383,208.915087 L65.5759345,198.349835 L71.7023135,199.266958 L71.5833655,201.833789" id="路径" fill="#FFFFFF" fill-rule="nonzero"></path>
                    <path d="M63.4604383,208.915087 L62.9046064,211.04837 L80.8668697,214.607918 C80.8668697,214.607918 81.9351786,212.721424 79.7518709,212.009959 L63.4604383,208.915087 L63.4604383,208.915087 Z" id="路径" fill="#060000" fill-rule="nonzero"></path>
                    <path d="M71.7023135,204.406179 C71.7023135,204.406179 72.2970536,208.044655 74.6615625,209.987843" id="路径" stroke="#060000" stroke-width="0.234"></path>
                    <polygon id="路径" fill="#060000" fill-rule="nonzero" points="63.0813609 210.145699 62.6922786 211.981056 68.4807119 213.208333 68.8697942 211.372976"></polygon>
                    <polygon id="路径" fill="#1AB7B7" fill-rule="nonzero" points="35.0285256 115.337454 0 194.605751 19.4730144 201.458047 51.0453772 132.790575 35.0285256 115.337454"></polygon>
                    <path d="M117.815239,135.306271 C118.283249,135.087273 123.371334,135.589745 123.371334,135.589745 C125.378999,136.6625 127.481155,137.641876 129.412115,138.848031 C129.837882,139.107049 129.864562,139.479456 129.778964,139.944132 C129.686834,140.487266 129.484018,141.005658 129.183112,141.467111 C128.320461,142.664373 126.761909,142.380899 125.571317,141.892878 L121.154677,140.074196 L115.957648,139.839635 L117.815239,135.306271 L117.815239,135.306271 Z" id="路径" fill="#EFD1D8" fill-rule="nonzero"></path>
                    <path d="M49.1722238,103.029113 C44.7544719,104.416469 40.4412165,107.093356 37.5864639,110.772963 C28.6186722,122.327596 37.1495801,135.350737 45.7138378,143.618181 C50.0949047,147.845838 54.5304432,152.029029 59.1416245,156.004338 C61.8518608,158.343279 65.4347532,161.952851 69.1721668,163.701498 C67.2467651,165.075515 59.2405626,204.67409 59.2405626,204.67409 L77.3039873,206.492772 L87.1055268,170.729437 C87.1055268,170.729437 92.7227639,152.231352 70.7129328,135.374082" id="路径" fill="#58C1CC" fill-rule="nonzero"></path>
                    <path d="M89.5856487,69.2323107 C88.7199841,69.4145444 87.8693548,69.6620407 87.0410503,69.9726788 C86.4084874,70.1912717 85.8042838,70.4846034 85.2412667,70.8464465 C84.2819008,71.4912115 84.0562331,72.6151036 83.0735223,73.2309653 C82.1875263,73.7867972 81.0836441,73.98245 80.1476232,74.4649121 C79.7618759,74.6538949 79.4039202,74.8973493 79.0882077,75.1874935 C78.7658252,75.5020944 78.567949,75.8889534 78.2511248,76.2091126 C77.992491,76.4625874 77.7181049,76.6994729 77.4296053,76.918354 C76.9782698,77.2696398 76.2190034,77.8955065 75.5331069,77.7754468 L94.709307,88.1350415 L89.5856487,69.2323107 L89.5856487,69.2323107 Z" id="路径" fill="#000000" fill-rule="nonzero"></path>
                    <path d="M88.3894985,80.5723929 C85.6825972,81.163798 84.0717964,79.8286898 83.7571955,77.9477547 C83.4714979,76.2013309 84.8644126,74.0991747 86.9710155,74.7050315 C87.8191607,74.9746679 88.5905884,75.4430892 89.221023,76.0712662 C89.4533607,76.5926366 89.6278919,77.1384635 89.7412816,77.6976303 C89.9691727,78.8437557 89.8991379,80.2366704 88.3772702,80.5723929" id="路径" fill="#EFD1D8" fill-rule="nonzero"></path>
                    <path d="M88.5973796,83.2737358 C92.7416621,86.4097394 96.5902421,84.4954543 98.1721397,80.5634996 C98.8735995,78.8204108 99.4716746,76.8661058 99.1492921,74.9851707 C98.8558129,73.2576452 97.9953851,71.687976 96.5168723,70.7519551 C93.4175537,68.7887569 89.1276432,70.0038054 86.9421122,73.4621914 C86.9421122,73.4621914 86.9421122,73.4844246 86.9209906,73.4955413 C84.8719491,76.6990133 85.5982971,80.9357221 88.5973796,83.2737358 L88.5973796,83.2737358 Z" id="路径" fill="#EFD1D8" fill-rule="nonzero"></path>
                    <path d="M88.0359894,78.2356756 C87.8689198,77.0395122 86.8998702,76.1160595 85.6970488,76.0067897 C85.372443,75.9801098 85.2812865,76.4825818 85.6092274,76.5103734 C86.5860931,76.5741913 87.3865744,77.3098937 87.5324057,78.2779188 C87.5813189,78.6025247 88.0904609,78.5636164 88.0515527,78.2356756" id="路径" fill="#000000" fill-rule="nonzero"></path>
                    <polygon id="路径" fill="#EFD1D8" fill-rule="nonzero" points="88.9897969 80.4478865 86.1283743 85.7305128 89.9936293 87.8248873 92.8550518 82.5422611"></polygon>
                    <path d="M95.2662506,78.3890852 C95.0963413,78.4942168 94.8788487,78.4819922 94.7217906,78.3584829 C94.5647324,78.2349736 94.5015725,78.0264951 94.5636791,77.8365883 C94.6223468,77.6462449 94.7938462,77.5129553 94.9927813,77.5030892 C95.1917004,77.4900458 95.3773158,77.6035516 95.4563451,77.7865634 C95.4843424,77.839055 95.502075,77.8964032 95.5085933,77.9555363 C95.5251309,78.1373675 95.4320918,78.311652 95.2718089,78.3990902 M96.3245545,81.7485331 C96.8504171,80.8941651 97.2478241,79.9671318 97.5040298,78.9971653 C97.5796229,78.713691 97.1616373,78.5402715 97.0860442,78.8226341 C96.839503,79.7568418 96.4570856,80.6497732 95.9510355,81.4728405 C95.8020725,81.7151832 96.1744799,81.9930992 96.3245545,81.7485331 Z M89.221023,74.0313632 L99.860757,78.4491151 C99.7829405,78.3913085 100.256509,76.951704 100.289859,76.8249743 C101.014664,74.1903311 99.9285685,71.0154194 97.6140845,69.6302863 C94.7548852,67.9149891 90.4571931,67.1957427 87.9192647,69.5991597 C87.6357904,69.8581774 84.2529976,73.7567823 84.5231319,73.8935169 L88.5351264,75.7466604 L89.221023,74.0313632 L89.221023,74.0313632 Z" id="形状" fill="#000000" fill-rule="nonzero"></path>
                    <path d="M101.019113,67.8060461 C101.020694,69.2240683 100.166397,70.5028802 98.8558129,71.0443227 C97.4290431,71.6358932 95.7832145,71.2241342 94.8030983,70.0304006 C93.822982,68.8366669 93.7394663,67.1421693 94.5974478,65.8578424 C95.4554293,64.5735155 97.0527914,64.0019111 98.5308178,64.4503147 C100.008844,64.8987183 101.019353,66.2614983 101.019113,67.8060461 L101.019113,67.8060461 Z" id="路径" fill="#000000" fill-rule="nonzero"></path>
                    <path d="M33.7701222,118.191095 C33.7701222,118.191095 32.2882744,131.232023 45.7216194,143.618181" id="路径" stroke="#000000" stroke-width="0.234"></path>
                    <path d="M51.0453772,119.975315 C52.4972101,130.888519 59.3595106,139.98304 67.2845617,147.214413 C70.4450218,150.101404 74.1757654,152.341406 76.1189537,156.280031 C80.5544922,165.223366 75.6676182,177.436104 73.6921917,186.659579 L69.7346686,205.136542" id="路径" stroke="#FFFFFF" stroke-width="0.234"></path>
                    <path d="M108.811874,126.450757 L98.5734503,125.458041 C101.330376,118.183313 101.619409,113.485422 101.330376,106.908819 C100.748976,93.6177673 92.0957855,84.6899955 79.8419157,83.1647928 C67.8904184,81.6784983 53.6744621,88.860958 44.9590181,96.1334624 C41.7707664,98.7914505 27.8827508,110.34386 27.6081699,110.164883 L69.7324453,135.191769 C71.8812914,142.726626 72.8295406,148.92971 83.4848379,148.92971 L106.408457,151.150814 C113.190782,151.785478 119.21369,146.826634 119.892938,140.048628 L119.892938,139.938573 C120.532693,133.154045 115.571733,127.127077 108.790752,126.450757" id="路径" fill="#3458DF" fill-rule="nonzero"></path>
                    <path d="M98.564557,125.458041 L94.9916696,105.830506 M114.391314,133.567628 C114.391314,133.567628 118.727915,143.961685 110.932928,147.396726 M78.2477898,86.1218184 C78.2477898,86.1218184 69.4133978,84.2797916 63.4604383,89.1233106" id="形状" stroke="#FFFFFF" stroke-width="0.234"></path>
                    <g id="编组" opacity="0.32" transform="translate(27.724895, 78.365740)" fill="#FFFFFF" fill-rule="nonzero">
                        <path d="M11.5468516,-1.90680804e-13 L9.88602596,-1.90680804e-13 L9.88602596,0.415762252 L11.5468516,0.415762252 L11.5468516,-1.90680804e-13 Z M107.272219,0.415762252 L103.848295,0.415762252 L103.848295,-1.90680804e-13 L107.267773,-1.90680804e-13 L107.272219,0.415762252 L107.272219,0.415762252 Z M100.433264,0.415762252 L97.017121,0.415762252 L97.017121,-1.90680804e-13 L100.433264,-1.90680804e-13 L100.433264,0.415762252 Z M93.5976433,0.415762252 L90.1781655,0.415762252 L90.1781655,-1.90680804e-13 L93.5976433,-1.90680804e-13 L93.5976433,0.415762252 Z M86.7586877,0.415762252 L83.3414333,0.415762252 L83.3414333,-1.90680804e-13 L86.7586877,-1.90680804e-13 L86.7586877,0.415762252 Z M79.9219555,0.415762252 L76.5024777,0.415762252 L76.5024777,-1.90680804e-13 L79.9219555,-1.90680804e-13 L79.9219555,0.415762252 Z M73.0829999,0.415762252 L69.6646338,0.415762252 L69.6646338,-1.90680804e-13 L73.0829999,-1.90680804e-13 L73.0829999,0.415762252 Z M66.2451561,0.415762252 L62.8279016,0.415762252 L62.8279016,-1.90680804e-13 L66.2451561,-1.90680804e-13 L66.2451561,0.415762252 Z M59.4084238,0.415762252 L55.9889461,0.415762252 L55.9889461,-1.90680804e-13 L59.4162055,-1.90680804e-13 L59.4084238,0.415762252 Z M52.5694683,0.415762252 L49.1522138,0.415762252 L49.1522138,-1.90680804e-13 L52.5694683,-1.90680804e-13 L52.5694683,0.415762252 Z M45.7327361,0.415762252 L42.31437,0.415762252 L42.31437,-1.90680804e-13 L45.7327361,-1.90680804e-13 L45.7327361,0.415762252 Z M38.8948922,0.415762252 L35.4776377,0.415762252 L35.4776377,-1.90680804e-13 L38.8893339,-1.90680804e-13 L38.8948922,0.415762252 L38.8948922,0.415762252 Z M32.05816,0.415762252 L28.6386822,0.415762252 L28.6386822,-1.90680804e-13 L32.05816,-1.90680804e-13 L32.05816,0.415762252 Z M25.2192044,0.415762252 L21.7997266,0.415762252 L21.7997266,-1.90680804e-13 L25.2192044,-1.90680804e-13 L25.2192044,0.415762252 Z M18.3824722,0.415762252 L14.9629944,0.415762252 L14.9629944,-1.90680804e-13 L18.3824722,-1.90680804e-13 L18.3824722,0.415762252 Z M112.349188,-1.90680804e-13 L110.691697,-1.90680804e-13 L110.691697,0.415762252 L112.349188,0.415762252 L112.349188,-1.90680804e-13 Z M1.65749069,9.15455119 L0,9.15455119 L0,9.57031344 L1.65749069,9.57031344 L1.65749069,9.15455119 Z M107.386721,9.56697845 L104.085079,9.56697845 L104.085079,9.15455119 L107.386721,9.15455119 L107.386721,9.56697845 Z M100.778991,9.56697845 L97.4740148,9.56697845 L97.4740148,9.15455119 L100.778991,9.15455119 L100.778991,9.56697845 Z M94.1723734,9.56697845 L90.8562804,9.56697845 L90.8562804,9.15455119 L94.1612568,9.15455119 L94.1723734,9.56697845 Z M87.5646439,9.56697845 L84.2596675,9.56697845 L84.2596675,9.15455119 L87.5646439,9.15455119 L87.5646439,9.56697845 Z M80.9535795,9.56697845 L77.6519381,9.56697845 L77.6519381,9.15455119 L80.9535795,9.15455119 L80.9535795,9.56697845 Z M74.3469616,9.56697845 L71.0442086,9.56697845 L71.0442086,9.15455119 L74.3469616,9.15455119 L74.3469616,9.56697845 Z M67.7392322,9.56697845 L64.4342558,9.56697845 L64.4342558,9.15455119 L67.7314505,9.15455119 L67.7392322,9.56697845 Z M61.1315027,9.56697845 L57.8265263,9.56697845 L57.8265263,9.15455119 L61.1315027,9.15455119 L61.1315027,9.56697845 Z M54.5237732,9.56697845 L51.2187968,9.56697845 L51.2187968,9.15455119 L54.5237732,9.15455119 L54.5237732,9.56697845 Z M47.9160437,9.56697845 L44.605509,9.56697845 L44.605509,9.15455119 L47.9104854,9.15455119 L47.9160437,9.56697845 Z M41.3060909,9.56697845 L38.0033378,9.56697845 L38.0033378,9.15455119 L41.3060909,9.15455119 L41.3060909,9.56697845 Z M34.6983614,9.56697845 L31.3956084,9.56697845 L31.3956084,9.15455119 L34.6983614,9.15455119 L34.6983614,9.56697845 Z M28.0906319,9.56697845 L24.7878789,9.56697845 L24.7878789,9.15455119 L28.0906319,9.15455119 L28.0906319,9.56697845 Z M21.4829025,9.56697845 L18.1779261,9.56697845 L18.1779261,9.15455119 L21.4806791,9.15455119 L21.4829025,9.56697845 Z M14.875173,9.56697845 L11.5701966,9.56697845 L11.5701966,9.15455119 L14.875173,9.15455119 L14.875173,9.56697845 Z M8.2674435,9.56697845 L4.96246709,9.56697845 L4.96246709,9.15455119 L8.2674435,9.15455119 L8.2674435,9.56697845 Z M112.349188,9.15455119 L110.691697,9.15455119 L110.691697,9.57031344 L112.349188,9.57031344 L112.349188,9.15455119 Z M1.65749069,18.8482593 L0,18.8482593 L0,19.2640216 L1.65749069,19.2640216 L1.65749069,18.8482593 Z M107.386721,19.2617982 L104.085079,19.2617982 L104.085079,18.8482593 L107.386721,18.8482593 L107.386721,19.2617982 Z M100.778991,19.2617982 L97.4740148,19.2617982 L97.4740148,18.8482593 L100.778991,18.8482593 L100.778991,19.2617982 Z M94.1723734,19.2617982 L90.8562804,19.2617982 L90.8562804,18.8482593 L94.1612568,18.8482593 L94.1723734,19.2617982 Z M87.5646439,19.2617982 L84.2596675,19.2617982 L84.2596675,18.8482593 L87.5646439,18.8482593 L87.5646439,19.2617982 Z M80.9535795,19.2617982 L77.6519381,19.2617982 L77.6519381,18.8482593 L80.9535795,18.8482593 L80.9535795,19.2617982 Z M74.3469616,19.2617982 L71.0442086,19.2617982 L71.0442086,18.8482593 L74.3469616,18.8482593 L74.3469616,19.2617982 Z M67.7392322,19.2617982 L64.4342558,19.2617982 L64.4342558,18.8482593 L67.7314505,18.8482593 L67.7392322,19.2617982 Z M61.1315027,19.2617982 L57.8265263,19.2617982 L57.8265263,18.8482593 L61.1315027,18.8482593 L61.1315027,19.2617982 Z M54.5237732,19.2617982 L51.2187968,19.2617982 L51.2187968,18.8482593 L54.5237732,18.8482593 L54.5237732,19.2617982 Z M47.9160437,19.2617982 L44.605509,19.2617982 L44.605509,18.8482593 L47.9104854,18.8482593 L47.9160437,19.2617982 Z M41.3060909,19.2617982 L38.0033378,19.2617982 L38.0033378,18.8482593 L41.3060909,18.8482593 L41.3060909,19.2617982 Z M34.6983614,19.2617982 L31.3956084,19.2617982 L31.3956084,18.8482593 L34.6983614,18.8482593 L34.6983614,19.2617982 Z M28.0906319,19.2617982 L24.7878789,19.2617982 L24.7878789,18.8482593 L28.0906319,18.8482593 L28.0906319,19.2617982 Z M21.4829025,19.2617982 L18.1779261,19.2617982 L18.1779261,18.8482593 L21.4806791,18.8482593 L21.4829025,19.2617982 Z M14.875173,19.2617982 L11.5701966,19.2617982 L11.5701966,18.8482593 L14.875173,18.8482593 L14.875173,19.2617982 Z M8.2674435,19.2617982 L4.96246709,19.2617982 L4.96246709,18.8482593 L8.2674435,18.8482593 L8.2674435,19.2617982 Z M112.349188,18.8482593 L110.691697,18.8482593 L110.691697,19.2640216 L112.349188,19.2640216 L112.349188,18.8482593 Z M1.65749069,28.5430791 L0,28.5430791 L0,28.9588414 L1.65749069,28.9588414 L1.65749069,28.5430791 Z M107.386721,28.956618 L104.085079,28.956618 L104.085079,28.5430791 L107.386721,28.5430791 L107.386721,28.956618 Z M100.778991,28.956618 L97.4740148,28.956618 L97.4740148,28.5430791 L100.778991,28.5430791 L100.778991,28.956618 Z M94.1723734,28.956618 L90.8562804,28.956618 L90.8562804,28.5430791 L94.1612568,28.5430791 L94.1723734,28.956618 Z M87.5646439,28.956618 L84.2596675,28.956618 L84.2596675,28.5430791 L87.5646439,28.5430791 L87.5646439,28.956618 Z M80.9535795,28.956618 L77.6519381,28.956618 L77.6519381,28.5430791 L80.9535795,28.5430791 L80.9535795,28.956618 Z M74.3469616,28.956618 L71.0442086,28.956618 L71.0442086,28.5430791 L74.3469616,28.5430791 L74.3469616,28.956618 Z M67.7392322,28.956618 L64.4342558,28.956618 L64.4342558,28.5430791 L67.7314505,28.5430791 L67.7392322,28.956618 Z M61.1315027,28.956618 L57.8265263,28.956618 L57.8265263,28.5430791 L61.1315027,28.5430791 L61.1315027,28.956618 Z M54.5237732,28.956618 L51.2187968,28.956618 L51.2187968,28.5430791 L54.5237732,28.5430791 L54.5237732,28.956618 Z M47.9160437,28.956618 L44.605509,28.956618 L44.605509,28.5430791 L47.9104854,28.5430791 L47.9160437,28.956618 Z M41.3060909,28.956618 L38.0033378,28.956618 L38.0033378,28.5430791 L41.3060909,28.5430791 L41.3060909,28.956618 Z M34.6983614,28.956618 L31.3956084,28.956618 L31.3956084,28.5430791 L34.6983614,28.5430791 L34.6983614,28.956618 Z M28.0906319,28.956618 L24.7878789,28.956618 L24.7878789,28.5430791 L28.0906319,28.5430791 L28.0906319,28.956618 Z M21.4829025,28.956618 L18.1779261,28.956618 L18.1779261,28.5430791 L21.4806791,28.5430791 L21.4829025,28.956618 Z M14.875173,28.956618 L11.5701966,28.956618 L11.5701966,28.5430791 L14.875173,28.5430791 L14.875173,28.956618 Z M8.2674435,28.956618 L4.96246709,28.956618 L4.96246709,28.5430791 L8.2674435,28.5430791 L8.2674435,28.956618 Z M112.349188,28.5430791 L110.691697,28.5430791 L110.691697,28.9588414 L112.349188,28.9588414 L112.349188,28.5430791 Z M1.65749069,38.2378989 L0,38.2378989 L0,38.6536611 L1.65749069,38.6536611 L1.65749069,38.2378989 Z M107.386721,38.6558845 L104.085079,38.6558845 L104.085079,38.2401222 L107.386721,38.2401222 L107.386721,38.6558845 Z M100.778991,38.6558845 L97.4740148,38.6558845 L97.4740148,38.2401222 L100.778991,38.2401222 L100.778991,38.6558845 Z M94.1723734,38.6558845 L90.8562804,38.6558845 L90.8562804,38.2401222 L94.1612568,38.2401222 L94.1723734,38.6558845 Z M87.5646439,38.6558845 L84.2596675,38.6558845 L84.2596675,38.2401222 L87.5646439,38.2401222 L87.5646439,38.6558845 Z M80.9535795,38.6558845 L77.6519381,38.6558845 L77.6519381,38.2401222 L80.9535795,38.2401222 L80.9535795,38.6558845 Z M74.3469616,38.6558845 L71.0442086,38.6558845 L71.0442086,38.2401222 L74.3469616,38.2401222 L74.3469616,38.6558845 Z M67.7314505,38.6558845 L64.4342558,38.6558845 L64.4342558,38.2401222 L67.7314505,38.2401222 L67.7314505,38.6558845 Z M61.123721,38.6558845 L57.8265263,38.6558845 L57.8265263,38.2401222 L61.1315027,38.2401222 L61.123721,38.6558845 Z M54.5159916,38.6558845 L51.2187968,38.6558845 L51.2187968,38.2401222 L54.5237732,38.2401222 L54.5159916,38.6558845 Z M47.9082621,38.6558845 L44.605509,38.6558845 L44.605509,38.2401222 L47.9104854,38.2401222 L47.9082621,38.6558845 Z M41.2983093,38.6558845 L38.0033378,38.6558845 L38.0033378,38.2401222 L41.3060909,38.2401222 L41.2983093,38.6558845 Z M34.6905798,38.6558845 L31.3956084,38.6558845 L31.3956084,38.2401222 L34.6983614,38.2401222 L34.6905798,38.6558845 Z M28.0828503,38.6558845 L24.7878789,38.6558845 L24.7878789,38.2401222 L28.0906319,38.2401222 L28.0828503,38.6558845 Z M21.4806791,38.6558845 L18.1779261,38.6558845 L18.1779261,38.2401222 L21.4806791,38.2401222 L21.4806791,38.6558845 Z M14.8729497,38.6558845 L11.5701966,38.6558845 L11.5701966,38.2401222 L14.875173,38.2401222 L14.8729497,38.6558845 Z M8.26522017,38.6558845 L4.96246709,38.6558845 L4.96246709,38.2401222 L8.2674435,38.2401222 L8.26522017,38.6558845 Z M112.349188,38.2378989 L110.691697,38.2378989 L110.691697,38.6536611 L112.349188,38.6536611 L112.349188,38.2378989 Z M1.65749069,47.931607 L0,47.931607 L0,48.3473693 L1.65749069,48.3473693 L1.65749069,47.931607 Z M107.386721,48.3473693 L104.085079,48.3473693 L104.085079,47.931607 L107.386721,47.931607 L107.386721,48.3473693 Z M100.778991,48.3473693 L97.4740148,48.3473693 L97.4740148,47.931607 L100.778991,47.931607 L100.778991,48.3473693 Z M94.1723734,48.3473693 L90.8562804,48.3473693 L90.8562804,47.931607 L94.1612568,47.931607 L94.1723734,48.3473693 Z M87.5646439,48.3473693 L84.2596675,48.3473693 L84.2596675,47.931607 L87.5646439,47.931607 L87.5646439,48.3473693 Z M80.9535795,48.3473693 L77.6519381,48.3473693 L77.6519381,47.931607 L80.9535795,47.931607 L80.9535795,48.3473693 Z M74.3469616,48.3473693 L71.0442086,48.3473693 L71.0442086,47.931607 L74.3469616,47.931607 L74.3469616,48.3473693 Z M67.7392322,48.3473693 L64.4342558,48.3473693 L64.4342558,47.931607 L67.7314505,47.931607 L67.7392322,48.3473693 Z M61.1315027,48.3473693 L57.8265263,48.3473693 L57.8265263,47.931607 L61.1315027,47.931607 L61.1315027,48.3473693 Z M54.5237732,48.3473693 L51.2187968,48.3473693 L51.2187968,47.931607 L54.5237732,47.931607 L54.5237732,48.3473693 Z M47.9160437,48.3473693 L44.605509,48.3473693 L44.605509,47.931607 L47.9104854,47.931607 L47.9160437,48.3473693 Z M41.3060909,48.3473693 L38.0033378,48.3473693 L38.0033378,47.931607 L41.3060909,47.931607 L41.3060909,48.3473693 Z M34.6983614,48.3473693 L31.3956084,48.3473693 L31.3956084,47.931607 L34.6983614,47.931607 L34.6983614,48.3473693 Z M28.0906319,48.3473693 L24.7878789,48.3473693 L24.7878789,47.931607 L28.0906319,47.931607 L28.0906319,48.3473693 Z M21.4829025,48.3473693 L18.1779261,48.3473693 L18.1779261,47.931607 L21.4806791,47.931607 L21.4829025,48.3473693 Z M14.875173,48.3473693 L11.5701966,48.3473693 L11.5701966,47.931607 L14.875173,47.931607 L14.875173,48.3473693 Z M8.2674435,48.3473693 L4.96246709,48.3473693 L4.96246709,47.931607 L8.2674435,47.931607 L8.2674435,48.3473693 Z M112.349188,47.931607 L110.691697,47.931607 L110.691697,48.3473693 L112.349188,48.3473693 L112.349188,47.931607 Z M11.5468516,56.3246685 L9.88602596,56.3246685 L9.88602596,56.7404308 L11.5468516,56.7404308 L11.5468516,56.3246685 Z M107.272219,56.7382074 L103.848295,56.7382074 L103.848295,56.3246685 L107.267773,56.3246685 L107.272219,56.7382074 L107.272219,56.7382074 Z M100.433264,56.7382074 L97.017121,56.7382074 L97.017121,56.3246685 L100.433264,56.3246685 L100.433264,56.7382074 Z M93.5976433,56.7382074 L90.1781655,56.7382074 L90.1781655,56.3246685 L93.5976433,56.3246685 L93.5976433,56.7382074 Z M86.7586877,56.7382074 L83.3414333,56.7382074 L83.3414333,56.3246685 L86.7586877,56.3246685 L86.7586877,56.7382074 Z M79.9219555,56.7382074 L76.5024777,56.7382074 L76.5024777,56.3246685 L79.9219555,56.3246685 L79.9219555,56.7382074 Z M73.0829999,56.7382074 L69.6646338,56.7382074 L69.6646338,56.3246685 L73.0829999,56.3246685 L73.0829999,56.7382074 Z M66.2451561,56.7382074 L62.8279016,56.7382074 L62.8279016,56.3246685 L66.2451561,56.3246685 L66.2451561,56.7382074 Z M59.4084238,56.7382074 L55.9889461,56.7382074 L55.9889461,56.3246685 L59.4162055,56.3246685 L59.4084238,56.7382074 Z M52.5694683,56.7382074 L49.1522138,56.7382074 L49.1522138,56.3246685 L52.5694683,56.3246685 L52.5694683,56.7382074 Z M45.7327361,56.7382074 L42.31437,56.7382074 L42.31437,56.3246685 L45.7327361,56.3246685 L45.7327361,56.7382074 Z M38.8948922,56.7382074 L35.4776377,56.7382074 L35.4776377,56.3246685 L38.8893339,56.3246685 L38.8948922,56.7382074 L38.8948922,56.7382074 Z M32.05816,56.7382074 L28.6386822,56.7382074 L28.6386822,56.3246685 L32.05816,56.3246685 L32.05816,56.7382074 Z M25.2192044,56.7382074 L21.7997266,56.7382074 L21.7997266,56.3246685 L25.2192044,56.3246685 L25.2192044,56.7382074 Z M18.3824722,56.7382074 L14.9629944,56.7382074 L14.9629944,56.3246685 L18.3824722,56.3246685 L18.3824722,56.7382074 Z M112.349188,56.3246685 L110.691697,56.3246685 L110.691697,56.7404308 L112.349188,56.7404308 L112.349188,56.3246685 Z M1.65749069,65.4758847 L0,65.4758847 L0,65.891647 L1.65749069,65.891647 L1.65749069,65.4758847 Z M107.386721,65.891647 L104.085079,65.891647 L104.085079,65.4758847 L107.386721,65.4758847 L107.386721,65.891647 Z M100.778991,65.891647 L97.4740148,65.891647 L97.4740148,65.4758847 L100.778991,65.4758847 L100.778991,65.891647 Z M94.1723734,65.891647 L90.8562804,65.891647 L90.8562804,65.4758847 L94.1612568,65.4758847 L94.1723734,65.891647 Z M87.5646439,65.891647 L84.2596675,65.891647 L84.2596675,65.4758847 L87.5646439,65.4758847 L87.5646439,65.891647 Z M80.9535795,65.891647 L77.6519381,65.891647 L77.6519381,65.4758847 L80.9535795,65.4758847 L80.9535795,65.891647 Z M74.3469616,65.891647 L71.0442086,65.891647 L71.0442086,65.4758847 L74.3469616,65.4758847 L74.3469616,65.891647 Z M67.7392322,65.891647 L64.4342558,65.891647 L64.4342558,65.4758847 L67.7314505,65.4758847 L67.7392322,65.891647 Z M61.1315027,65.891647 L57.8265263,65.891647 L57.8265263,65.4758847 L61.1315027,65.4758847 L61.1315027,65.891647 Z M54.5237732,65.891647 L51.2187968,65.891647 L51.2187968,65.4758847 L54.5237732,65.4758847 L54.5237732,65.891647 Z M47.9160437,65.891647 L44.605509,65.891647 L44.605509,65.4758847 L47.9104854,65.4758847 L47.9160437,65.891647 Z M41.3060909,65.891647 L38.0033378,65.891647 L38.0033378,65.4758847 L41.3060909,65.4758847 L41.3060909,65.891647 Z M34.6983614,65.891647 L31.3956084,65.891647 L31.3956084,65.4758847 L34.6983614,65.4758847 L34.6983614,65.891647 Z M28.0906319,65.891647 L24.7878789,65.891647 L24.7878789,65.4758847 L28.0906319,65.4758847 L28.0906319,65.891647 Z M21.4829025,65.891647 L18.1779261,65.891647 L18.1779261,65.4758847 L21.4806791,65.4758847 L21.4829025,65.891647 Z M14.875173,65.891647 L11.5701966,65.891647 L11.5701966,65.4758847 L14.875173,65.4758847 L14.875173,65.891647 Z M8.2674435,65.891647 L4.96246709,65.891647 L4.96246709,65.4758847 L8.2674435,65.4758847 L8.2674435,65.891647 Z M112.349188,65.4758847 L110.691697,65.4758847 L110.691697,65.891647 L112.349188,65.891647 L112.349188,65.4758847 Z M1.65749069,75.1707045 L0,75.1707045 L0,75.5864668 L1.65749069,75.5864668 L1.65749069,75.1707045 Z M107.386721,75.5864668 L104.085079,75.5864668 L104.085079,75.1707045 L107.386721,75.1707045 L107.386721,75.5864668 Z M100.778991,75.5864668 L97.4740148,75.5864668 L97.4740148,75.1707045 L100.778991,75.1707045 L100.778991,75.5864668 Z M94.1723734,75.5864668 L90.8562804,75.5864668 L90.8562804,75.1707045 L94.1612568,75.1707045 L94.1723734,75.5864668 Z M87.5646439,75.5864668 L84.2596675,75.5864668 L84.2596675,75.1707045 L87.5646439,75.1707045 L87.5646439,75.5864668 Z M80.9535795,75.5864668 L77.6519381,75.5864668 L77.6519381,75.1707045 L80.9535795,75.1707045 L80.9535795,75.5864668 Z M74.3469616,75.5864668 L71.0442086,75.5864668 L71.0442086,75.1707045 L74.3469616,75.1707045 L74.3469616,75.5864668 Z M67.7392322,75.5864668 L64.4342558,75.5864668 L64.4342558,75.1707045 L67.7314505,75.1707045 L67.7392322,75.5864668 Z M61.1315027,75.5864668 L57.8265263,75.5864668 L57.8265263,75.1707045 L61.1315027,75.1707045 L61.1315027,75.5864668 Z M54.5237732,75.5864668 L51.2187968,75.5864668 L51.2187968,75.1707045 L54.5237732,75.1707045 L54.5237732,75.5864668 Z M47.9160437,75.5864668 L44.605509,75.5864668 L44.605509,75.1707045 L47.9104854,75.1707045 L47.9160437,75.5864668 Z M41.3060909,75.5864668 L38.0033378,75.5864668 L38.0033378,75.1707045 L41.3060909,75.1707045 L41.3060909,75.5864668 Z M34.6983614,75.5864668 L31.3956084,75.5864668 L31.3956084,75.1707045 L34.6983614,75.1707045 L34.6983614,75.5864668 Z M28.0906319,75.5864668 L24.7878789,75.5864668 L24.7878789,75.1707045 L28.0906319,75.1707045 L28.0906319,75.5864668 Z M21.4829025,75.5864668 L18.1779261,75.5864668 L18.1779261,75.1707045 L21.4806791,75.1707045 L21.4829025,75.5864668 Z M14.875173,75.5864668 L11.5701966,75.5864668 L11.5701966,75.1707045 L14.875173,75.1707045 L14.875173,75.5864668 Z M8.2674435,75.5864668 L4.96246709,75.5864668 L4.96246709,75.1707045 L8.2674435,75.1707045 L8.2674435,75.5864668 Z M112.349188,75.1707045 L110.691697,75.1707045 L110.691697,75.5864668 L112.349188,75.5864668 L112.349188,75.1707045 Z M1.65749069,84.8655243 L0,84.8655243 L0,85.2801749 L1.65749069,85.2801749 L1.65749069,84.8655243 Z M107.386721,85.2801749 L104.085079,85.2801749 L104.085079,84.8655243 L107.386721,84.8655243 L107.386721,85.2801749 Z M100.778991,85.2801749 L97.4740148,85.2801749 L97.4740148,84.8655243 L100.778991,84.8655243 L100.778991,85.2801749 Z M94.1723734,85.2801749 L90.8562804,85.2801749 L90.8562804,84.8655243 L94.1612568,84.8655243 L94.1723734,85.2801749 Z M87.5646439,85.2801749 L84.2596675,85.2801749 L84.2596675,84.8655243 L87.5646439,84.8655243 L87.5646439,85.2801749 Z M80.9535795,85.2801749 L77.6519381,85.2801749 L77.6519381,84.8655243 L80.9535795,84.8655243 L80.9535795,85.2801749 Z M74.3469616,85.2801749 L71.0442086,85.2801749 L71.0442086,84.8655243 L74.3469616,84.8655243 L74.3469616,85.2801749 Z M67.7392322,85.2801749 L64.4342558,85.2801749 L64.4342558,84.8655243 L67.7314505,84.8655243 L67.7392322,85.2801749 Z M61.1315027,85.2801749 L57.8265263,85.2801749 L57.8265263,84.8655243 L61.1315027,84.8655243 L61.1315027,85.2801749 Z M54.5237732,85.2801749 L51.2187968,85.2801749 L51.2187968,84.8655243 L54.5237732,84.8655243 L54.5237732,85.2801749 Z M47.9160437,85.2801749 L44.605509,85.2801749 L44.605509,84.8655243 L47.9104854,84.8655243 L47.9160437,85.2801749 Z M41.3060909,85.2801749 L38.0033378,85.2801749 L38.0033378,84.8655243 L41.3060909,84.8655243 L41.3060909,85.2801749 Z M34.6983614,85.2801749 L31.3956084,85.2801749 L31.3956084,84.8655243 L34.6983614,84.8655243 L34.6983614,85.2801749 Z M28.0906319,85.2801749 L24.7878789,85.2801749 L24.7878789,84.8655243 L28.0906319,84.8655243 L28.0906319,85.2801749 Z M21.4829025,85.2801749 L18.1779261,85.2801749 L18.1779261,84.8655243 L21.4806791,84.8655243 L21.4829025,85.2801749 Z M14.875173,85.2801749 L11.5701966,85.2801749 L11.5701966,84.8655243 L14.875173,84.8655243 L14.875173,85.2801749 Z M8.2674435,85.2801749 L4.96246709,85.2801749 L4.96246709,84.8655243 L8.2674435,84.8655243 L8.2674435,85.2801749 Z M112.349188,84.8655243 L110.691697,84.8655243 L110.691697,85.2801749 L112.349188,85.2801749 L112.349188,84.8655243 Z M1.65749069,94.5625674 L0,94.5625674 L0,94.9783297 L1.65749069,94.9783297 L1.65749069,94.5625674 Z M107.386721,94.9749947 L104.085079,94.9749947 L104.085079,94.5625674 L107.386721,94.5625674 L107.386721,94.9749947 Z M100.778991,94.9749947 L97.4740148,94.9749947 L97.4740148,94.5625674 L100.778991,94.5625674 L100.778991,94.9749947 Z M94.1723734,94.9749947 L90.8562804,94.9749947 L90.8562804,94.5625674 L94.1612568,94.5625674 L94.1723734,94.9749947 Z M87.5646439,94.9749947 L84.2596675,94.9749947 L84.2596675,94.5625674 L87.5646439,94.5625674 L87.5646439,94.9749947 Z M80.9535795,94.9749947 L77.6519381,94.9749947 L77.6519381,94.5625674 L80.9535795,94.5625674 L80.9535795,94.9749947 Z M74.3469616,94.9749947 L71.0442086,94.9749947 L71.0442086,94.5625674 L74.3469616,94.5625674 L74.3469616,94.9749947 Z M67.7392322,94.9749947 L64.4342558,94.9749947 L64.4342558,94.5625674 L67.7314505,94.5625674 L67.7392322,94.9749947 Z M61.1315027,94.9749947 L57.8265263,94.9749947 L57.8265263,94.5625674 L61.1315027,94.5625674 L61.1315027,94.9749947 Z M54.5237732,94.9749947 L51.2187968,94.9749947 L51.2187968,94.5625674 L54.5237732,94.5625674 L54.5237732,94.9749947 Z M47.9160437,94.9749947 L44.605509,94.9749947 L44.605509,94.5625674 L47.9104854,94.5625674 L47.9160437,94.9749947 Z M41.3060909,94.9749947 L38.0033378,94.9749947 L38.0033378,94.5625674 L41.3060909,94.5625674 L41.3060909,94.9749947 Z M34.6983614,94.9749947 L31.3956084,94.9749947 L31.3956084,94.5625674 L34.6983614,94.5625674 L34.6983614,94.9749947 Z M28.0906319,94.9749947 L24.7878789,94.9749947 L24.7878789,94.5625674 L28.0906319,94.5625674 L28.0906319,94.9749947 Z M21.4829025,94.9749947 L18.1779261,94.9749947 L18.1779261,94.5625674 L21.4806791,94.5625674 L21.4829025,94.9749947 Z M14.875173,94.9749947 L11.5701966,94.9749947 L11.5701966,94.5625674 L14.875173,94.5625674 L14.875173,94.9749947 Z M8.2674435,94.9749947 L4.96246709,94.9749947 L4.96246709,94.5625674 L8.2674435,94.5625674 L8.2674435,94.9749947 Z M112.349188,94.5625674 L110.691697,94.5625674 L110.691697,94.9783297 L112.349188,94.9783297 L112.349188,94.5625674 Z M1.65749069,104.256276 L0,104.256276 L0,104.672038 L1.65749069,104.672038 L1.65749069,104.256276 Z M107.386721,104.669814 L104.085079,104.669814 L104.085079,104.256276 L107.386721,104.256276 L107.386721,104.669814 Z M100.778991,104.669814 L97.4740148,104.669814 L97.4740148,104.256276 L100.778991,104.256276 L100.778991,104.669814 Z M94.1723734,104.669814 L90.8562804,104.669814 L90.8562804,104.256276 L94.1612568,104.256276 L94.1723734,104.669814 Z M87.5646439,104.669814 L84.2596675,104.669814 L84.2596675,104.256276 L87.5646439,104.256276 L87.5646439,104.669814 Z M80.9535795,104.669814 L77.6519381,104.669814 L77.6519381,104.256276 L80.9535795,104.256276 L80.9535795,104.669814 Z M74.3469616,104.669814 L71.0442086,104.669814 L71.0442086,104.256276 L74.3469616,104.256276 L74.3469616,104.669814 Z M67.7392322,104.669814 L64.4342558,104.669814 L64.4342558,104.256276 L67.7314505,104.256276 L67.7392322,104.669814 Z M61.1315027,104.669814 L57.8265263,104.669814 L57.8265263,104.256276 L61.1315027,104.256276 L61.1315027,104.669814 Z M54.5237732,104.669814 L51.2187968,104.669814 L51.2187968,104.256276 L54.5237732,104.256276 L54.5237732,104.669814 Z M47.9160437,104.669814 L44.605509,104.669814 L44.605509,104.256276 L47.9104854,104.256276 L47.9160437,104.669814 Z M41.3060909,104.669814 L38.0033378,104.669814 L38.0033378,104.256276 L41.3060909,104.256276 L41.3060909,104.669814 Z M34.6983614,104.669814 L31.3956084,104.669814 L31.3956084,104.256276 L34.6983614,104.256276 L34.6983614,104.669814 Z M28.0906319,104.669814 L24.7878789,104.669814 L24.7878789,104.256276 L28.0906319,104.256276 L28.0906319,104.669814 Z M21.4829025,104.669814 L18.1779261,104.669814 L18.1779261,104.256276 L21.4806791,104.256276 L21.4829025,104.669814 Z M14.875173,104.669814 L11.5701966,104.669814 L11.5701966,104.256276 L14.875173,104.256276 L14.875173,104.669814 Z M8.2674435,104.669814 L4.96246709,104.669814 L4.96246709,104.256276 L8.2674435,104.256276 L8.2674435,104.669814 Z M112.349188,104.256276 L110.691697,104.256276 L110.691697,104.672038 L112.349188,104.672038 L112.349188,104.256276 Z" id="形状"></path>
                    </g>
                    <line x1="64.4164691" y1="113.767785" x2="69.743562" y2="135.191769" id="路径" stroke="#000000" stroke-width="0.234"></line>
                    <line x1="29.591378" y1="172.06788" x2="16.9706592" y2="196.746816" id="路径" stroke="#221715" stroke-width="0.234"></line>
                    <path d="M109.940212,123.280292 C109.940212,123.280292 121.434816,125.566984 121.920613,131.543289 M89.2343629,158.39775 C89.2343629,158.39775 94.1712618,163.189021 91.6733533,172.06788" id="形状" stroke="#000000" stroke-width="0.234"></path>
                    <path d="M122.47978,139.598404 C122.47978,139.598404 125.932607,141.752809 124.255107,142.841128 C124.255107,142.841128 122.986698,143.880533 120.097484,139.899665" id="路径" fill="#EFD1D8" fill-rule="nonzero"></path>
                </g>
            </g>
        </g>
    </g>
</svg>