<?xml version="1.0" encoding="UTF-8"?>
<svg width="52px" height="52px" viewBox="0 0 52 52" version="1.1" xmlns="http://www.w3.org/2000/svg" xmlns:xlink="http://www.w3.org/1999/xlink">
    <title>编组 15备份</title>
    <defs>
        <circle id="path-1" cx="14" cy="14" r="14"></circle>
        <filter x="-75.0%" y="-53.6%" width="250.0%" height="250.0%" filterUnits="objectBoundingBox" id="filter-2">
            <feOffset dx="0" dy="6" in="SourceAlpha" result="shadowOffsetOuter1"></feOffset>
            <feGaussianBlur stdDeviation="6" in="shadowOffsetOuter1" result="shadowBlurOuter1"></feGaussianBlur>
            <feColorMatrix values="0 0 0 0 0   0 0 0 0 0.358175273   0 0 0 0 0.751217165  0 0 0 1 0" type="matrix" in="shadowBlurOuter1"></feColorMatrix>
        </filter>
    </defs>
    <g id="app-能源经理工具" stroke="none" stroke-width="1" fill="none" fill-rule="evenodd">
        <g id="编组-8" transform="translate(12.000000, 6.000000)">
            <g id="椭圆形" opacity="0.263718378">
                <use fill="black" fill-opacity="1" filter="url(#filter-2)" xlink:href="#path-1"></use>
                <use fill="#FFFFFF" fill-rule="evenodd" xlink:href="#path-1"></use>
            </g>
            <path d="M14,7 C14.5522847,7 15,7.44771525 15,8 L15,12.999 L20,13 C20.5522847,13 21,13.4477153 21,14 C21,14.5522847 20.5522847,15 20,15 L14.999,14.999 L15,20 C15,20.5522847 14.5522847,21 14,21 C13.4477153,21 13,20.5522847 13,20 L12.999,14.999 L8,15 C7.44771525,15 7,14.5522847 7,14 C7,13.4477153 7.44771525,13 8,13 L13,12.999 L13,8 C13,7.44771525 13.4477153,7 14,7 Z" id="形状结合" fill="#FFFFFF"></path>
        </g>
    </g>
</svg>