<?xml version="1.0" encoding="UTF-8"?>
<svg width="24px" height="24px" viewBox="0 0 24 24" version="1.1" xmlns="http://www.w3.org/2000/svg" xmlns:xlink="http://www.w3.org/1999/xlink">
    <title>日历模式按钮（右上角）</title>
    <g id="日历模式按钮（右上角）" stroke="none" stroke-width="1" fill="none" fill-rule="evenodd">
        <g id="1.Icon/Outline/Common/Calendar">
            <rect id="矩形" opacity="0" x="0" y="0" width="24" height="24"></rect>
            <path d="M21,8.543 L21,20.2794471 C21,20.6776843 20.6782603,20.999424 20.280023,20.999424 L20.280023,20.999424 L3.72055294,20.999424 C3.32231569,20.999424 3.00057598,20.6776843 3.00057598,20.2794471 L3.00057598,20.2794471 L3,8.543 L21,8.543 Z M8.94038591,3 C9.03938274,3 9.12038015,3.08099741 9.12038015,3.17999424 L9.12038015,3.17999424 L9.12038015,4.61994816 L14.8801958,4.61994816 L14.8801958,3.17999424 C14.8801958,3.08099741 14.9611932,3 15.0601901,3 L15.0601901,3 L16.3201498,3 C16.4191466,3 16.500144,3.08099741 16.500144,3.17999424 L16.500144,3.17999424 L16.500144,4.61994816 L20.280023,4.61994816 C20.6782603,4.61994816 21,4.94168787 21,5.33992512 L21,5.33992512 L21,7.391 L3,7.391 L3.00057598,5.33992512 C3.00057598,4.9748743 3.27092671,4.67410268 3.62272925,4.62650915 L3.72055294,4.61994816 L7.50043199,4.61994816 L7.50043199,3.17999424 C7.50043199,3.08099741 7.58142939,3 7.68042623,3 L7.68042623,3 Z" id="形状结合" fill="#FFFFFF"></path>
        </g>
    </g>
</svg>