<?xml version="1.0" encoding="UTF-8"?>
<svg width="40px" height="38px" viewBox="0 0 40 38" version="1.1" xmlns="http://www.w3.org/2000/svg" xmlns:xlink="http://www.w3.org/1999/xlink">
    <title>形状结合</title>
    <g id="app-能源经理工具" stroke="none" stroke-width="1" fill="none" fill-rule="evenodd">
        <path d="M7.38453352,4 C8.21386546,4 8.86151613,4.67358707 8.86151613,5.47691936 C8.86151613,6.30599826 8.18792907,6.95364893 7.38453352,6.95364893 L5.93355056,6.95364893 C4.30113937,6.95364893 2.97983836,8.27520298 2.97983836,9.90761416 L2.97983836,31.6211817 C2.97983836,33.2535296 4.30113937,34.5750837 5.93355056,34.5750837 L33.9177152,34.5750837 C35.5501264,34.5750837 36.8713641,33.2535296 36.8713641,31.6211817 L36.8713641,9.93355056 C36.8713641,8.30113937 35.5501264,6.97958532 33.9177152,6.97958532 L32.4147962,6.97958532 C32.2872442,6.97958532 32.1639875,6.96364938 32.0467224,6.93375651 C31.9661354,6.94661675 31.8817111,6.95364893 31.7953197,6.95364893 L18.4769826,6.95364893 C17.647967,6.95364893 17,6.28006186 17,5.47691936 C17,4.64765068 17.6736503,4 18.4769826,4 L31.7953197,4 C31.9242876,4 32.0488714,4.01629914 32.1673144,4.04685038 C32.2472176,4.03310334 32.3302894,4.02593639 32.4147962,4.02593639 L33.8917788,4.02593639 C37.1824743,4.02593639 39.8512658,6.69466457 39.8512658,9.95948695 L39.8512658,31.6730545 C39.8512658,34.9118772 37.208474,37.5806686 33.9177152,37.5806686 L5.93355056,37.5806686 C2.66879144,37.5806686 -1.84741111e-13,34.9118772 -1.84741111e-13,31.6471181 L-1.84741111e-13,9.93355056 C-1.84741111e-13,6.66872818 2.64279179,4.02593639 5.9078672,4 L7.38453352,4 Z M16.638912,12 C21.950685,12 26.2778241,16.3273288 26.2778241,21.638912 C26.2778241,26.9507483 21.950685,31.2778241 16.638912,31.2778241 C11.3270758,31.2778241 7,26.9507483 7,21.638912 C7,16.3273288 11.3011394,12 16.638912,12 Z M16.638912,14.9799016 C12.9594869,14.9799016 9.95364893,17.9854233 9.95364893,21.6648484 C9.95364893,25.3442735 12.9594869,28.3498585 16.638912,28.3498585 C20.3183371,28.3498585 23.3238588,25.3442735 23.3238588,21.6648484 C23.3238588,17.9854233 20.3183371,14.9799016 16.638912,14.9799016 Z M32.4306315,11 C33.2599002,11 33.9076142,11.6735871 33.9076142,12.4769826 C33.9076142,13.2803149 33.2339638,13.953902 32.4306315,13.953902 L29.4769194,13.953902 C28.6476507,13.953902 28,13.2803149 28,12.4769826 C28,11.6735871 28.6735871,11 29.4769194,11 L32.4306315,11 Z M17.2606263,-1.08357767e-13 C18.0899583,-1.08357767e-13 18.7376089,0.673587069 18.7376089,1.47691936 C18.7376089,2.28006186 18.0899583,2.95390197 17.2606263,2.95390197 L8.47672958,2.95390197 C7.64765068,2.95390197 7,2.28006186 7,1.47691936 C7,0.647650677 7.67365033,-1.08357767e-13 8.47672958,-1.08357767e-13 L17.2606263,-1.08357767e-13 Z" id="形状结合" fill="#1283FF" fill-rule="nonzero"></path>
    </g>
</svg>