<?xml version="1.0" encoding="UTF-8"?>
<svg width="20px" height="20px" viewBox="0 0 20 20" version="1.1" xmlns="http://www.w3.org/2000/svg" xmlns:xlink="http://www.w3.org/1999/xlink">
    <title>1.Icon/Outline/Direction/Ddouble-Right备份</title>
    <g id="app-能源经理工具" stroke="none" stroke-width="1" fill="none" fill-rule="evenodd">
        <g id="1.Icon/Outline/Direction/Ddouble-Right">
            <rect id="矩形" x="0" y="0" width="20" height="20"></rect>
            <path d="M15.5460836,3.99997486 L15.5927286,4.01081134 C15.6227091,4.02423371 15.64557,4.04856248 15.6574794,4.07788936 L15.666651,4.12488975 L15.666651,5.40953038 C15.666651,5.4629474 15.6495671,5.51446333 15.6186115,5.55689409 L15.583151,5.59603038 L10.5429322,10.0957335 L15.583151,14.5954366 C15.6229975,14.6310124 15.650043,14.678068 15.6610753,14.7294194 L15.666651,14.7819366 L15.666651,16.0665773 C15.666651,16.099421 15.6537822,16.1302201 15.6318802,16.1530686 L15.5927318,16.1806403 L15.546093,16.1914779 C15.5250068,16.1922235 15.5039587,16.187621 15.4850092,16.1779899 L15.4584166,16.1598116 L9.0836822,10.4687023 C8.8776822,10.2847804 8.85977595,9.96871788 9.04371345,9.76271788 L9.06313533,9.74217881 L9.06313533,9.74217881 L9.0836822,9.72276475 L15.458401,4.03165538 L15.4995685,4.00719276 L15.4995685,4.00719276 L15.5460836,3.99997486 Z M11.2960836,3.99997486 L11.3427286,4.01081134 C11.3727091,4.02423371 11.39557,4.04856248 11.4074794,4.07788936 L11.416651,4.12488975 L11.416651,5.40953038 C11.416651,5.4629474 11.3995671,5.51446333 11.3686115,5.55689409 L11.333151,5.59603038 L6.2929322,10.0957335 L11.333151,14.5954366 C11.3729975,14.6310124 11.400043,14.678068 11.4110753,14.7294194 L11.416651,14.7819366 L11.416651,16.0665773 C11.416651,16.099421 11.4037822,16.1302201 11.3818802,16.1530686 L11.3427318,16.1806403 L11.296093,16.1914779 C11.2750068,16.1922235 11.2539587,16.187621 11.2350092,16.1779899 L11.2084166,16.1598116 L4.8336822,10.4687023 C4.6276822,10.2847804 4.60977595,9.96871788 4.79371345,9.76271788 L4.81313533,9.74217881 L4.81313533,9.74217881 L4.8336822,9.72276475 L11.208401,4.03165538 L11.2495685,4.00719276 L11.2495685,4.00719276 L11.2960836,3.99997486 Z" id="Ddouble-Right" fill="#1283FF" transform="translate(10.166659, 10.095727) scale(-1, 1) translate(-10.166659, -10.095727) "></path>
        </g>
    </g>
</svg>