<?xml version="1.0" encoding="UTF-8"?>
<svg width="52px" height="52px" viewBox="0 0 52 52" version="1.1" xmlns="http://www.w3.org/2000/svg" xmlns:xlink="http://www.w3.org/1999/xlink">
    <title>跳转fast备份</title>
    <defs>
        <path d="M14,0 C6.2680135,0 0,6.2680135 0,14 C0,21.7319865 6.2680135,28 14,28 C21.7319865,28 28,21.7319865 28,14 C28,10.2869691 26.5250042,6.72601436 23.8994949,4.10050506 C21.2739856,1.47499577 17.7130309,0 14,0 Z" id="path-1"></path>
        <filter x="-75.0%" y="-53.6%" width="250.0%" height="250.0%" filterUnits="objectBoundingBox" id="filter-2">
            <feOffset dx="0" dy="6" in="SourceAlpha" result="shadowOffsetOuter1"></feOffset>
            <feGaussianBlur stdDeviation="6" in="shadowOffsetOuter1" result="shadowBlurOuter1"></feGaussianBlur>
            <feColorMatrix values="0 0 0 0 0   0 0 0 0 0.438609278   0 0 0 0 0.624037591  0 0 0 1 0" type="matrix" in="shadowBlurOuter1"></feColorMatrix>
        </filter>
    </defs>
    <g id="app-能源经理工具" stroke="none" stroke-width="1" fill="none" fill-rule="evenodd">
        <g id="跳转fast备份" transform="translate(12.000000, 6.000000)">
            <g id="路径" opacity="0.263718378">
                <use fill="black" fill-opacity="1" filter="url(#filter-2)" xlink:href="#path-1"></use>
                <use fill="#FFFFFF" fill-rule="evenodd" xlink:href="#path-1"></use>
            </g>
            <path d="M15.8846154,5.67692308 C16.1280925,5.77837189 16.3216281,5.97190746 16.4230769,6.21538462 L22.0130709,19.6313702 C22.2254881,20.1411715 21.9844107,20.7266453 21.4746094,20.9390625 C21.2162699,21.046704 20.9246445,21.0411614 20.6705817,20.9237814 L15.5,18.5349121 L10.3294183,20.9237814 C9.82805652,21.1554165 9.23384519,20.9367597 9.00221016,20.4353979 C8.88483015,20.1813351 8.87928761,19.8897097 8.98692908,19.6313702 L14.5769231,6.21538462 C14.7893403,5.70558331 15.3748141,5.46450587 15.8846154,5.67692308 Z M15.5,9.2 L11.82,18.032 L14.6611754,16.7193204 C15.1342326,16.5007624 15.6713539,16.4764782 16.1586476,16.6464677 L16.3388246,16.7193204 L19.179,18.032 L15.5,9.2 Z" id="三角形" fill="#FFFFFF" fill-rule="nonzero" transform="translate(15.500130, 13.307983) rotate(-315.000000) translate(-15.500130, -13.307983) "></path>
        </g>
    </g>
</svg>