<?xml version="1.0" encoding="UTF-8"?>
<svg width="32px" height="32px" viewBox="0 0 32 32" version="1.1" xmlns="http://www.w3.org/2000/svg" xmlns:xlink="http://www.w3.org/1999/xlink">
    <title>按住说话</title>
    <g id="按住说话" stroke="none" stroke-width="1" fill="none" fill-rule="evenodd">
        <g id="分组" fill="#1283FF" fill-rule="nonzero">
            <path d="M15.9238095,0.685714286 C7.54285714,0.685714286 0.685714286,7.54285714 0.685714286,15.9238095 C0.685714286,24.3047619 7.54285714,31.1619048 15.9238095,31.1619048 C24.3047619,31.1619048 31.1619048,24.3047619 31.1619048,15.9238095 C31.1619048,7.54285714 24.3047619,0.685714286 15.9238095,0.685714286 Z M11.8857143,10.4380952 C11.8857143,8.22857143 13.7142857,6.4 15.9238095,6.4 C18.1333334,6.4 19.9619048,8.22857143 19.9619048,10.4380952 L19.9619048,15.4666667 C19.9619048,17.6761905 18.1333334,19.5047619 15.9238095,19.5047619 C13.7142857,19.5047619 11.8857143,17.6761905 11.8857143,15.4666667 L11.8857143,10.4380952 Z M23.0095238,15.0095238 C23.0095238,18.7428571 20.1142857,21.7904762 16.4571429,22.0190476 L16.4571429,24.3809524 L19.9619048,24.3809524 L19.9619048,25.3714286 L11.9619048,25.3714286 L11.9619048,24.3809524 L15.4666667,24.3809524 L15.4666667,22.0190476 C11.8095238,21.7904762 8.91428571,18.6666667 8.91428571,15.0095238 L8.91428571,13.0285714 L9.82857143,13.0285714 L9.82857143,15.0095238 C9.82857143,18.3619048 12.5714286,21.1047619 15.9238095,21.1047619 C19.2761905,21.1047619 22.0190476,18.3619048 22.0190476,15.0095238 L22.0190476,13.0285714 L23.0095238,13.0285714 L23.0095238,15.0095238 Z" id="形状"></path>
        </g>
    </g>
</svg>