<?xml version="1.0" standalone="no"?><!DOCTYPE svg PUBLIC "-//W3C//DTD SVG 1.1//EN" "http://www.w3.org/Graphics/SVG/1.1/DTD/svg11.dtd"><svg t="1618889210985" class="icon" viewBox="0 0 1024 1024" version="1.1" xmlns="http://www.w3.org/2000/svg" p-id="8034" width="48" height="48" xmlns:xlink="http://www.w3.org/1999/xlink"><defs><style type="text/css"></style></defs><path d="M512 768H128V576l192-192 192 192 128-128c68.288 48.448 110.912 69.76 128 64 46.656 0 90.368 12.48 128 34.24V192H64v640h448v-64z m448-169.344A256 256 0 1 1 546.24 896H0V128h960v470.656zM768 384a64 64 0 1 1 0-128 64 64 0 0 1 0 128z m0 576a192 192 0 1 0 0-384 192 192 0 0 0 0 384z m-32-288a32 32 0 1 1 64 0V768a32 32 0 1 1-64 0v-96zM768 896a32 32 0 1 1 0-64 32 32 0 0 1 0 64z" p-id="8035" fill="#8a8a8a"></path></svg>