<?xml version="1.0" encoding="UTF-8"?>
<svg width="90px" height="122px" viewBox="0 0 90 122" version="1.1" xmlns="http://www.w3.org/2000/svg" xmlns:xlink="http://www.w3.org/1999/xlink">
    <title>3.Feedback/Empty State/Layout备份</title>
    <g id="app-能源经理工具" stroke="none" stroke-width="1" fill="none" fill-rule="evenodd" fill-opacity="0.1">
        <g id="3.Feedback/Empty-State/Layout备份" fill="#222222" fill-rule="nonzero">
            <g id="暂无记录">
                <path d="M60.7401579,12.6318726 C59.6560097,12.6318726 58.726687,11.9342892 58.4944488,10.8492417 L56.6358033,2.9448999 C56.3260291,1.70503943 57.1005263,0.465055612 58.3395,0.155059656 C59.6560097,-0.154812942 60.8949834,0.620115268 61.2047576,1.85997573 L63.063403,9.76456421 C63.3731773,11.0044247 62.5986801,12.2444085 61.3597064,12.5544044 C61.1273449,12.6318726 60.9725194,12.6318726 60.7401579,12.6318726 L60.7401579,12.6318726 Z M87.6825485,33.0904954 C87.527723,33.0904954 87.3727742,33.0904954 87.2178255,33.0130273 L79.2416011,31.3855794 C78.0025042,31.1531749 77.1507175,29.9131911 77.4603684,28.6733306 C77.6928532,27.4333468 78.9318269,26.5809505 80.1709238,26.8908231 L88.1471482,28.518271 C89.3862452,28.7507988 90.2380319,29.9906593 89.9283809,31.2306431 C89.6960194,32.3155672 88.7666967,33.0904954 87.6825485,33.0904954 L87.6825485,33.0904954 Z M75.9050083,17.0491608 C75.2080471,17.0491608 74.5884986,16.7391648 74.1237756,16.1967644 C73.2719889,15.189185 73.4268144,13.7167968 74.4335499,12.9418686 L81.2483366,7.28471992 C82.255072,6.43232356 83.7264072,6.58725986 84.5007812,7.59471587 C85.3525679,8.60217189 85.1977424,10.0745602 84.1910069,10.8494884 L77.3763435,16.506637 C76.9891565,16.8941011 76.4470208,17.0491608 75.9050083,17.0491608 Z M41.535018,119.730233 L79.9452978,105.781031 C82.3459557,104.928635 84.2044778,103.146251 85.288626,100.898934 C86.3727742,98.5740263 86.450187,96.0167139 85.5984003,93.6918059 L83.1203296,86.7946734 C82.8105554,85.942277 81.8812327,85.4772214 81.029446,85.7872174 C80.1776593,86.0972133 79.7129363,87.0272012 80.0227105,87.8795976 L82.5007812,94.77673 C83.0429169,96.3267098 82.9655042,98.0315025 82.2684197,99.5040142 C81.5714584,100.976402 80.3324848,102.138918 78.7836136,102.758787 L35.649554,118.412781 C34.1008061,118.955304 32.3971094,118.877836 30.8482382,118.180376 C29.3770263,117.482916 28.2153421,116.242932 27.5957936,114.693076 L3.66687396,48.8219575 C2.50531302,45.567185 4.2090097,42.0024166 7.38404155,40.8399009 L50.6729266,25.185907 C52.2217978,24.6433832 53.9254945,24.7208514 55.3968296,25.4183114 C56.9455776,26.1157715 58.029849,27.3557553 58.6492742,28.9056117 L68.4067313,55.9516178 C68.7165055,56.8040142 69.645705,57.2690698 70.497615,56.9589505 C71.3494017,56.6489545 71.8141247,55.71909 71.5043504,54.8665703 L61.7468934,27.7432194 C60.8951066,25.3408433 59.113874,23.4809909 56.8681648,22.3960667 C54.5449197,21.3111426 51.9894363,21.2336744 49.5887784,22.0860708 L6.37730609,37.7400647 C1.42116482,39.5225723 -1.13431856,44.9471931 0.646790859,49.9068817 L24.5757105,115.778 C25.7372715,118.955304 28.4475803,121.202621 31.5453227,121.822613 C31.855097,121.900081 32.5520582,121.977672 32.7842964,121.977672 L33.8684446,121.977672 L41.535018,119.730233 Z" id="Shape"></path>
                <path d="M85.1338006,50.1395329 L82.5781939,48.7446127 C81.5714584,48.202089 80.1001233,48.899549 79.3257493,50.3720607 L58.2620873,89.1197048 C58.1846745,89.2746411 58.1072618,89.5071689 58.1072618,89.6622285 L58.2620873,93.924457 C58.1846745,93.924457 58.1072618,93.924457 58.0297258,94.0019252 L51.5248366,96.4043013 C51.1376496,96.5592376 50.9827008,96.9467017 51.1376496,97.3341658 C51.2150623,97.6441618 51.5247133,97.7992214 51.7570748,97.7992214 C51.8346108,97.7992214 51.9120235,97.7992214 51.9894363,97.7217533 L58.2620873,95.3968453 L58.2620873,95.4743134 C58.2620873,95.9393691 58.6492742,96.1717735 59.0364612,95.9393691 L63.9926025,92.917001 C64.1475512,92.8395329 64.3023767,92.6844732 64.3797895,92.5295369 L85.4434515,53.7818928 C86.2952382,52.3093812 86.1404127,50.6819333 85.1338006,50.1395329 L85.1338006,50.1395329 Z M38.0502119,101.441335 L33.2488961,103.223842 C33.0940706,103.301187 32.9392452,103.456247 32.8618324,103.611183 C32.7842964,103.766243 32.7842964,103.998647 32.8618324,104.153707 C32.9392452,104.463703 33.2488961,104.618762 33.4812576,104.618762 C33.5586704,104.618762 33.6362064,104.618762 33.7136191,104.541048 L38.5149349,102.758787 C38.9019986,102.603727 39.0569474,102.216263 38.9019986,101.828799 C38.8247091,101.673862 38.6697604,101.518803 38.5149349,101.441458 C38.3601094,101.364113 38.2051607,101.363743 38.0502119,101.441458 L38.0502119,101.441335 Z M48.1174432,97.7216299 L41.612554,100.123883 C41.2252438,100.278942 41.0704183,100.666406 41.2252438,101.053871 C41.3027798,101.363867 41.6124307,101.518926 41.8447922,101.518926 C41.922205,101.518926 41.999741,101.518926 42.0771537,101.441335 L48.5820429,99.0389585 C48.9692299,98.8840222 49.1241787,98.4965581 48.9692299,98.109094 C48.8144044,97.7216299 48.4272175,97.5665703 48.1174432,97.7216299 L48.1174432,97.7216299 Z M28.8348906,86.9497331 C28.5251163,86.9497331 28.2927548,86.7946734 28.2153421,86.4846775 C28.0605166,86.0973367 28.2927548,85.7097492 28.6025291,85.5548129 L32.7068837,84.0048332 C33.0940706,83.8498969 33.4812576,84.0824247 33.6362064,84.3924206 C33.7910319,84.7797614 33.5586704,85.1673488 33.2490194,85.3222851 L29.1446648,86.8722649 C28.9897161,86.9497331 28.9123033,86.9497331 28.8348906,86.9497331 L28.8348906,86.9497331 Z M36.4240512,84.0824247 C36.114277,84.0824247 35.8819155,83.927365 35.8045028,83.6173691 C35.649554,83.2300283 35.8819155,82.8424408 36.1916898,82.6875046 L42.6965789,80.2851284 C43.0838892,80.1300688 43.4710762,80.3625966 43.6260249,80.6724692 C43.7808504,81.0600566 43.5484889,81.4475207 43.2387147,81.6025804 L36.7338255,84.0048332 C36.5788767,84.0824247 36.501464,84.0824247 36.4240512,84.0824247 L36.4240512,84.0824247 Z M46.4137465,80.3625966 C46.1039723,80.3625966 45.8717341,80.2076603 45.7941981,79.897541 C45.6393726,79.5102002 45.8717341,79.1226127 46.181385,78.9676764 L52.6863975,76.5653003 C53.0735845,76.410364 53.4607715,76.6427685 53.6157202,76.9527644 C53.7705457,77.3402285 53.5381842,77.727816 53.2285332,77.8827523 L46.7235208,80.2851284 C46.646108,80.3625966 46.5686953,80.3625966 46.4137465,80.3625966 L46.4137465,80.3625966 Z M56.4809778,76.6427685 C56.1712036,76.6427685 55.9388421,76.4878322 55.8614294,76.1778362 C55.7066039,75.7903721 55.9388421,75.402908 56.2486163,75.2478483 L62.7535055,72.8455956 C63.1408158,72.6905359 63.5280028,72.9230637 63.6829515,73.2329363 C63.837777,73.6205238 63.6054155,74.0079879 63.2956413,74.1630475 L56.7907521,76.5653003 C56.6358033,76.6427685 56.5583906,76.6427685 56.4809778,76.6427685 L56.4809778,76.6427685 Z" id="Shape"></path>
            </g>
        </g>
    </g>
</svg>