<?xml version="1.0" encoding="UTF-8"?>
<svg width="48px" height="48px" viewBox="0 0 48 48" version="1.1" xmlns="http://www.w3.org/2000/svg" xmlns:xlink="http://www.w3.org/1999/xlink">
    <title>其他措施背景</title>
    <g id="其他措施背景" stroke="none" stroke-width="1" fill="none" fill-rule="evenodd">
        <g id="编组-19" fill-rule="nonzero">
            <rect id="矩形" fill="#000000" opacity="0" x="0" y="0" width="48" height="48"></rect>
            <path d="M23.1586041,10.7215889 L24.0118203,15.0573857 L22.0944279,11.3809716 C20.6130197,12.3249799 19.0941074,13.3828384 17.5517551,14.5735222 L18.8081394,20.9491359 L16.0890989,15.7357434 C14.8889707,16.7177018 13.6794664,17.7850478 12.4652742,18.9330378 L13.8529225,25.9680341 L10.955738,20.413091 C9.70872974,21.6654437 8.46172152,23.0079278 7.2147133,24.4547746 L8.8977056,32.993543 L5.50828099,26.4993353 C4.68788085,27.5145 3.8721687,28.5676147 3.06114456,29.6729108 C2.43764045,32.0115846 6.78810522,40.706897 6.78810522,40.706897 L4.70194485,45 L9.22586565,41.7837306 C9.22586565,41.7837306 18.8784594,41.4516674 20.2098516,40.2799586 C20.7020917,39.0228622 21.2177718,37.7894845 21.7615799,36.5750819 L16.0187789,36.6604696 L22.7835641,34.3644897 C23.5992762,32.6662235 24.4618684,31.015395 25.3572765,29.4167478 L18.9909714,29.5068792 L26.8433728,26.8503735 C27.7622209,25.3133952 28.7091971,23.8285983 29.6608613,22.4054702 L23.9508763,22.4861142 L31.3297896,19.9861526 C32.4783498,18.3685303 33.62691,16.8362958 34.7660942,15.3989365 L30.5234534,15.4606053 L36.2896945,13.5109199 C39.618175,9.46449247 42.7169436,6.27668562 45,4.13250602 C44.826544,3.83839289 35.2817743,3.38773567 23.1586041,10.7215889 Z M9.87280977,40.5788155 C8.79925758,40.4981716 7.97416943,40.8492098 8.05386545,39.5114695 C19.2910034,17.187334 43.8514398,4.1230185 43.8514398,4.1230185 C43.8514398,4.1230185 15.9062668,23.8570609 9.87280977,40.5788155 Z" id="形状" fill="#4A8BF9" opacity="0.102515811"></path>
        </g>
    </g>
</svg>