<?xml version="1.0" encoding="UTF-8"?>
<svg width="32px" height="32px" viewBox="0 0 32 32" version="1.1" xmlns="http://www.w3.org/2000/svg" xmlns:xlink="http://www.w3.org/1999/xlink">
    <title>qq</title>
    <g id="app-能源经理工具" stroke="none" stroke-width="1" fill="none" fill-rule="evenodd">
        <g id="qq">
            <rect id="矩形" fill="#000000" opacity="0" x="0" y="0" width="32" height="32"></rect>
            <path d="M16,0 C7.16,0 0,7.16 0,16 C0,24.84 7.16,32 16,32 C24.84,32 32,24.84 32,16 C32,7.16 24.84,0 16,0 Z M24.44,20.96 C24.08,21.16 23.48,20.72 22.92,19.88 C22.72,20.76 22.16,21.56 21.4,22.2 C22.2,22.48 22.72,23 22.72,23.52 C22.72,24.44 21.28,25.16 19.52,25.16 C17.92,25.16 16.6,24.56 16.36,23.8 C16.28,23.8 16.04,23.8 15.96,23.8 C15.72,24.56 14.4,25.16 12.8,25.16 C11.04,25.16 9.6,24.44 9.6,23.52 C9.6,22.96 10.12,22.48 10.92,22.2 C10.16,21.56 9.6,20.76 9.4,19.88 C8.84,20.68 8.24,21.12 7.88,20.96 C7.32,20.68 7.44,19.16 8.12,17.6 C8.64,16.36 9.36,15.44 9.92,15.24 C9.92,15.16 9.92,15.08 9.92,15 C9.92,14.52 10.04,14.08 10.28,13.72 C10.28,13.68 10.28,13.68 10.28,13.64 C10.28,13.4 10.32,13.2 10.44,13.04 C10.64,9.76 12.76,7.2 16.2,7.2 C19.64,7.2 21.76,9.76 21.92,13 C22,13.16 22.08,13.4 22.08,13.6 C22.08,13.64 22.08,13.64 22.08,13.68 C22.32,14.04 22.44,14.48 22.44,14.96 C22.44,15.04 22.44,15.12 22.44,15.2 C23,15.4 23.72,16.32 24.24,17.56 C24.88,19.16 25,20.68 24.44,20.96 Z" id="形状" fill="#45B6F1" fill-rule="nonzero"></path>
        </g>
    </g>
</svg>