<?xml version="1.0" encoding="UTF-8"?>
<svg width="30px" height="30px" viewBox="0 0 30 30" version="1.1" xmlns="http://www.w3.org/2000/svg" xmlns:xlink="http://www.w3.org/1999/xlink">
    <title>录音中</title>
    <g id="录音中" stroke="none" stroke-width="1" fill="none" fill-rule="evenodd">
        <g id="加载">
            <rect id="矩形" fill="#000000" opacity="0" x="0" y="0" width="30" height="30"></rect>
            <path d="M22.9193512,26.4123107 C23.2390606,26.9516365 23.0601407,27.6726918 22.4999159,27.9775281 C21.9514237,28.29702 21.2533426,28.1094284 20.9424325,27.5583781 C20.6080576,27.0190523 20.8016431,26.3126527 21.3442691,25.9931607 C21.9132932,25.6765999 22.5996418,25.8700537 22.9193512,26.4123107 L22.9193512,26.4123107 Z M16.1585239,28.8539326 C16.1585239,29.4782609 15.6422959,30 14.9940777,30 C14.3693245,30 13.8472302,29.4899853 13.8472302,28.8539326 L13.8472302,28.0508061 C13.8472302,27.4118222 14.3722576,26.9018075 14.9940777,26.9018075 C15.6334966,26.9018075 16.1585239,27.4118222 16.1585239,28.0508061 L16.1585239,28.8539326 L16.1585239,28.8539326 Z M9.08092031,27.5583781 C8.75534469,28.124084 8.04846426,28.3028823 7.50583821,27.9833903 C6.94854658,27.6697606 6.75202795,26.9692232 7.0805367,26.4093796 L7.93407281,24.9174402 C8.26258156,24.3693209 8.96652887,24.1787982 9.5238205,24.492428 C10.0635134,24.8119199 10.2629652,25.5241817 9.93445643,26.0664387 L9.08092031,27.5583781 Z M3.58719818,22.9242794 C3.02990655,23.234978 2.3171599,23.0473864 2.01211608,22.4992672 C1.68654046,21.9599414 1.87132662,21.2447484 2.422752,20.9252565 L4.71644698,19.5974597 C5.26493927,19.2926234 5.97768592,19.4655594 6.29152911,20.0224719 C6.60243918,20.5617977 6.41178677,21.2769907 5.8662276,21.5964826 L3.58719818,22.9242794 Z M1.1468475,16.1504641 C0.507428689,16.1504641 0,15.6345872 0,15.0043967 C0,14.3654128 0.507428689,13.8495359 1.1468475,13.8495359 L4.7193801,13.8495359 C5.35879891,13.8495359 5.8662276,14.3654128 5.8662276,14.9956033 C5.8662276,15.6345872 5.35879891,16.1504641 4.7193801,16.1504641 L1.1468475,16.1504641 L1.1468475,16.1504641 Z M2.42568513,9.06595017 C1.86839349,8.75525158 1.68654046,8.05178309 2.01504917,7.50073278 C2.32009299,6.94382022 3.02990655,6.75622862 3.59013131,7.07572056 L7.47357397,9.32975086 C8.02206627,9.64338058 8.2039193,10.3439179 7.89887545,10.8861749 C7.57329983,11.4430875 6.8664194,11.6218857 6.32672647,11.3111871 L2.42568513,9.06595017 Z M7.0805367,3.57889594 L9.78486763,8.27161701 C10.1133764,8.81973622 10.8173237,9.01612117 11.365816,8.69076698 C11.9143083,8.38006839 12.0961613,7.66780654 11.7764519,7.11675623 L9.06038851,2.43282854 C8.74947847,1.89057159 8.04553116,1.69418664 7.50290509,2.01367855 C6.94561345,2.33317049 6.76669351,3.03957011 7.0805367,3.57889594 Z M13.8501634,1.15486078 C13.8501634,0.530532504 14.3751907,0 14.9970109,0 C15.6364297,0 16.161457,0.518808022 16.161457,1.15486078 L16.161457,6.55984367 C16.161457,7.19882755 15.645229,7.71470444 14.9970109,7.7234978 C14.3722576,7.7234978 13.8501634,7.21641426 13.8501634,6.55984367 L13.8501634,1.15486078 Z M20.9277669,2.43282854 C21.2562757,1.87591598 21.9514237,1.69418664 22.502849,2.00781632 C23.0601407,2.31851491 23.2566593,3.0219834 22.9281506,3.58182707 L20.2179534,8.27454814 C19.9129096,8.82266735 19.1913636,9.01612117 18.6428713,8.69956033 C18.094379,8.38006839 17.912526,7.66780654 18.223436,7.11675623 L20.9277669,2.43282854 L20.9277669,2.43282854 Z M26.4361546,7.07572056 L21.7343732,9.78407427 C21.1858809,10.0947729 20.9952286,10.7982414 21.3090717,11.358085 C21.6346474,11.8974108 22.3415278,12.0791402 22.8841539,11.777235 L27.5888684,9.0688813 C28.1285613,8.75818271 28.328013,8.05471422 27.9995043,7.50366391 C27.682728,6.94675134 26.9758476,6.74743529 26.4361546,7.07572056 L26.4361546,7.07572056 Z M28.8530404,13.8495359 C29.4983254,13.8495359 30.0086872,14.3654128 29.9998879,15.0043967 C29.9998879,15.6345872 29.5012586,16.1504641 28.8530404,16.1504641 L23.4385124,16.1504641 C22.8137591,16.1504641 22.2887317,15.6345872 22.2887317,14.9956033 C22.2887317,14.3654128 22.8137591,13.8495359 23.4385124,13.8495359 L28.8530404,13.8495359 L28.8530404,13.8495359 Z" id="形状" fill="#FFFFFF" fill-rule="nonzero"></path>
        </g>
    </g>
</svg>