<?xml version="1.0" encoding="UTF-8"?>
<svg width="18px" height="18px" viewBox="0 0 18 18" version="1.1" xmlns="http://www.w3.org/2000/svg" xmlns:xlink="http://www.w3.org/1999/xlink">
    <title>分享</title>
    <g id="分享" stroke="none" stroke-width="1" fill="none" fill-rule="evenodd">
        <g fill-rule="nonzero">
            <rect id="矩形" fill="#000000" opacity="0" x="0" y="0" width="18" height="18"></rect>
            <path d="M8.98242188,1.125 C4.63183594,1.125 1.10742188,4.64941406 1.10742188,9 C1.10742188,13.3488281 4.63359375,16.875 8.98242188,16.875 C13.33125,16.875 16.8574219,13.3488281 16.8574219,9 C16.8574219,4.64941406 13.33125,1.125 8.98242188,1.125 Z M7.80820312,9 C7.80820312,9.17929688 7.77128906,9.3515625 7.70625,9.50800781 L9.871875,10.9511719 C10.0828125,10.8017578 10.3412109,10.7138672 10.6189453,10.7138672 C11.3378906,10.7138672 11.9214844,11.2974609 11.9214844,12.0164062 C11.9214844,12.7353516 11.3378906,13.3189453 10.6189453,13.3189453 C9.9,13.3189453 9.31640625,12.7353516 9.31640625,12.0164062 C9.31640625,11.9162109 9.32871094,11.8195312 9.34980469,11.7246094 L7.04003906,10.1847656 C6.8765625,10.2585937 6.69550781,10.3007812 6.50390625,10.3007812 C5.78496094,10.3007812 5.20136719,9.7171875 5.20136719,8.99824219 C5.20136719,8.27929688 5.78496094,7.69570312 6.50390625,7.69570312 C6.69550781,7.69570312 6.8765625,7.73789062 7.04003906,7.81171875 L9.34980469,6.271875 C9.32871094,6.17871094 9.31640625,6.08027344 9.31640625,5.98007812 C9.31640625,5.26113281 9.9,4.67753906 10.6189453,4.67753906 C11.3378906,4.67753906 11.9214844,5.26113281 11.9214844,5.98007812 C11.9214844,6.69902344 11.3378906,7.28261719 10.6189453,7.28261719 C10.3412109,7.28261719 10.0828125,7.19472656 9.871875,7.0453125 L7.70625,8.48847656 C7.77128906,8.6484375 7.80820312,8.81894531 7.80820312,9 Z" id="形状" fill="#1283FF"></path>
        </g>
    </g>
</svg>