<?xml version="1.0" encoding="UTF-8"?>
<svg width="16px" height="16px" viewBox="0 0 16 16" version="1.1" xmlns="http://www.w3.org/2000/svg" xmlns:xlink="http://www.w3.org/1999/xlink">
    <title>尚未执行</title>
    <g id="尚未执行" stroke="none" stroke-width="1" fill="none" fill-rule="evenodd">
        <g id="编组" fill="#D3D3D3" fill-rule="nonzero">
            <g id="5.Element/Icon/20x20/Checkbox/Selected备份-4">
                <path d="M8.00016316,0 C3.58177053,0 0,3.5815891 0,8.00004079 C0,12.4180846 3.58177053,16 8,16 C12.4182295,16 16,12.4180846 16,8.00004079 C16,3.5815891 12.4182295,0 8.00008158,0 L8.00016316,0 Z M12.2883511,5.88822321 L7.31047001,10.8659974 C7.21048033,10.9660323 7.07483774,11.0222352 6.9333986,11.0222352 C6.79195946,11.0222352 6.65631687,10.9660323 6.55632718,10.8659974 L4.06742742,8.37711028 C3.96741196,8.27711049 3.91122259,8.14147257 3.91122259,8.00004079 C3.91122259,7.85860901 3.96741196,7.72297109 4.06742742,7.6229713 C4.16744165,7.52295139 4.30309377,7.46676027 4.44453962,7.46676027 C4.58598548,7.46676027 4.7216376,7.52295139 4.82165183,7.6229713 L6.93348018,9.7347073 L11.5341267,5.13400264 C11.7424,4.92573038 12.0800778,4.92573038 12.2883511,5.13400264 C12.4966244,5.3422749 12.4966244,5.67995095 12.2883511,5.88822321 Z" id="Shape"></path>
            </g>
        </g>
    </g>
</svg>