<?xml version="1.0" encoding="UTF-8"?>
<svg width="32px" height="32px" viewBox="0 0 32 32" version="1.1" xmlns="http://www.w3.org/2000/svg" xmlns:xlink="http://www.w3.org/1999/xlink">
    <title>朋友圈</title>
    <g id="app-能源经理工具" stroke="none" stroke-width="1" fill="none" fill-rule="evenodd">
        <g id="朋友圈">
            <rect id="矩形" fill="#000000" opacity="0" x="0" y="0" width="32" height="32"></rect>
            <path d="M16,31.3239375 C24.4507188,31.3239375 31.3239375,24.4507188 31.3239375,16 C31.3239375,7.54928125 24.4507188,0.6760625 16,0.6760625 C7.54928125,0.6760625 0.6760625,7.54928125 0.6760625,16 C0.6760625,24.4507188 7.54928125,31.3239375 16,31.3239375 L16,31.3239375 Z M19.2675937,13.4084375 L12.6197188,6.87321875 C12.6197188,6.87321875 13.9718438,6.30984375 15.8873125,6.30984375 C17.8027812,6.30984375 19.1549062,6.87321875 19.1549062,6.87321875 L19.1549062,13.4084375 L19.2675937,13.4084375 Z M20.169,16.563375 L20.169,7.3239375 C20.169,7.3239375 21.521125,7.8873125 22.8732188,9.2394375 C24.2253438,10.5915625 24.7887188,11.9436562 24.7887188,11.9436562 L20.169,16.563375 Z M18.5915625,19.2675937 L25.1267813,12.6197188 C25.1267813,12.6197188 25.6901563,13.9718438 25.6901563,15.8873125 C25.6901563,17.9154687 25.1267813,19.1549062 25.1267813,19.1549062 L18.5915625,19.1549062 L18.5915625,19.2675937 L18.5915625,19.2675937 Z M15.4365937,20.0563125 L24.6760625,20.0563125 C24.6760625,20.0563125 24.1126875,21.4084688 22.7605625,22.7605625 C21.4084375,24.2253438 20.169,24.7887187 20.169,24.7887187 L15.4365937,20.0563125 L15.4365937,20.0563125 Z M12.7324063,18.478875 L19.3802813,25.0140938 C19.3802813,25.0140938 18.0281563,25.5774688 16.1126875,25.5774688 C14.1972188,25.5774688 12.8450938,25.0140938 12.8450938,25.0140938 L12.8450938,18.478875 L12.7324063,18.478875 L12.7324063,18.478875 Z M11.9436562,15.436625 L11.9436562,24.6760625 C11.9436562,24.6760625 10.5915312,24.1126875 9.2394375,22.7605625 C7.8873125,21.4084375 7.3239375,20.0563438 7.3239375,20.0563438 L11.9436562,15.436625 Z M13.521125,12.7324063 L6.98590625,19.3802813 C6.98590625,19.3802813 6.42253125,18.0281563 6.42253125,16.1126875 C6.42253125,14.0845313 6.98590625,12.8450938 6.98590625,12.8450938 L13.521125,12.8450938 L13.521125,12.7324063 Z M16.563375,11.831 L7.3239375,11.831 C7.3239375,11.831 7.8873125,10.478875 9.2394375,9.12678125 C10.5915625,7.77465625 11.9436562,7.21128125 11.9436562,7.21128125 L16.563375,11.831 Z" id="形状" fill="#00C800" fill-rule="nonzero"></path>
        </g>
    </g>
</svg>