<?xml version="1.0" encoding="UTF-8"?>
<svg width="32px" height="32px" viewBox="0 0 32 32" version="1.1" xmlns="http://www.w3.org/2000/svg" xmlns:xlink="http://www.w3.org/1999/xlink">
    <title>微信登录</title>
    <g id="app-能源经理工具" stroke="none" stroke-width="1" fill="none" fill-rule="evenodd">
        <g id="微信登录">
            <rect id="矩形" fill="#000000" opacity="0" x="0" y="0" width="32" height="32"></rect>
            <path d="M10.8665349,11.0320062 C10.3513125,11.0320062 9.93601191,11.4504293 9.93601191,11.9625293 C9.93601191,12.4746292 10.3513124,12.8961749 10.8665349,12.8961749 C11.3817574,12.8961749 11.797058,12.4777518 11.797058,11.9656518 C11.797058,11.4535519 11.3817574,11.0320062 10.8665349,11.0320062 L10.8665349,11.0320062 Z M18.0546692,15.9937549 C17.6268784,15.9937549 17.2771516,16.3403591 17.2771516,16.7712724 C17.2771516,17.1990632 17.6237558,17.54879 18.0546692,17.54879 C18.48246,17.54879 18.8321868,17.1990632 18.8321868,16.7712724 C18.8321868,16.3434817 18.48246,15.9937549 18.0546692,15.9937549 L18.0546692,15.9937549 Z M15.6534202,12.8961749 C16.1686427,12.8961749 16.5839432,12.4777518 16.5839432,11.9656518 C16.5839432,11.4535519 16.1655201,11.0351288 15.6534202,11.0351288 C15.1381977,11.0351288 14.7228972,11.4535519 14.7228972,11.9656518 C14.7228972,12.4777518 15.1381977,12.8961749 15.6534202,12.8961749 Z M21.8267223,15.9875097 C21.3989315,15.9875097 21.0492047,16.334114 21.0492047,16.7650273 C21.0492047,17.1928181 21.3958089,17.5425449 21.8267223,17.5425449 C22.2545131,17.5425449 22.6042398,17.1959407 22.6042398,16.7650273 C22.6011173,16.3372365 22.2545131,15.9875097 21.8267223,15.9875097 Z" id="形状" fill="#00C800" fill-rule="nonzero"></path>
            <path d="M15.9875342,0.0249804687 C7.16005563,0.0249804687 2.440625e-05,7.18188916 2.440625e-05,16.0124903 C2.440625e-05,24.8430913 7.15693306,32 15.9875342,32 C24.8181353,32 31.9750439,24.8430913 31.9750439,16.0124903 C31.9750439,7.18188916 24.8181353,0.0249804687 15.9875342,0.0249804687 Z M13.167862,19.8532397 C12.3122805,19.8532397 11.6253172,19.6783763 10.766613,19.509758 L8.37160909,20.7119438 L9.05544984,18.6510539 C7.33804156,17.4519907 6.31384172,15.9063232 6.31384172,14.0234192 C6.31384172,10.7634661 9.3989315,8.19359875 13.167862,8.19359875 C16.5371048,8.19359875 19.491047,10.245121 20.0843335,13.0054645 C19.8657543,12.980484 19.6471751,12.9648712 19.4254732,12.9648712 C16.1717652,12.9648712 13.5987753,15.3942233 13.5987754,18.3887588 C13.5987754,18.8883685 13.6768394,19.3661202 13.8111095,19.8251366 C13.5987754,19.843872 13.3833187,19.8532397 13.167862,19.8532397 L13.167862,19.8532397 Z M23.2787129,22.2544887 L23.7939354,23.9656518 L21.914154,22.9383294 C21.2303132,23.1100702 20.5402273,23.2818111 19.8563866,23.2818111 C16.5964335,23.2818111 14.0265662,21.0523029 14.0265662,18.3075722 C14.0265662,15.5690867 16.5933109,13.3333333 19.8563866,13.3333333 C22.9352313,13.3333333 25.6768465,15.5659641 25.6768465,18.3075722 C25.6799619,19.8532397 24.6526395,21.2209212 23.2787129,22.2544887 L23.2787129,22.2544887 Z" id="形状" fill="#00C800" fill-rule="nonzero"></path>
        </g>
    </g>
</svg>