<?xml version="1.0" encoding="UTF-8"?>
<svg width="18px" height="18px" viewBox="0 0 18 18" version="1.1" xmlns="http://www.w3.org/2000/svg" xmlns:xlink="http://www.w3.org/1999/xlink">
    <title>其他措施</title>
    <g id="其他措施" stroke="none" stroke-width="1" fill="none" fill-rule="evenodd">
        <g id="工作" fill-rule="nonzero">
            <rect id="矩形" fill="#000000" opacity="0" x="0" y="0" width="18" height="18"></rect>
            <path d="M16.7142857,9.66342857 L11.268,9.66342857 L11.268,8.77885715 L6.732,8.77885715 L6.732,9.66171428 L1.28571429,9.66171428 L1.28571429,5.25428572 C1.28571429,4.28057143 2.09828572,3.492 3.10114286,3.492 L5.82342857,3.492 L5.82342857,2.60742858 C5.82342857,1.87714287 6.432,1.28571429 7.18457142,1.28571429 L10.8154286,1.28571429 C11.568,1.28571429 12.1765714,1.87714285 12.1765714,2.60742858 L12.1765714,3.49028571 L14.8988571,3.49028571 C15.9017143,3.49028571 16.7142857,4.27885714 16.7142857,5.25257143 L16.7142857,9.66171428 L16.7142857,9.66342857 Z M16.7142857,10.5445714 L16.7142857,14.952 C16.7142857,15.9274286 15.9017143,16.716 14.8988571,16.716 L3.10285714,16.716 C2.09828572,16.716 1.28571429,15.9274286 1.28571429,14.952 L1.28571429,10.5462857 L6.732,10.5462857 L6.732,11.4257143 L11.268,11.4257143 L11.268,10.5445714 L16.7142857,10.5445714 Z M11.268,3.492 L11.268,2.60742858 C11.2633114,2.3623344 11.0622743,2.16664813 10.8171429,2.16857144 L7.18457142,2.16857144 C6.93811723,2.16570975 6.73576072,2.36270075 6.732,2.60914287 L6.732,3.492 L11.268,3.492 L11.268,3.492 Z" id="形状" fill="#1283FF"></path>
        </g>
    </g>
</svg>