<?xml version="1.0" encoding="UTF-8"?>
<svg width="20px" height="20px" viewBox="0 0 20 20" version="1.1" xmlns="http://www.w3.org/2000/svg" xmlns:xlink="http://www.w3.org/1999/xlink">
    <title>收起箭头</title>
    <g id="收起箭头" stroke="none" stroke-width="1" fill="none" fill-rule="evenodd">
        <g id="编组" transform="translate(-0.000000, 0.000000)">
            <g id="5.Element/Arrow/UpDown备份" transform="translate(10.000000, 10.000000) rotate(-180.000000) translate(-10.000000, -10.000000) ">
                <g id="Icon" transform="translate(10.000000, 10.000000) rotate(-270.000000) translate(-10.000000, -10.000000) ">
                    <rect id="mask" x="0" y="0" width="20" height="20"></rect>
                    <path d="M12.9368955,9.85137227 L7.44748736,4.06807064 C7.3623135,3.97836665 7.2230982,3.97716049 7.13652144,4.06541091 C7.04989991,4.15359947 7.0487358,4.29790521 7.13390966,4.3876092 L12.4703272,10.0098117 L7.06440648,15.6110456 C6.97853117,15.7000228 6.97853117,15.8442667 7.06440648,15.9332439 C7.10731429,15.9777634 7.16363917,16 7.21988944,16 C7.27621433,16 7.3324646,15.9777634 7.3754321,15.9332439 L12.9355523,10.1723026 C13.0209649,10.0838047 13.021547,9.94058142 12.9368955,9.85137227 Z" id="arrow" fill="#4A4A4A"></path>
                </g>
            </g>
        </g>
    </g>
</svg>