<?xml version="1.0" encoding="UTF-8"?>
<svg width="16px" height="16px" viewBox="0 0 16 16" version="1.1" xmlns="http://www.w3.org/2000/svg" xmlns:xlink="http://www.w3.org/1999/xlink">
    <title>未完成</title>
    <g id="未完成" stroke="none" stroke-width="1" fill="none" fill-rule="evenodd">
        <g id="编组-13">
            <path d="M8.00008158,0 C12.4182295,0 16,3.5815891 16,8.00004079 C16,12.4180846 12.4182295,16 8,16 C3.58177053,16 0,12.4180846 0,8.00004079 C0,3.5815891 3.58177053,0 8.00016316,0 Z M8,10.49375 C7.61340068,10.49375 7.3,10.8071507 7.3,11.19375 C7.3,11.5803493 7.61340068,11.89375 8,11.89375 C8.38659932,11.89375 8.7,11.5803493 8.7,11.19375 C8.7,10.8071507 8.38659932,10.49375 8,10.49375 Z M8.35,4.10625 L7.65,4.10625 C7.601875,4.10625 7.5625,4.145625 7.5625,4.19375 L7.5625,9.26875 C7.5625,9.316875 7.601875,9.35625 7.65,9.35625 L8.35,9.35625 C8.398125,9.35625 8.4375,9.316875 8.4375,9.26875 L8.4375,4.19375 C8.4375,4.145625 8.398125,4.10625 8.35,4.10625 Z" id="形状结合" fill="#F75B57" fill-rule="nonzero"></path>
            <g id="1.Icon/Outline/Prompt/Exclaimination" transform="translate(9.000000, 5.000000)"></g>
        </g>
    </g>
</svg>