<?xml version="1.0" encoding="UTF-8"?>
<svg width="30px" height="40px" viewBox="0 0 30 40" version="1.1" xmlns="http://www.w3.org/2000/svg" xmlns:xlink="http://www.w3.org/1999/xlink">
    <title>计划任务背景</title>
    <defs>
        <path d="M6.19296552,3.76623377 L6.19296552,5.64935065 C6.19296552,7.72727273 7.96193103,9.41558442 10.124,9.41558442 C12.286069,9.41558442 14.0550345,7.72727273 14.0550345,5.64935065 L14.0550345,3.76623377 L16.0205517,3.76623377 L16.0205517,5.64935065 C16.0205517,7.72727273 17.7895172,9.41558442 19.9515862,9.41558442 C22.1136552,9.41558442 23.8826207,7.72727273 23.8826207,5.64935065 L23.8826207,3.76623377 L27.1584828,3.76623377 C28.2722759,3.76623377 29.124,4.61038961 29.124,5.64935065 L29.124,38.1168831 C28.9929655,39.1558442 28.1412414,40 27.0274483,40 L0,40 L0,33.766 L22.1136552,33.7662338 C22.9653793,33.7662338 23.7515862,33.0519481 23.7515862,32.2077922 C23.7515862,31.3636364 23.0308966,30.6493506 22.1791724,30.6493506 L0,30.649 L0,26.298 L21.786069,26.2987013 C22.8998621,26.2987013 23.7515862,25.4545455 23.7515862,24.4155844 C23.7515862,23.3766234 22.8998621,22.5324675 21.8515862,22.5324675 L0,22.532 L0,18.181 L21.786069,18.1818182 C22.8998621,18.1818182 23.7515862,17.3376623 23.7515862,16.2987013 C23.7515862,15.2597403 22.8998621,14.4155844 21.8515862,14.4155844 L0.0273257991,14.4152194 C0.117967598,12.6614895 0.434517812,10.9674991 0.948435676,9.36178903 C2.80390594,9.06389493 4.22744828,7.51338867 4.22744828,5.64935065 L4.22744828,3.76623377 L6.19296552,3.76623377 Z M19.886069,0 C20.9998621,0 21.8515862,0.844155844 21.8515862,1.88311688 L21.8515862,5.64935065 C21.8515862,6.68831169 20.9343448,7.53246753 19.886069,7.53246753 C18.7722759,7.53246753 17.9205517,6.68831169 17.9205517,5.64935065 L17.9205517,1.88311688 C17.9205517,0.844155844 18.7722759,0 19.886069,0 Z M10.0584828,0 C11.1067586,0 12.024,0.844155844 12.024,1.88311688 L12.024,5.64935065 C12.024,6.68831169 11.1722759,7.53246753 10.0584828,7.53246753 C9.0102069,7.53246753 8.09296552,6.68831169 8.09296552,5.64935065 L8.09296552,1.88311688 C8.09296552,0.844155844 9.0102069,0 10.0584828,0 Z" id="path-1"></path>
    </defs>
    <g id="app-能源经理工具" stroke="none" stroke-width="1" fill="none" fill-rule="evenodd">
        <mask id="mask-2" fill="white">
            <use xlink:href="#path-1"></use>
        </mask>
        <use id="计划任务背景" fill="#4A8AF8" fill-rule="nonzero" opacity="0.0953311012" xlink:href="#path-1"></use>
    </g>
</svg>