<?xml version="1.0" encoding="UTF-8"?>
<svg width="18px" height="19px" viewBox="0 0 18 19" version="1.1" xmlns="http://www.w3.org/2000/svg" xmlns:xlink="http://www.w3.org/1999/xlink">
    <title>编组 10</title>
    <g id="EMS-icon" stroke="none" stroke-width="1" fill="none" fill-rule="evenodd">
        <g id="编组-10" transform="translate(0.000000, 0.166667)">
            <circle id="椭圆形" fill="#71CEDA" cx="9" cy="9" r="9"></circle>
            <g id="编组-24" transform="translate(3.500000, 4.500000)">
                <path d="M3.18277381,8.07516786 L0.679306549,8.82620804 L0.679306549,8.82620804 C0.441259766,8.89762207 0.190392206,8.76253954 0.118978172,8.52449276 C0.106393468,8.48254374 0.1,8.43898226 0.1,8.39518621 L0.1,1.41481379 C0.1,1.21609009 0.230350669,1.0408948 0.420693451,0.983791965 L3.18277381,0.155167858 C3.52016352,0.0539509427 3.87983648,0.0539509427 4.21722619,0.155167858 L6.78277381,0.924832142 C7.12016352,1.02604906 7.47983648,1.02604906 7.81722619,0.924832142 L10.3206935,0.173791965 L10.3206935,0.173791965 C10.5587402,0.10237793 10.8096078,0.237460462 10.8810218,0.475507244 C10.8936065,0.517456256 10.9,0.561017739 10.9,0.604813793 L10.9,7.58518621 C10.9,7.78390991 10.7696493,7.9591052 10.5793065,8.01620804 L7.81722619,8.84483214 C7.47983648,8.94604906 7.12016352,8.94604906 6.78277381,8.84483214 L4.21722619,8.07516786 C3.87983648,7.97395094 3.52016352,7.97395094 3.18277381,8.07516786 Z" id="路径" fill="#FFFFFF"></path>
                <path d="M4.02069345,1.88379196 L6.72069345,1.07379196 C6.95874023,1.00237793 7.20960779,1.13746046 7.28102183,1.37550724 C7.29360653,1.41745626 7.3,1.46101774 7.3,1.50481379 L7.3,6.68518621 C7.3,6.88390991 7.16964933,7.0591052 6.97930655,7.11620804 L4.27930655,7.92620804 C4.04125977,7.99762207 3.79039221,7.86253954 3.71897817,7.62449276 C3.70639347,7.58254374 3.7,7.53898226 3.7,7.49518621 L3.7,2.31481379 C3.7,2.11609009 3.83035067,1.9408948 4.02069345,1.88379196 Z" id="矩形" fill="#71CEDA" transform="translate(5.500000, 4.500000) scale(-1, 1) translate(-5.500000, -4.500000) "></path>
                <path d="M5.97126958,2.99028811 L5.71574984,4.1148637 C5.69372359,4.21180411 5.7544535,4.30824564 5.85139391,4.33027189 C5.8644796,4.33324515 5.87785674,4.33474576 5.89127597,4.33474576 L6.46852928,4.33474576 C6.56794053,4.33474576 6.64852928,4.41533451 6.64852928,4.51474576 C6.64852928,4.55650158 6.63401225,4.59695849 6.60746428,4.62918818 L5.34319154,6.16403636 C5.27998674,6.24076804 5.16654581,6.25173375 5.08981413,6.18852895 C5.03728774,6.14526233 5.01365243,6.07607209 5.02873042,6.00971189 L5.28425016,4.8851363 C5.30627641,4.78819589 5.2455465,4.69175436 5.14860609,4.66972811 C5.1355204,4.66675485 5.12214326,4.66525424 5.10872403,4.66525424 L4.53147072,4.66525424 C4.43205947,4.66525424 4.35147072,4.58466549 4.35147072,4.48525424 C4.35147072,4.44349842 4.36598775,4.40304151 4.39253572,4.37081182 L5.65680846,2.83596364 C5.72001326,2.75923196 5.83345419,2.74826625 5.91018587,2.81147105 C5.96271226,2.85473767 5.98634757,2.92392791 5.97126958,2.99028811 Z" id="矩形" fill="#FFFFFF"></path>
            </g>
        </g>
    </g>
</svg>