<?xml version="1.0" encoding="UTF-8"?>
<svg width="18px" height="18px" viewBox="0 0 18 18" version="1.1" xmlns="http://www.w3.org/2000/svg" xmlns:xlink="http://www.w3.org/1999/xlink">
    <title>编组 9</title>
    <g id="EMS-icon" stroke="none" stroke-width="1" fill="none" fill-rule="evenodd">
        <g id="编组-9">
            <circle id="椭圆形" fill="#F2D159" cx="9" cy="9" r="9"></circle>
            <g id="编组-23" transform="translate(4.000000, 4.000000)">
                <path d="M3.71158072,2.7 L6.2835192,2.7 C7.36612638,2.70000496 8.34405456,3.3466599 8.76794391,4.34283064 C9.0484739,5.00209646 9.27749548,5.65448625 9.45500866,6.3 C9.69296583,7.16531396 9.84516052,8.04298383 9.91159272,8.93300961 C9.94859052,9.42868706 9.57675714,9.86050563 9.08107969,9.89750337 C9.05878833,9.89916721 9.03644272,9.9 9.01408935,9.9 L0.9806653,9.9 C0.483608357,9.90000121 0.0806640901,9.49705694 0.0806640901,9 C0.0806640901,8.97812454 0.0814616487,8.95625635 0.0830551767,8.934439 C0.146309394,8.06841151 0.300345824,7.19026517 0.545164466,6.3 C0.725900138,5.64276788 0.9524798,4.99214056 1.22490345,4.34811804 C1.64749127,3.34912404 2.62688284,2.7 3.71158072,2.7 Z" id="矩形" fill="#FFFFFF"></path>
                <path d="M3.65,6.75 C3.40147186,6.75 3.2,6.54852814 3.2,6.3 C3.2,6.05147186 3.40147186,5.85 3.65,5.85 L4.289,5.84989057 L3.48528857,4.4558657 C3.3610245,4.24063402 3.43476832,3.96541834 3.65,3.84115427 C3.86523168,3.7168902 4.14044736,3.79063402 4.26471143,4.0058657 L5,5.27839057 L5.73528857,4.0058657 C5.84574552,3.81454866 6.07547288,3.73502448 6.27632383,3.80698901 L6.35,3.84115427 C6.54131705,3.95161122 6.62084122,4.18133858 6.54887669,4.38218953 L6.51471143,4.4558657 L5.7101,5.84989057 L6.35,5.85 C6.59852814,5.85 6.8,6.05147186 6.8,6.3 C6.8,6.54852814 6.59852814,6.75 6.35,6.75 L5.45,6.75 L5.4491,7.19989057 L6.35,7.2 C6.59852814,7.2 6.8,7.40147186 6.8,7.65 C6.8,7.89852814 6.59852814,8.1 6.35,8.1 L5.4491,8.09989057 L5.45,8.55 C5.45,8.79852814 5.24852814,9 5,9 C4.75147186,9 4.55,8.79852814 4.55,8.55 L4.5491,8.09989057 L3.65,8.1 C3.40147186,8.1 3.2,7.89852814 3.2,7.65 C3.2,7.40147186 3.40147186,7.2 3.65,7.2 L4.5491,7.19989057 L4.55,6.75 L3.65,6.75 Z" id="路径" fill="#F2D159"></path>
                <path d="M3.51155965,0 L4.00227844,0 C4.1668044,-2.52267533e-16 4.32818268,0.0450992923 4.46887146,0.130395584 L4.62491318,0.225 C4.85300228,0.363285047 5.13905976,0.363285047 5.36714886,0.225 L5.52319058,0.130395584 C5.66387936,0.0450992923 5.82525764,1.14044595e-15 5.9897836,0 L6.48050239,0 C6.85996943,-2.95719099e-16 7.16758824,0.307618816 7.16758824,0.687085857 C7.16758824,0.772653118 7.15160507,0.857467545 7.12041811,0.937148984 C7.09609575,0.999390313 7.06834943,1.06200732 7.03717915,1.125 C6.89062446,1.42117552 6.67659723,1.70904619 6.39509748,1.98861202 C6.22648306,2.15603122 5.99851188,2.25 5.76089872,2.25 L4.23889989,2.25 C3.99909172,2.24999992 3.7692001,2.15429467 3.60023644,1.98412054 C3.30753766,1.68932484 3.09241981,1.40295133 2.95488289,1.125 C2.92204048,1.05862808 2.89314652,0.991775929 2.86820099,0.924443537 C2.73656475,0.56912679 2.91789102,0.174372199 3.2732069,0.0427336088 C3.34949574,0.0144698667 3.43020347,-9.60774154e-17 3.51155965,0 Z" id="矩形" fill="#FFFFFF"></path>
            </g>
        </g>
    </g>
</svg>