<?xml version="1.0" encoding="UTF-8"?>
<svg width="18px" height="19px" viewBox="0 0 18 19" version="1.1" xmlns="http://www.w3.org/2000/svg" xmlns:xlink="http://www.w3.org/1999/xlink">
    <title>编组 29</title>
    <g id="EMS-icon" stroke="none" stroke-width="1" fill="none" fill-rule="evenodd">
        <g id="编组-29" transform="translate(0.000000, 0.666667)">
            <circle id="椭圆形备份" fill="#85E2A5" cx="9" cy="9" r="9"></circle>
            <g id="编组-26" transform="translate(3.000000, 3.000000)">
                <path d="M7.8,0.998774645 L8.25,2.79877464 L3.75,2.79877464 L3.75,1.44877464 L7.8,0.998774645 Z" id="矩形" stroke="#FFFFFF" stroke-width="0.9"></path>
                <rect id="矩形" fill="#FFFFFF" x="0.6" y="2.3255353" width="10.8" height="8.10118295" rx="0.9"></rect>
                <rect id="矩形" fill="#85E2A5" x="0.6" y="3.6755353" width="10.8" height="1"></rect>
                <path d="M10.5112826,6.41879602 C11.0349801,6.41879602 11.5102579,6.61524459 11.8538511,6.9365266 C12.1861405,7.24723871 12.3946159,7.67564744 12.3946159,8.1506142 C12.3946159,8.78536094 11.823105,9.72031798 10.7763553,10.9733492 C9.20484988,9.65249005 8.62794924,8.76615909 8.62794924,8.1506142 C8.62794924,7.67564744 8.83642467,7.24723871 9.16871401,6.9365266 C9.51230727,6.61524459 9.98758507,6.41879602 10.5112826,6.41879602 Z" id="椭圆形" stroke="#FFFFFF" stroke-width="0.9" fill="#85E2A5"></path>
                <path d="M10.5112826,5.51879602 C11.2762495,5.51879602 11.9676384,5.81076409 12.4685457,6.27914495 C12.9807569,6.7580957 13.2946159,7.42059606 13.2946159,8.1506142 C13.2946159,8.95236221 12.6289552,10.2087003 11.1735038,11.8965383 C8.30890037,10.1427519 7.72794924,8.9271681 7.72794924,8.1506142 C7.72794924,7.42059606 8.04180827,6.7580957 8.55401948,6.27914495 C9.05492679,5.81076409 9.74631566,5.51879602 10.5112826,5.51879602 Z" id="椭圆形" stroke="#85E2A5" stroke-width="0.9"></path>
                <circle id="椭圆形" stroke="#FFFFFF" stroke-width="0.8" cx="10.5112826" cy="8.30212935" r="1"></circle>
            </g>
        </g>
    </g>
</svg>