<?xml version="1.0" encoding="UTF-8"?>
<svg width="16px" height="16px" viewBox="0 0 16 16" version="1.1" xmlns="http://www.w3.org/2000/svg" xmlns:xlink="http://www.w3.org/1999/xlink">
    <title>项目信息配置点击</title>
    <g id="后台" stroke="none" stroke-width="1" fill="none" fill-rule="evenodd">
        <g id="项目信息配置点击" fill="#004EBF" fill-rule="nonzero">
            <path d="M4.22588235,10.9714443 C5.38362258,10.9714443 6.4006525,11.7180736 6.71670589,12.8000184 L16,12.8000184 L16,14.1714489 L6.71670589,14.1714489 C6.40064373,15.2533846 5.38361596,16 4.22588236,16 C3.06814876,16 2.05112099,15.2533846 1.73505882,14.1714489 L0,14.1714489 L0,12.8000184 L1.73505882,12.8000184 C2.05111222,11.7180736 3.06814213,10.9714443 4.22588235,10.9714443 Z M4.22588235,12.3428748 C3.57613558,12.3428748 3.04941176,12.8545502 3.04941176,13.4857336 C3.04941176,14.1169171 3.57613558,14.6285924 4.22588235,14.6285924 C4.87562911,14.6285924 5.40235294,14.1169171 5.40235294,13.4857336 C5.40235294,12.8545502 4.87562911,12.3428748 4.22588235,12.3428748 L4.22588235,12.3428748 Z M11.7552941,5.48572215 C12.9130344,5.48572215 13.9300643,6.23235144 14.2461177,7.31429622 L16,7.31429622 L16,8.68572676 L14.2461177,8.68572676 C13.9300555,9.76766243 12.9130277,10.5142778 11.7552941,10.5142778 C10.5975605,10.5142778 9.58053275,9.76766243 9.26447059,8.68572676 L0,8.68572676 L0,7.31429622 L9.26447059,7.31429622 C9.58052398,6.23235143 10.5975539,5.48572215 11.7552941,5.48572215 Z M11.7552941,6.85715269 C11.1055474,6.85715269 10.5788235,7.368828 10.5788235,8.00001148 C10.5788235,8.63119496 11.1055474,9.14287027 11.7552941,9.14287027 C12.4050409,9.14287027 12.9317647,8.63119496 12.9317647,8.00001148 C12.9317647,7.368828 12.4050409,6.85715269 11.7552941,6.85715269 Z M4.22588235,0 C5.38362258,0 6.4006525,0.746629278 6.71670589,1.82857407 L16,1.82857407 L16,3.2000046 L6.71670589,3.2000046 C6.40064373,4.28194028 5.38361596,5.02855569 4.22588236,5.02855569 C3.06814876,5.02855569 2.05112099,4.28194028 1.73505882,3.2000046 L0,3.2000046 L0,1.82857407 L1.73505882,1.82857407 C2.05111222,0.746629285 3.06814213,0 4.22588235,0 Z M4.22588235,1.37143054 C3.80556988,1.37143054 3.41718514,1.58925818 3.20702891,1.94285992 C2.99687267,2.29646167 2.99687267,2.73211698 3.20702891,3.08571872 C3.41718514,3.43932047 3.80556988,3.65714811 4.22588235,3.65714811 C4.87562911,3.65714811 5.40235294,3.1454728 5.40235294,2.51428932 C5.40235294,1.88310585 4.87562911,1.37143054 4.22588235,1.37143054 Z" id="形状"></path>
        </g>
    </g>
</svg>