<?xml version="1.0" encoding="UTF-8"?>
<svg width="16px" height="15px" viewBox="0 0 16 15" version="1.1" xmlns="http://www.w3.org/2000/svg" xmlns:xlink="http://www.w3.org/1999/xlink">
    <title>知识库-hover</title>
    <g id="后台" stroke="none" stroke-width="1" fill="none" fill-rule="evenodd">
        <g id="知识库-hover" fill="#004EBF" fill-rule="nonzero">
            <path d="M4.16666667,0 C4.62690396,0 5,0.373096042 5,0.833333333 L5,0.833333333 L5,14.1666667 C5,14.626904 4.62690396,15 4.16666667,15 L4.16666667,15 L0.833333333,15 C0.373096042,15 0,14.626904 0,14.1666667 L0,14.1666667 L0,0.833333333 C0,0.373096042 0.373096042,0 0.833333333,0 L0.833333333,0 Z M4.16666667,5.83333333 L0.833333333,5.83333333 L0.833333333,6.66666667 L4.16666667,6.66666667 L4.16666667,5.83333333 Z M4.16666667,4.16666667 L0.833333333,4.16666667 L0.833333333,5 L4.16666667,5 L4.16666667,4.16666667 Z M4.16666667,1.66666667 L0.833333333,1.66666667 L0.833333333,3.33333333 L4.16666667,3.33333333 L4.16666667,1.66666667 Z" id="形状结合"></path>
            <path d="M15.1666667,0 C15.626904,0 16,0.373096042 16,0.833333333 L16,0.833333333 L16,14.1666667 C16,14.626904 15.626904,15 15.1666667,15 L15.1666667,15 L11.8333333,15 C11.373096,15 11,14.626904 11,14.1666667 L11,14.1666667 L11,0.833333333 C11,0.373096042 11.373096,0 11.8333333,0 L11.8333333,0 Z M15.1666667,5.83333333 L11.8333333,5.83333333 L11.8333333,6.66666667 L15.1666667,6.66666667 L15.1666667,5.83333333 Z M15.1666667,4.16666667 L11.8333333,4.16666667 L11.8333333,5 L15.1666667,5 L15.1666667,4.16666667 Z M15.1666667,1.66666667 L11.8333333,1.66666667 L11.8333333,3.33333333 L15.1666667,3.33333333 L15.1666667,1.66666667 Z" id="形状结合"></path>
            <path d="M8.83333333,0 L8.83333333,7.5 L7.16666667,7.5 L7.16666667,0 L6.33333333,0 C5.87309604,0 5.5,0.373096042 5.5,0.833333333 L5.5,14.1666667 C5.5,14.626904 5.87309604,15 6.33333333,15 L9.66666667,15 C9.88768041,15 10.099642,14.9122026 10.2559223,14.7559223 C10.4122026,14.599642 10.5,14.3876804 10.5,14.1666667 L10.5,0.833333333 C10.5,0.373096042 10.126904,0 9.66666667,0 L8.83333333,0 Z" id="路径"></path>
        </g>
    </g>
</svg>