<?xml version="1.0" encoding="UTF-8"?>
<svg width="14px" height="15px" viewBox="0 0 14 15" version="1.1" xmlns="http://www.w3.org/2000/svg" xmlns:xlink="http://www.w3.org/1999/xlink">
    <title>成本明细选中</title>
    <g id="数据-成本明细" stroke="none" stroke-width="1" fill="none" fill-rule="evenodd">
        <g id="成本明细选中" fill="#004EBF" fill-rule="nonzero">
            <path d="M12.0909091,5.09090909 C11.7727273,4.66666666 11.3484848,4.34848485 10.9242424,4.03030303 C10.8181818,4.03030303 10.8181818,3.92424242 10.7121212,3.92424242 C11.2424242,3.6060606 11.6666667,3.07575757 11.6666667,2.43939393 C11.6666667,1.48484849 10.7121212,0.742424243 9.54545454,0.742424243 C9.33333334,0.742424243 9.01515151,0.742424243 8.8030303,0.848484853 C8.69696969,0.848484853 8.5909091,0.954545463 8.5909091,0.954545449 L8.37878788,0.954545449 C8.37878788,0.848484838 8.27272726,0.636363632 8.06060606,0.530303037 C7.74242424,0.212121206 7.31818182,0 7,0 C6.57575757,0 6.25757576,0.212121206 5.93939394,0.530303037 C5.72727274,0.636363647 5.51515151,0.742424243 5.4090909,0.954545449 L5.30303031,0.954545449 C5.30303031,0.954545449 5.1969697,0.848484853 5.09090909,0.848484853 C4.87878788,0.742424243 4.66666666,0.636363632 4.34848485,0.636363632 C3.28787879,0.636363632 2.22727273,1.37878788 2.22727273,2.33333334 C2.22727273,2.96969697 2.65151515,3.5 3.18181818,3.81818182 C3.18181818,3.81818182 3.07575757,3.92424243 2.96969697,3.92424242 C2.65151515,4.24242424 2.22727273,4.56060605 1.90909091,4.98484849 C0.742424243,6.15151515 2.06064122e-16,7.42424243 2.06064122e-16,8.90909091 C2.06064122e-16,12.9393939 3.07575758,14.8484849 6.89393939,14.8484849 L7.10606061,14.8484849 C10.8181818,14.8484849 14,12.9393939 14,8.90909091 C13.8939394,7.53030304 13.2575758,6.15151515 12.0909091,5.09090909 Z M9.01515152,9.22727273 C9.22727273,9.22727273 9.43939395,9.43939393 9.43939393,9.65151515 C9.43939392,9.86363637 9.22727273,10.0757576 9.01515152,10.0757576 L7.31818182,10.0757576 L7.31818182,11.6666667 C7.31818182,11.8787879 7.10606061,12.0909091 6.89393939,12.0909091 C6.68181817,12.0909091 6.57575757,11.8787879 6.57575757,11.6666667 L6.57575757,10.0757576 L4.87878788,10.0757576 C4.66666668,10.0757576 4.45454546,9.86363637 4.45454546,9.65151515 C4.45454546,9.43939393 4.66666666,9.22727273 4.87878788,9.22727273 L6.57575757,9.22727273 L6.57575757,8.27272728 L4.87878788,8.27272728 C4.66666668,8.27272728 4.45454546,8.06060607 4.45454546,7.84848485 C4.45454546,7.63636363 4.66666666,7.42424243 4.87878788,7.42424243 L6.15151515,7.42424243 L4.77272727,6.04545455 C4.56060607,5.83333335 4.56060607,5.62121212 4.77272727,5.51515151 C4.87878788,5.30303031 5.1969697,5.30303031 5.30303031,5.51515151 L7,7.10606061 L8.69696969,5.4090909 C8.8030303,5.30303029 9.01515151,5.30303029 9.22727273,5.51515151 C9.43939395,5.72727274 9.43939393,5.93939394 9.22727273,6.04545455 L7.84848485,7.42424243 L9.12121212,7.42424243 C9.33333332,7.42424243 9.54545454,7.63636363 9.54545454,7.84848485 C9.54545454,8.06060607 9.33333334,8.27272728 9.01515152,8.27272728 L7.31818182,8.27272728 L7.31818182,9.22727273 L9.01515152,9.22727273 L9.01515152,9.22727273 Z" id="形状"></path>
        </g>
    </g>
</svg>