<svg fill="none" height="16" viewBox="0 0 16 16" width="16" xmlns="http://www.w3.org/2000/svg"><g fill="#919191"><path clip-rule="evenodd" d="m11 10.0173h-5v-1.0173h-1.01296v-7.5c0-.27614.22385-.5.5-.5h7.01296c.2761 0 .5.22386.5.5v7.5h-2.0013zm0-4.0173h-4v1h4zm0-2h-4v1h4z" fill-rule="evenodd"/><path d="m15 14.5c0 .2761-.2239.5-.5.5h-13c-.27614 0-.5-.2239-.5-.5v-3.9633c0-.2761.22386-.5.5-.5h3.48704v.9718h7.01296v-.9718h2.5c.2761 0 .5.2239.5.5z"/><path d="m2.93254 9h1.43408v-6h-.93408c-.27614 0-.5.22386-.5.5z"/></g></svg>