<?xml version="1.0" encoding="UTF-8"?>
<svg width="13px" height="16px" viewBox="0 0 13 16" version="1.1" xmlns="http://www.w3.org/2000/svg" xmlns:xlink="http://www.w3.org/1999/xlink">
    <title>日志管理选中</title>
    <g id="数据-成本明细" stroke="none" stroke-width="1" fill="none" fill-rule="evenodd">
        <g id="日志管理选中" fill="#004EBF" fill-rule="nonzero">
            <path d="M4.70340354,2.02653031 L8.29659107,2.02653031 C8.61404078,2.02653031 8.86971649,1.77943432 8.86971649,1.47571217 L8.86971649,0.550818145 C8.86971649,0.24709599 8.61232484,0 8.29659107,0 L4.70340354,0 C4.38595383,0 4.13027812,0.24709599 4.13027812,0.550818145 L4.13027812,1.47571217 C4.13027812,1.77943432 4.38766978,2.02653031 4.70340354,2.02653031 Z" id="路径"></path>
            <path d="M11.1793776,1.09477251 L9.34503308,1.09477251 L9.34503308,1.7090806 C9.34503308,2.08658836 9.02758337,2.39202646 8.63463211,2.39202646 L4.36707844,2.39202646 C3.97412718,2.39202646 3.65667747,2.08658836 3.65667747,1.7090806 L3.65667747,1.09477251 L1.82233293,1.09477251 C0.81507358,1.09477251 0,1.87895909 0,2.84503578 L0,13.3225922 C0,14.2886688 0.816789524,15.0728554 1.82233293,15.0728554 L11.1776617,15.0728554 C12.184921,15.0728554 13,14.2886688 13,13.3225922 L13,2.84503578 C13.0017106,1.87895909 12.184921,1.09477251 11.1793776,1.09477251 Z M10.7074929,11.2583111 L2.66314568,11.2583111 C2.40918591,11.2583111 2.20327258,11.0609775 2.20327258,10.8173134 C2.20327258,10.5736493 2.40918591,10.3763157 2.66314568,10.3763157 L10.7092089,10.3763157 C10.9631686,10.3763157 11.169082,10.5736493 11.169082,10.8173134 C11.169082,11.0609775 10.9614527,11.2583111 10.7074929,11.2583111 Z M10.7074929,8.36522884 L2.66314568,8.36522884 C2.40918591,8.36522884 2.20327258,8.16789524 2.20327258,7.92423114 C2.20327258,7.68056704 2.40918591,7.48323343 2.66314568,7.48323343 L10.7092089,7.48323343 C10.9631686,7.48323343 11.169082,7.68056704 11.169082,7.92423114 C11.169082,8.16789524 10.9614527,8.36522884 10.7074929,8.36522884 Z M10.7074929,5.47214662 L2.66314568,5.47214662 C2.40918591,5.47214662 2.20327258,5.27481302 2.20327258,5.03114892 C2.20327258,4.78748482 2.40918591,4.59015121 2.66314568,4.59015121 L10.7092089,4.59015121 C10.9631686,4.59015121 11.169082,4.78748482 11.169082,5.03114892 C11.169082,5.27481302 10.9614527,5.47214662 10.7074929,5.47214662 Z" id="形状"></path>
        </g>
    </g>
</svg>