<?xml version="1.0" encoding="UTF-8"?>
<svg width="16px" height="14px" viewBox="0 0 16 14" version="1.1" xmlns="http://www.w3.org/2000/svg" xmlns:xlink="http://www.w3.org/1999/xlink">
    <title>项目管理</title>
    <g id="后台" stroke="none" stroke-width="1" fill="none" fill-rule="evenodd">
        <g id="项目管理" fill="#919191" fill-rule="nonzero">
            <path d="M0,0.704614664 C0,0.316701804 0.316701804,-2.84217094e-14 0.704614664,-2.84217094e-14 L4.96228625,-2.84217094e-14 C5.12344811,-2.84217094e-14 5.27711408,0.0655891309 5.38767861,0.179901616 L6.8456313,1.69219958 C6.87959349,1.72735343 6.90863018,1.76610669 6.93244018,1.80755588 L14.3771375,1.80838604 C15.2691497,1.80838604 16,2.53736238 16,3.42937456 L16,3.42937456 L16,11.7067229 C16,12.5987351 15.2691497,13.3295854 14.3771375,13.3295854 L14.3771375,13.3295854 L1.6228625,13.3295854 C0.730850316,13.3295854 0,12.5987351 0,11.7067229 L0,11.7067229 L0,0.704614664 Z M14.1503865,7.93066292 L7.28039353,7.93066292 C7.11923167,7.93066292 6.98805341,8.06184118 6.98805341,8.22300305 L6.98805341,8.22300305 L6.98805341,8.95010541 C6.98805341,9.11126728 7.11923167,9.24244554 7.28039353,9.24244554 L7.28039353,9.24244554 L14.1503865,9.24244554 C14.3115484,9.24244554 14.4427266,9.11126728 14.4427266,8.95010541 L14.4427266,8.95010541 L14.4427266,8.22300305 C14.4427266,8.06184118 14.3115484,7.93066292 14.1503865,7.93066292 L14.1503865,7.93066292 Z M14.1485125,5.41953619 L7.27851956,5.41953619 C7.1173577,5.41953619 6.98617943,5.55071445 6.98617943,5.71187632 L6.98617943,5.71187632 L6.98430546,5.71187632 L6.98430546,6.43897868 C6.98430546,6.60014055 7.11548372,6.73131881 7.27664558,6.73131881 L7.27664558,6.73131881 L14.1485125,6.73131881 C14.3096744,6.73131881 14.4408527,6.60014055 14.4408527,6.43897868 L14.4408527,6.43897868 L14.4408527,5.71187632 C14.4408527,5.55071445 14.3096744,5.41953619 14.1485125,5.41953619 L14.1485125,5.41953619 Z" id="形状结合"></path>
        </g>
    </g>
</svg>