<?xml version="1.0" encoding="UTF-8"?>
<svg width="20px" height="20px" viewBox="0 0 20 20" version="1.1" xmlns="http://www.w3.org/2000/svg" xmlns:xlink="http://www.w3.org/1999/xlink">
    <title>中</title>
    <g id="中" stroke="none" stroke-width="1" fill="none" fill-rule="evenodd">
        <g id="分组-33备份">
            <rect id="矩形" fill="#000000" opacity="0" x="0" y="0" width="20" height="20"></rect>
            <path d="M10,1.25 C14.826875,1.25 18.75,5.173125 18.75,10 C18.75,14.826875 14.826875,18.75 10,18.75 C5.173125,18.75 1.25,14.826875 1.25,10 C1.25,5.173125 5.173125,1.25 10,1.25 Z M10,17.5 C14.14,17.5 17.5,14.14 17.5,10 C17.5,5.86 14.14,2.5 10,2.5 C5.86,2.5 2.5,5.86 2.5,10 C2.5,14.14 5.86,17.5 10,17.5 Z M11.875,8.125 C11.875,7.43464406 12.4346441,6.875 13.125,6.875 C13.8153559,6.875 14.375,7.43464406 14.375,8.125 C14.375,8.81535594 13.8153559,9.375 13.125,9.375 C12.4346441,9.375 11.875,8.81535594 11.875,8.125 Z M5.625,8.125 C5.625,7.43464406 6.18464406,6.875 6.875,6.875 C7.56535594,6.875 8.125,7.43464406 8.125,8.125 C8.125,8.81535594 7.56535594,9.375 6.875,9.375 C6.18464406,9.375 5.625,8.81535594 5.625,8.125 Z M6.25,14.0625 C5.73223305,14.0625 5.3125,13.642767 5.3125,13.125 C5.3125,12.607233 5.73223305,12.1875 6.25,12.1875 L13.75,12.1875 C14.267767,12.1875 14.6875,12.607233 14.6875,13.125 C14.6875,13.642767 14.267767,14.0625 13.75,14.0625 L6.25,14.0625 Z" id="形状" fill="#FA8C16"></path>
        </g>
    </g>
</svg>