<?xml version="1.0" encoding="UTF-8"?>
<svg width="20px" height="20px" viewBox="0 0 20 20" version="1.1" xmlns="http://www.w3.org/2000/svg" xmlns:xlink="http://www.w3.org/1999/xlink">
    <title>最好</title>
    <g id="最好" stroke="none" stroke-width="1" fill="none" fill-rule="evenodd">
        <g id="分组-30备份">
            <rect id="矩形" fill="#000000" opacity="0" x="0" y="0" width="20" height="20"></rect>
            <path d="M10,1.24023438 C11.1816406,1.24023438 12.3300781,1.47265625 13.4082031,1.92773438 C14.4511719,2.36914062 15.3886719,3 16.1933594,3.8046875 C16.9980469,4.609375 17.6289062,5.54492187 18.0703125,6.58984375 C18.5273438,7.66992187 18.7597656,8.81835938 18.7597656,10 C18.7597656,11.1816406 18.5273438,12.3300781 18.0703125,13.4101562 C17.6289062,14.453125 16.9980469,15.390625 16.1933594,16.1953125 C15.3886719,17 14.453125,17.6308594 13.4082031,18.0722656 C12.3300781,18.5273437 11.1816406,18.7597656 10,18.7597656 C8.81835938,18.7597656 7.66992188,18.5273437 6.58984375,18.0703125 C5.546875,17.6289062 4.609375,16.9980469 3.80664062,16.1933594 C3.00195312,15.3886719 2.37109375,14.453125 1.9296875,13.4082031 C1.47265625,12.328125 1.24023438,11.1796875 1.24023438,9.99804687 C1.24023438,8.81640625 1.47265625,7.66796875 1.9296875,6.58789062 C2.37109375,5.54492187 3.00195312,4.60742187 3.80664062,3.80273437 C4.609375,3.00195312 5.546875,2.36914062 6.58984375,1.92773437 C7.66992188,1.47265625 8.81835938,1.24023438 10,1.24023438 Z M10,2.50976562 C5.86914062,2.50976562 2.50976562,5.86914062 2.50976562,10 C2.50976562,14.1308594 5.86914062,17.4902344 10,17.4902344 C14.1308594,17.4902344 17.4902344,14.1308594 17.4902344,10 C17.4902344,5.86914062 14.1308594,2.50976562 10,2.50976562 Z M13.7265625,11.484375 C13.7265625,13.5429688 12.0585938,15.2109375 10,15.2109375 C7.94140625,15.2109375 6.2734375,13.5429688 6.2734375,11.484375 L13.7265625,11.484375 Z M7.02539063,6.70507813 C7.69726563,6.70507813 8.2421875,7.25 8.2421875,7.921875 L8.2421875,7.921875 C8.2421875,8.59570313 7.69726563,9.140625 7.02539063,9.140625 C6.35351562,9.140625 5.80859375,8.59570313 5.80859375,7.92382813 C5.80859375,7.25195313 6.35351562,6.70507813 7.02539063,6.70507813 Z M12.9746094,6.70703125 C13.6464844,6.70703125 14.1914062,7.25195313 14.1914062,7.92382813 C14.1914062,8.59570313 13.6464844,9.140625 12.9746094,9.140625 C12.3027344,9.140625 11.7578125,8.59570313 11.7578125,7.92382813 C11.7578125,7.25195313 12.3027344,6.70703125 12.9746094,6.70703125 Z" id="形状结合" fill="#52C41A"></path>
        </g>
    </g>
</svg>