<?xml version="1.0" encoding="UTF-8"?>
<svg width="20px" height="20px" viewBox="0 0 20 20" version="1.1" xmlns="http://www.w3.org/2000/svg" xmlns:xlink="http://www.w3.org/1999/xlink">
    <title>好</title>
    <g id="好" stroke="none" stroke-width="1" fill="none" fill-rule="evenodd">
        <g id="分组-29备份">
            <rect id="矩形" fill="#000000" opacity="0" x="0" y="0" width="20" height="20"></rect>
            <path d="M10,1.25 C14.826875,1.25 18.75,5.173125 18.75,10 C18.75,14.826875 14.826875,18.75 10,18.75 C5.173125,18.75 1.25,14.826875 1.25,10 C1.25,5.173125 5.173125,1.25 10,1.25 Z M10,17.5 C14.14,17.5 17.5,14.14 17.5,10 C17.5,5.86 14.14,2.5 10,2.5 C5.86,2.5 2.5,5.86 2.5,10 C2.5,14.14 5.86,17.5 10,17.5 Z M11.875,8.125 C11.875,7.43464406 12.4346441,6.875 13.125,6.875 C13.8153559,6.875 14.375,7.43464406 14.375,8.125 C14.375,8.81535594 13.8153559,9.375 13.125,9.375 C12.4346441,9.375 11.875,8.81535594 11.875,8.125 Z M5.625,8.125 C5.625,7.43464406 6.18464406,6.875 6.875,6.875 C7.56535594,6.875 8.125,7.43464406 8.125,8.125 C8.125,8.81535594 7.56535594,9.375 6.875,9.375 C6.18464406,9.375 5.625,8.81535594 5.625,8.125 Z M13.5875,11.461875 C13.923125,11.680625 14.025,12.1325 13.80625,12.468125 C12.9812616,13.7723513 11.5432333,14.5603153 10,14.55375 C8.45676668,14.5603153 7.01873838,13.7723513 6.19375,12.468125 C5.97773802,12.12959 6.07543667,11.6801762 6.4125,11.461875 C6.75103498,11.245863 7.20044878,11.3435617 7.41875,11.680625 C7.97903353,12.564237 8.95373198,13.0983151 10,13.095 C11.05,13.095 12.0125,12.57 12.58125,11.680625 C12.8,11.345 13.251875,11.243125 13.5875,11.461875 L13.5875,11.461875 Z" id="形状" fill="#1890FF"></path>
        </g>
    </g>
</svg>