<?xml version="1.0" encoding="UTF-8"?>
<svg width="33px" height="25px" viewBox="0 0 33 25" version="1.1" xmlns="http://www.w3.org/2000/svg" xmlns:xlink="http://www.w3.org/1999/xlink">
    <title>形状结合</title>
    <defs>
        <linearGradient x1="107.715051%" y1="61.8623005%" x2="0%" y2="61.8623005%" id="linearGradient-1">
            <stop stop-color="#008D54" offset="0%"></stop>
            <stop stop-color="#FFCB20" stop-opacity="0" offset="100%"></stop>
        </linearGradient>
    </defs>
    <g id="定稿修改" stroke="none" stroke-width="1" fill="none" fill-rule="evenodd">
        <g id="天溯运营中心" transform="translate(-150.000000, -262.000000)" fill="url(#linearGradient-1)" fill-rule="nonzero">
            <g id="编组-35" transform="translate(30.000000, 134.000000)">
                <g id="编组-36" transform="translate(0.391304, 91.200000)">
                    <path d="M122.097712,37.656821 L131.725005,45.9302764 C132.627564,46.6824087 133.22927,47.8858204 133.22927,49.0892321 C133.22927,50.2926438 132.77799,51.345629 131.875432,52.2481877 L122.248138,60.9729225 C121.947285,61.123349 121.496006,61.2737754 121.195153,61.2737754 C120.743874,61.2737754 120.443021,61.123349 120.142168,60.822496 C119.540462,60.2207902 119.690888,59.3182314 120.292594,58.7165256 L129.919888,49.9917908 C130.220741,49.6909379 130.371167,49.390085 130.371167,49.0892321 C130.371167,48.7883791 130.220741,48.4875262 129.919888,48.1866733 L120.142168,39.9132179 C119.540462,39.3115121 119.390035,38.4089533 119.991741,37.8072475 C120.593447,37.2055416 121.496006,37.0551152 122.097712,37.656821 Z M131.597712,37.656821 L141.225005,45.9302764 C142.127564,46.6824087 142.72927,47.8858204 142.72927,49.0892321 C142.72927,50.2926438 142.27799,51.345629 141.375432,52.2481877 L131.748138,60.9729225 C131.447285,61.123349 130.996006,61.2737754 130.695153,61.2737754 C130.243874,61.2737754 129.943021,61.123349 129.642168,60.822496 C129.040462,60.2207902 129.190888,59.3182314 129.792594,58.7165256 L139.419888,49.9917908 C139.720741,49.6909379 139.871167,49.390085 139.871167,49.0892321 C139.871167,48.7883791 139.720741,48.4875262 139.419888,48.1866733 L129.642168,39.9132179 C129.040462,39.3115121 128.890035,38.4089533 129.491741,37.8072475 C130.093447,37.2055416 130.996006,37.0551152 131.597712,37.656821 Z M141.097712,37.656821 L150.725005,45.9302764 C151.627564,46.6824087 152.22927,47.8858204 152.22927,49.0892321 C152.22927,50.2926438 151.77799,51.345629 150.875432,52.2481877 L141.248138,60.9729225 C140.947285,61.123349 140.496006,61.2737754 140.195153,61.2737754 C139.743874,61.2737754 139.443021,61.123349 139.142168,60.822496 C138.540462,60.2207902 138.690888,59.3182314 139.292594,58.7165256 L148.919888,49.9917908 C149.220741,49.6909379 149.371167,49.390085 149.371167,49.0892321 C149.371167,48.7883791 149.220741,48.4875262 148.919888,48.1866733 L139.142168,39.9132179 C138.540462,39.3115121 138.390035,38.4089533 138.991741,37.8072475 C139.593447,37.2055416 140.496006,37.0551152 141.097712,37.656821 Z" id="形状结合"></path>
                </g>
            </g>
        </g>
    </g>
</svg>