<?xml version="1.0" encoding="UTF-8"?>
<svg width="33px" height="25px" viewBox="0 0 33 25" version="1.1" xmlns="http://www.w3.org/2000/svg" xmlns:xlink="http://www.w3.org/1999/xlink">
    <title>形状结合</title>
    <defs>
        <linearGradient x1="100%" y1="50%" x2="0%" y2="56.4210818%" id="linearGradient-1">
            <stop stop-color="#0844AF" offset="0%"></stop>
            <stop stop-color="#009051" stop-opacity="0" offset="100%"></stop>
        </linearGradient>
    </defs>
    <g id="定稿修改" stroke="none" stroke-width="1" fill="none" fill-rule="evenodd">
        <g id="天溯运营中心" transform="translate(-306.000000, -262.000000)" fill="url(#linearGradient-1)" fill-rule="nonzero">
            <g id="编组-35" transform="translate(30.000000, 134.000000)">
                <path d="M278.489016,128.856821 L288.11631,137.130276 C289.018868,137.882409 289.620574,139.08582 289.620574,140.289232 C289.620574,141.492644 289.169295,142.545629 288.266736,143.448188 L278.639443,152.172922 C278.33859,152.323349 277.88731,152.473775 277.586457,152.473775 C277.135178,152.473775 276.834325,152.323349 276.533472,152.022496 C275.931766,151.42079 276.082193,150.518231 276.683899,149.916526 L286.311192,141.191791 C286.612045,140.890938 286.762471,140.590085 286.762471,140.289232 C286.762471,139.988379 286.612045,139.687526 286.311192,139.386673 L276.533472,131.113218 C275.931766,130.511512 275.78134,129.608953 276.383046,129.007247 C276.984751,128.405542 277.88731,128.255115 278.489016,128.856821 Z M287.989016,128.856821 L297.61631,137.130276 C298.518868,137.882409 299.120574,139.08582 299.120574,140.289232 C299.120574,141.492644 298.669295,142.545629 297.766736,143.448188 L288.139443,152.172922 C287.83859,152.323349 287.38731,152.473775 287.086457,152.473775 C286.635178,152.473775 286.334325,152.323349 286.033472,152.022496 C285.431766,151.42079 285.582193,150.518231 286.183899,149.916526 L295.811192,141.191791 C296.112045,140.890938 296.262471,140.590085 296.262471,140.289232 C296.262471,139.988379 296.112045,139.687526 295.811192,139.386673 L286.033472,131.113218 C285.431766,130.511512 285.28134,129.608953 285.883046,129.007247 C286.484751,128.405542 287.38731,128.255115 287.989016,128.856821 Z M297.489016,128.856821 L307.11631,137.130276 C308.018868,137.882409 308.620574,139.08582 308.620574,140.289232 C308.620574,141.492644 308.169295,142.545629 307.266736,143.448188 L297.639443,152.172922 C297.33859,152.323349 296.88731,152.473775 296.586457,152.473775 C296.135178,152.473775 295.834325,152.323349 295.533472,152.022496 C294.931766,151.42079 295.082193,150.518231 295.683899,149.916526 L305.311192,141.191791 C305.612045,140.890938 305.762471,140.590085 305.762471,140.289232 C305.762471,139.988379 305.612045,139.687526 305.311192,139.386673 L295.533472,131.113218 C294.931766,130.511512 294.78134,129.608953 295.383046,129.007247 C295.984751,128.405542 296.88731,128.255115 297.489016,128.856821 Z" id="形状结合"></path>
            </g>
        </g>
    </g>
</svg>