<?xml version="1.0" standalone="no"?><!DOCTYPE svg PUBLIC "-//W3C//DTD SVG 1.1//EN" "http://www.w3.org/Graphics/SVG/1.1/DTD/svg11.dtd"><svg t="1649744823386" class="icon" viewBox="0 0 1024 1024" version="1.1" xmlns="http://www.w3.org/2000/svg" p-id="2764" xmlns:xlink="http://www.w3.org/1999/xlink" width="200" height="200"><defs><style type="text/css"></style></defs><path d="M671.266133 95.573333c0-15.701333-11.264-28.672-26.077866-31.402666L639.453867 63.761067H384.546133c-15.633067 0-28.672 11.264-31.3344 26.146133l-0.477866 5.7344v63.6928h-63.761067V95.573333A95.573333 95.573333 0 0 1 375.330133 0.4096L384.546133 0h254.907734a95.573333 95.573333 0 0 1 95.095466 86.357333l0.477867 9.216v63.6928h222.958933c17.6128 0 31.880533 15.291733 31.880534 34.133334 0 16.7936-11.264 30.72-26.146134 33.5872l-5.7344 0.546133H894.293333l0.068267 696.32c0 49.152-35.2256 90.453333-81.442133 95.163733l-8.874667 0.4096H220.023467c-47.5136 0-85.538133-38.434133-89.838934-86.4256l-0.4096-9.147733v-696.32H66.013867c-17.6128 0-31.880533-15.291733-31.880534-34.133333 0-16.725333 11.264-30.72 26.146134-33.5872l5.7344-0.546134h605.252266V95.573333z m159.266134 131.959467H193.399467v696.32c0 16.1792 9.898667 28.808533 21.981866 31.402667l4.573867 0.477866h584.0896c12.424533 0 23.7568-10.786133 26.077867-25.941333l0.477866-5.9392-0.068266-696.32zM514.2528 414.173867c16.7936 0 30.72 11.264 33.5872 26.077866l0.546133 5.7344V764.586667c0 17.6128-15.291733 31.880533-34.133333 31.880533a33.5872 33.5872 0 0 1-33.5872-26.146133l-0.546133-5.7344V445.986133c0-17.544533 15.291733-31.812267 34.133333-31.812266zM323.106133 477.866667c16.7936 0 30.72 11.264 33.5872 26.146133l0.546134 5.7344v191.146667c0 17.544533-15.291733 31.812267-34.133334 31.812266a33.5872 33.5872 0 0 1-33.5872-26.077866l-0.546133-5.7344v-191.146667c0-17.6128 15.291733-31.880533 34.133333-31.880533z m382.293334 0c16.7936 0 30.72 11.264 33.5872 26.146133l0.546133 5.7344v191.146667c0 17.544533-15.291733 31.812267-34.133333 31.812266a33.5872 33.5872 0 0 1-33.5872-26.077866l-0.546134-5.7344v-191.146667c0-17.6128 15.291733-31.880533 34.133334-31.880533z" fill="#E11F1F" p-id="2765"></path></svg>