<?xml version="1.0" standalone="no"?><!DOCTYPE svg PUBLIC "-//W3C//DTD SVG 1.1//EN" "http://www.w3.org/Graphics/SVG/1.1/DTD/svg11.dtd"><svg t="1649744844832" class="icon" viewBox="0 0 1024 1024" version="1.1" xmlns="http://www.w3.org/2000/svg" p-id="2894" xmlns:xlink="http://www.w3.org/1999/xlink" width="200" height="200"><defs><style type="text/css"></style></defs><path d="M512 0a512 512 0 1 1 0 1024 512 512 0 0 1 0-1024z m0 204.8c-18.8416 0-34.133333 13.7216-34.133333 30.72V477.866667H235.52l-5.461333 0.546133C215.722667 481.28 204.8 495.274667 204.8 512c0 18.8416 13.7216 34.133333 30.72 34.133333H477.866667v242.346667l0.546133 5.461333c2.8672 14.336 16.861867 25.258667 33.5872 25.258667 18.8416 0 34.133333-13.7216 34.133333-30.72V546.133333h242.346667l5.461333-0.546133c14.336-2.8672 25.258667-16.861867 25.258667-33.5872 0-18.8416-13.7216-34.133333-30.72-34.133333H546.133333V235.52l-0.546133-5.461333C542.72 215.722667 528.725333 204.8 512 204.8z" fill="#1890FF" p-id="2895"></path></svg>