<?xml version="1.0" standalone="no"?><!DOCTYPE svg PUBLIC "-//W3C//DTD SVG 1.1//EN" "http://www.w3.org/Graphics/SVG/1.1/DTD/svg11.dtd"><svg t="1682048554982" class="icon" viewBox="0 0 1024 1024" version="1.1" xmlns="http://www.w3.org/2000/svg" p-id="3069" xmlns:xlink="http://www.w3.org/1999/xlink" width="200" height="200"><path d="M512 506.817939m-496.484848 0a496.484848 496.484848 0 1 0 992.969696 0 496.484848 496.484848 0 1 0-992.969696 0Z" fill="#FFCB20" fill-opacity=".15" p-id="3070"></path><path d="M619.178667 418.722909l-2.110061-0.527515c2.947879 14.30497 2.048 29.013333-2.730667 44.125091-7.13697 22.55903-11.512242 22.55903-19.083636 47.13503-1.551515-2.172121-11.605333-17.594182-3.04097-47.16606 6.578424-34.226424-10.364121-68.57697-33.916121-103.889455-22.807273-34.195394-56.444121-60.012606-88.12606-66.497939H468.557576l0.558545 1.582545c10.333091 52.224-19.052606 79.437576-53.713454 109.847273-34.691879 30.409697-72.579879 65.411879-78.351515 133.523394-7.447273 89.615515 51.293091 152.669091 86.791757 181.713454 2.110061 1.613576 4.251152 2.141091 6.609455 2.141091 3.723636 0 6.578424-1.582545 8.719515-4.313212a9.743515 9.743515 0 0 0 0.558545-9.929697c-28.051394-73.231515 29.385697-120.366545 47.662546-133.244121-15.111758 89.150061 59.019636 159.247515 75.558788 153.444848 67.925333-23.769212 111.802182-71.773091 122.662787-136.502303 11.605333-69.383758-17.749333-146.152727-66.435878-171.442424z" fill="#FFCB20" p-id="3071"></path></svg>