<?xml version="1.0" standalone="no"?><!DOCTYPE svg PUBLIC "-//W3C//DTD SVG 1.1//EN" "http://www.w3.org/Graphics/SVG/1.1/DTD/svg11.dtd"><svg t="1682048563451" class="icon" viewBox="0 0 1024 1024" version="1.1" xmlns="http://www.w3.org/2000/svg" p-id="3341" xmlns:xlink="http://www.w3.org/1999/xlink" width="200" height="200"><path d="M512 512m-512 0a512 512 0 1 0 1024 0 512 512 0 1 0-1024 0Z" fill="#FE4B4E" fill-opacity=".2" p-id="3342"></path><path d="M256 691.2m16 0l480 0q16 0 16 16l0 0q0 16-16 16l-480 0q-16 0-16-16l0 0q0-16 16-16Z" fill="#FE4B4E" p-id="3343"></path><path d="M307.2 742.4m16 0l352 0q16 0 16 16l0 0q0 16-16 16l-352 0q-16 0-16-16l0 0q0-16 16-16Z" fill="#FE4B4E" p-id="3344"></path><path d="M384.48 256.032a14.336 14.336 0 0 1 15.488 13.088 14.272 14.272 0 0 1-13.248 15.296C316.8 289.824 284.8 316.288 284.8 365.664c0 28.192 11.232 44.064 43.968 68.288l12.544 9.024c42.336 30.08 58.688 49.728 58.688 86.4 0 59.616-44.224 96.64-127.2 110.4a14.4 14.4 0 0 1-16.608-11.648 14.24 14.24 0 0 1 11.84-16.384C338.592 600 371.2 572.8 371.2 529.408c0-22.816-9.824-36.256-39.488-58.144l-12.128-8.704C274.048 430.208 256 407.84 256 365.664 256 299.648 300.832 262.528 384.48 256z m158.4 0a14.336 14.336 0 0 1 15.488 13.088 14.272 14.272 0 0 1-13.248 15.296c-69.952 5.408-101.92 31.872-101.92 81.248 0 28.192 11.232 44.064 43.968 68.288l12.544 9.024c42.336 30.08 58.688 49.728 58.688 86.4 0 59.616-44.224 96.64-127.2 110.4a14.4 14.4 0 0 1-16.608-11.648 14.24 14.24 0 0 1 11.84-16.384C496.992 600 529.6 572.8 529.6 529.408c0-22.816-9.824-36.256-39.488-58.144l-12.128-8.704C432.448 430.208 414.4 407.84 414.4 365.664 414.4 299.648 459.232 262.528 542.88 256z m158.4 0a14.336 14.336 0 0 1 15.488 13.088 14.272 14.272 0 0 1-13.248 15.296c-69.952 5.408-101.92 31.872-101.92 81.248 0 28.192 11.232 44.064 43.968 68.288l12.544 9.024c42.336 30.08 58.688 49.728 58.688 86.4 0 59.616-44.224 96.64-127.2 110.4a14.4 14.4 0 0 1-16.608-11.648 14.24 14.24 0 0 1 11.84-16.384C655.392 600 688 572.8 688 529.408c0-22.816-9.824-36.256-39.488-58.144l-12.128-8.704C590.848 430.208 572.8 407.84 572.8 365.664 572.8 299.648 617.632 262.528 701.28 256z" fill="#FE4B4E" p-id="3345"></path></svg>