<?xml version="1.0" standalone="no"?><!DOCTYPE svg PUBLIC "-//W3C//DTD SVG 1.1//EN" "http://www.w3.org/Graphics/SVG/1.1/DTD/svg11.dtd"><svg t="1682048559269" class="icon" viewBox="0 0 1024 1024" version="1.1" xmlns="http://www.w3.org/2000/svg" p-id="3205" xmlns:xlink="http://www.w3.org/1999/xlink" width="200" height="200"><path d="M512 517.182061m-496.484848 0a496.484848 496.484848 0 1 0 992.969696 0 496.484848 496.484848 0 1 0-992.969696 0Z" fill="#46C668" fill-opacity=".15" p-id="3206"></path><path d="M512 750.778182c-88.870788 0-161.109333-70.252606-161.109333-156.64097 0-33.264485 10.674424-64.046545 29.044363-89.615515l132.561455-220.935758 131.816727 220.935758a153.910303 153.910303 0 0 1 29.044364 89.615515c-0.248242 86.388364-72.486788 156.64097-161.357576 156.64097z m109.474909-125.362424a14.677333 14.677333 0 0 0-14.398061 11.915636c-3.723636 14.398061-16.384 27.554909-32.271515 31.030303a14.584242 14.584242 0 0 0-12.163878 14.149818c0 7.943758 6.702545 14.646303 14.646303 14.646303 11.667394 0 25.817212-8.192 37.98109-19.611151 12.163879-11.667394 21.100606-27.554909 21.100607-37.732849a14.677333 14.677333 0 0 0-14.894546-14.39806z" fill="#00B261" p-id="3207"></path></svg>