<?xml version="1.0" encoding="UTF-8"?>
<svg width="100px" height="100px" viewBox="0 0 100 100" version="1.1" xmlns="http://www.w3.org/2000/svg" xmlns:xlink="http://www.w3.org/1999/xlink">
    <title>门诊量</title>
    <defs>
        <linearGradient x1="59.2035477%" y1="6.27997504%" x2="31.4437186%" y2="100%" id="linearGradient-1">
            <stop stop-color="#D473FF" offset="0%"></stop>
            <stop stop-color="#911DEF" offset="100%"></stop>
        </linearGradient>
        <path d="M51.9145299,4.93081771 L75.0691823,28.0854701 C81.6436059,34.6680803 81.6436059,45.3319197 75.0691823,51.9145299 L51.9145299,75.0691823 C45.3319197,81.6436059 34.6680803,81.6436059 28.0854701,75.0691823 L4.93081771,51.9145299 C-1.6436059,45.3319197 -1.6436059,34.6680803 4.93081771,28.0854701 L28.0854701,4.93081771 C34.6680803,-1.6436059 45.3319197,-1.6436059 51.9145299,4.93081771 Z" id="path-2"></path>
        <filter x="-6.2%" y="-6.3%" width="112.5%" height="112.5%" filterUnits="objectBoundingBox" id="filter-3">
            <feGaussianBlur stdDeviation="5" in="SourceAlpha" result="shadowBlurInner1"></feGaussianBlur>
            <feOffset dx="0" dy="0" in="shadowBlurInner1" result="shadowOffsetInner1"></feOffset>
            <feComposite in="shadowOffsetInner1" in2="SourceAlpha" operator="arithmetic" k2="-1" k3="1" result="shadowInnerInner1"></feComposite>
            <feColorMatrix values="0 0 0 0 0.662745098   0 0 0 0 0.247058824   0 0 0 0 1  0 0 0 0.34 0" type="matrix" in="shadowInnerInner1"></feColorMatrix>
        </filter>
    </defs>
    <g id="页面-1" stroke="none" stroke-width="1" fill="none" fill-rule="evenodd">
        <g id="关联分析-关联参数点击效果" transform="translate(-77.000000, -1565.000000)" fill-rule="nonzero">
            <g id="门诊量" transform="translate(77.000000, 1565.000000)">
                <g id="-_menzhen" transform="translate(42.400000, 0.000000)" fill="url(#linearGradient-1)">
                    <path d="M41.9771857,18.1512433 C42.6291424,18.0394411 43.2408548,18.1352715 43.4420761,18.8540003 C44.1262282,21.2657346 41.9691369,24.6277881 39.9649737,24.4281412 C34.1778518,39.0103494 23.0382459,39.0103494 17.2511241,24.4281412 C15.2711074,24.6277881 13.0898696,21.2657346 13.7740216,18.8540003 C13.9752428,18.1432574 14.5789064,18.0314552 15.2228143,18.1512433 C14.6432973,15.611735 14.337441,12.473286 14.8928116,9.92579181 C17.2672218,-0.98291375 36.8661671,-2.86758028 37.9447127,4.11207466 C43.2408548,5.8609813 43.5145157,11.5469245 41.9771857,18.1512433 Z M25.8311963,50.4620945 C22.8853178,45.9580608 21.1387178,41.4620131 20.1970026,38.1159313 C19.3438247,38.4433522 18.3216209,38.7388296 17.2189287,39.0422929 C14.4340272,45.0476711 15.029642,53.5845717 17.3477103,59.4861335 C19.1908965,59.3503736 20.7604218,60.7878312 20.7604219,62.6245824 C20.7604219,64.3655033 19.3357758,65.7790032 17.5811269,65.7790032 C14.7801277,65.7790032 13.3715793,62.4409073 15.3033028,60.4524244 C12.904746,54.4390603 12.2286428,46.1577077 14.4823203,39.7690075 C10.2486261,40.9030018 5.66883158,42.3484452 4.16369692,45.3990496 C1.80538438,50.1027301 -0.0217041608,63.6547604 -0.4,72 L57.6,72 C57.2217042,63.6627462 55.3785179,50.0867584 53.0282542,45.3990496 C51.6036081,42.5321204 47.4986955,41.0946629 43.4903692,40.000598 C43.8284208,42.2046995 43.6271996,44.5685186 43.0879267,46.9163659 C45.937219,48.0663319 47.6999168,50.9093034 47.1203997,54.4949615 C46.3477103,59.3743313 47.4101582,68.1747658 41.10791,66.7772376 C39.6591173,66.4498167 40.1500971,64.2616869 41.5988898,64.5891078 C43.0235359,64.900557 43.6513461,63.9422519 43.9974466,62.4488932 C44.4803775,60.3246504 44.4884263,56.7070489 44.8908687,54.1595547 C45.8325839,48.1941059 37.7917846,46.3813122 36.0693311,52.1870435 C35.3529836,54.6387072 33.791507,57.912916 33.2924785,60.0691024 C32.9544269,61.5544752 33.1154038,62.6964553 34.54005,63.0238762 C35.9888427,63.3512971 35.4978629,65.539427 34.0490702,65.212006 C27.7468221,63.8144778 32.4875937,56.3317128 33.9122398,51.5721311 C34.9585901,48.058346 37.8078823,46.2455524 40.8825424,46.4292275 C41.4379129,44.0174932 41.6149875,41.5658295 41.0435193,39.361728 C39.5303359,38.9624342 38.1217874,38.5711263 36.9868998,38.139889 C36.1578684,41.1665357 34.2100472,45.9420891 31.304413,50.4860521 L30.2741605,44.736222 L31.0468499,42.8834989 L28.5919511,40.8071713 L26.0968083,42.8515554 L26.8775465,44.7042785 L25.8311963,50.4620945 L25.8311963,50.4620945 Z" id="形状"></path>
                </g>
                <g id="yishengmenzhen" transform="translate(0.000000, 20.000000)">
                    <g id="路径">
                        <use fill-opacity="0.15" fill="#A93FFF" xlink:href="#path-2"></use>
                        <use fill="black" fill-opacity="1" filter="url(#filter-3)" xlink:href="#path-2"></use>
                    </g>
                    <polygon id="路径" fill="#FFFFFF" points="34.5 34.5 18 34.5 18 45.5 34.5 45.5 34.5 62 45.5 62 45.5 45.5 62 45.5 62 34.5 45.5 34.5 45.5 18 34.5 18"></polygon>
                </g>
            </g>
        </g>
    </g>
</svg>