<?xml version="1.0" encoding="UTF-8"?>
<svg width="100px" height="100px" viewBox="0 0 100 100" version="1.1" xmlns="http://www.w3.org/2000/svg" xmlns:xlink="http://www.w3.org/1999/xlink">
    <title>湿度</title>
    <defs>
        <linearGradient x1="50%" y1="0%" x2="50%" y2="100%" id="linearGradient-1">
            <stop stop-color="#FFD000" offset="0%"></stop>
            <stop stop-color="#FF9120" offset="100%"></stop>
        </linearGradient>
        <linearGradient x1="50%" y1="0%" x2="50%" y2="100%" id="linearGradient-2">
            <stop stop-color="#FFCF01" offset="0%"></stop>
            <stop stop-color="#FF7D21" offset="100%"></stop>
        </linearGradient>
        <path d="M90.6024398,22.8400536 C91.3539609,21.8495902 92.1581255,20.906199 93.0109478,20.0145558 L93.9993744,19 L94.9890522,20.0145558 C95.8414093,20.9058041 96.6451549,21.8487469 97.3963091,22.8387151 C97.9505787,23.5721935 98.4347826,24.2882718 98.8326556,24.9802576 C99.5771035,26.2745524 100,27.4403546 100,28.5298645 C100,32.0995483 97.3174852,35 94.0006256,35 C90.6825149,35 88,32.0995482 88,28.5298645 C88,26.8648152 88.9734126,24.9963192 90.6024398,22.8400536 Z" id="path-3"></path>
        <filter x="-16.7%" y="-12.5%" width="133.3%" height="125.0%" filterUnits="objectBoundingBox" id="filter-4">
            <feGaussianBlur stdDeviation="1.5" in="SourceAlpha" result="shadowBlurInner1"></feGaussianBlur>
            <feOffset dx="0" dy="1" in="shadowBlurInner1" result="shadowOffsetInner1"></feOffset>
            <feComposite in="shadowOffsetInner1" in2="SourceAlpha" operator="arithmetic" k2="-1" k3="1" result="shadowInnerInner1"></feComposite>
            <feColorMatrix values="0 0 0 0 1   0 0 0 0 1   0 0 0 0 1  0 0 0 0.5 0" type="matrix" in="shadowInnerInner1"></feColorMatrix>
        </filter>
        <path d="M33,9 L35.1771317,11.5268495 L35.5315484,11.9407078 C35.8112845,12.273594 36.1378542,12.6604615 36.5036631,13.1000254 C37.5453953,14.3518827 38.7061103,15.7759668 39.9541636,17.3440016 C43.598691,21.9106025 47.090006,26.6011101 50.4221165,31.4074743 C53.1485943,35.3532668 55.6016647,39.1859552 57.7180392,42.8464168 C63.0266963,52.0348437 66,59.7284964 66,65.7114488 C66,84.6319736 51.2410725,100 33,100 C14.7576618,100 0,84.6319737 0,65.7114488 C0,59.7284964 2.97330367,52.0348436 8.28196079,42.8464168 C10.3970695,39.1859552 12.8514057,35.3532668 15.5778835,31.4074743 C18.909994,26.6011101 22.401309,21.9106025 26.0458364,17.3440016 C27.4953285,15.522195 28.9696759,13.7209233 30.4684516,11.9407078 L30.8228683,11.5268495 L33,9 Z M13.5356013,49.7588431 C13.5356013,49.7588431 4.59740647,62.7654856 7.75057764,74.5332806 C9.85269175,82.3784772 15.6712498,88.6388182 25.2062517,93.3143035 C17.1982266,86.210175 12.3955933,79.6776178 10.798352,73.7166319 C8.40248994,64.7751531 13.5356013,49.7588431 13.5356013,49.7588431 Z" id="path-5"></path>
        <filter x="-8.3%" y="-6.0%" width="116.7%" height="112.1%" filterUnits="objectBoundingBox" id="filter-6">
            <feMorphology radius="1" operator="erode" in="SourceAlpha" result="shadowSpreadInner1"></feMorphology>
            <feGaussianBlur stdDeviation="5" in="shadowSpreadInner1" result="shadowBlurInner1"></feGaussianBlur>
            <feOffset dx="0" dy="0" in="shadowBlurInner1" result="shadowOffsetInner1"></feOffset>
            <feComposite in="shadowOffsetInner1" in2="SourceAlpha" operator="arithmetic" k2="-1" k3="1" result="shadowInnerInner1"></feComposite>
            <feColorMatrix values="0 0 0 0 1   0 0 0 0 0.568627451   0 0 0 0 0.125490196  0 0 0 0.268549566 0" type="matrix" in="shadowInnerInner1"></feColorMatrix>
        </filter>
    </defs>
    <g id="页面-1" stroke="none" stroke-width="1" fill="none" fill-rule="evenodd">
        <g id="关联分析-关联参数点击效果" transform="translate(-77.000000, -634.000000)" fill-rule="nonzero">
            <g id="湿度" transform="translate(77.000000, 634.000000)">
                <path d="M28,56.7114488 C28,50.7284964 30.9733037,43.0348436 36.2819608,33.8464168 C38.3970695,30.1859552 40.8514057,26.3532668 43.5778835,22.4074743 C46.909994,17.6011101 50.401309,12.9106025 54.0458364,8.34400161 C55.4953285,6.52219498 56.9696759,4.72092326 58.4684516,2.94070785 L58.8228683,2.52684953 L61,0 L63.1771317,2.52684953 L63.5315484,2.94070785 C63.8112845,3.27359397 64.1378542,3.66046149 64.5036631,4.10002543 C65.5453953,5.35188268 66.7061103,6.77596682 67.9541636,8.34400161 C71.598691,12.9106025 75.090006,17.6011101 78.4221165,22.4074743 C81.1485943,26.3532668 83.6016647,30.1859552 85.7180392,33.8464168 C91.0266963,43.0348437 94,50.7284964 94,56.7114488 C94,75.6319736 79.2410725,91 61,91 C42.7576618,91 28,75.6319737 28,56.7114488 L28,56.7114488 Z" id="路径" fill="url(#linearGradient-1)"></path>
                <g id="路径">
                    <use fill="url(#linearGradient-2)" xlink:href="#path-3"></use>
                    <use fill="black" fill-opacity="1" filter="url(#filter-4)" xlink:href="#path-3"></use>
                </g>
                <g id="形状结合">
                    <use fill-opacity="0.15" fill="#FF9120" xlink:href="#path-5"></use>
                    <use fill="black" fill-opacity="1" filter="url(#filter-6)" xlink:href="#path-5"></use>
                </g>
            </g>
        </g>
    </g>
</svg>