<?xml version="1.0" encoding="UTF-8"?>
<svg width="100px" height="100px" viewBox="0 0 100 100" version="1.1" xmlns="http://www.w3.org/2000/svg" xmlns:xlink="http://www.w3.org/1999/xlink">
    <title>照度</title>
    <defs>
        <linearGradient x1="68.5152371%" y1="6.51362525%" x2="32.2886933%" y2="71.8934462%" id="linearGradient-1">
            <stop stop-color="#FFE743" offset="0%"></stop>
            <stop stop-color="#FFCB20" offset="100%"></stop>
        </linearGradient>
        <path d="M30.0005453,20 L29.9458588,20 C13.3367857,20.03125 -0.139531838,33.65625 0.00109060601,50.265625 C0.0792141859,59.0234375 3.9072696,66.890625 9.96184705,72.328125 C13.9461496,75.90625 16.2507952,80.984375 16.2507952,86.3359375 L16.2507952,90.7890625 C16.2507952,95.875 20.3757203,100 25.4615653,100 L34.5395253,100 C39.6253704,100 43.7502954,95.875 43.7502954,90.7890625 L43.7502954,86.3359375 C43.7502954,80.9765625 46.0627533,75.8984375 50.0470559,72.3125 C56.1563199,66.8203125 60,58.859375 60,50 C60,33.4296875 46.5705566,20 30.0005453,20 Z M32.3903941,68.8311688 L33.9134852,55.4138362 L27.9310345,55.4138362 L41.0657328,36.6233766 L39.5426416,50.0407093 L45.5172414,50.0407093 L32.3903941,68.8311688 Z" id="path-2"></path>
        <filter x="-8.3%" y="-6.2%" width="116.7%" height="112.5%" filterUnits="objectBoundingBox" id="filter-3">
            <feGaussianBlur stdDeviation="5" in="SourceAlpha" result="shadowBlurInner1"></feGaussianBlur>
            <feOffset dx="0" dy="0" in="shadowBlurInner1" result="shadowOffsetInner1"></feOffset>
            <feComposite in="shadowOffsetInner1" in2="SourceAlpha" operator="arithmetic" k2="-1" k3="1" result="shadowInnerInner1"></feComposite>
            <feColorMatrix values="0 0 0 0 1   0 0 0 0 0.796078431   0 0 0 0 0.125490196  0 0 0 0.331342364 0" type="matrix" in="shadowInnerInner1"></feColorMatrix>
        </filter>
    </defs>
    <g id="页面-1" stroke="none" stroke-width="1" fill="none" fill-rule="evenodd">
        <g id="关联分析-关联参数点击效果" transform="translate(-77.000000, -864.000000)" fill-rule="nonzero">
            <g id="照度" transform="translate(77.000000, 864.000000)">
                <path d="M60.459989,14.4772727 C76.5523063,14.4772727 89.5945946,27.3232267 89.5945946,43.1732955 C89.5945946,51.6475897 85.8617233,59.2624978 79.9285822,64.5159624 C76.0591424,67.9460338 73.8133499,72.8034335 73.8133499,77.9298584 L73.8133499,77.9298584 L73.8133499,82.1894243 C73.8133499,87.0542969 69.8073417,91 64.8681156,91 L64.8681156,91 L56.0518625,91 C51.1126364,91 47.1066282,87.0542969 47.1066282,82.1894243 L47.1066282,82.1894243 L47.1066282,77.9298584 C47.1066282,72.8109064 44.8684228,67.9535067 40.998983,64.5309082 C35.1189519,59.3297541 31.4012549,51.804521 31.3253835,43.4273748 C31.188815,27.5399414 44.2766261,14.5071644 60.4068791,14.4772727 L60.4068791,14.4772727 Z M26.2380672,23.9860759 L26.3946179,24.0614936 L32.2736142,27.1634704 C33.3559075,27.7345285 33.7267286,28.999288 33.1018663,29.9883897 C32.5067593,30.9303914 31.2231618,31.282633 30.1673382,30.8207422 L30.0107875,30.7453246 L24.1317912,27.6433478 C23.0494979,27.0722897 22.6786768,25.8075302 23.3035391,24.8184285 C23.8986461,23.8764268 25.1822436,23.5241852 26.2380672,23.9860759 Z M96.7619328,23.9860759 C97.8177564,23.5241852 99.1013539,23.8764268 99.6964609,24.8184285 C100.321323,25.8075302 99.9505021,27.0722897 98.8682088,27.6433478 L98.8682088,27.6433478 L92.9892125,30.7453246 L92.8326618,30.8207422 C91.7768382,31.282633 90.4932407,30.9303914 89.8981337,29.9883897 C89.2732714,28.999288 89.6440925,27.7345285 90.7263858,27.1634704 L90.7263858,27.1634704 L96.6053821,24.0614936 Z M40.0533329,8.10228046 L40.1496057,8.25469909 L43.472022,13.9861898 C44.0836619,15.0413282 43.8443927,16.4736334 42.9375991,17.1853332 C42.0761453,17.861448 40.9221551,17.643987 40.2845049,16.7159014 L40.1882322,16.5634827 L36.8658159,10.831992 C36.2541759,9.77685366 36.4934452,8.34454839 37.4002387,7.63284861 C38.2616925,6.95673382 39.4156827,7.17419486 40.0533329,8.10228046 Z M82.9466671,8.10228046 C83.5843173,7.17419486 84.7383075,6.95673382 85.5997613,7.63284861 C86.5065548,8.34454839 86.7458241,9.77685366 86.1341841,10.831992 L86.1341841,10.831992 L82.8117678,16.5634827 L82.7154951,16.7159014 C82.0778449,17.643987 80.9238547,17.861448 80.0624009,17.1853332 C79.1556073,16.4736334 78.9163381,15.0413282 79.527978,13.9861898 L79.527978,13.9861898 L82.8503943,8.25469909 Z M60.9797297,0 C61.8025594,0 62.4766762,0.928060987 62.5362594,2.10521408 L62.5405405,2.275 L62.5405405,9.1 C62.5405405,10.3564478 61.8417417,11.375 60.9797297,11.375 C60.1569001,11.375 59.4827833,10.446939 59.4232,9.26978592 L59.4189189,9.1 L59.4189189,2.275 C59.4189189,1.01855219 60.1177177,0 60.9797297,0 Z" id="形状结合" fill="url(#linearGradient-1)"></path>
                <g id="形状" transform="translate(30.000000, 60.000000) scale(-1, 1) translate(-30.000000, -60.000000) ">
                    <use fill-opacity="0.15" fill="#FFCB20" xlink:href="#path-2"></use>
                    <use fill="black" fill-opacity="1" filter="url(#filter-3)" xlink:href="#path-2"></use>
                </g>
            </g>
        </g>
    </g>
</svg>