<?xml version="1.0" encoding="UTF-8"?>
<svg width="100px" height="97px" viewBox="0 0 100 97" version="1.1" xmlns="http://www.w3.org/2000/svg" xmlns:xlink="http://www.w3.org/1999/xlink">
    <title>作息时间</title>
    <defs>
        <linearGradient x1="76.7946714%" y1="-6.39656364%" x2="50%" y2="50%" id="linearGradient-1">
            <stop stop-color="#45FBC6" offset="0%"></stop>
            <stop stop-color="#009551" offset="100%"></stop>
        </linearGradient>
        <path d="M38.5,77 C59.7625875,77 77,59.7625875 77,38.5 C77,17.2374125 59.7625875,0 38.5,0 C17.2374125,0 0,17.2374125 0,38.5 C0,59.7625875 17.2374125,77 38.5,77 Z" id="path-2"></path>
        <filter x="-6.5%" y="-6.5%" width="113.0%" height="113.0%" filterUnits="objectBoundingBox" id="filter-3">
            <feGaussianBlur stdDeviation="5" in="SourceAlpha" result="shadowBlurInner1"></feGaussianBlur>
            <feOffset dx="0" dy="0" in="shadowBlurInner1" result="shadowOffsetInner1"></feOffset>
            <feComposite in="shadowOffsetInner1" in2="SourceAlpha" operator="arithmetic" k2="-1" k3="1" result="shadowInnerInner1"></feComposite>
            <feColorMatrix values="0 0 0 0 0   0 0 0 0 1   0 0 0 0 0.54491018  0 0 0 0.337934161 0" type="matrix" in="shadowInnerInner1"></feColorMatrix>
        </filter>
    </defs>
    <g id="页面-1" stroke="none" stroke-width="1" fill="none" fill-rule="evenodd">
        <g id="关联分析-关联参数点击效果" transform="translate(-77.000000, -1105.000000)" fill-rule="nonzero">
            <g id="作息时间" transform="translate(77.000000, 1105.000000)">
                <g id="编组-17" transform="translate(23.000000, 0.000000)" fill="url(#linearGradient-1)">
                    <path d="M38.5,77 C59.7625875,77 77,59.7625875 77,38.5 C77,17.2374125 59.7625875,0 38.5,0 C17.2374125,0 0,17.2374125 0,38.5 C0,59.7625875 17.2374125,77 38.5,77 Z" id="路径"></path>
                </g>
                <g id="shijian" transform="translate(0.000000, 20.000000)">
                    <g id="路径">
                        <use fill-opacity="0.15" fill="#00B261" xlink:href="#path-2"></use>
                        <use fill="black" fill-opacity="1" filter="url(#filter-3)" xlink:href="#path-2"></use>
                    </g>
                    <path d="M21.8707911,50.9790715 L35.2957481,37.2321944 L35.2957481,20.9203109 C35.2957481,19.3074677 36.5726884,18 38.147874,18 C39.7230597,18 41,19.3074677 41,20.9203109 L41,38.4421766 C41,39.2166279 40.6992415,39.9592993 40.1643271,40.5068364 L25.9036972,55.1083911 C25.1876012,55.8675452 24.127171,56.1720052 23.1299838,55.9047516 C22.1327967,55.6374981 21.354038,54.8401219 21.0930245,53.8190952 C20.8320109,52.7980686 21.1293622,51.712287 21.8707911,50.9790715 L21.8707911,50.9790715 Z" id="路径" fill="#FFFFFF"></path>
                </g>
            </g>
        </g>
    </g>
</svg>