<?xml version="1.0" encoding="UTF-8"?>
<svg width="100px" height="100px" viewBox="0 0 100 100" version="1.1" xmlns="http://www.w3.org/2000/svg" xmlns:xlink="http://www.w3.org/1999/xlink">
    <title>温度</title>
    <defs>
        <linearGradient x1="72.3680115%" y1="11.5422249%" x2="42.4443817%" y2="74.2493629%" id="linearGradient-1">
            <stop stop-color="#ADD2FF" offset="0%"></stop>
            <stop stop-color="#006BFC" offset="100%"></stop>
        </linearGradient>
        <linearGradient x1="50%" y1="10.7833471%" x2="50%" y2="93.341221%" id="linearGradient-2">
            <stop stop-color="#0069FF" offset="0%"></stop>
            <stop stop-color="#89E0FF" offset="100%"></stop>
        </linearGradient>
        <path d="M36,78 L36,77.996 L35.5,78 C16.0899525,78 0.318249049,62.4223971 0.00475598574,43.0870574 L0,42.5 C0,22.8938914 15.8938914,7 35.5,7 C48.262863,7 59.4526606,13.7350938 65.7091001,23.8449888 C67.8811233,23.2931828 70.1563234,23 72.5,23 C87.6878306,23 100,35.3121694 100,50.5 C100,65.5205298 87.9575849,77.7284028 73.0008431,77.9955307 L73,78 L36,78 Z" id="path-3"></path>
        <filter x="-23.5%" y="-33.1%" width="147.0%" height="166.2%" filterUnits="objectBoundingBox" id="filter-4">
            <feMorphology radius="6" operator="erode" in="SourceAlpha" result="shadowSpreadInner1"></feMorphology>
            <feGaussianBlur stdDeviation="20.5" in="shadowSpreadInner1" result="shadowBlurInner1"></feGaussianBlur>
            <feOffset dx="0" dy="0" in="shadowBlurInner1" result="shadowOffsetInner1"></feOffset>
            <feComposite in="shadowOffsetInner1" in2="SourceAlpha" operator="arithmetic" k2="-1" k3="1" result="shadowInnerInner1"></feComposite>
            <feColorMatrix values="0 0 0 0 0.0941176471   0 0 0 0 0.564705882   0 0 0 0 1  0 0 0 0.346875171 0" type="matrix" in="shadowInnerInner1"></feColorMatrix>
        </filter>
    </defs>
    <g id="页面-1" stroke="none" stroke-width="1" fill="none" fill-rule="evenodd">
        <g id="关联分析-关联参数点击效果" transform="translate(-77.000000, -144.000000)">
            <g id="温度" transform="translate(77.000000, 144.000000)">
                <circle id="椭圆形" fill="url(#linearGradient-1)" cx="77" cy="20" r="20"></circle>
                <polygon id="路径" fill="url(#linearGradient-2)" fill-rule="nonzero" points="64 61 49.8607133 66.6727771 36 83.2184095 52.8543646 83.2184095 41.4369063 100 64 78.7273794 47.4174583 78.7273794"></polygon>
                <g id="形状结合">
                    <use fill-opacity="0.084742406" fill="#1890FF" fill-rule="evenodd" xlink:href="#path-3"></use>
                    <use fill="black" fill-opacity="1" filter="url(#filter-4)" xlink:href="#path-3"></use>
                </g>
            </g>
        </g>
    </g>
</svg>