<?xml version="1.0" encoding="UTF-8"?>
<svg width="100px" height="100px" viewBox="0 0 100 100" version="1.1" xmlns="http://www.w3.org/2000/svg" xmlns:xlink="http://www.w3.org/1999/xlink">
    <title>风速</title>
    <defs>
        <linearGradient x1="58.9243978%" y1="12.5581105%" x2="33.9495373%" y2="66.3754466%" id="linearGradient-1">
            <stop stop-color="#FF9E8B" offset="0%"></stop>
            <stop stop-color="#FF373A" offset="100%"></stop>
        </linearGradient>
        <circle id="path-2" cx="37" cy="37" r="37"></circle>
        <filter x="-13.5%" y="-13.5%" width="127.0%" height="127.0%" filterUnits="objectBoundingBox" id="filter-3">
            <feGaussianBlur stdDeviation="10" in="SourceAlpha" result="shadowBlurInner1"></feGaussianBlur>
            <feOffset dx="0" dy="0" in="shadowBlurInner1" result="shadowOffsetInner1"></feOffset>
            <feComposite in="shadowOffsetInner1" in2="SourceAlpha" operator="arithmetic" k2="-1" k3="1" result="shadowInnerInner1"></feComposite>
            <feColorMatrix values="0 0 0 0 0.996078431   0 0 0 0 0.337254902   0 0 0 0 0.349019608  0 0 0 0.221282746 0" type="matrix" in="shadowInnerInner1"></feColorMatrix>
        </filter>
    </defs>
    <g id="页面-1" stroke="none" stroke-width="1" fill="none" fill-rule="evenodd">
        <g id="关联分析-关联参数点击效果" transform="translate(-77.000000, -1335.000000)">
            <g id="风速" transform="translate(77.000000, 1335.000000)">
                <g id="fengsu-2" transform="translate(30.000000, -0.000000)" fill="url(#linearGradient-1)" fill-rule="nonzero">
                    <path d="M41.0322452,37.2570941 L41.0322452,37.0827045 C43.667328,36.4723406 46.3024108,35.4260027 48.4983132,33.7693008 C56.0522173,28.1888315 63.6939575,26.5321297 67.822254,33.2461318 C71.9505504,40.1345236 70.1059924,49.2899811 63.1669409,52.9521641 C50.7820516,59.6661663 41.5592617,52.4289951 36.4647683,46.0637723 C39.2755233,44.145486 41.0322452,41.006472 41.0322452,37.2570941 L41.0322452,37.2570941 Z M8.18154587,7.78524056 C11.7828257,1.07123841 20.5664352,-2.24216525 27.3298144,1.68160224 C39.6268677,8.74438372 38.3093262,20.2541017 35.4985712,27.927247 C33.8296854,27.2296883 31.9851274,26.6193245 30.2284056,26.6193245 C28.2081754,26.6193245 26.2757813,27.2296883 24.7825677,28.1016367 C22.9380097,26.4449348 21.0056156,24.9626227 18.8097133,24.0034795 C10.0261039,20.4284914 4.580266,14.848022 8.18154587,7.78524056 Z M24.079879,55.4808143 C24.8704038,64.8106614 22.4109932,72.2222222 14.5057447,72.2222222 C6.60049617,72.2222222 -0.338555283,65.8569994 0.0127890945,58.0966593 C0.627641755,44.145486 11.2558092,40.0473288 19.512402,38.913796 C20.0394186,42.4887841 22.1474849,45.4534085 25.3095843,47.1101103 C24.4312233,49.7259553 23.7285346,52.6905796 24.079879,55.4808143 L24.079879,55.4808143 Z M30.1405695,43.5351221 C26.8027979,43.5351221 23.9920429,40.7448875 23.9920429,37.4314838 C23.9920429,34.1180802 26.6271257,31.3278455 30.1405695,31.3278455 C33.4783411,31.3278455 36.2890961,33.9436905 36.2890961,37.4314838 C36.2890961,40.7448875 33.6540132,43.5351221 30.1405695,43.5351221 Z" id="形状"></path>
                </g>
                <g id="fengsu-2" transform="translate(0.000000, 26.000000)">
                    <g id="椭圆形">
                        <use fill-opacity="0.15" fill="#FE5659" fill-rule="evenodd" xlink:href="#path-2"></use>
                        <use fill="black" fill-opacity="1" filter="url(#filter-3)" xlink:href="#path-2"></use>
                    </g>
                    <path d="M44.3778719,37.2457705 L44.3778719,37.1322831 C46.0718537,36.7350771 47.7658355,36.0541525 49.177487,34.9760219 C54.0335683,31.3444242 58.9461155,30.2662936 61.6000204,34.6355596 C64.2539252,39.1183131 63.068138,45.0764031 58.6073192,47.4596391 C50.6456046,51.8289051 44.7166683,47.1191768 41.4416367,42.9768857 C43.2485507,41.7285239 44.3778719,39.6857502 44.3778719,37.2457705 L44.3778719,37.2457705 Z M23.2595652,18.066395 C25.5746737,13.697129 31.2212798,11.5408678 35.5691664,14.094335 C43.4744149,18.6905759 42.627424,26.1807462 40.8205101,31.1741931 C39.7476549,30.7202433 38.5618676,30.3230373 37.4325464,30.3230373 C36.133827,30.3230373 34.8915737,30.7202433 33.9316507,31.2876805 C32.7458634,30.2095499 31.5036101,29.2449068 30.0919585,28.6207259 C24.4453525,26.2942336 20.9444567,22.6626359 23.2595652,18.066395 Z M33.4799222,49.1052068 C33.9881167,55.1767843 32.407067,60 27.3251216,60 C22.2431761,60 17.7823573,55.8577088 18.0082216,50.8075183 C18.403484,41.7285239 25.2358773,39.0615694 30.543687,38.3239011 C30.8824834,40.6503934 32.2376688,42.5796797 34.270447,43.6578102 C33.7057864,45.3601217 33.2540579,47.289408 33.4799222,49.1052068 L33.4799222,49.1052068 Z M37.3760804,41.3313179 C35.2303701,41.3313179 33.4234561,39.5155191 33.4234561,37.3592579 C33.4234561,35.2029968 35.1174379,33.3871979 37.3760804,33.3871979 C39.5217907,33.3871979 41.3287046,35.0895093 41.3287046,37.3592579 C41.3287046,39.5155191 39.6347228,41.3313179 37.3760804,41.3313179 Z" id="形状" fill="#FFFFFF" fill-rule="nonzero"></path>
                </g>
            </g>
        </g>
    </g>
</svg>