<?xml version="1.0" encoding="UTF-8"?>
<svg width="24px" height="24px" viewBox="0 0 24 24" version="1.1" xmlns="http://www.w3.org/2000/svg" xmlns:xlink="http://www.w3.org/1999/xlink">
    <title>告警icon</title>
    <g id="页面-4" stroke="none" stroke-width="1" fill="none" fill-rule="evenodd">
        <g id="3.Navigation/1.NavigationMenu/1.顶部导航/2.有重点关注" transform="translate(-1515.000000, -16.000000)">
            <g id="告警组" transform="translate(1497.000000, 0.000000)">
                <g id="告警icon" transform="translate(18.000000, 16.000000)">
                    <rect id="Rectangle" fill="#000000" fill-rule="nonzero" opacity="0" x="0" y="0" width="24" height="24"></rect>
                    <path d="M12,5.61094617 C16.1140679,5.61094617 19.4641589,8.9144957 19.5914871,13.0383222 L19.5952413,13.2818276 L19.595,19.329959 L21.7804765,19.3306384 C22.0505569,19.3306384 22.2695003,19.5517623 22.2695003,19.8245324 L22.2695003,20.506106 C22.2695003,20.7788761 22.0505569,21 21.7804765,21 L2.21952354,21 C1.94944314,21 1.73049971,20.7788761 1.73049971,20.506106 L1.73049971,19.8245324 C1.73049971,19.5517623 1.94944314,19.3306384 2.21952354,19.3306384 L4.404,19.329959 L4.40475872,13.2818276 L4.40851293,13.0383222 C4.53584111,8.9144957 7.88593207,5.61094617 12,5.61094617 Z M12,7.28030774 C8.86325396,7.28030774 6.28297262,9.73936912 6.0722131,12.8416515 L6.06121312,13.0643125 L6.05765924,13.2818276 L6.05748438,19.3297586 L7.394,19.3289584 L7.39489941,15.0526886 C7.39489941,14.7824397 7.61588543,14.5633597 7.8884855,14.5633597 L8.5696343,14.5633597 C8.84223437,14.5633597 9.06322039,14.7824397 9.06322039,15.0526886 L9.063,19.3289584 L17.9417413,19.3297586 L17.9425411,13.3078179 L17.9393896,13.0903538 C17.8395825,9.8578613 15.2114305,7.28030774 12,7.28030774 Z M22.5109762,12.2630159 C22.7810566,12.2630159 23,12.4841398 23,12.7569099 L23,13.4384835 C23,13.7112536 22.7810566,13.9323775 22.5109762,13.9323775 L20.9500021,13.9323775 C20.6799217,13.9323775 20.4609783,13.7112536 20.4609783,13.4384835 L20.4609783,12.7569099 C20.4609783,12.4841398 20.6799217,12.2630159 20.9500021,12.2630159 L22.5109762,12.2630159 Z M3.04999792,12.2630159 C3.32007832,12.2630159 3.53902174,12.4841398 3.53902174,12.7569099 L3.53902174,13.4384835 C3.53902174,13.7112536 3.32007832,13.9323775 3.04999792,13.9323775 L1.48902382,13.9323775 C1.21894342,13.9323775 1,13.7112536 1,13.4384835 L1,12.7569099 C1,12.4841398 1.21894342,12.2630159 1.48902382,12.2630159 L3.04999792,12.2630159 Z M19.5373521,5.00946743 L20.0189971,5.49141278 C20.2117544,5.68429037 20.2131988,5.9955615 20.0222231,6.1866563 L18.9184477,7.29112014 C18.727472,7.48221494 18.4163949,7.4807697 18.2236376,7.28789212 L17.7419926,6.80594676 C17.5492353,6.61306917 17.5477909,6.30179805 17.7387666,6.11070325 L18.842542,5.00623941 C19.0335177,4.81514461 19.3445948,4.81658984 19.5373521,5.00946743 Z M5.15745801,5.00623941 L6.26123338,6.11070325 C6.45220906,6.30179805 6.45076473,6.61306917 6.25800737,6.80594676 L5.77636243,7.28789212 C5.58360508,7.4807697 5.27252798,7.48221494 5.0815523,7.29112014 L3.97777693,6.1866563 C3.78680125,5.9955615 3.78824558,5.68429037 3.98100294,5.49141278 L4.46264787,5.00946743 C4.65540523,4.81658984 4.96648232,4.81514461 5.15745801,5.00623941 Z M12.3405744,2 C12.6131745,2 12.8341605,2.21907999 12.8341605,2.48932885 L12.8341605,4.05127659 C12.8341605,4.32152545 12.6131745,4.54060544 12.3405744,4.54060544 L11.6594256,4.54060544 C11.3868255,4.54060544 11.1658395,4.32152545 11.1658395,4.05127659 L11.1658395,2.48932885 C11.1658395,2.21907999 11.3868255,2 11.6594256,2 L12.3405744,2 Z" id="Shape" fill-opacity="0.85" fill="#FFFFFF"></path>
                </g>
            </g>
        </g>
    </g>
</svg>