<?xml version="1.0" standalone="no"?><!DOCTYPE svg PUBLIC "-//W3C//DTD SVG 1.1//EN" "http://www.w3.org/Graphics/SVG/1.1/DTD/svg11.dtd"><svg t="1657093757890" class="icon" viewBox="0 0 1024 1024" version="1.1" xmlns="http://www.w3.org/2000/svg" p-id="2671" xmlns:xlink="http://www.w3.org/1999/xlink" width="200" height="200"><defs><style type="text/css"></style></defs><path d="M921.2928 959.488V116.224L775.8848 0 291.7376 165.7856v41.472l439.6032-135.7312v948.8384H1024v-60.928h-102.7072zM134.2976 699.6992l230.4512-42.3424v-107.1104l-230.4512 55.552v93.952z m0 322.048h230.4512V909.312l-230.4512 15.36v97.1264z m0-161.536l230.4512-20.4288v-107.008l-230.4512 35.4816v91.9552z m0-324.096l230.4512-58.2144V366.592L134.2976 438.0672v97.9968z m486.0928-276.9408L490.2912 186.7264 0.256 348.6208 0 1024h64.512V381.3376l366.6944-110.7456v749.9264h189.2352V259.1744h-0.0512z" fill="#FFFFFF" p-id="2672"></path></svg>