<?xml version="1.0" encoding="UTF-8"?>
<svg width="24px" height="24px" viewBox="0 0 24 24" version="1.1" xmlns="http://www.w3.org/2000/svg" xmlns:xlink="http://www.w3.org/1999/xlink">
    <title>删除-计划细则</title>
    <g id="删除-计划细则" stroke="none" stroke-width="1" fill="none" fill-rule="evenodd">
        <g id="垃圾桶" fill="#000000" fill-rule="nonzero">
            <rect id="矩形" opacity="0" x="0" y="0" width="24" height="24"></rect>
            <path d="M20.90625,5.31234375 C21.1652344,5.31234375 21.375,5.52210938 21.375,5.78109375 C21.375,6.04007813 21.1652344,6.24984375 20.90625,6.24984375 L19.098,6.24892187 L19.09875,18.5969531 C19.09875,20.0184375 17.9423438,21.1750781 16.520625,21.1750781 L7.41,21.1750781 C5.98851563,21.1750781 4.831875,20.0184375 4.831875,18.5969531 L4.831,6.24892187 L3.09375,6.24984375 C2.83476563,6.24984375 2.625,6.04007813 2.625,5.78109375 C2.625,5.52210938 2.83476563,5.31234375 3.09375,5.31234375 L20.90625,5.31234375 Z M18.16125,6.24984375 L5.769375,6.24984375 L5.769375,18.5969531 C5.769375,19.5016406 6.5053125,20.2375781 7.41,20.2375781 L16.520625,20.2375781 C17.4253125,20.2375781 18.16125,19.5016406 18.16125,18.5969531 L18.16125,6.24984375 Z M9.13125,8.62617188 C9.39023438,8.62617188 9.6,8.8359375 9.6,9.09492188 L9.6,17.1735938 C9.6,17.4323438 9.39023438,17.6421094 9.13125,17.6421094 C8.87226563,17.6421094 8.6625,17.4323438 8.6625,17.1733594 L8.6625,9.09492188 C8.6625,8.8359375 8.87226563,8.62617188 9.13125,8.62617188 Z M11.9929688,8.62617188 C12.2519531,8.62617188 12.4617188,8.8359375 12.4617188,9.09492188 L12.4617188,17.1735938 C12.4617188,17.4323438 12.2519531,17.6421094 11.9929688,17.6421094 C11.7339844,17.6421094 11.5242188,17.4323438 11.5242188,17.1733594 L11.5242188,9.09492188 C11.5242188,8.8359375 11.7339844,8.62617188 11.9929688,8.62617188 Z M14.8549219,8.62617188 C15.1139063,8.62617188 15.3236719,8.8359375 15.3236719,9.09492188 L15.3236719,17.1735938 C15.3236719,17.4323438 15.1136719,17.6421094 14.8549219,17.6421094 C14.5959375,17.6421094 14.3861719,17.4323438 14.3861719,17.1733594 L14.3861719,9.09492188 C14.3861719,8.8359375 14.5959375,8.62617188 14.8549219,8.62617188 Z M14.9573438,2.82492188 C15.2163281,2.82492188 15.4260938,3.0346875 15.4260938,3.29367188 C15.4260938,3.55265625 15.2163281,3.76242188 14.9573438,3.76242188 L9.04265625,3.76242188 C8.78367188,3.76242188 8.57390625,3.55265625 8.57390625,3.29367188 C8.57390625,3.0346875 8.78367188,2.82492188 9.04265625,2.82492188 L14.9573438,2.82492188 Z" id="形状结合" fill-opacity="0.45"></path>
        </g>
    </g>
</svg>