<?xml version="1.0" encoding="UTF-8"?>
<svg width="345px" height="58px" viewBox="0 0 345 58" version="1.1" xmlns="http://www.w3.org/2000/svg" xmlns:xlink="http://www.w3.org/1999/xlink">
    <!-- Generator: Sketch 59.1 (86144) - https://sketch.com -->
    <title>编组 33</title>
    <desc>Created with Sketch.</desc>
    <g id="碳排放模块" stroke="none" stroke-width="1" fill="none" fill-rule="evenodd">
        <g id="编组-33" transform="translate(0.000000, 0.982106)" fill="#FFFFFF">
            <path d="M344.010602,45.3995762 L344.007395,49.0178936 C344.007395,53.4361716 340.425673,57.0178936 336.007395,57.0178936 L8.00739525,57.0178936 C3.58911725,57.0178936 0.00739524525,53.4361716 0.00739524525,49.0178936 L0.00706878794,0.916804326 C1.21633521,0.69086332 2.42997014,0.498098616 3.64797357,0.338510216 C46.3764021,-5.25996466 267.810199,60.6516734 344.010602,45.3995762 Z" id="形状结合" opacity="0.115234375"></path>
            <path d="M322.627921,11.0854809 C328.956269,9.82877297 336.082658,9.63857655 344.007089,10.5148917 L344.007395,49.0178936 C344.007395,53.4361716 340.425673,57.0178936 336.007395,57.0178936 L8.00739525,57.0178936 C3.58911725,57.0178936 0.00739524525,53.4361716 0.00739524525,49.0178936 L5.99520433e-14,26.5616341 C96.5065908,65.6764061 278.876639,19.7737809 322.627921,11.0854809 Z" id="形状结合" opacity="0.140671503"></path>
        </g>
    </g>
</svg>