<?xml version="1.0" encoding="UTF-8"?>
<svg width="377px" height="52px" viewBox="0 0 377 52" version="1.1" xmlns="http://www.w3.org/2000/svg" xmlns:xlink="http://www.w3.org/1999/xlink">
    <title>抬头备份</title>
    <defs>
        <rect id="path-1" x="0" y="0" width="377" height="52"></rect>
    </defs>
    <g id="页面-1" stroke="none" stroke-width="1" fill="none" fill-rule="evenodd">
        <g id="抬头备份">
            <mask id="mask-2" fill="white">
                <use xlink:href="#path-1"></use>
            </mask>
            <g id="蒙版"></g>
            <g id="编组-24" opacity="0.5" mask="url(#mask-2)">
                <g transform="translate(57.000000, -6.000000) rotate(-315.000000) translate(-57.000000, 6.000000) translate(12.000000, -42.000000)" id="编组-23备份-4">
                    <g transform="translate(18.000000, -0.000000)">
                        <rect id="矩形备份-24" fill="#FB2B81" x="36" y="0" width="18" height="18"></rect>
                        <rect id="矩形备份-28" fill="#1690FF" opacity="0.29531715" x="18" y="18" width="18" height="18"></rect>
                        <rect id="矩形备份-27" fill="#1690FF" opacity="0.668759301" x="36" y="18" width="18" height="18"></rect>
                        <rect id="矩形备份-26" fill="#1690FF" opacity="0.105794271" x="54" y="18" width="18" height="18"></rect>
                        <rect id="矩形备份-33" fill="#1690FF" opacity="0.29531715" x="0" y="36" width="18" height="18"></rect>
                        <rect id="矩形备份-34" fill="#1690FF" opacity="0.105794271" x="2.27373675e-13" y="54" width="18" height="18"></rect>
                        <rect id="矩形备份-38" fill="#1690FF" opacity="0.105794271" x="36.3847763" y="53.8700577" width="18" height="18"></rect>
                        <rect id="矩形备份-32" fill="#1690FF" x="18" y="36" width="18" height="18"></rect>
                    </g>
                </g>
            </g>
            <g id="编组-24备份" opacity="0.5" mask="url(#mask-2)">
                <g transform="translate(320.000000, 58.000000) scale(-1, -1) rotate(-315.000000) translate(-320.000000, -58.000000) translate(275.000000, 22.000000)" id="编组-23备份-4">
                    <g transform="translate(18.000000, -0.000000)">
                        <rect id="矩形备份-24" fill="#FB2B81" x="36" y="0" width="18" height="18"></rect>
                        <rect id="矩形备份-28" fill="#1690FF" opacity="0.29531715" x="18" y="18" width="18" height="18"></rect>
                        <rect id="矩形备份-27" fill="#1690FF" opacity="0.668759301" x="36" y="18" width="18" height="18"></rect>
                        <rect id="矩形备份-26" fill="#1690FF" opacity="0.105794271" x="54" y="18" width="18" height="18"></rect>
                        <rect id="矩形备份-33" fill="#1690FF" opacity="0.29531715" x="0" y="36" width="18" height="18"></rect>
                        <rect id="矩形备份-34" fill="#1690FF" opacity="0.105794271" x="2.27373675e-13" y="54" width="18" height="18"></rect>
                        <rect id="矩形备份-38" fill="#1690FF" opacity="0.105794271" x="36.3847763" y="53.8700577" width="18" height="18"></rect>
                        <rect id="矩形备份-32" fill="#1690FF" x="18" y="36" width="18" height="18"></rect>
                    </g>
                </g>
            </g>
        </g>
    </g>
</svg>