<?xml version="1.0" encoding="UTF-8"?>
<svg width="14px" height="14px" viewBox="0 0 14 14" version="1.1" xmlns="http://www.w3.org/2000/svg" xmlns:xlink="http://www.w3.org/1999/xlink">
    <title>编组 11备份</title>
    <g id="页面-1" stroke="none" stroke-width="1" fill="none" fill-rule="evenodd">
        <g id="空调群控-当月综合能效比" transform="translate(-1447.000000, -173.000000)" fill-rule="nonzero">
            <g id="编组-11备份" transform="translate(1447.000000, 173.000000)">
                <rect id="矩形" fill="#000000" opacity="0" x="0" y="0" width="14" height="14"></rect>
                <path d="M9.1777793,10.9822207 L4.88444141,10.9822207 C4.63555859,10.9822207 4.44888281,11.1688828 4.44888281,11.3866621 C4.44888281,11.6355586 4.63555859,11.7911172 4.88444141,11.7911172 L9.17779297,11.7911172 C9.42667578,11.7911172 9.61335156,11.6044414 9.61335156,11.3866621 C9.58223437,11.1377793 9.42667578,10.9822207 9.17779297,10.9822207 L9.1777793,10.9822207 Z M6.59555859,13.3466621 C6.84444141,13.44 7.12444141,13.44 7.37333789,13.3466621 L8.96,12.6 L5.07111719,12.6 L6.59555859,13.3466621 Z M10.6088828,1.83555859 C9.61333789,0.871117188 8.4,0.404441406 7,0.404441406 C5.56888281,0.404441406 4.38666211,0.871117188 3.39111719,1.83555859 C2.36444141,2.8 1.86666211,3.92 1.86666211,5.25776563 C1.86666211,5.44444141 1.86666211,5.63111719 1.8977793,5.81776563 C1.8977793,5.84888281 1.92888281,5.91111719 1.92888281,5.9422207 C1.96,6.12888281 1.96,6.25333789 2.0222207,6.40888281 L2.0222207,6.47111719 C2.08444141,6.6577793 2.11555859,6.7822207 2.1777793,6.9377793 L2.1777793,6.96888281 C2.1777793,7 2.1777793,7 2.20888281,7 C2.27111719,7.18666211 2.36444141,7.3422207 2.42667578,7.4977793 C2.42667578,7.52888281 2.42667578,7.52888281 2.4577793,7.52888281 C2.64444141,7.87111719 2.8622207,8.15111719 3.11111719,8.4622207 L3.48444141,8.80444141 C3.54666211,8.86666211 3.5777793,8.86666211 3.5777793,8.86666211 L3.67111719,8.96 L3.76444141,9.0222207 L4.01333789,9.20888281 L4.04444141,9.24 C4.07555859,9.27111719 4.07555859,9.27111719 4.10666211,9.27111719 C4.2622207,9.39555859 4.35555859,9.52 4.44888281,9.67555859 C4.5422207,9.83111719 4.60444141,9.92444141 4.66667578,10.0177656 C4.72888281,10.08 4.88444141,10.1111172 5.07111719,10.1111172 L8.92888281,10.1111172 C9.11555859,10.1111172 9.27111719,10.08 9.33333789,10.0177793 C9.39554492,9.95555859 9.48888281,9.83111719 9.55111719,9.67555859 C9.61332422,9.52 9.7377793,9.39555859 9.89332422,9.27111719 L9.92444141,9.24 L9.98666211,9.20888281 L10.2355586,9.0222207 C10.2355586,8.99111719 10.2977656,8.96 10.3288828,8.96 L10.4844414,8.80444141 L10.5155586,8.77333789 C10.6711172,8.64888281 10.7955586,8.52444141 10.8888828,8.43111719 C11.0133379,8.27555859 11.1377793,8.12 11.2311172,7.96444141 C11.3244414,7.80888281 11.4488828,7.65333789 11.5111172,7.46666211 C11.5422207,7.46666211 11.5422207,7.46666211 11.5422207,7.43555859 C11.6044414,7.31111719 11.6977793,7.12444141 11.76,6.93776563 L11.7911172,6.90666211 L11.7911172,6.87555859 C11.8533242,6.75111719 11.8844414,6.59555859 11.9466621,6.40888281 C11.9466621,6.3777793 11.9466621,6.34667578 11.9777793,6.34667578 L12.0711172,5.88 C12.0711172,5.84888281 12.0711172,5.78666211 12.1022207,5.75555859 C12.1333379,5.56888281 12.1333379,5.3822207 12.1333379,5.19555859 C12.1333379,3.92 11.6355449,2.8 10.6088828,1.83555859 L10.6088828,1.83555859 Z M10.7022207,4.66666211 C10.64,4.6977793 10.6088828,4.6977793 10.5466621,4.6977793 C10.3911172,4.6977793 10.2666621,4.60444141 10.2044551,4.48 C10.0488828,4.10666211 9.8,3.76444141 9.4577793,3.45333789 C9.08444141,3.08 8.64888281,2.83111719 8.1822207,2.67554492 C7.99555859,2.61333789 7.87111719,2.39554492 7.93333789,2.1777793 C7.99554492,1.99111719 8.21333789,1.86666211 8.43111719,1.92888281 C8.99111719,2.11555859 9.52,2.42667578 9.98666211,2.8622207 C10.3911172,3.23555859 10.7022207,3.67111719 10.8888828,4.10666211 C10.9822207,4.35555859 10.8888828,4.57333789 10.7022207,4.66666211 Z" id="形状" fill="#1890FF"></path>
            </g>
        </g>
    </g>
</svg>