<svg fill="none" height="124" viewBox="0 0 120 124" width="120" xmlns="http://www.w3.org/2000/svg" xmlns:xlink="http://www.w3.org/1999/xlink"><linearGradient id="a" gradientUnits="userSpaceOnUse" x1="6.12329" x2="102.974" y1="104.338" y2="6.99186"><stop offset="0" stop-color="#d1e9ff" stop-opacity="0"/><stop offset=".9981" stop-color="#d1e9ff"/></linearGradient><linearGradient id="b"><stop offset="0" stop-color="#1890ff"/><stop offset="1" stop-color="#1890ff" stop-opacity=".2"/></linearGradient><linearGradient id="c" gradientUnits="userSpaceOnUse" x1="76.469" x2="76.469" xlink:href="#b" y1="15.5" y2="93.9752"/><linearGradient id="d" gradientUnits="userSpaceOnUse" x1="76.5617" x2="76.5617" xlink:href="#b" y1="21.7002" y2="63.0335"/><path d="m108.046 96.6443c-2.552-16.0319-5.374-32.0233-7.658-48.0958-1.1896-8.3725-3.9752-19.5654-13.5637-21.0256-10.2428-1.5597-14.396 10.1613-22.6054 12.6652-8.4901 2.5898-14.754-7.81-18.0177-15.1863-3.8383-8.6747-5.179-25.0018-18.0844-25.0018-23.13941 0-18.23743 36.6478-11.7578 51.0154 3.5335 7.8348-2.9186 15.8822-5.5558 23.2987-4.60818 12.9599-.0522 28.0819 9.8879 37.5759 5.9789 5.71 14.064 3.487 19.8062-1.81 6.9784-6.437 9.0471-19.5929 18.5061-22.0116 7.9426-2.031 13.2977 6.736 14.8988 13.6806 1.1937 5.178 1.9759 10.62 4.8435 15.091 6.9825 10.888 24.5563 8.987 29.0273-3.181 1.981-5.388 1.176-11.344.273-17.0147z" fill="url(#a)"/><g stroke="#1890ff"><path d="m84.701 107.527h-.2472l-.1501.196-4.9992 6.543c-1.2567 1.645-3.7442 1.645-5.0008 0h-.0001l-4.9992-6.543-.1501-.196h-.2472-53.0512c-2.4087 0-4.3559-1.943-4.3559-4.336v-55.3565c0-2.5558 2.2129-4.5612 4.774-4.3138h.0002l41.8509 4.0282 38.4396 3.7017h.0001c2.234.2149 3.9352 2.0827 3.9352 4.3135v47.6269c0 2.393-1.9472 4.336-4.3559 4.336z" fill="#fff"/><path d="m32.5 88.5h30v3h-30z" fill="#1890ff"/><path d="m21.5 88.5h8v3h-8z" fill="#1890ff"/></g><path d="m21 94h42v4h-42z" fill="#d1e9ff"/><path d="m21 82h42v4h-42z" fill="#d1e9ff"/><path d="m27 62.4264v9.8553c0 .7878.6069 1.4264 1.3556 1.4264h7.4118l1.305 1.8698c.3933.5628 1.1929.5628 1.5852 0l1.3059-1.8698h2.6809c.7487 0 1.3556-.6386 1.3556-1.4264v-9.8553c0-.7878-.6069-1.4264-1.3556-1.4264h-14.2885c-.749 0-1.3559.6386-1.3559 1.4264z" fill="#d1e9ff"/><path d="m38 55.4264v9.8553c0 .7878-.6069 1.4264-1.3556 1.4264h-7.4118l-1.305 1.8698c-.3933.5628-1.1929.5628-1.5852 0l-1.3059-1.8698h-2.6809c-.7487 0-1.3556-.6386-1.3556-1.4264v-9.8553c0-.7878.6069-1.4264 1.3556-1.4264h14.2885c.749-.0003 1.3559.6386 1.3559 1.4264z" fill="#13c2c2"/><path d="m95.6434 23.4494c-10.5864-10.5994-27.7635-10.5992-38.3495.0006-10.5032 10.517-10.423 28.0448.1718 38.4696.08.0787.1603.1567.2412.2344 8.2813 7.9522 13.879 18.2868 16.0333 29.5642.5748 3.0093 4.883 3.0093 5.458 0 2.1541-11.2772 7.7511-21.6118 16.0325-29.5636.081-.0778.1618-.1563.242-.2352 10.5943-10.4252 10.6743-27.9533.1707-38.47z" fill="url(#c)"/><path d="m76.5613 64.067c11.9846 0 21.7-9.7154 21.7-21.7s-9.7154-21.7-21.7-21.7c-11.9845 0-21.7 9.7154-21.7 21.7s9.7155 21.7 21.7 21.7z" fill="#fff"/><path d="m76.5617 63.0335c11.4139 0 20.6667-9.2528 20.6667-20.6666 0-11.4139-9.2528-20.6667-20.6667-20.6667s-20.6667 9.2528-20.6667 20.6667c0 11.4138 9.2528 20.6666 20.6667 20.6666z" fill="url(#d)"/><path d="m78.8556 80h-4.7112c-.6319 0-1.1444-.4476-1.1444-1s.5125-1 1.1444-1h4.7112c.6322 0 1.1444.4476 1.1444 1s-.5125 1-1.1444 1z" fill="#fff"/><path d="m40.1715 18h4v4h-4z" stroke="#13c2c2" stroke-width="2" transform="matrix(.70710678 -.70710678 .70710678 .70710678 -.961962 33.677618)"/><path d="m104.414 97.2422h4v4h-4z" stroke="#1890ff" stroke-width="2" transform="matrix(.70710678 -.70710678 .70710678 .70710678 -38.178466 102.313428)"/><path d="m12.4142 115.242h4v4h-4z" stroke="#d1e9ff" stroke-width="2" transform="matrix(.70710678 -.70710678 .70710678 .70710678 -77.852365 42.531765)"/><path d="m86 51v-10.8778c0-.2139-.0926-.4162-.2517-.5499l-8.8294-7.418c-.2449-.2057-.5929-.2057-.8378 0l-8.8294 7.418c-.1591.1337-.2517.336-.2517.5499v10.8778h5.7v-7.519c0-.3889.3002-.7042.6706-.7042h6.2588c.3704 0 .6706.3153.6706.7042v7.519z" fill="#fff"/><path d="m76.8353 51v-4.2325c0-.1945-.1501-.3522-.3353-.3522s-.3353.1577-.3353.3522v4.2325z" fill="#fff"/></svg>