<svg fill="none" height="120" viewBox="0 0 120 120" width="120" xmlns="http://www.w3.org/2000/svg" xmlns:xlink="http://www.w3.org/1999/xlink"><linearGradient id="a" gradientUnits="userSpaceOnUse" x1="-3.45205" x2="64.7584" y1="92.8107" y2="-13.4139"><stop offset="0" stop-color="#d1e9ff" stop-opacity="0"/><stop offset=".9981" stop-color="#d1e9ff"/></linearGradient><linearGradient id="b" gradientUnits="userSpaceOnUse" x1="50.5" x2="6.5" y1="65.5" y2="66"><stop offset="0" stop-color="#1890ff"/><stop offset="1" stop-color="#1890ff" stop-opacity="0"/></linearGradient><linearGradient id="c" gradientUnits="userSpaceOnUse" x1="81" x2="35.5" y1="65" y2="66"><stop offset="0" stop-color="#13c2c2"/><stop offset="1" stop-color="#13c2c2" stop-opacity="0"/></linearGradient><linearGradient id="d" gradientUnits="userSpaceOnUse" x1="113" x2="64.5" y1="66" y2="66"><stop offset=".0161371" stop-color="#fcaf5c"/><stop offset="1" stop-color="#ffd3a3" stop-opacity="0"/></linearGradient><path d="m31.8945 95.1867c-2.136-36.738-18.2946-25.113-27.54253-39.7001-15.11297-23.838 12.02463-53.27926 37.13183-40.3157 4.4529 2.2992 8.235 5.7215 12.6007 8.1846 25.8274 16.1475 48.4705-21.0298 61.4045 7.0167 6.199 13.4414 6.802 33.479-3.239 45.0595-10.77 12.4195-33.6237 8.6923-43.3844 21.9183-11.96 16.206-36.1029 12.768-36.9711-2.1633z" fill="url(#a)"/><path d="m49.6189 67.3205-6.8203 9.2063c-.4852.6562-1.2539 1.0453-2.0719 1.0453h-31.55273c-.96234 0-1.51453-1.096-.94171-1.8694l6.46394-8.7268c.5239-.7073.5238-1.6738-.0001-2.381l-6.46361-8.7245c-.57305-.7735-.02086-1.8694.94172-1.8694h31.55229c.8179 0 1.5867.3867 2.0719 1.0429l6.8203 9.2086c.6752.9118.6752 2.1563.0002 3.068z" fill="url(#b)"/><path d="m74.0807 76.5268 6.8203-9.2063c.675-.9117.675-2.1562-.0002-3.068l-6.8203-9.2086c-.4875-.6562-1.2539-1.0429-2.0719-1.0429h-31.282c.8179 0 1.5867.3867 2.0718 1.0429l6.8204 9.2086c.6752.9118.6752 2.1563.0002 3.068l-6.8203 9.2063c-.4852.6562-1.2539 1.0453-2.0719 1.0453h31.282c.818 0 1.5844-.3891 2.0719-1.0453z" fill="url(#c)"/><path d="m105.354 76.5268 6.82-9.2063c.675-.9117.675-2.1562 0-3.068l-6.82-9.2086c-.488-.6562-1.254-1.0429-2.072-1.0429h-31.282c.818 0 1.5867.3867 2.0719 1.0429l6.8203 9.2086c.6752.9118.6752 2.1563.0002 3.068l-6.8203 9.2063c-.4851.6562-1.2539 1.0453-2.0719 1.0453h31.2818c.818 0 1.585-.3891 2.072-1.0453z" fill="url(#d)"/><g stroke-width="2"><path d="m55.4142 36.2422h4v4h-4z" stroke="#13c2c2" transform="matrix(.70710678 -.70710678 .70710678 .70710678 -9.396662 49.798851)"/><path d="m24.4142 89.2422h4v4h-4z" stroke="#d1e9ff" transform="matrix(.70710678 -.70710678 .70710678 .70710678 -55.953011 43.401882)"/><path d="m40.4142 102.242h4v4h-4z" stroke="#1890ff" transform="matrix(.70710678 -.70710678 .70710678 .70710678 -60.458966 58.523143)"/></g><path d="m32.6871 58.1077-.1349-.1039h-.1703-24.19173c-.93537 0-1.69017-.7547-1.69017-1.6815v-25.1408c0-.9268.7548-1.6815 1.69017-1.6815h29.61963c.9361 0 1.691.7555 1.6902 1.6827v.0001l-.0223 30.5066c-.0006.6684-.7752 1.0528-1.313.6385z" fill="#fff" stroke="#1890ff"/><path d="m14.4791 54.7337c2.7405 0 4.9621-2.2216 4.9621-4.9621 0-2.7404-2.2216-4.962-4.9621-4.962-2.7404 0-4.96201 2.2216-4.96201 4.962 0 2.7405 2.22161 4.9621 4.96201 4.9621z" fill="#1890ff"/><path d="m13.0347 33.6895h23.4483v2.34483h-23.4483z" fill="#d1e9ff"/><path d="m17.7241 38.3789h18.7586v2.34483h-18.7586z" fill="#d1e9ff"/><path d="m22.4136 43.0693h14.069v2.34483h-14.069z" fill="#d1e9ff"/><path d="m96.6871 41.1077-.1349-.1039h-.1703-24.1917c-.9354 0-1.6902-.7547-1.6902-1.6815v-25.1408c0-.9268.7548-1.6815 1.6902-1.6815h29.6198c.936 0 1.691.7555 1.69 1.6827v.0001l-.022 30.5066c-.001.6684-.776 1.0528-1.313.6385z" fill="#fff" stroke="#fcaf5c"/><path d="m78.4791 37.7337c2.7405 0 4.9621-2.2216 4.9621-4.9621 0-2.7404-2.2216-4.962-4.9621-4.962-2.7404 0-4.962 2.2216-4.962 4.962 0 2.7405 2.2216 4.9621 4.962 4.9621z" fill="#fcaf5c"/><path d="m77.0347 16.6895h23.4483v2.34483h-23.4483z" fill="#fee8d0"/><path d="m81.7241 21.3789h18.7586v2.34483h-18.7586z" fill="#fee8d0"/><path d="m86.4136 26.0693h14.069v2.34483h-14.069z" fill="#fee8d0"/><path d="m65.3129 88.8923.1349.1039h.1703 24.1917c.9354 0 1.6902.7547 1.6902 1.6815v25.1413c0 .926-.7548 1.681-1.6902 1.681h-29.6196c-.9361 0-1.691-.756-1.6902-1.683l.0223-30.5064c.0006-.6684.7752-1.0528 1.313-.6385z" fill="#fff" stroke="#13c2c2"/><path d="m83.5209 92.2663c-2.7405 0-4.9621 2.2216-4.9621 4.9621 0 2.7404 2.2216 4.9616 4.9621 4.9616 2.7404 0 4.962-2.2212 4.962-4.9616 0-2.7405-2.2216-4.9621-4.962-4.9621z" fill="#13c2c2"/><path d="m84.9653 113.311h23.4483v2.34483h-23.4483z" fill="#c2f2f2" transform="matrix(-1 0 0 -1 169.9306 226.622)"/><path d="m80.2759 108.621h18.7586v2.34483h-18.7586z" fill="#c2f2f2" transform="matrix(-1 0 0 -1 160.5518 217.242)"/><path d="m75.5864 103.931h14.069v2.34483h-14.069z" fill="#c2f2f2" transform="matrix(-1 0 0 -1 151.1728 207.862)"/></svg>