<svg fill="none" height="120" viewBox="0 0 120 120" width="120" xmlns="http://www.w3.org/2000/svg" xmlns:xlink="http://www.w3.org/1999/xlink"><linearGradient id="a" gradientUnits="userSpaceOnUse" x1="9.14335" x2="102.871" y1="100.972" y2="7.24482"><stop offset="0" stop-color="#d1e9ff" stop-opacity="0"/><stop offset=".9981" stop-color="#d1e9ff"/></linearGradient><path d="m81.7384.0001635c-16.4941-.0370312-48.5749 6.2060165-35.6775 29.1393365 4.0132 6.7632 10.7991 17.3614 2.9407 23.7415-3.2418 2.2915-7.6029 1.6831-11.5643 1.9507-40.06567 4.3046-28.50957 72.5943 3.9947 64.5033 19.3355-7.159 2.0021-29.4485 6.9066-42.948 5.0829-13.9911 30.15-8.0304 37.2595-15.1402 9.8503-9.8503-1.1843-25.2687 5.3756-29.2467 3.6164-1.3934 7.2139 3.2231 11.0323 2.5587 2.719-.4732 4.272-3.3671 5.046-6.0169 4.382-14.9949-3.799-28.5417365-25.3136-28.5417365z" fill="url(#a)"/><path d="m99.2699 62.0332c-1.2717 23.5301-20.7541 42.2188-44.6015 42.2188-24.7442 0-44.66887-19.9246-44.6684-44.6685.0002-23.8474 18.6884-43.3298 42.2187-44.6016 1.3338-.0721 2.4494 1.0055 2.4494 2.3414v42.2607h42.2607c1.3354 0 2.4131 1.1154 2.3411 2.4492z" fill="#1890ff"/><path d="m23.5189 80.7881c-4.2197-6.1894-6.4891-13.5152-6.4891-21.2058.0019-18.303 13.0938-33.6841 30.607-36.9827v34.0702z" fill="#d1e9ff"/><path d="m54.6678 97.2202c-7.6673 0-14.9843-2.2775-21.1795-6.5131l24.0921-24.0919h34.0699c-3.2988 17.5123-18.6834 30.605-36.9825 30.605z" fill="#d1e9ff"/><path d="m110.105 64.304c-1.243-22.6929-19.425-40.8745-42.1181-42.1176-1.3655-.0748-2.4825.9733-2.4825 2.3409v39.9155c0 1.2944 1.0493 2.3437 2.3437 2.3437h39.9159c1.349 0 2.415-1.1355 2.341-2.4825z" fill="#13c2c2"/><path d="m72.5356 59.7555v-29.9489c7.3777 1.3969 14.1992 4.9843 19.5821 10.3669 5.3829 5.3827 8.9703 12.2046 10.3673 19.582z" fill="#c2f2f2"/><g fill="#fff"><path d="m32 35h6v3h-6z"/><path d="m32 41h12v3h-12z"/><path d="m57 72h6v3h-6z"/><path d="m57 78h12v3h-12z"/><path d="m79 45h6v3h-6z"/><path d="m79 51h12v3h-12z"/></g><path d="m76.4142 13.2422h4v4h-4z" stroke="#13c2c2" stroke-width="2" transform="matrix(.70710678 -.70710678 .70710678 .70710678 13.017552 57.91155)"/><path d="m7.41421 94.2422h4v4h-4z" stroke="#d1e9ff" stroke-width="2" transform="matrix(.70710678 -.70710678 .70710678 .70710678 -64.467727 32.845539)"/><path d="m96.4142 97.2422h4v4h-4z" stroke="#1890ff" stroke-width="2" transform="matrix(.70710678 -.70710678 .70710678 .70710678 -40.521554 96.656716)"/></svg>