<svg fill="none" height="120" viewBox="0 0 121 120" width="121" xmlns="http://www.w3.org/2000/svg" xmlns:xlink="http://www.w3.org/1999/xlink"><linearGradient id="a" gradientUnits="userSpaceOnUse" x1="-2.00608" x2="91.5665" y1="100.973" y2="1.8566"><stop offset="0" stop-color="#d1e9ff" stop-opacity="0"/><stop offset=".9981" stop-color="#d1e9ff"/></linearGradient><linearGradient id="b" gradientUnits="userSpaceOnUse" x1="114.572" x2="65.3781" y1="54.8878" y2="54.8878"><stop offset="0" stop-color="#ffd3a3" stop-opacity="0"/><stop offset="1" stop-color="#fcaf5c"/></linearGradient><linearGradient id="c"><stop offset="0" stop-color="#1890ff"/><stop offset="1" stop-color="#1890ff" stop-opacity="0"/></linearGradient><linearGradient id="d" gradientUnits="userSpaceOnUse" x1="78.5" x2="112.999" xlink:href="#c" y1="79.0859" y2="78.8448"/><linearGradient id="e" gradientUnits="userSpaceOnUse" x1="113.835" x2="67.9182" y1="66.5417" y2="69.9732"><stop offset="0" stop-color="#13c2c2" stop-opacity="0"/><stop offset="1" stop-color="#13c2c2"/></linearGradient><linearGradient id="f" gradientUnits="userSpaceOnUse" x1="49.6299" x2="6.53535" xlink:href="#c" y1="54.5259" y2="55.1889"/><linearGradient id="g" gradientUnits="userSpaceOnUse" x1="49.5865" x2=".392707" y1="78.9737" y2="78.9737"><stop offset=".0161371" stop-color="#fcaf5c"/><stop offset="1" stop-color="#ffd3a3" stop-opacity="0"/></linearGradient><linearGradient id="h" gradientUnits="userSpaceOnUse" x1="48.8496" x2="2.93281" y1="66.5417" y2="69.9732"><stop offset="0" stop-color="#13c2c2"/><stop offset="1" stop-color="#13c2c2" stop-opacity="0"/></linearGradient><path d="m29.2243.295865c-13.5279 1.086565-20.68175 12.521735-14.9712 25.161335 3.6354 11.7853 28.4655 19.9319 17.4328 27.7751-8.9505 6.9241-20.3993 11.7117-25.91179 21.5941-28.61441 65.9036 79.55479 60.7326 62.42559-22.3317-1.0561-4.6069-2.7085-10.2609.8067-13.4231 5.8347-4.2879 13.3326-.3502 19.7442.6316 5.0273.8723 11.1642-.0598 13.5464-4.5719 7.419-25.24129-54.2939-37.212-73.0727-34.835435z" fill="url(#a)"/><path d="m61 107c22.0914 0 40-17.9086 40-40s-17.9086-40-40-40-40 17.9086-40 40 17.9086 40 40 40z" fill="#8bc7ff"/><path d="m61 102c-19.2991 0-35-15.7009-35-35s15.7009-35 35-35 35 15.7009 35 35-15.7009 35-35 35zm0-67.4454c-17.8905 0-32.4454 14.5549-32.4454 32.4454s14.5549 32.4454 32.4454 32.4454 32.4454-14.5549 32.4454-32.4454-14.5549-32.4454-32.4454-32.4454z" fill="#fff"/><path d="m82.3081 63.2606h-9.3227v-7.0313h9.3227c3.0119 0 5.6501-1.7871 8.7047-3.8564 1.061-.7186 2.1581-1.462 3.3229-2.163 6.5773-3.9584 12.8753-4.0038 13.1403-4.0038h5.6c.647 0 1.172.5247 1.172 1.1718v4.6875c0 .6471-.525 1.1719-1.172 1.1719h-5.6c-.027.0005-4.68.0867-9.5147 2.9967-1.0031.6038-1.9756 1.2626-3.0052 1.9599-3.5053 2.3751-7.4786 5.0667-12.648 5.0667z" fill="url(#b)"/><path d="m114.248 86.1746v.0002c0 .647-.525 1.1717-1.172 1.1717h-5.6c-.265 0-6.563-.0454-13.1403-4.0038-1.1646-.7008-2.2619-1.4442-3.3229-2.163-3.0546-2.0693-5.6928-3.8565-8.7047-3.8565h-7.3227c-1.1046 0-2-.8954-2-2v-3.0312c0-1.1046.8954-2 2-2h7.3227c5.1694 0 9.1427 2.6916 12.6483 5.0665 1.0296.6975 2.002 1.3561 3.0051 1.9598 4.8355 2.91 9.4875 2.9963 9.5345 2.9967h5.58c.647 0 1.172.5248 1.172 1.1719v4.6876z" fill="url(#d)"/><path d="m113.076 70.292h-40.0906v-7.0313h40.0906c.647 0 1.172.5248 1.172 1.1719v4.6875c0 .6471-.525 1.1719-1.172 1.1719z" fill="url(#e)"/><path d="m49.2626 61.2603c0 1.1046-.8954 2.0001-2 2.0001h-7.3227c-5.1694 0-9.1427-2.6916-12.6483-5.0665-1.0296-.6975-2.002-1.3561-3.0051-1.9599-4.8352-2.91-9.488-2.9962-9.5346-2.9967h-5.58002c-.64711 0-1.17188-.5248-1.17188-1.1719v-4.6875c0-.6471.52477-1.1718 1.17188-1.1718h5.59972c.2648 0 6.5636.0454 13.1404 4.0038 1.1646.7008 2.262 1.4442 3.323 2.163 3.0546 2.0693 5.6927 3.8564 8.7047 3.8564h7.3228c1.1045 0 2 .8954 2 2z" fill="url(#f)"/><path d="m14.7716 87.3465h-5.59972c-.64711 0-1.17188-.5247-1.17188-1.1719v-4.6875c0-.6471.52477-1.1718 1.17188-1.1718h5.59972c.0267-.0005 4.6797-.0867 9.5149-2.9967 1.0031-.6038 1.9755-1.2626 3.0051-1.9599 3.5056-2.3751 7.4789-5.0667 12.6483-5.0667h9.3228v7.0312h-9.3228c-3.0119 0-5.6501 1.7872-8.7047 3.8565-1.061.7185-2.1581 1.462-3.3229 2.163-6.5768 3.9581-12.8757 4.0038-13.1407 4.0038z" fill="url(#g)"/><path d="m49.2627 70.292h-40.09082c-.64711 0-1.17188-.5248-1.17188-1.1719v-4.6875c0-.6471.52477-1.1719 1.17188-1.1719h40.09082z" fill="url(#h)"/><path d="m61.124 87.2539c11.3098 0 20.4781-9.1683 20.4781-20.478s-9.1683-20.478-20.4781-20.478c-11.3097 0-20.478 9.1683-20.478 20.478s9.1683 20.478 20.478 20.478z" fill="#1890ff"/><path d="m61 82c8.2843 0 15-6.7157 15-15s-6.7157-15-15-15-15 6.7157-15 15 6.7157 15 15 15z" fill="#8bc7ff"/><path d="m91.4142 24.2422h4v4h-4z" stroke="#1890ff" stroke-width="2" transform="matrix(.70710678 -.70710678 .70710678 .70710678 9.632775 71.739977)"/><path d="m14.4142 114.242h4v4h-4z" stroke="#d1e9ff" stroke-width="2" transform="matrix(.70710678 -.70710678 .70710678 .70710678 -76.559471 43.653086)"/><path d="m31.4142 109.242h4v4h-4z" stroke="#13c2c2" stroke-width="2" transform="matrix(.70710678 -.70710678 .70710678 .70710678 -68.044753 54.209435)"/><g fill="#1890ff"><path d="m84 108h23.448v2.345h-23.448z"/><path d="m84 112.689h18.759v2.345h-18.759z"/><path d="m98.069 117.38h-14.069v2.345h14.069z"/></g><path d="m48.8691 29.1042c0 6.3064-5.1123 11.4187-11.4187 11.4187-6.3063 0-11.4187-5.1123-11.4187-11.4187 0-6.3063 5.1124-11.4187 11.4187-11.4187 6.3064 0 11.4187 5.1124 11.4187 11.4187z" fill="#fff" stroke="#1890ff"/><path d="m36 30v4c0 .5523.4477 1 1 1h1c.5523 0 1-.4477 1-1v-4h4c.5523 0 1-.4477 1-1v-1c0-.5523-.4477-1-1-1h-4v-4c0-.5523-.4477-1-1-1h-1c-.5523 0-1 .4477-1 1v4h-4c-.5523 0-1 .4477-1 1v1c0 .5523.4477 1 1 1z" fill="#1890ff"/><path d="m53 65.2391h5.9264v2.5h-5.9264z" fill="#fff"/><path d="m63.1769 62.1522-2.4999 1.8261v-3.087l2.4999-1.8913h2.8231v15h-2.8231z" fill="#fff"/></svg>