<svg fill="none" height="120" viewBox="0 0 120 120" width="120" xmlns="http://www.w3.org/2000/svg" xmlns:xlink="http://www.w3.org/1999/xlink"><linearGradient id="a" gradientUnits="userSpaceOnUse" x1="10.2303" x2="103.958" y1="100.973" y2="7.24493"><stop offset="0" stop-color="#d1e9ff" stop-opacity="0"/><stop offset=".9981" stop-color="#d1e9ff"/></linearGradient><linearGradient id="b" gradientUnits="userSpaceOnUse" x1="61" x2="61" y1="24" y2="110"><stop offset="0" stop-color="#1890ff"/><stop offset="1" stop-color="#1890ff" stop-opacity="0"/></linearGradient><linearGradient id="c" gradientUnits="userSpaceOnUse" x1="37" x2="37" y1="48" y2="110"><stop offset="0" stop-color="#13c2c2"/><stop offset="1" stop-color="#13c2c2" stop-opacity="0"/></linearGradient><linearGradient id="d" gradientUnits="userSpaceOnUse" x1="64.75" x2="64.75" y1="73" y2="110"><stop offset="0" stop-color="#fcaf5c"/><stop offset="1" stop-color="#fcaf5c" stop-opacity="0"/></linearGradient><path d="m82.8253.0001635c-16.4941-.0370312-48.5749 6.2060165-35.6775 29.1393365 4.0132 6.7632 10.7991 17.3614 2.9407 23.7415-3.2418 2.2915-7.6028 1.6831-11.5642 1.9507-40.06576 4.3048-28.5097 72.5943 3.9946 64.5033 19.3355-7.159 2.0021-29.4483 6.9066-42.9478 5.0829-13.991 30.15-8.0304 37.2595-15.1402 9.8503-9.8503-1.1843-25.2686 5.3757-29.2467 3.6164-1.3933 7.2138 3.2231 11.0323 2.5587 2.719-.4732 4.272-3.367 5.046-6.0169 4.382-14.9951-3.799-28.5419365-25.3137-28.5419365z" fill="url(#a)"/><path d="m21.8225 107.157 36.8864-79.3061c.7135-1.534 2.8907-1.5444 3.6188-.0172l37.8083 79.3053c.633 1.328-.3347 2.861-1.8051 2.861h-74.6949c-1.4622 0-2.4301-1.518-1.8135-2.843z" fill="url(#b)"/><path d="m61.0188 110h-47.8942c-1.4593 0-2.4273-1.512-1.8162-2.837l25.3557-54.9901c.7318-1.5871 3.004-1.5381 3.6668.079l22.5385 54.9901c.5393 1.315-.4284 2.758-1.8506 2.758z" fill="url(#c)"/><path d="m9.5 110h104.5" stroke="#1890ff"/><path d="m10 75h81" stroke="#fcaf5c"/><path d="m9 50h79" stroke="#13c2c2"/><path d="m93.736 28.856h-3.792l-.672 2.144h-2.208l3.92-11.04h1.712l3.936 11.04h-2.224zm-.56-1.744-1.344-4.24-1.328 4.24z" fill="#1890ff"/><path d="m104.368 51.296c.256.432.4.944.4 1.536 0 1.008-.304 1.792-.896 2.336-.608.56-1.44.832-2.496.832h-4.432v-11.04h4.256c1.072 0 1.904.272 2.512.8.608.544.912 1.296.912 2.272 0 .496-.128.944-.368 1.36-.256.416-.592.72-1.024.928.496.224.88.56 1.136.976zm-5.328-4.512v2.688h2c.48 0 .832-.112 1.088-.336s.384-.56.384-.976c0-.448-.128-.784-.384-1.024-.256-.224-.608-.352-1.088-.352zm3.248 7.008c.256-.256.384-.624.384-1.104 0-.432-.128-.768-.384-1.024-.256-.24-.624-.368-1.12-.368h-2.128v2.88h2.128c.496 0 .864-.128 1.12-.384z" fill="#13c2c2"/><path d="m98.8 76.728v-2.528c0-2.928 1.344-4.4 4.048-4.4 1.2 0 2.16.32 2.88.96.704.64 1.072 1.552 1.072 2.704v.112h-2.096v-.096c0-.56-.176-1.008-.496-1.344-.32-.32-.784-.496-1.376-.496-.672 0-1.168.208-1.472.624s-.448 1.104-.448 2.048v2.384c0 .896.144 1.552.464 1.952.32.416.816.608 1.488.608.592 0 1.04-.16 1.36-.48s.48-.752.48-1.312v-.128h2.064v.112c0 1.184-.352 2.096-1.056 2.736s-1.68.944-2.896.944c-2.688 0-4.016-1.456-4.016-4.4z" fill="#fcaf5c"/><path d="m9 26h70" stroke="#1890ff"/><path d="m48.3986 107.125 14.7775-30.3759c.7343-1.5093 2.8889-1.4975 3.6065.0198l14.367 30.3761c.6275 1.327-.3402 2.855-1.808 2.855h-29.1445c-1.4773 0-2.4447-1.547-1.7985-2.875z" fill="url(#d)"/><g stroke="#1890ff"><path d="m9.5 15.5v95"/><rect fill="#fff" height="25" rx="3.5" width="37" x="22.5" y="63.5"/><path d="m38.5 68.5h16v3h-16z" fill="#1890ff"/><path d="m27.5 68.5h8v3h-8z" fill="#1890ff"/></g><path d="m27 80h28v4h-28z" fill="#d1e9ff"/><path d="m27 74h28v4h-28z" fill="#d1e9ff"/><path d="m40.1715 36h4v4h-4z" stroke="#13c2c2" stroke-width="2" transform="matrix(.70710678 -.70710678 .70710678 .70710678 -13.689884 38.949696)"/><path d="m20.4142 16.2422h4v4h-4z" stroke="#d1e9ff" stroke-width="2" transform="matrix(.70710678 -.70710678 .70710678 .70710678 -5.505789 19.192249)"/><path d="m101.414 92.2422h4v4h-4z" stroke="#1890ff" stroke-width="2" transform="matrix(.70710678 -.70710678 .70710678 .70710678 -35.521612 98.727642)"/></svg>