<svg fill="none" height="120" viewBox="0 0 120 120" width="120" xmlns="http://www.w3.org/2000/svg" xmlns:xlink="http://www.w3.org/1999/xlink"><linearGradient id="a" gradientUnits="userSpaceOnUse" x1="-3.45205" x2="64.7584" y1="92.8107" y2="-13.4139"><stop offset="0" stop-color="#d1e9ff" stop-opacity="0"/><stop offset=".9981" stop-color="#d1e9ff"/></linearGradient><linearGradient id="b" gradientUnits="userSpaceOnUse" x1="70.3876" x2="70.3876" y1="19.001" y2="113.292"><stop offset="0" stop-color="#1890ff"/><stop offset="1" stop-color="#1890ff" stop-opacity=".2"/></linearGradient><linearGradient id="c"><stop offset="0" stop-color="#13c2c2"/><stop offset="1" stop-color="#13c2c2" stop-opacity="0"/></linearGradient><linearGradient id="d" gradientUnits="userSpaceOnUse" x1="69.5" x2="69.5" xlink:href="#c" y1="58" y2="75"/><linearGradient id="e" gradientUnits="userSpaceOnUse" x1="87.5" x2="87.5" y1="67" y2="75"><stop offset="0" stop-color="#fcaf5c"/><stop offset="1" stop-color="#fcaf5c" stop-opacity="0"/></linearGradient><linearGradient id="f" gradientUnits="userSpaceOnUse" x1="78.5" x2="78.5" xlink:href="#c" y1="44" y2="75"/><path d="m31.8945 95.1867c-2.136-36.738-18.2946-25.113-27.54253-39.7001-15.11297-23.838 12.02463-53.27926 37.13183-40.3157 4.4529 2.2992 8.235 5.7215 12.6007 8.1846 25.8274 16.1475 48.4705-21.0298 61.4045 7.0167 6.199 13.4414 6.802 33.479-3.239 45.0595-10.77 12.4195-33.6237 8.6923-43.3844 21.9183-11.96 16.206-36.1029 12.768-36.9711-2.1633z" fill="url(#a)"/><path d="m101.414 32.3373c.375.3751.586.8838.586 1.4142v77.3835c0 1.191-.964 2.157-2.157 2.157h-58.9108c-1.1906 0-2.1568-.966-2.1568-2.157v-89.9772c0-1.1906.9662-2.1568 2.1568-2.1568h46.317c.5305 0 1.0392.2107 1.4142.5858z" fill="url(#b)"/><path d="m93.3112 74.6801h-48.5189c-.5955 0-1.0784-.4829-1.0784-1.0784v-34.4247c0-.5955.4829-1.0784 1.0784-1.0784h48.5189c.5955 0 1.0784.4829 1.0784 1.0784v34.4247c0 .5957-.4827 1.0784-1.0784 1.0784z" fill="#fff"/><path d="m88.0776 30.7653v-11.7653l13.9224 13.9221h-11.7656c-1.1929 0-2.1568-.9662-2.1568-2.1568z" fill="#8bc7ff"/><path d="m55.0349 45.0775c3.6838 0 6.6701-2.9863 6.6701-6.6701s-2.9863-6.6701-6.6701-6.6701-6.6702 2.9863-6.6702 6.6701 2.9864 6.6701 6.6702 6.6701z" fill="#13c2c2"/><path d="m58.3833 37.6674-2.9261-2.9759c-.2319-.2358-.6119-.2358-.844 0l-2.9261 2.9759c-.3679.3742-.1029 1.0066.4219 1.0066h1.4224v3.0352c0 .3268.2648.5919.5918.5919h1.824c.3268 0 .5919-.2649.5919-.5919v-3.0352h1.4224c.5245 0 .7896-.6324.4218-1.0066z" fill="#fff"/><path d="m72.6856 87.0395h19.6886c1.1912 0 2.1568-.9656 2.1568-2.1568v-3.805c0-1.1912-.9656-2.1568-2.1568-2.1568h-19.6886c-1.1912 0-2.1568.9656-2.1568 2.1568v3.805c0 1.191.9656 2.1568 2.1568 2.1568z" fill="#fff"/><path d="m103.102 8.37047c-.648 0-1.172-.52477-1.172-1.17188v-.02671c0-.64711.524-1.17188 1.172-1.17188.647 0 1.171.52477 1.171 1.17188v.02671c0 .64711-.524 1.17188-1.171 1.17188z" fill="#1890ff"/><path d="m99.608 9.89008c.1849.10711.3867.15792.586.15792.404 0 .798-.20972 1.015-.58472.325-.56015.134-1.27711-.426-1.60148l-.024-.01336c-.56-.32438-1.2766-.13336-1.601.4268-.3244.56015-.1333 1.27711.4268 1.60148z" fill="#1890ff"/><path d="m105.444 13.2602c.185.1071.387.158.587.158.404 0 .798-.2098 1.015-.5848.324-.5602.133-1.2771-.427-1.6015l-.023-.0133c-.56-.3244-1.277-.1334-1.602.4268-.324.5601-.133 1.2771.427 1.6014z" fill="#1890ff"/><path d="m106.01 10.0481c-.405 0-.798-.20976-1.016-.58476-.324-.55993-.133-1.27688.427-1.60149l.023-.01336c.56-.32461 1.277-.13312 1.602.4268.324.55992.133 1.27687-.427 1.60148l-.023.01336c-.185.10711-.387.15797-.586.15797z" fill="#1890ff"/><path d="m99.158 12.8333c.2175.375.6108.5848 1.015.5848.2 0 .402-.0508.586-.158l.024-.0133c.56-.3246.751-1.0416.426-1.6015-.324-.5599-1.041-.7512-1.601-.4268l-.0232.0134c-.5601.3246-.7512 1.0415-.4268 1.6014z" fill="#1890ff"/><path d="m101.93 13.9379c0 .6471.524 1.1718 1.172 1.1718.647 0 1.171-.5247 1.171-1.1718v-.0268c0-.6471-.524-1.1718-1.171-1.1718-.648 0-1.172.5247-1.172 1.1718z" fill="#1890ff"/><path d="m91.1016 102.37c-.6471 0-1.1719-.524-1.1719-1.171v-.027c0-.647.5248-1.172 1.1719-1.172s1.1718.525 1.1718 1.172v.027c0 .647-.5247 1.171-1.1718 1.171z" fill="#13c2c2"/><path d="m87.608 103.89c.1849.107.3867.158.5862.158.4043 0 .7978-.21 1.0153-.585.3244-.56.1334-1.277-.4268-1.601l-.0232-.014c-.5604-.324-1.2771-.133-1.6015.427s-.1333 1.277.4268 1.602z" fill="#13c2c2"/><path d="m93.4444 107.26c.185.107.3868.158.5862.158.4045 0 .7981-.21 1.0153-.585.3244-.56.1334-1.277-.4268-1.601l-.0232-.013c-.5604-.325-1.2771-.134-1.6015.426-.3243.561-.1333 1.277.4268 1.602z" fill="#13c2c2"/><path d="m94.0097 104.048c-.4045 0-.7978-.21-1.0153-.585-.3243-.56-.1333-1.277.4268-1.601l.0232-.014c.56-.324 1.2769-.133 1.6015.427.3244.56.1334 1.277-.4268 1.602l-.0232.013c-.1847.107-.3869.158-.5862.158z" fill="#13c2c2"/><path d="m87.158 106.833c.2175.375.6108.585 1.0153.585.1992 0 .4013-.051.5862-.158l.0232-.013c.5602-.325.7512-1.042.4268-1.602s-1.0411-.751-1.6015-.426l-.0232.013c-.5601.324-.7512 1.041-.4268 1.601z" fill="#13c2c2"/><path d="m89.9297 107.938c0 .647.5248 1.172 1.1719 1.172s1.1718-.525 1.1718-1.172v-.027c0-.647-.5247-1.172-1.1718-1.172s-1.1719.525-1.1719 1.172z" fill="#13c2c2"/><path d="m27.4142 19.2422h4v4h-4z" stroke="#13c2c2" stroke-width="2" transform="matrix(.70710678 -.70710678 .70710678 .70710678 -5.576857 25.020677)"/><path d="m106.414 73.2422h4v4h-4z" stroke="#d1e9ff" stroke-width="2" transform="matrix(.70710678 -.70710678 .70710678 .70710678 -20.622117 96.698205)"/><path d="m51.1199 112.79h-35.4785c-1.5105 0-2.7352-1.225-2.7352-2.735v-52.9907c0-1.5106 1.2247-2.7352 2.7352-2.7352h35.4785c1.5106 0 2.7352 1.2246 2.7352 2.7352v52.9907c0 1.51-1.2244 2.735-2.7352 2.735z" fill="#fff" stroke="#1890ff"/><path d="m18 59h14.069v2.34483h-14.069z" fill="#d1e9ff"/><path d="m18 66h31v7h-31z" fill="#1890ff"/><path d="m47 59h2v2h-2z" fill="#d1e9ff"/><path d="m43 59h2v2h-2z" fill="#d1e9ff"/><g fill="#8bc7ff"><path d="m24 76h-6v6h6z"/><path d="m18 85v5h6v-5z"/><path d="m18 93v5h6v-5z"/><path d="m18 101v6h6v-6z"/><path d="m26 107h6v-6h-6z"/><path d="m34 107h6v-6h-6z"/><path d="m42 107h7v-14h-7z"/><path d="m49 90v-5h-7v5z"/><path d="m49 82v-6h-7v6z"/><path d="m40 76h-6v6h6z"/><path d="m32 76v6h-6v-6z"/><path d="m40 93v5h-6v-5z"/><path d="m32 93v5h-6v-5z"/><path d="m26 90h6v-5h-6z"/><path d="m34 90h6v-5h-6z"/></g><path d="m66 58h7v17h-7z" fill="url(#d)"/><path d="m84 67h7v8h-7z" fill="url(#e)"/><path d="m75 44h7v31h-7z" fill="url(#f)"/></svg>