<svg fill="none" height="120" viewBox="0 0 121 120" width="121" xmlns="http://www.w3.org/2000/svg" xmlns:xlink="http://www.w3.org/1999/xlink"><linearGradient id="a" gradientUnits="userSpaceOnUse" x1="-2.46897" x2="89.8879" y1="100.972" y2="-8.72543"><stop offset="0" stop-color="#d1e9ff" stop-opacity="0"/><stop offset=".9981" stop-color="#d1e9ff"/></linearGradient><linearGradient id="b"><stop offset="0" stop-color="#13c2c2"/><stop offset="1" stop-color="#13c2c2" stop-opacity="0"/></linearGradient><linearGradient id="c" gradientUnits="userSpaceOnUse" x1="82.1112" x2="82.1112" xlink:href="#b" y1="69.2549" y2="95.7644"/><linearGradient id="d"><stop offset="0" stop-color="#c2f2f2"/><stop offset="1" stop-color="#c2f2f2" stop-opacity="0"/></linearGradient><linearGradient id="e" gradientUnits="userSpaceOnUse" x1="77.6388" x2="77.6388" xlink:href="#d" y1="77.7529" y2="90.5738"/><linearGradient id="f" gradientUnits="userSpaceOnUse" x1="35.307" x2="35.307" xlink:href="#b" y1="67.7021" y2="94.2117"/><linearGradient id="g" gradientUnits="userSpaceOnUse" x1="39.7794" x2="39.7794" xlink:href="#d" y1="76.6367" y2="89.0201"/><linearGradient id="h" gradientUnits="userSpaceOnUse" x1="57.95" x2="57.95" y1="28.7266" y2="91.9051"><stop offset="0" stop-color="#1890ff"/><stop offset="1" stop-color="#1890ff" stop-opacity=".2"/></linearGradient><linearGradient id="i" gradientUnits="userSpaceOnUse" x1="57.9287" x2="57.9287" y1="61.3311" y2="93.1598"><stop offset="0" stop-color="#fff"/><stop offset="1" stop-color="#fff" stop-opacity="0"/></linearGradient><linearGradient id="j" gradientUnits="userSpaceOnUse" x1="56" x2="45.5" xlink:href="#b" y1="73.5" y2="93.5"/><linearGradient id="k" gradientUnits="userSpaceOnUse" x1="51.8014" x2="51.8014" xlink:href="#d" y1="75.4336" y2="92.4347"/><linearGradient id="l" gradientUnits="userSpaceOnUse" x1="79.3401" x2="79.3401" xlink:href="#b" y1="35.46" y2="56.0104"/><linearGradient id="m" gradientUnits="userSpaceOnUse" x1="76.9184" x2="76.9184" xlink:href="#d" y1="40.5" y2="55.8122"/><path d="m65.1705 1.14067c-22.1135 6.50297-17.6782 21.93403-20.1516 39.03263-3.0869 21.3403-16.4285 10.398-31.7569 21.9227-26.497 19.9221-7.24942 63.899 25.6566 57.22 17.4731-3.546 21.0436-16.428 28.1702-30.1928 9.2187-17.806 24.5058-12.9513 38.2182-24.5756 27.81-23.574-8.7659-72.63216-40.1365-63.40693z" fill="url(#a)"/><path d="m77.1698 70.7245c7.4208-3.1102 15.6979-1.1142 20.9312 4.3885.3033.319.4791.7383.4938 1.1782.254 7.5899-4.1241 14.8958-11.545 18.0063-7.416 3.1081-15.6947 1.1072-20.9283-4.3956-.3034-.319-.4791-.7383-.4938-1.1782-.254-7.5897 4.126-14.8908 11.5421-17.9992z" fill="url(#c)"/><path d="m90.6961 78.9092c-.2501-.5969-.9375-.8777-1.5337-.6279l-10.1407 4.2504.626-3.3942c.1174-.6363-.3035-1.2476-.9399-1.365-.6377-.1172-1.2475.3035-1.365.9399l-.9042 4.9019-11.2291 4.7065c-.597.2501-.878.937-.6279 1.5337.1882.4491.6232.7193 1.0812.7193.1511 0 .3046-.0293.4525-.0914l16.7785-7.0324 3.4563 2.6006c.2109.1589.4582.2356.7036.2356.3558 0 .7071-.1613.9373-.4674.389-.5172.2854-1.2518-.2318-1.6408l-2.3618-1.777 4.6708-1.9578c.597-.2505.878-.937.6279-1.534z" fill="url(#e)"/><path d="m40.2485 69.1717c-7.4209-3.1102-15.698-1.1142-20.9312 4.3886-.3034.3189-.4791.7383-.4938 1.1782-.2541 7.5899 4.124 14.8958 11.5449 18.0062 7.416 3.1082 15.6948 1.1072 20.9284-4.3956.3033-.3189.4791-.7383.4938-1.1782.2539-7.5899-4.1261-14.891-11.5421-17.9992z" fill="url(#f)"/><path d="m52.2086 86.7673-23.9526-10.0392c-.5961-.2501-1.2835.0307-1.5338.6279-.2501.5969.0309 1.2837.6279 1.5337l4.6706 1.9575-2.3618 1.7771c-.5172.389-.6208 1.1238-.2318 1.6408.2302.3061.5815.4674.9373.4674.2452 0 .4927-.0769.7036-.2356l3.4561-2.6006 16.7787 7.0324c.1478.0621.3014.0914.4525.0914.458 0 .8932-.2702 1.0812-.7193.2501-.5967-.0309-1.2834-.6279-1.5335z" fill="url(#g)"/><path d="m60.8337 119.604h-5.7666c-4.8086 0-8.7067-3.898-8.7067-8.707v-10.041h23.1801v10.041c0 4.809-3.8983 8.707-8.7068 8.707z" fill="#c2f2f2"/><path d="m46.3604 100.856h23.1801v4.902h-23.1801z" fill="#13c2c2"/><path d="m69.0082 113.901h-22.1156c-.3443-.936-.5322-1.948-.5322-3.004v-1.897h23.1801v1.897c0 1.056-.188 2.068-.5323 3.004z" fill="#13c2c2"/><path d="m83.8418 54.6184c0-14.4225-11.7921-26.0906-26.2608-25.8893-14.3067.1992-25.8248 12.1526-25.5169 26.4574.1196 5.555 1.9887 10.6789 5.0782 14.8433 4.3094 5.8085 6.9036 12.6925 7.3118 19.8763.0626 1.1027.9522 1.999 2.0568 1.999h24.8767c.0008 0 .0014-.0006.0014-.0014 0-7.8759 2.6151-15.5039 7.3254-21.8161 3.2208-4.316 5.1274-9.67 5.1274-15.4692z" fill="url(#h)"/><path d="m68.6656 61.4552c-.6682-.1861-1.3596.2043-1.5457.8721-.1076.3862-.2102.7793-.3134 1.1714h-17.737c-.109-.4177-.218-.8356-.3319-1.2471-.1851-.668-.8754-1.0601-1.5445-.8745-.668.1849-1.0594.8763-.8742 1.5443 2.3819 8.6013 3.6412 18.6237 3.6412 28.9833 0 .6931.5618 1.2551 1.2551 1.2551s1.2551-.562 1.2551-1.2551c0-9.1127-.9593-17.9791-2.7842-25.8961h16.4998c-1.8202 7.8572-2.7771 16.7236-2.7771 25.8942v.0019c0 .6931.5618 1.2539 1.2551 1.2539s1.2551-.5627 1.2551-1.2558c0-10.2602 1.2853-20.5244 3.6192-28.9022.1856-.6675-.2049-1.3596-.8726-1.5454z" fill="url(#i)"/><path d="m56.277 73.9871c-4.5069-4.5069-11.1575-5.5533-16.6627-3.1422-.4032.1766-.7252.4987-.9018.9018-2.4113 5.5055-1.3675 12.159 3.1394 16.6658 4.504 4.5039 11.1572 5.5475 16.6626 3.1364.4032-.1766.7254-.4987.9019-.902 2.4109-5.5054 1.3646-12.1558-3.1394-16.6598z" fill="url(#j)"/><path d="m59.9587 90.4341-6.7809-6.781.7882-3.769c.1321-.6335-.2738-1.2546-.9073-1.3868-.6333-.1324-1.2546.2738-1.387.9073l-.4744 2.2683-5.8962-5.8962c-.4573-.4575-1.1998-.4575-1.657 0-.4578.4578-.4578 1.1998 0 1.6573l2.5666 2.5666-1.8832.4941c-.626.1643-1.0005.8048-.836 1.4309.1381.5264.6127.8746 1.1327.8746.0985 0 .1986-.0124.2979-.0386l3.2082-.8414 10.1714 10.1714c.2287.2287.5287.3431.8285.3431.2997 0 .6-.1144.8285-.3431.4577-.458.4577-1.2 0-1.6575z" fill="url(#k)"/><path d="m73.6537 100.356h-31.4074c-.5301 0-.9597-.4294-.9597-.9595v-7.7161c0-.5301.4296-.9597.9597-.9597h31.4074c.5301 0 .9597.4296.9597.9597v7.7161c0 .5301-.4296.9595-.9597.9595z" fill="#fff" stroke="#13c2c2"/><path d="m72.9582 39.3558c3.968-3.968 9.814-4.9044 14.671-2.8114.4042.1742.7267.4967.9009.9009 2.093 4.8571 1.1593 10.7056-2.8088 14.6736-3.9653 3.9654-9.8138 4.8993-14.671 2.806-.4042-.1742-.7267-.4967-.9009-.9009-2.0928-4.8568-1.1566-10.7028 2.8088-14.6682z" fill="url(#l)"/><path d="m83.5651 44.9822-1.4383-.3774 2.1044-2.1044c.4577-.4577.4577-1.1998 0-1.6573-.4573-.4575-1.1998-.4575-1.657 0l-5.0403 5.0403-.3684-1.7625c-.1324-.6336-.7535-1.0397-1.387-.9073s-1.0397.7533-.9073 1.3868l.6823 3.2634-5.948 5.948c-.4577.4577-.4577 1.1998 0 1.6573.2288.2287.5288.3431.8285.3431.2998 0 .6-.1144.8285-.3431l8.9447-8.9447 2.7633.7249c.0996.026.1997.0387.2979.0387.5198 0 .9947-.3485 1.1327-.875.1646-.626-.21-1.2667-.836-1.4308z" fill="url(#m)"/><g stroke="#1890ff"><path d="m48.8691 35.1042c0 6.3064-5.1123 11.4187-11.4187 11.4187-6.3063 0-11.4187-5.1123-11.4187-11.4187 0-6.3063 5.1124-11.4187 11.4187-11.4187 6.3064 0 11.4187 5.1124 11.4187 11.4187z" fill="#fff"/><path d="m37.8295 33.5657v.5h.5 2.6702l-3.9285 7.6026v-5.0262-.5h-.5-2.6702l3.9285-7.6027zm-1.1996 8.9568c0-.0002.0001-.0003.0002-.0005l-.0001.0002z" fill="#1890ff"/><path d="m103.414 43.2422h4v4h-4z" stroke-width="2" transform="matrix(.70710678 -.70710678 .70710678 .70710678 -.287594 85.790088)"/></g><path d="m14.4142 113.242h4v4h-4z" stroke="#d1e9ff" stroke-width="2" transform="matrix(.70710678 -.70710678 .70710678 .70710678 -75.852365 43.360192)"/><path d="m31.4142 108.242h4v4h-4z" stroke="#13c2c2" stroke-width="2" transform="matrix(.70710678 -.70710678 .70710678 .70710678 -67.337646 53.916542)"/></svg>