<svg fill="none" height="120" viewBox="0 0 120 120" width="120" xmlns="http://www.w3.org/2000/svg" xmlns:xlink="http://www.w3.org/1999/xlink"><linearGradient id="a" gradientUnits="userSpaceOnUse" x1="9.4904" x2="103.205" y1="100.972" y2="8.77306"><stop offset="0" stop-color="#d1e9ff" stop-opacity="0"/><stop offset=".9981" stop-color="#d1e9ff"/></linearGradient><linearGradient id="b" gradientUnits="userSpaceOnUse" x1="21" x2="21" y1="95" y2="116"><stop offset="0" stop-color="#fcaf5c"/><stop offset="1" stop-color="#fcaf5c" stop-opacity="0"/></linearGradient><linearGradient id="c"><stop offset="0" stop-color="#13c2c2"/><stop offset="1" stop-color="#13c2c2" stop-opacity="0"/></linearGradient><linearGradient id="d" gradientUnits="userSpaceOnUse" x1="46" x2="46" xlink:href="#c" y1="61" y2="116"/><linearGradient id="e" gradientUnits="userSpaceOnUse" x1="71" x2="71" y1="79" y2="116"><stop offset="0" stop-color="#1890ff"/><stop offset="1" stop-color="#1890ff" stop-opacity="0"/></linearGradient><linearGradient id="f" gradientUnits="userSpaceOnUse" x1="96" x2="96" xlink:href="#c" y1="42" y2="116"/><path d="m91.5175 49.2272c-.0804-7.8775 8.4885-13.2586 12.5845-19.1229 5.806-8.3144 2.511-16.3924-8.137-17.7321-4.1864-.5266-8.3878.5246-12.5306.0532-8.5986-.9778-7.9812-12.754887-17.813-12.41832412-9.9565.34078112-11.0313 8.00250412-13.0406 16.18502412-1.8115 7.3767-6.8513 6.2808-12.5475 2.9179-19.4632-11.49042-37.4384 21.9071-21.9741 34.854 6.8883 5.7667 16.6062 7.2445 25.1611 9.7647 6.7868 1.9992 14.133 5.0159 18.8843 10.4749 5.8847 6.7615 3.5491 14.1877-1.1529 20.7689-3.9804 5.5715-7.8375 13.9935-2.6864 20.1195 11.7694 13.998 31.9479-5.349 40.1667-15.7198 9.332-11.7757 6.43-27.2531-1.9298-38.9311-2.4181-3.3778-4.9423-7.0596-4.9847-11.2139z" fill="url(#a)"/><rect fill="url(#b)" height="21" rx="2" width="18" x="12" y="95"/><rect fill="url(#d)" height="55" rx="2" width="18" x="37" y="61"/><rect fill="url(#e)" height="37" rx="2" width="18" x="62" y="79"/><rect fill="url(#f)" height="74" rx="2" width="18" x="87" y="42"/><path clip-rule="evenodd" d="m83 6h5v8.1588c8.7703 1.1224 15.719 8.0709 16.841 16.8412h8.159v5h-8.159c-1.122 8.7703-8.0707 15.7188-16.841 16.8412v8.1588h-5v-8.1588c-8.7703-1.1224-15.7188-8.0709-16.8412-16.8412h-8.1588v-5h8.1588c1.1224-8.7703 8.0709-15.7188 16.8412-16.8412zm-12 27.5c0 8.0081 6.4919 14.5 14.5 14.5s14.5-6.4919 14.5-14.5-6.4919-14.5-14.5-14.5-14.5 6.4919-14.5 14.5z" fill="#1890ff" fill-rule="evenodd"/><circle cx="85.5" cy="33.5" fill="#fff" r="8" stroke="#1890ff"/><circle cx="85.5" cy="33.5" fill="#d1e9ff" r="3.5"/><path d="m7 44h20v2h-20z" fill="#c2f2f2"/><g fill="#1890ff"><path d="m31 33h6v2h-6z"/><path d="m39 33h6v2h-6z"/><path d="m47 33h6v2h-6z"/></g><path d="m7 48h16v2h-16z" fill="#c2f2f2"/><path d="m7 52h12v2h-12z" fill="#c2f2f2"/><path d="m7 29h16l4 5-4 5h-16z" fill="#1890ff"/><path d="m62.4142 14.2422h4v4h-4z" stroke="#13c2c2" stroke-width="2" transform="matrix(.70710678 -.70710678 .70710678 .70710678 8.20994 48.304948)"/><path d="m22.4142 73.2422h4v4h-4z" stroke="#d1e9ff" stroke-width="2" transform="matrix(.70710678 -.70710678 .70710678 .70710678 -45.225089 37.301377)"/></svg>