<svg fill="none" height="120" viewBox="0 0 121 120" width="121" xmlns="http://www.w3.org/2000/svg" xmlns:xlink="http://www.w3.org/1999/xlink"><linearGradient id="a" gradientUnits="userSpaceOnUse" x1="-2.46897" x2="89.8879" y1="100.972" y2="-8.72543"><stop offset="0" stop-color="#d1e9ff" stop-opacity="0"/><stop offset=".9981" stop-color="#d1e9ff"/></linearGradient><linearGradient id="b" gradientUnits="userSpaceOnUse" x1="77.4009" x2="76.8263" y1="60.6696" y2="23.7513"><stop offset="0" stop-color="#13c2c2"/><stop offset="1" stop-color="#13c2c2" stop-opacity="0"/></linearGradient><linearGradient id="c" gradientUnits="userSpaceOnUse" x1="61.8282" x2="61.5603" y1="50.7063" y2="85.1774"><stop offset="0" stop-color="#1890ff"/><stop offset="1" stop-color="#1890ff" stop-opacity="0"/></linearGradient><path d="m65.1705 1.14067c-22.1135 6.50297-17.6782 21.93403-20.1516 39.03263-3.0869 21.3403-16.4285 10.398-31.7569 21.9227-26.497 19.9221-7.24942 63.899 25.6566 57.22 17.4731-3.546 21.0436-16.428 28.1702-30.1928 9.2187-17.806 24.5058-12.9513 38.2182-24.5756 27.81-23.574-8.7659-72.63216-40.1365-63.40693z" fill="url(#a)"/><rect fill="#fff" height="57" rx="1.5" stroke="#13c2c2" width="66" x="9.5" y="6.5"/><path d="m26 27c3.866 0 7-3.134 7-7s-3.134-7-7-7-7 3.134-7 7 3.134 7 7 7z" fill="#13c2c2"/><path d="m19 33h47v4h-47z" fill="#c2f2f2"/><path d="m19 41h38v4h-38z" fill="#c2f2f2"/><path d="m19 49h29v4h-29z" fill="#c2f2f2"/><rect fill="#fff" height="57" rx="1.5" stroke="#1890ff" width="66" x="46.5" y="55.5"/><path d="m96 77c3.866 0 7-3.134 7-7s-3.134-7-7-7-7 3.134-7 7 3.134 7 7 7z" fill="#1890ff"/><path d="m56 83h47v4h-47z" fill="#d1e9ff"/><path d="m65 91h38v4h-38z" fill="#d1e9ff"/><path d="m74 99h29v4h-29z" fill="#d1e9ff"/><path d="m83 28c.5523 0 1 .4477 1 1v14.75c0 .5523.4477 1 1 1h2.8185c.8556 0 1.316 1.0045.7576 1.6527l-11.79 13.6849c-.4086.4742-1.1474.4607-1.5385-.0281l-10.9478-13.6848c-.5239-.6548-.0577-1.6247.7808-1.6247h1.9194c.5523 0 1-.4477 1-1v-14.75c0-.5523.4477-1 1-1z" fill="url(#b)"/><path d="m68 84c.5523 0 1-.4477 1-1v-14.75c0-.5523.4477-1 1-1h2.8185c.8556 0 1.316-1.0045.7576-1.6527l-11.79-13.6849c-.4086-.4742-1.1474-.4607-1.5385.0281l-10.9478 13.6848c-.5239.6548-.0577 1.6247.7808 1.6247h1.9194c.5523 0 1 .4477 1 1v14.75c0 .5523.4477 1 1 1z" fill="url(#c)"/><path d="m107.102 42.3705c-.648 0-1.172-.5248-1.172-1.1719v-.0267c0-.6471.524-1.1719 1.172-1.1719.647 0 1.171.5248 1.171 1.1719v.0267c0 .6471-.524 1.1719-1.171 1.1719z" fill="#1890ff"/><path d="m103.608 43.8901c.185.1071.387.1579.586.1579.404 0 .798-.2097 1.015-.5847.325-.5602.134-1.2771-.426-1.6015l-.024-.0134c-.56-.3243-1.277-.1333-1.601.4268-.324.5602-.133 1.2771.427 1.6015z" fill="#1890ff"/><path d="m109.444 47.2602c.185.1071.387.158.587.158.404 0 .798-.2098 1.015-.5848.324-.5602.133-1.2771-.427-1.6015l-.023-.0133c-.56-.3244-1.277-.1334-1.602.4268-.324.5601-.133 1.2771.427 1.6014z" fill="#1890ff"/><path d="m110.01 44.0481c-.405 0-.798-.2098-1.016-.5848-.324-.5599-.133-1.2768.427-1.6014l.023-.0134c.56-.3246 1.277-.1331 1.602.4268.324.5599.133 1.2769-.427 1.6015l-.023.0133c-.185.1071-.387.158-.586.158z" fill="#1890ff"/><path d="m103.158 46.8333c.218.375.611.5848 1.015.5848.2 0 .402-.0508.586-.158l.024-.0133c.56-.3246.751-1.0416.426-1.6015-.324-.5599-1.041-.7512-1.601-.4268l-.023.0134c-.56.3246-.751 1.0415-.427 1.6014z" fill="#1890ff"/><path d="m105.93 47.9379c0 .6471.524 1.1718 1.172 1.1718.647 0 1.171-.5247 1.171-1.1718v-.0268c0-.6471-.524-1.1718-1.171-1.1718-.648 0-1.172.5247-1.172 1.1718z" fill="#1890ff"/><g fill="#13c2c2"><path d="m20.1016 104.37c-.6471 0-1.1719-.524-1.1719-1.171v-.027c0-.647.5248-1.172 1.1719-1.172s1.1718.525 1.1718 1.172v.027c0 .647-.5247 1.171-1.1718 1.171z"/><path d="m16.608 105.89c.1849.107.3867.158.5862.158.4043 0 .7978-.21 1.0153-.585.3244-.56.1334-1.277-.4268-1.601l-.0232-.014c-.5604-.324-1.2771-.133-1.6015.427s-.1333 1.277.4268 1.602z"/><path d="m22.4444 109.26c.185.107.3868.158.5862.158.4045 0 .7981-.21 1.0153-.585.3244-.56.1334-1.277-.4268-1.601l-.0232-.013c-.5604-.325-1.2771-.134-1.6015.426-.3243.561-.1333 1.277.4268 1.602z"/><path d="m23.0097 106.048c-.4045 0-.7978-.21-1.0153-.585-.3243-.56-.1333-1.277.4268-1.601l.0232-.014c.56-.324 1.2769-.133 1.6015.427.3244.56.1334 1.277-.4268 1.602l-.0232.013c-.1847.107-.3869.158-.5862.158z"/><path d="m16.158 108.833c.2175.375.6108.585 1.0153.585.1992 0 .4013-.051.5862-.158l.0232-.013c.5602-.325.7512-1.042.4268-1.602s-1.0411-.751-1.6015-.426l-.0232.013c-.5601.324-.7512 1.041-.4268 1.601z"/><path d="m18.9297 109.938c0 .647.5248 1.172 1.1719 1.172s1.1718-.525 1.1718-1.172v-.027c0-.647-.5247-1.172-1.1718-1.172s-1.1719.525-1.1719 1.172z"/></g><path d="m90.4142 6.24219h4v4h-4z" stroke="#13c2c2" stroke-width="2" transform="matrix(.70710678 -.70710678 .70710678 .70710678 22.067811 65.760789)"/><path d="m35.4142 75.2422h4v4h-4z" stroke="#d1e9ff" stroke-width="2" transform="matrix(.70710678 -.70710678 .70710678 .70710678 -42.831691 47.079551)"/></svg>