<svg fill="none" height="120" viewBox="0 0 120 120" width="120" xmlns="http://www.w3.org/2000/svg" xmlns:xlink="http://www.w3.org/1999/xlink"><linearGradient id="a" gradientUnits="userSpaceOnUse" x1="-3.45205" x2="64.7582" y1="94.2754" y2="-11.9491"><stop offset="0" stop-color="#d1e9ff" stop-opacity="0"/><stop offset=".9981" stop-color="#d1e9ff"/></linearGradient><mask id="b" fill="#000" height="109" maskUnits="userSpaceOnUse" width="12" x="54" y="6"><path d="m54 6h12v109h-12z" fill="#fff"/><path clip-rule="evenodd" d="m59 7h-4v2h4v103h-4v2h4 2 4v-2h-4v-103h4v-2h-4z" fill="#000" fill-rule="evenodd"/></mask><path d="m31.8945 96.6516c-2.136-36.7381-18.2946-25.1131-27.54253-39.7001-15.11297-23.8381 12.02463-53.27931 37.13183-40.3158 4.4529 2.2992 8.235 5.7216 12.6007 8.1846 25.8274 16.1475 48.4705-21.02975 61.4045 7.0167 6.199 13.4414 6.802 33.4791-3.239 45.0596-10.77 12.4195-33.6237 8.6922-43.3844 21.9182-11.96 16.2062-36.1029 12.7682-36.9711-2.1632z" fill="url(#a)"/><path d="m60.0001 29.6791h-15.3082c-1.2945 0-2.3438-1.0493-2.3438-2.3437v-8.1762c0-1.2945 1.0493-2.3438 2.3438-2.3438h15.3082z" fill="#d1e9ff"/><path d="m60.0001 48.3288h-10.6207c-1.2945 0-2.3438-1.0493-2.3438-2.3438v-8.1764c0-1.2945 1.0493-2.3438 2.3438-2.3438h10.6207z" fill="#d1e9ff"/><path d="m60.0001 66.9782h-19.9957c-1.2945 0-2.3438-1.0493-2.3438-2.3438v-8.1764c0-1.2944 1.0493-2.3437 2.3438-2.3437h19.9957z" fill="#d1e9ff"/><path d="m60.0001 85.6276h-48.1207c-1.2945 0-2.34376-1.0493-2.34376-2.3438v-8.1764c0-1.2944 1.04926-2.3437 2.34376-2.3437h48.1207z" fill="#13c2c2"/><path d="m60.0001 104.278h-34.0582c-1.2945 0-2.3438-1.049-2.3438-2.344v-8.1762c0-1.2944 1.0493-2.3437 2.3438-2.3437h34.0582z" fill="#13c2c2"/><path d="m60 29.6791h43.433c1.295 0 2.344-1.0493 2.344-2.3437v-8.1762c0-1.2945-1.049-2.3438-2.344-2.3438h-43.433z" fill="#1890ff"/><path d="m60 48.3288h48.121c1.294 0 2.343-1.0493 2.343-2.3438v-8.1764c0-1.2945-1.049-2.3438-2.343-2.3438h-48.121z" fill="#1890ff"/><path d="m60 66.9791h38.7457c1.2943 0 2.3433-1.0493 2.3433-2.3437v-8.1764c0-1.2945-1.049-2.3438-2.3433-2.3438h-38.7457z" fill="#1890ff"/><path d="m60 85.6286h19.9957c1.2945 0 2.3438-1.0493 2.3438-2.3438v-8.1764c0-1.2945-1.0493-2.3438-2.3438-2.3438h-19.9957z" fill="#c2f2f2"/><path d="m60 104.278h19.9957c1.2945 0 2.3438-1.049 2.3438-2.344v-8.1762c0-1.2944-1.0493-2.3437-2.3438-2.3437h-19.9957z" fill="#c2f2f2"/><path clip-rule="evenodd" d="m59 7h-4v2h4v103h-4v2h4 2 4v-2h-4v-103h4v-2h-4z" fill="#fff" fill-rule="evenodd"/><path d="m55 7v-1h-1v1zm0 2h-1v1h1zm4 0h1v-1h-1zm0 103v1h1v-1zm-4 0v-1h-1v1zm0 2h-1v1h1zm10 0v1h1v-1zm0-2h1v-1h-1zm-4 0h-1v1h1zm0-103v-1h-1v1zm4 0v1h1v-1zm0-2h1v-1h-1zm-10 1h4v-2h-4zm1 1v-2h-2v2zm3-1h-4v2h4zm-1 1v103h2v-103zm1 102h-4v2h4zm-5 1v2h2v-2zm1 3h4v-2h-4zm4 0h2v-2h-2zm2 0h4v-2h-4zm5-1v-2h-2v2zm-1-3h-4v2h4zm-3 1v-103h-2v103zm3-104h-4v2h4zm-1-1v2h2v-2zm-3 1h4v-2h-4zm-2 0h2v-2h-2z" fill="#1890ff" mask="url(#b)"/><path d="m65 22h12v3h-12z" fill="#d1e9ff"/><path d="m65 40h12v3h-12z" fill="#d1e9ff"/><path d="m65 59h12v3h-12z" fill="#d1e9ff"/><path d="m42 77h12v3h-12z" fill="#c2f2f2"/><path d="m42 96h12v3h-12z" fill="#c2f2f2"/><path d="m10.1016 50.3705c-.64715 0-1.17191-.5248-1.17191-1.1719v-.0267c0-.6471.52476-1.1719 1.17191-1.1719.6471 0 1.1718.5248 1.1718 1.1719v.0267c0 .6471-.5247 1.1719-1.1718 1.1719z" fill="#1890ff"/><path d="m6.60801 51.8901c.18492.1071.38671.1579.58617.1579.40429 0 .79781-.2097 1.01531-.5847.32438-.5602.13336-1.2771-.42679-1.6015l-.02321-.0134c-.56039-.3243-1.27711-.1333-1.60148.4268-.32438.5602-.13336 1.2771.4268 1.6015z" fill="#1890ff"/><path d="m12.4444 55.2602c.185.1071.3868.158.5862.158.4045 0 .7981-.2098 1.0153-.5848.3244-.5602.1334-1.2771-.4268-1.6015l-.0232-.0133c-.5604-.3244-1.2771-.1334-1.6015.4268-.3243.5601-.1333 1.2771.4268 1.6014z" fill="#1890ff"/><path d="m13.0097 52.0481c-.4045 0-.7978-.2098-1.0153-.5848-.3243-.5599-.1333-1.2768.4268-1.6014l.0232-.0134c.56-.3246 1.2769-.1331 1.6015.4268.3244.5599.1334 1.2769-.4268 1.6015l-.0232.0133c-.1847.1071-.3869.158-.5862.158z" fill="#1890ff"/><path d="m6.15801 54.8333c.2175.375.61078.5848 1.01531.5848.19922 0 .40125-.0508.58617-.158l.02321-.0133c.56015-.3246.75117-1.0416.42679-1.6015-.32437-.5599-1.04109-.7512-1.60148-.4268l-.0232.0134c-.56016.3246-.75118 1.0415-.4268 1.6014z" fill="#1890ff"/><path d="m8.92969 55.9379c0 .6471.52476 1.1718 1.17191 1.1718.6471 0 1.1718-.5247 1.1718-1.1718v-.0268c0-.6471-.5247-1.1718-1.1718-1.1718-.64715 0-1.17191.5247-1.17191 1.1718z" fill="#1890ff"/><g fill="#13c2c2"><path d="m91.1016 109.37c-.6471 0-1.1719-.524-1.1719-1.171v-.027c0-.647.5248-1.172 1.1719-1.172s1.1718.525 1.1718 1.172v.027c0 .647-.5247 1.171-1.1718 1.171z"/><path d="m87.608 110.89c.1849.107.3867.158.5862.158.4043 0 .7978-.21 1.0153-.585.3244-.56.1334-1.277-.4268-1.601l-.0232-.014c-.5604-.324-1.2771-.133-1.6015.427s-.1333 1.277.4268 1.602z"/><path d="m93.4444 114.26c.185.107.3868.158.5862.158.4045 0 .7981-.21 1.0153-.585.3244-.56.1334-1.277-.4268-1.601l-.0232-.013c-.5604-.325-1.2771-.134-1.6015.426-.3243.561-.1333 1.277.4268 1.602z"/><path d="m94.0097 111.048c-.4045 0-.7978-.21-1.0153-.585-.3243-.56-.1333-1.277.4268-1.601l.0232-.014c.56-.324 1.2769-.133 1.6015.427.3244.56.1334 1.277-.4268 1.602l-.0232.013c-.1847.107-.3869.158-.5862.158z"/><path d="m87.158 113.833c.2175.375.6108.585 1.0153.585.1992 0 .4013-.051.5862-.158l.0232-.013c.5602-.325.7512-1.042.4268-1.602s-1.0411-.751-1.6015-.426l-.0232.013c-.5601.324-.7512 1.041-.4268 1.601z"/><path d="m89.9297 114.938c0 .647.5248 1.172 1.1719 1.172s1.1718-.525 1.1718-1.172v-.027c0-.647-.5247-1.172-1.1718-1.172s-1.1719.525-1.1719 1.172z"/></g><path d="m27.4142 26.2422h4v4h-4z" stroke="#13c2c2" stroke-width="2" transform="matrix(.70710678 -.70710678 .70710678 .70710678 -10.526604 27.070929)"/><path d="m106.414 80.2422h4v4h-4z" stroke="#d1e9ff" stroke-width="2" transform="matrix(.70710678 -.70710678 .70710678 .70710678 -25.571865 98.748457)"/></svg>