<svg fill="none" height="326" viewBox="0 0 332 326" width="332" xmlns="http://www.w3.org/2000/svg" xmlns:xlink="http://www.w3.org/1999/xlink"><linearGradient id="a" gradientUnits="userSpaceOnUse" x1="95" x2="166" y1="143" y2="326"><stop offset="0" stop-color="#e8f4ff" stop-opacity="0"/><stop offset="1" stop-color="#f8fbff"/></linearGradient><linearGradient id="b" gradientUnits="userSpaceOnUse" x1="154.76" x2="204.863" y1="252.437" y2="172.66"><stop offset="0" stop-color="#d1e9ff" stop-opacity=".6"/><stop offset=".9981" stop-color="#d1e9ff"/></linearGradient><linearGradient id="c"><stop offset="0" stop-color="#bdf2f2"/><stop offset="1" stop-color="#bdf2f2" stop-opacity=".4"/></linearGradient><linearGradient id="d" gradientUnits="userSpaceOnUse" x1="133.647" x2="133.647" xlink:href="#c" y1="234.073" y2="287.386"/><linearGradient id="e" gradientUnits="userSpaceOnUse" x1="286.361" x2="286.361" xlink:href="#c" y1="132" y2="163.327"/><mask height="72" maskUnits="userSpaceOnUse" width="92" x="157" y="192"><path clip-rule="evenodd" d="m169.647 192.516h78.706l-12.271 71.212h-78.705z" fill="#fff" fill-rule="evenodd"/></mask><mask height="54" maskUnits="userSpaceOnUse" width="52" x="109" y="234"><path clip-rule="evenodd" d="m109.443 287.386 8.69-53.313h41.904l-11.628 53.313z" fill="#fff" fill-rule="evenodd"/></mask><mask id="f" height="17" maskUnits="userSpaceOnUse" width="28" x="272" y="139"><path clip-rule="evenodd" d="m275.35 140.576-2.418 13.532c-.112.628.303 1.149.928 1.163l21.68.503c.625.014 1.223-.483 1.335-1.112l2.418-13.531c.113-.628-.303-1.149-.928-1.164l-21.68-.502c-.009 0-.018 0-.026 0-.616 0-1.198.492-1.309 1.111z" fill="#fff" fill-rule="evenodd"/></mask><mask id="g" height="17" maskUnits="userSpaceOnUse" width="28" x="272" y="139"><path clip-rule="evenodd" d="m275.35 140.576-2.418 13.532c-.112.628.303 1.149.928 1.163l21.68.503c.625.014 1.223-.483 1.335-1.112l2.418-13.531c.113-.628-.303-1.149-.928-1.164l-21.68-.502c-.009 0-.018 0-.026 0-.616 0-1.198.492-1.309 1.111z" fill="#fff" fill-rule="evenodd"/></mask><path d="m0 75h332v251h-332z" fill="url(#a)"/><path clip-rule="evenodd" d="m67.2 271.902s2.7137 3.121 4.559 5.83 2.0081 6.61 1.4111 8.236c0 0-2.6051-1.463-4.3418-3.739-1.7368-2.275-2.9308-6.891-1.6283-10.327z" fill="#6c90fe" fill-rule="evenodd"/><path clip-rule="evenodd" d="m76.8335 263.428s-4.1519 1.724-5.8343 8.475c-1.6825 6.75 3.5006 13.93 3.5006 13.93s2.3337-2.953 3.4463-4.633 2.6866-5.987 2.0624-9.618c-.6241-3.63-3.175-8.154-3.175-8.154z" fill="#1890ff" fill-rule="evenodd"/><path clip-rule="evenodd" d="m75.9929 266.3s-3.772 6.962-1.4925 19.533z" fill="#1373cc" fill-rule="evenodd"/><path d="m75.9929 266.3s-3.772 6.962-1.4925 19.533" stroke="#1373cc" stroke-linecap="round" stroke-linejoin="round"/><path clip-rule="evenodd" d="m67.3629 273.479s1.388 8.797 5.8076 12.49z" fill="#1373cc" fill-rule="evenodd"/><path d="m67.3629 273.479s1.388 8.797 5.8076 12.49" stroke="#1373cc" stroke-linecap="round" stroke-linejoin="round"/><path clip-rule="evenodd" d="m67.7967 285.439s5.6448-.911 10.7469 0l-2.9672 13.139h-5.2106z" fill="#d4e2ff" fill-rule="evenodd"/><path clip-rule="evenodd" d="m185.598 277.688-.852 14.862h28.889l1.479-14.862z" fill="#1373cc" fill-rule="evenodd"/><path clip-rule="evenodd" d="m223.465 298.915h-48.547c-1.322 0-2.394-1.07-2.394-2.391v-2.536c0-1.321 1.072-2.391 2.394-2.391h48.547c1.322 0 2.395 1.07 2.395 2.391v2.536c0 1.321-1.073 2.391-2.395 2.391z" fill="#1890ff" fill-rule="evenodd"/><path clip-rule="evenodd" d="m248.995 279.884h-100.072c-3.152 0-5.524-2.866-4.931-5.957l12.153-63.255c.453-2.361 2.522-4.068 4.931-4.068h100.072c3.152 0 5.524 2.866 4.931 5.956l-12.153 63.256c-.453 2.361-2.522 4.068-4.931 4.068z" fill="#1373cc" fill-rule="evenodd"/><path clip-rule="evenodd" d="m246.549 279.884h-100.072c-3.152 0-5.524-2.866-4.931-5.957l12.153-63.255c.453-2.361 2.522-4.068 4.931-4.068h100.072c3.152 0 5.524 2.866 4.931 5.956l-12.153 63.256c-.453 2.361-2.522 4.068-4.931 4.068z" fill="#1890ff" fill-rule="evenodd"/><path clip-rule="evenodd" d="m242.123 275.412h-89.5c-3.152 0-5.524-2.866-4.931-5.957l10.434-54.311c.454-2.362 2.523-4.069 4.931-4.069h89.5c3.153 0 5.525 2.866 4.931 5.957l-10.434 54.312c-.454 2.361-2.523 4.068-4.931 4.068z" fill="#fff" fill-rule="evenodd"/><path clip-rule="evenodd" d="m239.767 270.209h-79.072l11.934-63.525h79.072z" fill="#f0f2f5" fill-rule="evenodd"/><path d="m168.97 195.577h-18.034l-6.255 24.093" stroke="#13c2c2"/><path d="m248.659 187.628h25.136l4.226-19.352" stroke="#13c2c2"/><path d="m235.635 267.589-3.279 16.367" stroke="#13c2c2"/><g clip-rule="evenodd" fill-rule="evenodd"><path d="m233.375 285.009c0 .883-.717 1.599-1.602 1.599s-1.602-.716-1.602-1.599c0-.884.717-1.6 1.602-1.6s1.602.716 1.602 1.6z" fill="#13c2c2"/><path d="m280.144 167.388c0 .883-.717 1.599-1.602 1.599s-1.602-.716-1.602-1.599c0-.884.717-1.6 1.602-1.6s1.602.716 1.602 1.6z" fill="#13c2c2"/><path d="m146.183 220.188c0 .884-.717 1.6-1.602 1.6s-1.602-.716-1.602-1.6c0-.883.717-1.599 1.602-1.599s1.602.716 1.602 1.599z" fill="#13c2c2"/><path d="m250.133 182.176h-78.705l-1.782 10.339h78.706z" fill="#1890ff"/><path d="m169.647 192.516h78.706l-12.271 71.212h-78.705z" fill="url(#b)"/><path d="m177.603 185.15-.842 4.072h29.355l.906-4.072z" fill="#fff"/><path d="m179.585 196.2-.842 4.071h56.065l.906-4.071z" fill="#89e0e0"/><path d="m209.927 207.214-.473 2.205h28.48l.538-2.205z" fill="#fff"/><path d="m209.008 211.804-.437 2.198h28.48l.502-2.198z" fill="#fff"/><path d="m208.088 216.394-.491 2.207h28.48l.556-2.207z" fill="#fff"/><path d="m169.259 228.906-1.503 8.845c-.097.575.346 1.099.93 1.099h15.18c.459 0 .851-.329.929-.779l1.547-8.846c.1-.576-.344-1.103-.929-1.103h-15.225c-.46 0-.853.331-.929.784z" fill="#fff"/><path d="m193.694 228.906-1.503 8.845c-.097.575.346 1.099.93 1.099h15.181c.458 0 .85-.329.928-.779l1.547-8.846c.1-.576-.343-1.103-.929-1.103h-15.225c-.46 0-.852.331-.929.784z" fill="#fff"/><path d="m218.128 228.906-1.502 8.845c-.098.575.346 1.099.929 1.099h15.181c.458 0 .85-.329.929-.779l1.546-8.846c.101-.576-.343-1.103-.929-1.103h-15.224c-.46 0-.853.331-.93.784z" fill="#fff"/><path d="m172.223 206.238-2.627 13.827c-.157.826.518 1.585 1.41 1.585h31.233c.692 0 1.285-.465 1.409-1.106l2.681-13.827c.16-.828-.515-1.59-1.409-1.59h-31.288c-.693 0-1.287.468-1.409 1.111z" fill="#1890ff"/><path d="m210.732 185.15-.841 4.072h12.344l.906-4.072z" fill="#fff"/><path d="m225.748 185.15-.842 4.072h18.3l.907-4.072z" fill="#fff"/><path d="m183.743 242.937h-16.225c-.221 0-.401-.179-.401-.399 0-.221.18-.4.401-.4h16.225c.222 0 .401.179.401.4 0 .22-.179.399-.401.399z" fill="#fff"/><path d="m182.966 247.467h-16.225c-.221 0-.401-.179-.401-.4s.18-.4.401-.4h16.225c.221 0 .401.179.401.4s-.18.4-.401.4z" fill="#fff"/><path d="m182.188 252h-16.225c-.221 0-.401-.179-.401-.4s.18-.4.401-.4h16.225c.222 0 .401.179.401.4s-.179.4-.401.4z" fill="#fff"/><path d="m181.412 256.532h-16.225c-.221 0-.401-.179-.401-.4s.18-.4.401-.4h16.225c.221 0 .401.179.401.4s-.18.4-.401.4z" fill="#fff"/><path d="m208.063 242.937h-16.225c-.221 0-.401-.179-.401-.399 0-.221.18-.4.401-.4h16.225c.221 0 .401.179.401.4 0 .22-.18.399-.401.399z" fill="#fff"/><path d="m207.287 247.467h-16.225c-.222 0-.401-.179-.401-.4s.179-.4.401-.4h16.225c.221 0 .4.179.4.4s-.179.4-.4.4z" fill="#fff"/><path d="m206.51 252h-16.226c-.221 0-.4-.179-.4-.4s.179-.4.4-.4h16.226c.221 0 .4.179.4.4s-.179.4-.4.4z" fill="#fff"/><path d="m205.734 256.532h-16.226c-.221 0-.4-.179-.4-.4s.179-.4.4-.4h16.226c.221 0 .4.179.4.4s-.179.4-.4.4z" fill="#fff"/><path d="m232.385 242.937h-16.225c-.221 0-.4-.179-.4-.399 0-.221.179-.4.4-.4h16.225c.222 0 .401.179.401.4 0 .22-.179.399-.401.399z" fill="#fff"/><path d="m231.608 247.467h-16.225c-.221 0-.401-.179-.401-.4s.18-.4.401-.4h16.225c.221 0 .401.179.401.4s-.18.4-.401.4z" fill="#fff"/><path d="m230.831 252h-16.225c-.222 0-.401-.179-.401-.4s.179-.4.401-.4h16.225c.221 0 .401.179.401.4s-.18.4-.401.4z" fill="#fff"/><path d="m230.054 256.532h-16.225c-.221 0-.401-.179-.401-.4s.18-.4.401-.4h16.225c.222 0 .401.179.401.4s-.179.4-.401.4z" fill="#fff"/><path d="m152.972 279.882h-7.845c-3.077 0-5.394-2.796-4.816-5.813l10.079-47.159h11.429z" fill="#1373cc"/><path d="m109.443 287.386 8.69-53.313h39.718l-9.442 53.313z" fill="url(#d)"/><path d="m119.344 226.641-1.211 7.431h39.718l1.164-7.431z" fill="#13c2c2"/><path d="m143.122 264.476h-21.977c-.299 0-.542-.243-.542-.542s.243-.541.542-.541h21.977c.3 0 .543.242.543.541s-.243.542-.543.542z" fill="#fff"/><path d="m142.069 269.925h-21.977c-.3 0-.542-.242-.542-.542 0-.299.242-.541.542-.541h21.977c.3 0 .543.242.543.541 0 .3-.243.542-.543.542z" fill="#fff"/><path d="m141.018 275.372h-21.977c-.3 0-.543-.242-.543-.541s.243-.542.543-.542h21.977c.299 0 .542.243.542.542s-.243.541-.542.541z" fill="#fff"/><path d="m139.966 280.821h-21.977c-.3 0-.543-.243-.543-.542s.243-.542.543-.542h21.977c.299 0 .542.243.542.542s-.243.542-.542.542z" fill="#fff"/><path d="m124.007 241.218-2.226 13.624c-.145.885.512 1.692 1.377 1.692h22.498c.679 0 1.259-.507 1.376-1.201l2.292-13.623c.149-.887-.509-1.699-1.377-1.699h-22.562c-.682 0-1.264.51-1.378 1.207z" fill="#fff"/></g><path d="m134.529 247.624-.13.483.5.004 1.315.011-2.68 2.613.464-1.718.131-.483-.5-.004-1.315-.011 2.679-2.613z" fill="#1890ff" stroke="#1890ff"/><path clip-rule="evenodd" d="m299.892 163.327h-32.637l5.574-31.327h32.637z" fill="url(#e)" fill-rule="evenodd"/><path clip-rule="evenodd" d="m295.54 155.773-21.679-.502c-.625-.015-1.041-.536-.929-1.164l2.419-13.531c.112-.629.71-1.126 1.335-1.112l21.679.502c.625.015 1.041.536.929 1.164l-2.419 13.531c-.112.629-.71 1.126-1.335 1.112z" fill="#13c2c2" fill-rule="evenodd"/><g mask="url(#f)"><path clip-rule="evenodd" d="m274.973 140.654 10.712 7.493 13.662-6.507-.084 1.14-13.53 6.27-11.295-7.747z" fill="#028c8c" fill-rule="evenodd"/></g><g mask="url(#g)"><path clip-rule="evenodd" d="m273.916 140.213 11.887 8.195 13.845-6.608-.085-2.013-25.347-.587z" fill="#13c2c2" fill-rule="evenodd"/></g><path clip-rule="evenodd" d="m280.457 298.682s3.219-2.186.787-5.634c-2.432-3.447-8.798-.778-8.798-.778s2.503-4.45-4.149-5.48-9.156 5.48-9.156 5.48-2.105-3.665-7.061-2.385c-4.956 1.281-3.74 5.378-3.74 5.378l-12.088 3.419z" fill="#d1e9ff" fill-rule="evenodd"/><g opacity=".8"><g clip-rule="evenodd" fill-rule="evenodd"><g opacity=".4"><path d="m91.2197 183.686c0 3.821-3.1008 6.918-6.9258 6.918s-6.9257-3.097-6.9257-6.918 3.1007-6.918 6.9257-6.918 6.9258 3.097 6.9258 6.918z" fill="#fff"/><path d="m84.2939 176.979c-3.7024 0-6.7147 3.008-6.7147 6.707 0 3.698 3.0123 6.707 6.7147 6.707 3.7025 0 6.7147-3.009 6.7147-6.707 0-3.699-3.0122-6.707-6.7147-6.707zm-.0001 13.917c-3.9802 0-7.2184-3.235-7.2184-7.211s3.2382-7.21 7.2184-7.21 7.2183 3.234 7.2183 7.21-3.2381 7.211-7.2183 7.211z" fill="#8bc7ff"/><g fill="#1890ff"><path d="m85.3409 187.149c-.0482.012-.0973.023-.1473.033-.5291.11-1.1104.1-1.6368-.026-1.047-.252-1.4961-.808-1.6882-1.222-.1108-.238.0579-.512.3203-.528l.5019-.03s0-.005-.0009-.013c.0029.025.0831.611 1.0928.854.7792.187 1.6969.014 2.0037-.378.0547-.07.1999-.256-.0227-.684-.3009-.579-.6875-.664-1.4015-.775-.5756-.09-1.2281-.191-1.8588-.702-.6581-.532-.914-1.27-.6845-1.973.2889-.885 1.2446-1.474 2.4943-1.537.8148-.041 1.4495.157 1.8864.587.293.289.4329.621.4992.887.0606.242-.1285.475-.3784.466l-.5294-.02-.0002.006c.0001-.004.0014-.39-.2773-.658-.2368-.228-.6242-.33-1.1515-.303-1.0053.05-1.503.501-1.624.872-.1034.316.0294.644.3739.923.4284.347.9.42 1.3993.498.7359.114 1.5701.244 2.1104 1.284.443.852.144 1.446-.0737 1.724-.2628.335-.6782.581-1.207.715z"/><path d="m84.469 188.067c-.0378.01-.0772.015-.118.015-.2669.001-.4839-.215-.4846-.482l-.02-8.123c-.0006-.266.2153-.483.4822-.484.2669 0 .4839.215.4845.482l.0201 8.123c.0006.226-.1544.416-.3642.469z"/></g></g><g opacity=".8"><path d="m91.2749 234.178c0 2.85-2.3125 5.159-5.165 5.159-2.8526 0-5.1651-2.309-5.1651-5.159 0-2.849 2.3125-5.159 5.1651-5.159 2.8525 0 5.165 2.31 5.165 5.159z" fill="#fff"/><path d="m86.1098 229.176c-2.7612 0-5.0076 2.244-5.0076 5.002s2.2464 5.002 5.0076 5.002 5.0077-2.244 5.0077-5.002-2.2465-5.002-5.0077-5.002zm-.0002 10.381c-2.9684 0-5.3833-2.413-5.3833-5.378s2.4149-5.377 5.3833-5.377c2.9683 0 5.3832 2.412 5.3832 5.377s-2.4149 5.378-5.3832 5.378z" fill="#8bc7ff"/><g fill="#1890ff"><path d="m86.8902 236.761c-.036.009-.0726.018-.1099.026-.3946.081-.8281.074-1.2206-.02-.7809-.188-1.1158-.603-1.2591-.911-.0826-.178.0432-.383.2389-.394l.3743-.023s0-.003-.0007-.009c.0022.018.062.456.815.636.5811.14 1.2655.011 1.4943-.282.0408-.052.1491-.19-.0169-.509-.2244-.432-.5127-.495-1.0452-.578-.4293-.067-.9159-.143-1.3863-.524-.4907-.397-.6816-.947-.5105-1.471.2155-.66.9283-1.099 1.8603-1.146.6076-.031 1.0809.116 1.4068.437.2185.216.3228.463.3723.661.0452.181-.0959.355-.2822.348l-.3949-.015-.0001.005c.0001-.003.0011-.291-.2068-.491-.1766-.17-.4655-.246-.8588-.226-.7497.038-1.1209.374-1.2111.65-.0771.236.0219.481.2788.689.3195.258.6713.313 1.0436.371.5488.086 1.1709.182 1.5739.958.3304.635.1074 1.078-.055 1.285-.196.25-.5057.433-.9001.533z"/><path d="m86.2404 237.447c-.0281.007-.0575.011-.0879.011-.1991 0-.3609-.16-.3614-.359l-.015-6.058c-.0004-.199.1606-.361.3596-.361.1991-.001.3609.16.3614.359l.015 6.058c.0004.169-.1152.31-.2717.35z"/></g></g><path d="m119.907 209.671c0 6.714-5.449 12.157-12.17 12.157-6.722 0-12.171-5.443-12.171-12.157s5.449-12.157 12.171-12.157c6.721 0 12.17 5.443 12.17 12.157z" fill="#fff"/><path d="m107.737 197.886c-6.506 0-11.7997 5.287-11.7997 11.787 0 6.499 5.2937 11.787 11.7997 11.787s11.8-5.288 11.8-11.787c0-6.5-5.294-11.787-11.8-11.787zm0 24.457c-6.995 0-12.6848-5.684-12.6848-12.671s5.6898-12.671 12.6848-12.671c6.994 0 12.685 5.684 12.685 12.671s-5.691 12.671-12.685 12.671z" fill="#8bc7ff"/><path d="m109.578 215.756c-.085.021-.171.041-.259.059-.93.192-1.951.176-2.876-.047-1.84-.441-2.629-1.42-2.967-2.146-.195-.418.102-.901.563-.928l.882-.053s0-.008-.002-.022c.005.043.146 1.073 1.92 1.499 1.37.329 2.982.025 3.522-.664.096-.123.351-.448-.04-1.201-.529-1.017-1.208-1.167-2.463-1.362-1.012-.158-2.158-.337-3.267-1.233-1.156-.936-1.606-2.232-1.202-3.467.507-1.556 2.187-2.591 4.383-2.701 1.432-.072 2.547.275 3.315 1.031.515.507.76 1.091.877 1.558.107.426-.226.835-.665.818l-.93-.034-.001.01c.001-.006.003-.685-.487-1.156-.416-.4-1.097-.579-2.024-.532-1.766.089-2.641.881-2.853 1.532-.182.556.051 1.132.657 1.622.753.609 1.581.738 2.459.875 1.293.201 2.759.43 3.708 2.257.779 1.497.253 2.54-.129 3.029-.462.589-1.192 1.021-2.121 1.256z" fill="#1890ff"/><path d="m108.045 217.372c-.066.017-.136.025-.207.026-.469.001-.85-.378-.852-.847l-.035-14.275c-.001-.468.378-.849.847-.85.47-.001.851.378.852.846l.035 14.275c.001.397-.271.731-.64.825z" fill="#1890ff"/></g><path d="m89.8525 188.035 10.3435 11.865" stroke="#8bc7ff"/><path d="m100.195 219.676-10.0389 11.56" stroke="#8bc7ff"/></g></svg>