<?xml version="1.0" encoding="UTF-8"?>
<svg width="20px" height="20px" viewBox="0 0 20 20" version="1.1" xmlns="http://www.w3.org/2000/svg" xmlns:xlink="http://www.w3.org/1999/xlink">
    <title>全屏</title>
    <g id="后台" stroke="none" stroke-width="1" fill="none" fill-rule="evenodd">
        <g id="经营分析" transform="translate(-1854.000000, -1493.000000)" fill="#707070" fill-rule="nonzero">
            <g id="编组-40" transform="translate(208.000000, 56.000000)">
                <g id="编组-16" transform="translate(1626.000000, 1162.000000)">
                    <g id="全屏" transform="translate(20.000000, 275.000000)">
                        <path d="M2.83333334,1.66666666 L5.83333334,1.66666666 C6.33333334,1.66666666 6.66666668,1.33333332 6.66666666,0.83333334 C6.66666664,0.333333359 6.33333334,0 5.83333334,0 L0.66666666,0 C0.5,0 0.33333334,0.16666666 0.16666666,0.33333334 C0,0.5 0,0.66666666 0,0.83333334 L0,5.83333334 C0,6.33333334 0.33333334,6.66666668 0.83333334,6.66666666 C1.33333334,6.66666664 1.66666668,6.33333332 1.66666666,5.83333334 L1.66666666,2.83333334 L6.16666666,7.33333334 C6.5,7.66666668 7,7.66666668 7.33333334,7.33333334 C7.66666668,7 7.66666668,6.5 7.33333334,6.16666666 L2.83333334,1.66666666 Z M6.16666666,12.6666667 L3.16666666,15.6666667 L1.66666666,17.1666667 L1.66666666,14.1666667 C1.66666666,13.6666667 1.33333334,13.3333333 0.83333334,13.3333333 C0.33333334,13.3333333 0,13.6666667 0,14.1666667 L0,19.1666667 C0,19.6666667 0.33333334,20 0.83333334,20 L5.83333334,20 C6.33333334,20 6.66666668,19.6666667 6.66666666,19.1666667 C6.66666664,18.6666667 6.33333332,18.3333333 5.83333334,18.3333333 L2.83333334,18.3333333 L4.33333334,16.8333333 L7.33333334,13.8333333 C7.66666668,13.5 7.66666668,13 7.33333334,12.6666667 C7,12.3333333 6.5,12.3333333 6.16666666,12.6666667 L6.16666666,12.6666667 Z M19.1666667,13.3333333 C18.6666667,13.3333333 18.3333333,13.6666667 18.3333333,14.1666667 L18.3333333,17.1666667 L16.8333333,15.6666667 L13.8333333,12.6666667 C13.5,12.3333333 13,12.3333333 12.6666667,12.6666667 C12.3333333,13 12.3333333,13.5 12.6666667,13.8333333 L15.6666667,16.8333333 L17.1666667,18.3333333 L14.1666667,18.3333333 C13.6666667,18.3333333 13.3333333,18.6666667 13.3333333,19.1666667 C13.3333334,19.6666666 13.6666667,20 14.1666667,20 L19.1666667,20 C19.6666667,20 20,19.6666667 20,19.1666667 L20,14.1666667 C20,13.6666667 19.6666667,13.3333333 19.1666667,13.3333333 Z M19.1666667,2.22044605e-15 L14.1666667,2.22044605e-15 C13.6666667,2.22044605e-15 13.3333333,0.33333334 13.3333333,0.83333334 C13.3333334,1.33333334 13.6666667,1.66666668 14.1666667,1.66666666 L17.1666667,1.66666666 L15.6666667,3.16666666 L12.6666667,6.16666666 C12.3333333,6.5 12.3333333,7 12.6666667,7.33333334 C13,7.66666668 13.5,7.66666668 13.8333333,7.33333334 L16.8333333,4.33333334 L18.3333333,2.83333334 L18.3333333,5.83333334 C18.3333333,6.33333334 18.6666667,6.66666668 19.1666667,6.66666666 C19.6666666,6.66666664 20,6.33333332 20,5.83333334 L20,0.83333334 C20,0.33333334 19.6666667,2.22044605e-15 19.1666667,2.22044605e-15 Z" id="形状"></path>
                    </g>
                </g>
            </g>
        </g>
    </g>
</svg>