<?xml version="1.0" encoding="UTF-8"?>
<svg width="12px" height="12px" viewBox="0 0 12 12" version="1.1" xmlns="http://www.w3.org/2000/svg" xmlns:xlink="http://www.w3.org/1999/xlink">
    <title>删除备注</title>
    <g id="后台" stroke="none" stroke-width="1" fill="none" fill-rule="evenodd">
        <g id="经营分析" transform="translate(-1768.000000, -600.000000)" fill="#444444" fill-rule="nonzero">
            <g id="删除备注" transform="translate(1768.000000, 600.000000)">
                <path d="M11.5909091,2.18181818 L9,2.18181818 L9,1.22727273 C9,0.545454545 8.45454545,0 7.77272727,0 L4.22727273,0 C3.54545455,0 3,0.545454545 3,1.22727273 L3,2.18181818 L0.409090909,2.18181818 C0.190909091,2.18181818 0,2.37272727 0,2.59090909 C0,2.80909091 0.190909091,3 0.409090909,3 L11.5909091,3 C11.8090909,3 12,2.80909091 12,2.59090909 C12,2.37272727 11.8090909,2.18181818 11.5909091,2.18181818 Z M3.81818182,2.18181818 L3.81818182,1.22727273 C3.81818182,1.00909091 4.00909091,0.818181818 4.22727273,0.818181818 L7.77272727,0.818181818 C7.99090909,0.818181818 8.18181818,1.00909091 8.18181818,1.22727273 L8.18181818,2.18181818 L3.81818182,2.18181818 Z M10.2,3.81818182 C9.98181818,3.81818182 9.79090909,4.00909091 9.79090909,4.22727273 L9.79090909,10.4181818 C9.79090909,10.8272727 9.46363636,11.1818182 9.02727273,11.1818182 L2.94545455,11.1818182 C2.53636364,11.1818182 2.18181818,10.8545455 2.18181818,10.4181818 L2.18181818,4.22727273 C2.18181818,4.00909091 1.99090909,3.81818182 1.77272727,3.81818182 C1.55454545,3.81818182 1.36363636,4.00909091 1.36363636,4.22727273 L1.36363636,10.4181818 C1.36363636,11.2909091 2.07272727,12 2.94545455,12 L9.05454545,12 C9.92727273,12 10.6363636,11.2909091 10.6363636,10.4181818 L10.6363636,4.22727273 C10.6090909,4.00909091 10.4181818,3.81818182 10.2,3.81818182 Z" id="形状"></path>
                <path d="M4.85454545,9.95454545 L4.85454545,4.22727273 C4.85454545,4.00909091 4.66363636,3.81818182 4.44545455,3.81818182 C4.22727273,3.81818182 4.03636364,4.00909091 4.03636364,4.22727273 L4.03636364,9.95454545 C4.03636364,10.1727273 4.22727273,10.3636364 4.44545455,10.3636364 C4.66363636,10.3636364 4.85454545,10.1727273 4.85454545,9.95454545 Z M7.96363636,9.95454545 L7.96363636,4.22727273 C7.96363636,4.00909091 7.77272727,3.81818182 7.55454545,3.81818182 C7.33636364,3.81818182 7.14545455,4.00909091 7.14545455,4.22727273 L7.14545455,9.95454545 C7.14545455,10.1727273 7.33636364,10.3636364 7.55454545,10.3636364 C7.77272727,10.3636364 7.96363636,10.1727273 7.96363636,9.95454545 Z" id="形状"></path>
            </g>
        </g>
    </g>
</svg>