<?xml version="1.0" encoding="UTF-8"?>
<svg width="12px" height="14px" viewBox="0 0 12 14" version="1.1" xmlns="http://www.w3.org/2000/svg" xmlns:xlink="http://www.w3.org/1999/xlink">
    <title>批注</title>
    <g id="后台" stroke="none" stroke-width="1" fill="none" fill-rule="evenodd">
        <g id="经营分析" transform="translate(-1768.000000, -535.000000)" fill="#444444" fill-rule="nonzero">
            <g id="批注" transform="translate(1768.000000, 535.000000)">
                <path d="M9,8 L9,8.5 C9,8.77614238 8.75579168,9 8.45454546,9 L3.54545454,9 C3.24420832,9 3,8.77614238 3,8.5 L3,8 L9,8 L9,8 Z" id="路径"></path>
                <path d="M7.63636363,0 C7.92914369,0.000710932667 8.1691558,0.238605091 8.18014383,0.538981697 C8.19113186,0.839358304 7.96917609,1.09506494 7.67727273,1.11832 L7.63636363,1.12 L1.0909091,1.12 L1.0909091,12.88 L10.9090909,12.88 L10.9090909,4.5598 C10.9077742,4.2577278 11.1400523,4.00902225 11.4340743,3.99768824 C11.7280962,3.98635423 11.9778859,4.21647694 11.9986364,4.5178 L12,4.5598 L12,12.88 C12,13.4767924 11.5442006,13.9687604 10.9636364,13.9986 L10.9090909,14 L1.0909091,14 C0.509617806,14 0.0304282085,13.5320459 0.00136364702,12.936 L0,12.88 L0,1.12 C0,0.523207615 0.455799426,0.0312396274 1.03636365,0.00140001094 L1.0909091,0 L7.63636363,0 Z" id="路径"></path>
                <path d="M11.0332097,0.165050194 C11.2549116,-0.055714419 11.6041579,-0.0549174453 11.8249307,0.166856888 C12.0457035,0.38863122 12.0594415,0.752465107 11.8560739,0.991647164 L11.821764,1.02861002 L5.96336011,6.83833769 C5.74119253,7.05593446 5.39436476,7.05358615 5.1749267,6.83299934 C4.95548863,6.61241253 4.94059428,6.25114512 5.14106779,6.01174072 L5.17537762,5.97447978 L11.0332097,0.165050194 Z" id="路径"></path>
            </g>
        </g>
    </g>
</svg>