<?xml version="1.0" encoding="UTF-8"?>
<svg width="20px" height="17px" viewBox="0 0 20 17" version="1.1" xmlns="http://www.w3.org/2000/svg" xmlns:xlink="http://www.w3.org/1999/xlink">
    <title>操作</title>
    <g id="后台" stroke="none" stroke-width="1" fill="none" fill-rule="evenodd">
        <g id="经营分析" transform="translate(-1854.000000, -1228.000000)" fill="#666666" fill-rule="nonzero">
            <g id="编组-40" transform="translate(208.000000, 56.000000)">
                <g id="编组-16" transform="translate(1626.000000, 1162.000000)">
                    <g id="操作" transform="translate(20.000000, 10.000000)">
                        <path d="M19.2592593,14.8148148 L1.48148148,14.8148148 L1.48148148,0.740740741 C1.48148148,0.331640926 1.14984056,0 0.740740741,0 C0.331640926,0 0,0.331640926 0,0.740740741 L0,15.5555556 C0,15.9646554 0.331640926,16.2962963 0.740740741,16.2962963 L19.2592593,16.2962963 C19.6683591,16.2962963 20,15.9646554 20,15.5555556 C20,15.1464557 19.6683591,14.8148148 19.2592593,14.8148148 Z" id="路径"></path>
                        <path d="M4.2362963,10.3703713 C4.40814815,10.3703713 4.58074074,10.3111111 4.72148148,10.1896296 L8.88222222,6.58222222 L12.922963,10.1822222 C13.2234951,10.4505469 13.6834595,10.4291455 13.9577778,10.1340741 L19.7548148,3.90222222 C19.9351678,3.70837256 19.9984032,3.43303092 19.920701,3.17991585 C19.8429987,2.92680077 19.6361636,2.73436645 19.3781084,2.67510103 C19.1200532,2.61583561 18.8499826,2.69874293 18.6696296,2.89259259 L13.3666667,8.59407407 L9.38222222,5.04222222 C9.10389854,4.79486281 8.68537192,4.79201138 8.4037037,5.03555556 L3.75111111,9.06888889 C3.51664624,9.27126966 3.43285033,9.59816174 3.54104191,9.88837947 C3.6492335,10.1785972 3.92656817,10.3708618 4.2362963,10.3703713 Z" id="路径"></path>
                    </g>
                </g>
            </g>
        </g>
    </g>
</svg>