<?xml version="1.0" encoding="UTF-8"?>
<svg width="20px" height="20px" viewBox="0 0 20 20" version="1.1" xmlns="http://www.w3.org/2000/svg" xmlns:xlink="http://www.w3.org/1999/xlink">
    <title>缩小</title>
    <g id="后台" stroke="none" stroke-width="1" fill="none" fill-rule="evenodd">
        <g id="经营分析" transform="translate(-1854.000000, -1362.000000)" fill="#666666" fill-rule="nonzero">
            <g id="编组-40" transform="translate(208.000000, 56.000000)">
                <g id="编组-16" transform="translate(1626.000000, 1162.000000)">
                    <g id="缩小" transform="translate(20.000000, 144.000000)">
                        <path d="M19.7657296,18.6300759 L16.9991075,15.8612227 C17.6282909,15.1182508 18.1392236,14.2904953 18.5207497,13.389112 C19.0227577,12.1999108 19.2793396,10.9370817 19.2793396,9.63632307 C19.2793396,8.33556448 19.0249888,7.07273539 18.5207497,5.88353414 C18.0343597,4.73449353 17.340473,3.70593485 16.4547077,2.82016957 C15.5689424,1.93440428 14.5403838,1.24051763 13.3913432,0.754127622 C12.2021419,0.254350736 10.9393128,0 9.63855422,0 C8.33779563,0 7.07496653,0.254350736 5.88576528,0.758589915 C4.73672468,1.24497992 3.708166,1.93886658 2.82240071,2.82463186 C1.93663543,3.71039714 1.24274877,4.73895582 0.756358768,5.88799643 C0.254350736,7.07496653 0,8.33779563 0,9.63855422 C0,10.9393128 0.254350736,12.2021419 0.758589915,13.3913432 C1.24497992,14.5403838 1.93886658,15.5689424 2.82463186,16.4547077 C3.71039714,17.340473 4.73895582,18.0343597 5.88799643,18.5207497 C7.07719768,19.0227577 8.34002677,19.2793396 9.64078536,19.2793396 C10.941544,19.2793396 12.204373,19.0249888 13.3935743,18.5207497 C14.2949576,18.1392236 15.1227131,17.6282909 15.865685,16.9991075 L18.6300759,19.7657296 C18.9424364,20.0780901 19.453369,20.0780901 19.7657296,19.7657296 C20.0780901,19.453369 20.0780901,18.9424364 19.7657296,18.6300759 Z M9.63855422,17.6706827 C5.20303436,17.6706827 1.6064257,14.0740741 1.6064257,9.63855422 C1.6064257,5.20303436 5.20303436,1.6064257 9.63855422,1.6064257 C14.0740741,1.6064257 17.6706827,5.20303436 17.6706827,9.63855422 C17.6706827,14.0740741 14.0740741,17.6706827 9.63855422,17.6706827 Z" id="形状"></path>
                        <path d="M13.0183946,8.78762542 L6.21237458,8.78762542 C5.75710702,8.78762542 5.38461538,9.16011706 5.38461538,9.61538462 C5.38461538,10.0706522 5.75710702,10.4431438 6.21237458,10.4431438 L13.0183946,10.4431438 C13.4736622,10.4431438 13.8461538,10.0706522 13.8461538,9.61538462 C13.8461538,9.16011706 13.4736622,8.78762542 13.0183946,8.78762542 Z" id="路径"></path>
                    </g>
                </g>
            </g>
        </g>
    </g>
</svg>