<?xml version="1.0" encoding="UTF-8"?>
<svg width="12px" height="13px" viewBox="0 0 12 13" version="1.1" xmlns="http://www.w3.org/2000/svg" xmlns:xlink="http://www.w3.org/1999/xlink">
    <title>编辑备注</title>
    <g id="后台" stroke="none" stroke-width="1" fill="none" fill-rule="evenodd">
        <g id="经营分析" transform="translate(-1768.000000, -568.000000)" fill="#444444" fill-rule="nonzero">
            <g id="编辑备注" transform="translate(1768.000000, 568.000000)">
                <path d="M0.5263158,12.9230769 C0.421052637,12.9230769 0.368421063,12.9230769 0.315789474,12.8684772 C0.105263163,12.7592777 0,12.5408787 0,12.3770795 L0.0526315892,10.5206882 C0.0526315892,10.2476895 0.315789489,9.97469076 0.578947374,9.97469074 C0.894736847,9.97469074 1.10526316,10.2476895 1.10526316,10.5206882 L1.10526316,11.1758851 L2.73684212,9.81089151 L1.05263158,8.93729561 C0.5263158,8.66429688 0.368421063,8.00909996 0.631578947,7.46310252 L3.84210527,1.18413196 C4.10526317,0.69273426 4.52631579,0.310536057 5.10526317,0.0921370695 C5.63157895,-0.0716621627 6.21052633,-0.017062424 6.68421054,0.255936302 C7.68421053,0.801933737 8.10526317,2.16692735 7.57894737,3.20432248 L5.10526317,8.00909996 C4.94736843,8.28209868 4.63157896,8.39129816 4.36842106,8.22749894 C4.10526316,8.06369971 4,7.73610125 4.15789475,7.46310252 L6.63157895,2.65832505 C6.89473685,2.11232761 6.68421052,1.45713068 6.21052633,1.18413196 C5.94736843,1.02033272 5.68421054,1.02033272 5.42105264,1.1295322 C5.15789474,1.2387317 4.94736843,1.40253093 4.78947369,1.67552965 L1.57894737,8.00909996 L3.21052633,8.88269587 C3.5263158,9.0464951 3.73684211,9.37409357 3.78947368,9.75629177 C3.84210526,10.13849 3.68421052,10.4660884 3.42105264,10.6844874 L0.947368421,12.7592777 C0.73684211,12.8684772 0.631578947,12.9230769 0.5263158,12.9230769 Z M12,12.3770795 C12,12.049481 11.7894737,11.8310821 11.4736842,11.8310821 L3.57894737,11.8310821 C3.2631579,11.8310821 3.05263159,12.049481 3.05263159,12.3770795 C3.05263159,12.704678 3.2631579,12.9230769 3.57894737,12.9230769 L11.4736842,12.9230769 C11.7894737,12.9230769 12,12.6500782 12,12.3770795 Z" id="形状"></path>
            </g>
        </g>
    </g>
</svg>