<?xml version="1.0" encoding="UTF-8"?>
<svg width="20px" height="20px" viewBox="0 0 20 20" version="1.1" xmlns="http://www.w3.org/2000/svg" xmlns:xlink="http://www.w3.org/1999/xlink">
    <title>保存</title>
    <g id="后台" stroke="none" stroke-width="1" fill="none" fill-rule="evenodd">
        <g id="经营分析" transform="translate(-1854.000000, -1560.000000)" fill="#707070" fill-rule="nonzero">
            <g id="编组-40" transform="translate(208.000000, 56.000000)">
                <g id="编组-16" transform="translate(1626.000000, 1162.000000)">
                    <g id="保存" transform="translate(20.000000, 342.000000)">
                        <path d="M17.6512456,20 L2.27758007,20 C1.06761566,20 0,18.9361702 0,17.6595745 L0,13.6170213 C0,13.1914894 0.284697509,12.9078014 0.711743772,12.9078014 C1.13879004,12.9078014 1.42348754,13.1914894 1.42348754,13.6170213 L1.42348754,17.6595745 C1.42348754,18.1560284 1.77935943,18.5815603 2.27758007,18.5815603 L17.7224199,18.5815603 C18.1494662,18.5815603 18.5765125,18.1560284 18.5765125,17.6595745 L18.5765125,13.6170213 C18.5765125,13.1914894 18.86121,12.9078014 19.2882562,12.9078014 C19.7153025,12.9078014 20,13.1914894 20,13.6170213 L20,17.6595745 C19.9288256,18.9361702 18.9323843,20 17.6512456,20 Z" id="路径"></path>
                        <path d="M9.96441281,15.6028369 C9.53736655,15.6028369 9.25266904,15.3191489 9.25266904,14.893617 L9.25266904,0.709219858 C9.25266904,0.283687943 9.53736655,0 9.96441281,0 C10.3914591,0 10.6761566,0.283687943 10.6761566,0.709219858 L10.6761566,14.893617 C10.6761566,15.248227 10.3914591,15.6028369 9.96441281,15.6028369 Z" id="路径"></path>
                        <path d="M9.96441281,15.7446809 C9.75088968,15.7446809 9.60854093,15.6737589 9.46619217,15.5319149 L4.83985765,10.9219858 C4.55516014,10.6382979 4.55516014,10.212766 4.83985765,9.92907801 C5.12455516,9.64539007 5.55160142,9.64539007 5.83629893,9.92907801 L9.96441281,14.0425532 L14.0925267,9.92907801 C14.3772242,9.64539007 14.8042705,9.64539007 15.088968,9.92907801 C15.3736655,10.212766 15.3736655,10.6382979 15.088968,10.9219858 L10.4626335,15.5319149 C10.3202847,15.6737589 10.1779359,15.7446809 9.96441281,15.7446809 L9.96441281,15.7446809 Z" id="路径"></path>
                    </g>
                </g>
            </g>
        </g>
    </g>
</svg>