<?xml version="1.0" encoding="UTF-8"?>
<svg width="20px" height="17px" viewBox="0 0 20 17" version="1.1" xmlns="http://www.w3.org/2000/svg" xmlns:xlink="http://www.w3.org/1999/xlink">
    <title>刷新</title>
    <g id="后台" stroke="none" stroke-width="1" fill="none" fill-rule="evenodd">
        <g id="经营分析" transform="translate(-1854.000000, -1429.000000)" fill-rule="nonzero">
            <g id="编组-40" transform="translate(208.000000, 56.000000)">
                <g id="编组-16" transform="translate(1626.000000, 1162.000000)">
                    <g id="刷新" transform="translate(20.000000, 211.000000)">
                        <path d="M10.0045734,16.8177228 C5.36702295,16.8177228 1.59571199,13.0464119 1.59571199,8.40886142 C1.59571199,8.22927519 1.60627588,8.04968895 1.61683978,7.87010271 L3.09578525,7.96517778 C3.08522136,8.11307233 3.08522136,8.26096688 3.08522136,8.40886142 C3.08522136,12.2329919 6.19100686,15.3387774 10.0151373,15.3387774 C11.8004358,15.3387774 13.4906592,14.662688 14.7794545,13.437276 L15.7935886,14.5147935 C14.219568,16.0043028 12.1701721,16.8177228 10.0045734,16.8177228 Z M18.4134348,8.40886142 L16.9344894,8.40886142 C16.9344894,8.16589181 16.9239255,7.92292219 16.8922338,7.67995258 C16.5224974,4.14104733 13.5646064,1.47894548 9.99400951,1.47894548 C8.59957521,1.47894548 7.26852428,1.89093743 6.11705958,2.66210186 L5.30363957,1.43668989 C6.68750998,0.496503124 8.31435001,0 10.0045734,0 C14.325207,0 17.9274956,3.23255226 18.3711792,7.53205803 C18.4028709,7.81728323 18.4134348,8.11307233 18.4134348,8.40886142 Z" id="形状" fill="#666666"></path>
                        <path d="M2.33518472,3.84525824 L0.0216914423,7.98630557 C-0.0416919352,8.09194453 0.0428192348,8.22927519 0.159022094,8.22927519 L4.77544476,8.22927519 C4.90221151,8.22927519 4.97615879,8.10250843 4.91277541,7.98630557 L2.60984603,3.84525824 C2.54646265,3.72905538 2.3880042,3.72905538 2.33518472,3.84525824 Z M17.3993008,11.7893082 L15.0858075,7.64826089 C15.0224241,7.54262193 15.1069353,7.40529128 15.2231382,7.40529128 L19.8395608,7.40529128 C19.9663276,7.40529128 20.0402749,7.53205803 19.9768915,7.64826089 L17.6739621,11.7893082 C17.6211426,11.8949472 17.4626842,11.8949472 17.3993008,11.7893082 Z M5.01841437,2.01770419 C5.01841437,2.4261037 5.3494876,2.75717692 5.75788711,2.75717692 C6.16628663,2.75717692 6.49735985,2.4261037 6.49735985,2.01770419 C6.49735985,1.60930467 6.16628663,1.27823145 5.75788711,1.27823145 C5.3494876,1.27823145 5.01841437,1.60930467 5.01841437,2.01770419 Z M14.4731015,14.0394181 C14.4731015,14.4478176 14.8041747,14.7788909 15.2125743,14.7788909 C15.6209738,14.7788909 15.952047,14.4478176 15.952047,14.0394181 C15.952047,13.6310186 15.6209738,13.2999454 15.2125743,13.2999454 C14.8041747,13.2999454 14.4731015,13.6310186 14.4731015,14.0394181 Z" id="形状" fill="#707070"></path>
                    </g>
                </g>
            </g>
        </g>
    </g>
</svg>