<?xml version="1.0" encoding="UTF-8"?>
<svg width="16px" height="16px" viewBox="0 0 16 16" version="1.1" xmlns="http://www.w3.org/2000/svg" xmlns:xlink="http://www.w3.org/1999/xlink">
    <title>未知文件</title>
    <g id="未知文件" stroke="none" stroke-width="1" fill="none" fill-rule="evenodd">
        <g>
            <g id="jpg">
                <rect id="矩形" fill="#000000" opacity="0" x="0" y="0" width="16" height="16"></rect>
                <path d="M2.5,0.5 C2.3125,0.5 2.1125,0.575 1.975,0.725 C1.8375,0.875 1.75,1.0625 1.75,1.25 L1.75,14.75 C1.75,14.9375 1.825,15.1375 1.975,15.275 C2.125,15.425 2.3125,15.5 2.5,15.5 L13.5,15.5 C13.6875,15.5 13.8875,15.425 14.025,15.275 C14.175,15.125 14.25,14.9375 14.25,14.75 L14.25,4.75 L10,0.5 L2.5,0.5 Z" id="路径" fill="#EBC81D"></path>
                <path d="M14.25,4.75 L10.75,4.75 C10.5625,4.75 10.3625,4.675 10.225,4.525 C10.075,4.3875 10,4.1875 10,4 L10,0.5 L14.25,4.75 Z" id="路径" fill-opacity="0.5" fill="#FFFFFF"></path>
            </g>
            <path d="M7.8968,5.9936 C8.46,5.9936 8.9176,6.1432 9.2696,6.46 C9.6216,6.768 9.7976,7.1904 9.7976,7.7184 C9.7976,8.1496 9.6832,8.5104 9.4632,8.792 C9.384,8.8888 9.1376,9.1176 8.724,9.4784 C8.5568,9.6192 8.4336,9.7776 8.3544,9.936 C8.2576,10.112 8.2136,10.3056 8.2136,10.5168 L8.2136,10.6664 L7.272,10.6664 L7.272,10.5168 C7.272,10.1912 7.3248,9.9096 7.448,9.6808 C7.5624,9.4344 7.8968,9.0736 8.4424,8.5896 L8.592,8.4224 C8.7504,8.22 8.8384,8.0088 8.8384,7.78 C8.8384,7.472 8.7504,7.2344 8.5832,7.0584 C8.4072,6.8824 8.152,6.7944 7.8352,6.7944 C7.4392,6.7944 7.1488,6.9176 6.9728,7.1728 C6.8144,7.384 6.7352,7.6832 6.7352,8.0704 L5.8112,8.0704 C5.8112,7.428 5.996,6.9264 6.3656,6.5568 C6.7352,6.1784 7.2456,5.9936 7.8968,5.9936 Z M7.7384,11.1416 C7.9232,11.1416 8.0816,11.1944 8.2048,11.3176 C8.328,11.432 8.3896,11.5816 8.3896,11.7664 C8.3896,11.9512 8.3192,12.1008 8.196,12.224 C8.0728,12.3384 7.9144,12.4 7.7384,12.4 C7.5624,12.4 7.404,12.3384 7.2808,12.2152 C7.1576,12.092 7.096,11.9424 7.096,11.7664 C7.096,11.5816 7.1576,11.432 7.2808,11.3176 C7.404,11.1944 7.5624,11.1416 7.7384,11.1416 Z" id="？" fill="#FFFFFF"></path>
        </g>
    </g>
</svg>