<?xml version="1.0" encoding="UTF-8"?>
<svg width="16px" height="16px" viewBox="0 0 16 16" version="1.1" xmlns="http://www.w3.org/2000/svg" xmlns:xlink="http://www.w3.org/1999/xlink">
    <title>txt</title>
    <g id="txt" stroke="none" stroke-width="1" fill="none" fill-rule="evenodd">
        <g>
            <rect id="矩形" fill="#000000" opacity="0" x="0" y="0" width="16" height="16"></rect>
            <path d="M2.5,0.5 C2.3125,0.5 2.1125,0.575 1.975,0.725 C1.8375,0.875 1.75,1.0625 1.75,1.25 L1.75,14.75 C1.75,14.9375 1.825,15.1375 1.975,15.275 C2.125,15.425 2.3125,15.5 2.5,15.5 L13.5,15.5 C13.6875,15.5 13.8875,15.425 14.025,15.275 C14.175,15.125 14.25,14.9375 14.25,14.75 L14.25,4.75 L10,0.5 L2.5,0.5 Z" id="路径" fill="#E5E5E5"></path>
            <path d="M14.25,4.75 L10.75,4.75 C10.5625,4.75 10.3625,4.675 10.225,4.525 C10.075,4.3875 10,4.1875 10,4 L10,0.5 L14.25,4.75 Z" id="路径" fill="#CCCCCC"></path>
            <path d="M4.125,5.875 L7.375,5.875 C7.5875,5.875 7.75,5.7125 7.75,5.5 C7.75,5.2875 7.5875,5.125 7.375,5.125 L4.125,5.125 C3.9125,5.125 3.75,5.2875 3.75,5.5 C3.75,5.7125 3.9125,5.875 4.125,5.875 Z M4.125,8.375 L11.875,8.375 C12.0875,8.375 12.25,8.2125 12.25,8 C12.25,7.7875 12.0875,7.625 11.875,7.625 L4.125,7.625 C3.9125,7.625 3.75,7.7875 3.75,8 C3.75,8.2125 3.9125,8.375 4.125,8.375 Z M11.875,10.125 L4.125,10.125 C3.9125,10.125 3.75,10.2875 3.75,10.5 C3.75,10.7125 3.9125,10.875 4.125,10.875 L11.875,10.875 C12.0875,10.875 12.25,10.7125 12.25,10.5 C12.25,10.2875 12.0875,10.125 11.875,10.125 Z" id="形状" fill="#FFFFFF" fill-rule="nonzero"></path>
        </g>
    </g>
</svg>