<?xml version="1.0" encoding="UTF-8"?>
<svg width="16px" height="16px" viewBox="0 0 16 16" version="1.1" xmlns="http://www.w3.org/2000/svg" xmlns:xlink="http://www.w3.org/1999/xlink">
    <title>png</title>
    <g id="png" stroke="none" stroke-width="1" fill="none" fill-rule="evenodd">
        <g>
            <rect id="矩形" fill="#000000" opacity="0" x="0" y="0" width="16" height="16"></rect>
            <path d="M2.625,0.5 C2.4375,0.5 2.2375,0.575 2.1,0.725 C1.95,0.8625 1.875,1.0625 1.875,1.25 L1.875,14.75 C1.875,14.9375 1.95,15.1375 2.1,15.275 C2.25,15.425 2.4375,15.5 2.625,15.5 L13.625,15.5 C13.8125,15.5 14.0125,15.425 14.15,15.275 C14.3,15.125 14.375,14.9375 14.375,14.75 L14.375,4.75 L10.125,0.5 L2.625,0.5 Z" id="路径" fill="#6CCBFF"></path>
            <path d="M14.375,4.75 L10.875,4.75 C10.6875,4.75 10.4875,4.675 10.35,4.525 C10.2,4.3875 10.125,4.1875 10.125,4 L10.125,0.5 L14.375,4.75 Z" id="路径" fill="#C4EAFF"></path>
            <path d="M5,6.25 L6.25,6.25 L6.25,7.5 L5,7.5 L5,6.25 Z M7.5,6.25 L8.75,6.25 L8.75,7.5 L7.5,7.5 L7.5,6.25 Z M10,6.25 L11.25,6.25 L11.25,7.5 L10,7.5 L10,6.25 Z M6.25,7.5 L7.5,7.5 L7.5,8.75 L6.25,8.75 L6.25,7.5 Z M8.75,7.5 L10,7.5 L10,8.75 L8.75,8.75 L8.75,7.5 Z M6.25,10 L7.5,10 L7.5,11.25 L6.25,11.25 L6.25,10 Z M8.75,10 L10,10 L10,11.25 L8.75,11.25 L8.75,10 Z M5,8.75 L6.25,8.75 L6.25,10 L5,10 L5,8.75 Z M7.5,8.75 L8.75,8.75 L8.75,10 L7.5,10 L7.5,8.75 Z M10,8.75 L11.25,8.75 L11.25,10 L10,10 L10,8.75 Z M5,11.25 L6.25,11.25 L6.25,12.5 L5,12.5 L5,11.25 Z M7.5,11.25 L8.75,11.25 L8.75,12.5 L7.5,12.5 L7.5,11.25 Z M10,11.25 L11.25,11.25 L11.25,12.5 L10,12.5 L10,11.25 Z" id="形状" fill="#FFFFFF" fill-rule="nonzero"></path>
        </g>
    </g>
</svg>