<?xml version="1.0" encoding="UTF-8"?>
<svg width="16px" height="16px" viewBox="0 0 16 16" version="1.1" xmlns="http://www.w3.org/2000/svg" xmlns:xlink="http://www.w3.org/1999/xlink">
    <title>jpg</title>
    <g id="jpg" stroke="none" stroke-width="1" fill="none" fill-rule="evenodd">
        <g>
            <rect id="矩形" fill="#000000" opacity="0" x="0" y="0" width="16" height="16"></rect>
            <path d="M2.5,0.5 C2.3125,0.5 2.1125,0.575 1.975,0.725 C1.8375,0.875 1.75,1.0625 1.75,1.25 L1.75,14.75 C1.75,14.9375 1.825,15.1375 1.975,15.275 C2.125,15.425 2.3125,15.5 2.5,15.5 L13.5,15.5 C13.6875,15.5 13.8875,15.425 14.025,15.275 C14.175,15.125 14.25,14.9375 14.25,14.75 L14.25,4.75 L10,0.5 L2.5,0.5 Z" id="路径" fill="#FF5562"></path>
            <path d="M14.25,4.75 L10.75,4.75 C10.5625,4.75 10.3625,4.675 10.225,4.525 C10.075,4.3875 10,4.1875 10,4 L10,0.5 L14.25,4.75 Z" id="路径" fill="#FFBBC0"></path>
            <path d="M11.85,11.025 L10.2875,8.6 C10.2375,8.525 10.1625,8.4875 10.075,8.4875 C9.9875,8.4875 9.9125,8.5375 9.8625,8.6 L9.025,9.9 L7.15,6.8625 C7.1,6.7875 7.025,6.75 6.9375,6.75 C6.85,6.75 6.775,6.8 6.725,6.8625 L4.15,11.025 C4.1,11.1 4.1,11.2 4.15,11.275 C4.2,11.3625 4.275,11.4 4.3625,11.4 L11.6375,11.4 C11.725,11.4 11.8125,11.35 11.8625,11.275 C11.9,11.1875 11.9,11.0875 11.85,11.025 L11.85,11.025 Z" id="路径" fill="#FFFFFF"></path>
            <path d="M9.725,6.4375 C9.725,6.660791 9.84412432,6.8671204 10.0375,6.9787659 C10.2308757,7.0904114 10.4691243,7.0904114 10.6625,6.9787659 C10.8558757,6.8671204 10.975,6.660791 10.975,6.4375 C10.975,6.214209 10.8558757,6.0078796 10.6625,5.8962341 C10.4691243,5.7845886 10.2308757,5.7845886 10.0375,5.8962341 C9.84412432,6.0078796 9.725,6.214209 9.725,6.4375 Z" id="路径" fill="#FFFFFF"></path>
        </g>
    </g>
</svg>