<?xml version="1.0" encoding="UTF-8"?>
<svg width="244px" height="244px" viewBox="0 0 244 244" version="1.1" xmlns="http://www.w3.org/2000/svg" xmlns:xlink="http://www.w3.org/1999/xlink">
    <title>common-config-unset</title>
    <defs>
        <rect id="path-1" x="0" y="0" width="244" height="244"></rect>
        <linearGradient x1="50%" y1="0%" x2="50%" y2="42.5923102%" id="linearGradient-3">
            <stop stop-color="#C7D0E1" offset="0%"></stop>
            <stop stop-color="#E9ECF2" stop-opacity="0" offset="100%"></stop>
        </linearGradient>
        <linearGradient x1="100%" y1="58.6831199%" x2="9.43801466%" y2="58.6831199%" id="linearGradient-4">
            <stop stop-color="#D0DBEB" offset="0%"></stop>
            <stop stop-color="#B3B4B6" offset="100%"></stop>
        </linearGradient>
        <linearGradient x1="39.7153472%" y1="2.30933083%" x2="60.9707969%" y2="97.3154264%" id="linearGradient-5">
            <stop stop-color="#7E8DA7" offset="0%"></stop>
            <stop stop-color="#4A576E" offset="100%"></stop>
        </linearGradient>
        <linearGradient x1="50%" y1="0%" x2="50%" y2="100%" id="linearGradient-6">
            <stop stop-color="#C9CFDB" offset="0%"></stop>
            <stop stop-color="#8293B3" offset="100%"></stop>
        </linearGradient>
        <linearGradient x1="72.2063342%" y1="36.7416156%" x2="25.3004746%" y2="62.5945472%" id="linearGradient-7">
            <stop stop-color="#9CA9BE" offset="0%"></stop>
            <stop stop-color="#6A7B95" offset="100%"></stop>
        </linearGradient>
        <linearGradient x1="66.3219853%" y1="12.2126624%" x2="33.6780147%" y2="83.4365648%" id="linearGradient-8">
            <stop stop-color="#647289" offset="0%"></stop>
            <stop stop-color="#495976" offset="100%"></stop>
        </linearGradient>
        <linearGradient x1="28.4868062%" y1="44.1377366%" x2="74.4546247%" y2="56.2387949%" id="linearGradient-9">
            <stop stop-color="#435475" offset="0%"></stop>
            <stop stop-color="#3C4C6B" offset="100%"></stop>
        </linearGradient>
        <linearGradient x1="40.0146865%" y1="2.30933083%" x2="60.6514871%" y2="97.3154264%" id="linearGradient-10">
            <stop stop-color="#7E8DA7" offset="0%"></stop>
            <stop stop-color="#4A576E" offset="100%"></stop>
        </linearGradient>
        <linearGradient x1="50%" y1="0%" x2="50%" y2="100%" id="linearGradient-11">
            <stop stop-color="#C9CFDB" offset="0%"></stop>
            <stop stop-color="#8293B3" offset="100%"></stop>
        </linearGradient>
        <linearGradient x1="72.2063342%" y1="36.5087382%" x2="25.3004746%" y2="62.8157646%" id="linearGradient-12">
            <stop stop-color="#9CA9BE" offset="0%"></stop>
            <stop stop-color="#6A7B95" offset="100%"></stop>
        </linearGradient>
        <linearGradient x1="66.0402459%" y1="12.2126624%" x2="33.9597541%" y2="83.4365648%" id="linearGradient-13">
            <stop stop-color="#647289" offset="0%"></stop>
            <stop stop-color="#495976" offset="100%"></stop>
        </linearGradient>
        <linearGradient x1="28.4868062%" y1="44.0347686%" x2="74.4546247%" y2="56.3483764%" id="linearGradient-14">
            <stop stop-color="#435475" offset="0%"></stop>
            <stop stop-color="#3C4C6B" offset="100%"></stop>
        </linearGradient>
        <linearGradient x1="100%" y1="58.6831199%" x2="9.43801466%" y2="58.6831199%" id="linearGradient-15">
            <stop stop-color="#D0DBEB" offset="0%"></stop>
            <stop stop-color="#B3B4B6" offset="100%"></stop>
        </linearGradient>
        <linearGradient x1="50%" y1="0%" x2="50%" y2="100%" id="linearGradient-16">
            <stop stop-color="#D3DAE3" offset="0%"></stop>
            <stop stop-color="#B9C3D0" stop-opacity="0" offset="100%"></stop>
        </linearGradient>
        <linearGradient x1="50%" y1="0%" x2="50%" y2="100%" id="linearGradient-17">
            <stop stop-color="#D3DAE3" offset="0%"></stop>
            <stop stop-color="#B9C3D0" stop-opacity="0" offset="100%"></stop>
        </linearGradient>
    </defs>
    <g id="页面-1" stroke="none" stroke-width="1" fill="none" fill-rule="evenodd">
        <g id="编组-24">
            <mask id="mask-2" fill="white">
                <use xlink:href="#path-1"></use>
            </mask>
            <g id="蒙版"></g>
            <g mask="url(#mask-2)">
                <g transform="translate(-0.355932, 17.000000)">
                    <ellipse id="椭圆形" fill="url(#linearGradient-3)" fill-rule="nonzero" cx="122.351695" cy="210.2" rx="122.351695" ry="52.5"></ellipse>
                    <g id="编组-9" stroke-width="1" fill="none" fill-rule="evenodd" transform="translate(16.055932, 167.300000)">
                        <path d="M11.9632975,40.7 C0.252172628,38.4937897 -2.86075144,31.6836173 2.62452534,20.2694827 C4.36260052,16.6527784 4.36260052,11.2910635 5.62966842,8.1621621 C7.22979755,4.21079823 9.75324141,1.49007753 13.2,0 C20.3962878,3.57185847 23.9944317,10.3283527 23.9944317,20.2694827 C26.7243424,26.8933242 27.130765,31.6675113 25.2136995,34.5920442 C22.7200938,38.3961039 18.3032932,40.4320891 11.9632975,40.7 Z" id="路径-11" fill="url(#linearGradient-4)" fill-rule="nonzero"></path>
                        <line x1="13.2" y1="40.49375" x2="13.2" y2="53.00625" id="直线-7" stroke="#979797" stroke-width="1.848" stroke-linecap="square"></line>
                    </g>
                    <g id="编组-15" stroke-width="1" fill="none" fill-rule="evenodd" transform="translate(47.835932, 50.000000)">
                        <g id="编组-36备份" opacity="0.698335193" transform="translate(34.320000, 85.030673) scale(-1, 1) translate(-34.320000, -85.030673) translate(0.000000, 45.800000)" fill-rule="nonzero">
                            <path d="M40.4471726,3.36110155e-23 L47.7559332,1.12557362 C44.8949771,13.0850383 48.3363327,21.1286453 58.08,25.2563947 C53.3853175,56.5218809 50.855321,72.4671449 50.4900107,73.0921867 L50.4900107,73.0921867 L41.8159462,72.3477333 L36.3730144,69.2211493 C34.7095062,69.6995919 33.5107269,70.2650295 32.7766763,70.9174623 C30.829539,72.6481007 29.1930004,75.634222 28.1056212,78.144 L28.1056212,78.144 L18.0627831,75.6764312 L9.05344056,70.3036353 C13.6477585,58.3373099 10.629945,51.0610241 0,48.4747781 L0,48.4747781 L0,34.1856861 C9.41183372,30.1538406 12.4296472,21.8751788 9.05344056,9.34970064 L9.05344056,9.34970064 L18.0627831,0.729715525 L28.1056212,2.64409059 C29.8895243,4.64817303 30.8621705,5.82772954 31.0235596,6.1827601 C35.3097715,5.63847239 38.4509759,3.57755235 40.4471726,3.36110155e-23 L40.4471726,3.36110155e-23 Z M35.8615135,25.0253801 C31.986771,25.0253801 26.2450947,31.1070653 26.2450947,39.4383893 C26.2450947,47.7697132 31.9691128,52.6291774 33.035227,52.6925597 C37.1037344,52.9344392 42.2837636,45.0042768 42.2837636,39.4383893 C42.2837636,31.1070653 39.7362559,25.0253801 35.8615135,25.0253801 Z" id="形状结合" fill="url(#linearGradient-5)"></path>
                            <path d="M48.2730951,1.056 L57.457089,5.54585196 C54.596133,17.51612 58.3237699,24.7090773 68.64,27.1247237 L68.64,27.1247237 L68.64,41.5917066 C58.3241568,44.0046825 55.1730821,51.5213409 59.186776,64.1416819 L59.186776,64.1416819 L51.0071726,73.0876233 C40.4526585,65.6201781 32.9911953,67.305637 28.6227831,78.144 L28.6227831,78.144 L19.6134406,72.2126572 C24.2077585,60.2355221 21.189945,53.3756128 10.56,51.6329292 L10.56,51.6329292 L10.56,36.0620813 C19.9718337,32.0265937 22.9896472,23.7404534 19.6134406,11.2036606 L19.6134406,11.2036606 L28.6227831,2.57588871 C31.6547157,6.94938373 35.313788,8.86374155 39.6,8.31896216 C43.886212,7.77418278 46.7772437,5.35319539 48.2730951,1.056 L48.2730951,1.056 Z M39.1557735,24.3046015 C32.3110231,24.3046015 26.7622566,31.0645751 26.7622566,39.403425 C26.7622566,47.742275 32.3110231,54.5022486 39.1557735,54.5022486 C46.0005239,54.5022486 51.5492904,47.742275 51.5492904,39.403425 C51.5492904,31.0645751 46.0005239,24.3046015 39.1557735,24.3046015 Z" id="形状结合备份-2" fill="url(#linearGradient-6)"></path>
                            <g id="编组-7" transform="translate(0.421344, 1.056000)">
                                <polygon id="路径-2" fill="url(#linearGradient-7)" points="17.9515326 0 27.9325159 1.91415402 18.9786628 10.5331438 8.99767951 8.61898977"></polygon>
                                <polygon id="路径-33" fill="url(#linearGradient-8)" points="4.99600361e-16 33.4521075 9.98098325 35.3662615 9.98098325 50.9212599 4.99600361e-16 47.7395494"></polygon>
                                <polygon id="路径-34" fill="url(#linearGradient-9)" points="8.99767951 69.5658861 18.9786628 71.4800401 27.9325159 77.4053455 17.9515326 74.9380616"></polygon>
                            </g>
                        </g>
                        <g id="编组-36" transform="translate(42.980480, 0.000000)" fill-rule="nonzero">
                            <path d="M63.2747153,3.36110155e-23 L74.7083882,1.78702201 C70.232768,20.7745198 75.6163531,33.5449886 90.8591435,40.0984284 C83.5148799,89.737218 79.5570061,115.052788 78.9855222,116.045139 L78.9855222,116.045139 L65.4159961,114.863204 L56.9011869,109.899269 C54.2988294,110.65887 52.4234839,111.55659 51.2751504,112.592428 C48.2290893,115.340083 45.6689224,120.081012 43.9678489,124.065673 L43.9678489,124.065673 L28.2570421,120.148026 L14.163014,111.617882 C21.3502694,92.619492 16.6292647,81.0672643 4.19999997e-08,76.9611991 L4.19999997e-08,76.9611991 L4.19999997e-08,54.2750581 C14.7236768,47.8738805 19.4446815,34.7302258 14.163014,14.8440942 L14.163014,14.8440942 L28.2570421,1.15853613 L43.9678489,4.19790231 C46.7585499,7.37969279 48.2801373,9.25242097 48.5326111,9.81608684 C55.2378719,8.95194601 60.1519067,5.67991706 63.2747153,3.36110155e-23 L63.2747153,3.36110155e-23 Z M56.1010055,39.7316572 C50.0394391,39.7316572 41.05728,49.3872719 41.05728,62.6145358 C41.05728,75.8417998 50.011815,83.5569499 51.6796217,83.657579 C58.0443101,84.0416002 66.14784,71.4512422 66.14784,62.6145358 C66.14784,49.3872719 62.1625719,39.7316572 56.1010055,39.7316572 Z" id="形状结合" fill="url(#linearGradient-10)"></path>
                            <path d="M74.7083882,1.78702201 L89.0756372,8.90892217 C84.600017,27.8964199 90.4314548,39.3060441 106.56995,43.1377946 L106.56995,43.1377946 L106.56995,66.0856353 C90.4320599,69.9131498 85.5025843,81.8362358 91.7815235,101.854893 L91.7815235,101.854893 L78.9855222,116.045139 C62.4742599,104.200116 50.8017022,106.873627 43.9678489,124.065673 L43.9678489,124.065673 L29.8738209,114.657249 C37.0610763,95.6588582 32.3400716,84.7775218 15.7108069,82.0132394 L15.7108069,82.0132394 L15.7108069,57.3144243 C30.4344837,50.9132466 35.1554884,37.769592 29.8738209,17.8834604 L29.8738209,17.8834604 L43.9678489,4.19790231 C48.7109413,11.1352346 54.4351178,14.1718303 61.1403787,13.3076895 C67.8456395,12.4435486 72.3683093,8.60332614 74.7083882,1.78702201 L74.7083882,1.78702201 Z M60.44544,38.6644558 C49.7376549,38.6644558 41.05728,49.3872719 41.05728,62.6145358 C41.05728,75.8417998 49.7376549,86.5646158 60.44544,86.5646158 C71.1532251,86.5646158 79.8336,75.8417998 79.8336,62.6145358 C79.8336,49.3872719 71.1532251,38.6644558 60.44544,38.6644558 Z" id="形状结合备份-2" fill="url(#linearGradient-11)"></path>
                            <g id="编组-7" transform="translate(0.000000, 1.158536)">
                                <polygon id="路径-2" fill="url(#linearGradient-12)" points="28.257042 0 43.9678489 3.03936617 29.8738209 16.7249243 14.163014 13.6855581"></polygon>
                                <polygon id="路径-33" fill="url(#linearGradient-13)" points="-1.77635684e-15 53.116522 15.7108069 56.1558882 15.7108069 80.8547033 -1.77635684e-15 75.802663"></polygon>
                                <polygon id="路径-34" fill="url(#linearGradient-14)" points="14.163014 110.459346 29.8738209 113.498712 43.9678489 122.907136 28.257042 118.98949"></polygon>
                            </g>
                        </g>
                    </g>
                    <g id="编组-9备份" opacity="0.701660156" stroke-width="1" fill="none" fill-rule="evenodd" transform="translate(198.655932, 152.300000)">
                        <path d="M7.17797852,24.42 C0.151303573,23.0962738 -1.71645086,19.0101704 1.57471521,12.1616896 C2.61756031,9.99166704 2.61756031,6.77463812 3.37780105,4.89729726 C4.33787853,2.52647894 5.85194485,0.894046517 7.92,0 C12.2377727,2.14311508 14.396659,6.19701162 14.396659,12.1616896 C16.0346055,16.1359945 16.278459,19.0005068 15.1282197,20.7552265 C13.6320563,23.0376623 10.9819759,24.2592535 7.17797852,24.42 Z" id="路径-11" fill="url(#linearGradient-15)" fill-rule="nonzero"></path>
                        <line x1="7.92" y1="24.29625" x2="7.92" y2="31.80375" id="直线-7" stroke="#979797" stroke-width="1.1088" stroke-linecap="square"></line>
                    </g>
                    <path d="M181.815451,27 L244.356131,27 C244.395045,15.8146141 238.663382,11.642381 227.160943,14.4833008 C223.365071,4.10546624 217.867981,-0.69528416 210.669673,0.0810496311 C203.471366,0.857383423 200.067949,4.38442953 200.459421,10.662188 C193.814339,8.66490777 188.746073,9.24731494 185.254626,12.4094095 C181.763178,15.571504 180.616786,20.4350342 181.815451,27 Z" id="路径-15" fill="url(#linearGradient-16)" fill-rule="nonzero" opacity="0.5"></path>
                    <path d="M6.648369,74.0604921 L46.4491337,74.0604921 C46.4738983,66.9927814 42.8262795,64.3564722 35.5061506,66.1515644 C33.0904646,59.5941213 29.5921274,56.5606707 25.0111391,57.0512128 C20.4301508,57.5417549 18.2642227,59.7703898 18.5133547,63.7371175 C14.2844374,62.4750959 11.0590036,62.8431016 8.8370532,64.8411345 C6.6151028,66.8391674 5.8855414,69.9122866 6.648369,74.0604921 Z" id="路径-15备份" fill="url(#linearGradient-17)" fill-rule="nonzero" opacity="0.404292225"></path>
                </g>
            </g>
        </g>
    </g>
</svg>