<?xml version="1.0" encoding="UTF-8"?>
<svg width="20px" height="20px" viewBox="0 0 20 20" version="1.1" xmlns="http://www.w3.org/2000/svg" xmlns:xlink="http://www.w3.org/1999/xlink">
    <!-- Generator: Sketch 59.1 (86144) - https://sketch.com -->
    <title>升序</title>
    <desc>Created with Sketch.</desc>
    <g id="升序" stroke="none" stroke-width="1" fill="none" fill-rule="evenodd">
        <g fill-rule="nonzero">
            <rect id="矩形" fill="#000000" opacity="0" x="0" y="0" width="20" height="20"></rect>
            <path d="M10.4589844,15.2675781 C10.4589844,15.6816406 10.1210937,16.0175697 9.70898437,16.0175697 L2.56640625,16.0175697 C2.15234375,16.0175697 1.81640625,15.6796875 1.81640625,15.2675781 C1.81640625,14.8554687 2.15429687,14.5175697 2.56640625,14.5175697 L9.70703125,14.5175697 C10.1210937,14.515625 10.4589844,14.8535156 10.4589844,15.2675781 Z M8.078125,9.84960938 C8.078125,10.2636719 7.74023437,10.5996094 7.328125,10.5996094 L2.56640625,10.5996094 C2.15234375,10.5996094 1.81640625,10.2617188 1.81640625,9.84960938 C1.81640625,9.43359375 2.15429687,9.09960938 2.56640625,9.09960938 L7.32617187,9.09960938 C7.74023437,9.09960938 8.078125,9.43359375 8.078125,9.84960938 L8.078125,9.84960938 Z M10.6933594,4.59570312 C10.6933594,5.01171875 10.3554687,5.34570312 9.94335937,5.34570312 L2.56640625,5.34570312 C2.15234375,5.34570312 1.81640625,5.01171875 1.81640625,4.59570312 C1.81640625,4.1796875 2.15429687,3.84570312 2.56640625,3.84570312 L9.94140625,3.84570312 C10.3554687,3.84570312 10.6933594,4.1796875 10.6933594,4.59570312 L10.6933594,4.59570312 Z M17.9804687,8.89648438 C18.2773437,8.59960938 18.2773437,8.12304688 17.984375,7.82617188 L14.2246094,4.08398438 C14.2246094,4.08007813 14.2207031,4.08007813 14.2207031,4.08007813 L14.2167969,4.07617188 C14.0742187,3.9375 13.8847656,3.859375 13.6855469,3.859375 C13.484375,3.859375 13.2910156,3.94140625 13.1484375,4.0859375 L9.4140625,7.86132812 C9.12304687,8.15820312 9.12304687,8.63476562 9.41992187,8.92773438 C9.71289062,9.22070312 10.1875,9.21875 10.4804687,8.921875 L12.9492187,6.41796875 L12.9492187,15.4375 C12.9492187,15.8535156 13.2832031,16.1914062 13.6992187,16.1914062 C14.1152344,16.1914062 14.4492187,15.8535156 14.4492187,15.4375 L14.4492187,6.4609375 L16.9003906,8.90039062 C17.1972656,9.19335938 17.6875,9.19335938 17.9804687,8.89648438 L17.9804687,8.89648438 Z" id="形状" fill="#1890FF"></path>
        </g>
    </g>
</svg>