<svg fill="none" height="200" viewBox="0 0 200 200" width="200" xmlns="http://www.w3.org/2000/svg" xmlns:xlink="http://www.w3.org/1999/xlink"><filter id="a" color-interpolation-filters="sRGB" filterUnits="userSpaceOnUse" height="64.412" width="130.787" x="31.7593" y="115.2"><feFlood flood-opacity="0" result="BackgroundImageFix"/><feBlend in="SourceGraphic" in2="BackgroundImageFix" mode="normal" result="shape"/><feGaussianBlur result="effect1_foregroundBlur_214_107138" stdDeviation="14"/></filter><linearGradient id="b" gradientUnits="userSpaceOnUse" x1="21.1914" x2="21.1914" y1="76.9734" y2="60.1471"><stop offset="0" stop-color="#fff" stop-opacity=".1"/><stop offset="1" stop-color="#d9e9ff"/></linearGradient><linearGradient id="c" gradientUnits="userSpaceOnUse" x1="140.259" x2="140.259" y1="48.6328" y2="34.1798"><stop offset="0" stop-color="#fff" stop-opacity=".1"/><stop offset=".14" stop-color="#f8fbff" stop-opacity=".27"/><stop offset=".37" stop-color="#edf5ff" stop-opacity=".52"/><stop offset=".58" stop-color="#e4f0ff" stop-opacity=".73"/><stop offset=".76" stop-color="#deecff" stop-opacity=".88"/><stop offset=".91" stop-color="#daeaff" stop-opacity=".97"/><stop offset="1" stop-color="#d9e9ff"/></linearGradient><linearGradient id="d" gradientUnits="userSpaceOnUse" x1="166.799" x2="166.799" y1="55.2515" y2="23.4114"><stop offset="0" stop-color="#fff" stop-opacity=".1"/><stop offset=".09" stop-color="#fefeff" stop-opacity=".13"/><stop offset=".23" stop-color="#fbfcff" stop-opacity=".21"/><stop offset=".4" stop-color="#f5f9ff" stop-opacity=".33"/><stop offset=".59" stop-color="#eef5ff" stop-opacity=".51"/><stop offset=".79" stop-color="#e4efff" stop-opacity=".74"/><stop offset="1" stop-color="#d9e9ff"/></linearGradient><linearGradient id="e" gradientUnits="userSpaceOnUse" x1="100" x2="100" y1="176.562" y2="113.281"><stop offset="0" stop-color="#fff" stop-opacity=".1"/><stop offset=".13" stop-color="#fbfdff" stop-opacity=".19"/><stop offset=".41" stop-color="#f1f7ff" stop-opacity=".43"/><stop offset=".81" stop-color="#e1eeff" stop-opacity=".82"/><stop offset="1" stop-color="#d9e9ff"/></linearGradient><linearGradient id="f" gradientUnits="userSpaceOnUse" x1="115.693" x2="115.693" y1="79.2369" y2="138.333"><stop offset="0" stop-color="#67afff"/><stop offset="1" stop-color="#2563eb"/></linearGradient><linearGradient id="g"><stop offset="0" stop-color="#a0cdff"/><stop offset="1" stop-color="#568bff"/></linearGradient><linearGradient id="h" gradientUnits="userSpaceOnUse" x1="114.143" x2="114.143" xlink:href="#g" y1="78.6557" y2="137.752"/><linearGradient id="i" gradientUnits="userSpaceOnUse" x1="1221.93" x2="2602.51" y1="2343.22" y2="1984.96"><stop offset="0" stop-color="#ececec"/><stop offset="1" stop-color="#0478ed"/></linearGradient><linearGradient id="j" gradientUnits="userSpaceOnUse" x1="82.4639" x2="82.4639" xlink:href="#g" y1="75.5555" y2="130.389"/><linearGradient id="k" gradientUnits="userSpaceOnUse" x1="1924.53" x2="1924.53" y1="95.9002" y2="3302.87"><stop offset="0" stop-color="#b6d2fb"/><stop offset="1" stop-color="#c8e0ff"/></linearGradient><linearGradient id="l" gradientUnits="userSpaceOnUse" x1="1269.04" x2="1269.04" y1="109.076" y2="2976.7"><stop offset="0" stop-color="#bdd7fc"/><stop offset="1" stop-color="#c7dffe"/></linearGradient><clipPath id="m"><path d="m0 0h200v200h-200z"/></clipPath><g clip-path="url(#m)"><path clip-rule="evenodd" d="m0 0h200v200h-200z" fill="#fff" fill-rule="evenodd"/><path d="m39.3301 116.016.9043 9.375-5.6641-.623z" fill="#e4efff"/><path d="m39.0625 116.016 5.8594 7.4-4.9707 1.975z" fill="#f3f8ff"/><path d="m19.5977 118.359 1.1054 11.914-6.8359-.794z" fill="#e4efff"/><path d="m19.7266 118.359 7.2265 9.416-6.1191 2.498z" fill="#f3f8ff"/><path d="m29 110.156 1.8594 19.727-12.5-1.229z" fill="#e4efff"/><path d="m28.7109 110.156 13.086 15.502-11.2246 4.225z" fill="#f3f8ff"/><path d="m32.6621 66.8028c-.7305-3.9102-4.1445-6.7168-8.082-6.6446-2.1074-.0097-4.1406.7793-5.6973 2.2149-.8711-.3985-1.8164-.6035-2.7734-.6035-3.0313-.0489-5.6856 2.0449-6.37112 5.0273-2.33008.5195-4.00976 2.5742-4.07422 4.9824.08985 2.9317 2.50391 5.2403 5.40624 5.1719h20.2422c2.9043.0723 5.3203-2.2383 5.4063-5.1719-.0625-2.4023-1.7344-4.4531-4.0567-4.9765z" fill="url(#b)"/><path d="m150.139 39.668c-1.051-1.6504-2.83-2.6738-4.766-2.7442-1.127-1.7441-3.059-2.7793-5.115-2.7441-1.647-.0156-3.233.6406-4.399 1.8242-.533-.1719-1.089-.2617-1.648-.2617-2.59 0-4.729 1.8164-4.949 4.1152-1.975.4766-3.397 2.2246-3.481 4.2813 0 2.4765 2.239 4.4941 4.949 4.4941h19.008c2.75 0 4.95-2.0176 4.95-4.4941.042-2.3535-1.991-4.2871-4.549-4.4707z" fill="url(#c)"/><path d="m185.473 33.543c-1.856-3.8223-5.729-6.2559-9.983-6.2696-2.369.0059-4.674.7735-6.572 2.1895-2.258-4.4024-7.164-6.7735-12.02-5.8145-4.857.961-8.488 5.0215-8.898 9.9492-5.225 1.6485-8.467 6.8536-7.637 12.2637.832 5.4102 5.487 9.4063 10.965 9.4121h30.908c5.51.0098 10.196-4.0195 11.002-9.4629.809-5.4453-2.506-10.6582-7.781-12.2461z" fill="url(#d)"/><path d="m200 144.922c0 8.392-10.535 16.439-29.289 22.373s-44.19 9.267-70.711 9.267c-26.5215 0-51.957-3.333-70.7109-9.267s-29.2891-13.981-29.2891-22.373c0-8.393 10.5352-16.44 29.2891-22.373 18.7539-5.934 44.1894-9.268 70.7109-9.268 26.521 0 51.957 3.334 70.711 9.268 18.754 5.933 29.289 13.98 29.289 22.373z" fill="url(#e)"/><path d="m114.647 79.2369 17.807 5.2849-11.292 53.8112-22.2287-8.335 8.3707-10.764-4.065-22.2394z" fill="url(#f)"/><path d="m113.097 78.6557 17.807 5.2849-11.292 53.8114-22.2287-8.335 8.3707-10.764-4.065-22.2396z" fill="url(#h)"/><path d="m116.662 101.713c3.05 0 5.522-2.8194 5.522-6.2972s-2.472-6.2971-5.522-6.2971-5.522 2.8193-5.522 6.2971 2.472 6.2972 5.522 6.2972z" fill="#fff"/><path d="m65.9944 76.1368h36.0386l-7.5224 18.9683 7.5224 21.4499-5.5568 14.416h-30.4818z" fill="url(#i)"/><path d="m64.4443 75.5555h36.0387l-7.5224 18.9683 7.5224 21.4492-5.5568 14.416h-30.4819z" fill="url(#j)"/><path d="m64.4443 122.545 21.5713-26.6448 15.6304 20.6048-5.6118 14.466h-31.5899z" fill="url(#k)"/><path d="m120.247 132.639-12.512-23.563-4.041 2.052 1.477 8.089-8.369 10.446 22.223 8.089z" fill="url(#l)"/><g filter="url(#a)"><path clip-rule="evenodd" d="m134.546 147.406-.062.239-.2.258-.393.293-.681.328-.901.317-1.232.336-1.637.352-2.571.431-3.275.419-3.498.348-4.071.311-4.244.239-4.689.185-4.813.112-5.1271.038-5.127-.038-4.8136-.112-4.6864-.185-4.2459-.239-4.0693-.311-3.4977-.348-3.2756-.419-2.5711-.431-1.6387-.352-1.2305-.336-.9-.317-.6817-.328-.395-.293-.1975-.258-.0626-.239.0626-.24.1975-.26.395-.29.6817-.329.9-.317 1.2305-.336 1.6387-.351 2.5711-.431 3.2756-.422 3.4977-.347 4.0693-.31 4.2459-.239 4.6864-.184 4.8136-.112 5.127-.038 5.1271.038 4.813.112 4.689.184 4.244.239 4.071.31 3.498.347 3.275.422 2.571.431 1.637.351 1.232.336.901.317.681.329.393.29.2.26z" fill="#c2d5ff" fill-rule="evenodd"/></g><path d="m176.953 118.359-.951 12.5-7.057-2.046z" fill="#e4efff"/><path d="m176.729 118.359 5.888 11.014-6.836 1.486z" fill="#f3f8ff"/></g></svg>