<?xml version="1.0" encoding="UTF-8"?>
<svg width="16px" height="14px" viewBox="0 0 16 14" version="1.1" xmlns="http://www.w3.org/2000/svg" xmlns:xlink="http://www.w3.org/1999/xlink">
    <!-- Generator: Sketch 59.1 (86144) - https://sketch.com -->
    <title>1.Icon/Outline/Chart/Bar Chart备份 2</title>
    <desc>Created with Sketch.</desc>
    <g id="峰值分析" stroke="none" stroke-width="1" fill="none" fill-rule="evenodd">
        <g id="1.Icon/Outline/Chart/Point-Map" transform="translate(-2.000000, -3.000000)">
            <g>
                <rect id="矩形" x="0" y="0" width="20" height="20"></rect>
                <path d="M17.34375,15.46875 L3.90625,15.46875 L3.90625,3.28125 C3.90625,3.1953125 3.8359375,3.125 3.75,3.125 L2.65625,3.125 C2.5703125,3.125 2.5,3.1953125 2.5,3.28125 L2.5,16.71875 C2.5,16.8046875 2.5703125,16.875 2.65625,16.875 L17.34375,16.875 C17.4296875,16.875 17.5,16.8046875 17.5,16.71875 L17.5,15.625 C17.5,15.5390625 17.4296875,15.46875 17.34375,15.46875 Z M5.625,11.796875 C5.625,12.4872309 6.18464406,13.046875 6.875,13.046875 C7.56535594,13.046875 8.125,12.4872309 8.125,11.796875 C8.125,11.1065191 7.56535594,10.546875 6.875,10.546875 C6.18464406,10.546875 5.625,11.1065191 5.625,11.796875 Z M7.9296875,7.421875 C7.9296875,7.93964195 8.34942055,8.359375 8.8671875,8.359375 C9.38495445,8.359375 9.8046875,7.93964195 9.8046875,7.421875 C9.8046875,6.90410805 9.38495445,6.484375 8.8671875,6.484375 C8.34942055,6.484375 7.9296875,6.90410805 7.9296875,7.421875 L7.9296875,7.421875 Z M11.015625,11.875 C11.015625,12.9105339 11.8550911,13.75 12.890625,13.75 C13.9261589,13.75 14.765625,12.9105339 14.765625,11.875 C14.765625,10.8394661 13.9261589,10 12.890625,10 C11.8550911,10 11.015625,10.8394661 11.015625,11.875 Z M13.90625,5.7421875 C13.90625,6.34624895 14.3959386,6.8359375 15,6.8359375 C15.6040614,6.8359375 16.09375,6.34624895 16.09375,5.7421875 C16.09375,5.13812605 15.6040614,4.6484375 15,4.6484375 C14.3959386,4.6484375 13.90625,5.13812605 13.90625,5.7421875 Z" id="Point-Map" fill="#FFFFFF"></path>
            </g>
        </g>
    </g>
</svg>