<?xml version="1.0" encoding="UTF-8"?>
<svg width="16px" height="14px" viewBox="0 0 16 14" version="1.1" xmlns="http://www.w3.org/2000/svg" xmlns:xlink="http://www.w3.org/1999/xlink">
    <!-- Generator: Sketch 59.1 (86144) - https://sketch.com -->
    <title>1.Icon/Outline/Chart/Bar Chart备份</title>
    <desc>Created with Sketch.</desc>
    <g id="能耗分析" stroke="none" stroke-width="1" fill="none" fill-rule="evenodd">
        <g id="1.Icon/Outline/Chart/Bar-Chart" transform="translate(-2.000000, -3.000000)">
            <g>
                <rect id="矩形" x="0" y="0" width="20" height="20"></rect>
                <path d="M17.34375,15.46875 L3.90625,15.46875 L3.90625,3.28125 C3.90625,3.1953125 3.8359375,3.125 3.75,3.125 L2.65625,3.125 C2.5703125,3.125 2.5,3.1953125 2.5,3.28125 L2.5,16.71875 C2.5,16.8046875 2.5703125,16.875 2.65625,16.875 L17.34375,16.875 C17.4296875,16.875 17.5,16.8046875 17.5,16.71875 L17.5,15.625 C17.5,15.5390625 17.4296875,15.46875 17.34375,15.46875 Z M5.625,13.90625 L6.71875,13.90625 C6.8046875,13.90625 6.875,13.8359375 6.875,13.75 L6.875,10.9375 C6.875,10.8515625 6.8046875,10.78125 6.71875,10.78125 L5.625,10.78125 C5.5390625,10.78125 5.46875,10.8515625 5.46875,10.9375 L5.46875,13.75 C5.46875,13.8359375 5.5390625,13.90625 5.625,13.90625 Z M8.59375,13.90625 L9.6875,13.90625 C9.7734375,13.90625 9.84375,13.8359375 9.84375,13.75 L9.84375,7.5 C9.84375,7.4140625 9.7734375,7.34375 9.6875,7.34375 L8.59375,7.34375 C8.5078125,7.34375 8.4375,7.4140625 8.4375,7.5 L8.4375,13.75 C8.4375,13.8359375 8.5078125,13.90625 8.59375,13.90625 Z M11.5625,13.90625 L12.65625,13.90625 C12.7421875,13.90625 12.8125,13.8359375 12.8125,13.75 L12.8125,9.0234375 C12.8125,8.9375 12.7421875,8.8671875 12.65625,8.8671875 L11.5625,8.8671875 C11.4765625,8.8671875 11.40625,8.9375 11.40625,9.0234375 L11.40625,13.75 C11.40625,13.8359375 11.4765625,13.90625 11.5625,13.90625 Z M14.53125,13.90625 L15.625,13.90625 C15.7109375,13.90625 15.78125,13.8359375 15.78125,13.75 L15.78125,5.9375 C15.78125,5.8515625 15.7109375,5.78125 15.625,5.78125 L14.53125,5.78125 C14.4453125,5.78125 14.375,5.8515625 14.375,5.9375 L14.375,13.75 C14.375,13.8359375 14.4453125,13.90625 14.53125,13.90625 Z" id="Bar-Chart" fill="#1890FF"></path>
            </g>
        </g>
    </g>
</svg>