<?xml version="1.0" encoding="UTF-8"?>
<svg width="300px" height="200px" viewBox="0 0 300 200" version="1.1" xmlns="http://www.w3.org/2000/svg" xmlns:xlink="http://www.w3.org/1999/xlink">
    <!-- Generator: Sketch 59.1 (86144) - https://sketch.com -->
    <title>4.DataDliplay/12.Empty/☀︎Not Configured</title>
    <desc>Created with Sketch.</desc>
    <defs>
        <linearGradient x1="50%" y1="0%" x2="50%" y2="42.5923102%" id="linearGradient-1">
            <stop stop-color="#C7D0E1" offset="0%"></stop>
            <stop stop-color="#E9ECF2" stop-opacity="0" offset="100%"></stop>
        </linearGradient>
        <linearGradient x1="100%" y1="58.6831199%" x2="9.43801466%" y2="58.6831199%" id="linearGradient-2">
            <stop stop-color="#D0DBEB" offset="0%"></stop>
            <stop stop-color="#B3B4B6" offset="100%"></stop>
        </linearGradient>
        <linearGradient x1="39.7153472%" y1="2.30933083%" x2="60.9707969%" y2="97.3154264%" id="linearGradient-3">
            <stop stop-color="#7E8DA7" offset="0%"></stop>
            <stop stop-color="#4A576E" offset="100%"></stop>
        </linearGradient>
        <linearGradient x1="50%" y1="0%" x2="50%" y2="100%" id="linearGradient-4">
            <stop stop-color="#C9CFDB" offset="0%"></stop>
            <stop stop-color="#8293B3" offset="100%"></stop>
        </linearGradient>
        <linearGradient x1="72.2063342%" y1="36.7416156%" x2="25.3004746%" y2="62.5945472%" id="linearGradient-5">
            <stop stop-color="#9CA9BE" offset="0%"></stop>
            <stop stop-color="#6A7B95" offset="100%"></stop>
        </linearGradient>
        <linearGradient x1="66.3219853%" y1="12.2126624%" x2="33.6780147%" y2="83.4365648%" id="linearGradient-6">
            <stop stop-color="#647289" offset="0%"></stop>
            <stop stop-color="#495976" offset="100%"></stop>
        </linearGradient>
        <linearGradient x1="28.4868062%" y1="44.1377366%" x2="74.4546247%" y2="56.2387949%" id="linearGradient-7">
            <stop stop-color="#435475" offset="0%"></stop>
            <stop stop-color="#3C4C6B" offset="100%"></stop>
        </linearGradient>
        <linearGradient x1="40.0146865%" y1="2.30933083%" x2="60.6514871%" y2="97.3154264%" id="linearGradient-8">
            <stop stop-color="#7E8DA7" offset="0%"></stop>
            <stop stop-color="#4A576E" offset="100%"></stop>
        </linearGradient>
        <linearGradient x1="50%" y1="0%" x2="50%" y2="100%" id="linearGradient-9">
            <stop stop-color="#C9CFDB" offset="0%"></stop>
            <stop stop-color="#8293B3" offset="100%"></stop>
        </linearGradient>
        <linearGradient x1="72.2063342%" y1="36.5087382%" x2="25.3004746%" y2="62.8157646%" id="linearGradient-10">
            <stop stop-color="#9CA9BE" offset="0%"></stop>
            <stop stop-color="#6A7B95" offset="100%"></stop>
        </linearGradient>
        <linearGradient x1="66.0402459%" y1="12.2126624%" x2="33.9597541%" y2="83.4365648%" id="linearGradient-11">
            <stop stop-color="#647289" offset="0%"></stop>
            <stop stop-color="#495976" offset="100%"></stop>
        </linearGradient>
        <linearGradient x1="28.4868062%" y1="44.0347686%" x2="74.4546247%" y2="56.3483764%" id="linearGradient-12">
            <stop stop-color="#435475" offset="0%"></stop>
            <stop stop-color="#3C4C6B" offset="100%"></stop>
        </linearGradient>
        <linearGradient x1="100%" y1="58.6831199%" x2="9.43801466%" y2="58.6831199%" id="linearGradient-13">
            <stop stop-color="#D0DBEB" offset="0%"></stop>
            <stop stop-color="#B3B4B6" offset="100%"></stop>
        </linearGradient>
        <linearGradient x1="50%" y1="0%" x2="50%" y2="100%" id="linearGradient-14">
            <stop stop-color="#D3DAE3" offset="0%"></stop>
            <stop stop-color="#B9C3D0" stop-opacity="0" offset="100%"></stop>
        </linearGradient>
        <linearGradient x1="50%" y1="0%" x2="50%" y2="100%" id="linearGradient-15">
            <stop stop-color="#D3DAE3" offset="0%"></stop>
            <stop stop-color="#B9C3D0" stop-opacity="0" offset="100%"></stop>
        </linearGradient>
    </defs>
    <g id="4.DataDliplay/12.Empty/☀︎Not-Configured" stroke="none" stroke-width="1" fill="none" fill-rule="evenodd">
        <g>
            <g id="编组-24" transform="translate(0.000000, 0.000000)">
                <ellipse id="椭圆形" fill="url(#linearGradient-1)" cx="151.25" cy="182.6" rx="151.25" ry="64.9"></ellipse>
                <g id="编组-9" transform="translate(40.700000, 102.300000)">
                    <path d="M11.9632975,40.7 C0.252172625,38.4937897 -2.86075144,31.6836173 2.62452534,20.2694827 C4.36260052,16.6527784 4.36260052,11.2910635 5.62966842,8.1621621 C7.22979755,4.21079823 9.75324141,1.49007753 13.2,0 C20.3962878,3.57185847 23.9944317,10.3283527 23.9944317,20.2694827 C26.7243424,26.8933242 27.130765,31.6675113 25.2136995,34.5920442 C22.7200938,38.3961039 18.3032932,40.4320891 11.9632975,40.7 Z" id="路径-11" fill="url(#linearGradient-2)"></path>
                    <line x1="13.2" y1="40.49375" x2="13.2" y2="53.00625" id="直线-7" stroke="#979797" stroke-width="1.848" stroke-linecap="square"></line>
                </g>
                <g id="编组-15" transform="translate(74.000000, 31.000000)">
                    <g id="编组-36备份" opacity="0.698335193" transform="translate(34.620000, 68.800000) scale(-1, 1) translate(-34.620000, -68.800000) translate(0.120000, 28.800000)">
                        <path d="M40.4471726,-7.81597009e-14 L47.7559332,1.12557362 C44.8949771,13.0850383 48.3363327,21.1286453 58.08,25.2563947 C53.3853175,56.5218809 50.855321,72.4671449 50.4900107,73.0921867 L50.4900107,73.0921867 L41.8159462,72.3477333 L36.3730144,69.2211493 C34.7095062,69.6995919 33.5107269,70.2650295 32.7766763,70.9174623 C30.829539,72.6481007 29.1930004,75.634222 28.1056212,78.144 L28.1056212,78.144 L18.0627831,75.6764312 L9.05344056,70.3036353 C13.6477585,58.3373099 10.629945,51.0610241 0,48.4747781 L0,48.4747781 L0,34.1856861 C9.41183372,30.1538406 12.4296472,21.8751788 9.05344056,9.34970064 L9.05344056,9.34970064 L18.0627831,0.729715525 L28.1056212,2.64409059 C29.8895243,4.64817303 30.8621705,5.82772954 31.0235596,6.1827601 C35.3097715,5.63847239 38.4509759,3.57755235 40.4471726,-7.81597009e-14 L40.4471726,-7.81597009e-14 Z M35.8615135,25.0253801 C31.986771,25.0253801 26.2450947,31.1070653 26.2450947,39.4383893 C26.2450947,47.7697132 31.9691128,52.6291774 33.035227,52.6925597 C37.1037344,52.9344392 42.2837636,45.0042768 42.2837636,39.4383893 C42.2837636,31.1070653 39.7362559,25.0253801 35.8615135,25.0253801 Z" id="形状结合" fill="url(#linearGradient-3)"></path>
                        <path d="M48.2730951,1.056 L57.457089,5.54585196 C54.596133,17.51612 58.3237699,24.7090773 68.64,27.1247237 L68.64,27.1247237 L68.64,41.5917066 C58.3241568,44.0046825 55.1730821,51.5213409 59.186776,64.1416819 L59.186776,64.1416819 L51.0071726,73.0876233 C40.4526585,65.6201781 32.9911953,67.305637 28.6227831,78.144 L28.6227831,78.144 L19.6134406,72.2126572 C24.2077585,60.2355221 21.189945,53.3756128 10.56,51.6329292 L10.56,51.6329292 L10.56,36.0620813 C19.9718337,32.0265937 22.9896472,23.7404534 19.6134406,11.2036606 L19.6134406,11.2036606 L28.6227831,2.57588871 C31.6547157,6.94938373 35.313788,8.86374155 39.6,8.31896216 C43.886212,7.77418278 46.7772437,5.35319539 48.2730951,1.056 L48.2730951,1.056 Z M39.1557735,24.3046015 C32.3110231,24.3046015 26.7622566,31.0645751 26.7622566,39.403425 C26.7622566,47.742275 32.3110231,54.5022486 39.1557735,54.5022486 C46.0005239,54.5022486 51.5492904,47.742275 51.5492904,39.403425 C51.5492904,31.0645751 46.0005239,24.3046015 39.1557735,24.3046015 Z" id="形状结合备份-2" fill="url(#linearGradient-4)"></path>
                        <g id="编组-7" transform="translate(0.000000, 1.056000)">
                            <polygon id="路径-2" fill="url(#linearGradient-5)" points="18.3728761 0 28.3538594 1.91415402 19.4000063 10.5331438 9.41902306 8.61898977"></polygon>
                            <polygon id="路径-33" fill="url(#linearGradient-6)" points="0.421343549 33.4521075 10.4023268 35.3662615 10.4023268 50.9212599 0.421343549 47.7395494"></polygon>
                            <polygon id="路径-34" fill="url(#linearGradient-7)" points="9.41902306 69.5658861 19.4000063 71.4800401 28.3538594 77.4053455 18.3728761 74.9380616"></polygon>
                        </g>
                    </g>
                    <g id="编组-36" transform="translate(40.320000, 0.000000)">
                        <path d="M64.4151953,-7.81597009e-14 L75.8488682,1.78702201 C71.373248,20.7745198 76.7568331,33.5449886 91.9996235,40.0984284 C84.6553599,89.737218 80.6974861,115.052788 80.1260022,116.045139 L80.1260022,116.045139 L66.5564761,114.863204 L58.0416669,109.899269 C55.4393094,110.65887 53.5639639,111.55659 52.4156304,112.592428 C49.3695693,115.340083 46.8094024,120.081012 45.1083289,124.065673 L45.1083289,124.065673 L29.3975221,120.148026 L15.303494,111.617882 C22.4907494,92.619492 17.7697447,81.0672643 1.14048,76.9611991 L1.14048,76.9611991 L1.14048,54.2750581 C15.8641568,47.8738805 20.5851615,34.7302258 15.303494,14.8440942 L15.303494,14.8440942 L29.3975221,1.15853613 L45.1083289,4.19790231 C47.8990299,7.37969279 49.4206173,9.25242097 49.6730911,9.81608684 C56.3783519,8.95194601 61.2923867,5.67991706 64.4151953,-7.81597009e-14 L64.4151953,-7.81597009e-14 Z M57.2414855,39.7316572 C51.1799191,39.7316572 42.19776,49.3872719 42.19776,62.6145358 C42.19776,75.8417998 51.152295,83.5569499 52.8201017,83.657579 C59.1847901,84.0416002 67.28832,71.4512422 67.28832,62.6145358 C67.28832,49.3872719 63.3030519,39.7316572 57.2414855,39.7316572 Z" id="形状结合" fill="url(#linearGradient-8)"></path>
                        <path d="M75.8488682,1.78702201 L90.2161172,8.90892217 C85.740497,27.8964199 91.5719348,39.3060441 107.71043,43.1377946 L107.71043,43.1377946 L107.71043,66.0856353 C91.5725399,69.9131498 86.6430643,81.8362358 92.9220035,101.854893 L92.9220035,101.854893 L80.1260022,116.045139 C63.6147399,104.200116 51.9421822,106.873627 45.1083289,124.065673 L45.1083289,124.065673 L31.0143009,114.657249 C38.2015563,95.6588582 33.4805516,84.7775218 16.8512869,82.0132394 L16.8512869,82.0132394 L16.8512869,57.3144243 C31.5749637,50.9132466 36.2959684,37.769592 31.0143009,17.8834604 L31.0143009,17.8834604 L45.1083289,4.19790231 C49.8514213,11.1352346 55.5755978,14.1718303 62.2808587,13.3076895 C68.9861195,12.4435486 73.5087893,8.60332614 75.8488682,1.78702201 L75.8488682,1.78702201 Z M61.58592,38.6644558 C50.8781349,38.6644558 42.19776,49.3872719 42.19776,62.6145358 C42.19776,75.8417998 50.8781349,86.5646158 61.58592,86.5646158 C72.2937051,86.5646158 80.97408,75.8417998 80.97408,62.6145358 C80.97408,49.3872719 72.2937051,38.6644558 61.58592,38.6644558 Z" id="形状结合备份-2" fill="url(#linearGradient-9)"></path>
                        <g id="编组-7" transform="translate(0.477254, 1.158536)">
                            <polygon id="路径-2" fill="url(#linearGradient-10)" points="28.920268 0 44.6310749 3.03936617 30.5370469 16.7249243 14.82624 13.6855581"></polygon>
                            <polygon id="路径-33" fill="url(#linearGradient-11)" points="0.663225958 53.116522 16.3740329 56.1558882 16.3740329 80.8547033 0.663225958 75.802663"></polygon>
                            <polygon id="路径-34" fill="url(#linearGradient-12)" points="14.82624 110.459346 30.5370469 113.498712 44.6310749 122.907136 28.920268 118.98949"></polygon>
                        </g>
                    </g>
                </g>
                <g id="编组-9备份" opacity="0.701660156" transform="translate(223.300000, 102.300000)">
                    <path d="M7.17797852,24.42 C0.151303575,23.0962738 -1.71645086,19.0101704 1.57471521,12.1616896 C2.61756031,9.99166704 2.61756031,6.77463812 3.37780105,4.89729726 C4.33787853,2.52647894 5.85194485,0.894046517 7.92,0 C12.2377727,2.14311508 14.396659,6.19701162 14.396659,12.1616896 C16.0346055,16.1359945 16.278459,19.0005068 15.1282197,20.7552265 C13.6320563,23.0376623 10.9819759,24.2592535 7.17797852,24.42 Z" id="路径-11" fill="url(#linearGradient-13)"></path>
                    <line x1="7.92" y1="24.29625" x2="7.92" y2="31.80375" id="直线-7" stroke="#979797" stroke-width="1.1088" stroke-linecap="square"></line>
                </g>
                <path d="M200.459519,27 L263,27 C263.039113,15.8146141 257.30745,11.642381 245.805011,14.4833008 C242.009139,4.10546624 236.512049,-0.69528416 229.313741,0.0810496312 C222.115434,0.857383423 218.712017,4.38442953 219.103489,10.662188 C212.458407,8.66490777 207.390141,9.24731494 203.898694,12.4094095 C200.407246,15.571504 199.260854,20.4350342 200.459519,27 Z" id="路径-15" fill="url(#linearGradient-14)" opacity="0.5"></path>
                <path d="M34.2924368,58.0604921 L74.093075,58.0604921 C74.1179661,50.9927814 70.4703473,48.3564722 63.1502184,50.1515644 C60.7345324,43.5941213 57.2361952,40.5606707 52.6552069,41.0512128 C48.0742186,41.5417549 45.9082905,43.7703898 46.1574225,47.7371175 C41.9285052,46.4750959 38.7030714,46.8431016 36.481121,48.8411345 C34.2591706,50.8391674 33.5296092,53.9122866 34.2924368,58.0604921 Z" id="路径-15备份" fill="url(#linearGradient-15)" opacity="0.404292225"></path>
            </g>
        </g>
    </g>
</svg>