<?xml version="1.0" encoding="UTF-8"?>
<svg width="200px" height="200px" viewBox="0 0 200 200" version="1.1" xmlns="http://www.w3.org/2000/svg" xmlns:xlink="http://www.w3.org/1999/xlink">
    <title>编组 7</title>
    <defs>
        <linearGradient x1="93.6782823%" y1="98.8%" x2="40.5410089%" y2="100%" id="linearGradient-1">
            <stop stop-color="#E0E5EF" stop-opacity="0" offset="0%"></stop>
            <stop stop-color="#E0E5EF" offset="100%"></stop>
        </linearGradient>
        <linearGradient x1="93.1861366%" y1="98.8%" x2="40.6475883%" y2="100%" id="linearGradient-2">
            <stop stop-color="#E0E5EF" stop-opacity="0" offset="0%"></stop>
            <stop stop-color="#E0E5EF" offset="100%"></stop>
        </linearGradient>
        <linearGradient x1="144.588078%" y1="66.6055554%" x2="29.5159577%" y2="67.0138888%" id="linearGradient-3">
            <stop stop-color="#E0E5EF" stop-opacity="0" offset="0%"></stop>
            <stop stop-color="#E0E5EF" offset="100%"></stop>
        </linearGradient>
        <linearGradient x1="50%" y1="100%" x2="95.9201389%" y2="-28.9579615%" id="linearGradient-4">
            <stop stop-color="#A2ABB9" offset="0%"></stop>
            <stop stop-color="#E7EAF0" offset="100%"></stop>
        </linearGradient>
        <linearGradient x1="62.8223603%" y1="-7.52001321%" x2="62.8223603%" y2="100%" id="linearGradient-5">
            <stop stop-color="#A2ABB9" offset="0%"></stop>
            <stop stop-color="#D1D6E2" offset="100%"></stop>
            <stop stop-color="#E7EAF0" offset="100%"></stop>
        </linearGradient>
        <linearGradient x1="100%" y1="50%" x2="35.0945476%" y2="50%" id="linearGradient-6">
            <stop stop-color="#A2ABB9" offset="0%"></stop>
            <stop stop-color="#E7EAF0" offset="100%"></stop>
            <stop stop-color="#E7EAF0" offset="100%"></stop>
        </linearGradient>
    </defs>
    <g id="报告报表生成" stroke="none" stroke-width="1" fill="none" fill-rule="evenodd">
        <g id="能源管理-报告报表已关注的-点击报表卡片时" transform="translate(-1329.000000, -560.000000)">
            <g id="编组-7" transform="translate(1329.000000, 560.000000)">
                <rect id="矩形" x="0" y="0" width="200" height="200"></rect>
                <g id="暂无记录" transform="translate(0.000000, 14.000000)">
                    <path d="M98.846154,0 C117.64348,0 134.975912,6.18152025 148.864899,16.5945369 L143.278085,16.5950226 C140.633627,16.5950226 138.489871,18.7414221 138.489871,21.3891403 L138.489871,21.3891403 L138.489871,21.7579186 C138.489871,24.4056367 140.633627,26.5520362 143.278085,26.5520362 L143.278085,26.5520362 L159.918305,26.5517567 C163.075132,29.9580414 165.942504,33.6293424 168.482064,37.5278547 L176.381924,37.5279071 C179.229801,37.5279071 181.538462,39.8394141 181.538462,42.690803 L181.538462,42.9789645 C181.538462,45.3346516 179.962729,47.3218528 177.809012,47.9415913 L170.53407,47.9411765 C167.279353,47.9411765 164.640884,50.582899 164.640884,53.841629 L164.640884,53.841629 L164.640884,55.6855204 C164.640884,58.9442503 167.279353,61.5859729 170.53407,61.5859729 L170.53407,61.5859729 L195.543794,61.5859577 C198.103972,62.2282382 200,64.547303 200,67.3097547 L200,67.6390822 C200,70.8978121 197.361531,73.5395347 194.106814,73.5395347 L181.148993,73.5391224 C181.406629,76.1584395 181.538462,78.8140462 181.538462,81.5 C181.538462,126.511207 144.515854,163 98.846154,163 C62.3165179,163 31.3191665,139.655001 20.3750578,107.27659 L17.2716176,107.276744 C16.0170379,107.276744 15,106.258452 15,105.002326 C15,104.043994 15.5919727,103.224096 16.4297709,102.889204 L20.2578269,102.88914 C22.9022843,102.88914 25.0460405,100.742741 25.0460405,98.0950226 L25.0460405,98.0950226 L25.0460405,97.7262443 C25.0460405,95.0785262 22.9022843,92.9321267 20.2578269,92.9321267 L20.2578269,92.9321267 L16.9609841,92.9322185 C16.9581788,92.9125224 16.9553807,92.8928245 16.9525898,92.873124 L8.78602939,92.8720929 C6.69506309,92.8720929 5,91.1749399 5,89.0813955 C5,86.9878508 6.69506309,85.2906978 8.78602939,85.2906978 L16.2417351,85.29129 C16.1833553,84.0347389 16.1538462,82.7707661 16.1538462,81.5 C16.1538462,69.4667551 18.7998544,58.0426077 23.5497079,47.7619038 L10.3130755,47.7627907 C4.61732118,47.7627907 0,43.1397762 0,37.4369988 L0,36.8606754 C0,31.3574953 4.2997649,26.8598174 9.71913628,26.5517213 L56.3535912,26.5520362 C58.387789,26.5520362 60.0368324,24.9009594 60.0368324,22.8642534 C60.0368324,20.8275474 58.387789,19.1764706 56.3535912,19.1764706 L56.3535912,19.1764706 L45.5585341,19.1761059 C45.6484029,19.1013899 45.7384357,19.0268598 45.8286317,18.9525156 L40.4596969,18.9534884 C36.5947208,18.9534884 33.4615385,15.8164428 33.4615385,11.946701 L33.4615385,11.5556245 C33.4615385,7.68588276 36.5947208,4.5488372 40.4596969,4.5488372 L71.5397871,4.54819737 C80.0883223,1.60180731 89.2774405,0 98.846154,0 Z" id="背景" fill="#F3F3FA" fill-rule="nonzero" opacity="0.60159418"></path>
                    <g id="树" transform="translate(28.000000, 105.000000)" fill-rule="nonzero">
                        <path d="M21.3893083,15.7768924 C21.4324537,15.9468792 21.4863853,16.1274901 21.5511034,16.3187251 L21.6805394,16.8286853 C21.7236848,16.998672 21.7452575,17.1367862 21.7452575,17.2430279 C21.7452575,17.8379814 21.5834624,18.3638778 21.2598722,18.8207171 C20.9362821,19.2775564 20.5156149,19.6122178 19.9978707,19.8247012 C19.8037166,19.8459495 19.5987762,19.8565737 19.3830494,19.8565737 C19.210468,19.877822 19.0163139,19.8884462 18.8005872,19.8884462 L18.1857659,19.8884462 L13.1377597,19.9521912 L13.1377597,25.2749004 C13.1377597,26.061089 13.1539392,26.8525896 13.1862982,27.6494024 C13.2186572,28.4462151 13.2564094,29.1633466 13.2995548,29.8007968 C13.3427001,30.5657371 13.3966318,31.2988048 13.4613498,32 L8.80165183,32 L8.89872885,30.7569721 C8.92030155,30.2682603 8.94187421,29.6042497 8.96344691,28.7649403 C8.9850196,27.9256308 8.99580595,26.8047809 8.99580591,25.4023904 L8.99580591,20.5258964 C8.62907041,20.8446215 8.2191896,21.0039841 7.76616339,21.0039841 C7.39942789,21.0039841 7.08123094,20.9189907 6.81157249,20.749004 C6.54191402,20.5790172 6.32079409,20.3452855 6.14821267,20.0478088 L2.4916441,19.8565737 C1.77974577,19.686587 1.18649718,19.3306773 0.71189831,18.7888446 C0.237299436,18.2470119 0,17.6042497 0,16.8605578 C0,16.7330677 0.0107863346,16.6162019 0.0323590039,16.5099601 C0.0539316731,16.4037184 0.0862906875,16.2974767 0.129436047,16.1912351 L0.9384114,14.3426295 C0.981556758,13.875166 1.11638598,13.4395751 1.34289908,13.0358566 C1.56941217,12.6321381 1.85525012,12.2815405 2.20041293,11.9840637 L7.28077813,2.70916334 L7.31313714,2.70916334 C7.72301799,1.96547145 8.20840317,1.32802125 8.76929275,0.796812749 C9.33018233,0.26560425 10.052867,0 10.9373467,0 C11.713963,0 12.4096818,0.201859229 13.0245031,0.605577687 C13.6393244,1.00929615 14.0977437,1.54050464 14.3997612,2.19920319 L18.476997,10.0717132 C19.210468,10.3266932 19.8145029,10.7729084 20.2891018,11.4103585 C20.7637006,12.0478087 21.0010001,12.7808765 21.0010001,13.6095617 C21.0010001,13.9495352 20.9470684,14.3107569 20.839205,14.6932271 L21.3893083,15.7768924 Z" id="路径" fill="url(#linearGradient-1)"></path>
                        <path d="M135.644051,15.7768924 C135.687196,15.9468792 135.741128,16.1274901 135.805846,16.3187251 L135.935282,16.8286853 C135.978427,16.998672 136,17.1367862 136,17.2430279 C136,17.8379814 135.838205,18.3638778 135.514615,18.8207171 C135.191024,19.2775564 134.770357,19.6122178 134.252613,19.8247012 C134.058459,19.8459495 133.853519,19.8565737 133.637792,19.8565737 C133.465211,19.877822 133.271056,19.8884462 133.05533,19.8884462 L132.440508,19.8884462 L127.392502,19.9521912 L127.392502,25.2749004 C127.392502,26.061089 127.408682,26.8525896 127.441041,27.6494024 C127.4734,28.4462151 127.511152,29.1633466 127.554297,29.8007968 C127.597443,30.5657371 127.651374,31.2988048 127.716093,32 L123.056394,32 L123.153471,30.7569721 C123.175044,30.2682603 123.196617,29.6042497 123.21819,28.7649403 C123.239762,27.9256308 123.250548,26.8047809 123.250548,25.4023904 L123.250548,20.5258964 C122.883813,20.8446215 122.473932,21.0039841 122.020906,21.0039841 C121.65417,21.0039841 121.335974,20.9189907 121.066315,20.749004 C120.796657,20.5790172 120.575537,20.3452855 120.402955,20.0478088 L116.746387,19.8565737 C116.034488,19.686587 115.44124,19.3306773 114.966641,18.7888446 C114.492042,18.2470119 114.254743,17.6042497 114.254743,16.8605578 C114.254743,16.7330677 114.265529,16.6162019 114.287102,16.5099601 C114.308674,16.4037184 114.341033,16.2974767 114.384178,16.1912351 L115.193154,14.3426295 C115.236299,13.875166 115.371129,13.4395751 115.597642,13.0358566 C115.824155,12.6321381 116.109993,12.2815405 116.455155,11.9840637 L121.535521,2.70916334 L121.56788,2.70916334 C121.977761,1.96547145 122.463146,1.32802125 123.024035,0.796812749 C123.584925,0.26560425 124.307609,0 125.192089,0 C125.968706,0 126.664424,0.201859229 127.279246,0.605577687 C127.894067,1.00929615 128.352486,1.54050464 128.654504,2.19920319 L132.731739,10.0717132 C133.465211,10.3266932 134.069246,10.7729084 134.543844,11.4103585 C135.018443,12.0478087 135.255743,12.7808765 135.255743,13.6095617 C135.255743,13.9495352 135.201811,14.3107569 135.093947,14.6932271 L135.644051,15.7768924 Z" id="路径" fill="url(#linearGradient-1)"></path>
                        <path d="M122.085624,19.2796089 C122.119263,19.4128939 122.161311,19.5545093 122.211769,19.7044549 L122.312685,20.10431 C122.346324,20.2375951 122.363144,20.3458892 122.363144,20.4291923 C122.363144,20.89569 122.236998,21.3080406 121.984708,21.6662441 C121.732417,22.0244477 121.404439,22.2868526 121.000774,22.4534589 C120.8494,22.4701195 120.689616,22.4784498 120.521422,22.4784498 C120.386867,22.4951105 120.235493,22.5034408 120.067299,22.5034408 L119.587947,22.5034408 L115.652213,22.5534227 L115.652213,26.7269105 C115.652213,27.3433539 115.664828,27.9639623 115.690057,28.588736 C115.715286,29.2135096 115.74472,29.7758059 115.778359,30.2756248 C115.811997,30.8754075 115.854046,31.4501992 115.904504,32 L112.271519,32 L112.347206,31.0253531 C112.364026,30.6421587 112.380845,30.121514 112.397664,29.4634191 C112.414484,28.8053241 112.422893,27.9264759 112.422893,26.8268743 L112.422893,23.0032597 C112.136964,23.2531692 111.817396,23.3781239 111.464189,23.3781239 C111.17826,23.3781239 110.930174,23.3114813 110.719932,23.1781963 C110.50969,23.0449112 110.337291,22.8616443 110.202736,22.6283955 L107.351852,22.4784498 C106.796813,22.3451648 106.33428,22.0660992 105.964253,21.6412532 C105.594227,21.2164071 105.409214,20.712423 105.409214,20.129301 C105.409214,20.0293372 105.417624,19.9377037 105.434443,19.8544006 C105.451262,19.7710974 105.476492,19.6877943 105.510131,19.6044911 L106.140857,18.1550163 C106.174496,17.7884824 106.279617,17.4469395 106.45622,17.1303876 C106.632823,16.8138356 106.85568,16.5389352 107.12479,16.3056863 L111.085753,9.03332127 L111.110982,9.03332127 C111.43055,8.4501992 111.808986,7.95038029 112.24629,7.53386455 C112.683594,7.1173488 113.247043,6.90909091 113.936637,6.90909091 C114.542135,6.90909091 115.084559,7.06736691 115.563911,7.38391887 C116.043263,7.70047084 116.400675,8.11698658 116.636146,8.63346615 L119.815008,14.8062296 C120.386867,15.0061572 120.857809,15.3560304 121.227836,15.8558493 C121.597862,16.3556682 121.782875,16.93046 121.782875,17.5802245 C121.782875,17.8467946 121.740827,18.1300253 121.65673,18.4299167 L122.085624,19.2796089 Z" id="路径" fill="url(#linearGradient-2)"></path>
                    </g>
                    <path d="M87.7931034,129 C110.369518,129 130.699735,130.828563 144.910536,133.749249 C158.809219,133.841099 170,137.974872 170,143.06087 C170,147.09163 162.971187,150.524307 153.135297,151.820864 C150.787797,152.510498 148.145337,153.160534 145.242833,153.764632 C145.31839,154.14949 145.356322,154.538322 145.356322,154.930435 C145.356322,163.805411 125.924451,171 101.954023,171 C80.3882258,171 62.4960739,165.176481 59.1233416,157.545057 C30.3473497,155.375389 10,150.035147 10,143.791304 C10,135.622293 44.8291586,129 87.7931034,129 Z" id="形状结合" fill="#E7EAF0" fill-rule="nonzero"></path>
                    <ellipse id="椭圆形" fill="#D1D6E2" fill-rule="nonzero" cx="93" cy="146.5" rx="30" ry="2.5"></ellipse>
                    <path d="M147,35.0625 C147,37.25 144.927273,39 142.309091,39 L127.8,39 C125.181818,38.825 123,37.1625 123,34.8875 C123,33.4 123.981818,32.0875 125.4,31.3875 C125.290909,31.125 125.181818,30.8625 125.181818,30.6 C125.181818,29.1125 126.6,27.8 128.454545,27.8 C129.218182,27.8 129.872727,28.0625 130.418182,28.4125 C131.727273,26.4 134.127273,25 136.963636,25 C140.890909,25 144.054545,27.7125 144.054545,31.0375 L144.054545,31.3875 C145.8,32 147,33.4 147,35.0625 Z" id="路径" fill="url(#linearGradient-3)" fill-rule="nonzero"></path>
                    <path d="M71,46.1471211 C85.0860278,43.645753 95.5145842,45.2343239 102.280692,50.9211872 L102.419352,51.0379916 L102.694348,51.2712231 L102.966827,51.5044505 L103.237485,51.7382726 L103.507022,51.9732887 C103.55189,52.0125909 103.59674,52.0519677 103.641588,52.0914317 L103.910748,52.3293611 L104.315872,52.6914881 L104.587893,52.9372678 L104.862279,53.1872354 L105.279818,53.5713501 L105.7066,53.9682568 L106.14498,54.3799765 L106.444839,54.663684 L106.907779,55.1045838 L109.587438,57.6866764 L109.926558,58.0104865 L110.352407,58.4137687 L110.655123,58.6976299 L110.946178,58.9679032 L111.227935,59.2267083 L111.411775,59.3939207 L111.683289,59.638323 C114.254614,61.9380276 116.438621,63.4300769 119.004789,64.5056322 C121.917035,65.7262388 125.302121,66.3664592 129.573388,66.4413413 L129.784166,66.4445679 C136.538993,66.5330792 142.994236,68.3167074 148.399982,71.251655 C149.207882,71.690289 149.978753,72.1494416 150.704217,72.6202104 L150.944345,72.7775513 L151.181041,72.9356794 C151.376839,73.0677606 151.568989,73.2005853 151.757313,73.3339632 L151.981452,73.4942695 C152.055546,73.5477855 152.129015,73.6013776 152.20185,73.6550337 L152.418435,73.8161819 C152.56154,73.9237257 152.702057,74.0314773 152.839896,74.1393382 L153.044633,74.3011996 C153.382475,74.571065 153.703287,74.8413103 154.005631,75.1104092 L154.18481,75.2717189 C154.42073,75.4865823 154.644648,75.7005166 154.855828,75.9127405 L155.011813,76.0715756 C155.984444,77.0753439 156.665525,78.03611 156.976241,78.8701182 L157,78.935696 L156.818072,79 C156.57162,78.2997685 156.04572,77.4995275 155.291719,76.6547081 L155.152125,76.5006256 C155.033722,76.3718347 154.910153,76.2420978 154.781599,76.1116072 L154.624951,75.9546695 C154.386423,75.7187572 154.131971,75.4806537 153.862635,75.2414833 L153.680885,75.0818906 C153.343675,74.7890597 152.984579,74.4950085 152.605497,74.2017895 L152.396754,74.041947 C152.32652,73.9887019 152.255637,73.9354967 152.184116,73.8823436 L151.967651,73.7230536 L151.747428,73.5641506 C151.636388,73.4848083 151.523965,73.4056393 151.410196,73.3266846 L151.180877,73.1690735 L150.94804,73.0121092 L150.711753,72.8558652 L150.472085,72.7004157 L150.229105,72.5458347 L149.98288,72.3921964 C149.900273,72.3411488 149.817135,72.2902707 149.733481,72.2395745 L149.480974,72.0880435 C149.226937,71.9370821 148.968342,71.7878679 148.705499,71.640734 L148.441251,71.4943056 C148.396978,71.4700207 148.352589,71.4457965 148.308087,71.4216347 C142.987497,68.5329211 136.643786,66.7646905 130.000753,66.6413444 L129.781644,66.6378746 C125.387224,66.5802926 121.914542,65.9347446 118.930353,64.6839847 C116.341868,63.5990754 114.140879,62.0954243 111.554838,59.782558 L111.373779,59.6199261 L111.098199,59.3697844 L110.815722,59.1103211 L110.622403,58.9311178 L110.323166,58.6513972 L110.116478,58.4567217 L109.793896,58.1508422 L108.901484,57.2945031 L107.255,55.7051531 L106.774899,55.2447325 L106.312677,54.8045145 L106.013302,54.521262 L105.575656,54.1102279 L105.149622,53.7140118 L104.87089,53.4571038 L104.595577,53.2052865 C104.549937,53.1637078 104.504412,53.1223161 104.458985,53.0810996 L104.052423,52.7145305 L103.78319,52.4743959 L103.514591,52.2369591 L103.245929,52.0016225 L102.976508,51.7677872 L102.705631,51.5348554 L102.432602,51.3022292 L102.156725,51.06931 C95.5086469,45.4816499 85.2758867,43.8771547 71.4536153,46.2639304 L71.03366,46.3374786 L71,46.1471211 Z" id="路径-13" stroke="#D1D6E2" stroke-dasharray="4"></path>
                    <g id="plane" transform="translate(61.545259, 41.275862) scale(-1, 1) rotate(28.000000) translate(-61.545259, -41.275862) translate(53.068966, 32.431034)" fill="url(#linearGradient-4)" fill-rule="nonzero">
                        <polygon id="路径" points="9.54544422 14.0330951 14.5281044 16.1964211 16.9525862 0 0 9.99342921 4.44820671 12.0995109 15.1962933 2.29739933 6.56711628 13.0950134 6.45255845 17.6896552"></polygon>
                    </g>
                    <g id="编组" transform="translate(50.000000, 53.000000)" fill-rule="nonzero">
                        <path d="M68.3758004,84.1623932 L20.5947877,84.1623932 C16.9357823,84.1623932 13.9705882,81.2094431 13.9705882,77.5655463 L13.9705882,12.4771887 C13.9705882,8.83329202 16.9357823,5.88034188 20.5947877,5.88034188 L68.3758004,5.88034188 C72.0348059,5.88034188 75,8.83329202 75,12.4771887 L75,77.5655463 C75,81.2094431 72.0348059,84.1623932 68.3758004,84.1623932 Z" id="路径" fill="url(#linearGradient-5)"></path>
                        <path d="M65.4584592,86 L19.8356583,86 C16.1898188,86 13.2352941,83.0351085 13.2352941,79.3764763 L13.2352941,15.0765152 C13.2352941,11.417883 16.1898188,8.45299145 19.8356583,8.45299145 L65.4584592,8.45299145 C69.1042989,8.45299145 72.0588235,11.417883 72.0588235,15.0765152 L72.0588235,79.3784756 C72.0588235,83.0351085 69.1042989,86 65.4584592,86 Z" id="路径" fill="#D1D6E2"></path>
                        <path d="M64.8755147,77.9145299 L21.153897,77.9145299 C20.6382789,77.9145299 20.2205882,77.4979275 20.2205882,76.9836527 L20.2205882,14.5291678 C20.2205882,14.014893 20.6382789,13.5982906 21.153897,13.5982906 L64.8755147,13.5982906 C65.3911327,13.5982906 65.8088235,14.014893 65.8088235,14.5291678 L65.8088235,76.9836527 C65.806825,77.4979275 65.3891342,77.9145299 64.8755147,77.9145299 Z" id="路径" fill="#E7EAF0"></path>
                        <path d="M40.7105029,77.5475794 C36.6382239,77.2703186 14.2396926,75.5717844 0.370423085,64.3462533 C-0.31526658,63.7900785 0.00565213056,62.6477191 0.884690335,62.5676939 C22.4101633,60.6190809 19.788995,22.106967 19.9404846,14.7226443 C19.9524443,14.0964473 20.351101,13.5982906 20.9749989,13.5982906 L64.4385548,13.5982906 C64.9926875,13.5982906 65.4411765,14.0484322 65.4411765,14.6046071 L63.1648463,55.9616161 C63.0811283,56.1896877 62.9216654,56.6318269 62.7641963,56.8158846 L46.2697717,76.7421526 C46.0644636,76.9822282 41.0254419,77.5684126 40.7105029,77.5475794 Z" id="路径" fill="#FFFFFF"></path>
                        <path d="M46.8991893,63.1977825 C49.3970221,63.354724 56.8389375,63.4123356 63.2352941,56.2307692 C61.719532,63.7858167 51.9861184,77.4536383 39.3382353,77.5470085 C46.6055599,73.8002771 46.3278026,66.8630632 46.0976607,63.7520444 C46.0718691,63.3865095 46.5361206,63.1739432 46.8991893,63.1977825 Z" id="路径" fill="url(#linearGradient-6)"></path>
                        <g id="编组-2" transform="translate(22.363306, 23.153846)" fill="#D8D8D8">
                            <rect id="矩形" x="7.41610588" y="0" width="29.4117647" height="2.20512821" rx="1.1025641"></rect>
                            <rect id="矩形备份" x="6.68081176" y="7.35042735" width="29.4117647" height="2.20512821" rx="1.1025641"></rect>
                            <rect id="矩形备份-2" x="5.94551764" y="14.7008547" width="14.7058824" height="2.20512821" rx="1.1025641"></rect>
                            <rect id="矩形备份-3" x="22.8572823" y="14.7008547" width="2.20588235" height="2.20512821" rx="1.1025641"></rect>
                            <path d="M5.945134,22.0514438 L33.1517836,22.0511194 C33.760706,22.0511121 34.2543409,22.5447353 34.2543482,23.1536577 C34.2543482,23.153662 34.2543482,23.1536664 34.2543482,23.1536708 C34.2543482,23.7626025 33.7607154,24.2562412 33.1517836,24.2562485 L5.945134,24.2565729 C5.33621167,24.2565802 4.8425767,23.762957 4.84256944,23.1540347 C4.84256944,23.1540303 4.84256944,23.1540259 4.84256944,23.1540215 C4.84256944,22.5450898 5.33620228,22.0514511 5.945134,22.0514438 Z" id="矩形备份-7" transform="translate(19.548459, 23.153846) rotate(2.000000) translate(-19.548459, -23.153846) "></path>
                            <path d="M3.73925826,29.4020312 L30.9458946,29.4013839 C31.5548105,29.4013695 32.0484461,29.8949816 32.0484606,30.5038974 C32.0484606,30.5039062 32.0484606,30.5039149 32.0484606,30.5039236 C32.0484606,31.1128582 31.5548292,31.6065013 30.9458946,31.6065158 L3.73925826,31.6071631 C3.1303424,31.6071776 2.63670681,31.1135655 2.63669233,30.5046496 C2.63669233,30.5046408 2.63669233,30.5046321 2.63669233,30.5046234 C2.63669233,29.8956888 3.13032367,29.4020457 3.73925826,29.4020312 Z" id="矩形备份-6" transform="translate(17.342576, 30.504274) rotate(4.000000) translate(-17.342576, -30.504274) "></path>
                            <path d="M1.18216843,36.4836521 L13.6829279,36.4831351 C14.2918352,36.48311 14.7854725,36.9767064 14.7854976,37.5856136 C14.7854976,37.5856288 14.7854976,37.585644 14.7854976,37.5856592 C14.7854976,38.194599 14.2918677,38.6882494 13.6829279,38.6882745 L1.18216843,38.6887915 C0.573261184,38.6888167 0.0796239147,38.1952202 0.0795987339,37.586313 C0.0795987333,37.5862978 0.0795987329,37.5862826 0.0795987329,37.5862674 C0.0795987329,36.9773276 0.573228627,36.4836773 1.18216843,36.4836521 Z" id="矩形备份-5" transform="translate(7.432548, 37.585963) rotate(7.000000) translate(-7.432548, -37.585963) "></path>
                            <path d="M18.0145215,37.7822917 L18.0152532,37.7822917 C18.6241353,37.7822665 19.1177521,38.2758426 19.1177773,38.8847246 C19.1177773,38.884755 19.1177773,38.8847854 19.1177773,38.8848158 C19.1177521,39.493763 18.6241092,39.9874059 18.015162,39.9874311 L18.0144302,39.9874312 C17.4055482,39.9874563 16.9119313,39.4938803 16.9119061,38.8849982 C16.9119061,38.8849678 16.9119061,38.8849374 16.9119061,38.884907 C16.9119313,38.2759599 17.4055743,37.7823169 18.0145215,37.7822917 Z" id="矩形备份-4" transform="translate(18.014842, 38.884861) rotate(7.000000) translate(-18.014842, -38.884861) "></path>
                        </g>
                        <g transform="translate(33.823529, 0.000000)">
                            <rect id="矩形" fill="#ACB4C2" x="0.367647059" y="8.45299145" width="19.1176471" height="6.61538462"></rect>
                            <polygon id="矩形" fill="#909AA9" points="1.47058824 5.88034188 20.5882353 5.88034188 19.1176471 8.45299145 0 8.45299145"></polygon>
                            <path d="M10.2941176,0 C12.1215304,0 13.6029412,1.48090429 13.6029412,3.30769231 C13.6029412,5.13448031 12.1215304,6.61538462 10.2941176,6.61538462 C8.46670489,6.61538462 6.98529412,5.13448031 6.98529412,3.30769231 C6.98529412,1.48090429 8.46670489,0 10.2941176,0 Z M10.2941176,1.47008547 C9.27888835,1.47008547 8.45588235,2.29281007 8.45588235,3.30769231 C8.45588235,4.32257452 9.27888835,5.14529915 10.2941176,5.14529915 C11.3093469,5.14529915 12.1323529,4.32257452 12.1323529,3.30769231 C12.1323529,2.29281007 11.3093469,1.47008547 10.2941176,1.47008547 Z" id="形状结合" fill="#A2ABB9"></path>
                        </g>
                    </g>
                </g>
            </g>
        </g>
    </g>
</svg>