<?xml version="1.0" encoding="UTF-8"?>
<svg width="16px" height="16px" viewBox="0 0 16 16" version="1.1" xmlns="http://www.w3.org/2000/svg" xmlns:xlink="http://www.w3.org/1999/xlink">
    <!-- Generator: Sketch 59 (86127) - https://sketch.com -->
    <title>旗帜-默认</title>
    <desc>Created with Sketch.</desc>
    <g id="旗帜-默认" stroke="none" stroke-width="1" fill="none" fill-rule="evenodd">
        <g id="旗帜备份" fill="#000000" fill-rule="nonzero">
            <rect id="矩形" opacity="0" x="0" y="0" width="16" height="16"></rect>
            <path d="M3.53332813,0.533328125 C3.23832813,0.533328125 3,0.771671875 3,1.06667187 L3,14.9333281 C3,15.2283281 3.23832813,15.4666719 3.53332813,15.4666719 C3.82832813,15.4666719 4.06667188,15.2283281 4.06667188,14.9333281 L4.06667188,1.06667187 C4.06667188,0.771671875 3.82832813,0.533328125 3.53332813,0.533328125 L3.53332813,0.533328125 Z M12.9433281,5.415 L5.95,1.04332812 C5.595,0.821671875 5.13332813,1.07667187 5.13332813,1.495 L5.13332813,10.2366719 C5.13332813,10.655 5.59332813,10.9116719 5.95,10.6883281 L12.9433281,6.31667187 C13.2766719,6.11 13.2766719,5.62332812 12.9433281,5.415 Z" id="形状"></path>
        </g>
    </g>
</svg>