<?xml version="1.0" encoding="UTF-8"?>
<svg width="148px" height="175px" viewBox="0 0 148 175" version="1.1" xmlns="http://www.w3.org/2000/svg" xmlns:xlink="http://www.w3.org/1999/xlink">
    <title>分享@3x</title>
    <defs>
        <filter color-interpolation-filters="auto" id="filter-1">
            <feColorMatrix in="SourceGraphic" type="matrix" values="0 0 0 0 0.000000 0 0 0 0 0.000000 0 0 0 0 0.000000 0 0 0 0.650000 0"></feColorMatrix>
        </filter>
    </defs>
    <g id="new" stroke="none" stroke-width="1" fill="none" fill-rule="evenodd">
        <g filter="url(#filter-1)" id="分享">
            <g transform="translate(0.000000, 0.000000)">
                <path d="M44.787834,38.2510658 L69.7473115,13.2913885 L69.7770914,111.57795 C69.7778908,113.729292 71.5221082,115.473109 73.6734496,115.473109 C73.6738494,115.473109 73.674249,115.473109 73.6746488,115.473109 C75.82639,115.473109 77.5706074,113.727493 77.569808,111.575752 L77.5400281,13.3139732 L102.476721,38.250866 C103.237805,39.01195 104.234529,39.3920922 105.231853,39.3920922 C106.228777,39.3920922 107.226501,39.0115502 107.986985,38.2510658 C109.508554,36.7294975 109.508554,34.2623701 107.986985,32.7408018 L76.4769488,1.23056562 C75.7662307,0.474678125 74.7599129,-7.10542736e-15 73.6406719,-7.10542736e-15 C73.6402721,-7.10542736e-15 73.6398725,-7.10542736e-15 73.6394727,-7.10542736e-15 C73.6382734,-7.10542736e-15 73.6370742,-7.10542736e-15 73.635875,-7.10542736e-15 C73.6346758,-7.10542736e-15 73.6334766,-7.10542736e-15 73.6322773,-7.10542736e-15 C72.5987781,-7.10542736e-15 71.6080498,0.41052168 70.8771453,1.14102637 L39.2775699,32.740602 C37.7562014,34.2621703 37.7562014,36.7292977 39.2775699,38.250866 C40.7991383,39.7726342 43.2662656,39.7726342 44.787834,38.2510658 Z" id="路径" fill="#000000" fill-rule="nonzero"></path>
                <path d="M126.214227,48.5998494 L98.9105389,48.5998494 C96.7587977,48.5998494 95.0141807,50.3444664 95.0141807,52.4964074 C95.0141807,54.6483484 96.7587979,56.3927656 98.9105389,56.3927656 L126.214227,56.3927656 C133.733529,56.3927656 139.851181,62.5104178 139.851181,70.0297197 L139.851181,153.124182 C139.851181,160.643484 133.733529,166.761136 126.214227,166.761136 L21.4294709,166.761136 C13.9101689,166.761136 7.7925168,160.643484 7.7925168,153.124182 L7.7925168,70.0295199 C7.7925168,62.510218 13.9101689,56.3925658 21.4294709,56.3925658 L49.5420105,56.3925658 C51.6939516,56.3925658 53.4383687,54.6481486 53.4383687,52.4962076 C53.4383687,50.3442666 51.6939516,48.5998494 49.5420105,48.5998494 L21.4294709,48.5998494 C9.61308242,48.5998494 0,58.2131316 0,70.0293203 L0,153.123782 C0,164.940171 9.61328223,174.553253 21.4294709,174.553253 L126.214227,174.553253 C138.030615,174.553253 147.643698,164.939971 147.643698,153.123782 L147.643698,70.0295199 C147.643698,58.2131314 138.030615,48.5998494 126.214227,48.5998494 Z" id="路径" fill="#000000" fill-rule="nonzero"></path>
            </g>
        </g>
    </g>
</svg>