<?xml version="1.0" encoding="UTF-8"?>
<svg width="200px" height="138px" viewBox="0 0 200 138" version="1.1" xmlns="http://www.w3.org/2000/svg" xmlns:xlink="http://www.w3.org/1999/xlink">
    <title>icon_预览</title>
    <defs>
        <filter color-interpolation-filters="auto" id="filter-1">
            <feColorMatrix in="SourceGraphic" type="matrix" values="0 0 0 0 0.000000 0 0 0 0 0.000000 0 0 0 0 0.000000 0 0 0 0.650000 0"></feColorMatrix>
        </filter>
    </defs>
    <g id="new" stroke="none" stroke-width="1" fill="none" fill-rule="evenodd">
        <g filter="url(#filter-1)" id="icon_预览">
            <g>
                <path d="M100.000994,112.5 C75.8385363,112.5 56.2509941,92.9124578 56.2509941,68.75 C56.2509941,44.5875422 75.8385363,25 100.000994,25 C124.163452,25 143.750994,44.5875422 143.750994,68.75 C143.750994,92.9124578 124.163452,112.5 100.000994,112.5 Z M100.000994,100 C117.259893,100 131.250994,86.0088984 131.250994,68.75 C131.250994,51.4911016 117.259893,37.5 100.000994,37.5 C82.7420956,37.5 68.7509941,51.4911016 68.7509941,68.75 C68.7509941,86.0088984 82.7420956,100 100.000994,100 Z" id="形状" fill="#000000" fill-rule="nonzero"></path>
                <path d="M100.000994,137.5 C63.1322441,137.5 30.1072441,115.48125 1.06349407,72.2375 C-0.354498024,70.1287045 -0.354498024,67.3712955 1.06349407,65.2625 C30.1072441,22.0125 63.1259941,0 100.000994,0 C136.869744,0 169.894744,22.01875 198.938494,65.2625 C200.356486,67.3712955 200.356486,70.1287045 198.938494,72.2375 C169.894744,115.4875 136.875994,137.5 100.000994,137.5 Z M100.000994,125 C131.219744,125 159.907244,106.4875 186.182244,68.75 C159.907244,31.0125 131.219744,12.5 100.000994,12.5 C68.7822441,12.5 40.0947441,31.0125 13.8197441,68.75 C40.0947441,106.4875 68.7822441,125 100.000994,125 Z" id="形状" fill="#000000" fill-rule="nonzero"></path>
            </g>
        </g>
    </g>
</svg>