<?xml version="1.0" encoding="UTF-8"?>
<svg width="16px" height="16px" viewBox="0 0 16 16" version="1.1" xmlns="http://www.w3.org/2000/svg" xmlns:xlink="http://www.w3.org/1999/xlink">
    <!-- Generator: Sketch 59.1 (86144) - https://sketch.com -->
    <title>表格-未选中</title>
    <desc>Created with Sketch.</desc>
    <g id="供冷供暖模块-能耗监控" stroke="none" stroke-width="1" fill="none" fill-rule="evenodd">
        <g id="表格-未选中" transform="translate(-2.000000, -2.000000)" fill="#FFFFFF">
            <rect id="矩形" fill-rule="nonzero" opacity="0" x="0" y="0" width="20" height="20"></rect>
            <path d="M17.6532596,7.81253859 L17.6532596,4.53021978 C17.6532596,3.32210766 16.6738795,2.3427275 15.4657674,2.3427275 L4.53021978,2.3427275 C3.32210766,2.3427275 2.3427275,3.32210766 2.3427275,4.53021978 L2.3427275,15.4657674 C2.3427275,16.6738795 3.32210766,17.6532596 4.53021978,17.6532596 L15.4657674,17.6532596 C16.6738795,17.6532596 17.6532596,16.6738795 17.6532596,15.4657674 L17.6532596,7.81253859 Z M3.75648228,3.75648228 C3.96154799,3.55035533 4.24051201,3.43476864 4.5312693,3.43544894 L15.4687308,3.43544894 C15.7588849,3.43579824 16.0369978,3.55148823 16.2417911,3.75703433 C16.4465845,3.96258044 16.5612534,4.24111585 16.5605389,4.5312693 L16.5605389,6.71981109 L3.43544894,6.71981109 L3.43544894,4.5312693 C3.43476864,4.24051201 3.55035533,3.96154799 3.75648228,3.75648228 Z M8.35581553,11.6401716 L8.35581553,7.81253859 L11.6401716,7.81253859 L11.6401716,11.6401716 L8.35581553,11.6401716 Z M11.6401716,12.7328991 L11.6401716,16.5605321 L8.35581553,16.5605321 L8.35581553,12.7328991 L11.6401716,12.7328991 Z M7.26308803,11.6401716 L3.435455,11.6401716 L3.435455,7.81253859 L7.26308803,7.81253859 L7.26308803,11.6401716 Z M3.75648228,16.241357 C3.55045121,16.037112 3.43482955,15.7588418 3.43544997,15.4687308 L3.43544997,12.7328991 L7.26308803,12.7328991 L7.26308803,16.5605569 L4.5312693,16.5605569 C4.2407375,16.5619221 3.96173238,16.4469854 3.75648228,16.241357 Z M16.5605363,15.4687308 C16.5610909,15.7584654 16.4462415,16.036494 16.2413678,16.2413678 C16.036494,16.4462415 15.7584654,16.5610909 15.4687308,16.5605363 L12.7328991,16.5605363 L12.7328991,12.7328991 L16.5605363,12.7328991 L16.5605363,15.4687308 L16.5605363,15.4687308 Z M16.5605321,11.6401716 L12.7328991,11.6401716 L12.7328991,7.81253859 L16.5605321,7.81253859 L16.5605321,11.6401716 Z" id="形状" fill-opacity="1"></path>
        </g>
    </g>
</svg>