<?xml version="1.0" encoding="UTF-8"?>
<svg width="400px" height="400px" viewBox="0 0 400 400" version="1.1" xmlns="http://www.w3.org/2000/svg" xmlns:xlink="http://www.w3.org/1999/xlink">
    <!-- Generator: Sketch 59.1 (86144) - https://sketch.com -->
    <title>☀︎No Data</title>
    <desc>Created with Sketch.</desc>
    <defs>
        <linearGradient x1="50%" y1="0%" x2="50%" y2="42.5923102%" id="linearGradient-1">
            <stop stop-color="#C7D0E1" offset="0%"></stop>
            <stop stop-color="#E9ECF2" stop-opacity="0" offset="100%"></stop>
        </linearGradient>
        <linearGradient x1="100%" y1="58.6831199%" x2="9.43801466%" y2="58.6831199%" id="linearGradient-2">
            <stop stop-color="#D0DBEB" offset="0%"></stop>
            <stop stop-color="#B3B4B6" offset="100%"></stop>
        </linearGradient>
        <linearGradient x1="100%" y1="58.6831199%" x2="9.43801466%" y2="58.6831199%" id="linearGradient-3">
            <stop stop-color="#D0DBEB" offset="0%"></stop>
            <stop stop-color="#B3B4B6" offset="100%"></stop>
        </linearGradient>
        <linearGradient x1="50%" y1="0%" x2="50%" y2="100%" id="linearGradient-4">
            <stop stop-color="#D3DAE3" offset="0%"></stop>
            <stop stop-color="#B9C3D0" stop-opacity="0" offset="100%"></stop>
        </linearGradient>
        <linearGradient x1="50%" y1="0%" x2="50%" y2="100%" id="linearGradient-5">
            <stop stop-color="#D3DAE3" offset="0%"></stop>
            <stop stop-color="#B9C3D0" stop-opacity="0" offset="100%"></stop>
        </linearGradient>
        <linearGradient x1="50%" y1="0%" x2="50%" y2="34.725369%" id="linearGradient-6">
            <stop stop-color="#B9C1CF" offset="0%"></stop>
            <stop stop-color="#646F83" offset="100%"></stop>
        </linearGradient>
        <linearGradient x1="50%" y1="0%" x2="50%" y2="41.4813328%" id="linearGradient-7">
            <stop stop-color="#B5BBC4" offset="0%"></stop>
            <stop stop-color="#7E8A9C" offset="100%"></stop>
        </linearGradient>
        <linearGradient x1="50%" y1="0%" x2="50%" y2="100%" id="linearGradient-8">
            <stop stop-color="#CBD5E1" offset="0%"></stop>
            <stop stop-color="#455570" offset="100%"></stop>
        </linearGradient>
        <linearGradient x1="53.0196253%" y1="35.9259293%" x2="42.5148268%" y2="62.803523%" id="linearGradient-9">
            <stop stop-color="#ECF1F9" offset="0%"></stop>
            <stop stop-color="#B2C0D3" offset="100%"></stop>
        </linearGradient>
        <linearGradient x1="50%" y1="0%" x2="50%" y2="100%" id="linearGradient-10">
            <stop stop-color="#DDE3E9" offset="0%"></stop>
            <stop stop-color="#8191AD" offset="100%"></stop>
        </linearGradient>
        <linearGradient x1="53.1833069%" y1="31.9365388%" x2="33.619461%" y2="64.0483407%" id="linearGradient-11">
            <stop stop-color="#EAEFF8" offset="0%"></stop>
            <stop stop-color="#B3C0D4" offset="100%"></stop>
        </linearGradient>
        <linearGradient x1="50%" y1="0%" x2="50%" y2="100%" id="linearGradient-12">
            <stop stop-color="#A5B2C5" offset="0%"></stop>
            <stop stop-color="#EEEEEE" offset="100%"></stop>
        </linearGradient>
        <linearGradient x1="66.8398521%" y1="24.0579239%" x2="24.745502%" y2="87.1937753%" id="linearGradient-13">
            <stop stop-color="#A7B4C6" offset="0%"></stop>
            <stop stop-color="#EEEEEE" offset="100%"></stop>
        </linearGradient>
        <linearGradient x1="100%" y1="43.8220497%" x2="0%" y2="69.8995072%" id="linearGradient-14">
            <stop stop-color="#AEBACA" offset="0%"></stop>
            <stop stop-color="#D8D8D8" offset="100%"></stop>
        </linearGradient>
    </defs>
    <g id="☀︎No-Data" stroke="none" stroke-width="1" fill="none" fill-rule="evenodd">
        <g id="☾No-Data备份">
            <g id="编组-19备份">
                <rect id="矩形" x="0" y="0" width="400" height="400"></rect>
            </g>
            <g id="编组-21备份" transform="translate(48.000000, 76.000000)">
                <g id="编组-24">
                    <ellipse id="椭圆形" fill="url(#linearGradient-1)" fill-rule="nonzero" cx="151.25" cy="182.6" rx="151.25" ry="64.9"></ellipse>
                    <g id="编组-9" transform="translate(40.700000, 102.300000)">
                        <path d="M11.9632975,40.7 C0.252172625,38.4937897 -2.86075144,31.6836173 2.62452534,20.2694827 C4.36260052,16.6527784 4.36260052,11.2910635 5.62966842,8.1621621 C7.22979755,4.21079823 9.75324141,1.49007753 13.2,0 C20.3962878,3.57185847 23.9944317,10.3283527 23.9944317,20.2694827 C26.7243424,26.8933242 27.130765,31.6675113 25.2136995,34.5920442 C22.7200938,38.3961039 18.3032932,40.4320891 11.9632975,40.7 Z" id="路径-11" fill="url(#linearGradient-2)" fill-rule="nonzero"></path>
                        <line x1="13.2" y1="40.49375" x2="13.2" y2="53.00625" id="直线-7" stroke="#979797" stroke-width="1.848" stroke-linecap="square"></line>
                    </g>
                    <g id="编组-9备份" opacity="0.701660156" transform="translate(223.300000, 102.300000)">
                        <path d="M7.17797852,24.42 C0.151303575,23.0962738 -1.71645086,19.0101704 1.57471521,12.1616896 C2.61756031,9.99166704 2.61756031,6.77463812 3.37780105,4.89729726 C4.33787853,2.52647894 5.85194485,0.894046517 7.92,0 C12.2377727,2.14311508 14.396659,6.19701162 14.396659,12.1616896 C16.0346055,16.1359945 16.278459,19.0005068 15.1282197,20.7552265 C13.6320563,23.0376623 10.9819759,24.2592535 7.17797852,24.42 Z" id="路径-11" fill="url(#linearGradient-3)" fill-rule="nonzero"></path>
                        <line x1="7.92" y1="24.29625" x2="7.92" y2="31.80375" id="直线-7" stroke="#979797" stroke-width="1.1088" stroke-linecap="square"></line>
                    </g>
                    <path d="M200.459519,27 L263.000199,27 C263.039113,15.8146141 257.30745,11.642381 245.805011,14.4833008 C242.009139,4.10546624 236.512049,-0.69528416 229.313741,0.0810496312 C222.115434,0.857383423 218.712017,4.38442953 219.103489,10.662188 C212.458407,8.66490777 207.390141,9.24731494 203.898694,12.4094095 C200.407246,15.571504 199.260854,20.4350342 200.459519,27 Z" id="路径-15" fill="url(#linearGradient-4)" fill-rule="nonzero" opacity="0.5"></path>
                    <path d="M34.2924368,58.0604921 L74.0932015,58.0604921 C74.1179661,50.9927814 70.4703473,48.3564722 63.1502184,50.1515644 C60.7345324,43.5941213 57.2361952,40.5606707 52.6552069,41.0512128 C48.0742186,41.5417549 45.9082905,43.7703898 46.1574225,47.7371175 C41.9285052,46.4750959 38.7030714,46.8431016 36.481121,48.8411345 C34.2591706,50.8391674 33.5296092,53.9122866 34.2924368,58.0604921 Z" id="路径-15备份" fill="url(#linearGradient-5)" fill-rule="nonzero" opacity="0.404292225"></path>
                </g>
                <g id="编组-13" transform="translate(77.000000, 36.000000)">
                    <g id="编组备份-2" fill-rule="nonzero">
                        <g id="编组-14" transform="translate(0.000000, 20.400000)">
                            <polygon id="矩形备份-33" fill="url(#linearGradient-6)" opacity="0.697939918" points="14.4 18.6532164 69.58313 1.42108547e-14 69.58313 99.2760621 14.4 84.7684474"></polygon>
                            <polygon id="矩形备份-34" fill="url(#linearGradient-7)" transform="translate(102.591565, 53.726608) scale(-1, 1) translate(-102.591565, -53.726608) " points="69.58313 15.7408374 99.2390189 8.66978836 135.6 -2.16589076e-13 135.6 104.394245 127.18313 107.453216 69.58313 81.6401726"></polygon>
                            <polygon id="矩形" fill="url(#linearGradient-8)" points="14.4 18.6532164 78 36.9841842 78 107.453216 14.4 84.7684474"></polygon>
                            <polygon id="矩形备份-35" fill="url(#linearGradient-9)" points="14.4 18.6532164 78 36.9841842 64.1847948 69.2448028 9.09494702e-13 47.238031"></polygon>
                            <polygon id="矩形备份-32" fill="url(#linearGradient-10)" transform="translate(106.800000, 63.053216) scale(-1, 1) translate(-106.800000, -63.053216) " points="78 18.6532164 135.6 36.9841842 135.6 107.453216 78 81.6401726"></polygon>
                            <polygon id="矩形备份-36" fill="url(#linearGradient-11)" transform="translate(114.417468, 42.492820) scale(-1, 1) translate(-114.417468, -42.492820) " points="93.2349363 15.7408374 150.834936 36.9841842 138.684893 69.2448028 78.000001 42.9166938"></polygon>
                        </g>
                        <g id="编组-32" transform="translate(90.000000, 0.000000)">
                            <polygon id="路径-4" fill="url(#linearGradient-12)" points="4.54747351e-13 6.3772665 6.16889005 2.48157407 6.16889005 20.4"></polygon>
                            <polygon id="路径-29" fill="url(#linearGradient-13)" points="9.40565933 22.0415635 15.5013135 0 25.0705283 8.63341514"></polygon>
                            <polygon id="路径-30" fill="url(#linearGradient-14)" points="11.9788043 24.0712685 26.4941183 14.9140707 26.4941183 21.7800747"></polygon>
                        </g>
                    </g>
                    <g id="编组-3" transform="translate(34.000000, 84.000000)">
                        <line x1="5.4" y1="0.72" x2="4.68" y2="29.52" id="直线-11" stroke="#637490"></line>
                        <line x1="4.53033733" y1="29.8207615" x2="0.38993285" y2="34.6821713" id="直线-12" stroke="#8B9AB3"></line>
                        <line x1="11.742449" y1="32.8344343" x2="9.36" y2="38.88" id="直线-13" stroke="#8B9AB3"></line>
                        <line x1="11.88" y1="2.88" x2="11.88" y2="32.4" id="直线-11备份" stroke="#637490"></line>
                        <g id="编组-5" stroke="#44556F">
                            <line x1="5.31566471" y1="0.209263234" x2="0.179738346" y2="34.8767662" id="直线-8"></line>
                            <line x1="11.88" y1="1.95683345" x2="9.27151071" y2="39.0388501" id="直线-9"></line>
                            <line x1="5.13747726" y1="2.83920484" x2="11.16" y2="4.34326234" id="直线-10"></line>
                            <line x1="4.41651714" y1="7.88575774" x2="11.16" y2="9.72266941" id="直线-10备份"></line>
                            <line x1="3.6658319" y1="13.4829811" x2="10.5757554" y2="15.652579" id="直线-10备份-2"></line>
                            <line x1="2.78986917" y1="19.0980059" x2="10.44" y2="21.5364734" id="直线-10备份-3"></line>
                            <line x1="1.93323461" y1="24.816735" x2="9.77358839" y2="27.269727" id="直线-10备份-4"></line>
                            <line x1="1.44" y1="30.96" x2="9.41497609" y2="33.5686848" id="直线-10备份-5"></line>
                        </g>
                    </g>
                </g>
            </g>
        </g>
    </g>
</svg>