<?xml version="1.0" encoding="UTF-8"?>
<svg width="16px" height="16px" viewBox="0 0 16 16" version="1.1" xmlns="http://www.w3.org/2000/svg" xmlns:xlink="http://www.w3.org/1999/xlink">
    <title>复制</title>
    <g id="数据-成本明细" stroke="none" stroke-width="1" fill="none" fill-rule="evenodd">
        <g id="复制" stroke="#595959">
            <rect id="矩形" fill="#595959" opacity="0" x="0.5" y="0.5" width="15" height="15"></rect>
            <g id="编组" transform="translate(1.666667, 1.666667)" stroke-linejoin="round">
                <path d="M2.66666667,2.4772 L2.66666667,0.9375 C2.66666667,0.419733333 3.0864,0 3.60416667,0 L11.7291667,0 C12.2469333,0 12.6666667,0.419733333 12.6666667,0.9375 L12.6666667,9.0625 C12.6666667,9.58026667 12.2469333,10 11.7291667,10 L10.1721,10" id="路径" stroke-linecap="round"></path>
                <path d="M9.0625,2.66666667 L0.9375,2.66666667 C0.419733333,2.66666667 0,3.0864 0,3.60416667 L0,11.7291667 C0,12.2469333 0.419733333,12.6666667 0.9375,12.6666667 L9.0625,12.6666667 C9.58026667,12.6666667 10,12.2469333 10,11.7291667 L10,3.60416667 C10,3.0864 9.58026667,2.66666667 9.0625,2.66666667 Z" id="路径"></path>
            </g>
        </g>
    </g>
</svg>