<?xml version="1.0" encoding="UTF-8"?>
<svg width="16px" height="16px" viewBox="0 0 16 16" version="1.1" xmlns="http://www.w3.org/2000/svg" xmlns:xlink="http://www.w3.org/1999/xlink">
    <title>保存</title>
    <g id="数据-成本明细" stroke="none" stroke-width="1" fill="none" fill-rule="evenodd">
        <g id="保存">
            <g id="编组" transform="translate(2.000000, 1.916667)">
                <path d="M0,1.16666667 C0,0.614383333 0.447716667,0.166666667 1,0.166666667 L9.42713333,0.166666667 L12,2.56883333 L12,11.1666667 C12,11.7189667 11.5523,12.1666667 11,12.1666667 L1,12.1666667 C0.447716667,12.1666667 0,11.7189667 0,11.1666667 L0,1.16666667 Z" id="路径" stroke="#595959" stroke-linejoin="round"></path>
                <path d="M6.00276667,0.166666667 L6,2.6282 C6,2.7415 5.85076667,2.83333333 5.66666667,2.83333333 L3,2.83333333 C2.8159,2.83333333 2.66666667,2.7415 2.66666667,2.6282 L2.66666667,0.166666667" id="路径"></path>
                <path d="M6.00276667,0.166666667 L6,2.6282 C6,2.7415 5.85076667,2.83333333 5.66666667,2.83333333 L3,2.83333333 C2.8159,2.83333333 2.66666667,2.7415 2.66666667,2.6282 L2.66666667,0.166666667 L6.00276667,0.166666667 Z" id="路径" stroke="#595959" stroke-linejoin="round"></path>
                <line x1="1" y1="0.166666667" x2="9.42713333" y2="0.166666667" id="路径" stroke="#595959" stroke-linecap="round" stroke-linejoin="round"></line>
                <line x1="2.66666667" y1="6.83333333" x2="9.33333333" y2="6.83333333" id="路径" stroke="#595959" stroke-linecap="round" stroke-linejoin="round"></line>
                <line x1="2.66666667" y1="9.5" x2="6.00276667" y2="9.5" id="路径" stroke="#595959" stroke-linecap="round" stroke-linejoin="round"></line>
            </g>
            <rect id="矩形" stroke="#595959" fill="#595959" opacity="0" x="0.5" y="0.5" width="15" height="15"></rect>
        </g>
    </g>
</svg>