<svg fill="none" height="40" viewBox="0 0 40 40" width="40" xmlns="http://www.w3.org/2000/svg" xmlns:xlink="http://www.w3.org/1999/xlink"><filter id="a" color-interpolation-filters="sRGB" filterUnits="userSpaceOnUse" height="40" width="40" x="0" y=".000005"><feFlood flood-opacity="0" result="BackgroundImageFix"/><feColorMatrix in="SourceAlpha" result="hardAlpha" type="matrix" values="0 0 0 0 0 0 0 0 0 0 0 0 0 0 0 0 0 0 127 0"/><feMorphology in="SourceAlpha" operator="erode" radius="1.33333" result="effect1_dropShadow_19233_43482"/><feOffset dy="1.33333"/><feGaussianBlur stdDeviation="1.33333"/><feColorMatrix type="matrix" values="0 0 0 0 0.0392157 0 0 0 0 0.0509804 0 0 0 0 0.0705882 0 0 0 0.06 0"/><feBlend in2="BackgroundImageFix" mode="normal" result="effect1_dropShadow_19233_43482"/><feColorMatrix in="SourceAlpha" result="hardAlpha" type="matrix" values="0 0 0 0 0 0 0 0 0 0 0 0 0 0 0 0 0 0 127 0"/><feOffset dy="1.33333"/><feGaussianBlur stdDeviation="2"/><feColorMatrix type="matrix" values="0 0 0 0 0.0392157 0 0 0 0 0.0509804 0 0 0 0 0.0705882 0 0 0 0.1 0"/><feBlend in2="effect1_dropShadow_19233_43482" mode="normal" result="effect2_dropShadow_19233_43482"/><feBlend in="SourceGraphic" in2="effect2_dropShadow_19233_43482" mode="normal" result="shape"/></filter><filter id="b" color-interpolation-filters="sRGB" filterUnits="userSpaceOnUse" height="36" width="32" x="4" y="2.66667"><feFlood flood-opacity="0" result="BackgroundImageFix"/><feBlend in="SourceGraphic" in2="BackgroundImageFix" mode="normal" result="shape"/><feColorMatrix in="SourceAlpha" result="hardAlpha" type="matrix" values="0 0 0 0 0 0 0 0 0 0 0 0 0 0 0 0 0 0 127 0"/><feOffset dy="4"/><feGaussianBlur stdDeviation="2"/><feComposite in2="hardAlpha" k2="-1" k3="1" operator="arithmetic"/><feColorMatrix type="matrix" values="0 0 0 0 0.992157 0 0 0 0 0.517647 0 0 0 0 0.517647 0 0 0 0.1 0"/><feBlend in2="shape" mode="normal" result="effect1_innerShadow_19233_43482"/></filter><filter id="c" color-interpolation-filters="sRGB" filterUnits="userSpaceOnUse" height="18.85" width="19.075" x="10.6808" y="9.91644"><feFlood flood-opacity="0" result="BackgroundImageFix"/><feColorMatrix in="SourceAlpha" result="hardAlpha" type="matrix" values="0 0 0 0 0 0 0 0 0 0 0 0 0 0 0 0 0 0 127 0"/><feOffset dx=".337504" dy=".675008"/><feGaussianBlur stdDeviation=".337504"/><feComposite in2="hardAlpha" operator="out"/><feColorMatrix type="matrix" values="0 0 0 0 0.988235 0 0 0 0 0.45098 0 0 0 0 0.45098 0 0 0 0.4 0"/><feBlend in2="BackgroundImageFix" mode="normal" result="effect1_dropShadow_19233_43482"/><feBlend in="SourceGraphic" in2="effect1_dropShadow_19233_43482" mode="normal" result="shape"/><feColorMatrix in="SourceAlpha" result="hardAlpha" type="matrix" values="0 0 0 0 0 0 0 0 0 0 0 0 0 0 0 0 0 0 127 0"/><feOffset dx="-.562506" dy="1.12501"/><feGaussianBlur stdDeviation=".562506"/><feComposite in2="hardAlpha" k2="-1" k3="1" operator="arithmetic"/><feColorMatrix type="matrix" values="0 0 0 0 1 0 0 0 0 1 0 0 0 0 1 0 0 0 0.2 0"/><feBlend in2="shape" mode="normal" result="effect2_innerShadow_19233_43482"/></filter><linearGradient id="d" gradientUnits="userSpaceOnUse" x1="20" x2="20" y1="2.66667" y2="34.6667"><stop offset="0" stop-color="#f5f9fe"/><stop offset="1" stop-color="#fff"/></linearGradient><linearGradient id="e" gradientUnits="userSpaceOnUse" x1="26.021" x2="14.4447" y1="10.1638" y2="30.2285"><stop offset="0" stop-color="#ff8484"/><stop offset=".855332" stop-color="#f53f3f"/></linearGradient><linearGradient id="f" gradientUnits="userSpaceOnUse" x1="28.4434" x2="8.30302" y1="10.7185" y2="20.5954"><stop offset="0" stop-color="#fff"/><stop offset=".703503" stop-color="#fff"/><stop offset="1" stop-color="#fff"/></linearGradient><clipPath id="g"><path d="m9.99976 8.66644h20v20h-20z"/></clipPath><g filter="url(#a)"><g filter="url(#b)"><circle cx="20" cy="18.6667" fill="url(#d)" r="16"/></g><circle cx="20" cy="18.6667" r="15.6667" stroke="#fff" stroke-width=".666667"/><g clip-path="url(#g)"><g filter="url(#c)"><path d="m19.9933 27.4164c-4.8326 0-8.75-3.9173-8.75-8.75 0-4.8326 3.9174-8.74996 8.75-8.74996 4.8327 0 8.75 3.91736 8.75 8.74996 0 4.8327-3.9173 8.75-8.75 8.75z" fill="url(#e)"/><path d="m19.9933 10.2289c4.6601 0 8.4375 3.7775 8.4375 8.4375 0 4.6601-3.7774 8.4375-8.4375 8.4375-4.66 0-8.4375-3.7774-8.4375-8.4375 0-4.66 3.7775-8.4375 8.4375-8.4375z" stroke="url(#f)" stroke-opacity=".2" stroke-width=".624949"/></g><path d="m20.3608 21.381c.5412 0 .9805.4362.9805.9736-.0002.5372-.4394.9727-.9805.9727-.5409-.0003-.9793-.4356-.9795-.9727 0-.5372.4385-.9734.9795-.9736zm.3135-5.8379c.3608.0001.6471.3049.624.665l-.2471 3.8399c-.0211.3288-.2935.5847-.623.5849h-.1338c-.3296 0-.6029-.256-.624-.5849l-.2461-3.8399c-.0231-.36.2623-.6648.623-.665z" fill="#21252c" fill-opacity=".16"/><path d="m19.7303 20.7543c.5411.0003.9795.4365.9795.9737-.0001.537-.4385.9724-.9795.9726-.5411 0-.9803-.4354-.9804-.9726 0-.5374.4392-.9737.9804-.9737zm.3125-5.8379c.3609.0001.6472.3049.6241.6651l-.2471 3.8398c-.0211.3289-.2936.5848-.623.585h-.1338c-.3297 0-.603-.256-.6241-.585l-.2461-3.8398c-.0231-.3601.2623-.6649.6231-.6651z" fill="#fff"/></g></g></svg>