<svg fill="none" height="38" viewBox="0 0 38 38" width="38" xmlns="http://www.w3.org/2000/svg" xmlns:xlink="http://www.w3.org/1999/xlink"><filter id="a" color-interpolation-filters="sRGB" filterUnits="userSpaceOnUse" height="37.3333" width="37.3333" x="-.00001" y="-.000007"><feFlood flood-opacity="0" result="BackgroundImageFix"/><feColorMatrix in="SourceAlpha" result="hardAlpha" type="matrix" values="0 0 0 0 0 0 0 0 0 0 0 0 0 0 0 0 0 0 127 0"/><feMorphology in="SourceAlpha" operator="erode" radius="0.888889" result="effect1_dropShadow_19233_43509"/><feOffset dy=".888889"/><feGaussianBlur stdDeviation=".888889"/><feColorMatrix type="matrix" values="0 0 0 0 0.0392157 0 0 0 0 0.0509804 0 0 0 0 0.0705882 0 0 0 0.06 0"/><feBlend in2="BackgroundImageFix" mode="normal" result="effect1_dropShadow_19233_43509"/><feColorMatrix in="SourceAlpha" result="hardAlpha" type="matrix" values="0 0 0 0 0 0 0 0 0 0 0 0 0 0 0 0 0 0 127 0"/><feOffset dy=".888889"/><feGaussianBlur stdDeviation="1.33333"/><feColorMatrix type="matrix" values="0 0 0 0 0.0392157 0 0 0 0 0.0509804 0 0 0 0 0.0705882 0 0 0 0.1 0"/><feBlend in2="effect1_dropShadow_19233_43509" mode="normal" result="effect2_dropShadow_19233_43509"/><feBlend in="SourceGraphic" in2="effect2_dropShadow_19233_43509" mode="normal" result="shape"/></filter><filter id="b" color-interpolation-filters="sRGB" filterUnits="userSpaceOnUse" height="36" width="32" x="2.66666" y="1.77777"><feFlood flood-opacity="0" result="BackgroundImageFix"/><feBlend in="SourceGraphic" in2="BackgroundImageFix" mode="normal" result="shape"/><feColorMatrix in="SourceAlpha" result="hardAlpha" type="matrix" values="0 0 0 0 0 0 0 0 0 0 0 0 0 0 0 0 0 0 127 0"/><feOffset dy="4"/><feGaussianBlur stdDeviation="2"/><feComposite in2="hardAlpha" k2="-1" k3="1" operator="arithmetic"/><feColorMatrix type="matrix" values="0 0 0 0 0.596417 0 0 0 0 0.663096 0 0 0 0 1 0 0 0 0.1 0"/><feBlend in2="shape" mode="normal" result="effect1_innerShadow_19233_43509"/></filter><filter id="c" color-interpolation-filters="sRGB" filterUnits="userSpaceOnUse" height="18.85" width="19.075" x="9.35452" y="9.02425"><feFlood flood-opacity="0" result="BackgroundImageFix"/><feColorMatrix in="SourceAlpha" result="hardAlpha" type="matrix" values="0 0 0 0 0 0 0 0 0 0 0 0 0 0 0 0 0 0 127 0"/><feOffset dx=".337504" dy=".675008"/><feGaussianBlur stdDeviation=".337504"/><feComposite in2="hardAlpha" operator="out"/><feColorMatrix type="matrix" values="0 0 0 0 0.643137 0 0 0 0 0.737255 0 0 0 0 0.992157 0 0 0 0.4 0"/><feBlend in2="BackgroundImageFix" mode="normal" result="effect1_dropShadow_19233_43509"/><feBlend in="SourceGraphic" in2="effect1_dropShadow_19233_43509" mode="normal" result="shape"/><feColorMatrix in="SourceAlpha" result="hardAlpha" type="matrix" values="0 0 0 0 0 0 0 0 0 0 0 0 0 0 0 0 0 0 127 0"/><feOffset dx="-.562506" dy="1.12501"/><feGaussianBlur stdDeviation=".562506"/><feComposite in2="hardAlpha" k2="-1" k3="1" operator="arithmetic"/><feColorMatrix type="matrix" values="0 0 0 0 1 0 0 0 0 1 0 0 0 0 1 0 0 0 0.2 0"/><feBlend in2="shape" mode="normal" result="effect2_innerShadow_19233_43509"/></filter><linearGradient id="d" gradientUnits="userSpaceOnUse" x1="18.6667" x2="18.6667" y1="1.77777" y2="33.7778"><stop offset="0" stop-color="#f5f9fe"/><stop offset="1" stop-color="#fff"/></linearGradient><linearGradient id="e" gradientUnits="userSpaceOnUse" x1="24.6947" x2="13.1184" y1="9.27164" y2="29.3363"><stop offset="0" stop-color="#8098f9"/><stop offset=".855332" stop-color="#444ce7"/></linearGradient><linearGradient id="f" gradientUnits="userSpaceOnUse" x1="27.1171" x2="6.97669" y1="9.82633" y2="19.7032"><stop offset="0" stop-color="#fff"/><stop offset=".703503" stop-color="#fff"/><stop offset="1" stop-color="#fff"/></linearGradient><clipPath id="g"><path d="m8.67032 7.77753h20v20h-20z"/></clipPath><g filter="url(#a)"><g filter="url(#b)"><circle cx="18.6667" cy="17.7778" fill="url(#d)" r="16"/></g><circle cx="18.6667" cy="17.7778" r="15.6667" stroke="#fff" stroke-width=".666667"/><g clip-path="url(#g)"><g filter="url(#c)"><path d="m18.667 26.5242c-4.8326 0-8.74998-3.9173-8.74998-8.75 0-4.8326 3.91738-8.74995 8.74998-8.74995s8.75 3.91735 8.75 8.74995c0 4.8327-3.9174 8.75-8.75 8.75z" fill="url(#e)"/><path d="m18.667 9.33675c4.6601 0 8.4375 3.77745 8.4375 8.43745 0 4.6601-3.7774 8.4375-8.4375 8.4375-4.66 0-8.4375-3.7774-8.4375-8.4375 0-4.66 3.7775-8.43745 8.4375-8.43745z" stroke="url(#f)" stroke-opacity=".2" stroke-width=".624949"/></g><path d="m19.1657 15.784c.0806 0 .1465.065.1465.1455v5.0313c0 .1078.0781.2002.1846.2168l.8916.1367c.0711.011.124.0726.124.1445v.9317c-.0001.0803-.0652.1453-.1455.1455h-3.4033c-.0804-.0002-.1454-.0652-.1455-.1455v-.9317c0-.0719.0529-.1335.124-.1445l.8916-.1367c.1065-.0166.1845-.109.1845-.2168v-3.7031c-.0001-.1042-.0736-.1935-.1757-.2139l-.6299-.127c-.0681-.0136-.1172-.0731-.1172-.1425v-.8448c0-.0805.065-.1455.1455-.1455zm-.6816-2.7802c.5101 0 .9235.4139.9238.9248 0 .511-.4135.9257-.9238.9257s-.9239-.4147-.9239-.9257c.0003-.5108.4138-.9248.9239-.9248z" fill="#fff"/></g></g></svg>