<svg fill="none" height="38" viewBox="0 0 38 38" width="38" xmlns="http://www.w3.org/2000/svg" xmlns:xlink="http://www.w3.org/1999/xlink"><filter id="a" color-interpolation-filters="sRGB" filterUnits="userSpaceOnUse" height="37.3333" width="37.3333" x="-.00001" y="-.000007"><feFlood flood-opacity="0" result="BackgroundImageFix"/><feColorMatrix in="SourceAlpha" result="hardAlpha" type="matrix" values="0 0 0 0 0 0 0 0 0 0 0 0 0 0 0 0 0 0 127 0"/><feMorphology in="SourceAlpha" operator="erode" radius="0.888889" result="effect1_dropShadow_19233_43496"/><feOffset dy=".888889"/><feGaussianBlur stdDeviation=".888889"/><feColorMatrix type="matrix" values="0 0 0 0 0.0392157 0 0 0 0 0.0509804 0 0 0 0 0.0705882 0 0 0 0.06 0"/><feBlend in2="BackgroundImageFix" mode="normal" result="effect1_dropShadow_19233_43496"/><feColorMatrix in="SourceAlpha" result="hardAlpha" type="matrix" values="0 0 0 0 0 0 0 0 0 0 0 0 0 0 0 0 0 0 127 0"/><feOffset dy=".888889"/><feGaussianBlur stdDeviation="1.33333"/><feColorMatrix type="matrix" values="0 0 0 0 0.0392157 0 0 0 0 0.0509804 0 0 0 0 0.0705882 0 0 0 0.1 0"/><feBlend in2="effect1_dropShadow_19233_43496" mode="normal" result="effect2_dropShadow_19233_43496"/><feBlend in="SourceGraphic" in2="effect2_dropShadow_19233_43496" mode="normal" result="shape"/></filter><filter id="b" color-interpolation-filters="sRGB" filterUnits="userSpaceOnUse" height="36" width="32" x="2.66666" y="1.77777"><feFlood flood-opacity="0" result="BackgroundImageFix"/><feBlend in="SourceGraphic" in2="BackgroundImageFix" mode="normal" result="shape"/><feColorMatrix in="SourceAlpha" result="hardAlpha" type="matrix" values="0 0 0 0 0 0 0 0 0 0 0 0 0 0 0 0 0 0 127 0"/><feOffset dy="4"/><feGaussianBlur stdDeviation="2"/><feComposite in2="hardAlpha" k2="-1" k3="1" operator="arithmetic"/><feColorMatrix type="matrix" values="0 0 0 0 0.449957 0 0 0 0 0.989727 0 0 0 0 0.707936 0 0 0 0.1 0"/><feBlend in2="shape" mode="normal" result="effect1_innerShadow_19233_43496"/></filter><filter id="c" color-interpolation-filters="sRGB" filterUnits="userSpaceOnUse" height="18.625" width="18.0625" x="9.41812" y="9.09496"><feFlood flood-opacity="0" result="BackgroundImageFix"/><feBlend in="SourceGraphic" in2="BackgroundImageFix" mode="normal" result="shape"/><feColorMatrix in="SourceAlpha" result="hardAlpha" type="matrix" values="0 0 0 0 0 0 0 0 0 0 0 0 0 0 0 0 0 0 127 0"/><feOffset dx="-.562506" dy="1.12501"/><feGaussianBlur stdDeviation=".562506"/><feComposite in2="hardAlpha" k2="-1" k3="1" operator="arithmetic"/><feColorMatrix type="matrix" values="0 0 0 0 1 0 0 0 0 1 0 0 0 0 1 0 0 0 0.2 0"/><feBlend in2="shape" mode="normal" result="effect1_innerShadow_19233_43496"/></filter><filter id="d" color-interpolation-filters="sRGB" filterUnits="userSpaceOnUse" height="18.85" width="19.075" x="9.423" y="9.09656"><feFlood flood-opacity="0" result="BackgroundImageFix"/><feColorMatrix in="SourceAlpha" result="hardAlpha" type="matrix" values="0 0 0 0 0 0 0 0 0 0 0 0 0 0 0 0 0 0 127 0"/><feOffset dx=".337504" dy=".675008"/><feGaussianBlur stdDeviation=".337504"/><feComposite in2="hardAlpha" operator="out"/><feColorMatrix type="matrix" values="0 0 0 0 0.235294 0 0 0 0 0.796078 0 0 0 0 0.498039 0 0 0 0.4 0"/><feBlend in2="BackgroundImageFix" mode="normal" result="effect1_dropShadow_19233_43496"/><feBlend in="SourceGraphic" in2="effect1_dropShadow_19233_43496" mode="normal" result="shape"/><feColorMatrix in="SourceAlpha" result="hardAlpha" type="matrix" values="0 0 0 0 0 0 0 0 0 0 0 0 0 0 0 0 0 0 127 0"/><feOffset dx="-.562506" dy="1.12501"/><feGaussianBlur stdDeviation=".562506"/><feComposite in2="hardAlpha" k2="-1" k3="1" operator="arithmetic"/><feColorMatrix type="matrix" values="0 0 0 0 1 0 0 0 0 1 0 0 0 0 1 0 0 0 0.2 0"/><feBlend in2="shape" mode="normal" result="effect2_innerShadow_19233_43496"/></filter><linearGradient id="e" gradientUnits="userSpaceOnUse" x1="18.6667" x2="18.6667" y1="1.77777" y2="33.7778"><stop offset="0" stop-color="#f5f9fe"/><stop offset="1" stop-color="#fff"/></linearGradient><linearGradient id="f" gradientUnits="userSpaceOnUse" x1="24.7583" x2="13.182" y1="9.34235" y2="29.407"><stop offset="0" stop-color="#47a7ff"/><stop offset=".855332" stop-color="#327aff"/></linearGradient><linearGradient id="g"><stop offset="0" stop-color="#fff"/><stop offset=".703503" stop-color="#fff"/><stop offset="1" stop-color="#fff"/></linearGradient><linearGradient id="h" gradientUnits="userSpaceOnUse" x1="27.1807" x2="7.04029" xlink:href="#g" y1="9.89704" y2="19.7739"/><linearGradient id="i" gradientUnits="userSpaceOnUse" x1="24.7632" x2="13.1869" y1="9.34395" y2="29.4086"><stop offset="0" stop-color="#3ccb7f"/><stop offset=".855332" stop-color="#09a158"/></linearGradient><linearGradient id="j" gradientUnits="userSpaceOnUse" x1="27.1856" x2="7.04517" xlink:href="#g" y1="9.89864" y2="19.7755"/><clipPath id="k"><path d="m8.7355 7.84656h20v20h-20z"/></clipPath><g filter="url(#a)"><g filter="url(#b)"><circle cx="18.6667" cy="17.7778" fill="url(#e)" r="16"/></g><circle cx="18.6667" cy="17.7778" r="15.6667" stroke="#fff" stroke-width=".666667"/><g clip-path="url(#k)"><g filter="url(#c)"><path d="m18.7306 26.595c-4.8326 0-8.74998-3.9174-8.74998-8.75 0-4.8327 3.91738-8.75004 8.74998-8.75004s8.75 3.91734 8.75 8.75004c0 4.8326-3.9174 8.75-8.75 8.75z" fill="url(#f)"/></g><path d="m18.7306 9.40746c4.6601 0 8.4375 3.77744 8.4375 8.43754 0 4.66-3.7774 8.4375-8.4375 8.4375-4.66 0-8.4375-3.7775-8.4375-8.4375 0-4.6601 3.7775-8.43754 8.4375-8.43754z" stroke="url(#h)" stroke-opacity=".2" stroke-width=".624949"/><path d="m19.2291 15.858c.0805 0 .1464.065.1464.1455v5.0312c0 .1079.0781.2002.1846.2168l.8916.1368c.0711.0109.124.0725.124.1445v.9316c0 .0804-.0651.1454-.1455.1455h-3.4033c-.0803-.0001-.1454-.0651-.1455-.1455v-.9316c0-.072.0529-.1336.124-.1445l.8916-.1368c.1065-.0165.1846-.1089.1846-.2168v-3.7031c-.0002-.1041-.0737-.1934-.1758-.2138l-.6299-.127c-.0681-.0136-.1171-.0731-.1171-.1426v-.8447c0-.0805.065-.1455.1455-.1455zm-.6836-2.7803c.5101 0 .9235.414.9238.9248 0 .5111-.4135.9258-.9238.9258-.5102-.0001-.9239-.4148-.9239-.9258.0003-.5107.4138-.9247.9239-.9248z" fill="#fff"/><g filter="url(#d)"><path d="m18.7355 26.5966c4.8325 0 8.75-3.9176 8.75-8.75 0-4.8325-3.9175-8.75004-8.75-8.75004s-8.75 3.91754-8.75 8.75004c0 4.8324 3.9175 8.75 8.75 8.75z" fill="url(#i)"/><path d="m18.7355 9.40906c4.6599 0 8.4375 3.77754 8.4375 8.43754 0 4.6599-3.7776 8.4375-8.4375 8.4375s-8.4375-3.7776-8.4375-8.4375c0-4.66 3.7776-8.43754 8.4375-8.43754z" stroke="url(#j)" stroke-opacity=".2" stroke-width=".624949"/></g><g clip-rule="evenodd" fill-rule="evenodd"><path d="m23.4331 15.5134.6875.6874c.1898.1899.1898.4976 0 .6875l-5.4997 5.4997c-.0731.073-.1635.1179-.258.1348l-.0571.0067h-.0574c-.1147-.0067-.2274-.0539-.315-.1415l-3.0936-3.0936c-.1898-.1898-.1898-.4976 0-.6875l.6875-.6874c.1898-.1899.4976-.1899.6874 0l2.0624 2.0622 4.4685-4.4683c.1899-.1899.4977-.1899.6875 0z" fill="#21252c" fill-opacity=".16"/><path d="m22.8118 14.8835.6874.6874c.1899.1899.1899.4977 0 .6875l-5.4997 5.4997c-.073.073-.1635.118-.258.1348l-.057.0068h-.0574c-.1147-.0068-.2274-.054-.315-.1416l-3.0936-3.0936c-.1899-.1898-.1899-.4976 0-.6874l.6874-.6875c.1899-.1898.4977-.1898.6875 0l2.0624 2.0623 4.4685-4.4684c.1898-.1899.4976-.1899.6875 0z" fill="#fff"/></g></g></g></svg>