<?xml version="1.0" encoding="UTF-8"?>
<svg width="15px" height="14px" viewBox="0 0 15 14" version="1.1" xmlns="http://www.w3.org/2000/svg" xmlns:xlink="http://www.w3.org/1999/xlink">
    <title>关闭</title>
    <g id="页面-1" stroke="none" stroke-width="1" fill="none" fill-rule="evenodd">
        <g id="3.Navigation/1.NavigationMenu/1.顶部导航/3.用户栏显示" transform="translate(-1795.187304, -237.000000)">
            <g id="用户菜单栏" transform="translate(1780.000000, 60.000000)">
                <g id="5" transform="translate(0.000000, 164.000000)">
                    <g id="退出登录" transform="translate(16.000000, 9.000000)">
                        <g id="关闭" transform="translate(0.000000, 4.000000)">
                            <rect id="矩形" fill="#000000" opacity="0" x="0" y="0" width="14" height="14"></rect>
                            <path d="M9.90800781,1.4875 C9.97710772,1.4875 10.0432802,1.5000337 10.1043759,1.5229517 L10.1144531,1.50800781 C12.0955078,2.603125 13.4367188,4.71269531 13.4367188,7.13535156 C13.4367188,10.6845703 10.5601562,13.5611328 7.0109375,13.5611328 C3.46171875,13.5611328 0.58515625,10.6845703 0.58515625,7.13535156 C0.58515625,4.96841406 1.65741625,3.05221656 3.29995225,1.88874306 L3.50820313,1.74726563 C3.5898474,1.70992715 3.68018529,1.68574219 3.77617188,1.68574219 C4.08499829,1.68574219 4.33535156,1.93609546 4.33535156,2.24492188 C4.33535156,2.44469754 4.22877252,2.62929787 4.05576172,2.7291857 C4.05478975,2.72974687 4.05381651,2.73030489 4.05284202,2.73085975 C2.63730469,3.68183594 1.70488281,5.29921875 1.70488281,7.13535156 C1.70488281,10.0652344 4.08105469,12.4414063 7.0109375,12.4414063 C9.94082031,12.4414063 12.3169922,10.0652344 12.3169922,7.13535156 C12.3169922,5.19251239 11.2719131,3.49315041 9.71273909,2.56824972 C9.65484005,2.5491312 9.60222095,2.51871483 9.55577059,2.48099661 L9.49238281,2.44453125 L9.50155824,2.43071384 C9.40687986,2.33054457 9.34882813,2.19539148 9.34882813,2.04667969 C9.34882813,1.73785327 9.5991814,1.4875 9.90800781,1.4875 Z M7,0.631640625 C7.30898438,0.631640625 7.56054688,0.881835938 7.56054688,1.1921875 L7.56054688,7.20371094 C7.56054688,7.51269531 7.30898438,7.76425781 7,7.76425781 C6.69101563,7.76425781 6.43945313,7.5140625 6.43945313,7.20371094 L6.43945313,1.1921875 C6.43945313,0.883203125 6.68964844,0.631640625 7,0.631640625 Z" id="Combined-Shape" fill-opacity="0.85" fill="#FFFFFF"></path>
                        </g>
                    </g>
                </g>
            </g>
        </g>
    </g>
</svg>