<?xml version="1.0" encoding="UTF-8"?>
<svg width="24px" height="24px" viewBox="0 0 24 24" version="1.1" xmlns="http://www.w3.org/2000/svg" xmlns:xlink="http://www.w3.org/1999/xlink">
    <title>院区icon</title>
    <g id="页面-4" stroke="none" stroke-width="1" fill="none" fill-rule="evenodd">
        <g id="3.Navigation/1.NavigationMenu/1.顶部导航/2.有重点关注" transform="translate(-1714.000000, -16.000000)">
            <g id="院区组" transform="translate(1702.000000, 0.000000)">
                <g id="院区icon" transform="translate(12.000000, 16.000000)">
                    <rect id="Rectangle" fill="#000000" fill-rule="nonzero" opacity="0" x="0" y="0" width="24" height="24"></rect>
                    <path d="M19.9936246,20.7397432 L19.9936246,4.26996555 L17.1534471,2 L7.69910619,5.23833386 L7.69910619,6.04885687 L16.2846428,3.39680551 L16.2846428,21.9285938 L22,21.9285938 L22,20.7384904 L19.9936246,20.7384904 L19.9936246,20.7397432 Z M4.62266392,15.6661447 L9.12419526,14.839336 L9.12419526,12.7472596 L4.62266392,13.8321328 L4.62266392,15.6673974 L4.62266392,15.6661447 Z M4.62266392,21.9561541 L9.12419526,21.9561541 L9.12419526,19.7588475 L4.62266392,20.0582524 L4.62266392,21.9561541 L4.62266392,21.9561541 Z M4.62266392,18.8005011 L9.12419526,18.4021297 L9.12419526,16.311306 L4.62266392,17.0053241 L4.62266392,18.8005011 Z M4.62266392,12.470404 L9.12419526,11.3341685 L9.12419526,9.15941121 L4.62266392,10.5562167 L4.62266392,12.470404 L4.62266392,12.470404 Z M14.1170073,7.06232383 L11.5755985,5.64672722 L2.00500031,8.80864391 L2,22 L3.26007875,22 L3.26007875,9.4475415 L10.4217764,7.28531162 L10.4217764,21.932352 L14.1182574,21.932352 L14.1182574,7.06232383 L14.1170073,7.06232383 Z" id="Shape" fill-opacity="0.85" fill="#FFFFFF"></path>
                </g>
            </g>
        </g>
    </g>
</svg>