<?xml version="1.0" encoding="UTF-8"?>
<svg width="270px" height="152px" viewBox="0 0 270 152" version="1.1" xmlns="http://www.w3.org/2000/svg" xmlns:xlink="http://www.w3.org/1999/xlink">
    <title>画板</title>
    <defs>
        <rect id="path-1" x="0" y="0" width="270" height="152"></rect>
        <linearGradient x1="50%" y1="100%" x2="50%" y2="3.061617e-15%" id="linearGradient-3">
            <stop stop-color="#FFFFFF" offset="0%"></stop>
            <stop stop-color="#C6E2FF" offset="100%"></stop>
        </linearGradient>
        <rect id="path-4" x="37.0156323" y="84.1492086" width="270" height="152" rx="8"></rect>
        <linearGradient x1="22.2920186%" y1="50%" x2="100%" y2="50%" id="linearGradient-6">
            <stop stop-color="#FFFFFF" stop-opacity="0.500464379" offset="0%"></stop>
            <stop stop-color="#FFFFFF" stop-opacity="0" offset="100%"></stop>
        </linearGradient>
        <rect id="path-7" x="37.0156323" y="84.1492086" width="270" height="152" rx="8"></rect>
        <linearGradient x1="0%" y1="50%" x2="100%" y2="50%" id="linearGradient-9">
            <stop stop-color="#FFFFFF" stop-opacity="0.500464379" offset="0%"></stop>
            <stop stop-color="#FFFFFF" stop-opacity="0" offset="100%"></stop>
        </linearGradient>
        <rect id="path-10" x="37" y="84" width="270" height="152" rx="8"></rect>
        <linearGradient x1="0%" y1="50%" x2="100%" y2="50%" id="linearGradient-12">
            <stop stop-color="#FFFFFF" stop-opacity="0.500464379" offset="0%"></stop>
            <stop stop-color="#FFFFFF" stop-opacity="0" offset="100%"></stop>
        </linearGradient>
    </defs>
    <g id="画板" stroke="none" stroke-width="1" fill="none" fill-rule="evenodd">
        <g id="编组">
            <mask id="mask-2" fill="white">
                <use xlink:href="#path-1"></use>
            </mask>
            <g id="蒙版"></g>
            <g mask="url(#mask-2)">
                <g transform="translate(-37.000000, -84.000000)">
                    <rect id="path-2" stroke="none" fill="url(#linearGradient-3)" fill-rule="nonzero" x="37.0156323" y="84.1492086" width="270" height="152" rx="8"></rect>
                    <mask id="mask-5" fill="white">
                        <use xlink:href="#path-4"></use>
                    </mask>
                    <g id="path-2" stroke="none" fill="none"></g>
                    <path d="M169.339786,155.875753 L306.839786,155.875753 L306.839786,155.875753 L306.839786,252.875753 L169.339786,252.875753 C142.553976,252.875753 120.839786,231.161563 120.839786,204.375753 C120.839786,177.589942 142.553976,155.875753 169.339786,155.875753 Z" id="矩形备份-11" stroke="none" fill="url(#linearGradient-6)" fill-rule="nonzero" transform="translate(213.839786, 204.375753) rotate(-38.000000) translate(-213.839786, -204.375753) "></path>
                    <mask id="mask-8" fill="white">
                        <use xlink:href="#path-7"></use>
                    </mask>
                    <g id="path-2" stroke="none" fill="none"></g>
                    <path d="M231.760215,82.6867704 L313.760215,82.6867704 L313.760215,82.6867704 L313.760215,108.68677 L231.760215,108.68677 C224.580513,108.68677 218.760215,102.866472 218.760215,95.6867704 C218.760215,88.5070686 224.580513,82.6867704 231.760215,82.6867704 Z" id="矩形备份-12" stroke="none" fill="url(#linearGradient-9)" fill-rule="nonzero" transform="translate(266.260215, 95.686770) rotate(-38.000000) translate(-266.260215, -95.686770) "></path>
                    <mask id="mask-11" fill="white">
                        <use xlink:href="#path-10"></use>
                    </mask>
                    <g id="path-2" stroke="none" fill="none"></g>
                    <path d="M76,83 L158,83 L158,83 L158,109 L76,109 C68.8202983,109 63,103.179702 63,96 C63,88.8202982 68.8202983,83 76,83 Z" id="矩形备份-13" stroke="none" fill="url(#linearGradient-9)" fill-rule="nonzero" transform="translate(110.500000, 96.000000) rotate(-38.000000) translate(-110.500000, -96.000000) "></path>
                    <path d="M21.5,52 L182,52 L182,52 L182,103 L21.5,103 C7.4167389,103 -4,91.5832611 -4,77.5 C-4,63.4167389 7.4167389,52 21.5,52 Z" id="矩形备份-14" stroke="none" fill="url(#linearGradient-12)" fill-rule="nonzero" transform="translate(89.000000, 77.500000) rotate(-38.000000) translate(-89.000000, -77.500000) "></path>
                </g>
            </g>
        </g>
    </g>
</svg>