<?xml version="1.0" encoding="UTF-8"?>
<svg width="20px" height="20px" viewBox="0 0 20 20" version="1.1" xmlns="http://www.w3.org/2000/svg" xmlns:xlink="http://www.w3.org/1999/xlink">
    <title>1.Basics/List/Collapse备份</title>
    <defs>
        <polygon id="path-1" points="0.00135048232 0.0120898876 13.9878682 0.0120898876 13.9878682 13.9775506 0.00135048232 13.9775506"></polygon>
    </defs>
    <g id="视觉稿" stroke="none" stroke-width="1" fill="none" fill-rule="evenodd">
        <g id="关闭">
            <rect id="Rectangle-2" fill-rule="nonzero" x="0" y="0" width="20" height="20"></rect>
            <g id="Group-3" transform="translate(3.000000, 3.000000)">
                <mask id="mask-2" fill="white">
                    <use xlink:href="#path-1"></use>
                </mask>
                <g id="Clip-2"></g>
                <path d="M0,6.99996621 C0,9.50087777 1.3342398,11.8117024 3.50003942,13.0621582 C5.66586157,14.3126139 8.33422854,14.3126139 10.5000507,13.0621582 C12.6658503,11.8117024 14,9.50087777 14,6.99996621 C14,3.13395649 10.8660334,-7.01869118e-15 6.99998874,-7.01869118e-15 C3.13396657,-7.01869118e-15 0,3.13395649 0,6.99996621 Z" id="Fill-1" fill="#909090" mask="url(#mask-2)"></path>
            </g>
            <path d="M7.22818006,13.1053034 C7.10103215,13.1053034 7.00564309,13.0735281 6.91025402,12.9782921 C6.71954341,12.7878876 6.71954341,12.5022472 6.91025402,12.3435506 L12.2193376,7.01130337 C12.4100257,6.82080899 12.6643891,6.82080899 12.8550997,7.01130337 C13.0458778,7.20168539 13.0458778,7.48732584 12.8550997,7.64604494 L7.54610611,12.9782921 C7.45069453,13.0735281 7.32356913,13.1053034 7.22818006,13.1053034 Z" id="Fill-4" fill="#FFFFFF"></path>
            <path d="M12.6961254,13.2640225 C12.569,13.2640225 12.4735884,13.2322472 12.3781994,13.1369888 L7.03737942,7.80474157 C6.84666881,7.61435955 6.84666881,7.3287191 7.03737942,7.17 C7.22818006,6.97952809 7.48243087,6.97952809 7.67323151,7.17 L13.0140514,12.5022472 C13.2048521,12.6926517 13.2048521,12.9782921 13.0140514,13.1369888 C12.9186624,13.2005618 12.7915145,13.2640225 12.6961254,13.2640225 Z" id="Fill-5" fill="#FFFFFF"></path>
        </g>
    </g>
</svg>