<?xml version="1.0" encoding="UTF-8"?>
<svg width="20px" height="20px" viewBox="0 0 20 20" version="1.1" xmlns="http://www.w3.org/2000/svg" xmlns:xlink="http://www.w3.org/1999/xlink">
    <title>编组备份</title>
    <g id="视觉稿" stroke="none" stroke-width="1" fill="none" fill-rule="evenodd">
        <g id="编组备份">
            <rect id="矩形" x="0" y="0" width="20" height="20"></rect>
            <path d="M10.6896552,1.65681445 L18.6896552,9.27586207 C19.0895855,9.6567481 19.105024,10.2897248 18.7241379,10.6896552 C18.5353952,10.887835 18.2736769,11 18,11 L16.5,11 L16.5,11 L16.5,17 C16.5,18.1045695 15.6045695,19 14.5,19 C13.3954305,19 12.5,18.1045695 12.5,17 L12.5,11 L7.5,11 L7.5,11 L7.5,17 C7.5,18.1045695 6.6045695,19 5.5,19 C4.3954305,19 3.5,18.1045695 3.5,17 L3.5,11 L2,11 C1.44771525,11 1,10.5522847 1,10 C1,9.72632306 1.11216498,9.46460478 1.31034483,9.27586207 L9.31034483,1.65681445 C9.69655172,1.28899836 10.3034483,1.28899836 10.6896552,1.65681445 Z" id="形状结合" fill="#1283FF"></path>
            <path d="M15.2071068,2 L17.5,2 C17.7761424,2 18,2.22385763 18,2.5 L18,4.79289322 C18,5.06903559 17.7761424,5.29289322 17.5,5.29289322 C17.3673918,5.29289322 17.2402148,5.2402148 17.1464466,5.14644661 L14.8535534,2.85355339 C14.6582912,2.65829124 14.6582912,2.34170876 14.8535534,2.14644661 C14.9473216,2.05267842 15.0744985,2 15.2071068,2 Z" id="矩形" fill="#1283FF"></path>
        </g>
    </g>
</svg>