<?xml version="1.0" encoding="UTF-8"?>
<svg width="20px" height="20px" viewBox="0 0 20 20" version="1.1" xmlns="http://www.w3.org/2000/svg" xmlns:xlink="http://www.w3.org/1999/xlink">
    <title>1.Icon/Mix/Prompt/Plus-Square备份</title>
    <g id="视觉稿" stroke="none" stroke-width="1" fill="none" fill-rule="evenodd">
        <g id="1.Icon/Mix/Prompt/Plus-Square">
            <rect id="矩形" x="0" y="0" width="20" height="20"></rect>
            <path d="M4.25,11 L9,11 L9,15.75 C9,15.8875 9.1125,16 9.25,16 L10.75,16 C10.8875,16 11,15.8875 11,15.75 L11,11 L15.75,11 C15.8875,11 16,10.8875 16,10.75 L16,9.25 C16,9.1125 15.8875,9 15.75,9 L11,9 L11,4.25 C11,4.1125 10.8875,4 10.75,4 L9.25,4 C9.1125,4 9,4.1125 9,4.25 L9,9 L4.25,9 C4.1125,9 4,9.1125 4,9.25 L4,10.75 C4,10.8875 4.1125,11 4.25,11 Z" id="Border" fill="#1890FF"></path>
        </g>
    </g>
</svg>