<?xml version="1.0" encoding="UTF-8"?>
<svg width="20px" height="20px" viewBox="0 0 20 20" version="1.1" xmlns="http://www.w3.org/2000/svg" xmlns:xlink="http://www.w3.org/1999/xlink">
    <title>5.Element/Icon/20x20/Search Gary备份</title>
    <g id="视觉稿" stroke="none" stroke-width="1" fill="none" fill-rule="evenodd" fill-opacity="0.2">
        <g id="Fill-1" fill="#222222">
            <path d="M19.8631548,19.2020921 L15.299037,14.6380493 C15.9821852,13.8798223 16.5215142,13.0196126 16.904632,12.0747244 C17.3308984,11.023416 17.5470878,9.91279914 17.5470878,8.77349094 C17.5470878,7.63421064 17.3308984,6.52348213 16.904632,5.47228534 C16.4631827,4.3835777 15.8147264,3.40706768 14.9773207,2.56966038 C14.1400266,1.73236472 13.1634068,1.08390714 12.0748129,0.64245696 C11.0235065,0.2160781 9.91278012,0 8.77358574,0 C7.63430763,0 6.52358125,0.2160781 5.47227484,0.64245696 C4.38368093,1.08390714 3.40706114,1.73236472 2.56965545,2.56966038 C1.7323614,3.40706768 1.08390506,4.3835777 0.642483637,5.47228534 C0.216189325,6.52348213 0,7.63421064 0,8.77349094 C0,9.91279914 0.216189325,11.0235277 0.642483637,12.0747244 C1.08390506,13.1634321 1.7323614,14.1399421 2.56965545,14.9773494 C3.40706114,15.8146451 4.38368093,16.4631026 5.47227484,16.9046366 C6.52358125,17.3309317 7.63430763,17.5470098 8.77358574,17.5471214 C9.91278012,17.5470098 11.0235065,17.3309317 12.0748129,16.9046366 C13.0195876,16.5215459 13.8797956,15.9823275 14.6380491,15.2990663 L19.2020553,19.8630812 C19.3845575,20.0456954 19.6805409,20.0455838 19.8631548,19.8630812 C20.0455732,19.6805787 20.0456569,19.3845947 19.8631548,19.2020921 Z M8.77350201,16.5943627 C6.68450917,16.5943627 4.72046851,15.7808462 3.24342598,14.3036892 C1.76627181,12.8265322 0.952645265,10.8624878 0.952645265,8.77349094 C0.952645265,6.684522 1.76616017,4.72047756 3.24342598,3.2434322 C4.72046851,1.76616356 6.68450917,0.952647093 8.77350201,0.952647093 C10.8625786,0.952647093 12.8265076,1.76616356 14.3036618,3.2434322 C15.780816,4.72047756 16.5943309,6.684522 16.5943309,8.77349094 C16.5943309,10.8624878 15.780816,12.8265322 14.3036618,14.3036892 C12.8265076,15.7808462 10.8625786,16.5943627 8.77350201,16.5943627 Z"></path>
        </g>
    </g>
</svg>