<?xml version="1.0" encoding="UTF-8"?>
<svg width="20px" height="20px" viewBox="0 0 20 20" version="1.1" xmlns="http://www.w3.org/2000/svg" xmlns:xlink="http://www.w3.org/1999/xlink">
    <title>编组备份 3</title>
    <g id="交互文档" stroke="none" stroke-width="1" fill="none" fill-rule="evenodd">
        <g id="编组备份-3" fill-rule="nonzero">
            <rect id="矩形" fill="#000000" opacity="0" x="0" y="0" width="20" height="20"></rect>
            <path d="M1.42857143,1 L18.5714286,1 C19.3604068,1 20,1.60593041 20,2.35338346 L20,7.7669173 C20,8.51437034 19.3604068,9.12030075 18.5714286,9.12030075 L1.42857143,9.12030075 C0.639593213,9.12030075 0,8.51437034 0,7.7669173 L0,2.35338346 C0,1.60593041 0.639593213,1 1.42857143,1 Z M3.57142857,3.70676691 C3.17698559,3.7068287 2.85726097,4.00977581 2.85726097,4.38345864 C2.85726097,4.75714147 3.17698559,5.06008858 3.57142857,5.06015037 L7.85714285,5.06015037 C8.25158583,5.06008858 8.57131046,4.75714147 8.57131046,4.38345864 C8.57131046,4.00977581 8.25158583,3.7068287 7.85714285,3.70676691 L3.57142857,3.70676691 Z M1.42857143,10.8796992 L18.5714286,10.8796992 C19.3604068,10.8796992 20,11.4856297 20,12.2330827 L20,17.6466165 C20,18.0055562 19.8494902,18.3497945 19.5815811,18.6036032 C19.313672,18.8574118 18.9503093,19 18.5714286,19 L1.42857143,19 C1.04969073,19 0.686327995,18.8574118 0.418418883,18.6036032 C0.150509772,18.3497945 0,18.0055562 0,17.6466165 L0,12.2330827 C0,11.8741431 0.150509772,11.5299047 0.418418883,11.2760961 C0.686327995,11.0222875 1.04969073,10.8796992 1.42857143,10.8796992 L1.42857143,10.8796992 Z M3.57142857,13.5864662 C3.17693946,13.5864662 2.85714285,13.8894314 2.85714285,14.2631579 C2.85714285,14.6368844 3.17693946,14.9398496 3.57142857,14.9398496 L7.85714285,14.9398496 C8.25163196,14.9398496 8.57142857,14.6368844 8.57142857,14.2631579 C8.57142857,13.8894314 8.25163196,13.5864662 7.85714285,13.5864662 L3.57142857,13.5864662 Z" id="形状" fill="#CCCCCC"></path>
        </g>
    </g>
</svg>