<?xml version="1.0" encoding="UTF-8"?>
<svg width="12px" height="17px" viewBox="0 0 12 17" version="1.1" xmlns="http://www.w3.org/2000/svg" xmlns:xlink="http://www.w3.org/1999/xlink">
    <title>形状结合</title>
    <g id="页面-1" stroke="none" stroke-width="1" fill="none" fill-rule="evenodd">
        <g id="关联分2-点击" transform="translate(-815.000000, -306.000000)" fill="#FF0000" fill-rule="nonzero">
            <path d="M815.5,306.168335 C815.74546,306.168335 815.949608,306.34521 815.991944,306.578459 L816,306.668335 L816,321.668335 C816,321.944477 815.776142,322.168335 815.5,322.168335 C815.25454,322.168335 815.050392,321.991459 815.008056,321.75821 L815,321.668335 L815,306.668335 C815,306.392192 815.223858,306.168335 815.5,306.168335 Z M818,306 C818.191752,306 818.37946,306.05513 818.540758,306.158822 L825.6915,310.755727 C826.15607,311.05438 826.290573,311.673093 825.991921,312.137664 C825.914455,312.258166 825.812003,312.360618 825.6915,312.438084 L818.540758,317.03499 C818.076188,317.333643 817.457474,317.199139 817.158822,316.734569 C817.05513,316.573272 817,316.385563 817,316.193812 L817,307 C817,306.447715 817.447715,306 818,306 Z" id="形状结合"></path>
        </g>
    </g>
</svg>