<?xml version="1.0" encoding="UTF-8"?>
<svg width="24px" height="24px" viewBox="0 0 24 24" version="1.1" xmlns="http://www.w3.org/2000/svg" xmlns:xlink="http://www.w3.org/1999/xlink">
    <title>中分</title>
    <g id="中分" stroke="none" stroke-width="1" fill="none" fill-rule="evenodd">
        <g id="奖章" fill-rule="nonzero">
            <rect id="矩形" fill="#000000" opacity="0" x="0" y="0" width="24" height="24"></rect>
            <path d="M5.55,15.9164062 L3.909375,18.759375 C3.74765625,19.040625 3.98671875,19.3828125 4.3078125,19.3242187 L6.46875,18.9351562 C6.6515625,18.9023437 6.83203125,19.0054687 6.8953125,19.18125 L7.63828125,21.2484375 C7.7484375,21.553125 8.16328125,21.590625 8.32734375,21.309375 L9.8296875,18.7078125 C8.11875,18.2484375 6.63046875,17.2570313 5.55,15.9164062 Z M18.4171875,15.88125 C17.34375,17.2289063 15.8601562,18.2273437 14.15625,18.6984375 L15.6632812,21.309375 C15.825,21.590625 16.2421875,21.553125 16.3523437,21.2484375 L17.0953125,19.1835937 C17.1585937,19.0078125 17.3390625,18.9046875 17.521875,18.9375 L19.6828125,19.3265625 C20.0015625,19.3851562 20.2429687,19.040625 20.08125,18.7617187 L18.4171875,15.88125 L18.4171875,15.88125 Z M11.9695312,3.7125 C8.08828125,3.7125 4.92890625,6.871875 4.92890625,10.753125 C4.92890625,12.2507812 5.40234375,13.6382812 6.20390625,14.7820312 C7.47890625,16.6007812 9.5859375,17.79375 11.9695312,17.79375 C15.853125,17.79375 19.0101562,14.634375 19.0101562,10.753125 C19.0101562,6.871875 15.853125,3.7125 11.9695312,3.7125 Z M14.071875,13.6429687 L11.9953125,12.5507812 L9.91875,13.6429687 L10.3148437,11.3296875 L8.634375,9.69140625 L10.9570312,9.35390625 L11.9953125,7.24921875 L13.0335937,9.35390625 L15.35625,9.69140625 L13.6757812,11.3296875 L14.071875,13.6429687 L14.071875,13.6429687 Z" id="形状" fill="#24B3B3"></path>
        </g>
    </g>
</svg>