<?xml version="1.0" encoding="UTF-8"?>
<svg width="16px" height="16px" viewBox="0 0 16 16" version="1.1" xmlns="http://www.w3.org/2000/svg" xmlns:xlink="http://www.w3.org/1999/xlink">
    <title>其他措施</title>
    <g id="其他措施" stroke="none" stroke-width="1" fill="none" fill-rule="evenodd">
        <g id="工作" fill-rule="nonzero">
            <rect id="矩形" fill="#000000" opacity="0" x="0" y="0" width="16" height="16"></rect>
            <path d="M14.8571429,8.58971429 L10.016,8.58971429 L10.016,7.80342858 L5.984,7.80342858 L5.984,8.58819047 L1.14285714,8.58819047 L1.14285714,4.6704762 C1.14285714,3.80495238 1.86514286,3.104 2.75657143,3.104 L5.17638096,3.104 L5.17638096,2.31771429 C5.17638096,1.66857144 5.71733333,1.14285714 6.38628571,1.14285714 L9.61371429,1.14285714 C10.2826667,1.14285714 10.8236191,1.66857142 10.823619,2.31771429 L10.823619,3.10247619 L13.2434286,3.10247619 C14.1348571,3.10247619 14.8571429,3.80342857 14.8571429,4.66895238 L14.8571429,8.58819047 L14.8571429,8.58971429 Z M14.8571429,9.37295238 L14.8571429,13.2906667 C14.8571429,14.1577143 14.1348571,14.8586667 13.2434286,14.8586667 L2.75809523,14.8586667 C1.86514286,14.8586667 1.14285714,14.1577143 1.14285714,13.2906667 L1.14285714,9.3744762 L5.984,9.3744762 L5.984,10.1561905 L10.016,10.1561905 L10.016,9.37295238 L14.8571429,9.37295238 Z M10.016,3.104 L10.016,2.31771429 C10.0118324,2.0998528 9.83313273,1.92590945 9.61523809,1.92761905 L6.38628571,1.92761905 C6.16721532,1.92507533 5.98734286,2.10017845 5.984,2.3192381 L5.984,3.104 L10.016,3.104 L10.016,3.104 Z" id="形状" fill="#1283FF"></path>
        </g>
    </g>
</svg>