<?xml version="1.0" standalone="no"?><!DOCTYPE svg PUBLIC "-//W3C//DTD SVG 1.1//EN" "http://www.w3.org/Graphics/SVG/1.1/DTD/svg11.dtd"><svg t="1686204721346" class="icon" viewBox="0 0 1024 1024" version="1.1" xmlns="http://www.w3.org/2000/svg" p-id="9204" xmlns:xlink="http://www.w3.org/1999/xlink" width="200" height="200"><path d="M85.333333 106.666667a21.333333 21.333333 0 0 1 21.333334-21.333334h256a21.333333 21.333333 0 0 1 21.333333 21.333334V768h85.333333V106.666667a21.333333 21.333333 0 0 1 21.333334-21.333334h256a21.333333 21.333333 0 0 1 21.333333 21.333334v810.666666a21.333333 21.333333 0 0 1-21.333333 21.333334h-256a21.333333 21.333333 0 0 1-21.333334-21.333334V853.333333H384v64a21.333333 21.333333 0 0 1-21.333333 21.333334h-256a21.333333 21.333333 0 0 1-21.333334-21.333334v-810.666666z" fill="#1890FF" p-id="9205"></path><path d="M128 768h85.333333v85.333333H128z" fill="#FFFFFF" fill-opacity=".4" p-id="9206"></path><path d="M128 170.666667h213.333333v85.333333H128z" fill="#FFFFFF" p-id="9207"></path><path d="M512 768h85.333333v85.333333h-85.333333z" fill="#FFFFFF" fill-opacity=".4" p-id="9208"></path><path d="M512 170.666667h213.333333v85.333333h-213.333333z" fill="#FFFFFF" p-id="9209"></path><path d="M853.333333 85.333333m21.333334 0l42.666666 0q21.333333 0 21.333334 21.333334l0 810.666666q0 21.333333-21.333334 21.333334l-42.666666 0q-21.333333 0-21.333334-21.333334l0-810.666666q0-21.333333 21.333334-21.333334Z" fill="#45BFBB" p-id="9210"></path></svg>