<?xml version="1.0" standalone="no"?><!DOCTYPE svg PUBLIC "-//W3C//DTD SVG 1.1//EN" "http://www.w3.org/Graphics/SVG/1.1/DTD/svg11.dtd"><svg t="1686204736405" class="icon" viewBox="0 0 1024 1024" version="1.1" xmlns="http://www.w3.org/2000/svg" p-id="9777" xmlns:xlink="http://www.w3.org/1999/xlink" width="200" height="200"><path d="M609.28 895.829333a49.493333 49.493333 0 0 1-30.464-10.965333 62.933333 62.933333 0 0 1-20.096-28.885333 73.898667 73.898667 0 0 1-2.901333-37.034667c2.176-12.416 7.509333-23.808 15.274666-32.682667l185.941334-213.077333c6.186667-7.168 13.738667-12.501333 22.101333-15.573333 8.32-3.072 17.152-3.754667 25.728-2.005334 8.618667 1.706667 16.725333 5.845333 23.68 11.989334 6.997333 6.144 12.586667 14.165333 16.341333 23.338666l88.32 213.077334a73.301333 73.301333 0 0 1-2.944 61.952 59.605333 59.605333 0 0 1-19.968 22.016c-8.106667 5.248-17.28 8.021333-26.581333 8.021333h-274.090667l-0.298666-0.170667z" fill="#45BFBB" p-id="9778"></path><path d="M701.909333 725.333333a24.533333 24.533333 0 0 1-16.768-6.570666l-205.952-196.48a21.973333 21.973333 0 0 1-6.954666-15.872c0-5.973333 2.474667-11.648 6.869333-15.872a24.106667 24.106667 0 0 1 16.64-6.613334c6.229333 0 12.202667 2.304 16.64 6.528l206.122667 196.608c4.394667 4.224 6.826667 9.898667 6.826666 15.829334a22.058667 22.058667 0 0 1-6.826666 15.872 24.533333 24.533333 0 0 1-16.597334 6.570666z" fill="#45BFBB" p-id="9779"></path><path d="M510.933333 452.864l-100.010666-29.781333a120.405333 120.405333 0 0 0-8.533334-20.608 110.848 110.848 0 0 0-27.008-33.450667 104.96 104.96 0 0 0-37.12-19.968l-11.946666-3.541333a102.741333 102.741333 0 0 0-81.28 10.154666c-24.746667 14.506667-43.093333 38.784-50.858667 67.413334l-38.656 143.530666c0 1.408 0 3.072-1.152 4.906667l-0.853333 2.56-66.005334 244.352c-4.138667 15.274667-2.304 31.616 5.034667 45.482667 7.381333 13.866667 19.626667 24.064 34.218667 28.416l4.906666 1.536a55.381333 55.381333 0 0 0 49.493334-9.898667 60.16 60.16 0 0 0 20.48-31.018667l38.784-144c9.429333 2.858667 19.2 4.266667 29.056 4.266667 18.304-0.042667 36.266667-4.992 52.181333-14.336 9.258667-5.077333 17.792-11.52 25.301333-19.114667l45.354667 28.714667v127.488c0.042667 15.786667 5.973333 30.890667 16.554667 42.069333 10.538667 11.221333 24.874667 17.621333 39.850666 17.792h5.12c15.061333 0 29.525333-6.357333 40.234667-17.578666 10.666667-11.178667 16.682667-26.410667 16.725333-42.24v-163.413334a64.853333 64.853333 0 0 0-7.936-30.464c-5.12-9.301333-12.373333-17.066667-21.12-22.528l-89.6-56.789333 3.84-14.208 82.986667 24.746667c5.290667 1.536 10.752 2.389333 16.256 2.432 12.970667-0.170667 25.557333-4.693333 35.84-12.928 10.368-8.277333 17.877333-19.797333 21.461333-32.853334a65.578667 65.578667 0 0 0-5.632-47.616 60.330667 60.330667 0 0 0-35.968-29.525333zM349.226667 336.469333a126.762667 126.762667 0 0 0 97.194666-11.434666 128 128 0 1 0-97.194666 11.434666z" fill="#1890FF" p-id="9780"></path></svg>