<?xml version="1.0" standalone="no"?><!DOCTYPE svg PUBLIC "-//W3C//DTD SVG 1.1//EN" "http://www.w3.org/Graphics/SVG/1.1/DTD/svg11.dtd"><svg t="1686204715492" class="icon" viewBox="0 0 1024 1024" version="1.1" xmlns="http://www.w3.org/2000/svg" p-id="9061" xmlns:xlink="http://www.w3.org/1999/xlink" width="200" height="200"><path d="M192 85.333333a21.333333 21.333333 0 0 0-21.333333 21.333334V853.333333H106.666667a21.333333 21.333333 0 0 0-21.333334 21.333334v42.666666a21.333333 21.333333 0 0 0 21.333334 21.333334h810.666666a21.333333 21.333333 0 0 0 21.333334-21.333334v-42.666666a21.333333 21.333333 0 0 0-21.333334-21.333334H640V106.666667a21.333333 21.333333 0 0 0-21.333333-21.333334h-426.666667z" fill="#1890FF" p-id="9062"></path><path d="M256 426.666667h298.666667v85.333333H256zM256 256h298.666667v85.333333H256z" fill="#FFFFFF" p-id="9063"></path><path d="M512 576a21.333333 21.333333 0 0 1 21.333333-21.333333h298.666667a21.333333 21.333333 0 0 1 21.333333 21.333333V853.333333h-341.333333v-277.333333z" fill="#45BFBB" p-id="9064"></path><path d="M597.333333 640h170.666667v213.333333h-170.666667z" fill="#FFFFFF" fill-opacity=".4" p-id="9065"></path></svg>