<?xml version="1.0" standalone="no"?><!DOCTYPE svg PUBLIC "-//W3C//DTD SVG 1.1//EN" "http://www.w3.org/Graphics/SVG/1.1/DTD/svg11.dtd"><svg t="1686204729273" class="icon" viewBox="0 0 1024 1024" version="1.1" xmlns="http://www.w3.org/2000/svg" p-id="9493" xmlns:xlink="http://www.w3.org/1999/xlink" width="200" height="200"><path d="M554.666667 85.333333v213.333334h256v485.333333c0 14.72-12.757333 26.666667-28.458667 26.666667H199.125333C183.381333 810.666667 170.666667 798.72 170.666667 784V112C170.666667 97.28 183.381333 85.333333 199.125333 85.333333H554.666667z m42.666666 0l213.333334 170.666667h-213.333334V85.333333z" fill="#1890FF" p-id="9494"></path><path d="M298.666667 554.666667h384v85.333333H298.666667z" fill="#FFFFFF" fill-opacity=".4" p-id="9495"></path><path d="M298.666667 384h384v85.333333H298.666667z" fill="#FFFFFF" p-id="9496"></path><path d="M874.666667 298.666667a21.333333 21.333333 0 0 0-21.333334 21.333333v512a21.333333 21.333333 0 0 1-21.333333 21.333333h-554.666667a21.333333 21.333333 0 0 0-21.333333 21.333334v42.666666a21.333333 21.333333 0 0 0 21.333333 21.333334h640a21.333333 21.333333 0 0 0 21.333334-21.333334v-597.333333a21.333333 21.333333 0 0 0-21.333334-21.333333h-42.666666z" fill="#45BFBB" p-id="9497"></path></svg>