<?xml version="1.0" standalone="no"?><!DOCTYPE svg PUBLIC "-//W3C//DTD SVG 1.1//EN" "http://www.w3.org/Graphics/SVG/1.1/DTD/svg11.dtd"><svg t="1686204732424" class="icon" viewBox="0 0 1024 1024" version="1.1" xmlns="http://www.w3.org/2000/svg" p-id="9636" xmlns:xlink="http://www.w3.org/1999/xlink" width="200" height="200"><path d="M482.858667 483.072H286.976c-51.626667 0-96.768-16.810667-135.168-51.2a194.773333 194.773333 0 0 1-61.44-104.362667 198.314667 198.314667 0 0 1 63.616-193.621333 191.744 191.744 0 0 1 102.144-46.336c62.506667-8.106667 117.162667 9.301333 163.2 52.48 33.28 31.402667 53.333333 70.186667 60.842667 115.2 1.749333 10.154667 2.56 20.48 2.688 30.805333 0.213333 64.597333 0.085333 129.066667 0.085333 193.621334l-0.085333 3.413333z m0 58.197333v196.266667c0.085333 51.626667-16.896 96.810667-51.370667 135.168-30.421333 33.834667-68.181333 55.594667-113.28 62.933333-68.992 11.221333-128.298667-8.874667-177.322667-58.496a186.837333 186.837333 0 0 1-51.456-97.792c-11.946667-62.933333 2.261333-119.552 44.032-168.362666 30.72-35.882667 70.144-57.344 116.565334-66.133334 12.714667-2.346667 25.685333-3.498667 38.570666-3.498666h189.952l4.309334-0.085334z m58.282666 2.261334h197.546667c40.021333 0 77.184 10.112 110.805333 32 41.258667 26.88 69.205333 64 81.792 111.573333 16.810667 63.274667 5.162667 121.6-34.432 173.824-27.264 35.84-63.232 59.306667-106.666666 71.082667a180.48 180.48 0 0 1-66.048 5.802666c-75.392-7.850667-129.749333-46.421333-163.925334-113.792a182.528 182.528 0 0 1-18.133333-64.597333 212.224 212.224 0 0 1-0.938667-21.461333c-0.085333-63.616-0.085333-127.274667 0-191.018667v-3.413333z" fill="#1890FF" p-id="9637"></path><path d="M541.141333 483.072V285.866667c0-43.818667 12.373333-83.754667 38.272-119.253334 27.264-37.12 63.018667-62.592 107.690667-73.941333 71.509333-18.048 135.466667-2.688 189.866667 47.530667a184.96 184.96 0 0 1 57.6 104.832c13.141333 72.32-6.869333 134.613333-60.629334 185.173333-29.184 27.434667-64.469333 43.52-103.978666 49.792a212.437333 212.437333 0 0 1-34.346667 2.816c-63.445333 0.213333-126.805333 0.085333-190.250667 0.085333l-4.224 0.213334z" fill="#45BFBB" p-id="9638"></path></svg>