<?xml version="1.0" standalone="no"?><!DOCTYPE svg PUBLIC "-//W3C//DTD SVG 1.1//EN" "http://www.w3.org/Graphics/SVG/1.1/DTD/svg11.dtd"><svg t="1686204725536" class="icon" viewBox="0 0 1024 1024" version="1.1" xmlns="http://www.w3.org/2000/svg" p-id="9349" xmlns:xlink="http://www.w3.org/1999/xlink" width="200" height="200"><path d="M298.666667 85.333333h554.666666a42.666667 42.666667 0 0 1 42.666667 42.666667v768a42.666667 42.666667 0 0 1-42.666667 42.666667H298.666667V85.333333z" fill="#1890FF" p-id="9350"></path><path d="M128 128a42.666667 42.666667 0 0 1 42.666667-42.666667h85.333333v853.333334H170.666667a42.666667 42.666667 0 0 1-42.666667-42.666667V128z" fill="#45BFBB" p-id="9351"></path><path d="M426.666667 682.666667h298.666666v85.333333h-298.666666z" fill="#FFFFFF" fill-opacity=".4" p-id="9352"></path><path d="M426.666667 512h298.666666v85.333333h-298.666666z" fill="#FFFFFF" p-id="9353"></path><path d="M597.333333 89.898667v246.656c0 3.797333 4.48 5.930667 7.594667 3.626666l79.274667-59.136a4.821333 4.821333 0 0 1 5.674666-0.042666l82.688 59.434666c3.114667 2.218667 7.552 0.085333 7.552-3.669333V89.898667a4.650667 4.650667 0 0 0-4.693333-4.565334H602.026667a4.650667 4.650667 0 0 0-4.693334 4.565334z" fill="#45BFBB" p-id="9354"></path></svg>