<?xml version="1.0" standalone="no"?><!DOCTYPE svg PUBLIC "-//W3C//DTD SVG 1.1//EN" "http://www.w3.org/Graphics/SVG/1.1/DTD/svg11.dtd"><svg t="1686204740554" class="icon" viewBox="0 0 1024 1024" version="1.1" xmlns="http://www.w3.org/2000/svg" p-id="9919" xmlns:xlink="http://www.w3.org/1999/xlink" width="200" height="200"><path d="M644.565333 751.701333c-46.506667 2.432-83.626667 39.296-83.626666 84.394667l-0.170667 63.274667a389.973333 389.973333 0 0 1-85.034667 9.429333C260.437333 908.8 85.333333 733.696 85.333333 518.4S260.437333 128 475.733333 128s390.4 175.104 390.4 390.4c0 15.701333-1.066667 31.104-2.901333 46.336a171.264 171.264 0 0 0-78.506667-18.304c-76.458667 0-153.6 43.605333-153.6 140.970667 0 25.898667 5.674667 47.061333 13.44 64.298666z" fill="#1890FF" p-id="9920"></path><path d="M441.301333 691.029333a34.56 34.56 0 1 0 69.162667 0V616.533333h74.368a34.56 34.56 0 1 0 0-69.162666h-74.368v-39.936H584.533333a34.56 34.56 0 1 0 0-69.162667h-43.904l68.266667-68.266667a34.432 34.432 0 0 0 0-48.768 34.304 34.304 0 0 0-48.725333 0L475.605333 405.76 390.954667 321.237333a34.304 34.304 0 0 0-48.768 0 34.304 34.304 0 0 0 0 48.725334l68.266666 68.266666H366.634667a34.56 34.56 0 1 0 0 69.162667h74.666666v39.978667h-74.666666a34.56 34.56 0 1 0 0 69.162666h74.666666v74.496z" fill="#FFFFFF" p-id="9921"></path><path d="M892.501333 778.965333H837.973333a0.256 0.256 0 0 1-0.213333-0.256v-0.085333c1.28-2.005333 4.736-5.76 7.296-8.490667 12.970667-13.866667 34.432-37.034667 34.432-82.304 0-72.362667-50.602667-98.261333-97.962667-98.261333-47.104 0-102.101333 25.728-102.101333 98.261333 0 47.104 22.698667 71.637333 36.266667 86.272a2.901333 2.901333 0 0 1-2.133334 4.864h-48.298666c-25.472 0-46.165333 20.736-46.165334 46.165334v53.973333a21.333333 21.333333 0 0 0 21.333334 21.333333H917.333333a21.333333 21.333333 0 0 0 21.333334-21.333333v-53.802667c0-25.6-20.736-46.336-46.165334-46.336z" fill="#45BFBB" p-id="9922"></path></svg>