<svg fill="none" height="528" viewBox="0 0 256 528" width="256" xmlns="http://www.w3.org/2000/svg" xmlns:xlink="http://www.w3.org/1999/xlink"><filter id="a" color-interpolation-filters="sRGB" filterUnits="userSpaceOnUse" height="50.0614" width="123.811" x="64.4731" y="361.424"><feFlood flood-opacity="0" result="BackgroundImageFix"/><feBlend in="SourceGraphic" in2="BackgroundImageFix" mode="normal" result="shape"/><feColorMatrix in="SourceAlpha" result="hardAlpha" type="matrix" values="0 0 0 0 0 0 0 0 0 0 0 0 0 0 0 0 0 0 127 0"/><feOffset dy="4"/><feGaussianBlur stdDeviation="2.5"/><feComposite in2="hardAlpha" k2="-1" k3="1" operator="arithmetic"/><feColorMatrix type="matrix" values="0 0 0 0 0.0709201 0 0 0 0 0.500563 0 0 0 0 0.895833 0 0 0 1 0"/><feBlend in2="shape" mode="normal" result="effect1_innerShadow_217_5373"/></filter><filter id="b" color-interpolation-filters="sRGB" filterUnits="userSpaceOnUse" height="49.4509" width="93.2954" x="79.3242" y="356.622"><feFlood flood-opacity="0" result="BackgroundImageFix"/><feBlend in="SourceGraphic" in2="BackgroundImageFix" mode="normal" result="shape"/><feGaussianBlur result="effect1_foregroundBlur_217_5373" stdDeviation="5"/></filter><filter id="c" color-interpolation-filters="sRGB" filterUnits="userSpaceOnUse" height="50.4509" width="94.2954" x="78.8242" y="356.781"><feFlood flood-opacity="0" result="BackgroundImageFix"/><feColorMatrix in="SourceAlpha" result="hardAlpha" type="matrix" values="0 0 0 0 0 0 0 0 0 0 0 0 0 0 0 0 0 0 127 0"/><feOffset dy="4"/><feGaussianBlur stdDeviation="5"/><feComposite in2="hardAlpha" operator="out"/><feColorMatrix type="matrix" values="0 0 0 0 0 0 0 0 0 0.418167 0 0 0 0 0.804167 0 0 0 0.5 0"/><feBlend in2="BackgroundImageFix" mode="normal" result="effect1_dropShadow_217_5373"/><feBlend in="SourceGraphic" in2="effect1_dropShadow_217_5373" mode="normal" result="shape"/></filter><linearGradient id="d" gradientUnits="userSpaceOnUse" x1="256" x2="-160.678" y1="528" y2="316.393"><stop offset="0" stop-color="#f5f7fa"/><stop offset="1" stop-color="#f1f7ff"/></linearGradient><linearGradient id="e" gradientUnits="userSpaceOnUse" x1="127.563" x2="127.563" y1="361.144" y2="591"><stop offset="0" stop-color="#96cfff" stop-opacity="0"/><stop offset="1" stop-color="#96cfff"/></linearGradient><linearGradient id="f" gradientUnits="userSpaceOnUse" x1="126.597" x2="126.597" y1="354" y2="415.223"><stop offset="0" stop-color="#a0d2ff"/><stop offset="1" stop-color="#f4faff"/></linearGradient><linearGradient id="g" gradientUnits="userSpaceOnUse" x1="126.597" x2="126.597" y1="354" y2="415.223"><stop offset="0" stop-color="#fa8c16" stop-opacity="0"/><stop offset="1" stop-color="#fa8c16"/></linearGradient><linearGradient id="h" gradientUnits="userSpaceOnUse" x1="65.5989" x2="186.451" y1="383.37" y2="386.806"><stop offset="0" stop-color="#badfff"/><stop offset=".9144" stop-color="#d3ebff"/></linearGradient><linearGradient id="i" gradientUnits="userSpaceOnUse" x1="125.972" x2="125.972" y1="363.281" y2="392.732"><stop offset="0" stop-color="#2f82ff"/><stop offset="1" stop-color="#a9d6ff"/></linearGradient><linearGradient id="j" gradientUnits="userSpaceOnUse" x1="125.972" x2="125.972" y1="353.259" y2="373.303"><stop offset="0" stop-color="#fff"/><stop offset="1" stop-color="#fff" stop-opacity="0"/></linearGradient><linearGradient id="k" gradientUnits="userSpaceOnUse" x1="98.3844" x2="98.3844" y1="404.26" y2="232.999"><stop offset="0" stop-color="#0071e9"/><stop offset="1" stop-color="#fff" stop-opacity="0"/></linearGradient><linearGradient id="l" gradientUnits="userSpaceOnUse" x1="155.382" x2="153.408" y1="404.26" y2="232.727"><stop offset="0" stop-color="#2e9bff"/><stop offset="1" stop-color="#d5e9ff" stop-opacity="0"/></linearGradient><linearGradient id="m"><stop offset="0" stop-color="#00a1e6"/><stop offset="1" stop-color="#fff" stop-opacity=".01"/></linearGradient><linearGradient id="n" gradientUnits="userSpaceOnUse" x1="172.643" x2="193.556" xlink:href="#m" y1="108.645" y2="131.264"/><linearGradient id="o" gradientUnits="userSpaceOnUse" x1="39.5024" x2="53.7325" xlink:href="#m" y1="210.406" y2="225.796"/><linearGradient id="p" gradientUnits="userSpaceOnUse" x1="116.559" x2="130.789" xlink:href="#m" y1="325.595" y2="340.986"/><linearGradient id="q"><stop offset="0" stop-color="#b0e3ff"/><stop offset="1" stop-color="#fff" stop-opacity=".01"/></linearGradient><linearGradient id="r" gradientUnits="userSpaceOnUse" x1="31.4187" x2="31.4187" xlink:href="#q" y1="423.991" y2="501.922"/><linearGradient id="s" gradientUnits="userSpaceOnUse" x1="207.176" x2="207.176" xlink:href="#q" y1="453.159" y2="525.623"/><linearGradient id="t" gradientUnits="userSpaceOnUse" x1="130.512" x2="130.512" xlink:href="#q" y1="500.043" y2="595.306"/><linearGradient id="u" gradientUnits="userSpaceOnUse" x1="33.8552" x2="75.6725" xlink:href="#m" y1="81.4463" y2="81.4463"/><clipPath id="v"><rect height="528" rx="4" width="256"/></clipPath><g clip-path="url(#v)"><rect fill="url(#d)" height="528" rx="4" width="256"/><path clip-rule="evenodd" d="m82.9873 361.85.6393-.706 43.7184 16.111 43.835-16.111.639.706-43.195 15.876 42.58 15.692 43.436-15.965.639.706-42.797 15.73 41.81 15.408 43.486-15.997.639.706-42.847 15.762 43.987 16.21 43.275-15.906.64.706-42.636 15.671 43.218 15.927 43.516-15.994.639.706-42.877 15.759 44.532 16.411 44.04-16.214.639.706-43.401 15.979 42.789 15.769 43.43-16.034.639.706-42.792 15.798 42.473 15.653-.639.706-43.111-15.888-42.541 15.706 42.832 15.785-.639.706-43.47-16.019-41.417 15.29 42.388 15.572-.639.706-43.026-15.806-44.304 16.356 42.913 15.814-.639.706-43.55-16.049-43.18 15.942 42.633 15.711-.64.706-43.27-15.946-44.155 16.302 42.37 15.601-.639.815-43.138-15.897-43.741 16.149 42.463 15.705-.64.706-43.099-15.94-43.177 15.94-.6394-.706 42.5414-15.706-43.0814-15.934-43.5561 16.036-.6393-.706 42.9197-15.802-44.6773-16.524-41.06126 15.092-.63933-.706 40.42429-14.858-43.13989-15.956-41.38221 15.21-.6393-.706 40.74523-14.976-43.79373-16.197-42.3256 15.569-.6393-.706 41.6889-15.335-41.8474-15.478-41.381 15.21-.639-.707 40.7437-14.975-42.5027-15.72-41.062 15.092-.639-.706 40.425-14.858-41.703-15.424.639-.706 42.342 15.66 43.3528-15.934-41.5978-15.33.64-.706 42.255 15.559 44.3662-16.306-42.5255-15.672.6393-.706 43.1656 15.907 43.27629-15.906-42.34489-15.605.6393-.706 42.98503 15.841 43.98107-16.165-41.59055-15.279.63931-.706 42.23164 15.515 41.9304-15.412-42.622-15.707.6393-.706 43.2621 15.943 42.6364-15.671zm44.3567 16.346-42.6358 15.671 42.5798 15.692 42.636-15.671zm-43.9152 16.141-41.9284 15.411 42.6468 15.667 41.8618-15.386zm-43.2088 15.882-43.98308 16.165 42.57988 15.692 44.0499-16.19zm-45.26251 16.636-43.27629 15.906 42.57986 15.691 43.27624-15.906zm-44.55569 16.376-44.3657 16.306 42.5978 15.685 44.34773-16.299zm-45.6634 16.783-43.3554 15.935 42.503 15.72 43.4322-15.963zm223.8286-49.984 42.636-15.671 41.81 15.408-42.618 15.678zm-43.1393 15.855 41.8593-15.385 41.829 15.415-41.776 15.368zm-45.3323 16.662 44.0519-16.191 41.9127 15.398-44.0989 16.222zm-44.55576 16.376 43.27626-15.906 41.8663 15.429-43.258 15.913zm-45.62664 16.77 44.34721-16.299 41.88509 15.435-44.31089 16.3zm-44.7508 16.448 43.4346-15.964 41.90439 15.443-43.49209 15.999zm309.1298-81.903-42.619 15.678 43.968 16.203 42.637-15.671zm-43.898 16.148-41.774 15.367 44.019 16.171 41.723-15.335zm-43.054 15.838-44.1006 16.223 43.9306 16.189 44.189-16.241zm-45.3795 16.693-43.258 15.913 43.912 16.182 43.2765-15.906zm-44.5369 16.383-44.31035 16.3 43.91105 16.169 44.3107-16.286zm-45.64412 16.791-43.49438 16 43.79429 16.197 43.59221-16.022zm225.14052-49.501 42.636-15.671 43.219 15.927-42.637 15.671zm-43 15.805 41.721-15.335 43.218 15.927-41.653 15.31zm-45.471 16.712 44.19-16.242 43.287 15.902-44.259 16.267zm-44.5559 16.377 43.2759-15.906 43.218 15.927-43.276 15.906zm-45.5896 16.756 44.3101-16.286 43.2184 15.927-44.2922 16.279zm-44.94783 16.52 43.59443-16.023 43.2182 15.927-43.6727 16.052zm310.69733-81.443-42.636 15.671 44.569 16.425 42.6-15.684zm-43.916 16.141-41.65 15.309 44.674 16.412 41.546-15.296zm-42.931 15.78-44.261 16.267 44.644 16.452 44.293-16.307zm-45.54 16.738-43.276 15.906 44.681 16.466 43.239-15.92zm-44.556 16.376-44.2911 16.279 44.7381 16.473 44.235-16.286zm-45.6632 16.783-43.675 16.053 44.6763 16.524 43.7189-16.096zm225.8172-49.251 42.6-15.684 42.79 15.769-42.541 15.706zm-42.823 15.765 41.544-15.295 42.851 15.792-41.419 15.291zm-45.574 16.779 44.295-16.308 42.977 15.789-44.301 16.355zm-44.518 16.391 43.239-15.92 42.973 15.837-43.18 15.941zm-45.514 16.756 44.235-16.286 43.035 15.859-44.156 16.302zm-45.1112 16.609 43.7212-16.097 43.098 15.882-43.739 16.148z" fill="url(#e)" fill-rule="evenodd" opacity=".4"/><path d="m184.036 437.438c3.979 1.735 3.87 4.378-.252 5.902l-51.147 18.89c-4.118 1.52-10.707 1.351-14.687-.384l-49.4376-21.514c-3.9796-1.735-3.8702-4.378.2513-5.902l51.1473-18.89c4.118-1.52 10.707-1.351 14.687.384z" fill="#d1e9ff"/><path d="m247.044 437.464c8.312 3.596 8.084 9.075-.525 12.235l-106.835 39.155c-8.6 3.151-22.364 2.801-30.677-.794l-103.2626-44.596c-8.3125-3.596-8.08392-9.075.52484-12.235l106.83476-39.155c8.601-3.151 22.364-2.801 30.677.794z" opacity=".3" stroke="#9bcfff" stroke-miterlimit="10"/><path d="m172.34 420.807c-.004.062-.015.123-.028.184-.002.01-.002.02-.006.027-.018.067-.04.13-.066.194-.006.017-.015.035-.024.052-.022.046-.045.095-.072.142-.011.017-.019.037-.03.054-.015.027-.037.052-.055.079l.016-.83c0 .037-.007.074-.011.111-.005.046-.011.09-.022.135-.007.027-.013.054-.02.081-.011.039-.024.081-.039.12-.011.027-.022.056-.033.083-.017.037-.037.074-.056.113-.015.027-.031.057-.046.084-.02.031-.043.063-.065.095-.024.035-.048.069-.077.103-.026.032-.054.062-.08.094-.031.034-.059.066-.094.1-.032.032-.067.064-.102.096s-.07.064-.107.093c-.041.035-.085.066-.131.101-.039.029-.076.059-.117.086-.057.039-.12.078-.181.117-.037.025-.072.047-.111.072-.111.066-.231.13-.358.191-.1.049-.202.096-.311.145-.031.012-.061.024-.092.039-.104.044-.211.088-.324.13l-38.41 14.189c-.175.064-.358.123-.543.179-.032.01-.067.02-.1.032-.19.056-.381.108-.58.155-.006.002-.013.002-.019.004-.201.047-.408.091-.617.13-.065.013-.133.023-.2.035-.146.024-.294.049-.445.071-.078.012-.156.022-.235.032-.111.015-.222.027-.333.037-.242.027-.484.046-.73.063-.067.005-.135.01-.203.015-.102.005-.204.008-.307.012-.141.005-.283.013-.425.013-.074 0-.15 0-.226 0-.161 0-.32 0-.482-.003-.069-.002-.139-.002-.211-.005-.189-.005-.377-.014-.566-.024-.035-.003-.07-.003-.103-.005-.22-.015-.438-.034-.655-.054-.055-.005-.107-.012-.162-.017-.183-.02-.363-.042-.542-.069-.042-.005-.081-.01-.122-.017-.211-.032-.418-.066-.623-.106-.05-.009-.098-.019-.148-.029-.164-.032-.325-.066-.484-.103-.057-.012-.113-.025-.168-.039-.189-.047-.374-.096-.557-.148-.016-.005-.031-.007-.046-.012-.201-.059-.397-.123-.586-.191-.194-.069-.381-.143-.562-.221-.016-.008-.035-.012-.05-.02l-37.1274-16.157c-.1198-.051-.2309-.105-.3399-.159-.0283-.015-.0566-.03-.0849-.044-.0937-.047-.183-.096-.268-.145-.0153-.007-.0305-.017-.0436-.025-.0806-.046-.159-.095-.2331-.142-.0065-.005-.0131-.01-.0196-.012-.085-.057-.1634-.113-.2396-.17-.0196-.014-.0392-.029-.0589-.046-.0784-.062-.1525-.123-.22-.184-.0043-.003-.0065-.008-.0109-.01-.0632-.059-.122-.12-.1764-.179-.0153-.017-.0284-.032-.0436-.049-.0545-.064-.1068-.128-.1525-.192-.0022-.002-.0022-.005-.0044-.007-.0435-.061-.0806-.125-.1133-.189-.0087-.017-.0174-.032-.0261-.049-.0327-.066-.061-.13-.0828-.196 0-.003 0-.003 0-.005-.0218-.064-.037-.13-.0479-.194-.0022-.017-.0065-.034-.0087-.049-.0087-.066-.0153-.13-.0131-.197l-.0152.835c-.0153-.025-.0327-.049-.0458-.071-.0283-.052-.0545-.101-.0784-.152-.0915-.204-.1373-.41-.1329-.614l-.244 14.098c-.0153.82.7385 1.654 2.2657 2.319l37.1273 16.157c.002 0 .002.002.004.002.015.008.031.012.046.017.189.081.383.157.586.229.009.002.017.007.026.009.185.067.377.128.573.184.002 0 .004 0 .006.003.016.005.031.007.044.012.157.047.318.091.482.13.032.008.065.015.098.022.056.015.115.027.174.042.078.017.157.037.237.054.085.017.175.034.262.052.052.009.102.022.154.029.029.005.057.012.085.017.166.03.334.057.501.084.02.002.037.005.057.007.041.007.085.012.126.017.107.015.214.032.323.044.08.01.161.018.24.027.054.005.111.013.165.018.037.004.074.007.111.012.177.017.355.032.532.044.011 0 .022 0 .032.002.035.003.072.003.107.005.137.008.275.018.412.022.057.003.113.003.172.005.072.003.146.005.218.005.063.003.128.005.192.005.102 0 .202 0 .305-.002h.233.091c.116-.003.231-.01.347-.015.106-.005.213-.007.318-.012.021 0 .041-.003.063-.003.048-.002.094-.01.141-.012.255-.017.508-.039.759-.066.048-.005.098-.008.146-.013.067-.007.135-.017.202-.027.081-.009.164-.022.244-.031.155-.023.31-.047.462-.074.07-.012.137-.022.207-.034.216-.042.431-.084.638-.133.011-.002.022-.005.033-.007.172-.042.342-.084.505-.133.029-.007.055-.017.083-.024.035-.01.07-.022.105-.032.191-.059.381-.12.56-.187l38.412-14.189c.065-.024.129-.049.192-.073.017-.007.032-.015.05-.022.05-.02.098-.039.146-.062.046-.019.091-.039.135-.058.046-.023.091-.042.137-.064.028-.013.059-.027.087-.04.009-.004.018-.009.026-.014.122-.062.24-.125.349-.189.009-.005.02-.01.028-.015.013-.007.026-.017.04-.024.087-.052.167-.106.246-.16.008-.007.021-.012.03-.02.005-.002.007-.005.009-.007.081-.059.157-.115.226-.177.007-.005.014-.009.02-.014.013-.01.022-.022.033-.032.05-.044.1-.091.144-.135.01-.01.021-.02.032-.032.007-.008.011-.015.018-.02.054-.059.106-.118.154-.176 0 0 0 0 .003-.003.045-.061.087-.12.124-.181.004-.008.008-.013.013-.02.006-.01.011-.022.017-.034.026-.047.05-.096.072-.143.004-.012.013-.022.018-.034.002-.005.004-.012.006-.017.026-.064.048-.13.065-.194 0-.003.003-.005.003-.008.002-.007.002-.014.004-.022.013-.061.024-.122.028-.184 0-.01.005-.019.005-.029.002-.022.002-.042.002-.064l.244-14.098c.002.032-.002.064-.005.093z" fill="#9bcfff"/><path d="m211.864 386.255c-.008.102-.028.204-.053.306-.004.017-.004.033-.012.045-.032.11-.073.216-.121.323-.013.028-.029.057-.045.085-.041.078-.085.159-.134.237-.02.029-.036.061-.056.09-.029.045-.069.085-.102.13l.029-1.379c0 .061-.013.122-.021.183-.008.078-.02.151-.04.225-.012.045-.025.09-.037.135-.02.065-.044.134-.073.2-.02.045-.04.094-.06.138-.033.062-.069.123-.106.188-.028.045-.057.094-.085.139-.036.053-.081.106-.122.159-.044.057-.089.114-.141.172-.049.053-.102.102-.15.155-.057.057-.11.11-.175.167-.06.053-.125.106-.19.159s-.13.106-.199.155c-.077.057-.158.11-.243.168-.073.049-.142.098-.219.142-.105.066-.222.131-.336.196-.069.041-.134.078-.207.119-.206.11-.429.216-.664.318-.187.082-.377.159-.58.241-.057.02-.113.041-.17.065-.195.074-.393.147-.604.217l-71.451 23.599c-.324.106-.665.204-1.009.298-.061.016-.126.032-.187.053-.352.094-.709.179-1.078.257-.012.004-.024.004-.036.008-.373.078-.758.151-1.147.216-.121.021-.247.037-.373.058-.271.04-.547.081-.826.118-.146.02-.292.037-.438.053-.207.025-.414.045-.62.061-.45.045-.9.078-1.358.106-.125.009-.251.017-.377.025-.19.008-.381.012-.571.02-.264.008-.527.021-.79.021-.138 0-.28 0-.422 0-.3 0-.596 0-.895-.004-.13-.004-.26-.005-.394-.009-.352-.008-.701-.024-1.053-.04-.065-.004-.13-.004-.191-.009-.409-.024-.814-.057-1.22-.089-.101-.009-.198-.021-.299-.029-.341-.033-.677-.069-1.01-.114-.077-.008-.149-.017-.226-.029-.394-.053-.779-.11-1.16-.175-.093-.017-.182-.033-.275-.049-.304-.053-.604-.11-.9-.172-.105-.02-.21-.04-.312-.065-.352-.078-.697-.159-1.037-.245-.029-.008-.057-.012-.085-.02-.373-.098-.738-.204-1.091-.319-.36-.114-.709-.236-1.045-.367-.028-.012-.065-.02-.093-.033l-69.0645-26.872c-.2229-.086-.4296-.176-.6322-.266-.0527-.024-.1054-.049-.1581-.073-.1743-.078-.3404-.159-.4985-.241-.0283-.012-.0567-.028-.081-.041-.15-.077-.2959-.159-.4337-.236-.0121-.009-.0243-.017-.0364-.021-.1581-.094-.304-.188-.4458-.281-.0365-.025-.073-.049-.1094-.078-.1459-.102-.2837-.204-.4093-.306-.0081-.004-.0122-.012-.0203-.016-.1175-.098-.2269-.2-.3283-.298-.0283-.029-.0526-.053-.081-.082-.1013-.106-.1986-.212-.2837-.318-.004-.004-.0041-.009-.0081-.013-.0811-.102-.1499-.208-.2107-.314-.0162-.028-.0325-.053-.0487-.082-.0608-.11-.1134-.216-.154-.326 0-.004 0-.004 0-.008-.0405-.106-.0689-.217-.0891-.323-.0041-.028-.0122-.057-.0162-.081-.0162-.111-.0284-.217-.0244-.327l-.0283 1.388c-.0284-.041-.0608-.082-.0851-.118-.0527-.086-.1013-.168-.1459-.254-.1702-.338-.2553-.681-.2472-1.02l-.4539 23.448c-.0284 1.364 1.3738 2.751 4.2147 3.857l69.0641 26.873c.004 0 .004.004.008.004.029.012.057.021.085.029.353.134.714.261 1.09.379.017.004.033.013.049.017.345.11.701.212 1.066.306.004 0 .008 0 .012.004.028.008.057.012.081.02.292.078.592.151.896.217.061.012.121.024.182.036.106.025.215.045.324.07.146.028.292.061.442.09.158.028.324.057.486.085.098.017.191.037.288.049.053.008.105.021.158.029.308.049.62.094.932.139.037.004.069.008.106.012.077.012.158.02.235.028.198.025.397.053.599.074.15.016.3.028.446.045.102.008.207.02.308.028.069.008.138.013.207.021.328.028.661.053.989.073.02 0 .04 0 .061.004.064.004.133.004.198.008.255.013.511.029.766.037.105.004.211.004.32.008.134.004.272.008.405.008.118.005.24.009.357.009.191 0 .377 0 .567-.004h.434.17c.215-.005.43-.017.645-.025.198-.008.397-.012.591-.02.041 0 .077-.004.118-.004.089-.004.174-.017.263-.021.474-.028.945-.065 1.411-.11.089-.008.182-.012.271-.02.126-.013.251-.029.377-.045.15-.017.304-.037.454-.053.288-.037.575-.078.859-.123.13-.02.255-.037.385-.057.401-.069.802-.139 1.187-.22.021-.004.041-.009.061-.013.32-.069.637-.138.94-.22.053-.012.102-.029.154-.041.065-.016.13-.037.195-.053.357-.098.709-.2 1.041-.31l71.456-23.599c.121-.041.239-.082.356-.123.033-.012.061-.024.094-.037.093-.032.182-.065.271-.102.085-.032.17-.065.251-.098.085-.036.171-.069.256-.106.052-.02.109-.045.162-.065.016-.008.032-.016.048-.024.227-.103.446-.209.649-.315.016-.008.036-.016.053-.024.024-.013.048-.029.072-.041.163-.086.313-.176.458-.265.017-.013.041-.021.057-.033.008-.004.012-.008.016-.012.15-.098.292-.192.422-.294.012-.008.024-.016.036-.025.025-.016.041-.036.061-.053.093-.073.187-.151.268-.224.02-.017.04-.033.06-.053.013-.012.021-.025.033-.033.101-.098.198-.196.287-.294 0 0 .001 0 .005-.004.085-.102.162-.2.231-.302.008-.012.016-.02.024-.033.012-.016.02-.036.032-.057.049-.077.093-.159.134-.236.008-.021.024-.037.032-.058.004-.008.009-.02.013-.028.048-.106.089-.216.121-.323 0-.004.004-.008.004-.012.004-.012.004-.024.008-.037.025-.102.045-.204.053-.306 0-.016.008-.032.008-.049.004-.036.004-.069.004-.106l.454-23.448c.004.053-.004.106-.008.155z" fill="#d1e9ff"/><path d="m135.465 413.682.074.225-.074-.225c-2.861.944-6.594 1.366-10.314 1.28-3.721-.087-7.404-.682-10.167-1.756l-69.5064-27.008-.0906.233.0906-.233c-1.3818-.537-2.3889-1.138-3.0388-1.755-.6491-.616-.924-1.229-.8969-1.803.0271-.577.361-1.179 1.0703-1.767.7092-.588 1.7731-1.141 3.2039-1.613l71.9129-23.719-.073-.221.073.221c2.861-.944 6.594-1.367 10.314-1.28 3.721.087 7.404.682 10.167 1.755l69.507 27.009c1.381.537 2.388 1.138 3.038 1.754.649.616.924 1.229.897 1.804-.027.576-.361 1.179-1.07 1.767-.709.587-1.773 1.141-3.204 1.613z" fill="url(#f)" stroke="url(#g)" stroke-width=".5"/><g filter="url(#a)"><path d="m184.14 383.161c3.98 1.551 3.87 3.914-.251 5.278l-51.148 16.889c-4.117 1.359-10.707 1.208-14.687-.343l-49.4371-19.236c-3.9796-1.551-3.8702-3.914.2513-5.278l51.1478-16.889c4.117-1.359 10.707-1.208 14.687.343z" fill="url(#h)"/></g><path d="m184.14 383.161c3.98 1.551 3.87 3.914-.251 5.278l-51.148 16.889c-4.117 1.359-10.707 1.208-14.687-.343l-49.4371-19.236c-3.9796-1.551-3.8702-3.914.2513-5.278l51.1478-16.889c4.117-1.359 10.707-1.208 14.687.343z" stroke="#fff" stroke-miterlimit="10" stroke-opacity=".19" stroke-width="2.4602"/><g filter="url(#b)"><path d="m160.86 380.476c2.403 1.046 2.338 2.644-.153 3.563l-30.892 11.408c-2.486.919-6.465.813-8.872-.234l-29.8595-12.995c-2.4022-1.046-2.3379-2.644.1532-3.563l30.8923-11.408c2.486-.918 6.465-.813 8.872.234z" fill="#0030dc" fill-opacity=".5"/></g><g filter="url(#c)" shape-rendering="crispEdges"><path d="m160.86 377.135c2.403 1.047 2.338 2.645-.153 3.563l-30.892 11.408c-2.486.919-6.465.813-8.872-.234l-29.8595-12.994c-2.4022-1.047-2.3379-2.645.1532-3.563l30.8923-11.408c2.486-.919 6.465-.813 8.872.233z" fill="url(#i)"/><path d="m160.86 377.135c2.403 1.047 2.338 2.645-.153 3.563l-30.892 11.408c-2.486.919-6.465.813-8.872-.234l-29.8595-12.994c-2.4022-1.047-2.3379-2.645.1532-3.563l30.8923-11.408c2.486-.919 6.465-.813 8.872.233z" stroke="url(#j)" stroke-miterlimit="10"/></g><path d="m69.5527 233v146.806l56.3353 24.455 1.327-169.772z" fill="url(#k)" opacity=".3"/><path d="m184.876 235.912v146.806l-58.988 21.543 1.326-169.772z" fill="url(#l)" opacity=".3"/><path d="m182.618 119.936c5.903 6.384 15.863 6.774 22.248.871 6.384-5.903 6.774-15.863.871-22.2474-5.903-6.3842-15.864-6.7743-22.248-.8714-6.384 5.9028-6.774 15.8638-.871 22.2478z" fill="url(#n)" opacity=".302734"/><path d="m189.553 113.523c2.362 2.554 6.346 2.71 8.9.349 2.553-2.362 2.709-6.346.348-8.9-2.361-2.553-6.345-2.709-8.899-.348s-2.71 6.345-.349 8.899z" fill="#fff"/><path d="m46.2896 218.088c4.0165 4.344 10.7941 4.609 15.138.593 4.344-4.017 4.6095-10.794.593-15.138s-10.794-4.609-15.138-.593c-4.344 4.017-4.6095 10.794-.593 15.138z" fill="url(#o)" opacity=".302734"/><path d="m51.0087 213.724c1.6066 1.738 4.3176 1.844 6.0552.238 1.7376-1.607 1.8438-4.318.2372-6.056-1.6066-1.737-4.3176-1.843-6.0552-.237-1.7376 1.607-1.8438 4.318-.2372 6.055z" fill="#fff"/><g opacity=".6"><path d="m123.346 333.278c4.017 4.344 10.794 4.609 15.138.593 4.344-4.017 4.61-10.794.593-15.138-4.016-4.344-10.794-4.61-15.138-.593-4.344 4.016-4.609 10.794-.593 15.138z" fill="url(#p)" opacity=".302734"/><path d="m128.065 328.914c1.607 1.738 4.318 1.844 6.056.237 1.737-1.606 1.843-4.317.237-6.055-1.607-1.737-4.318-1.844-6.055-.237-1.738 1.607-1.844 4.318-.238 6.055z" fill="#fff"/></g><path d="m113.903 374.329-20.027-8.471v-9.003l20.027 8.422z" fill="#1765cc"/><path d="m113.903 365.277 25.116-7.647-.088-70.347 11.999-4.34.399 78.625-37.426 12.761" fill="#194da6"/><path d="m154.945 293.869-15.407-6.368-.518 70.183-19.896-8.447-.674-70.466-15.399-6.363 25.524-14.869z" fill="#1a73e8"/><path d="m139.018 357.63-25.115 7.647-20.027-8.422 25.247-7.618z" fill="#1a73e8"/><path d="m141.578 252 26.369 36.33-13.002 5.54-26.37-36.331z" fill="#61a2f6"/><path d="m129.831 379.979-.034-31.802 4.608-1.667v31.556" fill="#bfc3cc"/><path d="m135.947 352.877-5.916-2.445-.199 29.568-7.64-3.243-.259-29.678-5.913-2.443 9.801-5.71z" fill="#dddfe6"/><path d="m130.815 336.799 10.126 13.951-4.993 2.127-10.126-13.951z" fill="#ebecf0"/><path d="m81.996 330.609.0338-42.659-4.6075-1.666v42.412" fill="#2e94aa"/><path d="m75.8798 292.651 5.9162-2.446.1991 40.425 7.6399-3.244.2589-40.533 5.9132-2.444-9.8014-5.709z" fill="#aeeded"/><path d="m81.0124 276.573-10.1259 13.95 4.993 2.128 10.1259-13.951z" fill="#2bced9"/><path d="m159.497 340.292-.027-18.494 3.686-1.333v18.296" fill="#2e94aa"/><path d="m164.391 325.558-4.733-1.956-.16 16.706-6.112-2.595-.207-16.793-4.73-1.955 7.841-4.568z" fill="#aeeded"/><path d="m160.284 312.696 8.101 11.16-3.995 1.702-8.1-11.16z" fill="#2bced9"/><path d="m174.365 320.894-.027-18.494 3.686-1.333v18.297" fill="#bfc3cc"/><path d="m179.259 306.16-4.733-1.956-.16 16.706-6.111-2.594-.208-16.794-4.73-1.955 7.841-4.567z" fill="#dddfe6"/><path d="m175.152 293.298 8.101 11.161-3.995 1.701-8.1-11.16z" fill="#ebecf0"/><g opacity=".8"><path d="m30.902 507.706v-83.715" opacity=".602309" stroke="url(#r)" stroke-linecap="round" stroke-width="4.94053"/><path clip-rule="evenodd" d="m30.9008 420.165c2.1479 0 3.8891 1.741 3.8891 3.889s-1.7412 3.889-3.8891 3.889-3.8891-1.741-3.8891-3.889 1.7412-3.889 3.8891-3.889z" fill="#fff" fill-rule="evenodd"/><path d="m206.66 531.002v-77.843" opacity=".602309" stroke="url(#s)" stroke-linecap="round" stroke-width="4.94053"/><path clip-rule="evenodd" d="m206.659 449.332c2.147 0 3.889 1.741 3.889 3.889s-1.742 3.889-3.889 3.889c-2.148 0-3.889-1.741-3.889-3.889s1.741-3.889 3.889-3.889z" fill="#fff" fill-rule="evenodd"/><path d="m129.996 602.376v-102.333" opacity=".602309" stroke="url(#t)" stroke-linecap="round" stroke-width="4.94053"/><path clip-rule="evenodd" d="m129.995 494.334c2.147 0 3.889 1.741 3.889 3.889s-1.742 3.889-3.889 3.889c-2.148 0-3.89-1.741-3.89-3.889s1.742-3.889 3.89-3.889z" fill="#fff" fill-rule="evenodd"/></g><path d="m54.3011 81.9327c11.8031 0 21.3714-10.0585 21.3714-22.4663 0-12.4079-9.5683-22.4664-21.3714-22.4664s-21.3714 10.0585-21.3714 22.4664c0 12.4078 9.5683 22.4663 21.3714 22.4663z" fill="url(#u)" opacity=".302734"/><path d="m54.3005 68.453c4.7212 0 8.5486-4.0235 8.5486-8.9866s-3.8274-8.9865-8.5486-8.9865-8.5485 4.0234-8.5485 8.9865 3.8273 8.9866 8.5485 8.9866z" fill="#fff"/></g></svg>