<?xml version="1.0" encoding="UTF-8"?>
<svg width="45px" height="39px" viewBox="0 0 45 39" version="1.1" xmlns="http://www.w3.org/2000/svg" xmlns:xlink="http://www.w3.org/1999/xlink">
    <title>编组 34</title>
    <g id="定稿修改" stroke="none" stroke-width="1" fill="none" fill-rule="evenodd">
        <g id="天溯运营中心—项目点击效果" transform="translate(-1838.000000, -50.000000)" fill-rule="nonzero">
            <g id="编组-71" transform="translate(1488.000000, 50.000000)">
                <g id="编组-34" transform="translate(350.000000, 0.000000)">
                    <g id="编组-31">
                        <path d="M10,0 C11.1045695,0 12,0.8954305 12,2 L12,2 L12,34 C12,35.1045695 11.1045695,36 10,36 L10,36 L2,36 C0.8954305,36 0,35.1045695 0,34 L0,34 L0,2 C0,0.8954305 0.8954305,0 2,0 L2,0 Z M10,14 L2,14 L2,16 L10,16 L10,14 Z M10,10 L2,10 L2,12 L10,12 L10,10 Z M10,4 L2,4 L2,8 L10,8 L10,4 Z" id="形状结合" fill="#58C5CA"></path>
                        <path d="M22,0 L22,18 L18,18 L18,0 L16,0 C14.8954305,0 14,0.8954305 14,2 L14,34 C14,35.1045695 14.8954305,36 16,36 L24,36 C24.530433,36 25.0391408,35.7892863 25.4142136,35.4142136 C25.7892863,35.0391408 26,34.530433 26,34 L26,2 C26,0.8954305 25.1045695,0 24,0 L22,0 Z" id="路径" fill="#1890FF"></path>
                    </g>
                    <path d="M33.5723865,11.0007695 L34.5157744,11.240842 C35.698472,11.5417021 36.8303836,11.9926077 37.8922722,12.5812471 L38.2439266,12.7828465 L39.0849731,13.2799198 L38.6871496,14.1724972 C38.2828677,15.0730858 38.4763277,16.1297404 39.1734638,16.8286845 C39.8312726,17.4872924 40.8134835,17.7003396 41.685061,17.3734645 L41.8281851,17.3149853 L42.7192481,16.9187117 L43.216335,17.7574267 C43.836767,18.8023002 44.3196376,19.9229326 44.6529625,21.0915112 L44.7591514,21.4839375 L45,22.4288384 L44.0896999,22.7781747 C43.2169432,23.1095482 42.6182838,23.9202733 42.5584258,24.8518783 L42.5538089,24.9996153 L42.5584258,25.1473522 C42.6142971,26.0232327 43.1478518,26.7972205 43.9465758,27.1610377 L44.0896999,27.2210558 L45,27.5703921 L44.7591514,28.5152931 C44.4593732,29.6947822 44.0074882,30.8302835 43.414862,31.893237 L43.2124876,32.2433428 L42.7154007,33.0789799 L41.8266461,32.6850147 C40.9254776,32.2821769 39.8692878,32.4757911 39.1696163,33.172085 C38.5119722,33.8310903 38.2996316,34.8133641 38.6263603,35.6851521 L38.6848411,35.8282723 L39.0811256,36.7193108 L38.2423876,37.2163841 C37.1974736,37.836776 36.0768135,38.3196319 34.9082115,38.652972 L34.5157744,38.759158 L33.5708475,39 L33.2215016,38.0897249 C32.8712966,37.1665311 31.987408,36.5554494 31,36.5538762 C30.0660956,36.5567042 29.2199156,37.1047659 28.8354403,37.9558383 L28.7777289,38.0912638 L28.4276135,38.9992305 L27.4842255,38.759158 C26.3056102,38.4591377 25.1705247,38.0086332 24.1069583,37.4187529 L23.7560734,37.2171535 L22.9150269,36.7200802 L23.3128504,35.8275028 C23.7171323,34.9269142 23.5236723,33.8702596 22.8265362,33.1713155 C22.1687274,32.5127076 21.1865165,32.2996604 20.314939,32.6265355 L20.1718149,32.6850147 L19.2807519,33.0789799 L18.7836649,32.2402649 C18.1632705,31.1956445 17.6804002,30.0752714 17.3470375,28.9069499 L17.2408486,28.5145236 L17,27.5696227 L17.9103001,27.2202864 C18.8332567,26.8701912 19.4442988,25.9867147 19.446191,24.9996153 C19.4436641,24.0654576 18.8955392,23.2189257 18.0441904,22.8343456 L17.9087611,22.7774053 L17.0007695,22.4272994 L17.2408486,21.4839375 C17.543256,20.2974251 17.9949434,19.1647751 18.5851379,18.1059936 L18.7875124,17.7558878 L19.2845993,16.9202506 L20.1733538,17.3142158 C21.0746499,17.7170854 22.1309945,17.5231369 22.8303836,16.8263761 C23.4878942,16.1676145 23.7002371,15.1856307 23.3736397,14.3140784 L23.3151588,14.1709583 L22.9188744,13.2799198 L23.7576124,12.7828465 C24.8025107,12.1624239 25.9231749,11.6795662 27.0917885,11.3462585 L27.4842255,11.2400725 L28.4291525,11 L28.7784984,11.9102751 C29.1287034,12.8334688 30.0125919,13.4445506 31,13.4461238 C31.9339043,13.4432958 32.7800844,12.8952341 33.1645597,12.0441617 L33.2222711,11.9087362 L33.5723865,11.0007695 Z M30.5,20.0007556 C28.0150642,20.0015897 26.0008342,22.0156507 26,24.5003778 C26.0007105,26.9196206 27.9137666,28.9056012 30.3314862,28.9969776 L30.3314862,28.9969776 L30.5,29 L30.6685139,28.996222 C33.0859409,28.9048568 34.9988835,26.9193277 35,24.5003778 C34.999583,22.0153556 32.9852308,20.0008343 30.5,20 Z" id="形状结合" fill-opacity="0.384529167" fill="#FFFFFF"></path>
                </g>
            </g>
        </g>
    </g>
</svg>