<?xml version="1.0" encoding="UTF-8"?>
<svg width="529px" height="59px" viewBox="0 0 529 59" version="1.1" xmlns="http://www.w3.org/2000/svg" xmlns:xlink="http://www.w3.org/1999/xlink">
    <title>编组 59</title>
    <defs>
        <linearGradient x1="6.9483817%" y1="29.9128592%" x2="72.6613072%" y2="91.1876046%" id="linearGradient-1">
            <stop stop-color="#FFFFFF" offset="0%"></stop>
            <stop stop-color="#A8EDFF" offset="100%"></stop>
        </linearGradient>
        <linearGradient x1="78.0645333%" y1="75.7130342%" x2="28.9829927%" y2="86.02265%" id="linearGradient-2">
            <stop stop-color="#0081CD" offset="0%"></stop>
            <stop stop-color="#8BE8FF" offset="100%"></stop>
        </linearGradient>
        <path d="M25.5,0 C39.5832611,0 51,11.4167389 51,25.5 C51,39.5832611 39.5832611,51 25.5,51 C11.4167389,51 0,39.5832611 0,25.5 C0,11.4167389 11.4167389,0 25.5,0 Z M25.5,11.9 C17.9889274,11.9 11.9,17.9889274 11.9,25.5 C11.9,33.0110726 17.9889274,39.1 25.5,39.1 C33.0110726,39.1 39.1,33.0110726 39.1,25.5 C39.1,17.9889274 33.0110726,11.9 25.5,11.9 Z" id="path-3"></path>
        <linearGradient x1="28.6823741%" y1="50%" x2="75.6139481%" y2="42.8248022%" id="linearGradient-5">
            <stop stop-color="#00AAFF" offset="0%"></stop>
            <stop stop-color="#0081CD" offset="100%"></stop>
        </linearGradient>
        <linearGradient x1="11.5990195%" y1="29.9128592%" x2="70.2133265%" y2="91.1876046%" id="linearGradient-6">
            <stop stop-color="#FFFFFF" offset="0%"></stop>
            <stop stop-color="#A8EDFF" offset="100%"></stop>
        </linearGradient>
        <linearGradient x1="50%" y1="84.8160437%" x2="39.5266978%" y2="5.29039788%" id="linearGradient-7">
            <stop stop-color="#0072D9" offset="0%"></stop>
            <stop stop-color="#8BE8FF" offset="100%"></stop>
        </linearGradient>
        <path d="M28.5349668,0 C38.2434719,0 46.6822976,5.43764684 50.973599,13.4342998 L40.7923747,19.6178328 C38.6097313,15.0418729 33.9414945,11.88 28.5349668,11.88 C21.0385907,11.88 14.9615772,17.9586939 14.9615772,25.4571429 C14.9615772,32.9555918 21.0385907,39.0342857 28.5349668,39.0342857 C33.2913266,39.0342857 37.4762867,36.5871563 39.9001485,32.882925 L50.2035457,38.816025 C45.7205055,46.076237 37.6925734,50.9142857 28.5349668,50.9142857 C14.4792616,50.9142857 3.08486127,39.5167346 3.08486127,25.4571429 C3.08486127,11.3975511 14.4792616,0 28.5349668,0 Z" id="path-8"></path>
        <linearGradient x1="44.6761907%" y1="47.8054576%" x2="54.3354947%" y2="55.6052088%" id="linearGradient-10">
            <stop stop-color="#36D6FF" offset="0%"></stop>
            <stop stop-color="#078FDF" offset="100%"></stop>
        </linearGradient>
        <linearGradient x1="50%" y1="0%" x2="50%" y2="100%" id="linearGradient-11">
            <stop stop-color="#E6F9FF" offset="0%"></stop>
            <stop stop-color="#48C5E6" offset="100%"></stop>
        </linearGradient>
        <linearGradient x1="82.3590259%" y1="0%" x2="40.525849%" y2="50%" id="linearGradient-12">
            <stop stop-color="#00B2E2" offset="0%"></stop>
            <stop stop-color="#0658C6" offset="100%"></stop>
        </linearGradient>
        <linearGradient x1="50%" y1="3.35987307%" x2="50%" y2="100%" id="linearGradient-13">
            <stop stop-color="#65E3FF" offset="0%"></stop>
            <stop stop-color="#0089DC" offset="100%"></stop>
        </linearGradient>
        <linearGradient x1="100%" y1="63.3644798%" x2="0%" y2="63.3644798%" id="linearGradient-14">
            <stop stop-color="#8BE7FF" offset="0%"></stop>
            <stop stop-color="#22BFFF" offset="100%"></stop>
        </linearGradient>
        <path d="M187.155,50.48 C189.435,50.48 191.325,49.415 192.825,47.285 L205.56,29.375 L211.275,29.33 L221.58,48.185 C222.39,49.715 223.515,50.48 224.955,50.48 L232.92,50.48 L221.625,29.33 L232.74,29.33 C233.67,29.33 234.375,28.79 234.855,27.71 L236.43,23.075 L209.16,23.12 L213.66,14.03 L232.92,14.03 C234.09,14.03 234.96,13.37 235.53,12.05 L236.835,8.045 L189.045,8 C187.905,8 187.065,8.645 186.525,9.935 L185.13,13.985 L202.905,14.03 L198,23.12 L185.355,23.075 C184.425,23.075 183.72,23.6 183.24,24.65 L181.665,29.33 L194.85,29.375 L180,50.48 L187.155,50.48 Z M256.41,50.48 C258.6,50.48 260.325,49.355 261.585,47.105 L261.585,47.105 L265.23,39.455 L268.65,39.455 C269.52,39.455 270.345,39.14 271.125,38.51 C271.875,37.88 272.31,37.115 272.43,36.215 L272.43,36.215 L275.13,15.965 L271.53,15.965 C271.05,15.965 270.645,16.115 270.315,16.415 C269.985,16.715 269.79,17.12 269.73,17.63 L269.73,17.63 L267.345,35.495 C267.345,35.885 267.165,36.08 266.805,36.08 L266.805,36.08 L266.13,36.08 L268.92,14.975 L274.59,14.975 C274.89,14.975 275.1675,14.8625 275.4225,14.6375 C275.6775,14.4125 275.82,14.135 275.85,13.805 L275.85,13.805 L276.165,11.375 L275.085,11.375 L275.76,8.045 L269.55,8.045 C268.92,8.045 268.3575,8.255 267.8625,8.675 C267.3675,9.095 267.045,9.635 266.895,10.295 L266.895,10.295 L266.67,11.375 L264.285,11.375 L264.285,11.105 C264.315,10.265 264.06,9.545 263.52,8.945 C262.98,8.345 262.32,8.045 261.54,8.045 L261.54,8.045 L256.05,8.045 L255.87,11.375 L255.731327,11.3818878 C255.45949,11.4094388 255.220714,11.5196429 255.015,11.7125 C254.775,11.9375 254.625,12.23 254.565,12.59 L254.565,12.59 L254.25,14.975 L261,14.975 L258.21,36.08 L257.58,36.08 C257.22,36.08 257.085,35.885 257.175,35.495 L257.175,35.495 L259.785,15.965 L256.14,15.965 C255.69,15.965 255.3,16.115 254.97,16.415 C254.64,16.715 254.43,17.12 254.34,17.63 L254.34,17.63 L251.91,36.215 C251.79,37.085 251.97,37.835 252.45,38.465 C252.96,39.125 253.65,39.455 254.52,39.455 L254.52,39.455 L256.86,39.455 L251.595,50.48 L256.41,50.48 Z M253.215,14.39 L253.71,10.16 L243.99,8.135 L243.81,9.755 C243.72,10.505 243.855,11.165 244.215,11.735 C244.545,12.335 245.025,12.71 245.655,12.86 L245.655,12.86 L253.215,14.39 Z M275.67,50.48 C276.81,50.48 277.845,50.06 278.775,49.22 C279.705,48.38 280.245,47.36 280.395,46.16 L280.395,46.16 L281.925,34.415 L283.995,34.415 L282.465,45.89 C282.435,46.22 282.315,46.505 282.105,46.745 C281.895,46.985 281.64,47.105 281.34,47.105 L281.34,47.105 L280.935,47.105 L280.485,50.48 L285.525,50.48 C286.665,50.48 287.715,50.06 288.675,49.22 C289.605,48.38 290.16,47.36 290.34,46.16 L290.34,46.16 L295.335,8.27 L286.065,8.27 L285.615,11.645 L287.01,11.645 L286.065,18.575 L284.04,18.575 L284.85,12.365 L284.94,11.645 L285.39,8.27 L277.74,8.27 L272.925,44.63 L272.7,46.16 L272.115,50.48 L275.67,50.48 Z M252.315,21.95 L252.81,17.72 L243.09,15.695 L242.865,17.315 C242.775,18.095 242.91,18.77 243.27,19.34 C243.6,19.88 244.095,20.24 244.755,20.42 L244.755,20.42 L252.315,21.95 Z M284.445,30.815 L282.42,30.815 L283.545,22.175 L285.615,22.175 L284.445,30.815 Z M243.315,50.48 C244.335,50.48 245.265,50.075 246.105,49.265 C246.915,48.485 247.455,47.495 247.725,46.295 L247.725,46.295 L252.045,24.245 L243.45,24.245 L238.5,50.48 L243.315,50.48 Z M309.465,16.37 L311.4,11.42 L302.445,8.045 C301.875,9.425 301.905,10.76 302.535,12.05 C303.135,13.34 304.14,14.27 305.55,14.84 L309.465,16.37 Z M351.45,12.725 C351.93,12.725 352.365,12.575 352.755,12.275 C353.115,11.975 353.325,11.6 353.385,11.15 L353.835,8.72 L318.78,8.72 C318.36,8.72 317.97,8.855 317.61,9.125 C317.28,9.425 317.085,9.785 317.025,10.205 L316.575,12.725 L351.45,12.725 Z M305.01,50.345 C305.58,50.225 306.045,49.91 306.405,49.4 L306.585,49.13 L346.365,50.39 C347.355,50.39 348.255,50.075 349.065,49.445 C349.815,48.815 350.31,47.84 350.55,46.52 L310.275,45.215 C310.005,45.215 309.705,45.155 309.375,45.035 C309.015,44.885 308.715,44.69 308.475,44.45 C308.205,44.24 307.995,43.97 307.845,43.64 C307.695,43.34 307.65,43.01 307.71,42.65 L311.265,17.315 L300.51,17.315 C300.06,17.315 299.655,17.465 299.295,17.765 C298.935,18.065 298.695,18.44 298.575,18.89 L298.35,20.645 L301.545,20.645 L297,50.48 L303.255,50.48 L303.255,50.48 C303.915,50.51 304.5,50.465 305.01,50.345 Z M350.37,44.36 L349.515,29.825 C349.455,28.895 349.08,28.1225 348.39,27.5075 C347.7,26.8925 346.89,26.585 345.96,26.585 L339.885,26.585 L340.56,38.285 L323.775,38.87 C323.385,38.93 323.085,38.84 322.875,38.6 C322.725,38.42 322.71,38.18 322.83,37.88 L328.815,23.435 L351.495,23.435 C351.795,23.435 352.08,23.33 352.35,23.12 C352.62,22.91 352.785,22.64 352.845,22.31 L353.475,19.16 L315.495,19.16 C315.165,19.16 314.85,19.28 314.55,19.52 C314.28,19.76 314.115,20.06 314.055,20.42 L313.605,23.435 L318.915,23.435 L311.85,40.31 C311.46,41.39 311.58,42.35 312.21,43.19 C312.87,44 313.785,44.375 314.955,44.315 L340.695,42.74 L340.83,43.28 C340.86,43.61 340.98,43.88 341.19,44.09 C341.43,44.27 341.7,44.36 342,44.36 L350.37,44.36 Z M376.02,15.785 L376.29,13.805 L394.38,13.805 L394.11,15.785 L404.145,15.785 L404.415,13.805 L410.76,13.805 C411.06,13.805 411.315,13.7 411.525,13.49 C411.765,13.31 411.9,13.07 411.93,12.77 L411.93,12.77 L412.335,9.845 L404.955,9.845 L405.225,8.045 L396.27,8.045 C396,8.045 395.73,8.165 395.46,8.405 C395.19,8.645 395.04,8.915 395.01,9.215 L395.01,9.215 L394.92,9.845 L376.83,9.845 L377.1,8.045 L367.785,8.045 C367.545,8.045 367.29,8.165 367.02,8.405 C366.75,8.615 366.585,8.855 366.525,9.125 L366.525,9.125 L366.435,9.845 L360.585,9.89 C360.285,9.89 360.015,9.995 359.775,10.205 C359.535,10.415 359.385,10.67 359.325,10.97 L359.325,10.97 L358.92,13.805 L365.895,13.805 L365.58,15.785 L376.02,15.785 Z M370.35,22.85 L371.07,17.54 L362.52,17.54 C361.53,17.54 360.66,17.795 359.91,18.305 C359.13,18.845 358.665,19.52 358.515,20.33 L358.515,20.33 L358.155,22.85 L370.35,22.85 Z M410.13,22.85 L410.445,20.51 C410.565,19.67 410.3775,18.965 409.8825,18.395 C409.3875,17.825 408.72,17.54 407.88,17.54 L407.88,17.54 L372.105,17.54 L371.7,20.375 L397.935,20.375 L397.575,22.85 L410.13,22.85 Z M401.355,36.125 C402.165,36.125 402.885,35.87 403.515,35.36 C404.205,34.82 404.655,34.145 404.865,33.335 L404.865,33.335 L406.17,24.11 L372.42,24.11 L372.105,26.585 L395.64,26.585 L394.875,32.075 C394.785,32.435 394.56,32.75 394.2,33.02 C393.87,33.26 393.495,33.38 393.075,33.38 L393.075,33.38 L371.34,33.38 C370.92,33.38 370.59,33.245 370.35,32.975 C370.11,32.705 370.005,32.36 370.035,31.94 L370.035,31.94 L371.16,24.11 L360.54,24.11 L359.19,33.605 C359.04,34.295 359.175,34.895 359.595,35.405 C360.045,35.885 360.63,36.125 361.35,36.125 L361.35,36.125 L401.355,36.125 Z M401.31,50.48 C402.12,50.48 402.84,50.225 403.47,49.715 C404.13,49.205 404.55,48.545 404.73,47.735 L404.73,47.735 L406.17,37.79 L369.405,37.79 L369.045,40.355 L394.965,40.355 L394.245,45.395 C394.125,46.085 393.9,46.535 393.57,46.745 C393.21,46.985 392.79,47.105 392.31,47.105 L392.31,47.105 L368.1,47.105 C367.71,47.105 367.4025,46.97 367.1775,46.7 C366.9525,46.43 366.87,46.1 366.93,45.71 L366.93,45.71 L368.055,37.79 L357.21,37.79 L355.545,47.78 C355.395,48.5 355.53,49.13 355.95,49.67 C356.4,50.21 356.97,50.48 357.66,50.48 L357.66,50.48 L401.31,50.48 Z M456.03,36.935 C455.91,36.965 455.79,36.965 455.67,36.935 L455.67,36.935 L445.32,36.935 L448.065,19.385 L460.485,19.385 L458.505,31.805 L458.01,34.865 C457.965,35.09 457.903125,35.298125 457.824375,35.489375 L457.796,35.551 L457.74,35.63 L457.74,35.63 L457.669,35.786 L457.659,35.801 C457.569,35.927 457.452,36.053 457.308,36.179 L457.155,36.305 C456.957,36.485 456.7428,36.6434 456.5124,36.7802 L456.463,36.808 L456.2766,36.872 L456.2766,36.872 L456.03,36.935 Z M424.035,35.405 C423.975,35.105 423.96,34.805 423.99,34.505 L423.99,34.505 L426.96,15.245 L417.69,15.245 L414.63,36.755 C414.42,38.105 414.72,39.26 415.53,40.22 C416.37,41.18 417.45,41.66 418.77,41.66 L418.77,41.66 L435.555,41.66 L434.25,50.48 L443.52,50.48 L444.825,41.66 L461.61,41.66 C462.96,41.66 464.175,41.12 465.255,40.04 C466.335,39.17 466.98,38.105 467.19,36.845 L467.19,36.845 L470.25,15.245 L448.56,15.245 L449.91,8.18 L441.45,8.18 C441.15,8.18 440.8875,8.285 440.6625,8.495 C440.4375,8.705 440.31,8.96 440.28,9.26 L440.28,9.26 L439.29,15.245 L428.625,15.245 L428.04,19.565 L438.795,19.565 L436.05,37.115 L425.88,37.115 C425.58,37.115 425.31,37.025 425.07,36.845 C424.83,36.665 424.62,36.47 424.44,36.26 C424.29,36.08 424.185,35.87 424.125,35.63 C424.095,35.6 424.08,35.585 424.08,35.585 L424.08,35.585 L424.075,35.525 L424.075,35.525 L424.066,35.49 L424.06,35.466 L424.06,35.465 L424.049,35.438 L424.035,35.405 Z M511.785,50.435 C511.905,49.235 511.5975,48.2 510.8625,47.33 C510.1275,46.46 509.175,46.025 508.005,46.025 L497.97,46.025 C497.61,46.025 497.28,45.89 496.98,45.62 C496.65,45.26 496.515,44.84 496.575,44.36 L501.57,8.135 L493.56,8.135 C493.23,8.135 492.9375,8.2475 492.6825,8.4725 C492.4275,8.6975 492.27,8.975 492.21,9.305 L487.215,45.485 C487.035,46.835 487.35,47.99 488.16,48.95 C488.97,49.94 490.05,50.435 491.4,50.435 L511.785,50.435 Z M475.515,50.255 C477.345,50.255 478.9875,49.625 480.4425,48.365 C481.8975,47.105 482.82,45.53 483.21,43.64 L489.33,8.18 L480.285,8.18 L472.995,50.255 L475.515,50.255 Z M511.875,43.19 L515.025,12.23 C515.115,11.06 514.8225,10.0925 514.1475,9.3275 C513.4725,8.5625 512.58,8.18 511.47,8.18 L506.61,8.18 L502.965,43.19 L511.875,43.19 Z M525.15,50.255 L528.93,13.715 C529.05,12.125 528.645,10.805 527.715,9.755 C526.785,8.705 525.57,8.18 524.07,8.18 L520.425,8.18 L516.285,48.275 C516.255,48.845 516.405,49.3175 516.735,49.6925 C517.065,50.0675 517.515,50.255 518.085,50.255 L525.15,50.255 Z" id="path-15"></path>
    </defs>
    <g id="定稿修改" stroke="none" stroke-width="1" fill="none" fill-rule="evenodd">
        <g id="天溯运营中心—项目点击效果" transform="translate(-30.000000, -37.000000)">
            <g id="编组-59" transform="translate(30.000000, 37.000000)">
                <line x1="158.5" y1="14.5" x2="158.5" y2="45.5" id="直线-10" stroke="#00B4FF" stroke-linecap="square"></line>
                <g id="编组-30">
                    <g id="编组-28" transform="translate(36.000000, 5.000000)">
                        <path d="M27,0 C41.9116882,0 54,12.0883118 54,27 C54,41.9116882 41.9116882,54 27,54 C12.0883118,54 0,41.9116882 0,27 C0,12.0883118 12.0883118,0 27,0 Z M29.0057143,10.8 C20.8255882,10.8 14.1942857,17.4313024 14.1942857,25.6114286 C14.1942857,33.7915547 20.8255882,40.4228571 29.0057143,40.4228571 C37.1858404,40.4228571 43.8171429,33.7915547 43.8171429,25.6114286 C43.8171429,17.4313024 37.1858404,10.8 29.0057143,10.8 Z" id="形状结合" fill="url(#linearGradient-1)"></path>
                        <g id="路径-154" transform="translate(2.000000, 0.000000)">
                            <mask id="mask-4" fill="white">
                                <use xlink:href="#path-3"></use>
                            </mask>
                            <use id="蒙版" fill="url(#linearGradient-2)" xlink:href="#path-3"></use>
                            <path d="M34.9968012,35.4849909 C25.6247224,47.1677242 15.6458722,48.9909091 5.06025058,40.9545455 C5.79303348,47.2834855 7.7123439,51.1471219 10.8181818,52.5454545 C13.9240197,53.9437872 25.0217241,54.3284637 44.1112948,53.6994839 L50.4871626,37.2452753 L34.9968012,35.4849909 Z" fill="url(#linearGradient-5)" mask="url(#mask-4)"></path>
                        </g>
                    </g>
                    <g id="编组-28" transform="translate(93.000000, 5.000000)">
                        <g id="编组-29">
                            <path d="M26.9925361,0 C37.0623301,0 45.8442411,5.51560725 50.4835469,13.6913103 L42.125918,18.7541262 C39.652719,14.0263041 34.7018752,10.8 28.997696,10.8 C20.8198312,10.8 14.1903619,17.4313024 14.1903619,25.6114286 C14.1903619,33.7915547 20.8198312,40.4228571 28.997696,40.4228571 C34.0284661,40.4228571 38.4732721,37.913353 41.1492383,34.0775474 L50.9999534,39.3543784 C46.5173937,48.0522668 37.4493567,54 26.9925361,54 C12.0849701,54 0,41.9116882 0,27 C0,12.0883118 12.0849701,0 26.9925361,0 Z" id="形状结合" fill="url(#linearGradient-6)"></path>
                            <mask id="mask-9" fill="white">
                                <use xlink:href="#path-8"></use>
                            </mask>
                            <use id="形状结合" fill="url(#linearGradient-7)" xlink:href="#path-8"></use>
                            <path d="M39.2181365,33.2271693 C29.1623639,46.2778778 18.455556,48.3145462 7.09771262,39.3371745 C7.88395208,46.407194 9.94327631,50.723238 13.2756853,52.2853067 C16.6080943,53.8473754 28.5153769,54.2770951 48.997533,53.5744657 L55.8385207,35.193572 L39.2181365,33.2271693 Z" id="路径-154" fill="url(#linearGradient-10)" mask="url(#mask-9)"></path>
                        </g>
                        <g id="路径-154" transform="translate(4.000000, 0.000000)"></g>
                    </g>
                    <g id="编组-27">
                        <path d="M21.5996171,0 L17.5059019,0 L0,17.9839245 L8.6537019,17.9839245 L8.6537019,45.7744074 C10.7141519,55.3316211 18.162918,59.7090858 31,58.9068014 L21.5996171,50.8400915 L21.5996171,0 Z" id="路径-152" fill="url(#linearGradient-11)"></path>
                        <polygon id="路径-153" fill="url(#linearGradient-12)" points="22 45 32 45 32 59 22.325787 52.6574513"></polygon>
                        <path d="M21.9805407,0 L6,16.2272621 L10.6172673,16.2272621 L10.6172673,41.534199 C11.9723806,53.8936632 18.9760019,59.6936076 31.6281311,58.9340324 C26.2641868,53.4950431 23.2039296,48.5165519 22.4473596,43.9985589 L22.4473596,18.6236073 L32,18.6236073 L32,5.18489115 L21.9805407,5.18489115 L21.9805407,0 Z" id="路径-151" fill="url(#linearGradient-13)"></path>
                    </g>
                </g>
                <g id="天溯运营中心" fill-rule="nonzero">
                    <use fill="#FFFFFF" xlink:href="#path-15"></use>
                    <use fill="url(#linearGradient-14)" xlink:href="#path-15"></use>
                </g>
            </g>
        </g>
    </g>
</svg>