<?xml version="1.0" encoding="UTF-8"?>
<svg width="116px" height="24px" viewBox="0 0 116 24" version="1.1" xmlns="http://www.w3.org/2000/svg" xmlns:xlink="http://www.w3.org/1999/xlink">
    <title>画板</title>
    <g id="画板" stroke="none" stroke-width="1" fill="none" fill-rule="evenodd" opacity="0.499395461">
        <g id="编组-31" fill="#FFFFFF">
            <rect id="矩形" x="0" y="0" width="1" height="24"></rect>
            <rect id="矩形备份-54" x="5" y="0" width="1" height="24"></rect>
            <rect id="矩形备份-55" x="10" y="0" width="1" height="24"></rect>
            <rect id="矩形备份-56" x="15" y="0" width="1" height="24"></rect>
            <rect id="矩形备份-57" x="20" y="0" width="1" height="24"></rect>
            <rect id="矩形备份-58" x="25" y="0" width="1" height="24"></rect>
            <rect id="矩形备份-59" x="30" y="0" width="1" height="24"></rect>
            <rect id="矩形备份-60" x="35" y="0" width="1" height="24"></rect>
            <rect id="矩形备份-61" x="40" y="0" width="1" height="24"></rect>
            <rect id="矩形备份-62" x="45" y="0" width="1" height="24"></rect>
            <rect id="矩形备份-63" x="50" y="0" width="1" height="24"></rect>
            <rect id="矩形备份-65" x="55" y="0" width="1" height="24"></rect>
            <rect id="矩形备份-66" x="60" y="0" width="1" height="24"></rect>
            <rect id="矩形备份-67" x="65" y="0" width="1" height="24"></rect>
            <rect id="矩形备份-68" x="70" y="0" width="1" height="24"></rect>
            <rect id="矩形备份-69" x="75" y="0" width="1" height="24"></rect>
            <rect id="矩形备份-70" x="80" y="0" width="1" height="24"></rect>
            <rect id="矩形备份-71" x="85" y="0" width="1" height="24"></rect>
            <rect id="矩形备份-72" x="90" y="0" width="1" height="24"></rect>
            <rect id="矩形备份-73" x="95" y="0" width="1" height="24"></rect>
            <rect id="矩形备份-74" x="100" y="0" width="1" height="24"></rect>
            <rect id="矩形备份-75" x="105" y="0" width="1" height="24"></rect>
            <rect id="矩形备份-76" x="110" y="0" width="1" height="24"></rect>
            <rect id="矩形备份-77" x="115" y="0" width="1" height="24"></rect>
        </g>
    </g>
</svg>