<svg fill="none" height="170" viewBox="0 0 156 170" width="156" xmlns="http://www.w3.org/2000/svg" xmlns:xlink="http://www.w3.org/1999/xlink"><linearGradient id="a" gradientUnits="userSpaceOnUse" x1="90.7642" x2="65.2212" y1="116.428" y2="60.1619"><stop offset="0" stop-color="#273558" stop-opacity="0"/><stop offset="1" stop-color="#82a1f0"/></linearGradient><linearGradient id="b" gradientUnits="userSpaceOnUse" x1="56.6607" x2="54.3382" y1="47.5609" y2="102.46"><stop offset="0" stop-color="#98b5ff"/><stop offset="1" stop-color="#3f4e76" stop-opacity="0"/></linearGradient><linearGradient id="c"><stop offset="0" stop-color="#9bb9ff" stop-opacity="0"/><stop offset="1" stop-color="#94b4ff"/></linearGradient><linearGradient id="d" gradientUnits="userSpaceOnUse" x1="72.2241" x2="72.2241" xlink:href="#c" y1="18.2371" y2="55.2113"/><linearGradient id="e"><stop offset="0" stop-color="#13114e"/><stop offset="1" stop-color="#21114e" stop-opacity="0"/></linearGradient><linearGradient id="f" gradientUnits="userSpaceOnUse" x1="58.1042" x2="98.7265" xlink:href="#e" y1="39.0001" y2="39.98"/><linearGradient id="g" gradientUnits="userSpaceOnUse" x1="54.4999" x2="95.147" xlink:href="#e" y1="32" y2="33.9781"/><linearGradient id="h"><stop offset="0" stop-color="#273558" stop-opacity="0"/><stop offset="1" stop-color="#3f4e76"/></linearGradient><linearGradient id="i" gradientUnits="userSpaceOnUse" x1="24.9771" x2="16.5531" xlink:href="#h" y1="98.7106" y2="80.1542"/><linearGradient id="j"><stop offset="0" stop-color="#273558"/><stop offset="1" stop-color="#3f4e76" stop-opacity="0"/></linearGradient><linearGradient id="k" gradientUnits="userSpaceOnUse" x1="13.7302" x2="12.9642" xlink:href="#j" y1="75.9984" y2="94.104"/><linearGradient id="l" gradientUnits="userSpaceOnUse" x1="18.8631" x2="18.8631" xlink:href="#c" y1="66.3274" y2="78.5214"/><linearGradient id="m" gradientUnits="userSpaceOnUse" x1="143.189" x2="134.765" xlink:href="#h" y1="89.6621" y2="71.1057"/><linearGradient id="n" gradientUnits="userSpaceOnUse" x1="131.941" x2="131.175" xlink:href="#j" y1="66.9499" y2="85.0555"/><linearGradient id="o" gradientUnits="userSpaceOnUse" x1="137.074" x2="137.074" xlink:href="#c" y1="57.2791" y2="69.4731"/><linearGradient id="p" gradientUnits="userSpaceOnUse" x1="60.9484" x2="60.9484" y1="8.2395" y2="28.4336"><stop offset="0" stop-color="#fff"/><stop offset="1" stop-color="#d6c2bc"/></linearGradient><linearGradient id="q"><stop offset="0" stop-color="#db8300"/><stop offset="1" stop-color="#ffd15b"/></linearGradient><linearGradient id="r" gradientUnits="userSpaceOnUse" x1="66.0103" x2="80.0191" xlink:href="#q" y1="14.8115" y2="31.738"/><linearGradient id="s"><stop offset="0" stop-color="#ff7a00"/><stop offset=".265625" stop-color="#f4a100"/><stop offset=".635417" stop-color="#ab6524"/><stop offset="1" stop-color="#d78100"/></linearGradient><linearGradient id="t" gradientUnits="userSpaceOnUse" x1="58.3992" x2="85.7646" xlink:href="#s" y1="30.6108" y2="29.2295"/><linearGradient id="u"><stop offset="0" stop-color="#d76700"/><stop offset="1" stop-color="#f90"/></linearGradient><linearGradient id="v" gradientUnits="userSpaceOnUse" x1="62.6279" x2="83.7742" xlink:href="#u" y1="24.5694" y2="26.2557"/><linearGradient id="w" gradientUnits="userSpaceOnUse" x1="66.0103" x2="80.019" xlink:href="#q" y1="10.5686" y2="27.4951"/><linearGradient id="x" gradientUnits="userSpaceOnUse" x1="58.3989" x2="85.7643" xlink:href="#s" y1="26.3682" y2="24.987"/><linearGradient id="y" gradientUnits="userSpaceOnUse" x1="62.6279" x2="83.7742" xlink:href="#u" y1="20.3268" y2="22.013"/><linearGradient id="z" gradientUnits="userSpaceOnUse" x1="66.0103" x2="80.0191" xlink:href="#q" y1="6.32644" y2="23.2529"/><linearGradient id="A" gradientUnits="userSpaceOnUse" x1="58.3989" x2="85.7643" xlink:href="#s" y1="22.1254" y2="20.7442"/><linearGradient id="B" gradientUnits="userSpaceOnUse" x1="62.6279" x2="83.7742" xlink:href="#u" y1="16.0842" y2="17.7705"/><linearGradient id="C" gradientUnits="userSpaceOnUse" x1="66.0103" x2="80.0191" xlink:href="#q" y1="2.08389" y2="19.0104"/><linearGradient id="D" gradientUnits="userSpaceOnUse" x1="58.3989" x2="85.7643" xlink:href="#s" y1="17.883" y2="16.5018"/><linearGradient id="E" gradientUnits="userSpaceOnUse" x1="62.6279" x2="83.7742" xlink:href="#u" y1="11.8417" y2="13.528"/><linearGradient id="F" gradientUnits="userSpaceOnUse" x1="66.0103" x2="80.0191" xlink:href="#q" y1="-2.15885" y2="14.7676"/><linearGradient id="G" gradientUnits="userSpaceOnUse" x1="58.3989" x2="85.7643" xlink:href="#s" y1="13.6406" y2="12.2594"/><linearGradient id="H" gradientUnits="userSpaceOnUse" x1="62.6279" x2="83.7742" xlink:href="#u" y1="7.59904" y2="9.28531"/><linearGradient id="I" gradientUnits="userSpaceOnUse" x1="66.0101" x2="80.0189" xlink:href="#q" y1="-6.3638" y2="10.5627"/><linearGradient id="J" gradientUnits="userSpaceOnUse" x1="58.3987" x2="85.7641" xlink:href="#s" y1="9.43585" y2="8.05461"/><linearGradient id="K" gradientUnits="userSpaceOnUse" x1="62.6277" x2="83.774" xlink:href="#u" y1="3.39433" y2="5.08059"/><linearGradient id="L" gradientUnits="userSpaceOnUse" x1="49.728" x2="57.9594" xlink:href="#q" y1="32.2609" y2="42.2069"/><linearGradient id="M" gradientUnits="userSpaceOnUse" x1="45.2544" x2="61.3344" xlink:href="#s" y1="41.5443" y2="40.7327"/><linearGradient id="N" gradientUnits="userSpaceOnUse" x1="47.739" x2="60.1646" xlink:href="#u" y1="37.9946" y2="38.9854"/><linearGradient id="O" gradientUnits="userSpaceOnUse" x1="61.9228" x2="65.5719" xlink:href="#q" y1="30.3249" y2="42.7089"/><linearGradient id="P" gradientUnits="userSpaceOnUse" x1="54.1546" x2="69.2547" xlink:href="#s" y1="37.0963" y2="42.683"/><linearGradient id="Q" gradientUnits="userSpaceOnUse" x1="57.8365" x2="68.8677" xlink:href="#u" y1="34.812" y2="40.6163"/><linearGradient id="R" gradientUnits="userSpaceOnUse" x1="86.3108" x2="100.32" xlink:href="#q" y1="19.4152" y2="36.3417"/><linearGradient id="S" gradientUnits="userSpaceOnUse" x1="78.6982" x2="106.064" xlink:href="#s" y1="35.2143" y2="33.833"/><linearGradient id="T" gradientUnits="userSpaceOnUse" x1="82.927" x2="104.073" xlink:href="#u" y1="29.1731" y2="30.8594"/><linearGradient id="U" gradientUnits="userSpaceOnUse" x1="86.3108" x2="100.32" xlink:href="#q" y1="15.1724" y2="32.0989"/><linearGradient id="V" gradientUnits="userSpaceOnUse" x1="78.6982" x2="106.064" xlink:href="#s" y1="30.972" y2="29.5907"/><linearGradient id="W" gradientUnits="userSpaceOnUse" x1="82.927" x2="104.073" xlink:href="#u" y1="24.9303" y2="26.6165"/><clipPath id="X"><path d="m0 0h155.937v169.995h-155.937z"/></clipPath><g clip-path="url(#X)" opacity=".16"><path d="m72.2247 55.2116 57.1953-18.4871v114.7825l-57.1953 18.488z" fill="url(#a)"/><path d="m15.0287 36.7245 57.1954 18.4871v104.7834l-57.1954-18.488z" fill="url(#b)"/><path d="m16.6544 36.7242 55.5697-17.9617 55.5699 17.9617-55.5699 17.9616z" fill="#5384cd" stroke="url(#d)"/><path d="m93.5933 44.5h-36.5934l2.967-5h42.0331z" fill="url(#f)"/><path d="m86.9999 40h-25.9997l-14.9397-12h23.9395l26.9999 8.5z" fill="url(#g)"/><g opacity=".2"><path d="m18.8628 78.5216 18.8629-6.097v21.3652l-18.8629 6.097z" fill="url(#i)"/><path d="m0 72.4246 18.8629 6.097v21.3652l-18.8629-6.097z" fill="url(#k)"/><path d="m1.62582 72.4244 17.23728-5.5715 17.2372 5.5715-17.2372 5.5716z" fill="#5384cd" stroke="url(#l)"/></g><g opacity=".3"><path d="m137.074 69.4731 18.863-6.097v51.5269l-18.863 6.097z" fill="url(#m)"/><path d="m118.211 63.3761 18.863 6.097v51.5269l-18.863-6.097z" fill="url(#n)"/><path d="m119.837 63.3761 17.237-5.5716 17.237 5.5716-17.237 5.5715z" fill="#5384cd" stroke="url(#o)"/></g><path d="m38.0001 8.2395h45.8966v20.1941h-45.8966z" fill="url(#p)"/><path d="m40.4163 9.85535h41.0654v16.9631h-41.0654z" fill="#ffd2be"/><g fill="#fff"><path d="m44.7506 14.8389c-.2398.245-.5397.4703-.8995.6859-.3598.1959-.6996.3331-1.0194.4115v1.1365c.6596-.1861 1.1993-.4703 1.6291-.8524v5.6141h1.1693v-6.9956z"/><path d="m49.5294 14.7018c-.8395 0-1.4891.3331-1.9488 1.0189-.4398.6467-.6597 1.5187-.6597 2.616 0 1.0974.2199 1.9694.6597 2.616.4597.6761 1.1093 1.019 1.9488 1.019.8296 0 1.4792-.3429 1.9489-1.019.4398-.6466.6596-1.5186.6596-2.616 0-1.0973-.2198-1.9693-.6596-2.616-.4697-.6858-1.1193-1.0189-1.9489-1.0189zm0 .97c.5597 0 .9595.3037 1.1994.9307.1599.4213.2398.9994.2398 1.7342 0 .7251-.0799 1.3031-.2398 1.7342-.2399.6173-.6397.9308-1.1994.9308-.5696 0-.9694-.3135-1.1993-.9308-.1599-.4311-.2398-1.0091-.2398-1.7342 0-.7348.0799-1.3129.2398-1.7342.2299-.627.6297-.9307 1.1993-.9307z"/><path d="m55.5221 14.7018c-.8395 0-1.4892.3331-1.9489 1.0189-.4397.6467-.6596 1.5187-.6596 2.616 0 1.0974.2199 1.9694.6596 2.616.4597.6761 1.1094 1.019 1.9489 1.019.8295 0 1.4791-.3429 1.9489-1.019.4397-.6466.6596-1.5186.6596-2.616 0-1.0973-.2199-1.9693-.6596-2.616-.4698-.6858-1.1194-1.0189-1.9489-1.0189zm0 .97c.5597 0 .9594.3037 1.1993.9307.1599.4213.2399.9994.2399 1.7342 0 .7251-.08 1.3031-.2399 1.7342-.2399.6173-.6396.9308-1.1993.9308-.5697 0-.9695-.3135-1.1993-.9308-.1599-.4311-.2399-1.0091-.2399-1.7342 0-.7348.08-1.3129.2399-1.7342.2298-.627.6296-.9307 1.1993-.9307z"/></g><ellipse cx="72.3547" cy="26.6907" fill="#ffb800" rx="13.956" ry="5.5153"/><path clip-rule="evenodd" d="m60.9817 27.1149c.5244-2.3786 5.4156-4.2425 11.372-4.2425 5.9563 0 10.8475 1.8639 11.372 4.2425-.5245 2.3786-5.4157 4.2425-11.372 4.2425-5.9564 0-10.8476-1.8639-11.372-4.2425z" fill="url(#r)" fill-rule="evenodd"/><path clip-rule="evenodd" d="m72.3552 32.206c7.7076 0 13.9559-2.4693 13.9559-5.5153v3.3939c0 3.046-6.2483 5.5153-13.9559 5.5153-7.7077 0-13.956-2.4693-13.956-5.5153v-3.3939c0 3.046 6.2483 5.5153 13.956 5.5153z" fill="url(#t)" fill-rule="evenodd"/><path clip-rule="evenodd" d="m83.7269 27.1145c.0307-.1396.0464-.2811.0464-.424 0-2.5774-5.1122-4.6668-11.4185-4.6668s-11.4185 2.0894-11.4185 4.6668c0 .1432.0157.2848.0466.4246.5241-2.3787 5.4154-4.2429 11.372-4.2429 5.9562 0 10.8472 1.8639 11.372 4.2423z" fill="url(#v)" fill-rule="evenodd"/><ellipse cx="72.3545" cy="22.4477" fill="#ffb800" rx="13.956" ry="5.5153"/><path clip-rule="evenodd" d="m60.9816 22.8721c.5244-2.3786 5.4156-4.2426 11.372-4.2426 5.9565 0 10.8477 1.864 11.372 4.2426-.5243 2.3786-5.4155 4.2426-11.372 4.2426-5.9564 0-10.8476-1.864-11.372-4.2426z" fill="url(#w)" fill-rule="evenodd"/><path clip-rule="evenodd" d="m58.3989 22.4481v3.3941c0 3.046 6.2484 5.5153 13.956 5.5153 7.7077 0 13.956-2.4693 13.956-5.5153v-3.3941c-.0006 3.0458-6.2487 5.5149-13.956 5.5149s-13.9554-2.4691-13.956-5.5149z" fill="url(#x)" fill-rule="evenodd"/><path clip-rule="evenodd" d="m83.7269 22.8718c.0307-.1396.0464-.281.0464-.4239 0-2.5774-5.1122-4.6668-11.4185-4.6668s-11.4185 2.0894-11.4185 4.6668c0 .1431.0157.2847.0466.4245.524-2.3787 5.4154-4.2428 11.372-4.2428 5.9562 0 10.8472 1.8638 11.372 4.2422z" fill="url(#y)" fill-rule="evenodd"/><ellipse cx="72.3545" cy="18.2051" fill="#ffb800" rx="13.956" ry="5.5153"/><path clip-rule="evenodd" d="m60.9817 18.6297c.5246-2.3785 5.4157-4.2424 11.372-4.2424 5.9562 0 10.8473 1.8639 11.3719 4.2424-.5246 2.3785-5.4157 4.2425-11.3719 4.2425-5.9563 0-10.8474-1.864-11.372-4.2425z" fill="url(#z)" fill-rule="evenodd"/><path clip-rule="evenodd" d="m58.3989 18.2053v3.3941c0 3.046 6.2484 5.5153 13.956 5.5153 7.7077 0 13.956-2.4693 13.956-5.5153v-3.3941c-.0006 3.0459-6.2487 5.5149-13.956 5.5149s-13.9554-2.469-13.956-5.5149z" fill="url(#A)" fill-rule="evenodd"/><path clip-rule="evenodd" d="m83.7269 18.6294c.0307-.1397.0464-.2811.0464-.424 0-2.5774-5.1122-4.6668-11.4185-4.6668s-11.4185 2.0894-11.4185 4.6668c0 .1431.0157.2847.0466.4246.5242-2.3787 5.4155-4.2428 11.372-4.2428 5.9561 0 10.8471 1.8638 11.372 4.2422z" fill="url(#B)" fill-rule="evenodd"/><ellipse cx="72.3545" cy="13.9628" fill="#ffb800" rx="13.956" ry="5.5153"/><path clip-rule="evenodd" d="m60.9817 14.3873c.5244-2.3786 5.4156-4.2426 11.372-4.2426 5.9563 0 10.8475 1.864 11.372 4.2426-.5245 2.3785-5.4157 4.2425-11.372 4.2425-5.9564 0-10.8476-1.864-11.372-4.2425z" fill="url(#C)" fill-rule="evenodd"/><path clip-rule="evenodd" d="m58.3989 13.9629v3.394c0 3.046 6.2484 5.5153 13.956 5.5153 7.7077 0 13.956-2.4693 13.956-5.5153v-3.394c-.0003 3.0459-6.2485 5.5151-13.956 5.5151s-13.9557-2.4692-13.956-5.5151z" fill="url(#D)" fill-rule="evenodd"/><path clip-rule="evenodd" d="m83.7269 14.3868c.0307-.1396.0464-.281.0464-.4239 0-2.5774-5.1122-4.66682-11.4185-4.66682s-11.4185 2.08942-11.4185 4.66682c0 .1431.0157.2847.0466.4245.5241-2.3787 5.4154-4.2428 11.372-4.2428 5.9562 0 10.8472 1.8638 11.372 4.2422z" fill="url(#E)" fill-rule="evenodd"/><ellipse cx="72.3545" cy="9.71995" fill="#ffb800" rx="13.956" ry="5.5153"/><path clip-rule="evenodd" d="m60.9817 10.1445c.5244-2.37856 5.4156-4.24252 11.372-4.24252 5.9563 0 10.8475 1.86396 11.372 4.24252-.5245 2.3786-5.4157 4.2426-11.372 4.2426-5.9564 0-10.8476-1.864-11.372-4.2426z" fill="url(#F)" fill-rule="evenodd"/><path clip-rule="evenodd" d="m58.3989 9.72052v3.39408c0 3.046 6.2484 5.5153 13.956 5.5153 7.7077 0 13.956-2.4693 13.956-5.5153v-3.39408c-.0006 3.04578-6.2487 5.51488-13.956 5.51488s-13.9554-2.4691-13.956-5.51488z" fill="url(#G)" fill-rule="evenodd"/><path clip-rule="evenodd" d="m83.7269 10.1441c.0307-.1396.0464-.28101.0464-.4239 0-2.5774-5.1122-4.66679-11.4185-4.66679s-11.4185 2.08939-11.4185 4.66679c0 .1431.0157.2847.0466.4245.524-2.37873 5.4154-4.24287 11.372-4.24287 5.9562 0 10.8472 1.86383 11.372 4.24227z" fill="url(#H)" fill-rule="evenodd"/><ellipse cx="72.3545" cy="5.5153" fill="#ffb800" rx="13.956" ry="5.5153"/><path clip-rule="evenodd" d="m60.9814 5.93965c.5244-2.37862 5.4156-4.24263 11.372-4.24263 5.9565 0 10.8477 1.86402 11.3721 4.24264-.5244 2.37862-5.4156 4.24264-11.3721 4.24264-5.9564 0-10.8476-1.86403-11.372-4.24265z" fill="url(#I)" fill-rule="evenodd"/><path d="m73.9924 6.06092 1.8614 1.07811-.5068.29357-2.0624-1.19453-.8914.51628 2.0624 1.19453-.5069.29357-2.0624-1.19453-1.8702 1.08317-.6641-.38467 1.8701-1.08318-2.0449-1.1844.5069-.29357 2.0449 1.1844.8914-.51628-2.045-1.1844.5069-.29357 1.8614 1.07811.6642-2.32832.7953.46061-.603 1.96894 3.4082-.34418.7953.4606z" fill="#fff" opacity=".5"/><path clip-rule="evenodd" d="m58.3987 5.51575v3.39403c0 3.04602 6.2484 5.51532 13.956 5.51532 7.7077 0 13.956-2.4693 13.956-5.51532v-3.39403c-.0006 3.04582-6.2486 5.51485-13.956 5.51485-7.7073 0-13.9554-2.46903-13.956-5.51485z" fill="url(#J)" fill-rule="evenodd"/><path clip-rule="evenodd" d="m83.7267 5.93939c.0307-.13962.0465-.28101.0465-.4239 0-2.5774-5.1123-4.666796-11.4186-4.666796s-11.4185 2.089396-11.4185 4.666796c0 .14309.0158.28469.0466.4245.524-2.37875 5.4154-4.2429 11.3721-4.2429 5.9561 0 10.8471 1.86384 11.3719 4.2423z" fill="url(#K)" fill-rule="evenodd"/><ellipse cx="53.4548" cy="39.2408" fill="#ffb800" rx="8.20058" ry="3.24081"/><path clip-rule="evenodd" d="m46.7731 39.4902c.3082-1.3976 3.1823-2.4929 6.6822-2.4929 3.5 0 6.374 1.0953 6.6822 2.4929-.3082 1.3977-3.1822 2.4929-6.6822 2.4929-3.4999 0-6.374-1.0952-6.6822-2.4929z" fill="url(#L)" fill-rule="evenodd"/><path clip-rule="evenodd" d="m45.2544 39.2408v1.9944c0 1.7898 3.6715 3.2408 8.2006 3.2408 4.529 0 8.2006-1.451 8.2006-3.2408v-1.9944c-.0003 1.7898-3.6717 3.2407-8.2006 3.2407-4.529 0-8.2004-1.4509-8.2006-3.2407z" fill="url(#M)" fill-rule="evenodd"/><path clip-rule="evenodd" d="m60.1369 39.4897c.018-.082.0272-.1649.0272-.2488 0-1.5145-3.0039-2.7422-6.7095-2.7422s-6.7096 1.2277-6.7096 2.7422c0 .0842.0093.1675.0274.2497.3077-1.3979 3.182-2.4934 6.6824-2.4934 3.4996 0 6.3734 1.095 6.6821 2.4925z" fill="url(#N)" fill-rule="evenodd"/><path d="m54.1529 39.2833 1.0938.6335-.2978.1725-1.2119-.7019-.5238.3034 1.2119.7019-.2978.1725-1.2119-.7019-1.0989.6365-.3903-.2261 1.0989-.6364-1.2016-.696.2978-.1725 1.2016.696.5238-.3034-1.2016-.696.2978-.1725 1.0938.6335.3903-1.3681.4673.2707-.3543 1.1569 2.0027-.2022.4672.2706z" fill="#fff" opacity=".5"/><ellipse cx="62.5995" cy="38.2085" fill="#ffb800" rx="8.20058" ry="3.24081" transform="matrix(.91918415 .39382801 -.39382801 .91918415 20.106609 -21.565584)"/><path clip-rule="evenodd" d="m56.3596 35.8063c.8337-1.1633 3.9069-1.0381 7.1239.3402 3.2171 1.3784 5.4276 3.517 5.1605 4.9231-.8338 1.1633-3.9069 1.0382-7.124-.3402s-5.4275-3.517-5.1604-4.9231z" fill="url(#O)" fill-rule="evenodd"/><path d="m63.2245 38.5225.7559 1.0131-.3417.0413-.8375-1.1225-.601.0726.8376 1.1224-.3417.0413-.8376-1.1225-1.2607.1523-.2697-.3615 1.2607-.1522-.8304-1.113.3417-.0412.8304 1.1129.601-.0726-.8305-1.1129.3417-.0413.7559 1.0131.8976-1.1039.3229.4328-.7813.924 1.9205.6028.3229.4328z" fill="#fff" opacity=".8"/><path clip-rule="evenodd" d="m55.0618 34.979-.7855 1.8332c-.7049 1.6452 2.0985 4.4248 6.2616 6.2085 4.163 1.7837 8.1092 1.8959 8.8141.2507l.7855-1.8332c-.7051 1.6451-4.6512 1.5328-8.8141-.2508-4.163-1.7836-6.9663-4.5632-6.2616-6.2084z" fill="url(#P)" fill-rule="evenodd"/><path clip-rule="evenodd" d="m68.6436 41.0689c.0488-.0682.09-.1408.123-.2179.5964-1.3921-1.6812-3.7037-5.0874-5.1631-3.4061-1.4593-6.6508-1.5139-7.2473-.1218-.0331.0774-.0574.1576-.0731.2404.8333-1.1638 3.9068-1.0388 7.1243.3398 3.2168 1.3782 5.4271 3.5166 5.1605 4.9226z" fill="url(#Q)" fill-rule="evenodd"/><ellipse cx="92.654" cy="31.2942" fill="#ffb800" rx="13.956" ry="5.5153"/><path clip-rule="evenodd" d="m81.2821 31.7186c.5245-2.3786 5.4156-4.2425 11.372-4.2425 5.9563 0 10.8479 1.8639 11.3719 4.2425-.524 2.3786-5.4156 4.2425-11.3719 4.2425-5.9564 0-10.8475-1.8639-11.372-4.2425z" fill="url(#R)" fill-rule="evenodd"/><path d="m93.842 31.3665 1.8614 1.0781-.5068.2935-2.0624-1.1945-.8914.5163 2.0624 1.1945-.5069.2936-2.0624-1.1945-1.8702 1.0831-.6641-.3846 1.8701-1.0832-2.0449-1.1844.5069-.2936 2.0449 1.1844.8914-.5163-2.045-1.1844.5069-.2935 1.8614 1.0781.6642-2.3283.7953.4606-.603 1.9689 3.4082-.3442.7953.4606z" fill="#fff"/><path clip-rule="evenodd" d="m92.6542 36.8095c7.7078 0 13.9558-2.4693 13.9558-5.5153v3.3939c0 3.046-6.248 5.5153-13.9558 5.5153-7.7076 0-13.956-2.4693-13.956-5.5153v-3.3939c0 3.046 6.2483 5.5153 13.956 5.5153z" fill="url(#S)" fill-rule="evenodd"/><path clip-rule="evenodd" d="m104.026 31.7182c.031-.1397.046-.2811.046-.424 0-2.5774-5.1118-4.6668-11.4181-4.6668s-11.4185 2.0894-11.4185 4.6668c0 .1432.0157.2848.0466.4246.524-2.3787 5.4154-4.2429 11.372-4.2429 5.9561 0 10.847 1.8638 11.372 4.2423z" fill="url(#T)" fill-rule="evenodd"/><ellipse cx="92.6541" cy="27.0516" fill="#ffb800" rx="13.956" ry="5.5153"/><path clip-rule="evenodd" d="m81.2822 27.4757c.5245-2.3785 5.4156-4.2424 11.3719-4.2424s10.8479 1.8639 11.3719 4.2424c-.524 2.3786-5.4156 4.2425-11.3719 4.2425s-10.8474-1.8639-11.3719-4.2425z" fill="url(#U)" fill-rule="evenodd"/><path clip-rule="evenodd" d="m78.6982 27.0519v3.394c0 3.046 6.2484 5.5153 13.956 5.5153 7.7078 0 13.9558-2.4693 13.9558-5.5153v-3.394c0 3.0459-6.248 5.5151-13.9558 5.5151-7.7075 0-13.9556-2.4692-13.956-5.5151z" fill="url(#V)" fill-rule="evenodd"/><path clip-rule="evenodd" d="m104.026 27.4753c.031-.1396.046-.281.046-.4239 0-2.5774-5.1118-4.6668-11.4181-4.6668s-11.4185 2.0894-11.4185 4.6668c0 .1431.0157.2848.0466.4246.5241-2.3787 5.4154-4.2428 11.372-4.2428 5.9561 0 10.847 1.8638 11.372 4.2421z" fill="url(#W)" fill-rule="evenodd"/><path d="m91.3601 27.1235-1.8615 1.0782.5069.2935 2.0624-1.1945.8914.5163-2.0624 1.1945.5069.2936 2.0624-1.1946 1.8701 1.0832.6642-.3847-1.8702-1.0831 2.045-1.1844-.5069-.2936-2.0449 1.1844-.8914-.5163 2.0449-1.1844-.5068-.2936-1.8615 1.0782-.6641-2.3284-.7953.4606.603 1.969-3.4082-.3442-.7953.4606z" fill="#fff" opacity=".5"/></g></svg>