<?xml version="1.0" encoding="UTF-8"?>
<svg width="94px" height="102px" viewBox="0 0 94 102" version="1.1" xmlns="http://www.w3.org/2000/svg" xmlns:xlink="http://www.w3.org/1999/xlink">
    <title>编组 16</title>
    <g id="定稿修改" stroke="none" stroke-width="1" fill="none" fill-rule="evenodd">
        <g id="整体" transform="translate(-251.000000, -487.000000)">
            <g id="编组-32" transform="translate(30.000000, 409.600000)">
                <g id="编组-23" transform="translate(13.000000, 11.000000)">
                    <g id="编组-9" transform="translate(0.000000, 59.000000)">
                        <g id="编组-16" transform="translate(208.000000, 7.489083)">
                            <path d="M65,72.611631 L65,81.5265821 C65,84.998891 63.0833333,88.2127955 59.9666667,89.9408747 L53.3333333,93.6069869 L50,87.1468774 L56.2333333,84.7243363 C57.5,84.2398281 58.3333333,83.0447078 58.3333333,81.7365357 L58.3333333,75.8416857 L58.2333333,75.7609344 C59.1833333,74.8403688 59.9833333,73.7583004 60.55,72.5631801 C60.9166667,72.5793304 61.2833333,72.611631 61.6666667,72.611631 C62.7833333,72.611631 63.85,72.4824288 64.8833333,72.2401747 L65,72.611631" id="Fill-571" fill="#8E6347"></path>
                            <path d="M42.904,83.2884418 L50.6,86.7264222 L53.8,93.4021123 L57,101.746725 L44.2,101.746725 L44.2,90.0642672 L38.824,87.6610188 C36.776,86.7431114 35.16,85.157635 34.152,83.1883064 C33.416,81.7697223 33,80.1341782 33,78.4485665 L33,73.375042 L33.016,73.2415282 C33.528,73.3416635 34.056,73.375042 34.6,73.375042 C36.312,73.375042 37.944,72.9578114 39.4,72.2401747 L39.4,79.5166769 C39.4,80.8518149 40.168,82.0534391 41.336,82.5874943 L42.904,83.2884418" id="Fill-572" fill="#8E6347"></path>
                            <path d="M39,44.9656111 C37.4648241,46.4530372 36.4032663,48.419745 36.0603015,50.6508842 C35.4723618,50.5682494 34.9007538,50.5021416 34.2964824,50.5021416 C27.9761307,50.5021416 22.8643216,55.675079 22.8643216,62.0710112 C22.8643216,66.0705347 24.8567839,69.5907764 27.910804,71.6731729 L27.7638191,71.9871851 C26.5879397,73.5737729 24.8404523,74.7306599 22.8316583,75.1273069 C22.3090452,75.2429955 21.7864322,75.2925764 21.2311558,75.2925764 C17.7361809,75.2925764 14.7801508,73.0614373 13.6042714,69.9378425 C12.9183417,70.1692199 12.1997487,70.3344895 11.4321608,70.3344895 C7.82286432,70.3344895 4.89949749,67.3761642 4.89949749,63.7237068 C4.89949749,63.4923294 4.94849246,63.277479 4.96482412,63.0626286 C2.04145729,61.8065799 0,58.8813086 0,55.4602285 C0,52.0391485 2.04145729,49.1138772 4.96482412,47.8578285 C4.94849246,47.6429781 4.89949749,47.4281277 4.89949749,47.1967503 C4.89949749,42.6353103 8.55778894,38.933272 13.0653266,38.933272 C14.4045226,38.933272 15.6620603,39.296865 16.7726131,39.8753085 C17.7198492,37.396265 20.0879397,35.6278807 22.8643216,35.6278807 L22.9949749,35.6113537 C23.7625628,41.2305189 28.531407,45.5440546 34.2964824,45.5440546 C35.8316583,45.5440546 37.2851759,45.2300424 38.6243719,44.6846529 C38.7386935,44.7838146 38.8693467,44.8829763 39,44.9656111" id="Fill-573" fill="#2C4928"></path>
                            <path d="M80,24.3652993 C80,27.922633 78.35875,31.1063654 75.79125,33.1855376 C74.5725,32.7307187 73.25625,32.4870657 71.875,32.4870657 C65.58625,32.4870657 60.5,37.5712915 60.5,43.8575387 C60.5,44.4423059 60.565,45.0108295 60.64625,45.5793532 C58.43625,45.8230062 56.405,46.6189393 54.6825,47.8209607 C53.1225,44.5235235 49.775,42.2331854 45.875,42.2331854 C43.275,42.2331854 40.91875,43.256528 39.18,44.9133683 C39.05,44.8321507 38.92,44.7346895 38.80625,44.6372283 C37.47375,45.1732648 36.0275,45.481892 34.5,45.481892 C28.76375,45.481892 24.01875,41.2423299 23.255,35.7195287 C23.1575,35.1997357 23.125,34.6636991 23.125,34.111419 C23.125,33.5591389 23.17375,33.0068587 23.255,32.4708222 C23.20625,32.4708222 23.17375,32.4870657 23.125,32.4870657 C18.64,32.4870657 15,28.8485143 15,24.3652993 C15,19.8820842 18.64,16.2435328 23.125,16.2435328 C23.19,16.2435328 23.23875,16.2597764 23.2875,16.2597764 C23.19,15.7237398 23.125,15.1877032 23.125,14.6191796 C23.125,10.1359645 26.765,6.49741314 31.25,6.49741314 C32.40375,6.49741314 33.4925,6.74106613 34.48375,7.17964152 C36.4825,3.84971728 40.09,1.62435328 44.25,1.62435328 C46.18375,1.62435328 48.00375,2.11165927 49.6125,2.97256651 C51.6275,1.1370473 54.30875,0 57.25,0 C63.53875,0 68.625,5.08422578 68.625,11.370473 C68.625,11.9227531 68.57625,12.4750332 68.495,12.9948263 C68.54375,12.9948263 68.57625,12.9948263 68.625,12.9948263 C74.91375,12.9948263 80,18.0790521 80,24.3652993" id="Fill-574" fill="#027D69"></path>
                            <path d="M47.2045455,77.8707658 C44.1063636,76.9223409 41.5568182,74.6657439 40.2013636,71.7387087 C39.8625,71.9512867 39.5075,72.1475125 39.1363636,72.3273862 C37.6679545,73.0305287 36.0220455,73.4393325 34.2954545,73.4393325 C33.7468182,73.4393325 33.2143182,73.4066282 32.6979545,73.3085153 C30.9552273,73.0795852 29.3577273,72.4418512 27.9861364,71.4934264 C24.9686364,69.4330552 23,65.9500468 23,61.992826 C23,55.664543 28.0506818,50.5463194 34.2954545,50.5463194 C34.8925,50.5463194 35.4572727,50.611728 36.0381818,50.6934888 C36.3770455,48.4859482 37.4259091,46.5400421 38.9427273,45.0683484 C40.6693182,43.4004289 43.0090909,42.3702433 45.5909091,42.3702433 C49.4636364,42.3702433 52.7877273,44.6758968 54.3368182,47.9953837 C56.0472727,46.7853244 58.0643182,45.9840689 60.2588636,45.7387867 C60.1781818,45.1664613 60.1136364,44.594136 60.1136364,44.0054585 C60.1136364,37.6771756 65.1643182,32.558952 71.4090909,32.558952 C72.7806818,32.558952 74.0877273,32.8042342 75.2979545,33.2620945 C75.5884091,33.3602074 75.8465909,33.4746725 76.1209091,33.6054897 C77.3634091,32.9350515 78.7834091,32.558952 80.2840909,32.558952 C85.1895455,32.558952 89.1590909,36.5815814 89.1590909,41.5526357 C89.1590909,43.4821896 88.5459091,45.2809264 87.5293182,46.7526201 C91.3536364,48.5840611 94,52.5085777 94,57.0871803 C94,63.4154632 88.9493182,68.5336868 82.7045455,68.5336868 C78.9609091,68.5336868 75.6690909,66.6858936 73.6036364,63.8569713 C73.055,65.1324392 72.3127273,66.3261463 71.4090909,67.3563319 C69.7147727,69.3349423 67.4234091,70.7739317 64.8415909,71.4280178 C63.8411364,71.6733001 62.8084091,71.8041173 61.7272727,71.8041173 C61.3561364,71.8041173 61.0011364,71.771413 60.6461364,71.7550608 C60.0975,72.9651201 59.3229545,74.0607143 58.4031818,74.992787 C56.37,77.0695103 53.5461364,78.3449782 50.4318182,78.3449782 C49.3184091,78.3449782 48.2372727,78.1814566 47.2045455,77.8707658" id="Fill-575" fill="#00A688"></path>
                            <path d="M82.7045455,60.2733193 C78.9609091,60.2733193 75.6690909,58.4168671 73.6036364,55.5746881 C73.055,56.856133 72.3127273,58.0554339 71.4090909,59.0904471 C69.7147727,61.0783296 67.4234091,62.5240623 64.8415909,63.1812135 C63.8411364,63.4276453 62.8084091,63.5590755 61.7272727,63.5590755 C61.3561364,63.5590755 61.0011364,63.5262179 60.6461364,63.5097892 C60.0975,64.7255189 59.3229545,65.8262472 58.4031818,66.7626877 C56.37,68.8491429 53.5461364,70.1305878 50.4318182,70.1305878 C49.3184091,70.1305878 48.2372727,69.9663 47.2045455,69.6541532 C44.1063636,68.7012839 41.5568182,66.4341121 40.2013636,63.4933604 C39.8625,63.7069345 39.5075,63.9040799 39.1363636,64.0847965 C37.6679545,64.7912341 36.0220455,65.2019536 34.2954545,65.2019536 C33.7468182,65.2019536 33.2143182,65.169096 32.6979545,65.0705233 C30.9552273,64.8405204 29.3577273,64.1997979 27.9861364,63.2469287 C26.07075,61.9342691 24.5845909,60.0416735 23.7487273,57.8205024 C23.2727045,59.0937329 23,60.4704647 23,61.9161974 C23,65.8919624 24.9686364,69.3912927 27.9861364,71.461319 C29.3577273,72.4141883 30.9552273,73.0549108 32.6979545,73.2849137 C33.2143182,73.3834864 33.7468182,73.4163439 34.2954545,73.4163439 C36.0220455,73.4163439 37.6679545,73.0056244 39.1363636,72.2991869 C39.5075,72.1184703 39.8625,71.9213249 40.2013636,71.7077507 C41.5568182,74.6485025 44.1063636,76.9156742 47.2045455,77.8685435 C48.2372727,78.1806904 49.3184091,78.3449782 50.4318182,78.3449782 C53.5461364,78.3449782 56.37,77.0635333 58.4031818,74.9770781 C59.3229545,74.0406376 60.0975,72.9399093 60.6461364,71.7241795 C61.0011364,71.7406083 61.3561364,71.7734659 61.7272727,71.7734659 C62.8084091,71.7734659 63.8411364,71.6420356 64.8415909,71.3956039 C67.4234091,70.7384527 69.7147727,69.29272 71.4090909,67.3048375 C72.3127273,66.2698243 73.055,65.0705233 73.6036364,63.7890784 C75.6690909,66.6312575 78.9609091,68.4877097 82.7045455,68.4877097 C88.9493182,68.4877097 94,63.3455013 94,56.9875632 C94,55.5434734 93.7127727,54.1765988 93.23675,52.9082969 C91.6069773,57.2159233 87.5147955,60.2733193 82.7045455,60.2733193" id="Fill-576" fill="#015C50"></path>
                            <path d="M87.2955015,46.8034934 C87.2711164,46.8084002 87.2467312,46.8116713 87.2239718,46.8149424 C86.8061729,51.2162634 82.7159711,54.6673178 77.7040108,54.6673178 C74.5323161,54.6673178 71.7426554,53.2803537 69.9934276,51.1590184 C69.5284842,52.1158273 68.8993474,53.0104846 68.1352795,53.7841095 C66.6981816,55.2675722 64.7571239,56.347049 62.5705892,56.8377202 C61.7219861,57.0225397 60.8473722,57.1206739 59.9321164,57.1206739 C59.6167352,57.1206739 59.315985,57.0961404 59.0152349,57.0846914 C58.5519171,57.9907976 57.8951439,58.8134897 57.1164449,59.513514 C55.3932279,61.0705774 53.0002322,62.0273863 50.3617594,62.0273863 C49.4188671,62.0273863 48.5036113,61.9047185 47.6289974,61.6708318 C45.00353,60.9609941 42.8430061,59.2681784 41.6952786,57.0716068 C41.4091595,57.2302572 41.1084094,57.3774585 40.7930282,57.5132109 C39.5493857,58.0415003 38.1545554,58.347352 36.6914466,58.347352 C36.2281288,58.347352 35.7761908,58.3228185 35.3388839,58.2492178 C33.8627697,58.0774828 32.5085812,57.5998962 31.3478483,56.8867873 C29.566107,55.8105817 28.2330523,54.2109935 27.5779047,52.338265 C25.5035417,53.6499927 23.8859936,55.6126777 23,57.9499083 C23.8421004,60.1612 25.3393483,62.0453776 27.2690262,63.3521986 C28.6508512,64.3008297 30.2602708,64.9387023 32.0160013,65.1676822 C32.5362177,65.2658164 33.072691,65.2985278 33.6254209,65.2985278 C35.3648947,65.2985278 37.0230846,64.8896351 38.5024501,64.1863397 C38.8763557,64.0064269 39.2340045,63.8101584 39.5753965,63.5975342 C40.9409647,66.5252059 43.5095334,68.7822936 46.6308321,69.7309246 C47.671265,70.0416831 48.7604682,70.2052402 49.8821849,70.2052402 C53.0197404,70.2052402 55.8646741,68.929495 57.9130263,66.8523201 C58.8396619,65.9200447 59.6199865,64.8242123 60.1727165,63.6138899 C60.5303653,63.6302456 60.8880141,63.6629571 61.2619197,63.6629571 C62.3511229,63.6629571 63.3915558,63.5321114 64.3994751,63.2867758 C67.0005574,62.6325475 69.3090179,61.1932452 71.0159781,59.2142045 C71.9263569,58.1837949 72.674168,56.9898283 73.226898,55.7140831 C75.3077638,58.5436205 78.6241436,60.3918155 82.3957129,60.3918155 C87.2369772,60.3918155 91.3548155,57.3545606 93,53.0726363 C91.9644441,50.3166995 89.9225946,48.0677897 87.2955015,46.8034934" id="Fill-577" fill="#027D69"></path>
                            <path d="M33.7965901,83.8008459 C33.4302628,83.1455008 33.1434999,82.4372795 32.941274,81.7018189 L25.3279659,78.5516762 C24.7130002,78.2904996 24.3151788,77.7088608 24.3151788,77.0711412 L24.3151788,75.2925764 C23.7764622,75.5201045 23.216197,75.7091772 22.6244376,75.8213389 C22.094009,75.9335007 21.5635804,75.98157 21,75.98157 L21,77.0711412 C21,78.9826978 22.1768885,80.7163979 24.0101823,81.4903139 L33.1451575,85.2733693 C33.3241771,85.3486779 33.5147999,85.390338 33.7087379,85.4015542 L35,85.4672489 C34.5458205,84.9497026 34.128108,84.4017123 33.7965901,83.8008459" id="Fill-578" fill="#4B2320"></path>
                            <path d="M45.6151893,77.3275109 L45.6151893,80.6489869 L42.0154432,81.8506592 C41.5500317,82.0059314 41.187857,82.3536062 41,82.7873559 L42.5519357,83.4506385 L44.8925323,84.4497817 L47.8440872,83.4641404 C48.5345885,83.2346075 49,82.5898901 49,81.8641611 L49,78.3671599 C48.4245822,78.2844606 47.8593188,78.1629431 47.3075947,77.9992322 C46.72033,77.8220193 46.1601439,77.5874232 45.6151893,77.3275109" id="Fill-579" fill="#4B2320"></path>
                            <path d="M72.9586645,65.1179039 C72.5103339,65.9260935 72.0127186,66.7021482 71.4101749,67.3866189 C70.9300477,67.945764 70.3895072,68.4454597 69.8203498,68.9114139 L69.8203498,74.584808 C69.8203498,75.1969755 69.481717,75.7464801 68.9332273,76.0244459 L65.0508744,77.9927007 L65.0508744,80.6261454 C65.0508744,80.886437 65.0206677,81.1403017 65,81.3973799 L65.0508744,81.3973799 C65.2988871,81.3973799 65.5421304,81.3395373 65.7631161,81.2270656 L70.3561208,78.8972946 C71.9872814,78.0746444 73,76.4197036 73,74.584808 L73,65.3299934 C73,65.2544767 72.9666137,65.1902072 72.9586645,65.1179039" id="Fill-580" fill="#4B2320"></path>
                            <path d="M53.224,98.4088798 C51.6976,98.4088798 50.384,97.285695 50.0864,95.7269213 L49,90.0642672 L37.4304,84.0311123 C36.6768,83.6355777 36.2,82.8328259 36.2,81.9549727 L36.2,80.7032808 C36.2,79.4215483 37.1968,78.3818096 38.4256,78.3818096 L39.4,78.3818096 L39.4,72.2401747 C37.944,72.9578114 36.312,73.375042 34.6,73.375042 C34.056,73.375042 33.528,73.3416635 33.016,73.2415282 L33,73.375042 L33,78.4485665 C33,80.1341782 33.416,81.7697223 34.152,83.1883064 C35.16,85.157635 36.776,86.7431114 38.824,87.6610188 L44.2,90.0642672 L44.2,101.746725 L57,101.746725 L55.72,98.4088798 L53.224,98.4088798" id="Fill-581" fill="#613C29"></path>
                            <path d="M64.8833333,72.2401747 C63.85,72.4824288 62.7833333,72.611631 61.6666667,72.611631 C61.2833333,72.611631 60.9166667,72.5793304 60.55,72.5631801 C59.9833333,73.7583004 59.1833333,74.8403688 58.2333333,75.7609344 L58.3333333,75.8416857 L58.3333333,81.7365357 C58.3333333,83.0447078 57.5,84.2398281 56.2333333,84.7243363 L50,87.1468774 L53.3333333,93.6069869 L56.955,91.605968 L56.7483333,91.3039579 C55.7683333,89.8778887 56.1083333,87.9576211 57.5233333,86.9288487 L59.6666667,85.3703473 C60.9266667,84.4546267 61.6666667,83.0188674 61.6666667,81.4942816 L61.6666667,79.0717405 C61.6666667,77.2887503 63.16,75.8416857 65,75.8416857 L65,72.611631 L64.8833333,72.2401747" id="Fill-582" fill="#613C29"></path>
                            <path d="M80.1666667,32.558952 C78.6730303,32.558952 77.259697,32.9409535 76.0230303,33.6219128 C75.75,33.4890427 75.4930303,33.3727813 75.2039394,33.2731288 C73.9993939,32.8080834 72.6984848,32.558952 71.3333333,32.558952 C65.1178788,32.558952 60.0909091,37.7574947 60.0909091,44.1850859 C60.0909091,44.7830014 60.1551515,45.3643081 60.2354545,45.9456147 C58.0512121,46.1947462 56.0436364,47.0085756 54.3412121,48.237624 C52.7993939,44.8660452 49.4909091,42.5242096 45.6363636,42.5242096 C43.0666667,42.5242096 40.7378788,43.5705617 39.0193939,45.2646555 C37.509697,46.7594441 36.4657576,48.7358869 36.1284848,50.9780699 C36.0851212,50.9714264 36.0433636,50.9681046 36,50.9614611 L36,55.9440899 C36.0433636,55.9507334 36.0851212,55.9540552 36.1284848,55.9606987 C36.4657576,53.7185157 37.509697,51.7420729 39.0193939,50.2472843 C40.7378788,48.5531905 43.0666667,47.5068384 45.6363636,47.5068384 C49.4909091,47.5068384 52.7993939,49.848674 54.3412121,53.2202528 C56.0436364,51.9912044 58.0512121,51.177375 60.2354545,50.9282436 C60.1551515,50.3469369 60.0909091,49.7656302 60.0909091,49.1677147 C60.0909091,42.7401235 65.1178788,37.5415808 71.3333333,37.5415808 C72.6984848,37.5415808 73.9993939,37.7907122 75.2039394,38.2557576 C75.4930303,38.3554102 75.75,38.4716715 76.0230303,38.6045416 C77.259697,37.9235823 78.6730303,37.5415808 80.1666667,37.5415808 C84.2010909,37.5415808 87.5930909,40.3351747 88.6514848,44.1518684 C88.8650909,43.3662739 89,42.5474619 89,41.6937715 C89,36.6447076 85.0490909,32.558952 80.1666667,32.558952" id="Fill-583" fill="#04BD99"></path>
                            <path d="M66.250731,28.4384959 C62.5270882,25.6670432 57.463653,24.7303501 52.9737144,25.9824931 C48.4837757,27.234636 44.6702689,30.6482546 42.9759216,34.9309698 C43.0380095,32.7630564 40.6296509,31.3821584 38.4859829,30.8961081 C35.1234306,30.1364532 31.5403027,30.3714312 28.3002924,31.5350551 C27.5552371,31.8038312 26.8853408,32.1965342 26.1190449,32.3043665 C25.2792238,32.4202461 24.4116264,32.3204609 23.5603681,32.4637009 C23.0702001,32.5473917 22.5898355,32.669709 22.1143725,32.8113396 C22.0506507,33.2796861 22,33.7576893 22,34.2373019 C22,34.7845109 22.0326779,35.3156255 22.1307115,35.8306457 C22.8986413,41.3027358 27.6696096,45.5033696 33.4372528,45.5033696 C34.9731124,45.5033696 36.4272774,45.1975764 37.7670699,44.6664617 C37.8814424,44.763028 38.0121539,44.8595943 38.1428653,44.9400662 C39.8911311,43.2984392 42.2602763,42.2844931 44.8745055,42.2844931 C48.7958493,42.2844931 52.1616694,44.5538011 53.730207,47.8209607 C55.4621338,46.6299764 57.5045004,45.8413517 59.7265952,45.5999359 C59.6449005,45.0366325 59.5795448,44.4733291 59.5795448,43.8939314 C59.5795448,37.6654053 64.6936307,32.6278636 71.0167976,32.6278636 C72.4056068,32.6278636 73.7290604,32.8692794 74.9544803,33.3199221 C77.0540331,31.6461063 78.5196354,29.2416055 79,26.50717 C74.805796,24.9122167 69.6900762,25.5334598 66.250731,28.4384959" id="Fill-584" fill="#015C50"></path>
                            <path d="M75.9194072,17.3066627 C75.3879929,17.3017736 74.8581889,17.2822173 74.3251642,17.3180705 C70.8548675,17.5592648 67.324988,18.835313 65.0093098,21.4607454 C62.6775281,19.1139901 59.358604,17.8069778 56.0734972,17.9389828 C52.7867801,18.0709878 49.5821906,19.6436398 47.4436505,22.1712908 C45.0232997,20.1292877 41.7092067,19.2166607 38.5996276,19.7365322 C35.4916589,20.2580333 32.642956,22.1989955 31.0004026,24.9205797 C29.2402939,23.3137043 26.7796845,22.608048 24.4124752,22.7563499 C22.0452658,22.9030221 19.773067,23.8466133 17.8036132,25.1813303 C16.7810432,25.8739491 15.859925,26.7018322 15,27.5900138 C16.0370631,30.8787306 19.0468007,33.2792657 22.6378733,33.2792657 C22.6861837,33.2792657 22.7183907,33.2629688 22.7667011,33.2629688 C22.757039,33.3281564 22.7602597,33.3982331 22.7505976,33.4650505 C23.2192084,33.3216376 23.6926503,33.1977811 24.1757542,33.1130372 C25.0147447,32.9679947 25.8698387,33.0690355 26.6975568,32.9516977 C27.4528093,32.8425084 28.1130514,32.4448638 28.8473693,32.1727054 C32.0406864,30.9944387 35.5721762,30.7565038 38.8862693,31.525718 C40.9990439,32.0178847 43.3726946,33.4161597 43.3115014,35.6113537 C44.9814307,31.2747455 48.7399794,27.8181706 53.1652115,26.5502709 C57.5904436,25.2823712 62.5809073,26.2308514 66.2508869,29.0371796 C69.6406663,26.0955871 74.6826611,25.4665263 78.8164205,27.0815502 C78.9259241,26.4459707 79,25.7973536 79,25.1308099 C79,22.096325 77.8260574,19.3486657 75.9194072,17.3066627" id="Fill-585" fill="#076B58"></path>
                            <path d="M8.20188668,64.9685442 C8.25515617,64.6830821 9.36574425,60.5397565 9.52716693,60.5694578 C8.65548443,60.4044508 7.91778275,59.7939249 7.36410294,59.0860449 C6.07110722,57.4326749 5.62719484,55.0912256 6.33906888,53.1028914 C6.7006557,52.0979988 7.36248871,51.2135613 8.19542977,50.568384 C8.6119003,50.2482704 9.07034073,49.9842593 9.55783724,49.7978014 C9.88068262,49.6740461 10.8782748,49.6195938 10.9912707,49.3258814 C11.0913528,49.0684705 10.3003816,47.9150716 10.1760861,47.6378598 C9.88391107,46.9877323 9.63209168,46.321104 9.43354178,45.636325 C9.04128465,44.2816176 8.86049124,42.8576073 9.01707125,41.4484476 C9.08325455,40.8461721 9.22853496,40.255447 9.41739951,39.6812227 C6.72002642,41.0161293 4.84268058,43.817948 4.84268058,47.0850864 C4.84268058,47.3160962 4.89110739,47.5306053 4.90724966,47.7451144 C2.01778358,48.9991675 0,51.9197913 0,55.335436 C0,58.7510807 2.01778358,61.6717045 4.90724966,62.9257576 C4.89110739,63.1402667 4.84268058,63.3547758 4.84268058,63.5857856 C4.84268058,65.9602362 6.07917836,68.0244736 7.92101121,69.1877729 C7.79994419,67.7819134 7.94683884,66.3595531 8.20188668,64.9685442" id="Fill-586" fill="#047D68"></path>
                            <path d="M38.6252118,44.6846529 C37.2890106,45.2300424 35.8387433,45.5440546 34.3070004,45.5440546 C28.5548168,45.5440546 23.7966367,41.2305189 23.0307652,35.6113537 L22.9004041,35.6278807 C20.1856342,35.6278807 17.8717247,37.3301572 16.8891279,39.7298713 C17.4007952,41.4271897 18.0623778,43.0815381 18.7272194,44.7243176 C18.9423152,45.259791 19.1590405,45.7952643 19.4181332,46.3109054 C19.8304002,47.1339478 20.3502151,48.0611101 20.9971321,48.7155776 C20.3599922,49.175027 19.7293704,49.5799374 19.1720767,50.1501174 C18.621301,50.7153393 18.1438535,51.3499744 17.7413636,52.0308851 C16.9363838,53.3894009 16.4279755,54.9280605 16.2291748,56.4981214 C15.833203,59.6332851 16.5697432,62.8246404 17.7755834,65.7399955 C15.9896363,66.8588705 14.6811367,68.6586561 14,70.6716394 C15.3362013,73.3985872 18.0672663,75.2925764 21.2708904,75.2925764 C21.824925,75.2925764 22.3463694,75.2429955 22.8678138,75.1273069 C24.8721158,74.7306599 26.6156955,73.5737729 27.7889454,71.9871851 L27.9356016,71.6731729 C24.8884109,69.5907764 22.9004041,66.0705347 22.9004041,62.0710112 C22.9004041,55.675079 28.0007822,50.5021416 34.3070004,50.5021416 C34.9099205,50.5021416 35.4802503,50.5682494 36.0668752,50.6508842 C36.4090731,48.419745 37.4682571,46.4530372 39,44.9656111 C38.8696389,44.8829763 38.7392778,44.7838146 38.6252118,44.6846529" id="Fill-587" fill="#023632"></path>
                            <path d="M17.7464418,66.3216561 C16.5286203,63.4243857 15.7847618,60.2528274 16.184668,57.1371121 C16.385444,55.5767908 16.8989039,54.0476759 17.711882,52.6975873 C18.118371,52.0209006 18.6005625,51.3902023 19.1568107,50.8284867 C19.7196417,50.2618436 20.3565295,49.859445 21,49.4028457 C20.3466552,48.7524381 19.8216754,47.8310273 19.4053121,47.0130904 C19.1436451,46.5006481 18.9247664,45.9684964 18.7075333,45.4363447 C18.0360858,43.8037559 17.3679297,42.1596699 16.8511784,40.4728805 C16.83143,40.5237962 16.803453,40.5664997 16.7837045,40.6174155 C15.6646253,40.0425603 14.3974327,39.6812227 13.0479548,39.6812227 C11.7659508,39.6812227 10.5662321,39.9998567 9.48335841,40.5237962 C9.29081096,41.0953665 9.14269753,41.6833613 9.07522364,42.2828532 C8.91559028,43.6854999 9.09990921,45.1029287 9.49981545,46.4513748 C9.70223713,47.1329888 9.95896707,47.796536 10.2568396,48.4436587 C10.3835589,48.7195892 11.1899542,49.8676572 11.0879205,50.1238784 C10.9727212,50.4162333 9.95567566,50.470434 9.62653472,50.5936172 C9.12953189,50.7792133 8.66215175,51.0420043 8.23755994,51.3606383 C7.38837631,52.0028337 6.71363737,52.8831835 6.34499952,53.8834315 C5.61924374,55.8625759 6.07181253,58.1932032 7.39002201,59.8389316 C7.95449873,60.5435399 8.70658578,61.151244 9.59526633,61.3154883 C9.43069586,61.2859243 8.29845101,65.4100999 8.24414276,65.6942426 C7.98412141,67.0788225 7.83436228,68.4946088 7.95779014,69.8939706 C8.96167001,70.5115294 10.1334118,70.887649 11.4022501,70.887649 C12.1757313,70.887649 12.8998414,70.7234046 13.5910374,70.4934625 C13.688134,70.7463988 13.8132075,70.9829107 13.933344,71.2227074 C14.6212485,69.2222113 15.9427494,67.4335903 17.7464418,66.3216561" id="Fill-588" fill="#025C4F"></path>
                            <path d="M18.2089091,24.9501489 C19.689697,23.9259827 21.3439394,23.1292246 23.0800909,22.7325055 C23.3370606,18.3918336 26.7949091,14.939215 31.0606061,14.939215 C32.2009091,14.939215 33.2769697,15.1882019 34.2566667,15.6363783 C36.2321212,12.2335572 39.7975758,9.95947665 43.9090909,9.95947665 C45.820303,9.95947665 47.6190909,10.4574505 49.2090909,11.3372043 C51.2006061,9.46150282 53.8506061,8.29956388 56.7575758,8.29956388 C61.082697,8.29956388 64.8264242,10.8193115 66.7071212,14.5126174 C67.4989091,13.7955351 68,13.2793022 68,13.2793022 C67.9518182,13.2793022 67.919697,13.2793022 67.8715152,13.2793022 C67.9518182,12.7481301 68,12.1837598 68,11.6193894 C68,5.19552699 62.9730303,0 56.7575758,0 C53.8506061,0 51.2006061,1.16193894 49.2090909,3.03764038 C47.6190909,2.15788661 45.820303,1.65991278 43.9090909,1.65991278 C39.7975758,1.65991278 36.2321212,3.93399328 34.2566667,7.33681447 C33.2769697,6.88863802 32.2009091,6.6396511 31.0606061,6.6396511 C26.6278788,6.6396511 23.030303,10.3578557 23.030303,14.939215 C23.030303,15.5201845 23.0945455,16.0679557 23.1909091,16.6157269 C23.1427273,16.6157269 23.0945455,16.5991278 23.030303,16.5991278 C18.5975758,16.5991278 15,20.3173324 15,24.8986916 C15,26.1934236 15.3212121,27.4001802 15.8399697,28.489083 C15.6777576,28.1371815 15.53,27.7786403 15.4127576,27.4035 C16.2703939,26.4988476 17.1890606,25.6556119 18.2089091,24.9501489" id="Fill-589" fill="#00A786"></path>
                        </g>
                    </g>
                </g>
            </g>
        </g>
    </g>
</svg>